<?xml version="1.0" encoding="utf-8"?>
<!-- Generator: Adobe Illustrator 25.4.1, SVG Export Plug-In . SVG Version: 6.00 Build 0)  -->
<svg version="1.1" id="New_VCP" xmlns="http://www.w3.org/2000/svg" xmlns:xlink="http://www.w3.org/1999/xlink" x="0px" y="0px"
	 viewBox="0 0 100 100" style="enable-background:new 0 0 100 100;" xml:space="preserve">
<style type="text/css">
	.st0{fill:#FFC70E;}
</style>
<path class="st0" d="M100,94c0,3.31-2.69,6-6,6H6c-3.31,0-6-2.69-6-6V6c0-3.31,2.69-6,6-6h88c3.31,0,6,2.69,6,6V94z"/>
<g>
	<path d="M26.01,24.39v-3.57h7.15v7.32c-1.37,1.07-2.58,1.8-3.63,2.19s-2.3,0.58-3.74,0.58c-1.78,0-3.22-0.35-4.34-1.04
		c-1.12-0.7-1.99-1.73-2.6-3.11c-0.62-1.38-0.92-2.95-0.92-4.73c0-1.88,0.34-3.51,1.01-4.89c0.67-1.39,1.66-2.44,2.96-3.16
		c1.01-0.55,2.38-0.83,4.09-0.83c1.65,0,2.89,0.17,3.71,0.52c0.82,0.34,1.5,0.88,2.04,1.6s0.95,1.64,1.22,2.75l-4.46,0.91
		c-0.18-0.65-0.5-1.14-0.93-1.49c-0.44-0.34-1-0.52-1.68-0.52c-1.01,0-1.82,0.4-2.42,1.21c-0.6,0.81-0.9,2.09-0.9,3.84
		c0,1.86,0.3,3.19,0.91,3.98c0.61,0.8,1.46,1.2,2.55,1.2c0.52,0,1.01-0.09,1.48-0.26c0.47-0.17,1.01-0.46,1.61-0.88v-1.62H26.01z"/>
	<path d="M35.32,22.04c0-2.8,0.68-4.99,2.04-6.55s3.26-2.34,5.69-2.34c2.49,0,4.41,0.77,5.76,2.3c1.35,1.54,2.02,3.69,2.02,6.45
		c0,2.01-0.29,3.65-0.88,4.94s-1.44,2.29-2.55,3c-1.11,0.71-2.5,1.07-4.16,1.07c-1.69,0-3.08-0.31-4.19-0.93
		c-1.11-0.62-2-1.59-2.69-2.93C35.67,25.72,35.32,24.04,35.32,22.04z M39.95,22.06c0,1.73,0.28,2.98,0.84,3.74
		c0.56,0.76,1.33,1.14,2.29,1.14c0.99,0,1.76-0.37,2.31-1.11s0.82-2.07,0.82-4c0-1.62-0.28-2.8-0.85-3.54s-1.34-1.12-2.31-1.12
		c-0.93,0-1.68,0.38-2.25,1.14S39.95,20.31,39.95,22.06z"/>
	<path d="M51.72,13.44h14.06v4.24h-4.72v12.94h-4.62V17.68h-4.72V13.44z"/>
	<path d="M66.58,22.04c0-2.8,0.68-4.99,2.04-6.55c1.36-1.56,3.26-2.34,5.69-2.34c2.49,0,4.41,0.77,5.76,2.3
		c1.35,1.54,2.02,3.69,2.02,6.45c0,2.01-0.29,3.65-0.88,4.94s-1.44,2.29-2.55,3s-2.5,1.07-4.16,1.07c-1.69,0-3.08-0.31-4.19-0.93
		s-2-1.59-2.69-2.93C66.92,25.72,66.58,24.04,66.58,22.04z M71.2,22.06c0,1.73,0.28,2.98,0.84,3.74s1.33,1.14,2.29,1.14
		c0.99,0,1.76-0.37,2.31-1.11c0.54-0.74,0.82-2.07,0.82-4c0-1.62-0.28-2.8-0.85-3.54c-0.57-0.75-1.34-1.12-2.31-1.12
		c-0.93,0-1.68,0.38-2.25,1.14C71.48,19.06,71.2,20.31,71.2,22.06z"/>
	<path d="M9.8,39.44h14.06v4.24h-4.72v12.94h-4.62V43.68H9.8V39.44z"/>
	<path d="M24.66,48.04c0-2.8,0.68-4.99,2.04-6.55s3.26-2.34,5.69-2.34c2.49,0,4.41,0.77,5.76,2.3c1.35,1.54,2.02,3.69,2.02,6.45
		c0,2.01-0.29,3.65-0.88,4.94s-1.44,2.29-2.55,3s-2.5,1.07-4.16,1.07c-1.69,0-3.08-0.31-4.19-0.93c-1.11-0.62-2-1.59-2.69-2.93
		C25,51.72,24.66,50.05,24.66,48.04z M29.28,48.06c0,1.73,0.28,2.98,0.84,3.74c0.56,0.76,1.33,1.14,2.29,1.14
		c0.99,0,1.76-0.37,2.31-1.11s0.82-2.07,0.82-4c0-1.62-0.28-2.8-0.85-3.54s-1.34-1.12-2.31-1.12c-0.93,0-1.68,0.38-2.25,1.14
		S29.28,46.31,29.28,48.06z"/>
	<path d="M42.71,56.62V39.44h7.71c1.43,0,2.52,0.14,3.28,0.42c0.76,0.28,1.37,0.8,1.83,1.56s0.69,1.69,0.69,2.78
		c0,0.95-0.18,1.78-0.53,2.47c-0.35,0.69-0.84,1.25-1.46,1.68c-0.4,0.27-0.94,0.5-1.62,0.68c0.55,0.21,0.95,0.42,1.2,0.63
		c0.17,0.14,0.42,0.44,0.74,0.9c0.32,0.46,0.54,0.82,0.65,1.07l2.24,4.98h-5.22l-2.47-5.25c-0.31-0.68-0.59-1.12-0.84-1.32
		c-0.33-0.27-0.71-0.4-1.13-0.4h-0.41v6.97H42.71z M47.36,46.4h1.95c0.21,0,0.62-0.08,1.22-0.23c0.31-0.07,0.56-0.25,0.75-0.54
		c0.2-0.29,0.29-0.62,0.29-1c0-0.55-0.15-0.98-0.46-1.28s-0.88-0.45-1.72-0.45h-2.03V46.4z"/>
	<path d="M68.5,49.58l4.05,1.41c-0.27,1.3-0.7,2.39-1.29,3.27s-1.31,1.54-2.18,1.98c-0.87,0.45-1.97,0.67-3.31,0.67
		c-1.63,0-2.96-0.27-3.99-0.81c-1.03-0.54-1.92-1.5-2.67-2.86c-0.75-1.37-1.12-3.11-1.12-5.25c0-2.84,0.66-5.03,1.97-6.55
		c1.32-1.53,3.18-2.29,5.59-2.29c1.88,0,3.37,0.44,4.45,1.31s1.88,2.22,2.4,4.03l-4.08,1.04c-0.14-0.52-0.29-0.91-0.45-1.15
		c-0.26-0.41-0.58-0.72-0.95-0.94c-0.38-0.22-0.79-0.33-1.26-0.33c-1.05,0-1.85,0.48-2.41,1.45c-0.42,0.72-0.63,1.85-0.63,3.38
		c0,1.9,0.25,3.21,0.76,3.91c0.5,0.71,1.21,1.06,2.12,1.06c0.88,0,1.55-0.29,2.01-0.86C67.96,51.5,68.29,50.67,68.5,49.58z"/>
	<path d="M74.81,39.44h4.62v6.01h5.05v-6.01h4.64v17.18h-4.64v-6.95h-5.05v6.95h-4.62V39.44z"/>
	<path d="M16.72,65.44h4.62v6.01h5.05v-6.01h4.64v17.18H26.4v-6.95h-5.05v6.95h-4.62V65.44z"/>
	<path d="M33.54,74.04c0-2.8,0.68-4.99,2.04-6.55s3.26-2.34,5.69-2.34c2.49,0,4.41,0.77,5.76,2.3c1.35,1.54,2.02,3.69,2.02,6.45
		c0,2.01-0.29,3.65-0.88,4.94c-0.59,1.29-1.44,2.29-2.55,3c-1.11,0.71-2.5,1.07-4.16,1.07c-1.69,0-3.08-0.31-4.19-0.93
		c-1.11-0.62-2-1.59-2.69-2.93C33.88,77.72,33.54,76.04,33.54,74.04z M38.16,74.06c0,1.73,0.28,2.98,0.84,3.74
		c0.56,0.76,1.33,1.14,2.29,1.14c0.99,0,1.76-0.37,2.31-1.11s0.82-2.07,0.82-4c0-1.62-0.28-2.8-0.85-3.54s-1.34-1.12-2.31-1.12
		c-0.93,0-1.68,0.38-2.25,1.14S38.16,72.31,38.16,74.06z"/>
	<path d="M51.48,65.44h6.08l2.34,10.45l2.33-10.45h6.08v17.18h-3.79v-13.1l-2.92,13.1h-3.43l-2.91-13.1v13.1h-3.79V65.44z"/>
	<path d="M71.25,65.44h12.39v3.67h-7.76v2.73h7.2v3.5h-7.2v3.39h7.98v3.89H71.25V65.44z"/>
</g>
</svg>
