<svg id="New_VCP" data-name="New VCP" xmlns="http://www.w3.org/2000/svg" width="100" height="100" viewBox="0 0 100 100">
  <title>set_axis_0</title>
  <g>
    <rect x="0.5" y="0.5" width="99.01" height="99.01" rx="5.94" style="fill: #fff"/>
    <path d="M93.56,100H6.44A6.45,6.45,0,0,1,0,93.56V6.44A6.45,6.45,0,0,1,6.44,0H93.56A6.45,6.45,0,0,1,100,6.44V93.56A6.45,6.45,0,0,1,93.56,100ZM6.44,1A5.45,5.45,0,0,0,1,6.44V93.56A5.45,5.45,0,0,0,6.44,99H93.56A5.45,5.45,0,0,0,99,93.56V6.44A5.45,5.45,0,0,0,93.56,1Z" style="fill: #010101"/>
  </g>
  <g>
    <path d="M28.46,35.81l4.32-.31a4.25,4.25,0,0,0,.58,1.85,2.27,2.27,0,0,0,2,1,2,2,0,0,0,1.5-.52,1.68,1.68,0,0,0,.53-1.22,1.64,1.64,0,0,0-.5-1.17,5.4,5.4,0,0,0-2.33-1,9.38,9.38,0,0,1-4.26-2A4.39,4.39,0,0,1,29,29.17a4.88,4.88,0,0,1,.66-2.46,4.56,4.56,0,0,1,2-1.82,8.14,8.14,0,0,1,3.61-.66,6.7,6.7,0,0,1,4.3,1.2,5.5,5.5,0,0,1,1.76,3.83L37,29.55a2.88,2.88,0,0,0-.72-1.66,2.13,2.13,0,0,0-1.51-.52,1.62,1.62,0,0,0-1.19.39,1.25,1.25,0,0,0-.4.94,1,1,0,0,0,.33.72,3.4,3.4,0,0,0,1.52.63,17,17,0,0,1,4.27,1.49,4.67,4.67,0,0,1,1.87,1.87,5.3,5.3,0,0,1,.59,2.5,5.93,5.93,0,0,1-.78,3A5.11,5.11,0,0,1,38.83,41a7.82,7.82,0,0,1-3.54.71c-2.5,0-4.23-.56-5.19-1.66A7,7,0,0,1,28.46,35.81Z" style="fill: #231f20"/>
    <path d="M44.08,24.52H56.25v3.6H48.63v2.69H55.7v3.44H48.63v3.33h7.84V41.4H44.08Z" style="fill: #231f20"/>
    <path d="M57.89,24.52H71.7v4.17H67.06V41.4H62.52V28.69H57.89Z" style="fill: #231f20"/>
    <path d="M22.88,64.82H17.72L17,67.6H12.36l5.53-16.88h5L28.37,67.6H23.61Zm-.94-3.65L20.31,55.1l-1.6,6.07Z" style="fill: #231f20"/>
    <path d="M28.81,50.72h5l2.6,5.19L39,50.72h5L39.33,58.9l5,8.7H39.23l-2.9-5.42-2.9,5.42H28.35l5.07-8.8Z" style="fill: #231f20"/>
    <path d="M46,50.72h4.56V67.6H46Z" style="fill: #231f20"/>
    <path d="M53,62l4.33-.31a4.08,4.08,0,0,0,.57,1.84,2.29,2.29,0,0,0,2,1,2,2,0,0,0,1.5-.52,1.64,1.64,0,0,0,0-2.39,5.4,5.4,0,0,0-2.33-1,9.28,9.28,0,0,1-4.26-2,4.39,4.39,0,0,1-1.29-3.26,4.87,4.87,0,0,1,.66-2.45,4.5,4.5,0,0,1,2-1.82,8,8,0,0,1,3.61-.67,6.62,6.62,0,0,1,4.3,1.21,5.41,5.41,0,0,1,1.76,3.82l-4.28.29a2.7,2.7,0,0,0-.72-1.65,2.08,2.08,0,0,0-1.51-.52,1.68,1.68,0,0,0-1.19.38,1.25,1.25,0,0,0-.4.94,1,1,0,0,0,.33.73,3.42,3.42,0,0,0,1.52.62,17.38,17.38,0,0,1,4.27,1.49,4.76,4.76,0,0,1,1.88,1.87,5.32,5.32,0,0,1,.58,2.5,5.93,5.93,0,0,1-.78,3,5.09,5.09,0,0,1-2.18,2.08,7.9,7.9,0,0,1-3.55.71q-3.75,0-5.19-1.66A7,7,0,0,1,53,62Z" style="fill: #231f20"/>
    <path d="M74.81,59.09q0-4.81,1.51-6.73a5.46,5.46,0,0,1,4.6-1.93,6,6,0,0,1,2.43.42A4.43,4.43,0,0,1,84.91,52a5.93,5.93,0,0,1,1,1.41,8.28,8.28,0,0,1,.55,1.74A18.09,18.09,0,0,1,86.82,59q0,4.59-1.35,6.72T80.8,67.89a5.83,5.83,0,0,1-3-.68,5.17,5.17,0,0,1-1.88-2,8.36,8.36,0,0,1-.83-2.55A20.68,20.68,0,0,1,74.81,59.09Zm4,0a13.07,13.07,0,0,0,.5,4.41c.33.78.81,1.18,1.43,1.18a1.41,1.41,0,0,0,1.08-.5,3.23,3.23,0,0,0,.67-1.58,18.43,18.43,0,0,0,.22-3.38,13.48,13.48,0,0,0-.49-4.52,1.62,1.62,0,0,0-1.49-1.16,1.55,1.55,0,0,0-1.47,1.18A14.17,14.17,0,0,0,78.86,59.1Z" style="fill: #231f20"/>
  </g>
</svg>
