<?xml version="1.0" encoding="UTF-8" standalone="no"?>
<!DOCTYPE svg PUBLIC "-//W3C//DTD SVG 1.1//EN" "http://www.w3.org/Graphics/SVG/1.1/DTD/svg11.dtd">
<svg width="100%" height="100%" viewBox="0 0 300 300" version="1.1" xmlns="http://www.w3.org/2000/svg" xmlns:xlink="http://www.w3.org/1999/xlink" xml:space="preserve" xmlns:serif="http://www.serif.com/" style="fill-rule:evenodd;clip-rule:evenodd;stroke-linecap:round;stroke-linejoin:round;stroke-miterlimit:1.5;">
    <g transform="matrix(1,0,0,1,-2139.67,-52.9923)">
        <g id="Layer-1" serif:id="Layer 1">
        </g>
        <g transform="matrix(0.301848,0,0,0.582975,1896.86,-1003.7)">
            <rect x="804.411" y="1812.59" width="993.877" height="514.602" style="fill:none;"/>
            <g transform="matrix(3.31292,0,0,1.71534,753.061,-2685.89)">
                <rect x="27" y="2634" width="277" height="277" style="fill:#888;stroke:#000;stroke-width:8.33px;"/>
            </g>
            <g transform="matrix(3.31292,0,0,1.71534,-612.41,1767.14)">
                <g transform="matrix(62.5,0,0,62.5,500.074,130.869)">
                    <path d="M-0,-0.716L0.209,-0.716L0.285,-0.316L0.396,-0.716L0.605,-0.716L0.716,-0.316L0.792,-0.716L1,-0.716L0.843,-0L0.626,-0L0.5,-0.451L0.375,-0L0.159,-0L-0,-0.716Z" style="fill:#0b0a08;fill-rule:nonzero;"/>
                </g>
                <g transform="matrix(62.5,0,0,62.5,561.506,130.869)">
                    <path d="M0.55,-0.292L0.744,-0.234C0.731,-0.18 0.71,-0.134 0.682,-0.098C0.654,-0.061 0.619,-0.034 0.578,-0.015C0.536,0.003 0.484,0.013 0.419,0.013C0.342,0.013 0.278,0.001 0.229,-0.021C0.179,-0.044 0.137,-0.084 0.101,-0.141C0.065,-0.198 0.047,-0.271 0.047,-0.359C0.047,-0.478 0.079,-0.569 0.142,-0.633C0.205,-0.696 0.294,-0.728 0.409,-0.728C0.499,-0.728 0.57,-0.71 0.622,-0.673C0.673,-0.637 0.712,-0.581 0.737,-0.505L0.542,-0.462C0.535,-0.484 0.528,-0.5 0.52,-0.51C0.508,-0.527 0.493,-0.54 0.475,-0.549C0.457,-0.558 0.437,-0.563 0.415,-0.563C0.364,-0.563 0.326,-0.542 0.299,-0.502C0.279,-0.472 0.269,-0.425 0.269,-0.361C0.269,-0.281 0.281,-0.227 0.305,-0.198C0.329,-0.168 0.363,-0.153 0.407,-0.153C0.449,-0.153 0.481,-0.165 0.503,-0.189C0.524,-0.213 0.54,-0.247 0.55,-0.292Z" style="fill:#0b0a08;fill-rule:nonzero;"/>
                </g>
                <g transform="matrix(62.5,0,0,62.5,610.12,130.869)">
                    <path d="M0.035,-0.237L0.245,-0.25C0.25,-0.216 0.259,-0.19 0.273,-0.172C0.296,-0.143 0.328,-0.128 0.371,-0.128C0.402,-0.128 0.427,-0.136 0.444,-0.151C0.461,-0.165 0.469,-0.183 0.469,-0.202C0.469,-0.221 0.461,-0.237 0.445,-0.252C0.429,-0.267 0.391,-0.28 0.332,-0.293C0.235,-0.315 0.165,-0.344 0.124,-0.38C0.082,-0.417 0.062,-0.463 0.062,-0.519C0.062,-0.555 0.072,-0.59 0.094,-0.623C0.115,-0.656 0.147,-0.681 0.19,-0.7C0.233,-0.719 0.291,-0.728 0.366,-0.728C0.457,-0.728 0.527,-0.711 0.575,-0.677C0.623,-0.643 0.652,-0.589 0.661,-0.515L0.452,-0.502C0.447,-0.535 0.435,-0.558 0.417,-0.573C0.399,-0.587 0.375,-0.595 0.344,-0.595C0.318,-0.595 0.299,-0.589 0.286,-0.578C0.273,-0.567 0.266,-0.554 0.266,-0.539C0.266,-0.527 0.271,-0.517 0.282,-0.508C0.293,-0.498 0.317,-0.49 0.356,-0.481C0.453,-0.461 0.522,-0.44 0.564,-0.418C0.606,-0.397 0.636,-0.37 0.656,-0.339C0.675,-0.307 0.684,-0.272 0.684,-0.233C0.684,-0.187 0.671,-0.145 0.646,-0.106C0.621,-0.067 0.585,-0.038 0.54,-0.018C0.494,0.002 0.437,0.012 0.367,0.012C0.245,0.012 0.161,-0.011 0.114,-0.058C0.067,-0.105 0.041,-0.165 0.035,-0.237Z" style="fill:#0b0a08;fill-rule:nonzero;"/>
                </g>
            </g>
            <g transform="matrix(3.31292,0,0,1.71534,-1674.24,1550.71)">
                <path d="M845.354,339L951,340" style="fill:none;stroke:#000;stroke-width:29.17px;stroke-linecap:butt;stroke-linejoin:miter;"/>
            </g>
            <g transform="matrix(-0.0313572,-1.71526,3.31277,-0.0162359,204.827,3679.19)">
                <path d="M845.354,339L951,340" style="fill:none;stroke:#000;stroke-width:29.17px;stroke-linecap:butt;stroke-linejoin:miter;"/>
            </g>
        </g>
    </g>
</svg>
