<?xml version="1.0" encoding="UTF-8" standalone="no"?>
<!DOCTYPE svg PUBLIC "-//W3C//DTD SVG 1.1//EN" "http://www.w3.org/Graphics/SVG/1.1/DTD/svg11.dtd">
<svg width="100%" height="100%" viewBox="0 0 300 300" version="1.1" xmlns="http://www.w3.org/2000/svg" xmlns:xlink="http://www.w3.org/1999/xlink" xml:space="preserve" xmlns:serif="http://www.serif.com/" style="fill-rule:evenodd;clip-rule:evenodd;stroke-miterlimit:1.5;">
    <g transform="matrix(1,0,0,1,-1801.5,-3401.99)">
        <g transform="matrix(0.301848,0,0,0.582975,1558.69,2345.3)">
            <rect x="804.411" y="1812.59" width="993.877" height="514.602" style="fill:none;"/>
            <g transform="matrix(3.31292,0,0,1.71534,3320.58,-4448.4)">
                <rect x="-746" y="3694" width="75" height="171" style="fill:#08b200;stroke:#000;stroke-width:6.25px;"/>
                <g transform="matrix(1,0,0,1,9.5,0)">
                    <rect x="-724" y="3869" width="12" height="21" style="fill:#08b200;stroke:#000;stroke-width:6.25px;"/>
                </g>
                <g transform="matrix(1,0,0,1,5.5,-19)">
                    <rect x="-735" y="3906" width="42" height="19" style="fill:#08b200;stroke:#000;stroke-width:6.25px;"/>
                </g>
                <g transform="matrix(1,0,0,1,11.5,-38)">
                    <rect x="-725" y="3944" width="10" height="24" style="fill:#08b200;stroke:#000;stroke-width:6.25px;"/>
                </g>
                <g transform="matrix(1,0,0,1,82,14)">
                    <rect x="-801" y="3656" width="21" height="24" style="fill:#08b200;stroke:#000;stroke-width:6.25px;"/>
                </g>
                <g transform="matrix(0.78,0,0,0.714286,-41.6,1068.14)">
                    <rect x="-880" y="3714" width="50" height="56" style="fill:#08b200;stroke:#000;stroke-width:8.36px;"/>
                </g>
            </g>
            <g transform="matrix(3.31292,0,0,1.71534,-340.204,1845.19)">
                <g transform="matrix(54.1667,0,0,54.1667,467.532,123.303)">
                    <path d="M0.035,-0.237L0.245,-0.25C0.25,-0.216 0.259,-0.19 0.273,-0.172C0.296,-0.143 0.328,-0.128 0.371,-0.128C0.402,-0.128 0.427,-0.136 0.444,-0.151C0.461,-0.165 0.469,-0.183 0.469,-0.202C0.469,-0.221 0.461,-0.237 0.445,-0.252C0.429,-0.267 0.391,-0.28 0.332,-0.293C0.235,-0.315 0.165,-0.344 0.124,-0.38C0.082,-0.417 0.062,-0.463 0.062,-0.519C0.062,-0.555 0.072,-0.59 0.094,-0.623C0.115,-0.656 0.147,-0.681 0.19,-0.7C0.233,-0.719 0.291,-0.728 0.366,-0.728C0.457,-0.728 0.527,-0.711 0.575,-0.677C0.623,-0.643 0.652,-0.589 0.661,-0.515L0.452,-0.502C0.447,-0.535 0.435,-0.558 0.417,-0.573C0.399,-0.587 0.375,-0.595 0.344,-0.595C0.318,-0.595 0.299,-0.589 0.286,-0.578C0.273,-0.567 0.266,-0.554 0.266,-0.539C0.266,-0.527 0.271,-0.517 0.282,-0.508C0.293,-0.498 0.317,-0.49 0.356,-0.481C0.453,-0.461 0.522,-0.44 0.564,-0.418C0.606,-0.397 0.636,-0.37 0.656,-0.339C0.675,-0.307 0.684,-0.272 0.684,-0.233C0.684,-0.187 0.671,-0.145 0.646,-0.106C0.621,-0.067 0.585,-0.038 0.54,-0.018C0.494,0.002 0.437,0.012 0.367,0.012C0.245,0.012 0.161,-0.011 0.114,-0.058C0.067,-0.105 0.041,-0.165 0.035,-0.237Z" style="fill:#0b0a08;fill-rule:nonzero;"/>
                </g>
                <g transform="matrix(54.1667,0,0,54.1667,506.65,123.303)">
                    <path d="M0.072,-0.716L0.44,-0.716C0.52,-0.716 0.58,-0.697 0.62,-0.659C0.66,-0.621 0.68,-0.566 0.68,-0.496C0.68,-0.424 0.658,-0.367 0.615,-0.327C0.571,-0.286 0.505,-0.266 0.416,-0.266L0.294,-0.266L0.294,-0L0.072,-0L0.072,-0.716ZM0.294,-0.411L0.349,-0.411C0.391,-0.411 0.421,-0.418 0.438,-0.433C0.456,-0.448 0.464,-0.467 0.464,-0.49C0.464,-0.512 0.457,-0.531 0.442,-0.547C0.427,-0.563 0.399,-0.57 0.357,-0.57L0.294,-0.57L0.294,-0.411Z" style="fill:#0b0a08;fill-rule:nonzero;"/>
                </g>
                <g transform="matrix(54.1667,0,0,54.1667,545.767,123.303)">
                    <rect x="0.082" y="-0.716" width="0.222" height="0.716" style="fill:#0b0a08;fill-rule:nonzero;"/>
                </g>
                <g transform="matrix(54.1667,0,0,54.1667,566.847,123.303)">
                    <path d="M0.075,-0.716L0.281,-0.716L0.551,-0.32L0.551,-0.716L0.759,-0.716L0.759,-0L0.551,-0L0.283,-0.393L0.283,-0L0.075,-0L0.075,-0.716Z" style="fill:#0b0a08;fill-rule:nonzero;"/>
                </g>
                <g transform="matrix(54.1667,0,0,54.1667,441.017,177.47)">
                    <path d="M0.035,-0.237L0.245,-0.25C0.25,-0.216 0.259,-0.19 0.273,-0.172C0.296,-0.143 0.328,-0.128 0.371,-0.128C0.402,-0.128 0.427,-0.136 0.444,-0.151C0.461,-0.165 0.469,-0.183 0.469,-0.202C0.469,-0.221 0.461,-0.237 0.445,-0.252C0.429,-0.267 0.391,-0.28 0.332,-0.293C0.235,-0.315 0.165,-0.344 0.124,-0.38C0.082,-0.417 0.062,-0.463 0.062,-0.519C0.062,-0.555 0.072,-0.59 0.094,-0.623C0.115,-0.656 0.147,-0.681 0.19,-0.7C0.233,-0.719 0.291,-0.728 0.366,-0.728C0.457,-0.728 0.527,-0.711 0.575,-0.677C0.623,-0.643 0.652,-0.589 0.661,-0.515L0.452,-0.502C0.447,-0.535 0.435,-0.558 0.417,-0.573C0.399,-0.587 0.375,-0.595 0.344,-0.595C0.318,-0.595 0.299,-0.589 0.286,-0.578C0.273,-0.567 0.266,-0.554 0.266,-0.539C0.266,-0.527 0.271,-0.517 0.282,-0.508C0.293,-0.498 0.317,-0.49 0.356,-0.481C0.453,-0.461 0.522,-0.44 0.564,-0.418C0.606,-0.397 0.636,-0.37 0.656,-0.339C0.675,-0.307 0.684,-0.272 0.684,-0.233C0.684,-0.187 0.671,-0.145 0.646,-0.106C0.621,-0.067 0.585,-0.038 0.54,-0.018C0.494,0.002 0.437,0.012 0.367,0.012C0.245,0.012 0.161,-0.011 0.114,-0.058C0.067,-0.105 0.041,-0.165 0.035,-0.237Z" style="fill:#0b0a08;fill-rule:nonzero;"/>
                </g>
                <g transform="matrix(54.1667,0,0,54.1667,480.135,177.47)">
                    <path d="M0.023,-0.716L0.695,-0.716L0.695,-0.539L0.47,-0.539L0.47,-0L0.249,-0L0.249,-0.539L0.023,-0.539L0.023,-0.716Z" style="fill:#0b0a08;fill-rule:nonzero;"/>
                </g>
                <g transform="matrix(54.1667,0,0,54.1667,515.576,177.47)">
                    <path d="M0.514,-0.118L0.262,-0.118L0.227,-0L0.001,-0L0.27,-0.716L0.511,-0.716L0.78,-0L0.549,-0L0.514,-0.118ZM0.467,-0.273L0.388,-0.53L0.31,-0.273L0.467,-0.273Z" style="fill:#0b0a08;fill-rule:nonzero;"/>
                </g>
                <g transform="matrix(54.1667,0,0,54.1667,557.709,177.47)">
                    <path d="M0.076,-0L0.076,-0.716L0.445,-0.716C0.513,-0.716 0.565,-0.71 0.602,-0.698C0.638,-0.687 0.667,-0.665 0.689,-0.633C0.711,-0.601 0.722,-0.563 0.722,-0.517C0.722,-0.477 0.714,-0.443 0.697,-0.414C0.68,-0.385 0.657,-0.362 0.627,-0.344C0.608,-0.333 0.582,-0.323 0.549,-0.316C0.576,-0.307 0.595,-0.298 0.607,-0.29C0.615,-0.284 0.627,-0.271 0.642,-0.252C0.658,-0.233 0.668,-0.218 0.673,-0.208L0.78,-0L0.53,-0L0.412,-0.219C0.397,-0.247 0.384,-0.265 0.372,-0.274C0.356,-0.285 0.338,-0.291 0.318,-0.291L0.298,-0.291L0.298,-0L0.076,-0ZM0.298,-0.426L0.392,-0.426C0.402,-0.426 0.421,-0.429 0.45,-0.436C0.465,-0.438 0.477,-0.446 0.486,-0.458C0.495,-0.47 0.5,-0.484 0.5,-0.5C0.5,-0.523 0.493,-0.54 0.478,-0.553C0.463,-0.565 0.436,-0.571 0.396,-0.571L0.298,-0.571L0.298,-0.426Z" style="fill:#0b0a08;fill-rule:nonzero;"/>
                </g>
                <g transform="matrix(54.1667,0,0,54.1667,599.365,177.47)">
                    <path d="M0.023,-0.716L0.695,-0.716L0.695,-0.539L0.47,-0.539L0.47,-0L0.249,-0L0.249,-0.539L0.023,-0.539L0.023,-0.716Z" style="fill:#0b0a08;fill-rule:nonzero;"/>
                </g>
            </g>
        </g>
        <g id="Layer-1" serif:id="Layer 1">
        </g>
    </g>
</svg>
