<?xml version="1.0" encoding="utf-8"?>
<!-- Generator: Adobe Illustrator 26.3.1, SVG Export Plug-In . SVG Version: 6.00 Build 0)  -->
<svg version="1.1" id="New_VCP" xmlns="http://www.w3.org/2000/svg" xmlns:xlink="http://www.w3.org/1999/xlink" x="0px" y="0px"
	 viewBox="0 0 100 100" style="enable-background:new 0 0 100 100;" xml:space="preserve">
<style type="text/css">
	.st0{fill:#FFFFFF;}
	.st1{fill-rule:evenodd;clip-rule:evenodd;}
</style>
<path class="st0" d="M100,94c0,3.3-2.7,6-6,6H6c-3.3,0-6-2.7-6-6V6c0-3.3,2.7-6,6-6h88c3.3,0,6,2.7,6,6V94z"/>
<g>
	<path class="st1" d="M23,76c14.8,15.5,39.6,15.3,54.2-0.2c7.6-8,10.5-17.7,10.3-26.4C87.4,41,84.8,30.4,75,22
		c-13.3-11.4-27.4-11.7-41.2-5.5c10.6,10.6,21.2,21.2,31.8,31.8c2.2-2.1,5.8-5.9,8.6-8.6c0.6,8.5,0.2,17.5,0.2,26.2
		c0,1.1,0.7,8.1,0,8.8c-0.1,0.1-3.2,0-4.2,0c-4.9,0-8.8-0.2-13.2-0.2c-6.3,0-12.2,0.6-17.2-0.4c2.7-2.7,6.4-6.3,8.4-8.4
		C37.6,55.1,27,44.5,16.4,33.9C9.9,48,11.1,63.7,23,76z"/>
	<path class="st1" d="M16.4,33.9C27,44.5,37.6,55.1,48.2,65.6c-2.1,2.1-5.7,5.7-8.4,8.4c5.1,1,11,0.4,17.2,0.4
		c4.4,0,8.3,0.2,13.2,0.2c1,0,4.1,0.1,4.2,0c0.7-0.7,0-7.7,0-8.8c0-8.8,0.4-17.7-0.2-26.2c-2.8,2.8-6.4,6.5-8.6,8.6
		C55.1,37.6,44.5,27.1,33.9,16.5C47.6,10.3,61.8,10.7,75,22c9.8,8.3,12.3,19,12.4,27.4c0.1,8.7-2.8,18.4-10.3,26.4
		C62.5,91.3,37.8,91.5,23,76C11.1,63.7,9.9,48,16.4,33.9z"/>
</g>
</svg>
