<?xml version="1.0" encoding="utf-8"?>
<!-- Generator: Adobe Illustrator 24.0.2, SVG Export Plug-In . SVG Version: 6.00 Build 0)  -->
<svg version="1.1" id="New_VCP" xmlns="http://www.w3.org/2000/svg" xmlns:xlink="http://www.w3.org/1999/xlink" x="0px" y="0px"
	 width="100px" height="100px" viewBox="0 0 100 100" style="enable-background:new 0 0 100 100;" xml:space="preserve">
<style type="text/css">
	.st0{fill:#252D6B;}
	.st1{display:none;fill:#82151E;}
	.st2{fill:#FFFFFF;}
</style>
<path class="st0" d="M100,94c0,3.3-2.7,6-6,6H6c-3.3,0-6-2.7-6-6V6c0-3.3,2.7-6,6-6h88c3.3,0,6,2.7,6,6V94z"/>
<path class="st1" d="M35.1,3h-0.7H7.6C5.1,3,3,5,3,7.4v25.9v1.8L35.1,3z"/>
<g>
	<g>
		<path class="st2" d="M12.8,47.4V30.9h6.3c1.6,0,2.7,0.1,3.5,0.4c0.7,0.3,1.3,0.8,1.7,1.6s0.6,1.6,0.6,2.6c0,1.2-0.3,2.3-1,3.1
			c-0.7,0.8-1.6,1.3-2.9,1.5c0.6,0.4,1.2,0.9,1.6,1.4c0.4,0.5,1,1.4,1.7,2.7l1.8,3.2h-3.6l-2.2-3.6c-0.8-1.3-1.3-2.1-1.6-2.4
			s-0.6-0.6-0.9-0.7c-0.3-0.1-0.8-0.2-1.5-0.2h-0.6v6.9H12.8z M15.8,37.9H18c1.4,0,2.3-0.1,2.7-0.2c0.4-0.1,0.6-0.4,0.8-0.7
			c0.2-0.3,0.3-0.7,0.3-1.2c0-0.6-0.1-1-0.4-1.3c-0.3-0.3-0.6-0.6-1.1-0.6c-0.2,0-1-0.1-2.2-0.1h-2.3V37.9z"/>
		<path class="st2" d="M27.7,47.4V30.9h11v2.8h-8v3.7h7.5v2.8h-7.5v4.5H39v2.8H27.7z"/>
		<path class="st2" d="M41.2,43v-3.2h5.6V43H41.2z"/>
		<path class="st2" d="M48.5,47.4V30.9h4.8c1.8,0,3,0.1,3.6,0.2c0.9,0.2,1.6,0.8,2.1,1.6s0.9,1.9,0.9,3.2c0,1-0.2,1.9-0.5,2.6
			c-0.3,0.7-0.8,1.2-1.3,1.6c-0.5,0.4-1,0.7-1.6,0.8c-0.7,0.2-1.8,0.2-3.1,0.2h-2v6.2H48.5z M51.5,33.7v4.7h1.6c1.2,0,2-0.1,2.4-0.3
			c0.4-0.2,0.7-0.4,0.9-0.8s0.3-0.8,0.3-1.3c0-0.6-0.2-1.1-0.5-1.5s-0.7-0.6-1.2-0.7c-0.4-0.1-1.1-0.1-2.2-0.1H51.5z"/>
		<path class="st2" d="M74.2,47.4h-3.3l-1.3-3.7h-5.9l-1.2,3.7h-3.2l5.8-16.5h3.2L74.2,47.4z M68.6,40.9l-2-6.1l-2,6.1H68.6z"/>
		<path class="st2" d="M75.7,47.4V30.9h3v16.5H75.7z"/>
		<path class="st2" d="M81.5,47.4V30.9h6.3c1.6,0,2.7,0.1,3.5,0.4c0.7,0.3,1.3,0.8,1.7,1.6c0.4,0.8,0.6,1.6,0.6,2.6
			c0,1.2-0.3,2.3-1,3.1c-0.7,0.8-1.6,1.3-2.9,1.5c0.6,0.4,1.2,0.9,1.6,1.4c0.4,0.5,1,1.4,1.7,2.7l1.8,3.2h-3.6l-2.2-3.6
			c-0.8-1.3-1.3-2.1-1.6-2.4c-0.3-0.3-0.6-0.6-0.9-0.7c-0.3-0.1-0.8-0.2-1.5-0.2h-0.6v6.9H81.5z M84.5,37.9h2.2
			c1.4,0,2.3-0.1,2.7-0.2c0.4-0.1,0.6-0.4,0.8-0.7c0.2-0.3,0.3-0.7,0.3-1.2c0-0.6-0.1-1-0.4-1.3s-0.6-0.6-1.1-0.6
			c-0.2,0-1-0.1-2.2-0.1h-2.3V37.9z"/>
		<path class="st2" d="M39.8,71.8h-3.3l-1.3-3.7h-5.9l-1.2,3.7h-3.2l5.8-16.5h3.2L39.8,71.8z M34.3,65.3l-2-6.1l-2,6.1H34.3z"/>
		<path class="st2" d="M39.9,71.8l5.1-8.6l-4.6-7.9h3.5l3,5.3l2.9-5.3h3.5l-4.6,8l5.1,8.5H50l-3.3-5.7l-3.3,5.7H39.9z"/>
		<path class="st2" d="M55.2,71.8V55.3h11v2.8h-8v3.7h7.5v2.8h-7.5V69h8.3v2.8H55.2z"/>
		<path class="st2" d="M68.3,66.4l2.9-0.3c0.2,1.1,0.5,1.9,1.1,2.4c0.5,0.5,1.3,0.8,2.2,0.8c1,0,1.7-0.2,2.2-0.7
			c0.5-0.5,0.7-1,0.7-1.6c0-0.4-0.1-0.7-0.3-1c-0.2-0.3-0.6-0.5-1.1-0.7c-0.4-0.1-1.2-0.4-2.4-0.7c-1.6-0.4-2.7-1-3.4-1.6
			c-0.9-0.9-1.4-2-1.4-3.3c0-0.8,0.2-1.6,0.6-2.4c0.4-0.7,1-1.3,1.9-1.7s1.8-0.6,2.9-0.6c1.9,0,3.3,0.5,4.2,1.4
			c0.9,0.9,1.4,2.1,1.5,3.6l-3,0.1c-0.1-0.8-0.4-1.5-0.8-1.8c-0.4-0.4-1.1-0.6-1.9-0.6c-0.9,0-1.6,0.2-2,0.6c-0.3,0.3-0.5,0.6-0.5,1
			c0,0.4,0.1,0.7,0.4,1c0.4,0.4,1.3,0.7,2.8,1.1c1.5,0.4,2.5,0.8,3.2,1.2c0.7,0.4,1.2,1,1.6,1.7c0.4,0.7,0.6,1.6,0.6,2.6
			c0,0.9-0.2,1.8-0.7,2.7s-1.1,1.4-2,1.8s-1.9,0.6-3.2,0.6c-1.9,0-3.3-0.5-4.3-1.4C69.1,69.7,68.5,68.3,68.3,66.4z"/>
	</g>
</g>
</svg>
