<?xml version="1.0" encoding="utf-8"?>
<!-- Generator: Adobe Illustrator 27.0.1, SVG Export Plug-In . SVG Version: 6.00 Build 0)  -->
<svg version="1.1" id="New_VCP" xmlns="http://www.w3.org/2000/svg" xmlns:xlink="http://www.w3.org/1999/xlink" x="0px" y="0px"
	 viewBox="0 0 100 100" style="enable-background:new 0 0 100 100;" xml:space="preserve">
<style type="text/css">
	.st0{fill:#FFFFFF;}
</style>
<g>
	<path class="st0" d="M93,99.5H7c-3.6,0-6.5-2.9-6.5-6.5V7c0-3.6,2.9-6.5,6.5-6.5h86c3.6,0,6.5,2.9,6.5,6.5v86
		C99.5,96.6,96.6,99.5,93,99.5z"/>
	<path d="M93.1,100H6.9C3.1,100,0,96.9,0,93.1V6.9C0,3.1,3.1,0,6.9,0h86.1c3.8,0,6.9,3.1,6.9,6.9v86.1C100,96.9,96.9,100,93.1,100z
		 M6.9,1C3.7,1,1,3.7,1,6.9v86.1C1,96.3,3.7,99,6.9,99h86.1c3.3,0,5.9-2.7,5.9-5.9V6.9C99,3.7,96.3,1,93.1,1H6.9z"/>
</g>
<path d="M97.5,77.9c-7.9,1.3-14.3-2.1-19.8-7.1C69,62.8,60.2,54.9,51.5,47c-0.1-0.5-0.2-0.9-0.3-1.4c4.8-1,9.5-2.2,14.3-2.8
	c3.3-0.4,6.8,0.3,10.2-0.2c6.4-0.8,11.4,1.6,16,5.7c3.6,3.2,4.6,3.4,8.2,6.7c-0.7-7.1,0.4-11.2,0.2-18.1c-11.7,0.1-22.7,0.1-34.4,0
	c-5.9-0.1-11.3,1.2-16.6,3.8c-1.2,0.6-3.1,0.3-4.6,0C40,39.5,35.7,38,31.3,37c-1.1-0.2-2.8,0.6-3.6,1.5C22.4,45,17.4,51.6,12.2,58
	c-1.5,1.8-1.2,3.1,0.2,4.8c3.8,4.7,7.5,9.5,11.2,14.3c6.2,7.8,8,8.3,17.4,4.4c1.1-0.4,2.1-1.3,3.2-1.4c1.6-0.2,3.6-0.6,5,0.1
	c5.3,2.6,10.7,3.9,16.6,3.8c12.1-0.1,21.9,0.3,33.9,0c0.4-2,0.1-3.6,0.3-5.6C98.2,77.1,99.4,77.6,97.5,77.9z M40.2,75.2
	c-7.3,3.4-7.6,3.3-12.5-2.8c-3.6-4.5-7.1-9-10.6-13.6c0.3-0.6,0.5-1.1,0.8-1.7c2.6,0.7,5.7,0.6,7.6,2.1c5.9,4.5,11.3,9.7,17,14.7
	C41.5,74.5,40.9,74.9,40.2,75.2z"/>
<g>
	<path d="M28.9,22.8V6.7h5.7c5.7,0,8.6,2.6,8.6,7.9c0,2.5-0.8,4.5-2.3,6c-1.6,1.5-3.6,2.2-6.2,2.2H28.9z M32.6,9.7v10.2h1.8
		c1.6,0,2.8-0.5,3.7-1.4c0.9-0.9,1.3-2.2,1.3-3.9c0-1.5-0.4-2.7-1.3-3.6c-0.9-0.9-2.1-1.3-3.7-1.3H32.6z"/>
	<path d="M53,14.5c-0.4-0.2-0.9-0.3-1.5-0.3c-0.8,0-1.4,0.3-1.8,0.8c-0.4,0.6-0.7,1.3-0.7,2.3v5.5h-3.5V11.3h3.5v2.1h0
		c0.6-1.6,1.6-2.3,3-2.3c0.4,0,0.7,0,0.9,0.1V14.5z"/>
	<path d="M56.6,9.5c-0.6,0-1.1-0.2-1.5-0.5c-0.4-0.4-0.6-0.8-0.6-1.3c0-0.5,0.2-1,0.6-1.3s0.9-0.5,1.5-0.5c0.6,0,1.1,0.2,1.5,0.5
		s0.6,0.8,0.6,1.3c0,0.5-0.2,1-0.6,1.3S57.2,9.5,56.6,9.5z M58.3,22.8h-3.5V11.3h3.5V22.8z"/>
	<path d="M64.9,22.8h-3.5v-17h3.5V22.8z"/>
	<path d="M71.4,22.8h-3.5v-17h3.5V22.8z"/>
</g>
</svg>
