<?xml version="1.0" encoding="utf-8"?>
<!-- Generator: Adobe Illustrator 25.4.1, SVG Export Plug-In . SVG Version: 6.00 Build 0)  -->
<svg version="1.1" id="New_VCP" xmlns="http://www.w3.org/2000/svg" xmlns:xlink="http://www.w3.org/1999/xlink" x="0px" y="0px"
	 viewBox="0 0 100 100" style="enable-background:new 0 0 100 100;" xml:space="preserve">
<style type="text/css">
	.st0{fill:#FFC70E;}
</style>
<path class="st0" d="M100,94c0,3.31-2.69,6-6,6H6c-3.31,0-6-2.69-6-6V6c0-3.31,2.69-6,6-6h88c3.31,0,6,2.69,6,6V94z"/>
<g>
	<path d="M26.01,24.39v-3.57h7.15v7.32c-1.37,1.07-2.58,1.8-3.63,2.19s-2.3,0.58-3.74,0.58c-1.78,0-3.22-0.35-4.34-1.04
		c-1.12-0.7-1.99-1.73-2.6-3.11c-0.62-1.38-0.92-2.95-0.92-4.73c0-1.88,0.34-3.51,1.01-4.89c0.67-1.39,1.66-2.44,2.96-3.16
		c1.01-0.55,2.38-0.83,4.09-0.83c1.65,0,2.89,0.17,3.71,0.52c0.82,0.34,1.5,0.88,2.04,1.6s0.95,1.64,1.22,2.75l-4.46,0.91
		c-0.18-0.65-0.5-1.14-0.93-1.49c-0.44-0.34-1-0.52-1.68-0.52c-1.01,0-1.82,0.4-2.42,1.21c-0.6,0.81-0.9,2.09-0.9,3.84
		c0,1.86,0.3,3.19,0.91,3.98c0.61,0.8,1.46,1.2,2.55,1.2c0.52,0,1.01-0.09,1.48-0.26c0.47-0.17,1.01-0.46,1.61-0.88v-1.62H26.01z"/>
	<path d="M35.32,22.04c0-2.8,0.68-4.99,2.04-6.55s3.26-2.34,5.69-2.34c2.49,0,4.41,0.77,5.76,2.3c1.35,1.54,2.02,3.69,2.02,6.45
		c0,2.01-0.29,3.65-0.88,4.94s-1.44,2.29-2.55,3c-1.11,0.71-2.5,1.07-4.16,1.07c-1.69,0-3.08-0.31-4.19-0.93
		c-1.11-0.62-2-1.59-2.69-2.93C35.66,25.72,35.32,24.04,35.32,22.04z M39.94,22.06c0,1.73,0.28,2.98,0.84,3.74
		c0.56,0.76,1.33,1.14,2.29,1.14c0.99,0,1.76-0.37,2.31-1.11s0.82-2.07,0.82-4c0-1.62-0.28-2.8-0.85-3.54s-1.34-1.12-2.31-1.12
		c-0.93,0-1.68,0.38-2.25,1.14S39.94,20.31,39.94,22.06z"/>
	<path d="M51.72,13.44h14.06v4.24h-4.72v12.94h-4.62V17.68h-4.72V13.44z"/>
	<path d="M66.58,22.04c0-2.8,0.68-4.99,2.04-6.55c1.36-1.56,3.26-2.34,5.69-2.34c2.49,0,4.41,0.77,5.76,2.3
		c1.35,1.54,2.02,3.69,2.02,6.45c0,2.01-0.29,3.65-0.88,4.94s-1.44,2.29-2.55,3s-2.5,1.07-4.16,1.07c-1.69,0-3.08-0.31-4.19-0.93
		s-2-1.59-2.69-2.93C66.92,25.72,66.58,24.04,66.58,22.04z M71.2,22.06c0,1.73,0.28,2.98,0.84,3.74s1.33,1.14,2.29,1.14
		c0.99,0,1.76-0.37,2.31-1.11c0.54-0.74,0.82-2.07,0.82-4c0-1.62-0.28-2.8-0.85-3.54c-0.57-0.75-1.34-1.12-2.31-1.12
		c-0.93,0-1.68,0.38-2.25,1.14C71.48,19.06,71.2,20.31,71.2,22.06z"/>
	<path d="M20.53,50.93l4.4-0.32c0.1,0.82,0.29,1.44,0.58,1.87c0.48,0.7,1.16,1.04,2.04,1.04c0.66,0,1.17-0.18,1.53-0.53
		s0.54-0.77,0.54-1.24c0-0.45-0.17-0.84-0.51-1.19s-1.13-0.68-2.37-1c-2.03-0.52-3.47-1.22-4.34-2.09
		c-0.87-0.87-1.31-1.97-1.31-3.32c0-0.88,0.22-1.72,0.67-2.5s1.12-1.4,2.01-1.85c0.9-0.45,2.12-0.67,3.68-0.67
		c1.91,0,3.37,0.41,4.37,1.22s1.6,2.12,1.79,3.9l-4.36,0.29c-0.12-0.77-0.36-1.34-0.73-1.69s-0.88-0.53-1.54-0.53
		c-0.54,0-0.94,0.13-1.21,0.39c-0.27,0.26-0.41,0.58-0.41,0.96c0,0.27,0.11,0.52,0.34,0.74c0.22,0.23,0.73,0.44,1.55,0.63
		c2.02,0.5,3.47,1.01,4.34,1.52s1.51,1.15,1.91,1.9c0.4,0.76,0.6,1.61,0.6,2.54c0,1.1-0.27,2.12-0.8,3.05s-1.27,1.63-2.23,2.12
		c-0.95,0.48-2.15,0.72-3.6,0.72c-2.54,0-4.31-0.56-5.29-1.69S20.65,52.67,20.53,50.93z"/>
	<path d="M45.63,53.78h-5.25l-0.73,2.84h-4.72l5.62-17.18h5.04l5.62,17.18h-4.84L45.63,53.78z M44.67,50.06l-1.65-6.18l-1.63,6.18
		H44.67z"/>
	<path d="M52.71,39.44h11.43v3.69h-6.79v3h5.8v3.47h-5.8v7.02h-4.64V39.44z"/>
	<path d="M66.62,39.44h12.39v3.67h-7.76v2.73h7.2v3.5h-7.2v3.39h7.98v3.89H66.62V39.44z"/>
	<path d="M13.81,65.44h4.62v6.01h5.05v-6.01h4.64v17.18h-4.64v-6.95h-5.05v6.95h-4.62V65.44z"/>
	<path d="M42.96,77.58h-8.33c0.07,0.77,0.25,1.34,0.54,1.71c0.4,0.54,0.93,0.81,1.57,0.81c0.41,0,0.8-0.12,1.16-0.35
		c0.22-0.15,0.47-0.41,0.72-0.79l4.09,0.43c-0.63,1.25-1.38,2.15-2.27,2.69s-2.15,0.81-3.81,0.81c-1.44,0-2.57-0.23-3.39-0.7
		c-0.82-0.46-1.51-1.2-2.05-2.21s-0.81-2.2-0.81-3.57c0-1.95,0.54-3.52,1.63-4.72s2.58-1.8,4.5-1.8c1.55,0,2.78,0.27,3.67,0.81
		c0.9,0.54,1.58,1.32,2.05,2.34c0.47,1.02,0.7,2.36,0.7,4V77.58z M38.74,75.29c-0.08-0.92-0.3-1.58-0.65-1.98s-0.81-0.6-1.38-0.6
		c-0.66,0-1.19,0.3-1.58,0.9c-0.25,0.38-0.41,0.93-0.48,1.68H38.74z"/>
	<path d="M45.02,65.44h4.15v3.25h-4.15V65.44z M45.02,70.17h4.15v12.45h-4.15V70.17z"/>
	<path d="M59.38,70.17h3.89v11.75l0.01,0.55c0,0.78-0.14,1.53-0.43,2.23c-0.29,0.71-0.67,1.28-1.15,1.72
		c-0.48,0.44-1.09,0.75-1.83,0.95s-1.58,0.29-2.54,0.29c-2.18,0-3.67-0.38-4.49-1.12s-1.22-1.75-1.22-3.01
		c0-0.16,0.01-0.37,0.02-0.63l4.03,0.53c0.1,0.43,0.26,0.73,0.47,0.89c0.31,0.24,0.69,0.36,1.15,0.36c0.6,0,1.05-0.18,1.34-0.55
		s0.44-1.01,0.44-1.92v-1.89c-0.41,0.55-0.82,0.96-1.22,1.21c-0.64,0.39-1.33,0.59-2.07,0.59c-1.45,0-2.62-0.73-3.51-2.18
		c-0.63-1.03-0.95-2.39-0.95-4.09c0-1.94,0.41-3.41,1.22-4.43s1.88-1.52,3.21-1.52c0.84,0,1.54,0.16,2.09,0.49s1.06,0.87,1.54,1.63
		V70.17z M55.47,76.21c0,0.9,0.17,1.56,0.5,2c0.33,0.43,0.77,0.65,1.32,0.65c0.52,0,0.95-0.22,1.3-0.67s0.53-1.13,0.53-2.03
		s-0.18-1.6-0.55-2.08c-0.37-0.48-0.82-0.72-1.35-0.72c-0.53,0-0.95,0.22-1.27,0.66S55.47,75.18,55.47,76.21z"/>
	<path d="M65.78,65.44h4.15v6.33c0.56-0.67,1.13-1.15,1.68-1.44c0.56-0.29,1.22-0.43,1.98-0.43c1.13,0,2.02,0.39,2.67,1.18
		c0.65,0.79,0.98,2,0.98,3.63v7.91h-4.17v-6.84c0-0.78-0.13-1.33-0.38-1.66s-0.61-0.49-1.06-0.49c-0.5,0-0.91,0.22-1.22,0.66
		c-0.31,0.44-0.47,1.22-0.47,2.36v5.98h-4.15V65.44z"/>
	<path d="M84.73,65.44v4.73h2.29v3.49h-2.29v4.41c0,0.53,0.04,0.88,0.13,1.05c0.14,0.26,0.37,0.4,0.71,0.4c0.31,0,0.74-0.1,1.29-0.3
		l0.31,3.29c-1.03,0.26-1.99,0.39-2.88,0.39c-1.03,0-1.8-0.15-2.29-0.46c-0.49-0.3-0.85-0.77-1.09-1.39
		c-0.24-0.62-0.35-1.62-0.35-3.01v-4.38h-1.53v-3.49h1.53v-2.29L84.73,65.44z"/>
</g>
</svg>
