<svg id="New_VCP" data-name="New VCP" xmlns="http://www.w3.org/2000/svg" width="100" height="100" viewBox="0 0 100 100">
  <title>spindle_CCW</title>
  <rect width="100" height="100" rx="6" style="fill: #fff"/>
  <path d="M91,50A34.5,34.5,0,0,1,32.1,74.4l7.17-7.18a24.37,24.37,0,1,0,2.29-36.45L47,36.22l-26.09,6.7,6.73-26.09,6.69,6.71A34.51,34.51,0,0,1,91,50Z" style="fill: #010101"/>
  <g>
    <path d="M42.85,57.08v-16h4.49L50,52,52.7,41.12h4.5v16H54.41V44.52L51.47,57.08H48.58L45.64,44.52V57.08Z" style="fill: #010101"/>
    <path d="M65.13,57.08V53.87H59.05V51.19L65.5,41.05h2.39V51.18h1.84v2.69H67.89v3.21Zm0-5.9V45.72l-3.41,5.46Z" style="fill: #010101"/>
  </g>
</svg>
