<?xml version="1.0" encoding="utf-8"?>
<!-- Generator: Adobe Illustrator 25.3.1, SVG Export Plug-In . SVG Version: 6.00 Build 0)  -->
<svg version="1.1" id="New_VCP" xmlns="http://www.w3.org/2000/svg" xmlns:xlink="http://www.w3.org/1999/xlink" x="0px" y="0px"
	 viewBox="0 0 100 100" style="enable-background:new 0 0 100 100;" xml:space="preserve">
<style type="text/css">
	.st0{fill:#FFC70E;}
	.st1{fill:#231F20;}
</style>
<path class="st0" d="M100,94c0,3.31-2.69,6-6,6H6c-3.31,0-6-2.69-6-6V6c0-3.31,2.69-6,6-6h88c3.31,0,6,2.69,6,6V94z"/>
<g>
	<path class="st1" d="M28.46,26.63h14.56v4.39h-4.88v13.4h-4.79v-13.4h-4.88V26.63z"/>
	<path class="st1" d="M45.21,26.63H50v6.23h5.23v-6.23h4.81v17.79h-4.81v-7.2H50v7.2h-4.79V26.63z"/>
	<path class="st1" d="M73.54,37.14l4.2,1.46c-0.28,1.35-0.73,2.48-1.33,3.39c-0.61,0.91-1.36,1.59-2.26,2.05
		c-0.9,0.46-2.04,0.69-3.43,0.69c-1.68,0-3.06-0.28-4.13-0.84c-1.07-0.56-1.99-1.55-2.76-2.96c-0.77-1.42-1.16-3.23-1.16-5.43
		c0-2.94,0.68-5.2,2.04-6.78c1.36-1.58,3.29-2.37,5.79-2.37c1.95,0,3.49,0.45,4.6,1.36c1.12,0.91,1.95,2.3,2.49,4.17l-4.23,1.08
		c-0.15-0.54-0.3-0.94-0.46-1.19c-0.27-0.42-0.6-0.74-0.98-0.97c-0.39-0.23-0.82-0.34-1.3-0.34c-1.08,0-1.92,0.5-2.49,1.5
		c-0.44,0.74-0.66,1.91-0.66,3.5c0,1.97,0.26,3.32,0.78,4.05c0.52,0.73,1.25,1.1,2.2,1.1c0.92,0,1.61-0.29,2.08-0.89
		C72.98,39.12,73.32,38.27,73.54,37.14z"/>
	<path class="st1" d="M30.8,66.34h-5.44l-0.76,2.94h-4.89l5.82-17.79h5.22l5.82,17.79h-5.01L30.8,66.34z M29.81,62.49l-1.71-6.4
		l-1.69,6.4H29.81z"/>
	<path class="st1" d="M47.46,51.49h4.78v10.6c0,1.05-0.14,2.04-0.43,2.98s-0.73,1.75-1.34,2.45c-0.61,0.7-1.25,1.19-1.92,1.47
		c-0.93,0.4-2.05,0.59-3.35,0.59c-0.75,0-1.58-0.06-2.47-0.18c-0.89-0.12-1.64-0.36-2.24-0.72c-0.6-0.36-1.15-0.87-1.64-1.53
		c-0.5-0.66-0.84-1.35-1.02-2.05c-0.3-1.13-0.44-2.13-0.44-3.01v-10.6h4.78v10.85c0,0.97,0.23,1.73,0.7,2.27
		c0.47,0.55,1.12,0.82,1.95,0.82c0.82,0,1.47-0.27,1.94-0.81c0.47-0.54,0.7-1.3,0.7-2.29V51.49z"/>
	<path class="st1" d="M54.32,51.49h14.55v4.39h-4.88v13.4H59.2v-13.4h-4.88V51.49z"/>
	<path class="st1" d="M69.7,60.39c0-2.9,0.7-5.17,2.11-6.78c1.41-1.62,3.37-2.43,5.89-2.43c2.58,0,4.57,0.79,5.96,2.38
		c1.39,1.59,2.09,3.82,2.09,6.68c0,2.08-0.31,3.78-0.92,5.12c-0.61,1.33-1.49,2.37-2.64,3.11c-1.15,0.74-2.59,1.11-4.31,1.11
		c-1.75,0-3.19-0.32-4.34-0.96c-1.15-0.64-2.07-1.65-2.79-3.03C70.05,64.2,69.7,62.47,69.7,60.39z M74.49,60.42
		c0,1.8,0.29,3.09,0.87,3.87c0.58,0.78,1.37,1.18,2.37,1.18c1.03,0,1.82-0.38,2.39-1.15c0.56-0.77,0.85-2.15,0.85-4.14
		c0-1.67-0.29-2.9-0.88-3.67c-0.59-0.77-1.39-1.16-2.39-1.16c-0.96,0-1.74,0.39-2.33,1.18C74.78,57.31,74.49,58.61,74.49,60.42z"/>
</g>
</svg>
