<?xml version="1.0" encoding="UTF-8" standalone="no"?>
<!DOCTYPE svg PUBLIC "-//W3C//DTD SVG 1.1//EN" "http://www.w3.org/Graphics/SVG/1.1/DTD/svg11.dtd">
<svg width="100%" height="100%" viewBox="0 0 300 300" version="1.1" xmlns="http://www.w3.org/2000/svg" xmlns:xlink="http://www.w3.org/1999/xlink" xml:space="preserve" xmlns:serif="http://www.serif.com/" style="fill-rule:evenodd;clip-rule:evenodd;stroke-miterlimit:1.5;">
    <g transform="matrix(1,0,0,1,-4741.32,-776.992)">
        <g id="Layer-1" serif:id="Layer 1">
        </g>
        <g transform="matrix(0.301848,0,0,0.582975,4498.51,-279.704)">
            <rect x="804.411" y="1812.59" width="993.877" height="514.602" style="fill:none;"/>
            <clipPath id="_clip1">
                <rect x="804.411" y="1812.59" width="993.877" height="514.602"/>
            </clipPath>
            <g clip-path="url(#_clip1)">
                <g transform="matrix(3.31292,0,0,1.71534,-378.634,1801.54)">
                    <g transform="matrix(62.5,0,0,62.5,440.215,122.119)">
                        <path d="M0.433,-0.259L0.433,-0.408L0.775,-0.408L0.775,-0.103C0.709,-0.058 0.652,-0.028 0.601,-0.012C0.551,0.004 0.491,0.012 0.422,0.012C0.337,0.012 0.268,-0.002 0.215,-0.031C0.161,-0.06 0.12,-0.103 0.09,-0.161C0.061,-0.218 0.046,-0.284 0.046,-0.358C0.046,-0.436 0.062,-0.504 0.094,-0.562C0.126,-0.62 0.174,-0.663 0.236,-0.693C0.284,-0.716 0.35,-0.728 0.432,-0.728C0.511,-0.728 0.57,-0.721 0.609,-0.707C0.648,-0.692 0.681,-0.67 0.707,-0.64C0.733,-0.61 0.752,-0.572 0.765,-0.525L0.552,-0.487C0.543,-0.514 0.528,-0.535 0.507,-0.549C0.486,-0.564 0.459,-0.571 0.427,-0.571C0.378,-0.571 0.34,-0.554 0.311,-0.52C0.282,-0.487 0.268,-0.433 0.268,-0.36C0.268,-0.283 0.282,-0.228 0.311,-0.194C0.34,-0.161 0.381,-0.145 0.433,-0.145C0.458,-0.145 0.481,-0.148 0.504,-0.155C0.526,-0.162 0.552,-0.175 0.581,-0.192L0.581,-0.259L0.433,-0.259Z" style="fill:#0b0a08;fill-rule:nonzero;"/>
                    </g>
                    <g transform="matrix(62.5,0,0,62.5,492.278,122.119)">
                        <path d="M0.045,-0.357C0.045,-0.474 0.078,-0.565 0.143,-0.63C0.208,-0.695 0.299,-0.728 0.415,-0.728C0.534,-0.728 0.626,-0.696 0.69,-0.632C0.755,-0.568 0.787,-0.479 0.787,-0.363C0.787,-0.28 0.773,-0.211 0.745,-0.157C0.717,-0.104 0.676,-0.062 0.623,-0.032C0.57,-0.003 0.503,0.012 0.424,0.012C0.343,0.012 0.276,-0.001 0.223,-0.026C0.17,-0.052 0.128,-0.093 0.095,-0.148C0.062,-0.204 0.045,-0.274 0.045,-0.357ZM0.267,-0.356C0.267,-0.284 0.28,-0.232 0.307,-0.201C0.334,-0.169 0.37,-0.153 0.417,-0.153C0.464,-0.153 0.501,-0.169 0.527,-0.2C0.553,-0.231 0.566,-0.286 0.566,-0.366C0.566,-0.434 0.552,-0.483 0.525,-0.514C0.498,-0.545 0.461,-0.561 0.415,-0.561C0.37,-0.561 0.334,-0.545 0.307,-0.513C0.28,-0.482 0.267,-0.429 0.267,-0.356Z" style="fill:#0b0a08;fill-rule:nonzero;"/>
                    </g>
                    <g transform="matrix(62.5,0,0,62.5,542.723,122.119)">
                        <path d="M0.023,-0.716L0.695,-0.716L0.695,-0.539L0.47,-0.539L0.47,-0L0.249,-0L0.249,-0.539L0.023,-0.539L0.023,-0.716Z" style="fill:#0b0a08;fill-rule:nonzero;"/>
                    </g>
                    <g transform="matrix(62.5,0,0,62.5,585.722,122.119)">
                        <path d="M0.045,-0.357C0.045,-0.474 0.078,-0.565 0.143,-0.63C0.208,-0.695 0.299,-0.728 0.415,-0.728C0.534,-0.728 0.626,-0.696 0.69,-0.632C0.755,-0.568 0.787,-0.479 0.787,-0.363C0.787,-0.28 0.773,-0.211 0.745,-0.157C0.717,-0.104 0.676,-0.062 0.623,-0.032C0.57,-0.003 0.503,0.012 0.424,0.012C0.343,0.012 0.276,-0.001 0.223,-0.026C0.17,-0.052 0.128,-0.093 0.095,-0.148C0.062,-0.204 0.045,-0.274 0.045,-0.357ZM0.267,-0.356C0.267,-0.284 0.28,-0.232 0.307,-0.201C0.334,-0.169 0.37,-0.153 0.417,-0.153C0.464,-0.153 0.501,-0.169 0.527,-0.2C0.553,-0.231 0.566,-0.286 0.566,-0.366C0.566,-0.434 0.552,-0.483 0.525,-0.514C0.498,-0.545 0.461,-0.561 0.415,-0.561C0.37,-0.561 0.334,-0.545 0.307,-0.513C0.28,-0.482 0.267,-0.429 0.267,-0.356Z" style="fill:#0b0a08;fill-rule:nonzero;"/>
                    </g>
                    <g transform="matrix(62.5,0,0,62.5,495.589,184.619)">
                        <path d="M0.055,-0.716L0.681,-0.716L0.681,-0.573L0.28,-0.154L0.696,-0.154L0.696,-0L0.017,-0L0.017,-0.148L0.414,-0.563L0.055,-0.563L0.055,-0.716Z" style="fill:#0b0a08;fill-rule:nonzero;"/>
                    </g>
                    <g transform="matrix(62.5,0,0,62.5,540.724,184.619)">
                        <path d="M0.041,-0.361C0.041,-0.497 0.066,-0.592 0.115,-0.646C0.163,-0.701 0.238,-0.728 0.338,-0.728C0.387,-0.728 0.426,-0.722 0.457,-0.71C0.488,-0.698 0.513,-0.683 0.533,-0.664C0.552,-0.645 0.568,-0.625 0.579,-0.604C0.59,-0.583 0.599,-0.558 0.606,-0.53C0.619,-0.477 0.626,-0.421 0.626,-0.363C0.626,-0.233 0.604,-0.138 0.56,-0.078C0.516,-0.018 0.44,0.012 0.333,0.012C0.273,0.012 0.224,0.003 0.187,-0.017C0.15,-0.036 0.119,-0.064 0.096,-0.101C0.078,-0.127 0.065,-0.163 0.055,-0.209C0.046,-0.255 0.041,-0.306 0.041,-0.361ZM0.238,-0.36C0.238,-0.269 0.246,-0.207 0.262,-0.174C0.279,-0.14 0.302,-0.124 0.333,-0.124C0.353,-0.124 0.37,-0.131 0.385,-0.145C0.4,-0.159 0.411,-0.181 0.418,-0.212C0.425,-0.243 0.428,-0.29 0.428,-0.355C0.428,-0.45 0.42,-0.514 0.404,-0.547C0.388,-0.579 0.364,-0.596 0.332,-0.596C0.299,-0.596 0.275,-0.579 0.26,-0.546C0.246,-0.512 0.238,-0.451 0.238,-0.36Z" style="fill:#0b0a08;fill-rule:nonzero;"/>
                    </g>
                </g>
                <g transform="matrix(3.31292,0,0,1.71534,3311.28,-278.032)">
                    <g transform="matrix(1.26079,0,0,1.30865,-1530.15,64.913)">
                        <g transform="matrix(1.39057,-0.0256326,0.0356556,0.999671,-210.006,18.5641)">
                            <path d="M719,1072L563,1068" style="fill:none;stroke:#000;stroke-width:24.06px;"/>
                        </g>
                        <g transform="matrix(-0.0256326,-1.39057,0.999671,-0.0356556,-398.718,1929.29)">
                            <path d="M719,1072L563,1068" style="fill:none;stroke:#005cff;stroke-width:23.74px;"/>
                        </g>
                    </g>
                    <g transform="matrix(6.12323e-17,-1,0.606454,3.71346e-17,-1605.7,815.101)">
                        <g transform="matrix(6.12323e-17,-1,1,6.12323e-17,-1997.96,694.759)">
                            <path d="M-790.5,1417L-749,1467L-832,1467L-790.5,1417Z" style="stroke:#000;stroke-width:7.56px;"/>
                        </g>
                        <g transform="matrix(0.665581,0,0,1,-180.888,0)">
                            <rect x="-511" y="1443.76" width="48" height="83" style="stroke:#000;stroke-width:9.82px;"/>
                        </g>
                        <g transform="matrix(0.429854,5.29836e-33,0,1,-259.674,-3.22538e-30)">
                            <rect x="-511" y="1443.76" width="48" height="83" style="stroke:#000;stroke-width:11.89px;"/>
                        </g>
                        <g transform="matrix(0.263459,6.49477e-33,0,1,-313.418,-7.8003e-30)">
                            <rect x="-511" y="1443.76" width="48" height="83" style="stroke:#000;stroke-width:13.37px;"/>
                        </g>
                    </g>
                </g>
            </g>
        </g>
    </g>
</svg>
