<svg id="New_VCP" data-name="New VCP" xmlns="http://www.w3.org/2000/svg" width="100" height="100" viewBox="0 0 100 100">
  <title>limit_switch_defeat</title>
  <g>
    <rect x="0.5" y="0.5" width="99.01" height="99.01" rx="5.94" style="fill: #fff"/>
    <path d="M93.56,100H6.44A6.45,6.45,0,0,1,0,93.56V6.44A6.45,6.45,0,0,1,6.44,0H93.56A6.45,6.45,0,0,1,100,6.44V93.56A6.45,6.45,0,0,1,93.56,100ZM6.44,1A5.45,5.45,0,0,0,1,6.44V93.56A5.45,5.45,0,0,0,6.44,99H93.56A5.45,5.45,0,0,0,99,93.56V6.44A5.45,5.45,0,0,0,93.56,1Z" style="fill: #010101"/>
  </g>
  <g>
    <path d="M24.72,22h4V33.91H35V37.8H24.72Z" style="fill: #231f20"/>
    <path d="M36.93,22h4V37.8h-4Z" style="fill: #231f20"/>
    <path d="M43.76,22H49l2,9.64,2-9.64h5.25V37.8H55V25.73L52.51,37.8h-3L47,25.73V37.8H43.76Z" style="fill: #231f20"/>
    <path d="M61,22h4V37.8H61Z" style="fill: #231f20"/>
    <path d="M67,22H79.13v3.91H75.05V37.8h-4V25.88H67Z" style="fill: #231f20"/>
  </g>
  <g>
    <path d="M14.85,55.07l3.56-.28a3.68,3.68,0,0,0,.47,1.63,1.85,1.85,0,0,0,1.65.91,1.6,1.6,0,0,0,1.23-.47,1.5,1.5,0,0,0,.43-1.07,1.54,1.54,0,0,0-.41-1,4.35,4.35,0,0,0-1.91-.86,7.46,7.46,0,0,1-3.51-1.81,4,4,0,0,1-1-2.87A4.56,4.56,0,0,1,15.85,47a3.81,3.81,0,0,1,1.62-1.61,6.28,6.28,0,0,1,3-.59A5.22,5.22,0,0,1,24,45.91a4.91,4.91,0,0,1,1.44,3.38l-3.52.25a2.5,2.5,0,0,0-.59-1.46,1.64,1.64,0,0,0-1.24-.46,1.3,1.3,0,0,0-1,.34,1.15,1.15,0,0,0-.33.83.9.9,0,0,0,.27.64,2.76,2.76,0,0,0,1.26.55,13.78,13.78,0,0,1,3.51,1.31,4.17,4.17,0,0,1,1.54,1.65,5,5,0,0,1,.48,2.21,5.48,5.48,0,0,1-.64,2.64,4.38,4.38,0,0,1-1.8,1.84,6.15,6.15,0,0,1-2.91.62c-2.06,0-3.48-.49-4.27-1.46A6.46,6.46,0,0,1,14.85,55.07Z" style="fill: #231f20"/>
    <path d="M26.46,45.1H30l1.28,8.34,1.87-8.34h3.54l1.87,8.33,1.28-8.33h3.53L40.7,60H37l-2.12-9.38L32.81,60H29.15Z" style="fill: #231f20"/>
    <path d="M44.74,45.1h3.74V60H44.74Z" style="fill: #231f20"/>
    <path d="M50.31,45.1H61.67v3.68H57.86V60H54.12V48.78H50.31Z" style="fill: #231f20"/>
    <path d="M70.83,53.9l3.27,1.22a8.46,8.46,0,0,1-1,2.84,4.82,4.82,0,0,1-1.77,1.71,5.44,5.44,0,0,1-2.67.58,6.48,6.48,0,0,1-3.22-.7,5.75,5.75,0,0,1-2.16-2.49,10,10,0,0,1-.91-4.55,8.89,8.89,0,0,1,1.6-5.68,5.47,5.47,0,0,1,4.52-2A5.28,5.28,0,0,1,72.05,46,6.88,6.88,0,0,1,74,49.48l-3.3.9a4,4,0,0,0-.36-1,2.44,2.44,0,0,0-.77-.82,1.85,1.85,0,0,0-1-.28,2.12,2.12,0,0,0-2,1.26,6.38,6.38,0,0,0-.51,2.93,6.6,6.6,0,0,0,.61,3.4,2,2,0,0,0,1.71.92A1.9,1.9,0,0,0,70,56.05,5.1,5.1,0,0,0,70.83,53.9Z" style="fill: #231f20"/>
    <path d="M75.94,45.1h3.73v5.21h4.08V45.1H87.5V60H83.75V54H79.67v6H75.94Z" style="fill: #231f20"/>
  </g>
  <g>
    <path d="M16.31,67.34h5.55a5.61,5.61,0,0,1,2.65.55,4.58,4.58,0,0,1,1.67,1.58,7.22,7.22,0,0,1,1,2.39,13.33,13.33,0,0,1,.29,2.88A12,12,0,0,1,27,78.45a6.23,6.23,0,0,1-1.22,2.2,3.85,3.85,0,0,1-1.68,1.19,7.22,7.22,0,0,1-2.23.4H16.31Zm3.74,3.38v8.14H21a3.27,3.27,0,0,0,1.67-.32,2.11,2.11,0,0,0,.77-1.12,8.42,8.42,0,0,0,.28-2.59,6,6,0,0,0-.62-3.24A2.39,2.39,0,0,0,21,70.72Z" style="fill: #231f20"/>
    <path d="M29.39,67.34h10v3.19H33.13v2.36H39v3H33.13v2.94h6.45v3.37H29.39Z" style="fill: #231f20"/>
    <path d="M41.61,67.34h9.24v3.2H45.36v2.61h4.69v3H45.36v6.08H41.61Z" style="fill: #231f20"/>
    <path d="M52.85,67.34h10v3.19H56.59v2.36h5.82v3H56.59v2.94H63v3.37H52.85Z" style="fill: #231f20"/>
    <path d="M72.49,79.78H68.25l-.59,2.46H63.84l4.55-14.9h4.07L77,82.24H73.09Zm-.78-3.22-1.33-5.35-1.32,5.35Z" style="fill: #231f20"/>
    <path d="M76.18,67.34H87.54V71H83.73V82.24H80V71H76.18Z" style="fill: #231f20"/>
  </g>
</svg>
