<?xml version="1.0" encoding="UTF-8" standalone="no"?>
<!DOCTYPE svg PUBLIC "-//W3C//DTD SVG 1.1//EN" "http://www.w3.org/Graphics/SVG/1.1/DTD/svg11.dtd">
<svg width="100%" height="100%" viewBox="0 0 300 300" version="1.1" xmlns="http://www.w3.org/2000/svg" xmlns:xlink="http://www.w3.org/1999/xlink" xml:space="preserve" xmlns:serif="http://www.serif.com/" style="fill-rule:evenodd;clip-rule:evenodd;stroke-linecap:round;stroke-miterlimit:1.5;">
    <g transform="matrix(1,0,0,1,-2789.32,-1912.99)">
        <g id="Layer-1" serif:id="Layer 1">
        </g>
        <g transform="matrix(0.301848,0,0,0.582975,2546.51,856.296)">
            <rect x="804.411" y="1812.59" width="993.877" height="514.602" style="fill:none;"/>
            <clipPath id="_clip1">
                <rect x="804.411" y="1812.59" width="993.877" height="514.602"/>
            </clipPath>
            <g clip-path="url(#_clip1)">
                <g transform="matrix(2.65427,6.92971e-18,1.33837e-17,1.48748,4001.43,-1871.89)">
                    <path d="M-1023.5,2477L-855,2797L-1192,2797L-1023.5,2477Z" style="fill:#06f;stroke:#000;stroke-width:9.98px;"/>
                </g>
                <g transform="matrix(3.31292,0,0,1.71534,3380.26,-3302.03)">
                    <g transform="matrix(150,0,0,150,-681.677,3244.69)">
                        <path d="M0.055,-0.716L0.681,-0.716L0.681,-0.573L0.28,-0.154L0.696,-0.154L0.696,-0L0.017,-0L0.017,-0.148L0.414,-0.563L0.055,-0.563L0.055,-0.716Z" style="fill-rule:nonzero;"/>
                    </g>
                </g>
                <g transform="matrix(3.31292,1.7485e-17,7.63467e-18,1.71534,3390.06,-3370.02)">
                    <g transform="matrix(150,0,0,150,-683.986,3182.11)">
                        <path d="M0.062,-0.437L0.249,-0.437L0.249,-0.625L0.407,-0.625L0.407,-0.437L0.595,-0.437L0.595,-0.278L0.407,-0.278L0.407,-0.091L0.249,-0.091L0.249,-0.278L0.062,-0.278L0.062,-0.437Z" style="fill-rule:nonzero;"/>
                    </g>
                </g>
            </g>
        </g>
    </g>
</svg>
