<?xml version="1.0" encoding="utf-8"?>
<!-- Generator: Adobe Illustrator 26.0.1, SVG Export Plug-In . SVG Version: 6.00 Build 0)  -->
<svg version="1.1" id="New_VCP" xmlns="http://www.w3.org/2000/svg" xmlns:xlink="http://www.w3.org/1999/xlink" x="0px" y="0px"
	 viewBox="0 0 100 100" style="enable-background:new 0 0 100 100;" xml:space="preserve">
<style type="text/css">
	.st0{fill:#FFFFFF;}
	.st1{fill:#231F20;}
</style>
<g>
	<g>
		<path class="st0" d="M48.1,0.6L0.5,35.9v57.6c0,3.3,2.7,6,5.9,6h87.1c3.3,0,5.9-2.7,5.9-6V35.1L48.1,0.6z"/>
		<path d="M100,34.8v58.7c0,3.6-2.9,6.5-6.4,6.5H6.4C2.9,100,0,97.1,0,93.5V35.7l0.2-0.2L48.1,0l0.3,0.2L100,34.8z M1,93.5
			C1,96.5,3.4,99,6.4,99h87.1c3,0,5.4-2.5,5.4-5.5V35.4L48.1,1.2L1,36.2V93.5z"/>
	</g>
</g>
<g>
	<path class="st1" d="M34.6,33.5h10.8V22.6h9.1v10.9h10.9v9.1H54.5v10.8h-9.1V42.6H34.6V33.5z"/>
</g>
<g>
	<path class="st1" d="M30.4,64.5h18.2v5.5h-6.1v16.7h-6V69.9h-6.1V64.5z"/>
	<path class="st1" d="M49.3,64.5h6.2l4.4,16l4.3-16h6.1l-7.2,22.2h-6.5L49.3,64.5z"/>
</g>
</svg>
