<?xml version="1.0" encoding="utf-8"?>
<!-- Generator: Adobe Illustrator 24.0.2, SVG Export Plug-In . SVG Version: 6.00 Build 0)  -->
<svg version="1.1" id="New_VCP" xmlns="http://www.w3.org/2000/svg" xmlns:xlink="http://www.w3.org/1999/xlink" x="0px" y="0px"
	 width="100px" height="100px" viewBox="0 0 100 100" style="enable-background:new 0 0 100 100;" xml:space="preserve">
<style type="text/css">
	.st0{fill:#FFC70E;}
	.st1{fill:#231F20;}
</style>
<path class="st0" d="M51.92,100L100,64.3V6.09C100,2.72,97.31,0,94,0H6C2.69,0,0,2.72,0,6.09v59.03L51.92,100z"/>
<g>
	<path class="st1" d="M60.86,51.14h9.02V56h-9.02V51.14z"/>
</g>
<g>
	<path d="M49.89,56.07l6.03,1.88c-0.41,1.74-1.04,3.19-1.91,4.36c-0.87,1.17-1.95,2.05-3.24,2.64s-2.93,0.89-4.93,0.89
		c-2.42,0-4.4-0.36-5.93-1.08s-2.86-2-3.97-3.82c-1.11-1.82-1.67-4.15-1.67-7c0-3.79,0.98-6.7,2.94-8.74
		c1.96-2.04,4.73-3.05,8.31-3.05c2.8,0,5.01,0.58,6.61,1.75c1.6,1.17,2.8,2.96,3.58,5.38l-6.07,1.39c-0.21-0.7-0.44-1.21-0.67-1.53
		c-0.38-0.54-0.86-0.96-1.41-1.25c-0.56-0.29-1.18-0.44-1.87-0.44c-1.56,0-2.75,0.65-3.58,1.94c-0.63,0.96-0.94,2.46-0.94,4.51
		c0,2.54,0.37,4.28,1.12,5.22c0.75,0.94,1.8,1.41,3.16,1.41c1.32,0,2.31-0.38,2.98-1.14C49.1,58.62,49.59,57.52,49.89,56.07z"/>
</g>
</svg>
