<?xml version="1.0" encoding="utf-8"?>
<!-- Generator: Adobe Illustrator 24.0.2, SVG Export Plug-In . SVG Version: 6.00 Build 0)  -->
<svg version="1.1" id="New_VCP" xmlns="http://www.w3.org/2000/svg" xmlns:xlink="http://www.w3.org/1999/xlink" x="0px" y="0px"
	 width="100px" height="100px" viewBox="0 0 100 100" style="enable-background:new 0 0 100 100;" xml:space="preserve">
<style type="text/css">
	.st0{fill:#FFC70E;}
	.st1{fill:#231F20;}
</style>
<path class="st0" d="M51.92,100L100,64.3V6.09C100,2.72,97.31,0,94,0H6C2.69,0,0,2.72,0,6.09v59.03L51.92,100z"/>
<g>
	<path class="st1" d="M60.86,51.14h9.02V56h-9.02V51.14z"/>
</g>
<g>
	<path d="M35.09,42.54h12.88c2.15,0,3.79,0.55,4.94,1.64c1.15,1.09,1.72,2.45,1.72,4.06c0,1.35-0.41,2.52-1.23,3.48
		c-0.55,0.65-1.35,1.16-2.4,1.53c1.6,0.4,2.78,1.08,3.53,2.04c0.75,0.96,1.13,2.17,1.13,3.63c0,1.19-0.27,2.26-0.8,3.2
		c-0.54,0.95-1.27,1.7-2.2,2.25c-0.58,0.34-1.45,0.59-2.61,0.75c-1.55,0.21-2.58,0.31-3.08,0.31H35.09V42.54z M42.03,51.52h2.99
		c1.07,0,1.82-0.19,2.24-0.57c0.42-0.38,0.63-0.93,0.63-1.65c0-0.67-0.21-1.19-0.63-1.56c-0.42-0.38-1.15-0.56-2.19-0.56h-3.04
		V51.52z M42.03,60.52h3.51c1.18,0,2.02-0.22,2.51-0.65c0.49-0.43,0.73-1.01,0.73-1.74c0-0.68-0.24-1.22-0.72-1.63
		c-0.48-0.41-1.32-0.62-2.53-0.62h-3.49V60.52z"/>
</g>
</svg>
