<?xml version="1.0" encoding="UTF-8" standalone="no"?>
<!DOCTYPE svg PUBLIC "-//W3C//DTD SVG 1.1//EN" "http://www.w3.org/Graphics/SVG/1.1/DTD/svg11.dtd">
<svg width="100%" height="100%" viewBox="0 0 300 300" version="1.1" xmlns="http://www.w3.org/2000/svg" xmlns:xlink="http://www.w3.org/1999/xlink" xml:space="preserve" xmlns:serif="http://www.serif.com/" style="fill-rule:evenodd;clip-rule:evenodd;stroke-linecap:round;stroke-linejoin:round;stroke-miterlimit:1.5;">
    <g transform="matrix(1,0,0,1,-3059.32,-3401.99)">
        <g transform="matrix(0.301848,0,0,0.582975,2816.51,2345.3)">
            <rect x="804.411" y="1812.59" width="993.877" height="514.602" style="fill:none;"/>
            <clipPath id="_clip1">
                <rect x="804.411" y="1812.59" width="993.877" height="514.602"/>
            </clipPath>
            <g clip-path="url(#_clip1)">
                <g transform="matrix(3.31292,0,0,1.63871,7705.23,-3476.32)">
                    <path d="M-2072,3530L-2070,3239L-1887,3239L-1783,3377.5L-1882,3529L-2072,3530Z" style="fill:#fff;stroke:#000;stroke-width:8.52px;"/>
                </g>
                <g transform="matrix(3.31292,4.12562e-17,3.23569e-18,1.71534,3307.32,-3441.49)">
                    <g transform="matrix(200,0,0,200,-693.516,3284.58)">
                        <path d="M0.062,-0.437L0.249,-0.437L0.249,-0.625L0.407,-0.625L0.407,-0.437L0.595,-0.437L0.595,-0.278L0.407,-0.278L0.407,-0.091L0.249,-0.091L0.249,-0.278L0.062,-0.278L0.062,-0.437Z" style="fill-rule:nonzero;"/>
                    </g>
                </g>
            </g>
        </g>
        <g id="Layer-1" serif:id="Layer 1">
        </g>
    </g>
</svg>
