<svg id="New_VCP" data-name="New VCP" xmlns="http://www.w3.org/2000/svg" width="100" height="100" viewBox="0 0 100 100">
  <title>mpg</title>
  <rect width="100" height="100" rx="6" style="fill: #ffc70e"/>
  <g>
    <path d="M28.8,17.22h6.48l2.5,10.92,2.49-10.92h6.47V35.16h-4V21.48L39.6,35.16H35.94l-3.1-13.68V35.16h-4Z" style="fill: #231f20"/>
    <path d="M49.87,17.22h8.19a5.19,5.19,0,0,1,4,1.43,5.74,5.74,0,0,1,1.34,4.07A5.91,5.91,0,0,1,62,27a5.84,5.84,0,0,1-4.43,1.53h-2.7v6.66h-5Zm5,7.65H56a2.85,2.85,0,0,0,2-.56,1.92,1.92,0,0,0,.58-1.43,2.15,2.15,0,0,0-.5-1.43,2.44,2.44,0,0,0-1.89-.59h-1.4Z" style="fill: #231f20"/>
    <path d="M74,28.66V24.93h7.62v7.65a14.92,14.92,0,0,1-3.87,2.28,11.6,11.6,0,0,1-4,.61,8.81,8.81,0,0,1-4.64-1.09,7.22,7.22,0,0,1-2.77-3.24,11.76,11.76,0,0,1-1-4.95,11.49,11.49,0,0,1,1.07-5.11,7.37,7.37,0,0,1,3.16-3.3A9.24,9.24,0,0,1,74,16.91a11,11,0,0,1,4,.54,5.17,5.17,0,0,1,2.17,1.67A7.7,7.7,0,0,1,81.41,22l-4.76,1a2.93,2.93,0,0,0-1-1.56,2.83,2.83,0,0,0-1.79-.54,3.06,3.06,0,0,0-2.58,1.27,6.67,6.67,0,0,0-1,4,6.86,6.86,0,0,0,1,4.16A3.25,3.25,0,0,0,74,31.54a4.6,4.6,0,0,0,1.58-.27,8.17,8.17,0,0,0,1.72-.92V28.66Z" style="fill: #231f20"/>
  </g>
  <path d="M49.3,42A19.57,19.57,0,1,0,69,61.56,19.64,19.64,0,0,0,49.3,42Zm0,23.79a4.22,4.22,0,1,1,4.24-4.22A4.25,4.25,0,0,1,49.3,65.78ZM34.51,68.67a16.09,16.09,0,0,1-1.7-7.11,16.39,16.39,0,0,1,14.9-16.24v9.17a7.3,7.3,0,0,0-5.83,7.07,7.13,7.13,0,0,0,.48,2.35ZM49.3,78a16.45,16.45,0,0,1-13.13-6.58L44,66.64a7.25,7.25,0,0,0,10.3.32l7.48,5.24A16.43,16.43,0,0,1,49.3,78ZM56.13,64.4a7.21,7.21,0,0,0-5.25-9.91V45.32a16.39,16.39,0,0,1,14.9,16.24,16,16,0,0,1-2.21,8Z" style="fill: #231f20"/>
</svg>
