<svg id="New_VCP" data-name="New VCP" xmlns="http://www.w3.org/2000/svg" width="100" height="100" viewBox="0 0 100 100">
  <title>4th_positive</title>
  <path d="M48.08,0,0,35.7V93.91A6.05,6.05,0,0,0,6,100H94a6.05,6.05,0,0,0,6-6.09v-59Z" style="fill: #ffc70e"/>
  <g>
    <path d="M27.9,58.12h-10V53.37l10-12.49h4.78V53.64h2.49v4.48H32.68V62H27.9Zm0-4.48V47.11l-5.29,6.53Z" style="fill: #231f20"/>
    <path d="M44,41.24V47h3v4.22H44V56.5a3,3,0,0,0,.18,1.28,1,1,0,0,0,.94.48,6,6,0,0,0,1.7-.37l.41,4a17.18,17.18,0,0,1-3.81.46,6.31,6.31,0,0,1-3-.55A3.26,3.26,0,0,1,39,60.11a10.38,10.38,0,0,1-.46-3.65V51.18h-2V47h2V44.2Z" style="fill: #231f20"/>
    <path d="M49.67,41.24h5.49v7.64a7.5,7.5,0,0,1,2.23-1.74A6.06,6.06,0,0,1,60,46.62a4.48,4.48,0,0,1,3.52,1.43,6.38,6.38,0,0,1,1.29,4.39V62H59.3V53.72a3.13,3.13,0,0,0-.49-2,1.78,1.78,0,0,0-1.41-.59,2,2,0,0,0-1.62.8,4.8,4.8,0,0,0-.62,2.84V62H49.67Z" style="fill: #231f20"/>
    <path d="M68.16,49.35h5.16V43.9h4.36v5.45h5.2v4.57h-5.2v5.43H73.32V53.92H68.16Z" style="fill: #231f20"/>
  </g>
</svg>
