<svg id="New_VCP" data-name="New VCP" xmlns="http://www.w3.org/2000/svg" width="100" height="100" viewBox="0 0 100 100">
  <title>coolant_auto_man</title>
  <rect width="100" height="100" rx="6" style="fill: #252d6b"/>
  <g>
    <path d="M29.1,33.44H23.79l-.74,2.76H18.27L24,19.49h5.11L34.75,36.2H29.86Zm-1-3.61-1.67-6-1.66,6Z" style="fill: #fff"/>
    <path d="M45.37,19.49H50v10a9.1,9.1,0,0,1-.42,2.79,6.15,6.15,0,0,1-1.31,2.31,5.29,5.29,0,0,1-1.87,1.38,8.68,8.68,0,0,1-3.28.56,19.33,19.33,0,0,1-2.41-.17,5.89,5.89,0,0,1-2.18-.68A5.56,5.56,0,0,1,37,34.2a5.41,5.41,0,0,1-1-1.93,10.82,10.82,0,0,1-.43-2.82v-10H40.2V29.68a3.12,3.12,0,0,0,.68,2.14,2.45,2.45,0,0,0,1.91.77,2.4,2.4,0,0,0,1.89-.76,3.07,3.07,0,0,0,.69-2.15Z" style="fill: #fff"/>
    <path d="M52.07,19.49H66.29v4.13H61.52V36.2H56.85V23.62H52.07Z" style="fill: #fff"/>
    <path d="M67.1,27.86a9.16,9.16,0,0,1,2.07-6.38,7.35,7.35,0,0,1,5.75-2.28,7.48,7.48,0,0,1,5.82,2.24,9,9,0,0,1,2.05,6.28,11.16,11.16,0,0,1-.9,4.81,6.73,6.73,0,0,1-2.58,2.92,7.91,7.91,0,0,1-4.21,1,8.94,8.94,0,0,1-4.24-.9,6.77,6.77,0,0,1-2.72-2.85A10.34,10.34,0,0,1,67.1,27.86Zm4.68,0a6,6,0,0,0,.85,3.64,3,3,0,0,0,4.65,0,6.69,6.69,0,0,0,.83-3.89,5.61,5.61,0,0,0-.86-3.45,2.86,2.86,0,0,0-2.34-1.09,2.71,2.71,0,0,0-2.27,1.11A6,6,0,0,0,71.78,27.88Z" style="fill: #fff"/>
  </g>
  <g>
    <path d="M25.36,66H31.3l2.29,10.16L35.87,66H41.8V82.67H38.1V69.94L35.25,82.67H31.9L29.06,69.94V82.67h-3.7Z" style="fill: #fff"/>
    <path d="M53.67,79.92H48.54l-.71,2.75H43.22L48.71,66h4.93l5.49,16.69H54.4Zm-.93-3.61-1.62-6-1.6,6Z" style="fill: #fff"/>
    <path d="M60.6,66h4.22l5.5,9.24V66h4.26V82.67H70.32l-5.47-9.16v9.16H60.6Z" style="fill: #fff"/>
  </g>
  <rect x="6.18" y="48.42" width="87.64" height="5.5" style="fill: #fff"/>
</svg>
