<?xml version="1.0" encoding="utf-8"?>
<!-- Generator: Adobe Illustrator 26.0.1, SVG Export Plug-In . SVG Version: 6.00 Build 0)  -->
<svg version="1.1" id="New_VCP" xmlns="http://www.w3.org/2000/svg" xmlns:xlink="http://www.w3.org/1999/xlink" x="0px" y="0px"
	 viewBox="0 0 100 100" style="enable-background:new 0 0 100 100;" xml:space="preserve">
<style type="text/css">
	.st0{fill:#FFFFFF;}
	.st1{fill:#010101;}
	.st2{fill:#231F20;}
</style>
<g>
	<path class="st0" d="M99.5,93.56c0,3.28-2.66,5.94-5.94,5.94H6.44c-3.28,0-5.94-2.66-5.94-5.94V6.44c0-3.28,2.66-5.94,5.94-5.94
		h87.13c3.28,0,5.94,2.66,5.94,5.94V93.56z"/>
	<path class="st1" d="M93.56,100H6.44C2.89,100,0,97.11,0,93.56V6.44C0,2.89,2.89,0,6.44,0h87.13C97.11,0,100,2.89,100,6.44v87.13
		C100,97.11,97.11,100,93.56,100z M6.44,0.99c-3,0-5.45,2.44-5.45,5.45v87.13c0,3,2.44,5.45,5.45,5.45h87.13
		c3,0,5.45-2.44,5.45-5.45V6.44c0-3-2.44-5.45-5.45-5.45H6.44z"/>
</g>
<g>
	<path class="st2" d="M21.69,35.7l5.68-0.41c0.12,1.06,0.37,1.87,0.75,2.42c0.62,0.9,1.49,1.35,2.64,1.35
		c0.85,0,1.51-0.23,1.97-0.69c0.46-0.46,0.69-0.99,0.69-1.6c0-0.58-0.22-1.09-0.66-1.54c-0.44-0.45-1.46-0.88-3.06-1.29
		c-2.62-0.68-4.49-1.57-5.6-2.69c-1.12-1.12-1.69-2.55-1.69-4.28c0-1.14,0.29-2.22,0.86-3.23c0.58-1.01,1.44-1.81,2.6-2.39
		c1.16-0.58,2.74-0.87,4.75-0.87c2.47,0,4.35,0.53,5.65,1.58c1.3,1.05,2.07,2.73,2.31,5.03l-5.63,0.38c-0.15-1-0.46-1.73-0.94-2.18
		s-1.14-0.68-1.98-0.68c-0.69,0-1.22,0.17-1.57,0.51c-0.35,0.34-0.53,0.75-0.53,1.23c0,0.35,0.15,0.67,0.44,0.95
		c0.28,0.29,0.95,0.57,2,0.82c2.61,0.65,4.48,1.3,5.61,1.96c1.13,0.66,1.95,1.48,2.47,2.46c0.51,0.98,0.77,2.07,0.77,3.28
		c0,1.42-0.34,2.73-1.03,3.94c-0.69,1.2-1.64,2.11-2.87,2.73c-1.23,0.62-2.78,0.93-4.65,0.93c-3.29,0-5.56-0.73-6.83-2.18
		C22.57,39.79,21.85,37.94,21.69,35.7z"/>
	<path class="st2" d="M42.21,20.85h16.01v4.74H48.2v3.53h9.29v4.53H48.2v4.37h10.31v5.03h-16.3V20.85z"/>
	<path class="st2" d="M60.37,20.85h18.15v5.48h-6.09v16.71h-5.97V26.33h-6.09V20.85z"/>
	<path class="st2" d="M31.15,51.85h6.58l3.42,6.83l3.33-6.83H51L44.98,62.6l6.58,11.44h-6.71l-3.82-7.13l-3.82,7.13h-6.67
		l6.67-11.56L31.15,51.85z"/>
	<path class="st2" d="M52.6,62.86c0-4.22,0.66-7.17,1.98-8.86s3.34-2.53,6.04-2.53c1.3,0,2.37,0.18,3.2,0.55s1.52,0.85,2.04,1.44
		c0.53,0.59,0.94,1.21,1.25,1.86c0.3,0.65,0.55,1.41,0.73,2.28c0.36,1.66,0.54,3.38,0.54,5.18c0,4.03-0.59,6.97-1.78,8.84
		s-3.23,2.8-6.13,2.8c-1.63,0-2.94-0.3-3.94-0.89s-1.82-1.47-2.47-2.62c-0.47-0.82-0.83-1.94-1.09-3.35
		C52.73,66.14,52.6,64.57,52.6,62.86z M57.93,62.87c0,2.83,0.22,4.76,0.65,5.79c0.43,1.03,1.07,1.55,1.89,1.55
		c0.54,0,1.02-0.22,1.42-0.66c0.4-0.44,0.69-1.13,0.88-2.08s0.28-2.43,0.28-4.43c0-2.95-0.22-4.93-0.65-5.94
		c-0.43-1.01-1.09-1.52-1.96-1.52c-0.89,0-1.53,0.52-1.92,1.55C58.13,58.16,57.93,60.08,57.93,62.87z"/>
</g>
</svg>
