<svg id="New_VCP" data-name="New VCP" xmlns="http://www.w3.org/2000/svg" width="100" height="100" viewBox="0 0 100 100">
  <title>spin_brake</title>
  <rect width="100" height="100" rx="6" style="fill: #252d6b"/>
  <g>
    <path d="M20.57,37.85l4.08-.4a5,5,0,0,0,1.49,3,4.54,4.54,0,0,0,3,1,4.66,4.66,0,0,0,3-.85,2.55,2.55,0,0,0,1-2,1.86,1.86,0,0,0-.43-1.25,3.36,3.36,0,0,0-1.51-.9c-.49-.17-1.61-.47-3.36-.91a11.39,11.39,0,0,1-4.73-2,5.42,5.42,0,0,1-1.91-4.18,5.33,5.33,0,0,1,.9-3,5.63,5.63,0,0,1,2.59-2.11,10.43,10.43,0,0,1,4.09-.72q3.9,0,5.88,1.71a6.08,6.08,0,0,1,2.08,4.58l-4.2.18a3.58,3.58,0,0,0-1.15-2.3,4.19,4.19,0,0,0-2.65-.7,4.77,4.77,0,0,0-2.86.75A1.5,1.5,0,0,0,25.33,29,1.61,1.61,0,0,0,26,30.26a11.13,11.13,0,0,0,3.85,1.39,20.63,20.63,0,0,1,4.53,1.49,5.84,5.84,0,0,1,2.29,2.11,6.2,6.2,0,0,1,.83,3.31,6.12,6.12,0,0,1-1,3.34,5.92,5.92,0,0,1-2.8,2.31,11.69,11.69,0,0,1-4.52.76,9,9,0,0,1-6.05-1.82A8,8,0,0,1,20.57,37.85Z" style="fill: #fff"/>
    <path d="M41,44.6V23.84H47.7a24.1,24.1,0,0,1,5,.32,5.42,5.42,0,0,1,3,2,6.39,6.39,0,0,1,1.21,4,6.7,6.7,0,0,1-.7,3.22,5.69,5.69,0,0,1-1.76,2,6.2,6.2,0,0,1-2.17,1,24.86,24.86,0,0,1-4.35.29H45.17V44.6Zm4.19-17.24v5.89h2.29a10.78,10.78,0,0,0,3.32-.33,2.71,2.71,0,0,0,1.78-2.63,2.65,2.65,0,0,0-.67-1.87,2.86,2.86,0,0,0-1.68-.92,19.51,19.51,0,0,0-3-.14Z" style="fill: #fff"/>
    <path d="M60.19,44.6V23.84h4.19V44.6Z" style="fill: #fff"/>
    <path d="M68.42,44.6V23.84H72.5L81,37.71V23.84h3.9V44.6H80.68L72.31,31.07V44.6Z" style="fill: #fff"/>
  </g>
  <g>
    <path d="M12,53h6.89a20.42,20.42,0,0,1,3.05.17,4.59,4.59,0,0,1,1.8.71,4.48,4.48,0,0,1,1.32,1.44,4.09,4.09,0,0,1-.13,4.24,4.07,4.07,0,0,1-1.76,1.52,4.5,4.5,0,0,1,2.42,1.56,4.17,4.17,0,0,1,.84,2.6,5.16,5.16,0,0,1-.54,2.28,4.75,4.75,0,0,1-1.5,1.78,4.9,4.9,0,0,1-2.33.81q-.87.1-4.2.12H12Zm3.48,2.87v4h2.28c1.35,0,2.2,0,2.53-.06a2.3,2.3,0,0,0,1.4-.61,1.82,1.82,0,0,0,.51-1.35,1.93,1.93,0,0,0-.44-1.3,2,2,0,0,0-1.31-.6c-.34,0-1.34-.06-3-.06Zm0,6.85v4.61h3.22a15.72,15.72,0,0,0,2.39-.11,2,2,0,0,0,1.75-2.15,2.23,2.23,0,0,0-.38-1.31A2.09,2.09,0,0,0,21.36,63a11.47,11.47,0,0,0-3.08-.25Z" style="fill: #fff"/>
    <path d="M29.37,70.27V53h7.32a12.51,12.51,0,0,1,4,.47,4,4,0,0,1,2,1.65,5,5,0,0,1,.75,2.71,4.58,4.58,0,0,1-1.14,3.2,5.43,5.43,0,0,1-3.4,1.6,8.31,8.31,0,0,1,1.86,1.44,19.94,19.94,0,0,1,2,2.8l2.1,3.36H40.7l-2.51-3.75A24.92,24.92,0,0,0,36.35,64a2.65,2.65,0,0,0-1-.72,5.73,5.73,0,0,0-1.75-.19h-.71v7.19Zm3.48-9.94h2.58a13.34,13.34,0,0,0,3.12-.21,1.91,1.91,0,0,0,1-.73,2.31,2.31,0,0,0,.35-1.3,2.07,2.07,0,0,0-.46-1.4A2.16,2.16,0,0,0,38.11,56c-.29,0-1.13,0-2.54,0H32.85Z" style="fill: #fff"/>
    <path d="M62.28,70.27H58.5L57,66.36H50.11l-1.43,3.91H45L51.7,53h3.68Zm-6.4-6.81-2.38-6.4-2.33,6.4Z" style="fill: #fff"/>
    <path d="M64.17,70.27V53h3.48v7.65l7-7.65h4.68l-6.49,6.71,6.84,10.52h-4.5l-4.74-8.08-2.82,2.87v5.21Z" style="fill: #fff"/>
    <path d="M81.51,70.27V53H94.29V56H85v3.82h8.65v2.9H85v4.69h9.63v2.9Z" style="fill: #fff"/>
  </g>
</svg>
