<?xml version="1.0" encoding="utf-8"?>
<!-- Generator: Adobe Illustrator 24.0.2, SVG Export Plug-In . SVG Version: 6.00 Build 0)  -->
<svg version="1.1" id="New_VCP" xmlns="http://www.w3.org/2000/svg" xmlns:xlink="http://www.w3.org/1999/xlink" x="0px" y="0px"
	 width="100px" height="100px" viewBox="0 0 100 100" style="enable-background:new 0 0 100 100;" xml:space="preserve">
<style type="text/css">
	.st0{fill:#262C6B;}
	.st1{display:none;fill:#82151E;}
	.st2{display:none;}
	.st3{display:inline;fill:#FFFFFF;}
	.st4{display:inline;}
	.st5{fill:#FFFFFF;}
	.st6{font-family:'Arial-Black';}
	.st7{font-size:23.3818px;}
	.st8{font-size:26.4994px;}
</style>
<path class="st0" d="M100,94c0,3.3-2.7,6-6,6H6c-3.3,0-6-2.7-6-6V6c0-3.3,2.7-6,6-6h88c3.3,0,6,2.7,6,6V94z"/>
<path class="st1" d="M35.1,3h-0.7H7.6C5.1,3,3,5,3,7.4v25.9v1.8L35.1,3z"/>
<g class="st2">
	<path class="st3" d="M24.1,58.8V35.7h7l4.2,15.8l4.2-15.8h7v23.1h-4.3V40.6l-4.6,18.2H33l-4.6-18.2v18.2H24.1z"/>
	<path class="st3" d="M50.2,52.9l4.4-0.5c0.1,1,0.5,1.8,1.1,2.4c0.6,0.6,1.3,0.9,2.1,0.9c0.9,0,1.7-0.4,2.3-1.1c0.6-0.8,1-1.9,1-3.4
		c0-1.4-0.3-2.5-1-3.2c-0.6-0.7-1.5-1.1-2.5-1.1c-1.3,0-2.4,0.6-3.4,1.7l-3.6-0.5L53,36h11.7v4.2h-8.4l-0.7,3.9c1-0.5,2-0.7,3-0.7
		c2,0,3.6,0.7,5,2.1s2.1,3.3,2.1,5.6c0,1.9-0.6,3.6-1.7,5.1c-1.5,2-3.6,3.1-6.3,3.1c-2.1,0-3.9-0.6-5.2-1.7
		C51.2,56.4,50.4,54.8,50.2,52.9z"/>
	<path class="st3" d="M68.1,52.9l4.4-0.5c0.1,1,0.5,1.8,1.1,2.4c0.6,0.6,1.3,0.9,2.1,0.9c0.9,0,1.7-0.4,2.4-1.1c0.6-0.8,1-1.9,1-3.4
		c0-1.4-0.3-2.5-1-3.2c-0.6-0.7-1.5-1.1-2.5-1.1c-1.3,0-2.4,0.6-3.4,1.7l-3.6-0.5l2.3-12h11.7v4.2h-8.4l-0.7,3.9c1-0.5,2-0.7,3-0.7
		c2,0,3.6,0.7,5,2.1c1.4,1.4,2.1,3.3,2.1,5.6c0,1.9-0.6,3.6-1.7,5.1c-1.5,2-3.6,3.1-6.3,3.1c-2.1,0-3.9-0.6-5.2-1.7
		C69.2,56.4,68.4,54.8,68.1,52.9z"/>
</g>
<text transform="matrix(1 0 0 1 142.8542 49.9997)" style="display:none;fill:#FFFFFF; font-family:'Arial-BoldMT'; font-size:32.32px;">M55</text>
<g class="st2">
	<text transform="matrix(0.9 0 0 1.1 15.0444 43.1226)" class="st4"><tspan x="0" y="0" class="st5 st6 st7">P</tspan><tspan x="16.3" y="0" class="st5 st6 st7">opUp</tspan><tspan x="5.9" y="26.9" class="st5 st6 st8">PINS</tspan></text>
</g>
<g>
	<g>
		<path class="st5" d="M43.3,39.5H37l-0.9,3.6h-5.7l6.8-22h6.1l6.8,22h-5.8L43.3,39.5z M42.2,34.8l-2-7.9l-2,7.9H42.2z"/>
		<path class="st5" d="M51.7,21.1h5v4.2h-5V21.1z M51.7,27.2h5v16h-5V27.2z"/>
		<path class="st5" d="M59.9,27.2h4.7v2.6c0.5-1.1,0.9-1.9,1.4-2.3c0.5-0.4,1.1-0.6,1.8-0.6c0.7,0,1.5,0.3,2.4,0.8L68.7,32
			c-0.6-0.3-1.1-0.5-1.4-0.5c-0.7,0-1.2,0.3-1.5,1c-0.5,0.9-0.8,2.7-0.8,5.2v5.4h-5V27.2z"/>
		<path class="st5" d="M17.8,47.8h10.4c1.7,0,3.1,0.5,4,1.6c0.9,1.1,1.4,2.4,1.4,3.9c0,1.3-0.3,2.4-1,3.4c-0.4,0.6-1.1,1.1-1.9,1.5
			c1.3,0.4,2.3,1,2.9,2c0.6,0.9,0.9,2.1,0.9,3.5c0,1.1-0.2,2.2-0.7,3.1c-0.4,0.9-1,1.6-1.8,2.2c-0.5,0.3-1.2,0.6-2.1,0.7
			c-1.3,0.2-2.1,0.3-2.5,0.3h-9.6V47.8z M23.4,56.4h2.4c0.9,0,1.5-0.2,1.8-0.5c0.3-0.4,0.5-0.9,0.5-1.6c0-0.6-0.2-1.1-0.5-1.5
			c-0.3-0.4-0.9-0.5-1.8-0.5h-2.5V56.4z M23.4,65.1h2.8c1,0,1.6-0.2,2-0.6c0.4-0.4,0.6-1,0.6-1.7c0-0.7-0.2-1.2-0.6-1.6
			c-0.4-0.4-1.1-0.6-2-0.6h-2.8V65.1z"/>
		<path class="st5" d="M37.2,47.8h5v22h-5V47.8z"/>
		<path class="st5" d="M44.8,61.9c0-2.4,0.7-4.4,2-6s3.2-2.4,5.5-2.4c2.6,0,4.6,0.9,5.9,2.8c1.1,1.5,1.6,3.3,1.6,5.5
			c0,2.5-0.7,4.5-2,6c-1.3,1.6-3.2,2.4-5.5,2.4c-2.1,0-3.8-0.7-5.1-2C45.6,66.6,44.8,64.5,44.8,61.9z M49.8,61.9
			c0,1.4,0.2,2.5,0.7,3.2c0.5,0.7,1.1,1,1.8,1c0.7,0,1.3-0.3,1.8-1c0.5-0.7,0.7-1.8,0.7-3.2c0-1.4-0.2-2.4-0.7-3.1
			c-0.5-0.7-1-1-1.7-1c-0.7,0-1.3,0.3-1.8,1C50.1,59.4,49.8,60.5,49.8,61.9z"/>
		<path class="st5" d="M60.3,53.8h4.8l2.1,10.1l2.7-10.1h4.5l2.8,10.1l2.1-10.1h4.8l-4.8,16h-4.5l-2.6-9.6l-2.6,9.6h-4.5L60.3,53.8z
			"/>
	</g>
</g>
</svg>
