<?xml version="1.0" encoding="utf-8"?>
<!-- Generator: Adobe Illustrator 27.0.0, SVG Export Plug-In . SVG Version: 6.00 Build 0)  -->
<svg version="1.1" id="New_VCP" xmlns="http://www.w3.org/2000/svg" xmlns:xlink="http://www.w3.org/1999/xlink" x="0px" y="0px"
	 viewBox="0 0 100 100" style="enable-background:new 0 0 100 100;" xml:space="preserve">
<style type="text/css">
	.st0{display:none;fill:#FFFFFF;}
	.st1{fill:#FFFFFF;stroke:#000000;stroke-miterlimit:10;}
	.st2{display:none;fill:#82151E;}
	.st3{fill:none;stroke:#ED1C24;stroke-width:2;stroke-miterlimit:10;}
	.st4{fill:#010101;}
</style>
<polygon class="st0" points="80.2,68.4 18.7,68 15.1,51.6 85.1,51.6 "/>
<path class="st1" d="M100,94c0,3.3-2.7,6-6,6H6c-3.3,0-6-2.7-6-6V6c0-3.3,2.7-6,6-6h88c3.3,0,6,2.7,6,6V94z"/>
<path class="st2" d="M34.3,2.2h-0.7H6.8c-2.5,0-4.6,2-4.6,4.4v25.9v1.8L34.3,2.2z"/>
<g>
	<line class="st3" x1="93.8" y1="80.5" x2="63.5" y2="80.5"/>
	<circle class="st3" cx="78.7" cy="80.5" r="13"/>
	<line class="st3" x1="78.7" y1="65.3" x2="78.7" y2="95.6"/>
</g>
<g>
	<path class="st4" d="M13.5,8.2H19v15h8.6v4.9H13.5V8.2z"/>
	<path class="st4" d="M34.3,18.3l-4.7-0.6c0.2-0.9,0.4-1.6,0.8-2.2c0.3-0.5,0.8-1,1.5-1.4c0.5-0.3,1.1-0.5,1.9-0.7s1.7-0.2,2.6-0.2
		c1.5,0,2.7,0.1,3.6,0.3c0.9,0.2,1.7,0.6,2.3,1.2c0.4,0.4,0.8,1,1,1.7s0.4,1.5,0.4,2.1v6.4c0,0.7,0,1.2,0.1,1.6
		c0.1,0.4,0.2,0.9,0.5,1.5h-4.7c-0.2-0.4-0.3-0.7-0.4-0.8c-0.1-0.2-0.1-0.5-0.2-0.9c-0.7,0.7-1.3,1.2-1.9,1.5
		c-0.9,0.4-1.9,0.6-3.1,0.6c-1.5,0-2.7-0.4-3.5-1.2s-1.2-1.8-1.2-2.9s0.3-2,0.9-2.7s1.6-1.2,3.2-1.6c1.9-0.4,3.1-0.7,3.6-0.9
		c0.6-0.2,1.1-0.4,1.8-0.7c0-0.7-0.1-1.2-0.4-1.4c-0.3-0.3-0.7-0.4-1.3-0.4c-0.8,0-1.4,0.1-1.8,0.4C34.8,17.2,34.5,17.7,34.3,18.3z
		 M38.6,21.2c-0.7,0.3-1.4,0.5-2.1,0.7c-1,0.3-1.6,0.6-1.9,0.9c-0.3,0.3-0.4,0.6-0.4,1s0.1,0.8,0.4,1.1c0.3,0.3,0.7,0.4,1.2,0.4
		c0.6,0,1.1-0.1,1.5-0.4c0.5-0.3,0.8-0.7,1-1.1c0.2-0.4,0.3-1,0.3-1.7V21.2z"/>
	<path class="st4" d="M45.6,24l4.9-0.5c0.2,0.7,0.5,1.1,0.9,1.4c0.4,0.3,0.9,0.4,1.5,0.4c0.7,0,1.2-0.2,1.5-0.5
		c0.3-0.2,0.4-0.5,0.4-0.9s-0.2-0.7-0.6-0.9c-0.3-0.2-1-0.3-2.1-0.6c-1.7-0.3-2.9-0.6-3.6-0.9c-0.7-0.3-1.2-0.8-1.7-1.4
		c-0.5-0.7-0.7-1.4-0.7-2.3s0.2-1.8,0.7-2.4c0.5-0.7,1.2-1.2,2-1.5c0.9-0.3,2-0.5,3.5-0.5s2.7,0.1,3.4,0.4s1.3,0.7,1.8,1.2
		s0.9,1.3,1.2,2.2L54,17.7c-0.1-0.5-0.3-0.8-0.6-1c-0.4-0.3-0.9-0.4-1.4-0.4c-0.6,0-1,0.1-1.2,0.3c-0.3,0.2-0.4,0.5-0.4,0.8
		c0,0.4,0.2,0.6,0.5,0.8c0.3,0.2,1,0.3,2.1,0.5c1.7,0.2,2.9,0.5,3.7,0.9c0.8,0.4,1.4,0.9,1.8,1.6c0.4,0.7,0.6,1.4,0.6,2.3
		c0,0.8-0.2,1.6-0.7,2.4c-0.5,0.8-1.2,1.4-2.1,1.9c-1,0.5-2.3,0.7-4,0.7c-2.4,0-4.1-0.4-5.1-1.1C46.5,26.5,45.8,25.4,45.6,24z"/>
	<path class="st4" d="M76.1,22.2h-9.9c0.1,0.9,0.3,1.5,0.6,2c0.5,0.6,1.1,0.9,1.9,0.9c0.5,0,0.9-0.1,1.4-0.4
		c0.3-0.2,0.6-0.5,0.9-0.9l4.9,0.5c-0.7,1.4-1.6,2.5-2.7,3.1s-2.6,0.9-4.5,0.9c-1.7,0-3.1-0.3-4-0.8c-1-0.5-1.8-1.4-2.4-2.6
		c-0.6-1.2-1-2.5-1-4.1c0-2.2,0.6-4.1,1.9-5.5c1.3-1.4,3.1-2.1,5.4-2.1c1.9,0,3.3,0.3,4.4,0.9s1.9,1.5,2.4,2.7
		c0.6,1.2,0.8,2.7,0.8,4.6v0.8H76.1z M71,19.6c-0.1-1.1-0.4-1.8-0.8-2.3s-1-0.7-1.7-0.7c-0.8,0-1.4,0.3-1.9,1
		c-0.3,0.4-0.5,1.1-0.6,1.9h5V19.6z"/>
	<path class="st4" d="M78.4,13.6H83V16c0.4-1,0.9-1.7,1.4-2.1s1.1-0.6,1.8-0.6c0.7,0,1.5,0.3,2.4,0.8L87.1,18
		c-0.6-0.3-1-0.4-1.4-0.4c-0.7,0-1.2,0.3-1.5,0.9c-0.5,0.8-0.8,2.4-0.8,4.7V28h-5V13.6z"/>
</g>
<g>
	<path d="M28.1,56.8c-1.4,0.7-2.9,1-4.7,1c-1.7,0-3.2-0.5-4.5-1.4c-1.3-0.9-2.2-2.3-2.9-4c-0.7-1.7-1-3.7-1-6c0-2.4,0.4-4.6,1.1-6.5
		c0.7-1.9,1.8-3.4,3.2-4.4c1.4-1,2.9-1.5,4.7-1.5c1.4,0,2.8,0.2,4.1,0.7v6.4c-0.5-0.4-1-0.7-1.6-0.9c-0.6-0.2-1.3-0.3-1.9-0.3
		c-1.3,0-2.4,0.5-3.2,1.6c-0.8,1.1-1.2,2.5-1.2,4.4c0,1.8,0.4,3.3,1.2,4.4c0.8,1.1,1.8,1.6,3.1,1.6c1.2,0,2.4-0.4,3.6-1.3V56.8z"/>
	<path d="M37.7,57.5v-9.4c0-1.6-0.4-2.5-1.3-2.5c-0.4,0-0.8,0.2-1,0.7c-0.2,0.5-0.3,1.1-0.3,1.8v9.3h-4.8V33.1h4.8v10.1h0
		c0.4-0.8,0.9-1.5,1.5-2c0.6-0.5,1.2-0.7,1.9-0.7c1.3,0,2.2,0.6,2.9,1.7c0.7,1.1,1,2.8,1,5v10.1H37.7z"/>
	<path d="M48.8,51.2c0.1,0.7,0.4,1.3,0.9,1.7c0.5,0.4,1.1,0.6,2,0.6c1.1,0,2.2-0.3,3.2-0.9v4.3c-1.2,0.7-2.6,1-4.3,1
		c-2,0-3.6-0.7-4.7-2.2c-1.1-1.5-1.7-3.5-1.7-6.1c0-1.8,0.2-3.3,0.7-4.7s1.2-2.4,2.2-3.2c1-0.8,2-1.1,3.2-1.1c1.2,0,2.2,0.3,3.1,1
		c0.9,0.7,1.5,1.6,2,2.8c0.4,1.2,0.7,2.6,0.7,4.2v2.6H48.8z M51.7,47.6c0-1.9-0.5-2.8-1.4-2.8c-0.4,0-0.7,0.3-1,0.8
		c-0.3,0.5-0.4,1.2-0.5,2.1H51.7z"/>
	<path d="M67.2,57c-0.3,0.3-0.8,0.5-1.5,0.6c-0.7,0.2-1.4,0.2-2.3,0.2c-1.2,0-2.3-0.4-3.3-1.1c-1-0.7-1.7-1.7-2.2-2.9
		c-0.5-1.3-0.8-2.7-0.8-4.3c0-1.9,0.3-3.5,0.8-4.8c0.6-1.3,1.4-2.4,2.4-3.1c1-0.7,2.3-1.1,3.6-1.1c0.8,0,1.4,0.1,2,0.2
		c0.6,0.1,1,0.3,1.2,0.5v5.3c-0.2-0.3-0.6-0.5-1-0.7s-0.9-0.3-1.3-0.3c-0.9,0-1.7,0.3-2.2,1c-0.5,0.6-0.7,1.5-0.7,2.7
		c0,1.1,0.2,2,0.7,2.6c0.5,0.6,1.1,0.9,2,0.9c0.9,0,1.7-0.3,2.5-0.9V57z"/>
	<path d="M76.7,57.5L74.1,49h0v8.4h-4.8V33.1H74v15.6h0l2.4-7.7h5.5l-3.2,7.5l3.3,8.9H76.7z"/>
</g>
<g>
	<path d="M18.2,91.4l-1.7-6.2c-0.1-0.4-0.2-0.8-0.2-1.1c0-0.4-0.1-0.7-0.1-0.9h0c0,0.3-0.1,0.6-0.1,1c-0.1,0.4-0.1,0.8-0.2,1.2
		l-1.6,6.1h-5L13.3,80L9.5,68.6h5.1l1.4,6c0.1,0.6,0.2,1.3,0.3,2.2h0c0.1-1,0.2-1.8,0.4-2.2l1.6-6h4.7L19,79.9l4.1,11.5H18.2z"/>
	<path d="M34.4,79.8c0,3.9-0.5,6.9-1.4,8.9c-0.9,2-2.2,3.1-4,3.1c-1.8,0-3.1-0.9-4-2.8c-0.9-1.9-1.3-4.8-1.3-8.7
		c0-3.9,0.5-6.9,1.4-9c1-2,2.3-3.1,4.1-3.1C32.7,68.3,34.4,72.1,34.4,79.8z M30.3,79.8c0-2.3-0.1-3.9-0.3-5
		c-0.2-1.1-0.5-1.6-0.9-1.6c-0.8,0-1.3,2.3-1.3,6.9c0,2.3,0.1,4,0.3,5s0.5,1.6,0.9,1.6C29.9,86.8,30.3,84.5,30.3,79.8z"/>
	<path d="M43.5,83.5v7.9h-4.2v-7.8L35,68.6h4.8l1.5,7.1c0.1,0.5,0.2,0.9,0.2,1.3c0,0.4,0.1,0.7,0.1,1.1h0c0.1-1,0.2-1.7,0.3-2.2
		l1.5-7.3H48L43.5,83.5z"/>
	<path d="M59.2,79.8c0,3.9-0.5,6.9-1.4,8.9c-0.9,2-2.2,3.1-4,3.1c-1.8,0-3.1-0.9-4-2.8c-0.9-1.9-1.3-4.8-1.3-8.7
		c0-3.9,0.5-6.9,1.4-9c1-2,2.3-3.1,4.1-3.1C57.5,68.3,59.2,72.1,59.2,79.8z M55.2,79.8c0-2.3-0.1-3.9-0.3-5
		c-0.2-1.1-0.5-1.6-0.9-1.6c-0.8,0-1.3,2.3-1.3,6.9c0,2.3,0.1,4,0.3,5c0.2,1.1,0.5,1.6,0.9,1.6C54.7,86.8,55.2,84.5,55.2,79.8z"/>
</g>
</svg>
