<?xml version="1.0" encoding="UTF-8" standalone="no"?>
<svg
   xmlns:dc="http://purl.org/dc/elements/1.1/"
   xmlns:cc="http://creativecommons.org/ns#"
   xmlns:rdf="http://www.w3.org/1999/02/22-rdf-syntax-ns#"
   xmlns:svg="http://www.w3.org/2000/svg"
   xmlns="http://www.w3.org/2000/svg"
   xmlns:sodipodi="http://sodipodi.sourceforge.net/DTD/sodipodi-0.dtd"
   xmlns:inkscape="http://www.inkscape.org/namespaces/inkscape"
   id="New_VCP"
   data-name="New VCP"
   width="100"
   height="100"
   viewBox="0 0 100 100"
   version="1.1"
   sodipodi:docname="park.svg"
   inkscape:version="0.92.4 (5da689c313, 2019-01-14)">
  <metadata
     id="metadata25">
    <rdf:RDF>
      <cc:Work
         rdf:about="">
        <dc:format>image/svg+xml</dc:format>
        <dc:type
           rdf:resource="http://purl.org/dc/dcmitype/StillImage" />
      </cc:Work>
    </rdf:RDF>
  </metadata>
  <defs
     id="defs23" />
  <sodipodi:namedview
     pagecolor="#ffffff"
     bordercolor="#666666"
     borderopacity="1"
     objecttolerance="10"
     gridtolerance="10"
     guidetolerance="10"
     inkscape:pageopacity="0"
     inkscape:pageshadow="2"
     inkscape:window-width="1920"
     inkscape:window-height="1017"
     id="namedview21"
     showgrid="false"
     inkscape:zoom="2.36"
     inkscape:cx="50"
     inkscape:cy="50"
     inkscape:window-x="-8"
     inkscape:window-y="-8"
     inkscape:window-maximized="1"
     inkscape:current-layer="New_VCP" />
  <title
     id="title2">park</title>
  <g
     id="g8"
     style="fill:#ffc70e;fill-opacity:1">
    <rect
       x="0.5"
       y="0.5"
       width="99.01"
       height="99.01"
       rx="5.94"
       style="fill:#ffc70e;fill-opacity:1"
       id="rect4" />
    <path
       d="M93.56,100H6.44A6.45,6.45,0,0,1,0,93.56V6.44A6.45,6.45,0,0,1,6.44,0H93.56A6.45,6.45,0,0,1,100,6.44V93.56A6.45,6.45,0,0,1,93.56,100ZM6.44,1A5.45,5.45,0,0,0,1,6.44V93.56A5.45,5.45,0,0,0,6.44,99H93.56A5.45,5.45,0,0,0,99,93.56V6.44A5.45,5.45,0,0,0,93.56,1Z"
       style="fill:#ffc70e;fill-opacity:1"
       id="path6" />
  </g>
  <g
     id="g18">
    <path
       d="M18.88,36.75h7.94a4.86,4.86,0,0,1,3.89,1.51A6.44,6.44,0,0,1,32,42.56,6.58,6.58,0,0,1,30.59,47a5.4,5.4,0,0,1-4.29,1.61H23.68v7h-4.8Zm4.8,8.06h1.17a2.57,2.57,0,0,0,1.94-.59,2.09,2.09,0,0,0,.56-1.5,2.41,2.41,0,0,0-.48-1.51A2.25,2.25,0,0,0,25,40.6H23.68Z"
       style="fill: #010101"
       id="path10" />
    <path
       d="M42.17,52.53H36.75L36,55.65H31.12l5.81-18.9h5.21L48,55.65H43Zm-1-4.08-1.71-6.8-1.68,6.8Z"
       style="fill: #010101"
       id="path12" />
    <path
       d="M49.53,55.65V36.75h8a9.57,9.57,0,0,1,3.39.47,3.77,3.77,0,0,1,1.89,1.72,7,7,0,0,1,.16,5.77,4.73,4.73,0,0,1-1.5,1.85,5.06,5.06,0,0,1-1.68.75A4.38,4.38,0,0,1,61,48a5.27,5.27,0,0,1,.77,1,7.43,7.43,0,0,1,.66,1.18l2.32,5.47h-5.4l-2.55-5.77a4.57,4.57,0,0,0-.87-1.46A1.76,1.76,0,0,0,54.75,48h-.42v7.67Zm4.8-11.24h2a5.59,5.59,0,0,0,1.27-.26,1.2,1.2,0,0,0,.77-.59,2,2,0,0,0,.3-1.09,1.92,1.92,0,0,0-.47-1.41,2.46,2.46,0,0,0-1.78-.49h-2.1Z"
       style="fill: #010101"
       id="path14" />
    <path
       d="M66.29,36.75h4.78V43.9l5-7.15h6.36l-5.65,7.14,5.9,11.76H76.79l-3.25-7.77L71.07,51v4.61H66.29Z"
       style="fill: #010101"
       id="path16" />
  </g>
</svg>
