<?xml version="1.0" encoding="utf-8"?>
<!-- Generator: Adobe Illustrator 26.0.3, SVG Export Plug-In . SVG Version: 6.00 Build 0)  -->
<svg version="1.1" id="New_VCP" xmlns="http://www.w3.org/2000/svg" xmlns:xlink="http://www.w3.org/1999/xlink" x="0px" y="0px"
	 viewBox="0 0 100 100" style="enable-background:new 0 0 100 100;" xml:space="preserve">
<style type="text/css">
	.st0{fill:#FFFFFF;}
</style>
<path d="M39.5,0 M60.6,0.1c0.6,2.9,1.8,5.8,1.9,8.8c0.3,7.2,0,14.4,0.1,21.6c0,3.2-0.7,6.1-2,9c-0.4,0.7-0.2,1.8,0,2.7
	c0.1,0.6,0.5,1.1,0.8,1.7c2.1,5.1,1.8,6.1-2.4,9.4c-2.5,2-5.1,4-7.6,6.1c-0.9,0.8-1.6,0.9-2.6,0.1c-3.4-2.8-7-5.5-10.4-8.4
	c-0.5-0.4-1-1.4-0.8-2c0.5-2.4,1.3-4.7,1.9-7.1c0.2-0.8,0.3-1.8,0-2.5c-1.4-2.9-2.1-5.8-2-9c0.1-7.2,0.1-14.4,0-21.6
	c0-3.2,0.6-6.1,2-9 M42.2,38.4c0.2-0.1,0.5-0.1,0.7-0.2c4.2-4.7,8.5-9.5,12.7-14.2c2.7-3,4.5-6.2,3.9-10.5c-0.2-1.5,0-3.1,0-4.7
	c-0.1-2.7-0.4-5.4-2.1-7.8c-4.6,5.2-9.1,10.3-13.7,15.4c-2.2,2.5-3.5,5.2-3.1,8.6c0.2,1.8-0.1,3.7,0.1,5.5
	C41,33.3,41.6,35.9,42.2,38.4z M48.3,56.5c0.3,0.1,0.6,0.3,0.9,0.4c2.4-1.9,4.8-3.8,7.2-5.7c3.3-2.6,3.3-2.8,1.5-6.8
	c-0.2-0.4-0.4-0.7-0.7-1.2c-2.7,3.1-5.4,6-7.9,9.2C48.7,53.4,48.7,55.1,48.3,56.5z"/>
<path class="st0" d="M42.2,38.4c-0.5-2.6-1.2-5.1-1.5-7.7c-0.2-1.8,0.1-3.7-0.1-5.5c-0.5-3.5,0.9-6.2,3.1-8.6
	c4.6-5.1,9.1-10.2,13.7-15.4c1.8,2.4,2,5.1,2.1,7.8c0,1.6-0.2,3.1,0,4.7c0.7,4.3-1.2,7.5-3.9,10.5c-4.3,4.7-8.5,9.5-12.7,14.2
	C42.6,38.3,42.4,38.4,42.2,38.4z"/>
<path class="st0" d="M48.3,56.5c0.4-1.4,0.3-3.1,1.1-4.1c2.4-3.2,5.2-6.1,7.9-9.2c0.3,0.5,0.5,0.8,0.7,1.2c1.8,3.9,1.8,4.1-1.5,6.8
	c-2.4,1.9-4.8,3.8-7.2,5.7C48.9,56.8,48.6,56.6,48.3,56.5z"/>
<circle cx="50" cy="79.5" r="12.7"/>
</svg>
