<svg id="New_VCP" data-name="New VCP" xmlns="http://www.w3.org/2000/svg" width="100" height="100" viewBox="0 0 100 100">
  <title>reset_home</title>
  <rect width="100" height="100" rx="6" style="fill: #ffc70e"/>
  <g>
    <g>
      <path d="M14,44.59V25.9h7.87a9.37,9.37,0,0,1,3.34.46,3.72,3.72,0,0,1,1.86,1.7,6,6,0,0,1,.71,3,6.13,6.13,0,0,1-.54,2.68,4.73,4.73,0,0,1-1.49,1.83,4.94,4.94,0,0,1-1.66.74,4.46,4.46,0,0,1,1.23.69,5.73,5.73,0,0,1,.76,1,7.85,7.85,0,0,1,.66,1.16L29,44.59H23.68l-2.52-5.71a4.37,4.37,0,0,0-.86-1.44A1.71,1.71,0,0,0,19.15,37h-.42v7.58Zm4.74-11.12h2A5.77,5.77,0,0,0,22,33.22a1.26,1.26,0,0,0,.77-.59A2,2,0,0,0,23,31.55a1.89,1.89,0,0,0-.47-1.39,2.45,2.45,0,0,0-1.76-.48H18.73Z" style="fill: #010101"/>
      <path d="M30.51,25.9H43.16v4H35.24v3h7.34v3.81H35.24v3.69h8.15v4.23H30.51Z" style="fill: #010101"/>
      <path d="M45.1,38.41l4.49-.35a4.75,4.75,0,0,0,.6,2,2.32,2.32,0,0,0,2.08,1.14,2,2,0,0,0,1.56-.58,1.93,1.93,0,0,0,.54-1.35,1.89,1.89,0,0,0-.52-1.3,5.41,5.41,0,0,0-2.41-1.08A9.47,9.47,0,0,1,47,34.66a5,5,0,0,1-1.33-3.61,5.63,5.63,0,0,1,.68-2.72,4.87,4.87,0,0,1,2-2,8.15,8.15,0,0,1,3.76-.73,6.67,6.67,0,0,1,4.46,1.33,6.26,6.26,0,0,1,1.83,4.24L54,31.47a3.17,3.17,0,0,0-.75-1.83,2.06,2.06,0,0,0-1.56-.58,1.68,1.68,0,0,0-1.24.43,1.42,1.42,0,0,0-.42,1,1.16,1.16,0,0,0,.34.8A3.44,3.44,0,0,0,52,32a17.38,17.38,0,0,1,4.43,1.65,5.2,5.2,0,0,1,2,2.07A6.29,6.29,0,0,1,59,38.51a6.86,6.86,0,0,1-.82,3.32,5.47,5.47,0,0,1-2.27,2.3,7.7,7.7,0,0,1-3.67.78q-3.9,0-5.4-1.84A8.08,8.08,0,0,1,45.1,38.41Z" style="fill: #010101"/>
      <path d="M61.32,25.9H74v4H66.05v3h7.34v3.81H66.05v3.69H74.2v4.23H61.32Z" style="fill: #010101"/>
      <path d="M75.67,25.9H90v4.62H85.2V44.59H80.48V30.52H75.67Z" style="fill: #010101"/>
    </g>
    <g>
      <path d="M17.53,53.24h4.73v6.6h5.16v-6.6h4.75V72.1H27.42V64.47H22.26V72.1H17.53Z" style="fill: #010101"/>
      <path d="M34.72,62.68c0-3.08.69-5.47,2.08-7.19a7.1,7.1,0,0,1,5.82-2.57,7.14,7.14,0,0,1,5.88,2.53q2.07,2.52,2.07,7.08a14,14,0,0,1-.9,5.42,7.5,7.5,0,0,1-2.61,3.29,7.3,7.3,0,0,1-4.26,1.18,8.19,8.19,0,0,1-4.28-1,7.28,7.28,0,0,1-2.75-3.21A12.77,12.77,0,0,1,34.72,62.68Zm4.72,0a7.47,7.47,0,0,0,.86,4.1,2.86,2.86,0,0,0,4.71,0,8.36,8.36,0,0,0,.83-4.39A6.84,6.84,0,0,0,45,58.56a2.75,2.75,0,0,0-2.36-1.23,2.68,2.68,0,0,0-2.3,1.25A7.44,7.44,0,0,0,39.44,62.71Z" style="fill: #010101"/>
      <path d="M53.06,53.24h6.22l2.4,11.47,2.38-11.47h6.21V72.1H66.4V57.72l-3,14.38H59.91l-3-14.38V72.1H53.06Z" style="fill: #010101"/>
      <path d="M73.28,53.24H86v4H78v3h7.36v3.85H78v3.72h8.17V72.1H73.28Z" style="fill: #010101"/>
    </g>
  </g>
</svg>
