<svg id="New_VCP" data-name="New VCP" xmlns="http://www.w3.org/2000/svg" width="100" height="100" viewBox="0 0 100 100">
  <title>spin_high</title>
  <rect width="100" height="100" rx="6" style="fill: #252d6b"/>
  <g>
    <g>
      <path d="M20.6,37.86l4.08-.4a4.92,4.92,0,0,0,1.49,3,4.53,4.53,0,0,0,3,1,4.65,4.65,0,0,0,3-.86,2.53,2.53,0,0,0,1-2,1.86,1.86,0,0,0-.43-1.25,3.36,3.36,0,0,0-1.51-.9c-.49-.17-1.61-.47-3.35-.91a11.33,11.33,0,0,1-4.73-2.05,5.4,5.4,0,0,1-1.91-4.17,5.34,5.34,0,0,1,.9-3,5.67,5.67,0,0,1,2.59-2.1,10.41,10.41,0,0,1,4.08-.72c2.61,0,4.56.57,5.88,1.71a6,6,0,0,1,2.07,4.57L32.69,30a3.56,3.56,0,0,0-1.16-2.3,4.19,4.19,0,0,0-2.65-.7,4.79,4.79,0,0,0-2.86.75A1.52,1.52,0,0,0,25.36,29,1.55,1.55,0,0,0,26,30.27a10.84,10.84,0,0,0,3.85,1.39,20.69,20.69,0,0,1,4.52,1.49,5.91,5.91,0,0,1,2.29,2.11,6.52,6.52,0,0,1-.16,6.64,5.92,5.92,0,0,1-2.8,2.31,11.69,11.69,0,0,1-4.52.76,9,9,0,0,1-6-1.82A7.94,7.94,0,0,1,20.6,37.86Z" style="fill: #fff"/>
      <path d="M41,44.6V23.87h6.72a24.3,24.3,0,0,1,5,.31,5.42,5.42,0,0,1,3,2,6.45,6.45,0,0,1,1.2,4,6.8,6.8,0,0,1-.69,3.21,5.69,5.69,0,0,1-1.76,2,6,6,0,0,1-2.17,1,23.68,23.68,0,0,1-4.34.3H45.18V44.6Zm4.19-17.23v5.89h2.29a10.7,10.7,0,0,0,3.31-.33,2.76,2.76,0,0,0,1.31-1,2.86,2.86,0,0,0,.47-1.62,2.64,2.64,0,0,0-.67-1.86,2.81,2.81,0,0,0-1.68-.92,18.94,18.94,0,0,0-3-.15Z" style="fill: #fff"/>
      <path d="M60.18,44.6V23.87h4.19V44.6Z" style="fill: #fff"/>
      <path d="M68.4,44.6V23.87h4.08L81,37.71V23.87h3.89V44.6h-4.2L72.29,31.08V44.6Z" style="fill: #fff"/>
    </g>
    <g>
      <path d="M20.25,75.34V54.6h4.18v8.17h8.21V54.6h4.19V75.34H32.64V66.27H24.43v9.07Z" style="fill: #fff"/>
      <path d="M41,75.34V54.6h4.18V75.34Z" style="fill: #fff"/>
      <path d="M58.85,67.72v-3.5h9v8.26a11.43,11.43,0,0,1-3.82,2.25,14,14,0,0,1-5.05,1,11.4,11.4,0,0,1-5.68-1.37,8.68,8.68,0,0,1-3.63-3.9,12.68,12.68,0,0,1-1.22-5.53,11.9,11.9,0,0,1,1.36-5.76,9.2,9.2,0,0,1,4-3.86,10.73,10.73,0,0,1,5-1,9.89,9.89,0,0,1,6,1.62,7.33,7.33,0,0,1,2.8,4.48l-4.16.78a4.43,4.43,0,0,0-1.65-2.42,5,5,0,0,0-3-.88,5.66,5.66,0,0,0-4.36,1.74,7.33,7.33,0,0,0-1.63,5.16q0,3.69,1.65,5.54a5.47,5.47,0,0,0,4.3,1.85,7.38,7.38,0,0,0,2.64-.52,9.09,9.09,0,0,0,2.27-1.25V67.72Z" style="fill: #fff"/>
      <path d="M71.75,75.34V54.6h4.19v8.17h8.2V54.6h4.19V75.34H84.14V66.27h-8.2v9.07Z" style="fill: #fff"/>
    </g>
  </g>
</svg>
