<?xml version="1.0" encoding="utf-8"?>
<!-- Generator: Adobe Illustrator 24.0.2, SVG Export Plug-In . SVG Version: 6.00 Build 0)  -->
<svg version="1.1" id="New_VCP" xmlns="http://www.w3.org/2000/svg" xmlns:xlink="http://www.w3.org/1999/xlink" x="0px" y="0px"
	 viewBox="0 0 100 100" style="enable-background:new 0 0 100 100;" xml:space="preserve">
<style type="text/css">
	.st0{fill:#252D6B;}
	.st1{display:none;fill:#82151E;}
	.st2{fill:#FFFFFF;}
</style>
<path class="st0" d="M100,94c0,3.31-2.69,6-6,6H6c-3.31,0-6-2.69-6-6V6c0-3.31,2.69-6,6-6h88c3.31,0,6,2.69,6,6V94z"/>
<path class="st1" d="M35.09,3h-0.69H7.59C5.06,3,3,4.99,3,7.45v25.87v1.77L35.09,3z"/>
<g>
	<path class="st2" d="M12.7,41.63l3.95-0.29c0.09,0.75,0.26,1.32,0.52,1.71c0.43,0.64,1.04,0.95,1.83,0.95
		c0.59,0,1.05-0.16,1.37-0.49c0.32-0.32,0.48-0.7,0.48-1.13c0-0.41-0.15-0.77-0.46-1.09s-1.01-0.63-2.12-0.91
		c-1.82-0.48-3.12-1.11-3.89-1.91c-0.78-0.79-1.17-1.8-1.17-3.03c0-0.81,0.2-1.57,0.6-2.29c0.4-0.72,1-1.28,1.8-1.69
		c0.8-0.41,1.9-0.62,3.3-0.62c1.72,0,3.02,0.37,3.92,1.12s1.44,1.93,1.61,3.56l-3.91,0.27c-0.1-0.71-0.32-1.22-0.65-1.54
		c-0.33-0.32-0.79-0.48-1.38-0.48c-0.48,0-0.85,0.12-1.09,0.36s-0.37,0.53-0.37,0.87c0,0.25,0.1,0.48,0.3,0.68
		c0.19,0.21,0.66,0.4,1.39,0.58c1.81,0.46,3.11,0.92,3.9,1.39c0.78,0.47,1.35,1.05,1.71,1.74c0.36,0.69,0.54,1.47,0.54,2.33
		c0,1.01-0.24,1.94-0.71,2.79s-1.14,1.49-2,1.93s-1.93,0.66-3.23,0.66c-2.28,0-3.86-0.51-4.74-1.54
		C13.31,44.52,12.82,43.22,12.7,41.63z"/>
	<path class="st2" d="M27.13,31.12h4.16v15.71h-4.16V31.12z"/>
	<path class="st2" d="M34.29,31.12h3.87l5.05,8.69v-8.69h3.91v15.71h-3.91l-5.03-8.62v8.62h-3.9V31.12z"/>
	<path class="st2" d="M56.63,41.14v-3.27h6.41v6.7c-1.23,0.98-2.31,1.64-3.25,2c-0.94,0.35-2.06,0.53-3.35,0.53
		c-1.59,0-2.89-0.32-3.9-0.95s-1.78-1.58-2.33-2.84c-0.55-1.26-0.83-2.7-0.83-4.33c0-1.71,0.3-3.21,0.91-4.47
		c0.6-1.27,1.49-2.23,2.66-2.89c0.91-0.51,2.13-0.76,3.67-0.76c1.48,0,2.59,0.16,3.33,0.47c0.74,0.31,1.35,0.8,1.83,1.46
		s0.85,1.5,1.09,2.51l-4,0.84c-0.17-0.59-0.44-1.05-0.84-1.36c-0.39-0.31-0.9-0.47-1.51-0.47c-0.91,0-1.63,0.37-2.17,1.11
		s-0.81,1.91-0.81,3.51c0,1.7,0.27,2.91,0.82,3.64c0.55,0.73,1.31,1.09,2.28,1.09c0.46,0,0.91-0.08,1.33-0.24s0.9-0.42,1.45-0.8
		v-1.48H56.63z"/>
	<path class="st2" d="M65.5,31.12h4.15v11.84h6.47v3.87H65.5V31.12z"/>
	<path class="st2" d="M77.99,31.12H89.1v3.35h-6.96v2.5h6.45v3.2h-6.45v3.1h7.16v3.56H77.99V31.12z"/>
	<path class="st2" d="M16.2,55.22h7.76c1.29,0,2.29,0.38,2.98,1.13s1.04,1.68,1.04,2.79c0,0.93-0.25,1.72-0.74,2.39
		c-0.33,0.44-0.81,0.79-1.45,1.05c0.96,0.27,1.67,0.74,2.13,1.4c0.45,0.66,0.68,1.49,0.68,2.49c0,0.81-0.16,1.55-0.49,2.2
		c-0.32,0.65-0.77,1.16-1.33,1.54c-0.35,0.24-0.87,0.41-1.57,0.51c-0.93,0.14-1.55,0.21-1.86,0.21H16.2V55.22z M20.38,61.38h1.8
		c0.65,0,1.1-0.13,1.35-0.39c0.25-0.26,0.38-0.64,0.38-1.13c0-0.46-0.13-0.81-0.38-1.07c-0.25-0.26-0.69-0.39-1.32-0.39h-1.83V61.38
		z M20.38,67.56h2.11c0.71,0,1.22-0.15,1.51-0.44c0.29-0.3,0.44-0.7,0.44-1.2c0-0.46-0.15-0.84-0.43-1.12
		c-0.29-0.28-0.8-0.42-1.52-0.42h-2.11V67.56z"/>
	<path class="st2" d="M30.77,55.22h4.15v11.84h6.47v3.87H30.77V55.22z"/>
	<path class="st2" d="M42.44,63.09c0-2.56,0.61-4.56,1.83-5.99s2.92-2.14,5.1-2.14c2.23,0,3.96,0.7,5.16,2.11s1.81,3.37,1.81,5.9
		c0,1.84-0.26,3.34-0.79,4.52c-0.53,1.17-1.29,2.09-2.29,2.74c-1,0.65-2.24,0.98-3.73,0.98c-1.51,0-2.77-0.28-3.76-0.85
		c-0.99-0.56-1.8-1.46-2.41-2.68C42.74,66.45,42.44,64.92,42.44,63.09z M46.58,63.11c0,1.58,0.25,2.72,0.75,3.42
		c0.5,0.69,1.19,1.04,2.06,1.04c0.89,0,1.58-0.34,2.07-1.02c0.49-0.68,0.73-1.9,0.73-3.65c0-1.48-0.25-2.56-0.76-3.24
		c-0.51-0.68-1.2-1.02-2.07-1.02c-0.84,0-1.51,0.35-2.01,1.04C46.84,60.36,46.58,61.51,46.58,63.11z"/>
	<path class="st2" d="M67.51,64.5l3.63,1.29c-0.24,1.19-0.63,2.19-1.15,2.99c-0.53,0.8-1.18,1.4-1.96,1.81
		c-0.78,0.41-1.77,0.61-2.97,0.61c-1.46,0-2.65-0.25-3.57-0.74s-1.72-1.37-2.39-2.62c-0.67-1.25-1.01-2.85-1.01-4.8
		c0-2.6,0.59-4.59,1.77-5.99c1.18-1.4,2.85-2.09,5.01-2.09c1.69,0,3.02,0.4,3.99,1.2c0.97,0.8,1.69,2.03,2.16,3.69l-3.66,0.95
		c-0.13-0.48-0.26-0.83-0.4-1.05c-0.23-0.37-0.52-0.66-0.85-0.86c-0.34-0.2-0.71-0.3-1.13-0.3c-0.94,0-1.66,0.44-2.16,1.33
		c-0.38,0.66-0.57,1.69-0.57,3.09c0,1.74,0.23,2.93,0.68,3.58c0.45,0.65,1.09,0.97,1.9,0.97c0.79,0,1.39-0.26,1.8-0.78
		C67.03,66.25,67.33,65.5,67.51,64.5z"/>
	<path class="st2" d="M73.18,55.22h4.15v5.94l4.34-5.94h5.51l-4.9,5.93l5.12,9.78h-5.11l-2.83-6.46l-2.14,2.63v3.83h-4.15V55.22z"/>
</g>
</svg>
