<?xml version="1.0" encoding="utf-8"?>
<!-- Generator: Adobe Illustrator 27.0.0, SVG Export Plug-In . SVG Version: 6.00 Build 0)  -->
<svg version="1.1" id="New_VCP" xmlns="http://www.w3.org/2000/svg" xmlns:xlink="http://www.w3.org/1999/xlink" x="0px" y="0px"
	 viewBox="0 0 100 100" style="enable-background:new 0 0 100 100;" xml:space="preserve">
<style type="text/css">
	.st0{fill:#FFFFFF;}
</style>
<path class="st0" d="M6,0h88c3.3,0,6,2.7,6,6v88c0,3.3-2.7,6-6,6H6c-3.3,0-6-2.7-6-6V6C0,2.7,2.7,0,6,0z"/>
<g>
	<path d="M24.1,62.9c0.3-2.2,0.8-4.2,1.4-6.1c0.6-1.9,1.3-3.7,2.2-5.4c0.8-1.7,2.1-4,3.9-6.8H21.2v-5.5h17.4v4.2
		c-1.6,2.8-2.8,5.2-3.6,7.1s-1.5,3.9-2.1,5.9c-0.6,2-1.1,4.3-1.5,6.6H24.1z"/>
	<path d="M58,54.9c0,1.6-0.4,3.1-1.2,4.4c-0.8,1.3-1.9,2.3-3.3,3s-3.2,1.1-5.1,1.1c-1.1,0-2.2-0.1-3.4-0.3c-1.2-0.2-2.2-0.4-2.9-0.7
		v-5.5c1.7,0.9,3.4,1.3,5.3,1.3c1.2,0,2.1-0.2,2.8-0.7c0.6-0.4,0.9-1.1,0.9-1.9c0-1.7-1.5-2.6-4.3-2.6c-1.5,0-2.8,0.1-4,0.4
		l0.9-14.3H57v5.5h-8L48.8,48c0.6-0.1,1.2-0.1,1.8-0.1c2.3,0,4.1,0.6,5.5,1.9C57.4,51,58,52.7,58,54.9z"/>
	<path d="M74.2,44.8c0,2-0.6,3.5-1.7,4.7c-1.1,1.2-2.7,1.7-4.6,1.7c-1.8,0-3.2-0.5-4.3-1.6C62.5,48.5,62,47,62,45.2
		c0-1.9,0.6-3.5,1.7-4.7c1.1-1.2,2.7-1.8,4.6-1.8c1.8,0,3.3,0.5,4.3,1.6C73.7,41.5,74.2,42.9,74.2,44.8z M70.6,62.9h-5.2l15.3-23.8
		h5.2L70.6,62.9z M69.9,45c0-0.8-0.1-1.4-0.4-1.8c-0.3-0.4-0.7-0.7-1.2-0.7c-0.6,0-1,0.2-1.3,0.7c-0.3,0.5-0.5,1.1-0.5,1.9
		c0,0.8,0.1,1.4,0.4,1.8c0.3,0.4,0.7,0.6,1.3,0.6c0.6,0,1-0.2,1.3-0.7C69.7,46.4,69.9,45.8,69.9,45z M89.1,56.8
		c0,1.9-0.6,3.5-1.7,4.7s-2.7,1.8-4.6,1.8c-1.8,0-3.2-0.5-4.3-1.6c-1.1-1.1-1.6-2.5-1.6-4.3c0-2,0.6-3.5,1.7-4.7
		c1.2-1.2,2.7-1.7,4.6-1.7c1.8,0,3.3,0.5,4.3,1.6C88.6,53.5,89.1,55,89.1,56.8z M84.8,57c0-0.8-0.1-1.4-0.4-1.9
		c-0.3-0.4-0.7-0.7-1.2-0.7c-0.6,0-1,0.2-1.3,0.7c-0.3,0.5-0.5,1.1-0.5,1.9c0,0.8,0.1,1.4,0.4,1.8c0.3,0.4,0.7,0.6,1.3,0.6
		c0.6,0,1-0.2,1.3-0.7C84.6,58.5,84.8,57.9,84.8,57z"/>
</g>
</svg>
