<?xml version="1.0" encoding="utf-8"?>
<!-- Generator: Adobe Illustrator 27.0.1, SVG Export Plug-In . SVG Version: 6.00 Build 0)  -->
<svg version="1.1" id="New_VCP" xmlns="http://www.w3.org/2000/svg" xmlns:xlink="http://www.w3.org/1999/xlink" x="0px" y="0px"
	 viewBox="0 0 100 100" style="enable-background:new 0 0 100 100;" xml:space="preserve">
<style type="text/css">
	.st0{fill:#FFFFFF;}
</style>
<g>
	<path class="st0" d="M93,99.5H7c-3.6,0-6.5-2.9-6.5-6.5V7c0-3.6,2.9-6.5,6.5-6.5h86c3.6,0,6.5,2.9,6.5,6.5v86
		C99.5,96.6,96.6,99.5,93,99.5z"/>
	<path d="M93.1,100H6.9C3.1,100,0,96.9,0,93.1V6.9C0,3.1,3.1,0,6.9,0h86.1c3.8,0,6.9,3.1,6.9,6.9v86.1C100,96.9,96.9,100,93.1,100z
		 M6.9,1C3.7,1,1,3.7,1,6.9v86.1C1,96.3,3.7,99,6.9,99h86.1c3.3,0,5.9-2.7,5.9-5.9V6.9C99,3.7,96.3,1,93.1,1H6.9z"/>
</g>
<g>
	<path d="M38.7,9.7h-4.6v13.2h-3.6V9.7h-4.6v-3h12.8V9.7z"/>
	<path d="M49.8,22.8h-3.5v-1.8h-0.1c-0.9,1.4-2,2-3.5,2c-2.7,0-4-1.6-4-4.8v-6.9h3.5V18c0,1.6,0.6,2.4,1.9,2.4
		c0.6,0,1.1-0.2,1.5-0.7c0.4-0.4,0.6-1,0.6-1.8v-6.6h3.5V22.8z"/>
	<path d="M60.3,14.5c-0.4-0.2-0.9-0.3-1.5-0.3c-0.8,0-1.4,0.3-1.8,0.8c-0.4,0.6-0.7,1.3-0.7,2.3v5.5h-3.5V11.3h3.5v2.1h0
		c0.6-1.6,1.6-2.3,3-2.3c0.4,0,0.7,0,0.9,0.1V14.5z"/>
	<path d="M73.2,22.8h-3.5v-6.4c0-1.8-0.6-2.7-1.9-2.7c-0.6,0-1.1,0.2-1.5,0.7c-0.4,0.5-0.6,1.1-0.6,1.8v6.6H62V11.3h3.5v1.8h0
		c0.8-1.4,2.1-2.1,3.7-2.1c2.5,0,3.8,1.6,3.8,4.7V22.8z"/>
</g>
<g>
	<polygon class="st0" points="87.2,49.1 87.2,71.6 50.7,71.6 46.5,84.1 12.8,84.1 12.8,36.6 46.2,36.6 50.7,49.1 	"/>
	<path d="M47.6,85.6H11.3V35.1h36l4.4,12.5h37v25.4H51.8L47.6,85.6z M14.3,82.6h31.1l4.2-12.5h36.1V50.6H49.6l-4.4-12.5H14.3V82.6z"
		/>
</g>
</svg>
