<?xml version="1.0" encoding="utf-8"?>
<!-- Generator: Adobe Illustrator 26.0.3, SVG Export Plug-In . SVG Version: 6.00 Build 0)  -->
<svg version="1.1" id="New_VCP" xmlns="http://www.w3.org/2000/svg" xmlns:xlink="http://www.w3.org/1999/xlink" x="0px" y="0px"
	 viewBox="0 0 100 100" style="enable-background:new 0 0 100 100;" xml:space="preserve">
<style type="text/css">
	.st0{fill:#FFC70E;}
</style>
<path class="st0" d="M100,94c0,3.3-2.7,6-6,6H6c-3.3,0-6-2.7-6-6V6c0-3.3,2.7-6,6-6h88c3.3,0,6,2.7,6,6V94z"/>
<g>
	<path d="M26,25.8v-3.6h7.1v7.3c-1.4,1.1-2.6,1.8-3.6,2.2s-2.3,0.6-3.7,0.6c-1.8,0-3.2-0.3-4.3-1c-1.1-0.7-2-1.7-2.6-3.1
		c-0.6-1.4-0.9-3-0.9-4.7c0-1.9,0.3-3.5,1-4.9c0.7-1.4,1.7-2.4,3-3.2c1-0.6,2.4-0.8,4.1-0.8c1.7,0,2.9,0.2,3.7,0.5
		c0.8,0.3,1.5,0.9,2,1.6s0.9,1.6,1.2,2.7l-4.5,0.9c-0.2-0.6-0.5-1.1-0.9-1.5c-0.4-0.3-1-0.5-1.7-0.5c-1,0-1.8,0.4-2.4,1.2
		c-0.6,0.8-0.9,2.1-0.9,3.8c0,1.9,0.3,3.2,0.9,4c0.6,0.8,1.5,1.2,2.5,1.2c0.5,0,1-0.1,1.5-0.3c0.5-0.2,1-0.5,1.6-0.9v-1.6H26z"/>
	<path d="M35.3,23.4c0-2.8,0.7-5,2-6.6s3.3-2.3,5.7-2.3c2.5,0,4.4,0.8,5.8,2.3c1.3,1.5,2,3.7,2,6.5c0,2-0.3,3.7-0.9,4.9
		s-1.4,2.3-2.6,3c-1.1,0.7-2.5,1.1-4.2,1.1c-1.7,0-3.1-0.3-4.2-0.9c-1.1-0.6-2-1.6-2.7-2.9C35.7,27.1,35.3,25.4,35.3,23.4z
		 M39.9,23.4c0,1.7,0.3,3,0.8,3.7c0.6,0.8,1.3,1.1,2.3,1.1c1,0,1.8-0.4,2.3-1.1s0.8-2.1,0.8-4c0-1.6-0.3-2.8-0.9-3.5
		S44,18.5,43,18.5c-0.9,0-1.7,0.4-2.2,1.1S39.9,21.7,39.9,23.4z"/>
	<path d="M51.7,14.8h14.1v4.2h-4.7V32h-4.6V19.1h-4.7V14.8z"/>
	<path d="M66.6,23.4c0-2.8,0.7-5,2-6.6c1.4-1.6,3.3-2.3,5.7-2.3c2.5,0,4.4,0.8,5.8,2.3c1.3,1.5,2,3.7,2,6.5c0,2-0.3,3.7-0.9,4.9
		s-1.4,2.3-2.6,3s-2.5,1.1-4.2,1.1c-1.7,0-3.1-0.3-4.2-0.9s-2-1.6-2.7-2.9C66.9,27.1,66.6,25.4,66.6,23.4z M71.2,23.4
		c0,1.7,0.3,3,0.8,3.7s1.3,1.1,2.3,1.1c1,0,1.8-0.4,2.3-1.1c0.5-0.7,0.8-2.1,0.8-4c0-1.6-0.3-2.8-0.9-3.5c-0.6-0.7-1.3-1.1-2.3-1.1
		c-0.9,0-1.7,0.4-2.2,1.1C71.5,20.4,71.2,21.7,71.2,23.4z"/>
	<path d="M34.2,40.8h5.1l2.6,5.3l2.6-5.3h5L45,49.1l5.1,8.9h-5.2l-3-5.5l-3,5.5h-5.2l5.2-9L34.2,40.8z"/>
	<path d="M50,40.8h5.1l3,5.8l3-5.8h5.1l-5.8,10V58h-4.6v-7.2L50,40.8z"/>
	<path d="M16.7,66.8h4.6v6h5.1v-6H31V84h-4.6V77h-5.1V84h-4.6V66.8z"/>
	<path d="M33.5,75.4c0-2.8,0.7-5,2-6.6s3.3-2.3,5.7-2.3c2.5,0,4.4,0.8,5.8,2.3c1.3,1.5,2,3.7,2,6.5c0,2-0.3,3.7-0.9,4.9
		c-0.6,1.3-1.4,2.3-2.6,3c-1.1,0.7-2.5,1.1-4.2,1.1c-1.7,0-3.1-0.3-4.2-0.9c-1.1-0.6-2-1.6-2.7-2.9C33.9,79.1,33.5,77.4,33.5,75.4z
		 M38.2,75.4c0,1.7,0.3,3,0.8,3.7c0.6,0.8,1.3,1.1,2.3,1.1c1,0,1.8-0.4,2.3-1.1s0.8-2.1,0.8-4c0-1.6-0.3-2.8-0.9-3.5
		s-1.3-1.1-2.3-1.1c-0.9,0-1.7,0.4-2.2,1.1S38.2,73.7,38.2,75.4z"/>
	<path d="M51.5,66.8h6.1l2.3,10.5l2.3-10.5h6.1V84h-3.8V70.9L61.6,84h-3.4l-2.9-13.1V84h-3.8V66.8z"/>
	<path d="M71.3,66.8h12.4v3.7h-7.8v2.7h7.2v3.5h-7.2v3.4h8V84H71.3V66.8z"/>
</g>
</svg>
