<?xml version="1.0" encoding="utf-8"?>
<!-- Generator: Adobe Illustrator 24.0.2, SVG Export Plug-In . SVG Version: 6.00 Build 0)  -->
<svg version="1.1" id="New_VCP" xmlns="http://www.w3.org/2000/svg" xmlns:xlink="http://www.w3.org/1999/xlink" x="0px" y="0px"
	 width="100px" height="100px" viewBox="0 0 100 100" style="enable-background:new 0 0 100 100;" xml:space="preserve">
<style type="text/css">
	.st0{fill:#252D6B;}
	.st1{display:none;}
	.st2{display:inline;}
	.st3{fill:#FFFFFF;}
	.st4{fill:#010101;}
	.st5{display:inline;fill:#FFFFFF;}
	.st6{display:inline;fill:#010101;}
	.st7{display:none;fill:#82151E;}
</style>
<path class="st0" d="M100,94c0,3.3-2.7,6-6,6H6c-3.3,0-6-2.7-6-6V6c0-3.3,2.7-6,6-6h88c3.3,0,6,2.7,6,6V94z"/>
<g class="st1">
	<g class="st2">
		<g>
			<rect x="36.5" y="32.9" class="st3" width="22.9" height="5"/>
			<path class="st4" d="M60.1,38.6H35.8v-6.4h24.3V38.6z M37.2,37.2h21.4v-3.5H37.2V37.2z"/>
		</g>
		<g>
			<rect x="45.1" y="37.9" class="st3" width="5.8" height="4"/>
			<path class="st4" d="M51.6,42.6h-7.2v-5.4h7.2V42.6z M45.8,41.1h4.3v-2.5h-4.3V41.1z"/>
		</g>
	</g>
	<g class="st2">
		<path class="st3" d="M66,49c-1.7-0.2-3.4-0.2-5.1-0.2c-0.6,0-1.2,0-1.8,0c-2-4.2-6.2-7.1-11.2-7.1c-5,0-9.2,2.9-11.2,7.1
			c0,0,0,0-0.1,0c-3.8,0-7.5,0-11.3,0c-1.8,0-3.6,0-5.5,0v10.4c4.6,0,9.1,0,13.7,0c1.1,0,2.2,0,3.2,0c2,4.2,6.2,7.1,11.2,7.1
			c5,0,9.2-2.9,11.2-7.1c2.3,0,4.6,0,6.9,0c0,2.4,0,4.8,0,7.2h10.4c0-1.8,0-3.5,0-5.3c0-1.2,0-2.3,0-3.5C76.4,52.4,70.5,49.6,66,49z
			"/>
		<path class="st4" d="M77.2,67.2H65.3l0-7.2h-5.7c-2.2,4.3-6.7,7.1-11.6,7.1s-9.4-2.8-11.6-7.1H19.2V48.1l0.7,0c1,0,2,0,3,0
			c0.9,0,1.7,0,2.5,0c3.6,0,7.3,0,10.9,0C38.5,43.8,43.1,41,48,41c4.9,0,9.4,2.8,11.6,7.1l2.3,0c1.4,0,2.8,0,4.3,0.2
			c5.3,0.7,11,4,11.1,9.4c0,0.8,0,1.6,0,2.4l0,1.1c0,1.2,0,2.4,0,3.6L77.2,67.2z M66.8,65.7h9l0-0.9c0-1.2,0-2.4,0-3.6l0-1.1
			c0-0.8,0-1.6,0-2.4c-0.1-4.6-5.1-7.4-9.8-8l0,0c-1.3-0.2-2.7-0.2-4.1-0.2l-3.2,0l-0.2-0.4c-1.9-4.1-6-6.7-10.5-6.7
			c-4.5,0-8.6,2.6-10.5,6.7l-0.2,0.4h-0.5c-3.8,0-7.6,0-11.4,0c-0.9,0-1.7,0-2.6,0c-0.7,0-1.5,0-2.2,0v9h16.6l0.2,0.4
			c1.9,4.1,6,6.7,10.5,6.7s8.6-2.6,10.5-6.7l0.2-0.4h8.1L66.8,65.7z"/>
	</g>
</g>
<g class="st1">
	<polygon class="st5" points="68.2,67.6 75,67.6 84,91.3 59.1,91.3 	"/>
	<path class="st6" d="M85,92H58l9.6-25.1h7.9L85,92z M60.1,90.5h22.8l-8.4-22.2h-5.9L60.1,90.5z"/>
</g>
<g class="st1">
	<path class="st5" d="M34.2,26.6v-16h8.6v2.7h-6.1v3.8H42v2.7h-5.3v6.8H34.2z"/>
	<path class="st5" d="M45,26.6V10.7h2.5v13.1h6.3v2.7H45z"/>
	<path class="st5" d="M55.1,18.7c0-1.6,0.2-3,0.6-4.1c0.3-0.8,0.7-1.5,1.2-2.2c0.5-0.6,1-1.1,1.6-1.4c0.8-0.4,1.7-0.6,2.7-0.6
		c1.9,0,3.3,0.7,4.5,2.2c1.1,1.5,1.7,3.5,1.7,6.1c0,2.6-0.6,4.6-1.7,6.1c-1.1,1.5-2.6,2.2-4.4,2.2c-1.9,0-3.4-0.7-4.5-2.2
		C55.7,23.2,55.1,21.2,55.1,18.7z M57.8,18.6c0,1.8,0.3,3.2,1,4.1c0.7,0.9,1.5,1.4,2.5,1.4c1,0,1.8-0.5,2.5-1.4c0.7-0.9,1-2.3,1-4.2
		c0-1.8-0.3-3.2-1-4.1c-0.6-0.9-1.5-1.4-2.5-1.4s-1.9,0.5-2.5,1.4C58.1,15.3,57.8,16.7,57.8,18.6z"/>
	<path class="st5" d="M68.8,18.7c0-1.6,0.2-3,0.6-4.1c0.3-0.8,0.7-1.5,1.2-2.2c0.5-0.6,1-1.1,1.6-1.4c0.8-0.4,1.7-0.6,2.7-0.6
		c1.9,0,3.3,0.7,4.5,2.2c1.1,1.5,1.7,3.5,1.7,6.1c0,2.6-0.6,4.6-1.7,6.1c-1.1,1.5-2.6,2.2-4.4,2.2c-1.9,0-3.4-0.7-4.5-2.2
		C69.4,23.2,68.8,21.2,68.8,18.7z M71.5,18.6c0,1.8,0.3,3.2,1,4.1c0.7,0.9,1.5,1.4,2.5,1.4s1.8-0.5,2.5-1.4c0.7-0.9,1-2.3,1-4.2
		c0-1.8-0.3-3.2-1-4.1c-0.6-0.9-1.5-1.4-2.5-1.4s-1.9,0.5-2.5,1.4C71.8,15.3,71.5,16.7,71.5,18.6z"/>
	<path class="st5" d="M83,10.6h4.7c1,0,1.8,0.1,2.4,0.3c0.7,0.3,1.4,0.8,1.9,1.5c0.5,0.7,0.9,1.6,1.2,2.6c0.3,1,0.4,2.3,0.4,3.8
		c0,1.3-0.1,2.4-0.4,3.4c-0.3,1.2-0.8,2.1-1.4,2.8c-0.4,0.5-1,1-1.8,1.3c-0.6,0.2-1.3,0.3-2.3,0.3H83V10.6z M85.6,13.3v10.6h1.9
		c0.7,0,1.2-0.1,1.5-0.2c0.4-0.1,0.8-0.4,1-0.7c0.3-0.3,0.5-0.8,0.7-1.5c0.2-0.7,0.3-1.7,0.3-2.9c0-1.2-0.1-2.2-0.3-2.8
		c-0.2-0.7-0.4-1.2-0.7-1.5c-0.3-0.4-0.7-0.6-1.2-0.8c-0.4-0.1-1.1-0.2-2.1-0.2H85.6z"/>
</g>
<g class="st1">
	<path class="st5" d="M7,93.3v-16h4.5l2.7,10.9l2.7-10.9h4.5v16h-2.8V80.7l-2.9,12.6h-2.9L9.7,80.7v12.6H7z"/>
	<path class="st5" d="M26.1,84.7c-0.7-0.3-1.3-0.8-1.6-1.4c-0.3-0.6-0.5-1.2-0.5-1.9c0-1.2,0.4-2.2,1.2-3c0.8-0.8,1.9-1.2,3.3-1.2
		c1.4,0,2.5,0.4,3.3,1.2c0.8,0.8,1.2,1.8,1.2,3c0,0.7-0.2,1.4-0.5,2c-0.4,0.6-0.9,1-1.5,1.3c0.8,0.4,1.5,0.9,1.9,1.6
		c0.4,0.7,0.6,1.5,0.6,2.4c0,1.5-0.4,2.7-1.3,3.6c-0.9,0.9-2,1.4-3.5,1.4c-1.4,0-2.5-0.4-3.4-1.1c-1.1-0.9-1.6-2.1-1.6-3.7
		c0-0.9,0.2-1.7,0.6-2.4C24.6,85.6,25.2,85.1,26.1,84.7z M26.4,88.4c0,0.8,0.2,1.5,0.6,2c0.4,0.5,0.9,0.7,1.5,0.7
		c0.6,0,1.1-0.2,1.5-0.7s0.6-1.1,0.6-2c0-0.7-0.2-1.3-0.6-1.8c-0.4-0.5-0.9-0.7-1.5-0.7c-0.7,0-1.2,0.3-1.6,0.8
		C26.6,87.3,26.4,87.8,26.4,88.4z M26.7,81.6c0,0.6,0.2,1.1,0.5,1.4c0.3,0.3,0.7,0.5,1.3,0.5c0.5,0,1-0.2,1.3-0.5
		c0.3-0.3,0.5-0.8,0.5-1.4c0-0.6-0.2-1-0.5-1.4c-0.3-0.3-0.7-0.5-1.3-0.5c-0.5,0-1,0.2-1.3,0.5C26.8,80.6,26.7,81,26.7,81.6z"/>
</g>
<path class="st7" d="M35.1,3h-0.7H7.6C5.1,3,3,5,3,7.4v25.9v1.8L35.1,3z"/>
<g>
	<path class="st3" d="M20.8,23.2h6.8c1.3,0,2.4,0.3,3.3,0.8c0.8,0.5,1.5,1.2,2,2.2c0.5,0.9,0.9,2.1,1.2,3.3c0.2,1.3,0.4,2.6,0.4,4
		c0,2.2-0.2,3.9-0.5,5.1c-0.4,1.2-0.9,2.2-1.5,3.1c-0.6,0.8-1.3,1.4-2.1,1.6c-1,0.4-1.9,0.6-2.7,0.6h-6.8V23.2z M25.4,27.9v11.3h1.1
		c1,0,1.6-0.1,2-0.4s0.7-0.8,1-1.5c0.2-0.7,0.3-1.9,0.3-3.6c0-2.2-0.3-3.7-0.8-4.5c-0.5-0.8-1.4-1.2-2.5-1.2H25.4z"/>
	<path class="st3" d="M46.5,23.2h4.6v12.3c0,1.2-0.1,2.4-0.4,3.5c-0.3,1.1-0.7,2-1.3,2.8c-0.6,0.8-1.2,1.4-1.8,1.7
		c-0.9,0.5-2,0.7-3.2,0.7c-0.7,0-1.5-0.1-2.4-0.2c-0.9-0.1-1.6-0.4-2.1-0.8c-0.6-0.4-1.1-1-1.6-1.8c-0.5-0.8-0.8-1.6-1-2.4
		c-0.3-1.3-0.4-2.5-0.4-3.5V23.2h4.6v12.6c0,1.1,0.2,2,0.7,2.6c0.4,0.6,1.1,1,1.9,1c0.8,0,1.4-0.3,1.9-0.9s0.7-1.5,0.7-2.7V23.2z"/>
	<path class="st3" d="M53.3,37l4.4-0.4c0.1,1,0.3,1.7,0.6,2.3c0.5,0.8,1.1,1.3,2,1.3c0.7,0,1.2-0.2,1.5-0.6c0.4-0.4,0.5-0.9,0.5-1.5
		c0-0.5-0.2-1-0.5-1.4c-0.3-0.4-1.1-0.8-2.3-1.2c-2-0.6-3.4-1.5-4.3-2.5c-0.9-1-1.3-2.4-1.3-4c0-1.1,0.2-2.1,0.7-3s1.1-1.7,2-2.2
		c0.9-0.5,2.1-0.8,3.6-0.8c1.9,0,3.3,0.5,4.3,1.5s1.6,2.5,1.8,4.7L62,29.3c-0.1-0.9-0.4-1.6-0.7-2c-0.4-0.4-0.9-0.6-1.5-0.6
		c-0.5,0-0.9,0.2-1.2,0.5c-0.3,0.3-0.4,0.7-0.4,1.1c0,0.3,0.1,0.6,0.3,0.9c0.2,0.3,0.7,0.5,1.5,0.8c2,0.6,3.4,1.2,4.3,1.8
		c0.9,0.6,1.5,1.4,1.9,2.3c0.4,0.9,0.6,1.9,0.6,3.1c0,1.3-0.3,2.5-0.8,3.7c-0.5,1.1-1.3,2-2.2,2.5c-0.9,0.6-2.1,0.9-3.6,0.9
		c-2.5,0-4.3-0.7-5.2-2S53.4,39.1,53.3,37z"/>
	<path class="st3" d="M68,23.2h13.9v5.1h-4.7v15.6h-4.6V28.3H68V23.2z"/>
	<path class="st3" d="M19,65.1l2.7,1.1c-0.4,1.9-1.1,3.4-2.1,4.3c-1,0.9-2.2,1.4-3.7,1.4c-1.9,0-3.4-0.8-4.6-2.4s-1.8-3.8-1.8-6.6
		c0-2.9,0.6-5.2,1.8-6.9c1.2-1.6,2.8-2.4,4.7-2.4c1.7,0,3.1,0.6,4.2,1.9c0.6,0.8,1.1,1.8,1.4,3.3l-2.8,0.8c-0.2-0.9-0.5-1.6-1-2.2
		c-0.5-0.5-1.2-0.8-1.9-0.8c-1,0-1.9,0.5-2.5,1.4s-1,2.5-1,4.6c0,2.2,0.3,3.8,1,4.8c0.6,0.9,1.5,1.4,2.5,1.4c0.7,0,1.4-0.3,1.9-0.9
		C18.4,67.4,18.8,66.4,19,65.1z"/>
	<path class="st3" d="M23.5,65c0-1.1,0.2-2.2,0.7-3.3c0.4-1.1,1.1-1.9,1.9-2.4c0.8-0.6,1.7-0.8,2.7-0.8c1.5,0,2.8,0.6,3.8,1.9
		c1,1.3,1.5,2.8,1.5,4.8c0,1.9-0.5,3.5-1.5,4.8c-1,1.3-2.2,1.9-3.7,1.9c-0.9,0-1.8-0.3-2.6-0.8c-0.8-0.5-1.5-1.3-1.9-2.3
		S23.5,66.5,23.5,65z M26.2,65.2c0,1.3,0.2,2.2,0.7,2.9c0.5,0.7,1.1,1,1.8,1c0.7,0,1.3-0.3,1.8-1c0.5-0.7,0.7-1.7,0.7-2.9
		c0-1.3-0.2-2.2-0.7-2.9c-0.5-0.7-1.1-1-1.8-1c-0.7,0-1.3,0.3-1.8,1C26.5,63,26.2,63.9,26.2,65.2z"/>
	<path class="st3" d="M36,71.6V53.9h2.7v17.7H36z"/>
	<path class="st3" d="M41.4,71.6V53.9h2.7v17.7H41.4z"/>
	<path class="st3" d="M52.7,67.5l2.7,0.6c-0.3,1.2-0.9,2.2-1.6,2.8c-0.7,0.6-1.7,1-2.8,1c-1.8,0-3.1-0.7-3.9-2.2
		c-0.7-1.2-1-2.6-1-4.4c0-2.1,0.4-3.8,1.3-5c0.9-1.2,2-1.8,3.3-1.8c1.5,0,2.7,0.6,3.6,1.9s1.3,3.2,1.2,5.8h-6.7c0,1,0.2,1.8,0.6,2.3
		s0.9,0.8,1.5,0.8c0.4,0,0.8-0.1,1.1-0.4C52.3,68.7,52.6,68.2,52.7,67.5z M52.9,64.1c0-1-0.2-1.7-0.6-2.2c-0.4-0.5-0.8-0.8-1.4-0.8
		c-0.6,0-1.1,0.3-1.4,0.8c-0.4,0.5-0.6,1.3-0.6,2.2H52.9z"/>
	<path class="st3" d="M66.5,62.6l-2.6,0.6c-0.1-0.7-0.3-1.2-0.6-1.5c-0.3-0.3-0.7-0.5-1.2-0.5c-0.7,0-1.2,0.3-1.6,0.9
		s-0.6,1.6-0.6,2.9c0,1.5,0.2,2.6,0.6,3.2c0.4,0.6,0.9,0.9,1.6,0.9c0.5,0,0.9-0.2,1.2-0.5c0.3-0.4,0.6-1,0.7-1.9l2.6,0.6
		c-0.3,1.5-0.8,2.7-1.6,3.5s-1.8,1.2-3.1,1.2c-1.5,0-2.7-0.6-3.5-1.8c-0.9-1.2-1.3-2.8-1.3-4.9c0-2.1,0.4-3.8,1.3-4.9
		c0.9-1.2,2.1-1.8,3.6-1.8c1.2,0,2.2,0.3,2.9,1C65.7,60.2,66.2,61.2,66.5,62.6z"/>
	<path class="st3" d="M73.2,58.8v2.7h-1.8v5.2c0,1,0,1.7,0.1,1.8c0,0.2,0.1,0.3,0.2,0.4c0.1,0.1,0.3,0.2,0.5,0.2
		c0.2,0,0.6-0.1,1.1-0.3l0.2,2.6c-0.6,0.3-1.3,0.5-2.1,0.5c-0.5,0-0.9-0.1-1.3-0.3c-0.4-0.2-0.7-0.5-0.9-0.8
		c-0.2-0.3-0.3-0.8-0.4-1.3c-0.1-0.4-0.1-1.2-0.1-2.4v-5.6h-1.2v-2.7h1.2v-2.5l2.7-2v4.5H73.2z"/>
	<path class="st3" d="M74.4,65c0-1.1,0.2-2.2,0.7-3.3c0.4-1.1,1.1-1.9,1.9-2.4c0.8-0.6,1.7-0.8,2.7-0.8c1.5,0,2.8,0.6,3.8,1.9
		c1,1.3,1.5,2.8,1.5,4.8c0,1.9-0.5,3.5-1.5,4.8c-1,1.3-2.2,1.9-3.7,1.9c-0.9,0-1.8-0.3-2.6-0.8c-0.8-0.5-1.5-1.3-1.9-2.3
		S74.4,66.5,74.4,65z M77.1,65.2c0,1.3,0.2,2.2,0.7,2.9c0.5,0.7,1.1,1,1.8,1c0.7,0,1.3-0.3,1.8-1c0.5-0.7,0.7-1.7,0.7-2.9
		c0-1.3-0.2-2.2-0.7-2.9c-0.5-0.7-1.1-1-1.8-1c-0.7,0-1.3,0.3-1.8,1C77.4,63,77.1,63.9,77.1,65.2z"/>
	<path class="st3" d="M89.5,71.6h-2.7V58.8h2.5v1.8c0.4-0.9,0.8-1.4,1.1-1.7c0.3-0.3,0.7-0.4,1.2-0.4c0.6,0,1.2,0.2,1.8,0.6l-0.8,3
		c-0.5-0.4-0.9-0.6-1.3-0.6c-0.4,0-0.7,0.1-1,0.4c-0.3,0.3-0.5,0.7-0.6,1.4c-0.1,0.7-0.2,2.1-0.2,4.3V71.6z"/>
</g>
</svg>
