<?xml version="1.0" encoding="utf-8"?>
<!-- Generator: Adobe Illustrator 26.0.1, SVG Export Plug-In . SVG Version: 6.00 Build 0)  -->
<svg version="1.1" id="New_VCP" xmlns="http://www.w3.org/2000/svg" xmlns:xlink="http://www.w3.org/1999/xlink" x="0px" y="0px"
	 viewBox="0 0 100 100" style="enable-background:new 0 0 100 100;" xml:space="preserve">
<style type="text/css">
	.st0{fill:#FFFFFF;}
</style>
<path class="st0" d="M100,94c0,3.31-2.69,6-6,6H6c-3.31,0-6-2.69-6-6V6c0-3.31,2.69-6,6-6h88c3.31,0,6,2.69,6,6V94z"/>
<g>
	<path d="M45.62,48.2l5.54-5.54c0.19-0.2,0.41-0.36,0.64-0.5l21.37-21.36c1.17-1.17,3.08-1.17,4.24,0l5.54,5.54
		c1.17,1.16,1.17,3.07,0,4.24L63.13,50.39l19.02,19.02c1.17,1.17,1.17,3.08,0,4.24l-5.54,5.54c-1.17,1.17-3.07,1.17-4.24,0
		L45.62,52.44C44.45,51.27,44.45,49.37,45.62,48.2z"/>
	<path d="M13.05,48.2l5.54-5.54c0.19-0.2,0.41-0.36,0.64-0.5L40.6,20.81c1.17-1.17,3.08-1.17,4.24,0l5.54,5.54
		c1.17,1.16,1.17,3.07,0,4.24L30.56,50.39l19.02,19.02c1.17,1.17,1.17,3.08,0,4.24l-5.54,5.54c-1.17,1.17-3.07,1.17-4.24,0
		L13.05,52.44C11.88,51.27,11.88,49.37,13.05,48.2z"/>
</g>
</svg>
