<?xml version="1.0" encoding="utf-8"?>
<!-- Generator: Adobe Illustrator 24.0.2, SVG Export Plug-In . SVG Version: 6.00 Build 0)  -->
<svg version="1.1" id="New_VCP" xmlns="http://www.w3.org/2000/svg" xmlns:xlink="http://www.w3.org/1999/xlink" x="0px" y="0px"
	 width="100px" height="100px" viewBox="0 0 100 100" style="enable-background:new 0 0 100 100;" xml:space="preserve">
<style type="text/css">
	.st0{fill:#231F20;}
	.st1{font-family:'Arial-Black';}
	.st2{font-size:31.1991px;}
	.st3{fill:#FFC70E;}
	.st4{fill:none;stroke:#010101;stroke-width:5;stroke-miterlimit:10;}
</style>
<text transform="matrix(1.0143 1.521375e-04 -1.500000e-04 1 26.0283 61.2902)" class="st0 st1 st2">X-</text>
<path class="st3" d="M0,51.91l35.69,48.08L93.9,100c3.36,0,6.09-2.68,6.09-6L100,6.01c0-3.31-2.72-6-6.08-6L34.89,0L0,51.91z"/>
<line class="st4" x1="65.77" y1="50" x2="82.2" y2="50"/>
<text transform="matrix(1 0 0 1 155.9474 16.25)" class="st1" style="display:none; font-size:31px;">Z</text>
<g>
	<path d="M40.89,38.56h19.4v4.44L47.84,55.98h12.91v4.77H39.69v-4.6l12.33-12.85H40.89V38.56z"/>
</g>
</svg>
