<?xml version="1.0" encoding="utf-8"?>
<!-- Generator: Adobe Illustrator 26.0.3, SVG Export Plug-In . SVG Version: 6.00 Build 0)  -->
<svg version="1.1" id="New_VCP" xmlns="http://www.w3.org/2000/svg" xmlns:xlink="http://www.w3.org/1999/xlink" x="0px" y="0px"
	 viewBox="0 0 100 100" style="enable-background:new 0 0 100 100;" xml:space="preserve">
<style type="text/css">
	.st0{fill:#FFC70E;}
	.st1{fill:#231F20;}
</style>
<path class="st0" d="M51.9,100L100,64.3V6.1c0-3.4-2.7-6.1-6-6.1H6C2.7,0,0,2.7,0,6.1v59L51.9,100z"/>
<g>
	<path class="st1" d="M58.5,51.1h9V56h-9V51.1z"/>
	<g>
		<path d="M48.6,41.6h7.6v13.8c0,1.4-0.2,2.7-0.7,3.9c-0.5,1.2-1.2,2.3-2.1,3.2s-2,1.6-3.1,1.9c-1.5,0.5-3.3,0.8-5.3,0.8
			c-1.2,0-2.5-0.1-3.9-0.2c-1.4-0.2-2.6-0.5-3.6-0.9c-1-0.5-1.8-1.1-2.6-2s-1.3-1.8-1.6-2.7c-0.5-1.5-0.7-2.8-0.7-3.9V41.6h7.6v14.2
			c0,1.3,0.4,2.3,1.1,3c0.7,0.7,1.8,1.1,3.1,1.1c1.3,0,2.3-0.3,3.1-1.1s1.1-1.7,1.1-3V41.6z"/>
	</g>
</g>
</svg>
