<?xml version="1.0" encoding="utf-8"?>
<!-- Generator: Adobe Illustrator 27.0.0, SVG Export Plug-In . SVG Version: 6.00 Build 0)  -->
<svg version="1.1" id="New_VCP" xmlns="http://www.w3.org/2000/svg" xmlns:xlink="http://www.w3.org/1999/xlink" x="0px" y="0px"
	 viewBox="0 0 100 100" style="enable-background:new 0 0 100 100;" xml:space="preserve">
<style type="text/css">
	.st0{display:none;fill:#FFFFFF;}
	.st1{fill:#FFFFFF;stroke:#000000;stroke-miterlimit:10;}
	.st2{display:none;fill:#82151E;}
	.st3{fill:#ED1C24;}
	.st4{fill:#010101;}
</style>
<polygon class="st0" points="80.2,68.4 18.7,68 15.1,51.6 85.1,51.6 "/>
<path class="st1" d="M100,94c0,3.3-2.7,6-6,6H6c-3.3,0-6-2.7-6-6V6c0-3.3,2.7-6,6-6h88c3.3,0,6,2.7,6,6V94z"/>
<path class="st2" d="M34.3,2.2h-0.7H6.8c-2.5,0-4.6,2-4.6,4.4v25.9v1.8L34.3,2.2z"/>
<g>
	<path class="st3" d="M73.6,71.8c-0.5-10.5-9-19-19.5-19.5v-2.3h-2v2.3c-10.5,0.5-19,9-19.5,19.5h-2.3v2h2.3
		c0.5,10.5,9,19,19.5,19.5v2.2h2v-2.2c10.5-0.5,19-9,19.5-19.5h2.2v-2H73.6z M52.1,91.3c-9.4-0.5-17-8.1-17.5-17.5h17.5V91.3z
		 M52.1,71.8H34.5c0.5-9.4,8.1-17,17.5-17.5V71.8z M54.1,91.3V73.8h17.5C71.1,83.2,63.5,90.8,54.1,91.3z M54.1,71.8V54.2
		c9.4,0.5,17,8.1,17.5,17.5H54.1z"/>
</g>
<g>
	<path class="st4" d="M15.4,25.7h5.5v15h8.6v4.9H15.4V25.7z"/>
	<path class="st4" d="M36.2,35.8l-4.7-0.6c0.2-0.9,0.4-1.6,0.8-2.2c0.3-0.5,0.8-1,1.5-1.4c0.5-0.3,1.1-0.5,1.9-0.7
		c0.8-0.2,1.7-0.2,2.6-0.2c1.5,0,2.7,0.1,3.6,0.3c0.9,0.2,1.7,0.6,2.3,1.2c0.4,0.4,0.8,1,1,1.7c0.2,0.7,0.4,1.5,0.4,2.1v6.4
		c0,0.7,0,1.2,0.1,1.6c0.1,0.4,0.2,0.9,0.5,1.5h-4.7c-0.2-0.4-0.3-0.7-0.4-0.8c-0.1-0.2-0.1-0.5-0.2-0.9c-0.7,0.7-1.3,1.2-1.9,1.5
		c-0.9,0.4-1.9,0.6-3.1,0.6c-1.5,0-2.7-0.4-3.5-1.2c-0.8-0.8-1.2-1.8-1.2-2.9c0-1.1,0.3-2,0.9-2.7c0.6-0.7,1.6-1.2,3.2-1.6
		c1.9-0.4,3.1-0.7,3.6-0.9c0.6-0.2,1.1-0.4,1.8-0.7c0-0.7-0.1-1.2-0.4-1.4c-0.3-0.3-0.7-0.4-1.3-0.4c-0.8,0-1.4,0.1-1.8,0.4
		C36.7,34.7,36.4,35.2,36.2,35.8z M40.5,38.7c-0.7,0.3-1.4,0.5-2.1,0.7c-1,0.3-1.6,0.6-1.9,0.9c-0.3,0.3-0.4,0.6-0.4,1
		c0,0.4,0.1,0.8,0.4,1.1c0.3,0.3,0.7,0.4,1.2,0.4c0.6,0,1.1-0.1,1.5-0.4c0.5-0.3,0.8-0.7,1-1.1c0.2-0.4,0.3-1,0.3-1.7V38.7z"/>
	<path class="st4" d="M47.5,41.5l4.9-0.5c0.2,0.7,0.5,1.1,0.9,1.4s0.9,0.4,1.5,0.4c0.7,0,1.2-0.2,1.5-0.5c0.3-0.2,0.4-0.5,0.4-0.9
		c0-0.4-0.2-0.7-0.6-0.9c-0.3-0.2-1-0.3-2.1-0.6c-1.7-0.3-2.9-0.6-3.6-0.9c-0.7-0.3-1.2-0.8-1.7-1.4c-0.5-0.7-0.7-1.4-0.7-2.3
		c0-0.9,0.2-1.8,0.7-2.4c0.5-0.7,1.2-1.2,2-1.5c0.9-0.3,2-0.5,3.5-0.5s2.7,0.1,3.4,0.4s1.3,0.7,1.8,1.2c0.5,0.5,0.9,1.3,1.2,2.2
		l-4.7,0.5c-0.1-0.5-0.3-0.8-0.6-1c-0.4-0.3-0.9-0.4-1.4-0.4c-0.6,0-1,0.1-1.2,0.3c-0.3,0.2-0.4,0.5-0.4,0.8c0,0.4,0.2,0.6,0.5,0.8
		s1,0.3,2.1,0.5c1.7,0.2,2.9,0.5,3.7,0.9c0.8,0.4,1.4,0.9,1.8,1.6c0.4,0.7,0.6,1.4,0.6,2.3c0,0.8-0.2,1.6-0.7,2.4s-1.2,1.4-2.1,1.9
		c-1,0.5-2.3,0.7-4,0.7c-2.4,0-4.1-0.4-5.1-1.1C48.4,44,47.7,42.9,47.5,41.5z"/>
	<path class="st4" d="M78,39.7h-9.9c0.1,0.9,0.3,1.5,0.6,2c0.5,0.6,1.1,0.9,1.9,0.9c0.5,0,0.9-0.1,1.4-0.4c0.3-0.2,0.6-0.5,0.9-0.9
		l4.9,0.5c-0.7,1.4-1.6,2.5-2.7,3.1c-1.1,0.6-2.6,0.9-4.5,0.9c-1.7,0-3.1-0.3-4-0.8c-1-0.5-1.8-1.4-2.4-2.6c-0.6-1.2-1-2.5-1-4.1
		c0-2.2,0.6-4.1,1.9-5.5c1.3-1.4,3.1-2.1,5.4-2.1c1.9,0,3.3,0.3,4.4,0.9c1.1,0.6,1.9,1.5,2.4,2.7c0.6,1.2,0.8,2.7,0.8,4.6v0.8H78z
		 M72.9,37.1c-0.1-1.1-0.4-1.8-0.8-2.3s-1-0.7-1.7-0.7c-0.8,0-1.4,0.3-1.9,1c-0.3,0.4-0.5,1.1-0.6,1.9h5V37.1z"/>
	<path class="st4" d="M80.3,31.1h4.6v2.4c0.4-1,0.9-1.7,1.4-2.1c0.5-0.4,1.1-0.6,1.8-0.6c0.7,0,1.5,0.3,2.4,0.8L89,35.5
		c-0.6-0.3-1-0.4-1.4-0.4c-0.7,0-1.2,0.3-1.5,0.9c-0.5,0.8-0.8,2.4-0.8,4.7v4.8h-5C80.3,45.5,80.3,31.1,80.3,31.1z"/>
</g>
</svg>
