<?xml version="1.0" encoding="utf-8"?>
<!-- Generator: Adobe Illustrator 24.0.2, SVG Export Plug-In . SVG Version: 6.00 Build 0)  -->
<svg version="1.1" xmlns="http://www.w3.org/2000/svg" xmlns:xlink="http://www.w3.org/1999/xlink" x="0px" y="0px" width="100px"
	 height="100px" viewBox="0 0 100 100" style="enable-background:new 0 0 100 100;" xml:space="preserve">
<style type="text/css">
	.st0{fill:#FFC70E;}
	.st1{display:none;}
	.st2{display:inline;fill:#231F20;}
	.st3{fill:#231F20;}
</style>
<g id="New_VCP">
	<g>
		<path class="st0" d="M48.08,0L0,35.7v58.21C0,97.27,2.69,100,6,100h88c3.31,0,6-2.73,6-6.09V34.88L48.08,0z"/>
		<g class="st1">
			<path class="st2" d="M55.99,48.27h5.84v-5.95h4.92v5.95h5.87v4.99h-5.87v5.92h-4.92v-5.92h-5.84V48.27z"/>
		</g>
	</g>
	<g>
		<path d="M32.01,39.06h7.55l3.93,6.83l3.82-6.83h7.48l-6.91,10.75l7.56,11.44h-7.7l-4.38-7.13l-4.38,7.13h-7.66l7.65-11.56
			L32.01,39.06z"/>
	</g>
	<g>
		<path class="st3" d="M56.37,47.82h11v4.87h-11V47.82z"/>
	</g>
</g>
<g id="Layer_5">
</g>
</svg>
