<svg id="New_VCP" data-name="New VCP" xmlns="http://www.w3.org/2000/svg" width="100" height="100" viewBox="0 0 100 100">
  <title>m58</title>
  <rect width="100" height="100" rx="6" style="fill: #252d6b"/>
  <text transform="translate(21.79 58.83)" style="font-size: 32.32002639770508px;fill: #fff;font-family: Arial-BoldMT, Arial;font-weight: 700">M58</text>
  <g>
    <path d="M24.08,58.83V35.69h7l4.2,15.78,4.15-15.78h7V58.83H42.09V40.62l-4.6,18.21H33L28.42,40.62V58.83Z" style="fill: #fff"/>
    <path d="M50.15,52.88l4.42-.46a3.84,3.84,0,0,0,1.12,2.38,3.06,3.06,0,0,0,2.15.87,3,3,0,0,0,2.35-1.13,5.13,5.13,0,0,0,1-3.4A4.68,4.68,0,0,0,60.2,48a3.2,3.2,0,0,0-2.49-1.07,4.53,4.53,0,0,0-3.42,1.69l-3.6-.52L53,36H64.69v4.15H56.32l-.69,3.93a6.77,6.77,0,0,1,3-.74,6.65,6.65,0,0,1,5,2.14,7.72,7.72,0,0,1,2,5.57,8.31,8.31,0,0,1-1.66,5.1,7.34,7.34,0,0,1-6.26,3.06,7.73,7.73,0,0,1-5.22-1.72A7,7,0,0,1,50.15,52.88Z" style="fill: #fff"/>
    <path d="M71.87,46.35a5,5,0,0,1-3.29-4.79,5.6,5.6,0,0,1,1.81-4.27,7.24,7.24,0,0,1,5.14-1.69,7.24,7.24,0,0,1,5.12,1.69,5.58,5.58,0,0,1,1.82,4.27,5.11,5.11,0,0,1-.83,2.87,5.37,5.37,0,0,1-2.36,1.92,6.13,6.13,0,0,1,2.93,2.25,6,6,0,0,1,1,3.43,7,7,0,0,1-2,5.21,7.44,7.44,0,0,1-5.44,2,8.18,8.18,0,0,1-5.25-1.66A6.46,6.46,0,0,1,68,52.22a6.64,6.64,0,0,1,.93-3.45A5.93,5.93,0,0,1,71.87,46.35Zm.5,5.44a4.08,4.08,0,0,0,.94,2.86,3.06,3.06,0,0,0,2.34,1,3,3,0,0,0,2.28-1,4.09,4.09,0,0,0,.9-2.85,3.66,3.66,0,0,0-.92-2.61,3,3,0,0,0-2.32-1,2.76,2.76,0,0,0-2.42,1.12A4.13,4.13,0,0,0,72.37,51.79Zm.41-9.91A2.8,2.8,0,0,0,73.53,44a3.08,3.08,0,0,0,4,0,2.81,2.81,0,0,0,.76-2.08,2.58,2.58,0,0,0-2.73-2.74,2.72,2.72,0,0,0-2,.76A2.68,2.68,0,0,0,72.78,41.88Z" style="fill: #fff"/>
  </g>
</svg>
