<?xml version="1.0" encoding="utf-8"?>
<!-- Generator: Adobe Illustrator 24.0.2, SVG Export Plug-In . SVG Version: 6.00 Build 0)  -->
<svg version="1.1" id="New_VCP" xmlns="http://www.w3.org/2000/svg" xmlns:xlink="http://www.w3.org/1999/xlink" x="0px" y="0px"
	 width="100px" height="100px" viewBox="0 0 100 100" style="enable-background:new 0 0 100 100;" xml:space="preserve">
<style type="text/css">
	.st0{fill:#252D6B;}
	.st1{display:none;fill:#82151E;}
	.st2{fill:#FFFFFF;}
</style>
<path class="st0" d="M100,94c0,3.3-2.7,6-6,6H6c-3.3,0-6-2.7-6-6V6c0-3.3,2.7-6,6-6h88c3.3,0,6,2.7,6,6V94z"/>
<path class="st1" d="M35.1,3h-0.7H7.6C5.1,3,3,5,3,7.4v25.9v1.8L35.1,3z"/>
<g>
	<g>
		<path class="st2" d="M35.8,42.9h-3.5l-1.4-4h-6.3l-1.3,4H20l6.1-17.5h3.4L35.8,42.9z M29.9,36l-2.2-6.5L25.6,36H29.9z"/>
		<path class="st2" d="M35.9,42.9l5.4-9.2l-4.9-8.4h3.7l3.2,5.6l3.1-5.6h3.7l-4.9,8.5l5.4,9h-3.8l-3.5-6.1l-3.5,6.1H35.9z"/>
		<path class="st2" d="M52.2,42.9V25.4h11.7v3h-8.5v3.9h7.9v3h-7.9V40h8.8v3H52.2z"/>
		<path class="st2" d="M66.1,37.2l3.1-0.3c0.2,1.2,0.6,2,1.1,2.5c0.6,0.5,1.3,0.8,2.3,0.8c1,0,1.8-0.2,2.3-0.7
			c0.5-0.5,0.8-1,0.8-1.7c0-0.4-0.1-0.8-0.3-1.1s-0.6-0.5-1.1-0.8c-0.4-0.1-1.2-0.4-2.6-0.8c-1.7-0.5-2.9-1-3.6-1.7
			c-1-1-1.5-2.1-1.5-3.5c0-0.9,0.2-1.7,0.7-2.5s1.1-1.4,2-1.8c0.9-0.4,1.9-0.6,3.1-0.6c2,0,3.5,0.5,4.5,1.4c1,1,1.5,2.3,1.6,3.9
			l-3.2,0.2c-0.1-0.9-0.4-1.5-0.9-1.9c-0.4-0.4-1.1-0.6-2-0.6c-0.9,0-1.7,0.2-2.2,0.6c-0.3,0.3-0.5,0.6-0.5,1.1
			c0,0.4,0.2,0.8,0.5,1.1c0.4,0.4,1.4,0.8,2.9,1.2c1.6,0.4,2.7,0.8,3.4,1.3c0.7,0.4,1.3,1,1.7,1.8s0.6,1.7,0.6,2.8
			c0,1-0.3,1.9-0.8,2.8c-0.5,0.9-1.2,1.5-2.1,2c-0.9,0.4-2.1,0.6-3.4,0.6c-2,0-3.5-0.5-4.6-1.5C67,40.7,66.3,39.2,66.1,37.2z"/>
		<path class="st2" d="M10.8,68.9V51.3h5.1c1.9,0,3.2,0.1,3.8,0.3c0.9,0.3,1.7,0.8,2.3,1.7c0.6,0.9,0.9,2,0.9,3.4
			c0,1.1-0.2,2-0.5,2.7c-0.4,0.7-0.8,1.3-1.3,1.7c-0.5,0.4-1.1,0.7-1.7,0.8c-0.8,0.2-1.9,0.3-3.3,0.3H14v6.6H10.8z M14,54.3v5h1.7
			c1.3,0,2.1-0.1,2.5-0.3s0.8-0.5,1-0.9c0.2-0.4,0.4-0.8,0.4-1.4c0-0.6-0.2-1.2-0.5-1.6c-0.3-0.4-0.8-0.7-1.3-0.8
			c-0.4-0.1-1.1-0.1-2.3-0.1H14z"/>
		<path class="st2" d="M38.1,68.9h-3.5l-1.4-4h-6.3l-1.3,4h-3.4l6.1-17.5h3.4L38.1,68.9z M32.2,61.9L30,55.4l-2.1,6.5H32.2z"/>
		<path class="st2" d="M39.7,68.9V51.3h3.2v17.5H39.7z"/>
		<path class="st2" d="M45.9,68.9V51.3h6.7c1.7,0,2.9,0.2,3.7,0.5c0.8,0.3,1.4,0.9,1.8,1.7c0.5,0.8,0.7,1.7,0.7,2.8
			c0,1.3-0.3,2.4-1,3.3s-1.7,1.4-3.1,1.6c0.7,0.4,1.3,0.9,1.7,1.5c0.4,0.5,1.1,1.5,1.8,2.8l1.9,3.4h-3.8L54,65.1
			c-0.8-1.4-1.4-2.2-1.7-2.6c-0.3-0.4-0.6-0.6-1-0.7c-0.3-0.1-0.9-0.2-1.6-0.2h-0.6v7.3H45.9z M49.1,58.7h2.4c1.5,0,2.5-0.1,2.9-0.2
			c0.4-0.1,0.7-0.4,0.9-0.7c0.2-0.3,0.3-0.8,0.3-1.3c0-0.6-0.1-1.1-0.4-1.4c-0.3-0.4-0.7-0.6-1.2-0.7c-0.3,0-1-0.1-2.3-0.1h-2.5
			V58.7z"/>
		<path class="st2" d="M61.8,68.9V51.3h11.7v3H65v3.9h7.9v3H65v4.8h8.8v3H61.8z"/>
		<path class="st2" d="M76.5,51.3h5.8c1.3,0,2.3,0.1,3,0.3c0.9,0.3,1.7,0.8,2.4,1.6c0.7,0.8,1.2,1.7,1.5,2.8
			c0.3,1.1,0.5,2.5,0.5,4.1c0,1.4-0.2,2.7-0.5,3.7c-0.4,1.3-1,2.3-1.7,3.1c-0.6,0.6-1.3,1.1-2.2,1.4c-0.7,0.2-1.6,0.4-2.8,0.4h-6
			V51.3z M79.7,54.3v11.6h2.4c0.9,0,1.5-0.1,1.9-0.2c0.5-0.1,0.9-0.4,1.3-0.7c0.3-0.3,0.6-0.9,0.8-1.7c0.2-0.8,0.3-1.9,0.3-3.2
			s-0.1-2.4-0.3-3.1c-0.2-0.7-0.5-1.3-0.9-1.7c-0.4-0.4-0.9-0.7-1.5-0.8c-0.4-0.1-1.3-0.2-2.6-0.2H79.7z"/>
	</g>
</g>
</svg>
