<?xml version="1.0" encoding="utf-8"?>
<!-- Generator: Adobe Illustrator 26.0.1, SVG Export Plug-In . SVG Version: 6.00 Build 0)  -->
<svg version="1.1" id="New_VCP" xmlns="http://www.w3.org/2000/svg" xmlns:xlink="http://www.w3.org/1999/xlink" x="0px" y="0px"
	 viewBox="0 0 100 100" style="enable-background:new 0 0 100 100;" xml:space="preserve">
<style type="text/css">
	.st0{fill:#FFC812;}
	.st1{fill:#55A3D9;}
	.st2{fill:url(#SVGID_1_);}
	.st3{fill:url(#SVGID_00000065061166919666747690000001324658015562758031_);}
</style>
<path class="st0" d="M88,100H12c-6.6,0-12-5.4-12-12V12C0,5.4,5.4,0,12,0h76c6.6,0,12,5.4,12,12v76C100,94.6,94.6,100,88,100z"/>
<g>
	<path d="M30.17,26.95H41.2v3.26h-3.7v9.95h-3.63v-9.95h-3.7V26.95z"/>
	<path d="M41.82,33.56c0-2.16,0.53-3.84,1.6-5.04c1.07-1.2,2.55-1.8,4.46-1.8c1.95,0,3.46,0.59,4.51,1.77
		c1.06,1.18,1.59,2.83,1.59,4.96c0,1.54-0.23,2.81-0.69,3.8c-0.46,0.99-1.13,1.76-2,2.31c-0.87,0.55-1.96,0.83-3.26,0.83
		c-1.32,0-2.42-0.24-3.29-0.71s-1.57-1.23-2.11-2.25C42.09,36.39,41.82,35.11,41.82,33.56z M45.45,33.58c0,1.33,0.22,2.29,0.66,2.88
		c0.44,0.58,1.04,0.87,1.8,0.87c0.78,0,1.38-0.29,1.81-0.86c0.43-0.57,0.64-1.6,0.64-3.07c0-1.24-0.22-2.15-0.67-2.73
		c-0.45-0.57-1.05-0.86-1.81-0.86c-0.73,0-1.32,0.29-1.76,0.87C45.67,31.27,45.45,32.23,45.45,33.58z"/>
	<path d="M55.98,40.16V26.95h6.04c1.12,0,1.98,0.11,2.57,0.32c0.59,0.22,1.07,0.62,1.43,1.2c0.36,0.59,0.54,1.3,0.54,2.14
		c0,0.73-0.14,1.37-0.42,1.9c-0.28,0.53-0.66,0.96-1.15,1.29c-0.31,0.21-0.73,0.38-1.27,0.52c0.43,0.16,0.75,0.33,0.94,0.49
		c0.13,0.11,0.33,0.34,0.58,0.69c0.25,0.35,0.42,0.63,0.51,0.82l1.76,3.83h-4.1l-1.94-4.04c-0.25-0.52-0.46-0.86-0.66-1.02
		c-0.26-0.2-0.56-0.31-0.89-0.31h-0.32v5.36H55.98z M59.62,32.3h1.53c0.17,0,0.49-0.06,0.96-0.18c0.24-0.05,0.44-0.19,0.59-0.41
		c0.15-0.22,0.23-0.48,0.23-0.77c0-0.43-0.12-0.75-0.36-0.98c-0.24-0.23-0.69-0.34-1.35-0.34h-1.59V32.3z"/>
	<path d="M76.2,34.75l3.18,1.08c-0.21,1-0.55,1.84-1.01,2.52c-0.46,0.67-1.03,1.18-1.71,1.52c-0.68,0.34-1.55,0.51-2.6,0.51
		c-1.28,0-2.32-0.21-3.12-0.63c-0.81-0.42-1.51-1.15-2.09-2.2c-0.59-1.05-0.88-2.4-0.88-4.04c0-2.19,0.52-3.87,1.55-5.04
		c1.03-1.17,2.49-1.76,4.38-1.76c1.48,0,2.64,0.34,3.49,1.01c0.85,0.67,1.47,1.71,1.88,3.1l-3.2,0.8c-0.11-0.4-0.23-0.7-0.35-0.88
		c-0.2-0.31-0.45-0.55-0.74-0.72c-0.29-0.17-0.62-0.25-0.99-0.25c-0.82,0-1.45,0.37-1.89,1.12c-0.33,0.55-0.5,1.42-0.5,2.6
		c0,1.46,0.2,2.47,0.59,3.01c0.39,0.54,0.95,0.81,1.66,0.81c0.69,0,1.22-0.22,1.57-0.66C75.78,36.22,76.04,35.59,76.2,34.75z"/>
	<path d="M81.15,26.95h3.63v4.62h3.96v-4.62h3.64v13.22h-3.64v-5.35h-3.96v5.35h-3.63V26.95z"/>
	<path d="M38.81,52.19l3.18,1.08c-0.21,1-0.55,1.84-1.01,2.52c-0.46,0.67-1.03,1.18-1.71,1.52c-0.68,0.34-1.55,0.51-2.6,0.51
		c-1.28,0-2.32-0.21-3.13-0.63c-0.81-0.42-1.51-1.15-2.09-2.2s-0.88-2.4-0.88-4.04c0-2.19,0.52-3.87,1.55-5.04
		c1.03-1.17,2.49-1.76,4.38-1.76c1.48,0,2.64,0.34,3.49,1.01c0.85,0.67,1.47,1.71,1.89,3.1l-3.2,0.8c-0.11-0.4-0.23-0.7-0.35-0.88
		c-0.2-0.31-0.45-0.55-0.74-0.72c-0.29-0.17-0.62-0.25-0.98-0.25c-0.82,0-1.45,0.37-1.89,1.12c-0.33,0.55-0.5,1.42-0.5,2.6
		c0,1.46,0.2,2.47,0.59,3.01s0.95,0.81,1.67,0.81c0.69,0,1.22-0.22,1.57-0.66C38.39,53.66,38.65,53.02,38.81,52.19z"/>
	<path d="M43.77,44.38h3.63v4.62h3.96v-4.62H55V57.6h-3.64v-5.35h-3.96v5.35h-3.63V44.38z"/>
	<path d="M57.4,44.38h9.72v2.82h-6.08v2.1h5.64V52h-5.64v2.61h6.26v2.99H57.4V44.38z"/>
	<path d="M77.05,52.19l3.18,1.08c-0.21,1-0.55,1.84-1.01,2.52c-0.46,0.67-1.03,1.18-1.71,1.52c-0.68,0.34-1.55,0.51-2.6,0.51
		c-1.28,0-2.32-0.21-3.12-0.63c-0.81-0.42-1.51-1.15-2.09-2.2c-0.59-1.05-0.88-2.4-0.88-4.04c0-2.19,0.52-3.87,1.55-5.04
		c1.03-1.17,2.49-1.76,4.38-1.76c1.48,0,2.64,0.34,3.49,1.01c0.85,0.67,1.47,1.71,1.88,3.1l-3.2,0.8c-0.11-0.4-0.23-0.7-0.35-0.88
		c-0.2-0.31-0.45-0.55-0.74-0.72c-0.29-0.17-0.62-0.25-0.99-0.25c-0.82,0-1.45,0.37-1.89,1.12c-0.33,0.55-0.5,1.42-0.5,2.6
		c0,1.46,0.2,2.47,0.59,3.01c0.39,0.54,0.95,0.81,1.66,0.81c0.69,0,1.22-0.22,1.57-0.66C76.64,53.66,76.89,53.02,77.05,52.19z"/>
	<path d="M82.01,44.38h3.63v4.99l3.8-4.99h4.82l-4.28,4.99l4.47,8.23h-4.47l-2.47-5.43l-1.87,2.21v3.22h-3.63V44.38z"/>
</g>
<g>
	<g>
		<ellipse class="st1" cx="0" cy="64.91" rx="8.05" ry="20.09"/>
		
			<radialGradient id="SVGID_1_" cx="171.6792" cy="45.5228" r="12.1591" gradientTransform="matrix(1.1681 0 0 1.0891 -200.5369 15.7919)" gradientUnits="userSpaceOnUse">
			<stop  offset="0" style="stop-color:#FFFFFF"/>
			<stop  offset="0.2128" style="stop-color:#FAFBFE"/>
			<stop  offset="0.3707" style="stop-color:#EFF3FB"/>
			<stop  offset="0.5109" style="stop-color:#DEE9F6"/>
			<stop  offset="0.6409" style="stop-color:#C7DBF1"/>
			<stop  offset="0.7637" style="stop-color:#A9CAEA"/>
			<stop  offset="0.8813" style="stop-color:#85B7E3"/>
			<stop  offset="0.9927" style="stop-color:#59A4DA"/>
			<stop  offset="1" style="stop-color:#55A3D9"/>
		</radialGradient>
		<ellipse class="st2" cx="0" cy="65.37" rx="6.37" ry="17.76"/>
	</g>
	
		<linearGradient id="SVGID_00000068651237957523317670000007611496609671207071_" gradientUnits="userSpaceOnUse" x1="-18" y1="34.1399" x2="18" y2="34.1399">
		<stop  offset="0" style="stop-color:#BD7B2A"/>
		<stop  offset="0.0259" style="stop-color:#BE7E2D"/>
		<stop  offset="0.0609" style="stop-color:#C28437"/>
		<stop  offset="0.101" style="stop-color:#C8904B"/>
		<stop  offset="0.1451" style="stop-color:#D0A169"/>
		<stop  offset="0.1924" style="stop-color:#DCBA90"/>
		<stop  offset="0.2414" style="stop-color:#ECDBC5"/>
		<stop  offset="0.2793" style="stop-color:#FFFFFF"/>
		<stop  offset="0.3119" style="stop-color:#EEDCCB"/>
		<stop  offset="0.3506" style="stop-color:#E3C1A2"/>
		<stop  offset="0.3934" style="stop-color:#D9AA80"/>
		<stop  offset="0.4393" style="stop-color:#D09867"/>
		<stop  offset="0.4892" style="stop-color:#CA8951"/>
		<stop  offset="0.5444" style="stop-color:#C57E40"/>
		<stop  offset="0.6072" style="stop-color:#C17634"/>
		<stop  offset="0.6822" style="stop-color:#BF712D"/>
		<stop  offset="0.7813" style="stop-color:#BD6D29"/>
		<stop  offset="1" style="stop-color:#BD6D29"/>
	</linearGradient>
	<polygon style="fill:url(#SVGID_00000068651237957523317670000007611496609671207071_);" points="6.63,53.28 18,47.79 18,15 
		-18,15 -18,47.79 -6.63,53.28 	"/>
</g>
<polygon points="31.5,36.36 24.59,36.36 24.58,45.71 24.58,67.41 11.06,67.41 11.06,47.9 11.07,45.71 11.09,36.36 4.5,36.36 
	17.68,21.93 "/>
<rect x="11.06" y="80.75" width="13.52" height="5.78"/>
<rect x="11.06" y="68.32" width="13.52" height="11.52"/>
</svg>
