<?xml version="1.0" encoding="utf-8"?>
<!-- Generator: Adobe Illustrator 24.0.2, SVG Export Plug-In . SVG Version: 6.00 Build 0)  -->
<svg version="1.1" id="New_VCP" xmlns="http://www.w3.org/2000/svg" xmlns:xlink="http://www.w3.org/1999/xlink" x="0px" y="0px"
	 width="100px" height="100px" viewBox="0 0 100 100" style="enable-background:new 0 0 100 100;" xml:space="preserve">
<style type="text/css">
	.st0{fill:#262C6B;}
	.st1{display:none;fill:#82151E;}
	.st2{display:none;}
	.st3{display:inline;fill:#FFFFFF;}
	.st4{display:inline;}
	.st5{fill:#FFFFFF;}
	.st6{font-family:'Arial-Black';}
	.st7{font-size:23.3818px;}
	.st8{font-size:26.4994px;}
</style>
<path class="st0" d="M100,94c0,3.3-2.7,6-6,6H6c-3.3,0-6-2.7-6-6V6c0-3.3,2.7-6,6-6h88c3.3,0,6,2.7,6,6V94z"/>
<path class="st1" d="M35.1,3h-0.7H7.6C5.1,3,3,5,3,7.4v25.9v1.8L35.1,3z"/>
<g class="st2">
	<path class="st3" d="M24.1,58.8V35.7h7l4.2,15.8l4.2-15.8h7v23.1h-4.3V40.6l-4.6,18.2H33l-4.6-18.2v18.2H24.1z"/>
	<path class="st3" d="M50.2,52.9l4.4-0.5c0.1,1,0.5,1.8,1.1,2.4c0.6,0.6,1.3,0.9,2.1,0.9c0.9,0,1.7-0.4,2.3-1.1c0.6-0.8,1-1.9,1-3.4
		c0-1.4-0.3-2.5-1-3.2c-0.6-0.7-1.5-1.1-2.5-1.1c-1.3,0-2.4,0.6-3.4,1.7l-3.6-0.5L53,36h11.7v4.2h-8.4l-0.7,3.9c1-0.5,2-0.7,3-0.7
		c2,0,3.6,0.7,5,2.1s2.1,3.3,2.1,5.6c0,1.9-0.6,3.6-1.7,5.1c-1.5,2-3.6,3.1-6.3,3.1c-2.1,0-3.9-0.6-5.2-1.7
		C51.2,56.4,50.4,54.8,50.2,52.9z"/>
	<path class="st3" d="M68.1,52.9l4.4-0.5c0.1,1,0.5,1.8,1.1,2.4c0.6,0.6,1.3,0.9,2.1,0.9c0.9,0,1.7-0.4,2.4-1.1c0.6-0.8,1-1.9,1-3.4
		c0-1.4-0.3-2.5-1-3.2c-0.6-0.7-1.5-1.1-2.5-1.1c-1.3,0-2.4,0.6-3.4,1.7l-3.6-0.5l2.3-12h11.7v4.2h-8.4l-0.7,3.9c1-0.5,2-0.7,3-0.7
		c2,0,3.6,0.7,5,2.1c1.4,1.4,2.1,3.3,2.1,5.6c0,1.9-0.6,3.6-1.7,5.1c-1.5,2-3.6,3.1-6.3,3.1c-2.1,0-3.9-0.6-5.2-1.7
		C69.2,56.4,68.4,54.8,68.1,52.9z"/>
</g>
<text transform="matrix(1 0 0 1 142.8542 49.9997)" style="display:none;fill:#FFFFFF; font-family:'Arial-BoldMT'; font-size:32.32px;">M55</text>
<g class="st2">
	<text transform="matrix(0.9 0 0 1.1 15.0444 43.1226)" class="st4"><tspan x="0" y="0" class="st5 st6 st7">P</tspan><tspan x="16.3" y="0" class="st5 st6 st7">opUp</tspan><tspan x="5.9" y="26.9" class="st5 st6 st8">PINS</tspan></text>
</g>
<g>
	<g>
		<path class="st5" d="M29.7,33.7V17.2h3.1v6.5h6.1v-6.5H42v16.5h-3.1v-7.2h-6.1v7.2H29.7z"/>
		<path class="st5" d="M44.5,27.5c0-1.1,0.2-2.1,0.7-3.1s1.2-1.7,2.1-2.3c0.9-0.5,1.9-0.8,3-0.8c1.7,0,3.1,0.6,4.1,1.8
			c1.1,1.2,1.6,2.7,1.6,4.5c0,1.8-0.5,3.3-1.6,4.5c-1.1,1.2-2.5,1.8-4.1,1.8c-1,0-2-0.2-2.9-0.7c-0.9-0.5-1.6-1.2-2.1-2.2
			S44.5,28.9,44.5,27.5z M47.5,27.7c0,1.2,0.3,2.1,0.8,2.7c0.5,0.6,1.2,0.9,1.9,0.9s1.4-0.3,1.9-0.9c0.5-0.6,0.8-1.5,0.8-2.8
			c0-1.2-0.3-2.1-0.8-2.7C51.7,24.3,51,24,50.3,24s-1.4,0.3-1.9,0.9C47.8,25.6,47.5,26.5,47.5,27.7z"/>
		<path class="st5" d="M58.3,33.7V17.2h3v16.5H58.3z"/>
		<path class="st5" d="M74.5,33.7h-2.7v-1.8c-0.5,0.7-1,1.2-1.6,1.5c-0.6,0.3-1.2,0.5-1.9,0.5c-1.3,0-2.4-0.6-3.3-1.7
			c-0.9-1.1-1.4-2.7-1.4-4.6c0-2,0.4-3.6,1.3-4.6c0.9-1.1,2-1.6,3.4-1.6c1.2,0,2.3,0.6,3.2,1.7v-6h3V33.7z M66.6,27.5
			c0,1.3,0.2,2.2,0.5,2.8c0.5,0.8,1.1,1.2,2,1.2c0.7,0,1.3-0.3,1.7-0.9c0.5-0.6,0.7-1.5,0.7-2.8c0-1.4-0.2-2.4-0.7-3
			c-0.5-0.6-1.1-0.9-1.8-0.9c-0.7,0-1.3,0.3-1.8,0.9C66.9,25.4,66.6,26.3,66.6,27.5z"/>
		<path class="st5" d="M24.3,38.7H30c1.3,0,2.3,0.1,2.9,0.3c0.9,0.3,1.7,0.8,2.3,1.5c0.6,0.7,1.1,1.6,1.5,2.7s0.5,2.4,0.5,3.9
			c0,1.4-0.2,2.5-0.5,3.5c-0.4,1.2-0.9,2.2-1.6,2.9c-0.5,0.6-1.3,1-2.2,1.3c-0.7,0.2-1.6,0.3-2.8,0.3h-5.8V38.7z M27.4,41.5v11h2.3
			c0.9,0,1.5-0.1,1.9-0.2c0.5-0.1,0.9-0.4,1.3-0.7c0.3-0.3,0.6-0.9,0.8-1.6s0.3-1.8,0.3-3s-0.1-2.3-0.3-2.9
			c-0.2-0.7-0.5-1.2-0.9-1.6c-0.4-0.4-0.9-0.6-1.4-0.8c-0.4-0.1-1.3-0.2-2.6-0.2H27.4z"/>
		<path class="st5" d="M39.1,49.1c0-1.1,0.2-2.1,0.7-3.1s1.2-1.7,2.1-2.3c0.9-0.5,1.9-0.8,3-0.8c1.7,0,3.1,0.6,4.1,1.8
			c1.1,1.2,1.6,2.7,1.6,4.5c0,1.8-0.5,3.3-1.6,4.5c-1.1,1.2-2.5,1.8-4.1,1.8c-1,0-2-0.2-2.9-0.7c-0.9-0.5-1.6-1.2-2.1-2.2
			C39.4,51.7,39.1,50.5,39.1,49.1z M42.2,49.3c0,1.2,0.3,2.1,0.8,2.7c0.5,0.6,1.2,0.9,1.9,0.9s1.4-0.3,1.9-0.9s0.8-1.5,0.8-2.8
			c0-1.2-0.3-2.1-0.8-2.7c-0.5-0.6-1.2-0.9-1.9-0.9s-1.4,0.3-1.9,0.9C42.4,47.2,42.2,48.1,42.2,49.3z"/>
		<path class="st5" d="M55,55.3l-3.5-12h2.9l2.1,7.9l1.9-7.9h2.8l1.9,7.9l2.1-7.9h2.9l-3.6,12h-2.8l-1.9-7.7l-1.9,7.7H55z"/>
		<path class="st5" d="M79.8,55.3h-3v-6.1c0-1.3-0.1-2.1-0.2-2.5s-0.3-0.7-0.6-0.9c-0.3-0.2-0.6-0.3-1-0.3c-0.5,0-1,0.2-1.4,0.5
			c-0.4,0.3-0.7,0.7-0.8,1.2c-0.2,0.5-0.2,1.4-0.2,2.8v5.4h-3v-12h2.7v1.8c1-1.4,2.2-2,3.7-2c0.7,0,1.2,0.1,1.8,0.4
			c0.5,0.3,0.9,0.6,1.2,1c0.3,0.4,0.5,0.8,0.6,1.3c0.1,0.5,0.2,1.2,0.2,2.1V55.3z"/>
	</g>
	<g>
		<path class="st5" d="M25.8,63.9h5.6l3.9,14.8l3.9-14.8h5.5l-6.5,20.6h-5.8L25.8,63.9z"/>
		<path class="st5" d="M54.6,81.2h-6.1l-0.9,3.4h-5.5l6.6-20.6h5.9l6.6,20.6h-5.6L54.6,81.2z M53.4,76.7l-1.9-7.4l-1.9,7.4H53.4z"/>
		<path class="st5" d="M72.7,76.1l4.7,1.7c-0.3,1.6-0.8,2.9-1.5,3.9c-0.7,1.1-1.5,1.8-2.5,2.4c-1,0.5-2.3,0.8-3.9,0.8
			c-1.9,0-3.4-0.3-4.6-1c-1.2-0.7-2.2-1.8-3.1-3.4c-0.9-1.6-1.3-3.7-1.3-6.3c0-3.4,0.8-6,2.3-7.9s3.7-2.7,6.5-2.7
			c2.2,0,3.9,0.5,5.2,1.6c1.3,1.1,2.2,2.7,2.8,4.8l-4.8,1.3c-0.2-0.6-0.3-1.1-0.5-1.4c-0.3-0.5-0.7-0.9-1.1-1.1
			c-0.4-0.3-0.9-0.4-1.5-0.4c-1.2,0-2.2,0.6-2.8,1.7c-0.5,0.9-0.7,2.2-0.7,4.1c0,2.3,0.3,3.9,0.9,4.7s1.4,1.3,2.5,1.3
			c1,0,1.8-0.3,2.3-1C72.1,78.4,72.5,77.4,72.7,76.1z"/>
	</g>
</g>
</svg>
