<?xml version="1.0" encoding="utf-8"?>
<!-- Generator: Adobe Illustrator 24.0.2, SVG Export Plug-In . SVG Version: 6.00 Build 0)  -->
<svg version="1.1" id="New_VCP" xmlns="http://www.w3.org/2000/svg" xmlns:xlink="http://www.w3.org/1999/xlink" x="0px" y="0px"
	 viewBox="0 0 140 100" style="enable-background:new 0 0 140 100;" xml:space="preserve">
<style type="text/css">
	.st0{display:none;fill:#82151E;}
	.st1{fill:#252D6B;}
	.st2{fill:#FFFFFF;}
</style>
<path class="st0" d="M35.09,3h-0.69H7.59C5.06,3,3,4.99,3,7.45v25.87v1.77L35.09,3z"/>
<path class="st1" d="M134,100H6c-3.3,0-6-2.7-6-6V6c0-3.3,2.7-6,6-6h128c3.3,0,6,2.7,6,6v88C140,97.3,137.3,100,134,100z"/>
<g>
	<g>
		<path class="st2" d="M50.64,43.47l-6.51-20.04h3.99l4.61,14.83l4.46-14.83h3.9l-6.52,20.04H50.64z"/>
		<path class="st2" d="M74.61,36.1l3.57,1.24c-0.55,2.19-1.45,3.81-2.73,4.87c-1.27,1.06-2.88,1.59-4.84,1.59
			c-2.42,0-4.41-0.91-5.96-2.73c-1.56-1.82-2.34-4.3-2.34-7.46c0-3.34,0.78-5.92,2.35-7.77c1.56-1.85,3.62-2.77,6.17-2.77
			c2.23,0,4.04,0.73,5.43,2.17c0.83,0.86,1.45,2.09,1.86,3.69l-3.64,0.96c-0.22-1.04-0.67-1.86-1.35-2.46
			c-0.68-0.6-1.51-0.9-2.49-0.9c-1.35,0-2.45,0.53-3.29,1.6c-0.84,1.07-1.26,2.79-1.26,5.18c0,2.53,0.41,4.34,1.24,5.41
			c0.83,1.08,1.9,1.61,3.23,1.61c0.98,0,1.82-0.34,2.52-1.02C73.8,38.65,74.31,37.57,74.61,36.1z"/>
		<path class="st2" d="M81.34,43.47V23.44h5.9c2.24,0,3.69,0.1,4.37,0.3c1.04,0.3,1.92,0.96,2.62,1.96c0.7,1.01,1.06,2.31,1.06,3.9
			c0,1.23-0.2,2.27-0.61,3.1c-0.41,0.84-0.92,1.5-1.55,1.98s-1.26,0.8-1.91,0.95c-0.88,0.19-2.15,0.29-3.81,0.29h-2.4v7.56H81.34z
			 M85.01,26.83v5.69h2.01c1.45,0,2.42-0.11,2.91-0.31c0.49-0.21,0.87-0.54,1.15-0.98c0.28-0.45,0.42-0.96,0.42-1.56
			c0-0.73-0.19-1.33-0.58-1.8c-0.39-0.47-0.88-0.77-1.48-0.89c-0.44-0.09-1.32-0.14-2.65-0.14H85.01z"/>
		<path class="st2" d="M13.92,62.66c0-2.04,0.28-3.75,0.83-5.14c0.41-1.02,0.98-1.94,1.7-2.75c0.72-0.81,1.5-1.41,2.35-1.8
			c1.13-0.53,2.44-0.79,3.93-0.79c2.68,0,4.83,0.92,6.44,2.75c1.61,1.83,2.42,4.38,2.42,7.64c0,3.23-0.8,5.76-2.4,7.59
			c-1.6,1.83-3.73,2.74-6.41,2.74c-2.71,0-4.86-0.91-6.46-2.73C14.72,68.35,13.92,65.85,13.92,62.66z M17.71,62.52
			c0,2.27,0.48,3.99,1.43,5.16c0.95,1.17,2.16,1.76,3.63,1.76c1.47,0,2.67-0.58,3.61-1.74c0.94-1.16,1.41-2.9,1.41-5.23
			c0-2.3-0.46-4.01-1.37-5.14c-0.91-1.13-2.13-1.69-3.65-1.69s-2.74,0.57-3.67,1.72C18.17,58.49,17.71,60.21,17.71,62.52z"/>
		<path class="st2" d="M34.45,72.55V52.51h5.9c2.24,0,3.69,0.1,4.37,0.3c1.04,0.3,1.92,0.96,2.62,1.96c0.7,1.01,1.06,2.31,1.06,3.9
			c0,1.23-0.2,2.27-0.61,3.1c-0.41,0.84-0.92,1.5-1.55,1.98c-0.63,0.48-1.26,0.8-1.91,0.95c-0.88,0.19-2.15,0.29-3.81,0.29h-2.4
			v7.56H34.45z M38.13,55.9v5.69h2.01c1.45,0,2.42-0.11,2.91-0.31c0.49-0.21,0.87-0.54,1.15-0.98c0.28-0.45,0.42-0.96,0.42-1.56
			c0-0.73-0.19-1.33-0.58-1.8c-0.39-0.47-0.88-0.77-1.48-0.89c-0.44-0.09-1.32-0.14-2.65-0.14H38.13z"/>
		<path class="st2" d="M55.53,72.55V55.9h-5.4v-3.39h14.47v3.39H59.2v16.65H55.53z"/>
		<path class="st2" d="M66.86,72.55V52.51h3.68v20.04H66.86z"/>
		<path class="st2" d="M73.29,62.66c0-2.04,0.28-3.75,0.83-5.14c0.42-1.02,0.98-1.94,1.7-2.75c0.72-0.81,1.5-1.41,2.35-1.8
			c1.14-0.53,2.44-0.79,3.93-0.79c2.68,0,4.83,0.92,6.44,2.75c1.61,1.83,2.42,4.38,2.42,7.64c0,3.23-0.8,5.76-2.4,7.59
			c-1.6,1.83-3.73,2.74-6.41,2.74c-2.71,0-4.86-0.91-6.46-2.73C74.09,68.35,73.29,65.85,73.29,62.66z M77.08,62.52
			c0,2.27,0.48,3.99,1.43,5.16c0.95,1.17,2.16,1.76,3.63,1.76c1.47,0,2.67-0.58,3.61-1.74c0.94-1.16,1.41-2.9,1.41-5.23
			c0-2.3-0.46-4.01-1.37-5.14c-0.92-1.13-2.13-1.69-3.65-1.69c-1.52,0-2.74,0.57-3.66,1.72C77.55,58.49,77.08,60.21,77.08,62.52z"/>
		<path class="st2" d="M93.87,72.55V52.51h3.58l7.45,13.38V52.51h3.42v20.04h-3.69l-7.34-13.07v13.07H93.87z"/>
		<path class="st2" d="M111.27,66.03l3.58-0.38c0.22,1.32,0.65,2.29,1.31,2.91c0.66,0.62,1.55,0.93,2.66,0.93
			c1.18,0,2.08-0.28,2.68-0.83c0.6-0.55,0.9-1.2,0.9-1.93c0-0.47-0.13-0.88-0.38-1.21c-0.25-0.33-0.69-0.62-1.32-0.87
			c-0.43-0.16-1.41-0.46-2.94-0.87c-1.97-0.54-3.35-1.2-4.15-1.98c-1.12-1.1-1.68-2.45-1.68-4.03c0-1.02,0.26-1.98,0.79-2.86
			c0.53-0.89,1.28-1.56,2.27-2.03c0.99-0.46,2.19-0.7,3.59-0.7c2.29,0,4.01,0.55,5.16,1.65c1.16,1.1,1.76,2.57,1.82,4.41l-3.68,0.18
			c-0.16-1.03-0.5-1.77-1.01-2.22c-0.52-0.45-1.29-0.68-2.33-0.68c-1.07,0-1.9,0.24-2.51,0.73c-0.39,0.31-0.58,0.72-0.58,1.24
			c0,0.47,0.18,0.88,0.55,1.22c0.46,0.43,1.59,0.87,3.38,1.34c1.79,0.46,3.11,0.94,3.97,1.44c0.86,0.5,1.53,1.18,2.01,2.04
			c0.49,0.86,0.73,1.93,0.73,3.19c0,1.15-0.29,2.22-0.87,3.23s-1.4,1.75-2.46,2.23c-1.06,0.49-2.38,0.73-3.96,0.73
			c-2.3,0-4.07-0.59-5.31-1.76C112.25,69.98,111.51,68.27,111.27,66.03z"/>
	</g>
</g>
</svg>
