<?xml version="1.0" encoding="utf-8"?>
<!-- Generator: Adobe Illustrator 27.0.1, SVG Export Plug-In . SVG Version: 6.00 Build 0)  -->
<svg version="1.1" id="New_VCP" xmlns="http://www.w3.org/2000/svg" xmlns:xlink="http://www.w3.org/1999/xlink" x="0px" y="0px"
	 viewBox="0 0 100 100" style="enable-background:new 0 0 100 100;" xml:space="preserve">
<style type="text/css">
	.st0{fill:#FFFFFF;}
</style>
<g>
	<path class="st0" d="M93,99.5H7c-3.6,0-6.5-2.9-6.5-6.5V7c0-3.6,2.9-6.5,6.5-6.5h86c3.6,0,6.5,2.9,6.5,6.5v86
		C99.5,96.6,96.6,99.5,93,99.5z"/>
	<path d="M93.1,100H6.9C3.1,100,0,96.9,0,93.1V6.9C0,3.1,3.1,0,6.9,0h86.1c3.8,0,6.9,3.1,6.9,6.9v86.1C100,96.9,96.9,100,93.1,100z
		 M6.9,1C3.7,1,1,3.7,1,6.9v86.1C1,96.3,3.7,99,6.9,99h86.1c3.3,0,5.9-2.7,5.9-5.9V6.9C99,3.7,96.3,1,93.1,1H6.9z"/>
</g>
<g>
	<path d="M29.3,22.8h-4.2l-2.5-4.1c-0.2-0.3-0.4-0.6-0.5-0.8s-0.3-0.5-0.5-0.6c-0.2-0.2-0.4-0.3-0.6-0.4c-0.2-0.1-0.4-0.1-0.6-0.1
		h-1v6.2h-3.6V6.7h5.8c3.9,0,5.9,1.5,5.9,4.4c0,0.6-0.1,1.1-0.3,1.6c-0.2,0.5-0.4,0.9-0.7,1.3s-0.7,0.7-1.1,1
		c-0.4,0.3-0.9,0.5-1.5,0.7v0c0.2,0.1,0.5,0.2,0.7,0.4c0.2,0.2,0.4,0.4,0.7,0.6s0.4,0.5,0.6,0.7c0.2,0.3,0.4,0.5,0.5,0.8L29.3,22.8z
		 M19.4,9.4v4.5h1.6c0.8,0,1.4-0.2,1.9-0.7c0.5-0.5,0.7-1,0.7-1.7c0-1.4-0.8-2.1-2.5-2.1H19.4z"/>
	<path d="M40,22.8h-3.4v-1.7h0c-0.8,1.3-1.9,1.9-3.4,1.9c-1.1,0-2-0.3-2.6-0.9c-0.6-0.6-1-1.5-1-2.5c0-2.2,1.3-3.5,4-3.9l3.1-0.4
		c0-1.3-0.7-1.9-2-1.9c-1.4,0-2.7,0.4-3.9,1.2V12c0.5-0.3,1.2-0.5,2-0.7c0.9-0.2,1.6-0.3,2.3-0.3c3.3,0,4.9,1.6,4.9,4.9V22.8z
		 M36.6,18.2v-0.8l-2.1,0.3c-1.2,0.1-1.7,0.7-1.7,1.6c0,0.4,0.1,0.7,0.4,1c0.3,0.3,0.7,0.4,1.1,0.4c0.7,0,1.2-0.2,1.6-0.7
		C36.4,19.4,36.6,18.9,36.6,18.2z"/>
	<path d="M54,22.8h-3.5v-1.6h0c-0.8,1.2-2,1.9-3.6,1.9c-1.4,0-2.6-0.5-3.5-1.5c-0.9-1-1.3-2.4-1.3-4.3c0-1.9,0.5-3.4,1.4-4.6
		s2.2-1.7,3.8-1.7c1.5,0,2.5,0.5,3.1,1.6h0V5.8H54V22.8z M50.6,17.2v-0.9c0-0.7-0.2-1.4-0.7-1.9s-1-0.7-1.7-0.7
		c-0.8,0-1.4,0.3-1.8,0.9c-0.4,0.6-0.7,1.5-0.7,2.5c0,1,0.2,1.8,0.6,2.3s1,0.8,1.8,0.8c0.7,0,1.3-0.3,1.8-0.9
		C50.3,19,50.6,18.2,50.6,17.2z"/>
	<path d="M58.8,9.5c-0.6,0-1.1-0.2-1.5-0.5c-0.4-0.4-0.6-0.8-0.6-1.3c0-0.5,0.2-1,0.6-1.3s0.9-0.5,1.5-0.5c0.6,0,1.1,0.2,1.5,0.5
		c0.4,0.3,0.6,0.8,0.6,1.3c0,0.5-0.2,1-0.6,1.3C59.9,9.3,59.4,9.5,58.8,9.5z M60.6,22.8H57V11.3h3.5V22.8z"/>
	<path d="M74.5,22.8H71v-1.8h-0.1c-0.9,1.4-2,2-3.5,2c-2.7,0-4-1.6-4-4.8v-6.9h3.5V18c0,1.6,0.6,2.4,1.9,2.4c0.6,0,1.1-0.2,1.5-0.7
		c0.4-0.4,0.6-1,0.6-1.8v-6.6h3.5V22.8z"/>
	<path d="M76.7,22.5v-2.9c0.6,0.4,1.2,0.6,1.7,0.8s1.1,0.3,1.6,0.3c0.6,0,1.1-0.1,1.5-0.3s0.5-0.4,0.5-0.8c0-0.2-0.1-0.4-0.2-0.6
		c-0.2-0.1-0.4-0.3-0.6-0.4c-0.3-0.1-0.5-0.2-0.8-0.3c-0.3-0.1-0.6-0.2-0.9-0.3c-0.5-0.2-0.9-0.4-1.2-0.6c-0.3-0.2-0.6-0.4-0.9-0.7
		c-0.2-0.3-0.4-0.6-0.5-0.9c-0.1-0.3-0.2-0.8-0.2-1.2c0-0.6,0.1-1.2,0.4-1.7c0.3-0.5,0.7-0.8,1.1-1.1c0.5-0.3,1-0.5,1.6-0.7
		c0.6-0.1,1.2-0.2,1.9-0.2c0.5,0,1,0,1.5,0.1c0.5,0.1,1,0.2,1.5,0.3v2.7c-0.4-0.3-0.9-0.5-1.4-0.6c-0.5-0.1-1-0.2-1.5-0.2
		c-0.2,0-0.5,0-0.7,0.1c-0.2,0-0.4,0.1-0.5,0.2c-0.2,0.1-0.3,0.2-0.4,0.3c-0.1,0.1-0.1,0.3-0.1,0.4c0,0.2,0.1,0.4,0.2,0.5
		s0.3,0.3,0.5,0.4c0.2,0.1,0.5,0.2,0.7,0.3c0.3,0.1,0.5,0.2,0.8,0.3c0.5,0.2,0.9,0.3,1.3,0.5c0.4,0.2,0.7,0.4,1,0.7s0.5,0.6,0.6,0.9
		c0.1,0.4,0.2,0.8,0.2,1.3c0,0.7-0.1,1.3-0.4,1.7c-0.3,0.5-0.7,0.9-1.2,1.2c-0.5,0.3-1.1,0.5-1.7,0.7c-0.6,0.1-1.3,0.2-2,0.2
		C79,23.1,77.8,22.9,76.7,22.5z"/>
</g>
<rect x="9.7" y="30.7" width="47.6" height="4"/>
<rect x="79.1" y="56.2" width="4" height="37.3"/>
<path d="M83.1,56.2h-4c0-11.4-10.2-21.5-21.9-21.5v-4C71.1,30.7,83.1,42.6,83.1,56.2z"/>
</svg>
