<?xml version="1.0" encoding="utf-8"?>
<!-- Generator: Adobe Illustrator 25.3.1, SVG Export Plug-In . SVG Version: 6.00 Build 0)  -->
<svg version="1.1" id="New_VCP" xmlns="http://www.w3.org/2000/svg" xmlns:xlink="http://www.w3.org/1999/xlink" x="0px" y="0px"
	 viewBox="0 0 100 100" style="enable-background:new 0 0 100 100;" xml:space="preserve">
<style type="text/css">
	.st0{fill:#FFFFFF;}
	.st1{fill:#010101;}
	.st2{fill:#231F20;}
</style>
<g>
	<path class="st0" d="M99.5,93.56c0,3.28-2.66,5.94-5.94,5.94H6.44c-3.28,0-5.94-2.66-5.94-5.94V6.44c0-3.28,2.66-5.94,5.94-5.94
		h87.13c3.28,0,5.94,2.66,5.94,5.94V93.56z"/>
	<path class="st1" d="M93.56,100H6.44C2.89,100,0,97.11,0,93.56V6.44C0,2.89,2.89,0,6.44,0h87.13C97.11,0,100,2.89,100,6.44v87.13
		C100,97.11,97.11,100,93.56,100z M6.44,0.99c-3,0-5.45,2.44-5.45,5.45v87.13c0,3,2.44,5.45,5.45,5.45h87.13
		c3,0,5.45-2.44,5.45-5.45V6.44c0-3-2.44-5.45-5.45-5.45H6.44z"/>
</g>
<g>
	<path class="st2" d="M19.48,38.54l4.56-0.33c0.1,0.85,0.3,1.5,0.6,1.94c0.49,0.72,1.2,1.08,2.11,1.08c0.68,0,1.21-0.18,1.58-0.55
		c0.37-0.37,0.55-0.79,0.55-1.28c0-0.46-0.18-0.87-0.53-1.24c-0.35-0.36-1.17-0.71-2.45-1.03c-2.1-0.54-3.6-1.26-4.49-2.16
		c-0.9-0.9-1.35-2.04-1.35-3.43c0-0.91,0.23-1.78,0.69-2.59s1.16-1.45,2.08-1.92c0.93-0.47,2.2-0.7,3.81-0.7
		c1.98,0,3.49,0.42,4.53,1.27c1.04,0.85,1.66,2.19,1.85,4.03l-4.51,0.3c-0.12-0.8-0.37-1.38-0.76-1.75
		c-0.38-0.36-0.91-0.55-1.59-0.55c-0.56,0-0.98,0.14-1.26,0.41c-0.28,0.27-0.42,0.6-0.42,0.99c0,0.28,0.12,0.54,0.35,0.76
		c0.23,0.23,0.76,0.45,1.61,0.66c2.09,0.52,3.59,1.04,4.5,1.57c0.91,0.53,1.56,1.19,1.98,1.97c0.41,0.79,0.62,1.66,0.62,2.63
		c0,1.14-0.27,2.19-0.82,3.16c-0.55,0.96-1.32,1.69-2.3,2.19c-0.99,0.5-2.23,0.75-3.73,0.75c-2.64,0-4.46-0.58-5.48-1.75
		C20.19,41.81,19.61,40.33,19.48,38.54z"/>
	<path class="st2" d="M45.47,41.49h-5.44l-0.76,2.94h-4.89l5.82-17.79h5.22l5.82,17.79h-5.01L45.47,41.49z M44.48,37.64l-1.71-6.4
		l-1.69,6.4H44.48z"/>
	<path class="st2" d="M52.81,26.63h11.84v3.82h-7.03v3.11h6v3.59h-6v7.27h-4.81V26.63z"/>
	<path class="st2" d="M67.21,26.63h12.83v3.8h-8.03v2.83h7.45v3.63h-7.45v3.51h8.27v4.03H67.21V26.63z"/>
	<path class="st2" d="M12.52,51.49h4.79v6.23h5.23v-6.23h4.81v17.79h-4.81v-7.2h-5.23v7.2h-4.79V51.49z"/>
	<path class="st2" d="M42.71,64.06h-8.62c0.08,0.79,0.26,1.38,0.56,1.77c0.42,0.56,0.96,0.84,1.63,0.84c0.42,0,0.82-0.12,1.2-0.36
		c0.23-0.15,0.48-0.42,0.75-0.81l4.24,0.45c-0.65,1.29-1.43,2.22-2.35,2.79c-0.92,0.56-2.23,0.84-3.94,0.84
		c-1.49,0-2.66-0.24-3.51-0.72s-1.56-1.25-2.12-2.29c-0.56-1.05-0.84-2.28-0.84-3.69c0-2.01,0.56-3.65,1.69-4.89
		c1.12-1.25,2.68-1.87,4.66-1.87c1.61,0,2.88,0.28,3.81,0.84c0.93,0.56,1.64,1.37,2.12,2.43c0.49,1.06,0.73,2.44,0.73,4.14V64.06z
		 M38.34,61.69c-0.08-0.95-0.31-1.64-0.67-2.05c-0.36-0.41-0.84-0.62-1.43-0.62c-0.68,0-1.23,0.31-1.64,0.93
		c-0.26,0.39-0.43,0.97-0.5,1.74H38.34z"/>
	<path class="st2" d="M44.85,51.49h4.3v3.36h-4.3V51.49z M44.85,56.39h4.3v12.89h-4.3V56.39z"/>
	<path class="st2" d="M59.71,56.39h4.03v12.17l0.01,0.57c0,0.81-0.15,1.58-0.45,2.31c-0.3,0.73-0.7,1.32-1.19,1.78
		c-0.5,0.45-1.13,0.78-1.89,0.98s-1.64,0.3-2.63,0.3c-2.25,0-3.8-0.39-4.65-1.17c-0.84-0.78-1.26-1.82-1.26-3.12
		c0-0.16,0.01-0.38,0.02-0.66l4.17,0.55c0.11,0.45,0.27,0.75,0.49,0.92c0.32,0.25,0.71,0.38,1.19,0.38c0.62,0,1.08-0.19,1.39-0.57
		c0.31-0.38,0.46-1.04,0.46-1.99V66.9c-0.42,0.58-0.85,0.99-1.27,1.25c-0.66,0.41-1.38,0.61-2.15,0.61c-1.5,0-2.71-0.75-3.64-2.26
		c-0.66-1.07-0.98-2.48-0.98-4.23c0-2.01,0.42-3.54,1.27-4.59s1.95-1.58,3.32-1.58c0.87,0,1.59,0.17,2.16,0.51s1.1,0.9,1.59,1.69
		V56.39z M55.66,62.64c0,0.93,0.17,1.62,0.52,2.07c0.34,0.45,0.8,0.67,1.36,0.67c0.54,0,0.98-0.23,1.35-0.7
		c0.36-0.47,0.54-1.17,0.54-2.11s-0.19-1.66-0.57-2.15c-0.38-0.5-0.85-0.75-1.4-0.75c-0.55,0-0.99,0.23-1.32,0.69
		C55.82,60.82,55.66,61.58,55.66,62.64z"/>
	<path class="st2" d="M66.33,51.49h4.3v6.55c0.58-0.7,1.17-1.19,1.74-1.49c0.58-0.3,1.26-0.45,2.05-0.45c1.17,0,2.09,0.41,2.76,1.23
		c0.67,0.82,1.01,2.07,1.01,3.76v8.19h-4.32v-7.09c0-0.81-0.13-1.38-0.39-1.72c-0.26-0.34-0.63-0.5-1.1-0.5
		c-0.52,0-0.94,0.23-1.27,0.68s-0.49,1.27-0.49,2.44v6.19h-4.3V51.49z"/>
	<path class="st2" d="M85.96,51.49v4.9h2.37V60h-2.37v4.57c0,0.55,0.05,0.91,0.14,1.09c0.14,0.27,0.39,0.41,0.74,0.41
		c0.32,0,0.76-0.1,1.33-0.31l0.32,3.41c-1.06,0.27-2.06,0.4-2.98,0.4c-1.07,0-1.86-0.16-2.37-0.47c-0.51-0.32-0.88-0.79-1.13-1.44
		c-0.24-0.64-0.36-1.68-0.36-3.12V60h-1.59v-3.62h1.59v-2.37L85.96,51.49z"/>
</g>
</svg>
