<svg id="New_VCP" data-name="New VCP" xmlns="http://www.w3.org/2000/svg" width="100" height="100" viewBox="0 0 100 100">
  <title>spindle_CW</title>
  <rect width="100" height="100" rx="6" style="fill: #fff"/>
  <path d="M72.81,71.62,76.4,75.2a34.51,34.51,0,1,1-6.19-53.69L77,15.07l6.16,26.09L71.36,37.87l-14.28-4,5.39-5.09A24.35,24.35,0,1,0,69.23,68l3.58,3.58Z" style="fill: #231f20"/>
  <g>
    <path d="M38,57.48v-16h4.49l2.7,10.89L47.8,41.51h4.5v16H49.52V44.91l-3,12.57H43.68L40.74,44.91V57.48Z" style="fill: #010101"/>
    <path d="M54.55,53.24l2.76-.36A2.9,2.9,0,0,0,58,54.61a1.91,1.91,0,0,0,2.88-.12,2.92,2.92,0,0,0,.6-1.94,2.75,2.75,0,0,0-.57-1.83,1.8,1.8,0,0,0-1.41-.67,4.41,4.41,0,0,0-1.31.23l.31-2.5a2.41,2.41,0,0,0,1.77-.54,2,2,0,0,0,.6-1.52,1.8,1.8,0,0,0-.44-1.28A1.54,1.54,0,0,0,59.26,44,1.65,1.65,0,0,0,58,44.5a2.63,2.63,0,0,0-.63,1.59l-2.62-.48a6.55,6.55,0,0,1,.82-2.31,3.78,3.78,0,0,1,1.54-1.36,4.89,4.89,0,0,1,2.21-.5,4.28,4.28,0,0,1,3.37,1.44,3.93,3.93,0,0,1,1,2.66,3.76,3.76,0,0,1-2.14,3.35,3.45,3.45,0,0,1,2,1.32,4.07,4.07,0,0,1,.76,2.47A5,5,0,0,1,63,56.27a4.76,4.76,0,0,1-3.55,1.48,4.71,4.71,0,0,1-3.35-1.25A5,5,0,0,1,54.55,53.24Z" style="fill: #010101"/>
  </g>
</svg>
