<?xml version="1.0" encoding="utf-8"?>
<!-- Generator: Adobe Illustrator 26.0.1, SVG Export Plug-In . SVG Version: 6.00 Build 0)  -->
<svg version="1.1" id="New_VCP" xmlns="http://www.w3.org/2000/svg" xmlns:xlink="http://www.w3.org/1999/xlink" x="0px" y="0px"
	 viewBox="0 0 100 100" style="enable-background:new 0 0 100 100;" xml:space="preserve">
<style type="text/css">
	.st0{fill:#ED1C24;}
	.st1{fill:url(#SVGID_1_);}
	.st2{fill:#FFFFFF;}
	.st3{fill:#55A4DB;}
	.st4{fill:url(#SVGID_00000050647206138102920140000007086249556448901269_);}
	.st5{fill:url(#SVGID_00000000908324458037734950000012403410745761558408_);}
</style>
<path class="st0" d="M88,100H12c-6.6,0-12-5.4-12-12V12C0,5.4,5.4,0,12,0h76c6.6,0,12,5.4,12,12v76C100,94.6,94.6,100,88,100z"/>
<linearGradient id="SVGID_1_" gradientUnits="userSpaceOnUse" x1="18.1592" y1="58.1615" x2="31.3537" y2="58.1615">
	<stop  offset="0" style="stop-color:#BE7C2A"/>
	<stop  offset="0.0428" style="stop-color:#C9904B"/>
	<stop  offset="0.1079" style="stop-color:#D9B181"/>
	<stop  offset="0.1665" style="stop-color:#E7CEB0"/>
	<stop  offset="0.2164" style="stop-color:#F2E5D6"/>
	<stop  offset="0.2556" style="stop-color:#FBF6F0"/>
	<stop  offset="0.2793" style="stop-color:#FFFFFF"/>
	<stop  offset="0.3145" style="stop-color:#F3E7DB"/>
	<stop  offset="0.3892" style="stop-color:#E5C5A8"/>
	<stop  offset="0.467" style="stop-color:#DAAA81"/>
	<stop  offset="0.5463" style="stop-color:#D09563"/>
	<stop  offset="0.6275" style="stop-color:#C9864B"/>
	<stop  offset="0.7112" style="stop-color:#C47A3A"/>
	<stop  offset="0.7984" style="stop-color:#C1722F"/>
	<stop  offset="0.8913" style="stop-color:#BF6E2A"/>
	<stop  offset="1" style="stop-color:#BE6C28"/>
</linearGradient>
<line class="st1" x1="31.35" y1="58.16" x2="18.16" y2="58.16"/>
<g>
	<path class="st2" d="M28.23,47.02c0-3.74,0.88-6.65,2.65-8.73c1.76-2.08,4.22-3.12,7.37-3.12c3.23,0,5.72,1.02,7.46,3.07
		c1.75,2.05,2.62,4.91,2.62,8.6c0,2.68-0.38,4.87-1.14,6.59c-0.76,1.71-1.87,3.05-3.31,4c-1.44,0.95-3.24,1.43-5.39,1.43
		c-2.19,0-4-0.41-5.43-1.23c-1.43-0.82-2.6-2.12-3.49-3.91S28.23,49.69,28.23,47.02z M34.22,47.05c0,2.31,0.36,3.97,1.09,4.98
		c0.73,1.01,1.72,1.52,2.97,1.52c1.29,0,2.29-0.5,2.99-1.48s1.06-2.77,1.06-5.33c0-2.16-0.37-3.73-1.11-4.73
		c-0.74-0.99-1.73-1.49-3-1.49c-1.21,0-2.18,0.51-2.91,1.52C34.59,43.04,34.22,44.71,34.22,47.05z"/>
	<path class="st2" d="M51.58,35.55H66.4v4.92h-8.8v4h7.52v4.62H57.6v9.36h-6.02V35.55z"/>
	<path class="st2" d="M69.66,35.55h14.82v4.92h-8.8v4h7.52v4.62h-7.52v9.36h-6.02V35.55z"/>
</g>
<g>
	<g>
		<g>
			<ellipse class="st3" cx="0" cy="64.91" rx="8.05" ry="20.09"/>
			
				<radialGradient id="SVGID_00000110459650672219627130000007664503248487429297_" cx="171.6792" cy="45.5228" r="12.1591" gradientTransform="matrix(1.1681 0 0 1.0891 -200.5369 15.7919)" gradientUnits="userSpaceOnUse">
				<stop  offset="0" style="stop-color:#FFFFFF"/>
				<stop  offset="0.2133" style="stop-color:#FAFBFE"/>
				<stop  offset="0.3716" style="stop-color:#EFF4FB"/>
				<stop  offset="0.5121" style="stop-color:#DEE9F7"/>
				<stop  offset="0.6424" style="stop-color:#C7DBF2"/>
				<stop  offset="0.7655" style="stop-color:#A9CBEB"/>
				<stop  offset="0.8827" style="stop-color:#85B8E3"/>
				<stop  offset="0.9944" style="stop-color:#58A5DB"/>
				<stop  offset="1" style="stop-color:#55A4DB"/>
			</radialGradient>
			
				<ellipse style="fill:url(#SVGID_00000110459650672219627130000007664503248487429297_);" cx="0" cy="65.37" rx="6.37" ry="17.76"/>
		</g>
		
			<linearGradient id="SVGID_00000108995861172705823670000014899935054761719188_" gradientUnits="userSpaceOnUse" x1="-18" y1="34.1399" x2="18" y2="34.1399">
			<stop  offset="0" style="stop-color:#BE7C2A"/>
			<stop  offset="0.0259" style="stop-color:#BF7E2D"/>
			<stop  offset="0.0609" style="stop-color:#C38537"/>
			<stop  offset="0.101" style="stop-color:#C9904B"/>
			<stop  offset="0.1451" style="stop-color:#D1A269"/>
			<stop  offset="0.1924" style="stop-color:#DDBA90"/>
			<stop  offset="0.2414" style="stop-color:#EDDBC5"/>
			<stop  offset="0.2793" style="stop-color:#FFFFFF"/>
			<stop  offset="0.3119" style="stop-color:#EFDCCB"/>
			<stop  offset="0.3506" style="stop-color:#E3C1A2"/>
			<stop  offset="0.3934" style="stop-color:#D9AA80"/>
			<stop  offset="0.4393" style="stop-color:#D19867"/>
			<stop  offset="0.4892" style="stop-color:#CB8951"/>
			<stop  offset="0.5444" style="stop-color:#C67E40"/>
			<stop  offset="0.6072" style="stop-color:#C27634"/>
			<stop  offset="0.6822" style="stop-color:#C0702C"/>
			<stop  offset="0.7813" style="stop-color:#BE6D29"/>
			<stop  offset="1" style="stop-color:#BE6C28"/>
		</linearGradient>
		<polygon style="fill:url(#SVGID_00000108995861172705823670000014899935054761719188_);" points="6.63,53.28 18,47.79 18,15 
			-18,15 -18,47.79 -6.63,53.28 		"/>
	</g>
	<rect x="-2" y="48.79" transform="matrix(0.7071 -0.7071 0.7071 0.7071 -49.4975 20.5025)" width="4" height="42.43"/>
	<rect x="-21.21" y="68" transform="matrix(0.7071 -0.7071 0.7071 0.7071 -49.4975 20.5025)" width="42.43" height="4"/>
</g>
</svg>
