<?xml version="1.0" encoding="utf-8"?>
<!-- Generator: Adobe Illustrator 26.3.1, SVG Export Plug-In . SVG Version: 6.00 Build 0)  -->
<svg version="1.1" id="New_VCP" xmlns="http://www.w3.org/2000/svg" xmlns:xlink="http://www.w3.org/1999/xlink" x="0px" y="0px"
	 viewBox="0 0 100 100" style="enable-background:new 0 0 100 100;" xml:space="preserve">
<style type="text/css">
	.st0{fill:#FFFFFF;}
	.st1{fill-rule:evenodd;clip-rule:evenodd;}
</style>
<path class="st0" d="M100,94c0,3.3-2.7,6-6,6H6c-3.3,0-6-2.7-6-6V6c0-3.3,2.7-6,6-6h88c3.3,0,6,2.7,6,6V94z"/>
<g>
	<path class="st1" d="M16.4,66.1C27,55.5,37.6,44.9,48.2,34.4c-2.1-2.1-5.7-5.7-8.4-8.4c5.1-1,11-0.4,17.2-0.4
		c4.4,0,8.3-0.2,13.2-0.2c1,0,4.1-0.1,4.2,0c0.7,0.7,0,7.7,0,8.8c0,8.8,0.4,17.7-0.2,26.2c-2.8-2.8-6.4-6.5-8.6-8.6
		C55.1,62.4,44.5,72.9,33.9,83.5C47.6,89.7,61.8,89.3,75,78c9.8-8.3,12.3-19,12.4-27.4c0.1-8.7-2.8-18.4-10.3-26.4
		C62.5,8.7,37.8,8.5,23,24C11.1,36.3,9.9,52,16.4,66.1z"/>
	<path class="st1" d="M16.4,66.1C27,55.5,37.6,44.9,48.2,34.4c-2.1-2.1-5.7-5.7-8.4-8.4c5.1-1,11-0.4,17.2-0.4
		c4.4,0,8.3-0.2,13.2-0.2c1,0,4.1-0.1,4.2,0c0.7,0.7,0,7.7,0,8.8c0,8.8,0.4,17.7-0.2,26.2c-2.8-2.8-6.4-6.5-8.6-8.6
		C55.1,62.4,44.5,72.9,33.9,83.5C47.6,89.7,61.8,89.3,75,78c9.8-8.3,12.3-19,12.4-27.4c0.1-8.7-2.8-18.4-10.3-26.4
		C62.5,8.7,37.8,8.5,23,24C11.1,36.3,9.9,52,16.4,66.1z"/>
</g>
</svg>
