<svg id="New_VCP" data-name="New VCP" xmlns="http://www.w3.org/2000/svg" width="100" height="100" viewBox="0 0 100 100">
  <title>rapid_over</title>
  <rect width="100" height="100" rx="6" style="fill: #ffc70e"/>
  <g>
    <g>
      <path d="M18.25,44.65V25.09h8.23a9.94,9.94,0,0,1,3.5.48,4,4,0,0,1,1.95,1.78,6.38,6.38,0,0,1,.74,3.17,6.4,6.4,0,0,1-.57,2.81,5.09,5.09,0,0,1-1.56,1.92,5.27,5.27,0,0,1-1.73.77,4.67,4.67,0,0,1,1.28.72,5.82,5.82,0,0,1,.79,1A7,7,0,0,1,31.57,39L34,44.65H28.39l-2.64-6a4.65,4.65,0,0,0-.9-1.51,1.83,1.83,0,0,0-1.21-.46h-.43v7.94Zm5-11.63h2.08a6.24,6.24,0,0,0,1.31-.27,1.32,1.32,0,0,0,.8-.61A2.16,2.16,0,0,0,27.71,31a2,2,0,0,0-.49-1.45A2.56,2.56,0,0,0,25.37,29H23.21Z" style="fill: #231f20"/>
      <path d="M45.37,41.42H39.76L39,44.65H33.94l6-19.56h5.39l6,19.56H46.17Zm-1-4.22-1.77-7-1.74,7Z" style="fill: #231f20"/>
      <path d="M52.89,25.09H61.1a5,5,0,0,1,4,1.56,6.66,6.66,0,0,1,1.33,4.45A6.81,6.81,0,0,1,65,35.73a5.61,5.61,0,0,1-4.45,1.67h-2.7v7.25h-5Zm5,8.34h1.21a2.74,2.74,0,0,0,2-.6,2.21,2.21,0,0,0,.57-1.56,2.43,2.43,0,0,0-.5-1.56,2.26,2.26,0,0,0-1.88-.64H57.85Z" style="fill: #231f20"/>
      <path d="M69.23,25.09h5V44.65h-5Z" style="fill: #231f20"/>
      <path d="M77.79,25.09h7.34a7.37,7.37,0,0,1,3.5.72,6,6,0,0,1,2.21,2.07A9.49,9.49,0,0,1,92.1,31a17.08,17.08,0,0,1,.4,3.79,15.77,15.77,0,0,1-.59,4.86,8.38,8.38,0,0,1-1.62,2.9,5.21,5.21,0,0,1-2.22,1.55,9.35,9.35,0,0,1-2.94.53H77.79Zm4.94,4.43V40.21h1.21a4.28,4.28,0,0,0,2.2-.42,2.76,2.76,0,0,0,1-1.47,11.36,11.36,0,0,0,.37-3.39c0-2.08-.28-3.49-.83-4.26A3.19,3.19,0,0,0,84,29.52Z" style="fill: #231f20"/>
    </g>
    <g>
      <path d="M19.58,60.52c0-3.21.73-5.72,2.18-7.51a7.39,7.39,0,0,1,6.07-2.69A7.49,7.49,0,0,1,34,53q2.16,2.64,2.16,7.4A14.69,14.69,0,0,1,35.2,66a7.73,7.73,0,0,1-2.73,3.44A7.64,7.64,0,0,1,28,70.69a8.59,8.59,0,0,1-4.48-1.06,7.58,7.58,0,0,1-2.87-3.36A13.34,13.34,0,0,1,19.58,60.52Zm4.94,0a7.74,7.74,0,0,0,.9,4.28,3,3,0,0,0,4.91,0c.58-.85.87-2.38.87-4.58a7.12,7.12,0,0,0-.91-4.07,2.89,2.89,0,0,0-2.47-1.28,2.8,2.8,0,0,0-2.4,1.31A7.79,7.79,0,0,0,24.52,60.55Z" style="fill: #231f20"/>
      <path d="M36.27,50.66h5.16L45,64.83l3.55-14.17h5l-5.93,19.7H42.3Z" style="fill: #231f20"/>
      <path d="M55.19,50.66H68.43v4.2H60.14V58h7.69v4H60.14v3.88h8.53v4.47H55.19Z" style="fill: #231f20"/>
      <path d="M71.39,70.36V50.66h8.24a9.84,9.84,0,0,1,3.49.48,4,4,0,0,1,2,1.8,6.4,6.4,0,0,1,.74,3.19A6.53,6.53,0,0,1,85.25,59,4.75,4.75,0,0,1,82,61.66a4.93,4.93,0,0,1,1.28.73,5.82,5.82,0,0,1,.79,1,7,7,0,0,1,.69,1.23l2.39,5.71H81.53l-2.64-6A4.58,4.58,0,0,0,78,62.82a1.8,1.8,0,0,0-1.21-.46h-.44v8Zm5-11.72h2.09a6.24,6.24,0,0,0,1.31-.27,1.34,1.34,0,0,0,.8-.62,2.16,2.16,0,0,0,.31-1.14,2.06,2.06,0,0,0-.49-1.46,2.57,2.57,0,0,0-1.85-.51H76.35Z" style="fill: #231f20"/>
    </g>
  </g>
</svg>
