<?xml version="1.0" encoding="utf-8"?>
<!-- Generator: Adobe Illustrator 26.3.1, SVG Export Plug-In . SVG Version: 6.00 Build 0)  -->
<svg version="1.1" id="New_VCP" xmlns="http://www.w3.org/2000/svg" xmlns:xlink="http://www.w3.org/1999/xlink" x="0px" y="0px"
	 viewBox="0 0 100 100" style="enable-background:new 0 0 100 100;" xml:space="preserve">
<style type="text/css">
	.st0{fill:#FFFFFF;}
	.st1{fill-rule:evenodd;clip-rule:evenodd;}
</style>
<path class="st0" d="M100,94c0,3.3-2.7,6-6,6H6c-3.3,0-6-2.7-6-6V6c0-3.3,2.7-6,6-6h88c3.3,0,6,2.7,6,6V94z"/>
<g>
	<path class="st1" d="M83.6,33.9C73,44.5,62.4,55.1,51.8,65.6c2.1,2.1,5.7,5.7,8.4,8.4c-5.1,1-11,0.4-17.2,0.4
		c-4.4,0-8.3,0.2-13.2,0.2c-1,0-4.1,0.1-4.2,0c-0.7-0.7,0-7.7,0-8.8c0-8.8-0.4-17.7,0.2-26.2c2.8,2.8,6.4,6.5,8.6,8.6
		c10.6-10.6,21.2-21.2,31.8-31.8C52.4,10.3,38.2,10.7,25,22c-9.8,8.3-12.3,19-12.4,27.4c-0.1,8.7,2.8,18.4,10.3,26.4
		C37.5,91.3,62.2,91.5,77,76C88.9,63.7,90.1,48,83.6,33.9z"/>
	<path class="st1" d="M83.6,33.9C73,44.5,62.4,55.1,51.8,65.6c2.1,2.1,5.7,5.7,8.4,8.4c-5.1,1-11,0.4-17.2,0.4
		c-4.4,0-8.3,0.2-13.2,0.2c-1,0-4.1,0.1-4.2,0c-0.7-0.7,0-7.7,0-8.8c0-8.8-0.4-17.7,0.2-26.2c2.8,2.8,6.4,6.5,8.6,8.6
		c10.6-10.6,21.2-21.2,31.8-31.8C52.4,10.3,38.2,10.7,25,22c-9.8,8.3-12.3,19-12.4,27.4c-0.1,8.7,2.8,18.4,10.3,26.4
		C37.5,91.3,62.2,91.5,77,76C88.9,63.7,90.1,48,83.6,33.9z"/>
</g>
</svg>
