<svg id="New_VCP" data-name="New VCP" xmlns="http://www.w3.org/2000/svg" width="100" height="100" viewBox="0 0 100 100">
  <title>set_all_0</title>
  <g>
    <rect x="0.5" y="0.5" width="99.01" height="99.01" rx="5.94" style="fill: #fff"/>
    <path d="M93.56,100H6.44A6.45,6.45,0,0,1,0,93.56V6.44A6.45,6.45,0,0,1,6.44,0H93.56A6.45,6.45,0,0,1,100,6.44V93.56A6.45,6.45,0,0,1,93.56,100ZM6.44,1A5.45,5.45,0,0,0,1,6.44V93.56A5.45,5.45,0,0,0,6.44,99H93.56A5.45,5.45,0,0,0,99,93.56V6.44A5.45,5.45,0,0,0,93.56,1Z" style="fill: #010101"/>
  </g>
  <g>
    <path d="M28.13,35.8l4.37-.31a4.2,4.2,0,0,0,.58,1.85,2.31,2.31,0,0,0,2,1,2.08,2.08,0,0,0,1.52-.53,1.69,1.69,0,0,0,.53-1.23,1.65,1.65,0,0,0-.51-1.18,5.37,5.37,0,0,0-2.35-1A9.44,9.44,0,0,1,30,32.38a4.44,4.44,0,0,1-1.29-3.28,5,5,0,0,1,.66-2.49,4.58,4.58,0,0,1,2-1.83A8.22,8.22,0,0,1,35,24.11a6.77,6.77,0,0,1,4.35,1.22,5.44,5.44,0,0,1,1.78,3.86l-4.33.29a2.8,2.8,0,0,0-.73-1.67,2.14,2.14,0,0,0-1.53-.53,1.71,1.71,0,0,0-1.21.39,1.27,1.27,0,0,0-.4.95,1,1,0,0,0,.33.73,3.51,3.51,0,0,0,1.55.63,17.7,17.7,0,0,1,4.32,1.5A4.83,4.83,0,0,1,41,33.37a5.27,5.27,0,0,1,.6,2.52,6.05,6.05,0,0,1-.79,3A5.23,5.23,0,0,1,38.62,41a7.87,7.87,0,0,1-3.58.71c-2.53,0-4.28-.55-5.26-1.67A7.08,7.08,0,0,1,28.13,35.8Z" style="fill: #231f20"/>
    <path d="M43.93,24.4H56.26V28H48.54v2.71H55.7v3.47H48.54v3.36h7.94v3.85H43.93Z" style="fill: #231f20"/>
    <path d="M57.91,24.4h14v4.21H67.2V41.43H62.6V28.61H57.91Z" style="fill: #231f20"/>
    <path d="M28.25,65.06H23l-.73,2.81H17.61l5.59-17h5l5.6,17H29Zm-1-3.68-1.64-6.13L24,61.38Z" style="fill: #231f20"/>
    <path d="M35.27,50.84h4.6V63.68H47v4.19H35.27Z" style="fill: #231f20"/>
    <path d="M49.13,50.84h4.6V63.68h7.18v4.19H49.13Z" style="fill: #231f20"/>
    <path d="M69.26,59.29q0-4.86,1.53-6.8a5.57,5.57,0,0,1,4.65-1.94,6.2,6.2,0,0,1,2.47.42,4.49,4.49,0,0,1,1.57,1.11,5.74,5.74,0,0,1,1,1.42A7.81,7.81,0,0,1,81,55.25a18.46,18.46,0,0,1,.41,4c0,3.09-.45,5.35-1.37,6.78s-2.48,2.15-4.72,2.15a6,6,0,0,1-3-.68,5.27,5.27,0,0,1-1.9-2,8.29,8.29,0,0,1-.84-2.58A20,20,0,0,1,69.26,59.29Zm4.1,0a12.87,12.87,0,0,0,.51,4.44c.33.8.82,1.19,1.45,1.19a1.43,1.43,0,0,0,1.09-.5,3.27,3.27,0,0,0,.68-1.6,18.66,18.66,0,0,0,.22-3.41,13.65,13.65,0,0,0-.5-4.56A1.63,1.63,0,0,0,75.3,53.7a1.56,1.56,0,0,0-1.48,1.19A14.26,14.26,0,0,0,73.36,59.3Z" style="fill: #231f20"/>
  </g>
</svg>
