<svg id="New_VCP" data-name="New VCP" xmlns="http://www.w3.org/2000/svg" width="100" height="100" viewBox="0 0 100 100">
  <title>4th_negative</title>
  <path d="M51.92,100,100,64.3V6.09A6,6,0,0,0,94,0H6A6,6,0,0,0,0,6.09v59Z" style="fill: #ffc70e"/>
  <g>
    <path d="M32.77,55.11H22.41V50.37L32.77,37.88h4.95V50.64h2.57v4.47H37.72V59H32.77Zm0-4.47V44.11l-5.48,6.53Z" style="fill: #231f20"/>
    <path d="M49.47,38.24V44h3.12v4.22H49.47V53.5a3,3,0,0,0,.18,1.28,1,1,0,0,0,1,.48,6.35,6.35,0,0,0,1.75-.37l.42,4a18.28,18.28,0,0,1-3.93.46,6.74,6.74,0,0,1-3.13-.55,3.3,3.3,0,0,1-1.49-1.67,10.06,10.06,0,0,1-.48-3.65V48.18H41.68V44h2.09V41.2Z" style="fill: #231f20"/>
    <path d="M55.3,38.24H61v7.64a7.74,7.74,0,0,1,2.31-1.74A6.42,6.42,0,0,1,66,43.62a4.73,4.73,0,0,1,3.65,1.43A6.23,6.23,0,0,1,71,49.44V59H65.27V50.73a3,3,0,0,0-.52-2,1.83,1.83,0,0,0-1.45-.59,2,2,0,0,0-1.67.8A4.62,4.62,0,0,0,61,51.77V59H55.3Z" style="fill: #231f20"/>
    <path d="M73.28,49.2h8.27v4.46H73.28Z" style="fill: #231f20"/>
  </g>
</svg>
