<svg id="New_VCP" data-name="New VCP" xmlns="http://www.w3.org/2000/svg" width="100" height="100" viewBox="0 0 100 100">
  <title>mist_coolant</title>
  <rect width="100" height="100" rx="6" style="fill: #252d6b"/>
  <g>
    <g>
      <path d="M14.55,38.3H72.8s10.1-.1,10.1,7v8.81S81.72,61,80.63,61.68s-5.45,0-5.45,0a27.44,27.44,0,0,1-1.49-7.92,33.7,33.7,0,0,0-.4-6.18l-58.74-.46Z" style="fill: #fff"/>
      <path d="M78.69,62.2a24.69,24.69,0,0,1-3.54-.32l-.13,0,0-.11a27.58,27.58,0,0,1-1.49-8,35,35,0,0,0-.37-6l-58.77-.47V38.1H72.8c.2,0,5.64,0,8.55,2.85a6,6,0,0,1,1.76,4.39v8.81c-.13.75-1.24,7-2.37,7.7A4.32,4.32,0,0,1,78.69,62.2Zm-3.36-.7c1.28.19,4.37.52,5.18,0s1.74-4.78,2.19-7.39V45.34a5.53,5.53,0,0,0-1.64-4.09c-2.79-2.77-8.19-2.74-8.26-2.74h-58v8.4l58.71.47,0,.17a34.75,34.75,0,0,1,.4,6.21A27,27,0,0,0,75.33,61.5Z" style="fill: #231f20"/>
    </g>
    <g>
      <path d="M80.43,66a2.18,2.18,0,1,1-2.13-2.62A2.43,2.43,0,0,1,80.43,66Z" style="fill: #fff"/>
      <path d="M78.3,68.84A2.89,2.89,0,1,1,80.63,66,2.63,2.63,0,0,1,78.3,68.84Zm0-5.26A2.49,2.49,0,1,0,80.22,66,2.22,2.22,0,0,0,78.3,63.58Z" style="fill: #231f20"/>
    </g>
    <g>
      <path d="M75.06,72.68a2.18,2.18,0,1,1-2.13-2.62A2.42,2.42,0,0,1,75.06,72.68Z" style="fill: #fff"/>
      <path d="M72.93,75.52a2.89,2.89,0,1,1,2.34-2.84A2.63,2.63,0,0,1,72.93,75.52Zm0-5.25a2.48,2.48,0,1,0,1.93,2.41A2.21,2.21,0,0,0,72.93,70.27Z" style="fill: #231f20"/>
    </g>
    <g>
      <path d="M86.46,73.18a2.18,2.18,0,1,1-2.13-2.63A2.42,2.42,0,0,1,86.46,73.18Z" style="fill: #fff"/>
      <path d="M84.33,76a2.88,2.88,0,1,1,2.33-2.83A2.62,2.62,0,0,1,84.33,76Zm0-5.25a2.49,2.49,0,1,0,1.92,2.42A2.22,2.22,0,0,0,84.33,70.76Z" style="fill: #231f20"/>
    </g>
    <g>
      <path d="M80.43,79.52a2.18,2.18,0,1,1-2.13-2.63A2.42,2.42,0,0,1,80.43,79.52Z" style="fill: #fff"/>
      <path d="M78.3,82.35a2.88,2.88,0,1,1,2.33-2.83A2.62,2.62,0,0,1,78.3,82.35Zm0-5.25a2.49,2.49,0,1,0,1.92,2.42A2.21,2.21,0,0,0,78.3,77.1Z" style="fill: #231f20"/>
    </g>
    <g>
      <path d="M70.8,82.89a2.17,2.17,0,1,1-2.13-2.62A2.42,2.42,0,0,1,70.8,82.89Z" style="fill: #fff"/>
      <path d="M68.67,85.73A2.89,2.89,0,1,1,71,82.89,2.63,2.63,0,0,1,68.67,85.73Zm0-5.26a2.48,2.48,0,1,0,1.93,2.42A2.22,2.22,0,0,0,68.67,80.47Z" style="fill: #231f20"/>
    </g>
    <g>
      <path d="M90.26,82.89a2.18,2.18,0,1,1-2.13-2.62A2.42,2.42,0,0,1,90.26,82.89Z" style="fill: #fff"/>
      <path d="M88.13,85.73a2.89,2.89,0,1,1,2.34-2.84A2.63,2.63,0,0,1,88.13,85.73Zm0-5.26a2.48,2.48,0,1,0,1.93,2.42A2.22,2.22,0,0,0,88.13,80.47Z" style="fill: #231f20"/>
    </g>
    <g>
      <path d="M84.33,90.41a2.18,2.18,0,1,1-2.13-2.62A2.42,2.42,0,0,1,84.33,90.41Z" style="fill: #fff"/>
      <path d="M82.2,93.25a2.89,2.89,0,1,1,2.33-2.84A2.63,2.63,0,0,1,82.2,93.25Zm0-5.25a2.48,2.48,0,1,0,1.92,2.41A2.22,2.22,0,0,0,82.2,88Z" style="fill: #231f20"/>
    </g>
    <g>
      <path d="M94.52,94.71a2.18,2.18,0,1,1-2.13-2.63A2.42,2.42,0,0,1,94.52,94.71Z" style="fill: #fff"/>
      <path d="M92.39,97.54a2.89,2.89,0,1,1,2.34-2.83A2.62,2.62,0,0,1,92.39,97.54Zm0-5.25a2.48,2.48,0,1,0,1.93,2.42A2.21,2.21,0,0,0,92.39,92.29Z" style="fill: #231f20"/>
    </g>
    <g>
      <path d="M76.52,89.46a2.18,2.18,0,1,1-2.13-2.63A2.42,2.42,0,0,1,76.52,89.46Z" style="fill: #fff"/>
      <path d="M74.39,92.29a2.89,2.89,0,1,1,2.33-2.83A2.62,2.62,0,0,1,74.39,92.29Zm0-5.25a2.48,2.48,0,1,0,1.92,2.42A2.21,2.21,0,0,0,74.39,87Z" style="fill: #231f20"/>
    </g>
    <g>
      <path d="M66.55,94.71a2.18,2.18,0,1,1-2.14-2.63A2.42,2.42,0,0,1,66.55,94.71Z" style="fill: #fff"/>
      <path d="M64.41,97.54a2.89,2.89,0,1,1,2.34-2.83A2.62,2.62,0,0,1,64.41,97.54Zm0-5.25a2.48,2.48,0,1,0,1.93,2.42A2.22,2.22,0,0,0,64.41,92.29Z" style="fill: #231f20"/>
    </g>
    <g>
      <path d="M81.24,96.86a2.18,2.18,0,1,1-2.13-2.62A2.42,2.42,0,0,1,81.24,96.86Z" style="fill: #fff"/>
      <path d="M79.12,99.69a2.88,2.88,0,1,1,2.33-2.83A2.62,2.62,0,0,1,79.12,99.69Zm0-5.24A2.48,2.48,0,1,0,81,96.86,2.21,2.21,0,0,0,79.12,94.45Z" style="fill: #231f20"/>
    </g>
  </g>
  <g>
    <path d="M43.23,28V12h4.49l2.7,10.89L53.08,12h4.5V28H54.79V15.43L51.84,28H49L46,15.43V28Z" style="fill: #fff"/>
    <path d="M60.47,28V12h3V28Z" style="fill: #fff"/>
    <path d="M65.56,22.8l2.92-.3a4,4,0,0,0,1.07,2.32,3.11,3.11,0,0,0,2.18.74,3.17,3.17,0,0,0,2.18-.66,2,2,0,0,0,.73-1.54,1.52,1.52,0,0,0-.31-1,2.47,2.47,0,0,0-1.07-.69c-.36-.13-1.16-.36-2.41-.7a7.76,7.76,0,0,1-3.38-1.58,4.27,4.27,0,0,1-1.37-3.21,4.33,4.33,0,0,1,.65-2.28,4,4,0,0,1,1.85-1.62,7,7,0,0,1,2.92-.55,6,6,0,0,1,4.21,1.31,4.81,4.81,0,0,1,1.49,3.52l-3,.14A2.84,2.84,0,0,0,73.39,15a2.85,2.85,0,0,0-1.9-.53,3.26,3.26,0,0,0-2,.57A1.19,1.19,0,0,0,69,16a1.28,1.28,0,0,0,.44,1A7.6,7.6,0,0,0,72.17,18a13.67,13.67,0,0,1,3.24,1.15,4.33,4.33,0,0,1,1.64,1.62,5,5,0,0,1,.59,2.55,4.91,4.91,0,0,1-.71,2.57,4.33,4.33,0,0,1-2,1.78,7.89,7.89,0,0,1-3.24.58,6.13,6.13,0,0,1-4.32-1.4A6.27,6.27,0,0,1,65.56,22.8Z" style="fill: #fff"/>
    <path d="M83.51,28V14.73H79.1V12H90.91v2.7h-4.4V28Z" style="fill: #fff"/>
  </g>
  <g>
    <path d="M6.08,93v-16h4.49L13.26,88l2.67-10.89h4.5V93H17.64V80.47L14.69,93H11.8L8.87,80.47V93Z" style="fill: #fff"/>
    <path d="M22.78,80.13V77.29h9.74v2.22a16.59,16.59,0,0,0-2.46,3.66,22.52,22.52,0,0,0-1.9,5.07,20.24,20.24,0,0,0-.64,4.8H24.77a21.92,21.92,0,0,1,1.28-6.75,23.19,23.19,0,0,1,3.2-6.16Z" style="fill: #fff"/>
  </g>
</svg>
