<?xml version="1.0" encoding="utf-8"?>
<!-- Generator: Adobe Illustrator 27.0.1, SVG Export Plug-In . SVG Version: 6.00 Build 0)  -->
<svg version="1.1" id="New_VCP" xmlns="http://www.w3.org/2000/svg" xmlns:xlink="http://www.w3.org/1999/xlink" x="0px" y="0px"
	 viewBox="0 0 100 100" style="enable-background:new 0 0 100 100;" xml:space="preserve">
<style type="text/css">
	.st0{fill:#FFFFFF;}
</style>
<g>
	<path class="st0" d="M93,99.5H7c-3.6,0-6.5-2.9-6.5-6.5V7c0-3.6,2.9-6.5,6.5-6.5h86c3.6,0,6.5,2.9,6.5,6.5v86
		C99.5,96.6,96.6,99.5,93,99.5z"/>
	<path d="M93.1,100H6.9C3.1,100,0,96.9,0,93.1V6.9C0,3.1,3.1,0,6.9,0h86.1c3.8,0,6.9,3.1,6.9,6.9v86.1C100,96.9,96.9,100,93.1,100z
		 M6.9,1C3.7,1,1,3.7,1,6.9v86.1C1,96.3,3.7,99,6.9,99h86.1c3.3,0,5.9-2.7,5.9-5.9V6.9C99,3.7,96.3,1,93.1,1H6.9z"/>
</g>
<polygon points="83.1,93.6 79.1,93.6 79.1,57 56.8,34.7 9.7,34.7 9.7,30.7 58.5,30.7 83.1,55.4 "/>
<g>
	<path d="M17.4,22.3c-1.2,0.6-2.7,0.9-4.6,0.9c-2.5,0-4.4-0.7-5.8-2.2s-2.1-3.4-2.1-5.8c0-2.6,0.8-4.7,2.4-6.3
		c1.6-1.6,3.7-2.4,6.2-2.4c1.6,0,2.9,0.2,4,0.6v3.5c-1.1-0.6-2.3-1-3.7-1c-1.5,0-2.7,0.5-3.7,1.4s-1.4,2.2-1.4,3.9
		c0,1.6,0.4,2.8,1.3,3.7c0.9,0.9,2.1,1.4,3.5,1.4c1.4,0,2.7-0.3,3.9-1V22.3z"/>
	<path d="M30.9,22.8h-3.5v-6.5c0-1.7-0.6-2.5-1.8-2.5c-0.6,0-1.1,0.2-1.5,0.7s-0.6,1.1-0.6,1.8v6.6h-3.5v-17h3.5V13h0
		c0.9-1.3,2-2,3.5-2c2.6,0,3.9,1.6,3.9,4.7V22.8z"/>
	<path d="M43.2,22.8h-3.4v-1.7h0c-0.8,1.3-1.9,1.9-3.4,1.9c-1.1,0-2-0.3-2.6-0.9c-0.6-0.6-1-1.5-1-2.5c0-2.2,1.3-3.5,4-3.9l3.1-0.4
		c0-1.3-0.7-1.9-2-1.9c-1.4,0-2.7,0.4-3.9,1.2V12c0.5-0.3,1.2-0.5,2-0.7c0.9-0.2,1.6-0.3,2.3-0.3c3.3,0,4.9,1.6,4.9,4.9V22.8z
		 M39.9,18.2v-0.8l-2.1,0.3c-1.2,0.1-1.7,0.7-1.7,1.6c0,0.4,0.1,0.7,0.4,1c0.3,0.3,0.7,0.4,1.1,0.4c0.7,0,1.2-0.2,1.6-0.7
		C39.7,19.4,39.9,18.9,39.9,18.2z"/>
	<path d="M64.3,22.8h-3.5v-6.6c0-1.7-0.6-2.5-1.8-2.5c-0.6,0-1.1,0.3-1.4,0.8c-0.4,0.5-0.5,1.1-0.5,1.9v6.4h-3.5v-6.6
		c0-1.6-0.6-2.4-1.8-2.4c-0.6,0-1.1,0.2-1.5,0.7c-0.4,0.5-0.5,1.1-0.5,2v6.4H46V11.3h3.5v1.8h0c0.4-0.6,0.9-1.1,1.5-1.5
		c0.7-0.4,1.4-0.6,2.2-0.6c1.6,0,2.7,0.7,3.3,2.1c0.9-1.4,2.2-2.1,3.9-2.1c2.5,0,3.8,1.5,3.8,4.6V22.8z"/>
	<path d="M74.6,8.5c-0.5-0.2-0.9-0.3-1.3-0.3c-1.1,0-1.7,0.6-1.7,1.9v1.2h2.6v2.6h-2.6v8.9h-3.5v-8.9h-1.9v-2.6h1.9V9.9
		c0-1.3,0.4-2.4,1.3-3.2s2-1.2,3.5-1.2c0.7,0,1.3,0.1,1.8,0.2V8.5z"/>
	<path d="M86.3,18.1h-7.5c0.1,1.7,1.2,2.5,3.2,2.5c1.3,0,2.4-0.3,3.3-0.9v2.6c-1.1,0.6-2.4,0.9-4.1,0.9c-1.9,0-3.3-0.5-4.3-1.5
		c-1-1-1.5-2.5-1.5-4.3c0-1.9,0.6-3.4,1.7-4.5S79.4,11,81,11c1.7,0,3,0.5,3.9,1.5s1.4,2.3,1.4,4.1V18.1z M83,15.9
		c0-1.6-0.7-2.5-2-2.5c-0.6,0-1.1,0.2-1.5,0.7c-0.4,0.5-0.7,1.1-0.8,1.8H83z"/>
	<path d="M95.9,14.5c-0.4-0.2-0.9-0.3-1.5-0.3c-0.8,0-1.4,0.3-1.8,0.8c-0.4,0.6-0.7,1.3-0.7,2.3v5.5h-3.5V11.3h3.5v2.1h0
		c0.6-1.6,1.6-2.3,3-2.3c0.4,0,0.7,0,0.9,0.1V14.5z"/>
</g>
</svg>
