<?xml version="1.0" encoding="utf-8"?>
<!-- Generator: Adobe Illustrator 27.0.0, SVG Export Plug-In . SVG Version: 6.00 Build 0)  -->
<svg version="1.1" id="New_VCP" xmlns="http://www.w3.org/2000/svg" xmlns:xlink="http://www.w3.org/1999/xlink" x="0px" y="0px"
	 viewBox="0 0 100 100" style="enable-background:new 0 0 100 100;" xml:space="preserve">
<style type="text/css">
	.st0{fill:#FFFFFF;}
</style>
<path class="st0" d="M6,0h88c3.3,0,6,2.7,6,6v88c0,3.3-2.7,6-6,6H6c-3.3,0-6-2.7-6-6V6C0,2.7,2.7,0,6,0z"/>
<g>
	<path d="M37.7,55.4c0,1.6-0.4,3.1-1.2,4.4c-0.8,1.3-1.9,2.3-3.3,3c-1.5,0.7-3.2,1.1-5.1,1.1c-1.1,0-2.2-0.1-3.4-0.3
		c-1.2-0.2-2.2-0.4-2.9-0.7v-5.5c1.7,0.9,3.4,1.3,5.3,1.3c1.2,0,2.1-0.2,2.8-0.7c0.6-0.4,0.9-1.1,0.9-1.9c0-1.7-1.5-2.6-4.3-2.6
		c-1.5,0-2.8,0.1-4,0.4l0.9-14.3h13.4v5.5h-8l-0.2,3.3c0.6-0.1,1.2-0.1,1.8-0.1c2.3,0,4.1,0.6,5.5,1.9
		C37.1,51.5,37.7,53.2,37.7,55.4z"/>
	<path d="M59.3,51.3c0,4.1-0.8,7.2-2.3,9.3s-3.8,3.2-6.8,3.2c-3.1,0-5.3-1-6.8-2.9s-2.3-5-2.3-9.1c0-4.1,0.8-7.2,2.4-9.4
		c1.6-2.1,4-3.2,7.1-3.2C56.4,39.2,59.3,43.3,59.3,51.3z M52.3,51.3c0-2.4-0.2-4.1-0.5-5.2s-0.9-1.7-1.6-1.7c-1.5,0-2.2,2.4-2.2,7.3
		c0,2.4,0.2,4.1,0.5,5.3c0.3,1.1,0.9,1.7,1.6,1.7C51.6,58.7,52.3,56.2,52.3,51.3z"/>
	<path d="M74.3,45.3c0,2-0.6,3.5-1.7,4.7c-1.1,1.2-2.7,1.7-4.6,1.7c-1.8,0-3.2-0.5-4.3-1.6s-1.6-2.5-1.6-4.3c0-1.9,0.6-3.5,1.7-4.7
		s2.7-1.8,4.6-1.8c1.8,0,3.3,0.5,4.3,1.6C73.8,42,74.3,43.5,74.3,45.3z M70.6,63.5h-5.2l15.3-23.8h5.2L70.6,63.5z M69.9,45.5
		c0-0.8-0.1-1.4-0.4-1.8S68.8,43,68.3,43c-0.6,0-1,0.2-1.3,0.7c-0.3,0.5-0.5,1.1-0.5,1.9c0,0.8,0.1,1.4,0.4,1.8s0.7,0.6,1.3,0.6
		c0.6,0,1-0.2,1.3-0.7C69.8,47,69.9,46.3,69.9,45.5z M89.2,57.4c0,1.9-0.6,3.5-1.7,4.7c-1.1,1.2-2.7,1.8-4.6,1.8
		c-1.8,0-3.2-0.5-4.3-1.6S77,59.6,77,57.8c0-2,0.6-3.5,1.7-4.7c1.2-1.2,2.7-1.7,4.6-1.7c1.8,0,3.3,0.5,4.3,1.6
		C88.7,54,89.2,55.5,89.2,57.4z M84.9,57.6c0-0.8-0.1-1.4-0.4-1.9S83.7,55,83.2,55c-0.6,0-1,0.2-1.3,0.7c-0.3,0.5-0.5,1.1-0.5,1.9
		c0,0.8,0.1,1.4,0.4,1.8s0.7,0.6,1.3,0.6c0.6,0,1-0.2,1.3-0.7C84.7,59,84.9,58.4,84.9,57.6z"/>
</g>
</svg>
