<?xml version="1.0" encoding="utf-8"?>
<!-- Generator: Adobe Illustrator 25.4.1, SVG Export Plug-In . SVG Version: 6.00 Build 0)  -->
<svg version="1.1" id="New_VCP" xmlns="http://www.w3.org/2000/svg" xmlns:xlink="http://www.w3.org/1999/xlink" x="0px" y="0px"
	 viewBox="0 0 100 100" style="enable-background:new 0 0 100 100;" xml:space="preserve">
<style type="text/css">
	.st0{fill:#FFC70E;}
</style>
<path class="st0" d="M100,94c0,3.31-2.69,6-6,6H6c-3.31,0-6-2.69-6-6V6c0-3.31,2.69-6,6-6h88c3.31,0,6,2.69,6,6V94z"/>
<g>
	<path d="M26.01,25.78V22.2h7.15v7.32c-1.37,1.07-2.58,1.8-3.63,2.19s-2.3,0.58-3.74,0.58c-1.78,0-3.22-0.35-4.34-1.04
		c-1.12-0.7-1.99-1.73-2.6-3.11c-0.62-1.38-0.92-2.95-0.92-4.73c0-1.88,0.34-3.51,1.01-4.89c0.67-1.39,1.66-2.44,2.96-3.16
		c1.01-0.55,2.38-0.83,4.09-0.83c1.65,0,2.89,0.17,3.71,0.52c0.82,0.34,1.5,0.88,2.04,1.6s0.95,1.64,1.22,2.75l-4.46,0.91
		c-0.18-0.65-0.5-1.14-0.93-1.49c-0.44-0.34-1-0.52-1.68-0.52c-1.01,0-1.82,0.4-2.42,1.21c-0.6,0.81-0.9,2.09-0.9,3.84
		c0,1.86,0.3,3.19,0.91,3.98c0.61,0.8,1.46,1.2,2.55,1.2c0.52,0,1.01-0.09,1.48-0.26c0.47-0.17,1.01-0.46,1.61-0.88v-1.62H26.01z"/>
	<path d="M35.32,23.42c0-2.8,0.68-4.99,2.04-6.55s3.26-2.34,5.69-2.34c2.49,0,4.41,0.77,5.76,2.3c1.35,1.54,2.02,3.69,2.02,6.45
		c0,2.01-0.29,3.65-0.88,4.94s-1.44,2.29-2.55,3c-1.11,0.71-2.5,1.07-4.16,1.07c-1.69,0-3.08-0.31-4.19-0.93
		c-1.11-0.62-2-1.59-2.69-2.93C35.67,27.1,35.32,25.43,35.32,23.42z M39.95,23.44c0,1.73,0.28,2.98,0.84,3.74
		c0.56,0.76,1.33,1.14,2.29,1.14c0.99,0,1.76-0.37,2.31-1.11s0.82-2.07,0.82-4c0-1.62-0.28-2.8-0.85-3.54s-1.34-1.12-2.31-1.12
		c-0.93,0-1.68,0.38-2.25,1.14S39.95,21.69,39.95,23.44z"/>
	<path d="M51.72,14.82h14.06v4.24h-4.72V32h-4.62V19.06h-4.72V14.82z"/>
	<path d="M66.58,23.42c0-2.8,0.68-4.99,2.04-6.55c1.36-1.56,3.26-2.34,5.69-2.34c2.49,0,4.41,0.77,5.76,2.3
		c1.35,1.54,2.02,3.69,2.02,6.45c0,2.01-0.29,3.65-0.88,4.94s-1.44,2.29-2.55,3s-2.5,1.07-4.16,1.07c-1.69,0-3.08-0.31-4.19-0.93
		s-2-1.59-2.69-2.93C66.92,27.1,66.58,25.43,66.58,23.42z M71.2,23.44c0,1.73,0.28,2.98,0.84,3.74s1.33,1.14,2.29,1.14
		c0.99,0,1.76-0.37,2.31-1.11c0.54-0.74,0.82-2.07,0.82-4c0-1.62-0.28-2.8-0.85-3.54c-0.57-0.75-1.34-1.12-2.31-1.12
		c-0.93,0-1.68,0.38-2.25,1.14C71.48,20.44,71.2,21.69,71.2,23.44z"/>
	<path d="M26.7,40.82h5.09l2.65,5.29l2.58-5.29h5.04l-4.66,8.32L42.5,58h-5.2l-2.96-5.52L31.4,58h-5.16l5.16-8.95L26.7,40.82z"/>
	<path d="M42.47,40.82h5.14l3.02,5.8l3.02-5.8h5.11l-5.82,9.98V58H48.3V50.8L42.47,40.82z"/>
	<path d="M59.87,40.82h13.09v3.43l-8.4,10.05h8.71V58h-14.2v-3.56l8.31-9.95h-7.51V40.82z"/>
	<path d="M16.72,66.82h4.62v6.01h5.05v-6.01h4.64V84H26.4v-6.95h-5.05V84h-4.62V66.82z"/>
	<path d="M33.54,75.42c0-2.8,0.68-4.99,2.04-6.55s3.26-2.34,5.69-2.34c2.49,0,4.41,0.77,5.76,2.3c1.35,1.54,2.02,3.69,2.02,6.45
		c0,2.01-0.29,3.65-0.88,4.94c-0.59,1.29-1.44,2.29-2.55,3c-1.11,0.71-2.5,1.07-4.16,1.07c-1.69,0-3.08-0.31-4.19-0.93
		c-1.11-0.62-2-1.59-2.69-2.93C33.88,79.1,33.54,77.43,33.54,75.42z M38.16,75.44c0,1.73,0.28,2.98,0.84,3.74
		c0.56,0.76,1.33,1.14,2.29,1.14c0.99,0,1.76-0.37,2.31-1.11s0.82-2.07,0.82-4c0-1.62-0.28-2.8-0.85-3.54s-1.34-1.12-2.31-1.12
		c-0.93,0-1.68,0.38-2.25,1.14S38.16,73.69,38.16,75.44z"/>
	<path d="M51.48,66.82h6.08l2.34,10.45l2.33-10.45h6.08V84h-3.79V70.9L61.61,84h-3.43l-2.91-13.1V84h-3.79V66.82z"/>
	<path d="M71.25,66.82h12.39v3.67h-7.76v2.73h7.2v3.5h-7.2v3.39h7.98V84H71.25V66.82z"/>
</g>
</svg>
