<?xml version="1.0" encoding="utf-8"?>
<!-- Generator: Adobe Illustrator 24.1.1, SVG Export Plug-In . SVG Version: 6.00 Build 0)  -->
<svg version="1.1" xmlns="http://www.w3.org/2000/svg" xmlns:xlink="http://www.w3.org/1999/xlink" x="0px" y="0px" width="100px"
	 height="100px" viewBox="0 0 100 100" style="enable-background:new 0 0 100 100;" xml:space="preserve">
<style type="text/css">
	.st0{fill:#FFC70E;}
	.st1{fill:#231F20;}
</style>
<g id="New_VCP">
	<path class="st0" d="M0,51.9L35.7,100l58.2,0c3.4,0,6.1-2.7,6.1-6l0-88c0-3.3-2.7-6-6.1-6l-59,0L0,51.9z"/>
	<g>
		<path class="st1" d="M36.7,37.4h7.7l4,6.9l3.9-6.9h7.6l-7,10.8l7.7,11.5h-7.9l-4.5-7.2l-4.5,7.2h-7.8l7.8-11.6L36.7,37.4z"/>
	</g>
</g>
<g id="Isolation_Mode">
	<path class="st1" d="M64.1,46.1H70v-5.9h5v5.9h5.9v4.9H75v5.8h-5v-5.8h-5.9V46.1z"/>
</g>
</svg>
