<?xml version="1.0" encoding="utf-8"?>
<!-- Generator: Adobe Illustrator 25.4.1, SVG Export Plug-In . SVG Version: 6.00 Build 0)  -->
<svg version="1.1" id="New_VCP" xmlns="http://www.w3.org/2000/svg" xmlns:xlink="http://www.w3.org/1999/xlink" x="0px" y="0px"
	 viewBox="0 0 100 100" style="enable-background:new 0 0 100 100;" xml:space="preserve">
<style type="text/css">
	.st0{fill:#FFFFFF;}
</style>
<g>
	<path class="st0" d="M99.5,93.56c0,3.28-2.66,5.94-5.94,5.94H6.43c-3.28,0-5.94-2.66-5.94-5.94V6.44c0-3.28,2.66-5.94,5.94-5.94
		h87.13c3.28,0,5.94,2.66,5.94,5.94V93.56z"/>
	<path d="M93.56,100H6.43C2.89,100,0,97.11,0,93.56V6.44C0,2.89,2.89,0,6.43,0h87.13C97.11,0,100,2.89,100,6.44v87.13
		C100,97.11,97.11,100,93.56,100z M6.43,0.99c-3,0-5.44,2.44-5.44,5.45v87.13c0,3,2.44,5.45,5.44,5.45h87.13
		c3,0,5.45-2.44,5.45-5.45V6.44c0-3-2.44-5.45-5.45-5.45H6.43z"/>
</g>
<g>
	<path d="M28.08,26.31l4.4-0.32c0.1,0.82,0.29,1.45,0.58,1.88c0.48,0.7,1.16,1.04,2.04,1.04c0.66,0,1.17-0.18,1.53-0.53
		s0.54-0.77,0.54-1.24c0-0.45-0.17-0.84-0.51-1.2s-1.13-0.68-2.37-1c-2.03-0.52-3.47-1.22-4.34-2.09c-0.87-0.87-1.31-1.97-1.31-3.32
		c0-0.88,0.22-1.72,0.67-2.5s1.12-1.4,2.01-1.85c0.9-0.45,2.12-0.67,3.68-0.67c1.91,0,3.37,0.41,4.37,1.22s1.6,2.12,1.79,3.9
		l-4.36,0.29c-0.12-0.77-0.36-1.34-0.73-1.69s-0.88-0.53-1.54-0.53c-0.54,0-0.94,0.13-1.21,0.39c-0.27,0.26-0.41,0.58-0.41,0.96
		c0,0.27,0.11,0.52,0.34,0.74c0.22,0.23,0.73,0.44,1.55,0.63c2.02,0.5,3.47,1.01,4.34,1.52s1.51,1.15,1.91,1.9
		c0.4,0.76,0.6,1.61,0.6,2.54c0,1.1-0.27,2.12-0.8,3.05s-1.27,1.63-2.23,2.12c-0.95,0.48-2.15,0.72-3.6,0.72
		c-2.54,0-4.31-0.56-5.29-1.69S28.21,28.05,28.08,26.31z"/>
	<path d="M43.97,14.82h12.39v3.67h-7.76v2.73h7.2v3.5h-7.2v3.39h7.98V32H43.97V14.82z"/>
	<path d="M58.03,14.82h14.06v4.24h-4.72V32h-4.62V19.06h-4.72V14.82z"/>
	<path d="M26.7,40.82h5.09l2.65,5.29l2.58-5.29h5.04l-4.66,8.32L42.5,58h-5.2l-2.96-5.52L31.4,58h-5.16l5.16-8.95L26.7,40.82z"/>
	<path d="M42.47,40.82h5.14l3.02,5.8l3.02-5.8h5.11l-5.82,9.98V58H48.3V50.8L42.47,40.82z"/>
	<path d="M59.87,40.82h13.09v3.43l-8.4,10.05h8.71V58h-14.2v-3.56l8.31-9.95h-7.51V40.82z"/>
	<path d="M16.72,66.82h4.62v6.01h5.05v-6.01h4.64V84H26.4v-6.95h-5.05V84h-4.62V66.82z"/>
	<path d="M33.54,75.42c0-2.8,0.68-4.99,2.04-6.55s3.26-2.34,5.69-2.34c2.49,0,4.41,0.77,5.76,2.3c1.35,1.54,2.02,3.69,2.02,6.45
		c0,2.01-0.29,3.65-0.88,4.94c-0.59,1.29-1.44,2.29-2.55,3c-1.11,0.71-2.5,1.07-4.16,1.07c-1.69,0-3.08-0.31-4.19-0.93
		c-1.11-0.62-2-1.59-2.69-2.93C33.88,79.1,33.54,77.43,33.54,75.42z M38.16,75.44c0,1.73,0.28,2.98,0.84,3.74
		c0.56,0.76,1.33,1.14,2.29,1.14c0.99,0,1.76-0.37,2.31-1.11s0.82-2.07,0.82-4c0-1.62-0.28-2.8-0.85-3.54s-1.34-1.12-2.31-1.12
		c-0.93,0-1.68,0.38-2.25,1.14S38.16,73.69,38.16,75.44z"/>
	<path d="M51.48,66.82h6.08l2.34,10.45l2.33-10.45h6.08V84h-3.79V70.9L61.61,84h-3.43l-2.91-13.1V84h-3.79V66.82z"/>
	<path d="M71.25,66.82h12.39v3.67h-7.76v2.73h7.2v3.5h-7.2v3.39h7.98V84H71.25V66.82z"/>
</g>
</svg>
