<svg id="New_VCP" data-name="New VCP" xmlns="http://www.w3.org/2000/svg" width="100" height="100" viewBox="0 0 100 100">
  <title>spin_med</title>
  <rect width="100" height="100" rx="6" style="fill: #252d6b"/>
  <g>
    <path d="M20.57,37.85l4.08-.4a5,5,0,0,0,1.49,3,4.54,4.54,0,0,0,3,1,4.66,4.66,0,0,0,3-.85,2.55,2.55,0,0,0,1-2,1.86,1.86,0,0,0-.43-1.25,3.36,3.36,0,0,0-1.51-.9c-.49-.17-1.61-.47-3.36-.91a11.39,11.39,0,0,1-4.73-2,5.42,5.42,0,0,1-1.91-4.18,5.33,5.33,0,0,1,.9-3,5.63,5.63,0,0,1,2.59-2.11,10.43,10.43,0,0,1,4.09-.72q3.9,0,5.88,1.71a6.08,6.08,0,0,1,2.08,4.58l-4.2.18a3.58,3.58,0,0,0-1.15-2.3,4.19,4.19,0,0,0-2.65-.7,4.77,4.77,0,0,0-2.86.75A1.5,1.5,0,0,0,25.33,29,1.61,1.61,0,0,0,26,30.26a11.13,11.13,0,0,0,3.85,1.39,20.63,20.63,0,0,1,4.53,1.49,5.84,5.84,0,0,1,2.29,2.11,6.2,6.2,0,0,1,.83,3.31,6.12,6.12,0,0,1-1,3.34,5.92,5.92,0,0,1-2.8,2.31,11.69,11.69,0,0,1-4.52.76,9,9,0,0,1-6.05-1.82A8,8,0,0,1,20.57,37.85Z" style="fill: #fff"/>
    <path d="M41,44.6V23.84H47.7a24.1,24.1,0,0,1,5,.32,5.42,5.42,0,0,1,3,2,6.39,6.39,0,0,1,1.21,4,6.7,6.7,0,0,1-.7,3.22,5.69,5.69,0,0,1-1.76,2,6.2,6.2,0,0,1-2.17,1,24.86,24.86,0,0,1-4.35.29H45.17V44.6Zm4.19-17.24v5.89h2.29a10.78,10.78,0,0,0,3.32-.33,2.71,2.71,0,0,0,1.78-2.63,2.65,2.65,0,0,0-.67-1.87,2.86,2.86,0,0,0-1.68-.92,19.51,19.51,0,0,0-3-.14Z" style="fill: #fff"/>
    <path d="M60.19,44.6V23.84h4.19V44.6Z" style="fill: #fff"/>
    <path d="M68.42,44.6V23.84H72.5L81,37.71V23.84h3.9V44.6H80.68L72.31,31.07V44.6Z" style="fill: #fff"/>
  </g>
  <g>
    <path d="M24.66,74.5V53.74h6.28L34.7,67.9l3.73-14.16h6.29V74.5h-3.9V58.16L36.7,74.5h-4L28.56,58.16V74.5Z" style="fill: #fff"/>
    <path d="M48.88,74.5V53.74H64.27v3.51H53.07v4.6H63.49v3.5H53.07V71h11.6v3.5Z" style="fill: #fff"/>
    <path d="M68.21,53.74h7.66a14.7,14.7,0,0,1,3.95.4A6.91,6.91,0,0,1,83,56.05a9,9,0,0,1,2,3.36,15.42,15.42,0,0,1,.68,4.91A13.52,13.52,0,0,1,85,68.74a9.13,9.13,0,0,1-2.22,3.66,7.41,7.41,0,0,1-3,1.66,12.73,12.73,0,0,1-3.71.44H68.21Zm4.19,3.51V71h3.13a10.89,10.89,0,0,0,2.53-.2,3.86,3.86,0,0,0,1.7-.86,4.45,4.45,0,0,0,1.09-2,13.3,13.3,0,0,0,.43-3.81,12.14,12.14,0,0,0-.43-3.69,4.7,4.7,0,0,0-1.19-2,4,4,0,0,0-1.94-1,19.09,19.09,0,0,0-3.44-.2Z" style="fill: #fff"/>
  </g>
</svg>
