<?xml version="1.0" encoding="UTF-8" standalone="no"?>
<!DOCTYPE svg PUBLIC "-//W3C//DTD SVG 1.1//EN" "http://www.w3.org/Graphics/SVG/1.1/DTD/svg11.dtd">
<svg width="100%" height="100%" viewBox="0 0 300 300" version="1.1" xmlns="http://www.w3.org/2000/svg" xmlns:xlink="http://www.w3.org/1999/xlink" xml:space="preserve" xmlns:serif="http://www.serif.com/" style="fill-rule:evenodd;clip-rule:evenodd;stroke-linecap:round;stroke-linejoin:round;stroke-miterlimit:1.5;">
    <g transform="matrix(1,0,0,1,-2470.67,-408.992)">
        <g id="Layer-1" serif:id="Layer 1">
        </g>
        <g transform="matrix(0.301848,0,0,0.582975,2227.86,-647.704)">
            <rect x="804.411" y="1812.59" width="993.877" height="514.602" style="fill:none;"/>
            <clipPath id="_clip1">
                <rect x="804.411" y="1812.59" width="993.877" height="514.602"/>
            </clipPath>
            <g clip-path="url(#_clip1)">
                <g transform="matrix(3.31292,0,0,1.71534,753.061,-2685.89)">
                    <rect x="27" y="2634" width="277" height="277" style="fill:#888;stroke:#000;stroke-width:8.33px;"/>
                </g>
                <g transform="matrix(3.31292,0,0,1.71534,-400.4,1796.3)">
                    <g transform="matrix(62.5,0,0,62.5,516.432,122.119)">
                        <path d="M0.055,-0.716L0.681,-0.716L0.681,-0.573L0.28,-0.154L0.696,-0.154L0.696,-0L0.017,-0L0.017,-0.148L0.414,-0.563L0.055,-0.563L0.055,-0.716Z" style="fill:#0b0a08;fill-rule:nonzero;"/>
                    </g>
                    <g transform="matrix(62.5,0,0,62.5,444.06,184.619)">
                        <path d="M0.055,-0.716L0.681,-0.716L0.681,-0.573L0.28,-0.154L0.696,-0.154L0.696,-0L0.017,-0L0.017,-0.148L0.414,-0.563L0.055,-0.563L0.055,-0.716Z" style="fill:#0b0a08;fill-rule:nonzero;"/>
                    </g>
                    <g transform="matrix(62.5,0,0,62.5,489.195,184.619)">
                        <path d="M0.073,-0.716L0.666,-0.716L0.666,-0.563L0.294,-0.563L0.294,-0.449L0.639,-0.449L0.639,-0.303L0.294,-0.303L0.294,-0.162L0.676,-0.162L0.676,-0L0.073,-0L0.073,-0.716Z" style="fill:#0b0a08;fill-rule:nonzero;"/>
                    </g>
                    <g transform="matrix(62.5,0,0,62.5,534.331,184.619)">
                        <path d="M0.076,-0L0.076,-0.716L0.445,-0.716C0.513,-0.716 0.565,-0.71 0.602,-0.698C0.638,-0.687 0.667,-0.665 0.689,-0.633C0.711,-0.601 0.722,-0.563 0.722,-0.517C0.722,-0.477 0.714,-0.443 0.697,-0.414C0.68,-0.385 0.657,-0.362 0.627,-0.344C0.608,-0.333 0.582,-0.323 0.549,-0.316C0.576,-0.307 0.595,-0.298 0.607,-0.29C0.615,-0.284 0.627,-0.271 0.642,-0.252C0.658,-0.233 0.668,-0.218 0.673,-0.208L0.78,-0L0.53,-0L0.412,-0.219C0.397,-0.247 0.384,-0.265 0.372,-0.274C0.356,-0.285 0.338,-0.291 0.318,-0.291L0.298,-0.291L0.298,-0L0.076,-0ZM0.298,-0.426L0.392,-0.426C0.402,-0.426 0.421,-0.429 0.45,-0.436C0.465,-0.438 0.477,-0.446 0.486,-0.458C0.495,-0.47 0.5,-0.484 0.5,-0.5C0.5,-0.523 0.493,-0.54 0.478,-0.553C0.463,-0.565 0.436,-0.571 0.396,-0.571L0.298,-0.571L0.298,-0.426Z" style="fill:#0b0a08;fill-rule:nonzero;"/>
                    </g>
                    <g transform="matrix(62.5,0,0,62.5,581.877,184.619)">
                        <path d="M0.045,-0.357C0.045,-0.474 0.078,-0.565 0.143,-0.63C0.208,-0.695 0.299,-0.728 0.415,-0.728C0.534,-0.728 0.626,-0.696 0.69,-0.632C0.755,-0.568 0.787,-0.479 0.787,-0.363C0.787,-0.28 0.773,-0.211 0.745,-0.157C0.717,-0.104 0.676,-0.062 0.623,-0.032C0.57,-0.003 0.503,0.012 0.424,0.012C0.343,0.012 0.276,-0.001 0.223,-0.026C0.17,-0.052 0.128,-0.093 0.095,-0.148C0.062,-0.204 0.045,-0.274 0.045,-0.357ZM0.267,-0.356C0.267,-0.284 0.28,-0.232 0.307,-0.201C0.334,-0.169 0.37,-0.153 0.417,-0.153C0.464,-0.153 0.501,-0.169 0.527,-0.2C0.553,-0.231 0.566,-0.286 0.566,-0.366C0.566,-0.434 0.552,-0.483 0.525,-0.514C0.498,-0.545 0.461,-0.561 0.415,-0.561C0.37,-0.561 0.334,-0.545 0.307,-0.513C0.28,-0.482 0.267,-0.429 0.267,-0.356Z" style="fill:#0b0a08;fill-rule:nonzero;"/>
                    </g>
                </g>
                <g transform="matrix(4.1769,0,0,2.24479,-1759.16,-170.115)">
                    <g transform="matrix(1.39057,-0.0256326,0.0356556,0.999671,-210.006,18.5641)">
                        <path d="M719,1072L563,1068" style="fill:none;stroke:#000;stroke-width:24.06px;stroke-linecap:butt;stroke-linejoin:miter;"/>
                    </g>
                    <g transform="matrix(-0.0256326,-1.39057,0.999671,-0.0356556,-398.718,1929.29)">
                        <path d="M719,1072L563,1068" style="fill:none;stroke:#06f;stroke-width:23.74px;stroke-linecap:butt;stroke-linejoin:miter;"/>
                    </g>
                </g>
            </g>
        </g>
    </g>
</svg>
