<?xml version="1.0" encoding="utf-8"?>
<!-- Generator: Adobe Illustrator 24.0.2, SVG Export Plug-In . SVG Version: 6.00 Build 0)  -->
<svg version="1.1" id="New_VCP" xmlns="http://www.w3.org/2000/svg" xmlns:xlink="http://www.w3.org/1999/xlink" x="0px" y="0px"
	 width="100px" height="100px" viewBox="0 0 100 100" style="enable-background:new 0 0 100 100;" xml:space="preserve">
<style type="text/css">
	.st0{fill:#ED282E;}
	.st1{fill:#FFFFFF;}
</style>
<path class="st0" d="M100,94c0,3.3-2.7,6-6,6H6c-3.3,0-6-2.7-6-6V6c0-3.3,2.7-6,6-6h88c3.3,0,6,2.7,6,6V94z"/>
<g>
	<path class="st1" d="M10.6,26.6h7.7c1.7,0,2.9,0.4,3.8,1.2c0.8,0.8,1.3,1.9,1.3,3.4c0,1.5-0.5,2.7-1.4,3.6
		c-0.9,0.9-2.3,1.3-4.2,1.3h-2.5v5.6h-4.7V26.6z M15.2,33h1.1c0.9,0,1.5-0.2,1.9-0.5s0.5-0.7,0.5-1.2c0-0.5-0.2-0.9-0.5-1.2
		s-0.9-0.5-1.8-0.5h-1.3V33z"/>
	<path class="st1" d="M25.8,41.7v-15h7.7c1.4,0,2.5,0.1,3.3,0.4s1.4,0.7,1.8,1.4c0.5,0.7,0.7,1.5,0.7,2.4c0,0.8-0.2,1.6-0.5,2.2
		c-0.4,0.6-0.8,1.1-1.5,1.5c-0.4,0.2-0.9,0.4-1.6,0.6c0.6,0.2,1,0.4,1.2,0.6c0.2,0.1,0.4,0.4,0.7,0.8c0.3,0.4,0.5,0.7,0.7,0.9
		l2.2,4.4h-5.2l-2.5-4.6c-0.3-0.6-0.6-1-0.8-1.2c-0.3-0.2-0.7-0.3-1.1-0.3h-0.4v6.1H25.8z M30.5,32.7h2c0.2,0,0.6-0.1,1.2-0.2
		c0.3-0.1,0.6-0.2,0.8-0.5c0.2-0.3,0.3-0.5,0.3-0.9c0-0.5-0.2-0.9-0.5-1.1s-0.9-0.4-1.7-0.4h-2V32.7z"/>
	<path class="st1" d="M41.2,34.2c0-2.5,0.7-4.4,2.1-5.7s3.3-2.1,5.7-2.1c2.5,0,4.4,0.7,5.8,2c1.4,1.3,2,3.2,2,5.6
		c0,1.8-0.3,3.2-0.9,4.3c-0.6,1.1-1.4,2-2.6,2.6c-1.1,0.6-2.5,0.9-4.2,0.9c-1.7,0-3.1-0.3-4.2-0.8c-1.1-0.5-2-1.4-2.7-2.6
		S41.2,35.9,41.2,34.2z M45.8,34.2c0,1.5,0.3,2.6,0.8,3.3c0.6,0.7,1.3,1,2.3,1c1,0,1.8-0.3,2.3-1c0.5-0.6,0.8-1.8,0.8-3.5
		c0-1.4-0.3-2.4-0.9-3.1c-0.6-0.7-1.3-1-2.3-1c-0.9,0-1.7,0.3-2.3,1S45.8,32.6,45.8,34.2z"/>
	<path class="st1" d="M59.2,26.6h8.7c1.4,0,2.6,0.4,3.3,1.1c0.8,0.7,1.2,1.6,1.2,2.7c0,0.9-0.3,1.7-0.8,2.3c-0.4,0.4-0.9,0.8-1.6,1
		c1.1,0.3,1.9,0.7,2.4,1.3c0.5,0.6,0.8,1.4,0.8,2.4c0,0.8-0.2,1.5-0.5,2.1s-0.9,1.1-1.5,1.5c-0.4,0.2-1,0.4-1.8,0.5
		c-1,0.1-1.7,0.2-2.1,0.2h-8V26.6z M63.9,32.5h2c0.7,0,1.2-0.1,1.5-0.4c0.3-0.2,0.4-0.6,0.4-1.1c0-0.4-0.1-0.8-0.4-1
		c-0.3-0.2-0.8-0.4-1.5-0.4h-2.1V32.5z M63.9,38.4h2.4c0.8,0,1.4-0.1,1.7-0.4s0.5-0.7,0.5-1.1c0-0.4-0.2-0.8-0.5-1.1
		c-0.3-0.3-0.9-0.4-1.7-0.4h-2.4V38.4z"/>
	<path class="st1" d="M75.6,26.6H88v3.2h-7.8v2.4h7.2v3.1h-7.2v3h8v3.4H75.6V26.6z"/>
	<path class="st1" d="M22.2,49.6h14.1v3.7h-4.7v11.3h-4.6V53.3h-4.7V49.6z"/>
	<path class="st1" d="M38.5,64.7v-15h7.7c1.4,0,2.5,0.1,3.3,0.4s1.4,0.7,1.8,1.4c0.5,0.7,0.7,1.5,0.7,2.4c0,0.8-0.2,1.6-0.5,2.2
		c-0.4,0.6-0.8,1.1-1.5,1.5c-0.4,0.2-0.9,0.4-1.6,0.6c0.6,0.2,1,0.4,1.2,0.6c0.2,0.1,0.4,0.4,0.7,0.8c0.3,0.4,0.5,0.7,0.7,0.9
		l2.3,4.4H48l-2.5-4.6c-0.3-0.6-0.6-1-0.8-1.2c-0.3-0.2-0.7-0.3-1.1-0.3h-0.4v6.1H38.5z M43.1,55.7h2c0.2,0,0.6-0.1,1.2-0.2
		c0.3-0.1,0.6-0.2,0.8-0.5c0.2-0.3,0.3-0.5,0.3-0.9c0-0.5-0.2-0.9-0.5-1.1s-0.9-0.4-1.7-0.4h-2V55.7z"/>
	<path class="st1" d="M54.9,49.6h4.7v15h-4.7V49.6z"/>
	<path class="st1" d="M62.9,49.6h7.7c1.7,0,2.9,0.4,3.8,1.2c0.8,0.8,1.3,1.9,1.3,3.4c0,1.5-0.5,2.7-1.4,3.6
		c-0.9,0.9-2.3,1.3-4.2,1.3h-2.5v5.6h-4.7V49.6z M67.6,56h1.1c0.9,0,1.5-0.2,1.9-0.5c0.4-0.3,0.5-0.7,0.5-1.2c0-0.5-0.2-0.9-0.5-1.2
		s-0.9-0.5-1.8-0.5h-1.3V56z"/>
</g>
</svg>
