<?xml version="1.0" encoding="utf-8"?>
<!-- Generator: Adobe Illustrator 26.0.1, SVG Export Plug-In . SVG Version: 6.00 Build 0)  -->
<svg version="1.1" id="New_VCP" xmlns="http://www.w3.org/2000/svg" xmlns:xlink="http://www.w3.org/1999/xlink" x="0px" y="0px"
	 viewBox="0 0 100 100" style="enable-background:new 0 0 100 100;" xml:space="preserve">
<style type="text/css">
	.st0{fill:url(#SVGID_1_);}
	.st1{fill:#6D6E71;}
	.st2{fill:#FCEE21;}
</style>
<path d="M95,100H5c-2.75,0-5-2.25-5-5V5c0-2.75,2.25-5,5-5h90c2.75,0,5,2.25,5,5v90C100,97.75,97.75,100,95,100z"/>
<linearGradient id="SVGID_1_" gradientUnits="userSpaceOnUse" x1="38.234" y1="15.4545" x2="75.4255" y2="15.4545">
	<stop  offset="0" style="stop-color:#BD7B2A"/>
	<stop  offset="0.0259" style="stop-color:#BE7E2D"/>
	<stop  offset="0.0609" style="stop-color:#C28437"/>
	<stop  offset="0.101" style="stop-color:#C8904B"/>
	<stop  offset="0.1451" style="stop-color:#D0A169"/>
	<stop  offset="0.1924" style="stop-color:#DCBA90"/>
	<stop  offset="0.2414" style="stop-color:#ECDBC5"/>
	<stop  offset="0.2793" style="stop-color:#FFFFFF"/>
	<stop  offset="0.3119" style="stop-color:#EEDCCB"/>
	<stop  offset="0.3506" style="stop-color:#E3C1A2"/>
	<stop  offset="0.3934" style="stop-color:#D9AA80"/>
	<stop  offset="0.4393" style="stop-color:#D09867"/>
	<stop  offset="0.4892" style="stop-color:#CA8951"/>
	<stop  offset="0.5444" style="stop-color:#C57E40"/>
	<stop  offset="0.6072" style="stop-color:#C17634"/>
	<stop  offset="0.6822" style="stop-color:#BF712D"/>
	<stop  offset="0.7813" style="stop-color:#BD6D29"/>
	<stop  offset="1" style="stop-color:#BD6D29"/>
</linearGradient>
<polygon class="st0" points="63.68,30.91 75.43,26.48 75.43,0 38.23,0 38.23,26.48 49.98,30.91 "/>
<rect x="8.12" y="88.51" class="st1" width="83.77" height="6.42"/>
<polygon class="st2" points="70.12,71.1 56.94,85.79 43.13,71.1 50.03,71.1 50.01,63.98 63.53,63.98 63.53,71.1 "/>
<rect x="50.01" y="32.94" class="st2" width="13.52" height="21.69"/>
<rect x="50.01" y="56.32" class="st2" width="13.52" height="6.17"/>
<polygon class="st2" points="93.78,46.28 86.87,46.28 86.86,55.79 86.86,77.87 73.34,77.87 73.34,58.02 73.35,55.79 73.37,46.28 
	66.78,46.28 79.96,31.6 "/>
<polygon class="st2" points="73.35,55.79 73.34,58.02 73.34,55.79 "/>
<rect x="73.34" y="79.28" class="st2" width="13.52" height="6.51"/>
</svg>
