<?xml version="1.0" encoding="utf-8"?>
<!-- Generator: Adobe Illustrator 27.0.1, SVG Export Plug-In . SVG Version: 6.00 Build 0)  -->
<svg version="1.1" id="New_VCP" xmlns="http://www.w3.org/2000/svg" xmlns:xlink="http://www.w3.org/1999/xlink" x="0px" y="0px"
	 viewBox="0 0 100 100" style="enable-background:new 0 0 100 100;" xml:space="preserve">
<style type="text/css">
	.st0{fill:#FFFFFF;}
</style>
<g>
	<path class="st0" d="M93,99.5H7c-3.6,0-6.5-2.9-6.5-6.5V7c0-3.6,2.9-6.5,6.5-6.5h86c3.6,0,6.5,2.9,6.5,6.5v86
		C99.5,96.6,96.6,99.5,93,99.5z"/>
	<path d="M93.1,100H6.9C3.1,100,0,96.9,0,93.1V6.9C0,3.1,3.1,0,6.9,0h86.1c3.8,0,6.9,3.1,6.9,6.9v86.1C100,96.9,96.9,100,93.1,100z
		 M6.9,1C3.7,1,1,3.7,1,6.9v86.1C1,96.3,3.7,99,6.9,99h86.1c3.3,0,5.9-2.7,5.9-5.9V6.9C99,3.7,96.3,1,93.1,1H6.9z"/>
</g>
<g>
	<path d="M26.5,9.7h-5.7v4H26v2.9h-5.2v6.3h-3.6V6.7h9.3V9.7z"/>
	<path d="M37.6,22.8h-3.4v-1.7h0c-0.8,1.3-1.9,1.9-3.4,1.9c-1.1,0-2-0.3-2.6-0.9c-0.6-0.6-1-1.5-1-2.5c0-2.2,1.3-3.5,4-3.9l3.1-0.4
		c0-1.3-0.7-1.9-2-1.9c-1.4,0-2.7,0.4-3.9,1.2V12c0.5-0.3,1.2-0.5,2-0.7c0.9-0.2,1.6-0.3,2.3-0.3c3.3,0,4.9,1.6,4.9,4.9V22.8z
		 M34.3,18.2v-0.8l-2.1,0.3c-1.2,0.1-1.7,0.7-1.7,1.6c0,0.4,0.1,0.7,0.4,1c0.3,0.3,0.7,0.4,1.1,0.4c0.7,0,1.2-0.2,1.6-0.7
		C34.1,19.4,34.3,18.9,34.3,18.2z"/>
	<path d="M49.2,22.4c-0.8,0.5-2,0.7-3.5,0.7c-1.8,0-3.2-0.5-4.3-1.6s-1.6-2.5-1.6-4.1c0-2,0.6-3.5,1.8-4.6c1.2-1.1,2.7-1.7,4.7-1.7
		c1.4,0,2.3,0.2,2.9,0.5v3c-0.7-0.6-1.6-0.8-2.5-0.8c-1,0-1.8,0.3-2.4,0.9c-0.6,0.6-0.9,1.4-0.9,2.5c0,1,0.3,1.8,0.9,2.4
		c0.6,0.6,1.4,0.9,2.3,0.9c0.9,0,1.7-0.3,2.6-0.8V22.4z"/>
	<path d="M53.3,9.5c-0.6,0-1.1-0.2-1.5-0.5c-0.4-0.4-0.6-0.8-0.6-1.3c0-0.5,0.2-1,0.6-1.3s0.9-0.5,1.5-0.5c0.6,0,1.1,0.2,1.5,0.5
		s0.6,0.8,0.6,1.3c0,0.5-0.2,1-0.6,1.3S53.9,9.5,53.3,9.5z M55,22.8h-3.5V11.3H55V22.8z"/>
	<path d="M69.1,22.8h-3.5v-6.4c0-1.8-0.6-2.7-1.9-2.7c-0.6,0-1.1,0.2-1.5,0.7c-0.4,0.5-0.6,1.1-0.6,1.8v6.6H58V11.3h3.5v1.8h0
		c0.8-1.4,2.1-2.1,3.7-2.1c2.5,0,3.8,1.6,3.8,4.7V22.8z"/>
	<path d="M83.2,21.5c0,2.1-0.6,3.8-1.9,5c-1.2,1.2-3,1.8-5.4,1.8c-1.5,0-2.8-0.2-3.7-0.7v-3c1.2,0.7,2.4,1,3.6,1
		c1.2,0,2.1-0.3,2.8-0.9c0.7-0.6,1-1.5,1-2.6v-0.9h0c-0.8,1.3-2,1.9-3.6,1.9c-1.5,0-2.6-0.5-3.5-1.5c-0.9-1-1.3-2.4-1.3-4.2
		c0-1.9,0.5-3.5,1.4-4.6c1-1.1,2.2-1.7,3.8-1.7c1.4,0,2.4,0.5,3.1,1.6h0v-1.3h3.5V21.5z M79.7,17.3v-0.9c0-0.7-0.2-1.3-0.6-1.9
		c-0.4-0.5-1-0.8-1.7-0.8c-0.8,0-1.4,0.3-1.9,0.9s-0.7,1.5-0.7,2.6c0,1,0.2,1.7,0.6,2.3c0.4,0.6,1,0.8,1.8,0.8
		c0.7,0,1.3-0.3,1.8-0.8C79.5,19,79.7,18.2,79.7,17.3z"/>
</g>
<g>
	<path d="M73.7,83.7h-54V37h54V83.7z M23.6,79.7h46V41h-46V79.7z"/>
	<path d="M80.4,83.7H69.7V37h10.7V83.7z M73.7,79.7h2.7V41h-2.7V79.7z"/>
</g>
</svg>
