<?xml version="1.0" encoding="UTF-8" standalone="no"?>
<!DOCTYPE svg PUBLIC "-//W3C//DTD SVG 1.1//EN" "http://www.w3.org/Graphics/SVG/1.1/DTD/svg11.dtd">
<svg width="100%" height="100%" viewBox="0 0 300 300" version="1.1" xmlns="http://www.w3.org/2000/svg" xmlns:xlink="http://www.w3.org/1999/xlink" xml:space="preserve" xmlns:serif="http://www.serif.com/" style="fill-rule:evenodd;clip-rule:evenodd;stroke-linecap:round;stroke-linejoin:round;stroke-miterlimit:1.5;">
    <g transform="matrix(1,0,0,1,-5372.32,-776.992)">
        <g id="Layer-1" serif:id="Layer 1">
        </g>
        <g transform="matrix(0.301848,0,0,0.582975,5129.51,-279.704)">
            <rect x="804.411" y="1812.59" width="993.877" height="514.602" style="fill:none;"/>
            <g transform="matrix(-3.31292,-2.10069e-16,4.05716e-16,-1.71534,9305.37,4659.19)">
                <g transform="matrix(0.417362,0,0,0.51419,1334.82,721.427)">
                    <path d="M2890,1384.5C2890,1329.03 2834.52,1284 2766.18,1284L2414.82,1284C2346.48,1284 2291,1329.03 2291,1384.5C2291,1439.97 2346.48,1485 2414.82,1485L2766.18,1485C2834.52,1485 2890,1439.97 2890,1384.5Z" style="fill:#00d918;stroke:#000;stroke-width:17.8px;"/>
                </g>
                <g transform="matrix(0.562238,0,0,0.562238,956.012,608.099)">
                    <circle cx="2466.25" cy="1467.75" r="83.25" style="stroke:#000;stroke-width:14.82px;"/>
                </g>
            </g>
            <g transform="matrix(3.31292,0,0,1.71534,-550.575,1806.59)">
                <g transform="matrix(62.5,0,0,62.5,438.164,77.1194)">
                    <path d="M0.076,-0L0.076,-0.716L0.445,-0.716C0.513,-0.716 0.565,-0.71 0.602,-0.698C0.638,-0.687 0.667,-0.665 0.689,-0.633C0.711,-0.601 0.722,-0.563 0.722,-0.517C0.722,-0.477 0.714,-0.443 0.697,-0.414C0.68,-0.385 0.657,-0.362 0.627,-0.344C0.608,-0.333 0.582,-0.323 0.549,-0.316C0.576,-0.307 0.595,-0.298 0.607,-0.29C0.615,-0.284 0.627,-0.271 0.642,-0.252C0.658,-0.233 0.668,-0.218 0.673,-0.208L0.78,-0L0.53,-0L0.412,-0.219C0.397,-0.247 0.384,-0.265 0.372,-0.274C0.356,-0.285 0.338,-0.291 0.318,-0.291L0.298,-0.291L0.298,-0L0.076,-0ZM0.298,-0.426L0.392,-0.426C0.402,-0.426 0.421,-0.429 0.45,-0.436C0.465,-0.438 0.477,-0.446 0.486,-0.458C0.495,-0.47 0.5,-0.484 0.5,-0.5C0.5,-0.523 0.493,-0.54 0.478,-0.553C0.463,-0.565 0.436,-0.571 0.396,-0.571L0.298,-0.571L0.298,-0.426Z" style="fill:#0b0a08;fill-rule:nonzero;"/>
                </g>
                <g transform="matrix(62.5,0,0,62.5,486.778,77.1194)">
                    <path d="M0.073,-0.716L0.666,-0.716L0.666,-0.563L0.294,-0.563L0.294,-0.449L0.639,-0.449L0.639,-0.303L0.294,-0.303L0.294,-0.162L0.676,-0.162L0.676,-0L0.073,-0L0.073,-0.716Z" style="fill:#0b0a08;fill-rule:nonzero;"/>
                </g>
                <g transform="matrix(62.5,0,0,62.5,531.914,77.1194)">
                    <path d="M0.073,-0.716L0.294,-0.716L0.294,-0.176L0.64,-0.176L0.64,-0L0.073,-0L0.073,-0.716Z" style="fill:#0b0a08;fill-rule:nonzero;"/>
                </g>
                <g transform="matrix(62.5,0,0,62.5,573.601,77.1194)">
                    <path d="M0.514,-0.118L0.262,-0.118L0.227,-0L0.001,-0L0.27,-0.716L0.511,-0.716L0.78,-0L0.549,-0L0.514,-0.118ZM0.467,-0.273L0.388,-0.53L0.31,-0.273L0.467,-0.273Z" style="fill:#0b0a08;fill-rule:nonzero;"/>
                </g>
                <g transform="matrix(62.5,0,0,62.5,616.905,77.1194)">
                    <path d="M0.001,-0.716L0.247,-0.716L0.391,-0.474L0.536,-0.716L0.78,-0.716L0.501,-0.3L0.501,-0L0.28,-0L0.28,-0.3L0.001,-0.716Z" style="fill:#0b0a08;fill-rule:nonzero;"/>
                </g>
                <g transform="matrix(62.5,0,0,62.5,530.998,139.619)">
                    <path d="M0.623,-0L0.026,-0C0.033,-0.059 0.054,-0.114 0.089,-0.166C0.123,-0.218 0.188,-0.279 0.284,-0.35C0.342,-0.393 0.379,-0.426 0.396,-0.449C0.412,-0.471 0.42,-0.493 0.42,-0.513C0.42,-0.535 0.412,-0.553 0.396,-0.569C0.38,-0.584 0.359,-0.592 0.335,-0.592C0.31,-0.592 0.289,-0.584 0.273,-0.568C0.257,-0.552 0.246,-0.524 0.24,-0.483L0.041,-0.5C0.049,-0.556 0.063,-0.599 0.084,-0.631C0.105,-0.662 0.134,-0.686 0.172,-0.703C0.21,-0.72 0.263,-0.728 0.33,-0.728C0.4,-0.728 0.454,-0.72 0.493,-0.704C0.532,-0.688 0.562,-0.664 0.585,-0.631C0.607,-0.598 0.618,-0.561 0.618,-0.52C0.618,-0.476 0.605,-0.434 0.58,-0.395C0.554,-0.355 0.508,-0.311 0.44,-0.264C0.4,-0.236 0.374,-0.217 0.36,-0.206C0.347,-0.194 0.331,-0.18 0.313,-0.162L0.623,-0.162L0.623,-0Z" style="fill:#0b0a08;fill-rule:nonzero;"/>
                </g>
            </g>
        </g>
    </g>
</svg>
