<svg id="New_VCP" data-name="New VCP" xmlns="http://www.w3.org/2000/svg" width="100" height="100" viewBox="0 0 100 100">
  <title>spindle_100</title>
  <rect width="100" height="100" rx="6" style="fill: #fff"/>
  <g>
    <path d="M22.92,39.61V63.5H17.14V47.85a17.89,17.89,0,0,1-2.72,2,20.09,20.09,0,0,1-3.29,1.44V45.91a13.14,13.14,0,0,0,4.53-2.58,10.36,10.36,0,0,0,2.53-3.72Z" style="fill: #231f20"/>
    <path d="M29.15,51.66c0-4.46.7-7.59,2.11-9.37s3.56-2.68,6.44-2.68a8.52,8.52,0,0,1,3.41.59,6.3,6.3,0,0,1,2.18,1.52,8.44,8.44,0,0,1,1.33,2,11.56,11.56,0,0,1,.78,2.41A25.78,25.78,0,0,1,46,51.58q0,6.39-1.89,9.36c-1.27,2-3.44,3-6.53,3a8.17,8.17,0,0,1-4.2-.94,7.21,7.21,0,0,1-2.63-2.78,11.27,11.27,0,0,1-1.16-3.54A27.26,27.26,0,0,1,29.15,51.66Zm5.67,0a17.85,17.85,0,0,0,.7,6.13c.46,1.09,1.13,1.64,2,1.64a2,2,0,0,0,1.51-.7,4.51,4.51,0,0,0,.94-2.2,26.5,26.5,0,0,0,.3-4.7c0-3.11-.23-5.21-.69-6.28A2.23,2.23,0,0,0,37.5,44a2.15,2.15,0,0,0-2,1.64A19.51,19.51,0,0,0,34.82,51.68Z" style="fill: #231f20"/>
    <path d="M48.33,51.66c0-4.46.71-7.59,2.12-9.37s3.55-2.68,6.44-2.68a8.55,8.55,0,0,1,3.41.59,6.3,6.3,0,0,1,2.18,1.52,8.44,8.44,0,0,1,1.33,2,11.56,11.56,0,0,1,.78,2.41,25.78,25.78,0,0,1,.57,5.48q0,6.39-1.9,9.36t-6.53,3a8.22,8.22,0,0,1-4.2-.94,7.26,7.26,0,0,1-2.62-2.78,11,11,0,0,1-1.16-3.54A27.22,27.22,0,0,1,48.33,51.66Zm5.68,0a18.18,18.18,0,0,0,.69,6.13c.47,1.09,1.14,1.64,2,1.64a2,2,0,0,0,1.51-.7,4.51,4.51,0,0,0,.94-2.2,26.5,26.5,0,0,0,.3-4.7c0-3.11-.23-5.21-.69-6.28A2.24,2.24,0,0,0,56.69,44a2.15,2.15,0,0,0-2,1.64A19.51,19.51,0,0,0,54,51.68Z" style="fill: #231f20"/>
    <path d="M67.65,46.81a7.43,7.43,0,0,1,.59-2.92A4.47,4.47,0,0,1,70,41.75,5.33,5.33,0,0,1,72.9,41a4.86,4.86,0,0,1,3.84,1.59,6.14,6.14,0,0,1,1.4,4.22,6.18,6.18,0,0,1-1.4,4.24,4.86,4.86,0,0,1-3.84,1.59A5.33,5.33,0,0,1,70,51.89a4.49,4.49,0,0,1-1.8-2.13A7.54,7.54,0,0,1,67.65,46.81Zm3.72,0a5.23,5.23,0,0,0,.53,2.72,1.11,1.11,0,0,0,1,.56,1.08,1.08,0,0,0,1-.56,5.23,5.23,0,0,0,.53-2.72,5.26,5.26,0,0,0-.53-2.71,1.09,1.09,0,0,0-1-.55,1.12,1.12,0,0,0-1,.55A5.21,5.21,0,0,0,71.37,46.84ZM84.12,41h2.79L75.71,64.63H72.94ZM81.63,58.78a7.46,7.46,0,0,1,.59-2.94A4.42,4.42,0,0,1,84,53.71,5.38,5.38,0,0,1,86.87,53a4.84,4.84,0,0,1,3.85,1.6,6.14,6.14,0,0,1,1.41,4.23A6.14,6.14,0,0,1,90.72,63a4.86,4.86,0,0,1-3.85,1.59A5.38,5.38,0,0,1,84,63.85a4.44,4.44,0,0,1-1.79-2.14A7.45,7.45,0,0,1,81.63,58.78Zm3.72,0a5.29,5.29,0,0,0,.53,2.71,1.07,1.07,0,0,0,1,.55,1.12,1.12,0,0,0,1-.55,5.29,5.29,0,0,0,.53-2.71,5.4,5.4,0,0,0-.53-2.73,1.14,1.14,0,0,0-1-.55,1.08,1.08,0,0,0-1,.56A5.36,5.36,0,0,0,85.35,58.81Z" style="fill: #231f20"/>
  </g>
</svg>
