<?xml version="1.0" encoding="utf-8"?>
<!-- Generator: Adobe Illustrator 24.1.1, SVG Export Plug-In . SVG Version: 6.00 Build 0)  -->
<svg version="1.1" id="New_VCP" xmlns="http://www.w3.org/2000/svg" xmlns:xlink="http://www.w3.org/1999/xlink" x="0px" y="0px"
	 width="100px" height="100px" viewBox="0 0 100 100" style="enable-background:new 0 0 100 100;" xml:space="preserve">
<style type="text/css">
	.st0{fill:#252D6B;}
	.st1{display:none;fill:#82151E;}
	.st2{fill:#FFFFFF;}
</style>
<path class="st0" d="M100,94c0,3.3-2.7,6-6,6H6c-3.3,0-6-2.7-6-6V6c0-3.3,2.7-6,6-6h88c3.3,0,6,2.7,6,6V94z"/>
<path class="st1" d="M35.1,3h-0.7H7.6C5.1,3,3,5,3,7.4v25.9v1.8L35.1,3z"/>
<g>
	<path class="st2" d="M34,40.6h-6.1l-0.8,4h-5.4l6.5-24.3h5.8l6.5,24.3h-5.6L34,40.6z M32.9,35.3L31,26.6l-1.9,8.7H32.9z"/>
	<path class="st2" d="M52.5,20.3h5.3v14.5c0,1.4-0.2,2.8-0.5,4.1c-0.3,1.3-0.8,2.4-1.5,3.4c-0.7,1-1.4,1.6-2.1,2
		c-1,0.5-2.3,0.8-3.7,0.8c-0.8,0-1.8-0.1-2.7-0.2s-1.8-0.5-2.5-1s-1.3-1.2-1.8-2.1c-0.6-0.9-0.9-1.8-1.1-2.8
		c-0.3-1.5-0.5-2.9-0.5-4.1V20.3h5.3v14.8c0,1.3,0.3,2.4,0.8,3.1s1.2,1.1,2.2,1.1c0.9,0,1.6-0.4,2.2-1.1c0.5-0.7,0.8-1.8,0.8-3.1
		V20.3z"/>
	<path class="st2" d="M60.2,20.3h5.9l3.1,7.5l3-7.5h5.8L72.5,32l5.9,12.6h-6L69,36.8l-3.4,7.8h-6l6-12.7L60.2,20.3z"/>
	<path class="st2" d="M45.8,64.5c-0.8-0.6-1.3-1.2-1.6-1.9c-0.5-1-0.7-2-0.7-3.3c0-2,0.7-3.7,2-5c1.1-1,2.5-1.5,4.2-1.5
		c2.3,0,4,0.6,5.1,1.9c1.1,1.2,1.7,2.8,1.7,4.7c0,1.1-0.2,2.1-0.7,3.1c-0.3,0.7-0.8,1.4-1.6,2.1c0.9,0.6,1.6,1.5,2.1,2.5
		c0.5,1,0.7,2.2,0.7,3.5c0,1.2-0.2,2.4-0.6,3.4c-0.4,1.1-0.9,1.9-1.5,2.4c-0.6,0.6-1.3,1-2.2,1.3S51,78,50.1,78
		c-1.8,0-3.2-0.3-4.2-0.9c-1-0.6-1.7-1.5-2.2-2.7c-0.5-1.2-0.8-2.5-0.8-4c0-1.4,0.2-2.6,0.7-3.6C44.1,65.8,44.8,65.1,45.8,64.5z
		 M47.7,70.2c0,1.1,0.2,2,0.7,2.6c0.5,0.7,1,1,1.6,1c0.6,0,1.1-0.3,1.5-1s0.7-1.6,0.7-2.6c0-1.1-0.2-2-0.7-2.6c-0.5-0.7-1-1-1.6-1
		c-0.6,0-1.1,0.3-1.6,1S47.7,69.1,47.7,70.2z M48,59.7c0,0.8,0.2,1.5,0.6,2c0.4,0.5,0.9,0.8,1.5,0.8c0.5,0,1-0.3,1.4-0.8
		c0.4-0.5,0.5-1.2,0.5-2c0-0.8-0.2-1.5-0.6-2.1C51,57.2,50.5,57,49.9,57c-0.6,0-1.1,0.3-1.4,0.8C48.1,58.2,48,58.9,48,59.7z"/>
</g>
</svg>
