<svg id="New_VCP" data-name="New VCP" xmlns="http://www.w3.org/2000/svg" width="100" height="100" viewBox="0 0 100 100">
  <title>incr_cont</title>
  <rect width="100" height="100" rx="6" style="fill: #ffc70e"/>
  <g>
    <path d="M25.59,19.6h4.14V35.34H25.59Z" style="fill: #231f20"/>
    <path d="M32.72,19.6h3.85l5,8.71V19.6h3.89V35.34H41.6l-5-8.64v8.64H32.72Z" style="fill: #231f20"/>
    <path d="M57.13,28.9l3.62,1.29a8.77,8.77,0,0,1-1.15,3,5.13,5.13,0,0,1-2,1.82,6.27,6.27,0,0,1-2.95.61,7.56,7.56,0,0,1-3.56-.74,6.12,6.12,0,0,1-2.38-2.63,10.12,10.12,0,0,1-1-4.81,9.06,9.06,0,0,1,1.77-6,6.15,6.15,0,0,1,5-2.1,6,6,0,0,1,4,1.2,7.13,7.13,0,0,1,2.15,3.7L57,25.18a4,4,0,0,0-.41-1.05,2.56,2.56,0,0,0-.84-.86,2.16,2.16,0,0,0-1.12-.3,2.33,2.33,0,0,0-2.15,1.33,6.44,6.44,0,0,0-.57,3.1A6.84,6.84,0,0,0,52.56,31a2.18,2.18,0,0,0,1.9,1,2.12,2.12,0,0,0,1.79-.78A5.38,5.38,0,0,0,57.13,28.9Z" style="fill: #231f20"/>
    <path d="M62.81,35.34V19.6h6.88a8.51,8.51,0,0,1,2.92.38,3.19,3.19,0,0,1,1.63,1.44A4.84,4.84,0,0,1,74.86,24a5.09,5.09,0,0,1-.47,2.26,4.09,4.09,0,0,1-1.31,1.54,4.38,4.38,0,0,1-1.45.62,4.14,4.14,0,0,1,1.08.58,5,5,0,0,1,.66.83,6.8,6.8,0,0,1,.58,1l2,4.56H71.28l-2.2-4.81a3.6,3.6,0,0,0-.75-1.21,1.54,1.54,0,0,0-1-.37H67v6.39ZM67,26h1.74a5,5,0,0,0,1.1-.22,1.11,1.11,0,0,0,.67-.49,1.68,1.68,0,0,0,.26-.92,1.62,1.62,0,0,0-.41-1.17,2.23,2.23,0,0,0-1.54-.4H67Z" style="fill: #231f20"/>
  </g>
  <g>
    <path d="M30.72,74.22l3.61,1.29a8.54,8.54,0,0,1-1.14,3,5.18,5.18,0,0,1-1.95,1.81,6.28,6.28,0,0,1-3,.62,7.39,7.39,0,0,1-3.55-.75,6.16,6.16,0,0,1-2.39-2.62,10.18,10.18,0,0,1-1-4.81,9.13,9.13,0,0,1,1.76-6,6.16,6.16,0,0,1,5-2.1,6,6,0,0,1,4,1.2,7.28,7.28,0,0,1,2.15,3.7l-3.65,1a3.8,3.8,0,0,0-.4-1.06,2.5,2.5,0,0,0-.85-.86,2.11,2.11,0,0,0-1.12-.3A2.37,2.37,0,0,0,26,69.62a6.61,6.61,0,0,0-.56,3.1,6.72,6.72,0,0,0,.67,3.59,2.17,2.17,0,0,0,1.9,1,2.13,2.13,0,0,0,1.79-.78A5.27,5.27,0,0,0,30.72,74.22Z" style="fill: #231f20"/>
    <path d="M35.82,72.8a9,9,0,0,1,1.82-6,6.32,6.32,0,0,1,5.08-2.15,6.41,6.41,0,0,1,5.14,2.11,8.85,8.85,0,0,1,1.8,5.92,11.22,11.22,0,0,1-.78,4.52A6.27,6.27,0,0,1,46.6,80a6.59,6.59,0,0,1-3.72,1,7.52,7.52,0,0,1-3.74-.85,6.11,6.11,0,0,1-2.4-2.69A10.24,10.24,0,0,1,35.82,72.8Zm4.13,0a6,6,0,0,0,.75,3.42,2.57,2.57,0,0,0,4.11,0,6.71,6.71,0,0,0,.72-3.66,5.5,5.5,0,0,0-.76-3.25,2.42,2.42,0,0,0-2.06-1,2.34,2.34,0,0,0-2,1A6,6,0,0,0,40,72.83Z" style="fill: #231f20"/>
    <path d="M51.91,64.92h3.86l5,8.71V64.92h3.89V80.67H60.8L55.8,72v8.65H51.91Z" style="fill: #231f20"/>
    <path d="M66.49,64.92H79v3.89H74.83V80.67H70.7V68.81H66.49Z" style="fill: #231f20"/>
  </g>
  <rect x="9.17" y="48.56" width="81.66" height="5.12" style="fill: #231f20;stroke: #231f20;stroke-miterlimit: 10;stroke-width: 0.25px"/>
</svg>
