<?xml version="1.0" encoding="utf-8"?>
<!-- Generator: Adobe Illustrator 24.0.2, SVG Export Plug-In . SVG Version: 6.00 Build 0)  -->
<svg version="1.1" id="New_VCP" xmlns="http://www.w3.org/2000/svg" xmlns:xlink="http://www.w3.org/1999/xlink" x="0px" y="0px"
	 width="100px" height="100px" viewBox="0 0 100 100" style="enable-background:new 0 0 100 100;" xml:space="preserve">
<style type="text/css">
	.st0{fill:#252D6B;}
	.st1{display:none;fill:#82151E;}
	.st2{fill:#FFFFFF;}
</style>
<path class="st0" d="M100,94c0,3.31-2.69,6-6,6H6c-3.31,0-6-2.69-6-6V6c0-3.31,2.69-6,6-6h88c3.31,0,6,2.69,6,6V94z"/>
<path class="st1" d="M35.09,3h-0.69H7.59C5.06,3,3,4.99,3,7.45v25.87v1.77L35.09,3z"/>
<g>
	<path class="st2" d="M22.94,25.21h9.2c1.81,0,3.28,0.25,4.4,0.74s2.04,1.2,2.77,2.12c0.73,0.92,1.26,1.99,1.59,3.21
		c0.33,1.22,0.49,2.52,0.49,3.88c0,2.14-0.24,3.8-0.73,4.98c-0.49,1.18-1.16,2.17-2.03,2.97c-0.87,0.8-1.8,1.33-2.79,1.59
		c-1.36,0.36-2.59,0.55-3.69,0.55h-9.2V25.21z M29.13,29.75V40.7h1.52c1.29,0,2.21-0.14,2.76-0.43s0.98-0.79,1.29-1.5
		c0.31-0.72,0.46-1.88,0.46-3.48c0-2.12-0.35-3.58-1.04-4.36c-0.69-0.78-1.84-1.18-3.45-1.18H29.13z"/>
	<path class="st2" d="M44.72,45.25V25.21h10.32c1.91,0,3.38,0.16,4.39,0.49s1.83,0.94,2.45,1.83s0.93,1.97,0.93,3.25
		c0,1.11-0.24,2.07-0.71,2.88c-0.47,0.81-1.13,1.46-1.96,1.96c-0.53,0.32-1.25,0.58-2.17,0.79c0.74,0.25,1.28,0.49,1.61,0.74
		c0.23,0.16,0.56,0.52,0.99,1.05c0.43,0.54,0.72,0.95,0.87,1.25l3,5.81h-7l-3.31-6.13c-0.42-0.79-0.79-1.31-1.12-1.54
		c-0.45-0.31-0.95-0.46-1.52-0.46h-0.55v8.13H44.72z M50.94,33.33h2.61c0.28,0,0.83-0.09,1.64-0.27c0.41-0.08,0.75-0.29,1-0.63
		c0.26-0.34,0.39-0.72,0.39-1.16c0-0.65-0.21-1.14-0.62-1.49c-0.41-0.35-1.18-0.52-2.31-0.52h-2.72V33.33z"/>
	<path class="st2" d="M63.19,25.21h6.88l4.04,6.76l4.05-6.76H85L77.2,36.86v8.39H71v-8.39L63.19,25.21z"/>
	<path class="st2" d="M21.03,72.25V52.21h10.32c1.91,0,3.38,0.16,4.39,0.49s1.83,0.94,2.45,1.83s0.93,1.97,0.93,3.25
		c0,1.11-0.24,2.07-0.71,2.88c-0.47,0.81-1.13,1.46-1.96,1.96c-0.53,0.32-1.25,0.58-2.17,0.79c0.74,0.25,1.28,0.49,1.61,0.74
		c0.23,0.17,0.56,0.52,0.99,1.05c0.43,0.54,0.72,0.95,0.87,1.25l3,5.81h-7l-3.31-6.13c-0.42-0.79-0.79-1.31-1.12-1.54
		c-0.45-0.31-0.95-0.46-1.52-0.46h-0.55v8.13H21.03z M27.25,60.33h2.61c0.28,0,0.83-0.09,1.64-0.27c0.41-0.08,0.75-0.29,1-0.63
		c0.26-0.34,0.39-0.72,0.39-1.16c0-0.65-0.21-1.14-0.62-1.49c-0.41-0.35-1.18-0.52-2.31-0.52h-2.72V60.33z"/>
	<path class="st2" d="M55.29,52.21h6.18v11.94c0,1.18-0.18,2.3-0.55,3.35c-0.37,1.05-0.95,1.97-1.74,2.76s-1.62,1.34-2.48,1.66
		c-1.2,0.45-2.65,0.67-4.33,0.67c-0.98,0-2.04-0.07-3.19-0.21s-2.12-0.41-2.89-0.81c-0.77-0.41-1.48-0.98-2.13-1.73
		c-0.64-0.75-1.08-1.52-1.32-2.31c-0.38-1.28-0.57-2.41-0.57-3.39V52.21h6.18v12.23c0,1.09,0.3,1.95,0.91,2.56s1.45,0.92,2.52,0.92
		c1.07,0,1.9-0.3,2.51-0.91s0.91-1.46,0.91-2.58V52.21z"/>
	<path class="st2" d="M65.62,52.21h5.78l7.55,11.09V52.21h5.84v20.04h-5.84l-7.51-11v11h-5.82V52.21z"/>
</g>
</svg>
