<svg id="New_VCP" data-name="New VCP" xmlns="http://www.w3.org/2000/svg" width="100" height="100" viewBox="0 0 100 100">
  <title>flood_coolant</title>
  <rect width="100" height="100" rx="6" style="fill: #252d6b"/>
  <g>
    <g>
      <g>
        <rect x="36.52" y="32.91" width="22.88" height="4.98" style="fill: #fff"/>
        <path d="M60.12,38.62H35.79V32.19H60.12ZM37.24,37.17H58.67V33.64H37.24Z" style="fill: #010101"/>
      </g>
      <g>
        <rect x="45.08" y="37.9" width="5.75" height="3.96" style="fill: #fff"/>
        <path d="M51.56,42.59h-7.2V37.17h7.2Zm-5.75-1.45h4.3V38.62h-4.3Z" style="fill: #010101"/>
      </g>
    </g>
    <g>
      <path d="M66,49A37,37,0,0,0,61,48.83H59.12a12.31,12.31,0,0,0-22.34,0h-.06c-3.77,0-7.54,0-11.31,0-1.81,0-3.63,0-5.51,0V59.24H36.78a12.32,12.32,0,0,0,22.35,0H66v7.23h10.4V61.2c0-1.16,0-2.34,0-3.5C76.39,52.4,70.55,49.62,66,49Z" style="fill: #fff"/>
      <path d="M77.17,67.19H65.32V60H59.58a13,13,0,0,1-23.25,0H19.18V48.13h3.68c.85,0,1.7,0,2.54,0,3.64,0,7.29,0,10.93,0a13,13,0,0,1,23.24,0h2.28a30.42,30.42,0,0,1,4.26.17c5.28.73,11,4,11.07,9.42,0,.8,0,1.61,0,2.41v1.11c0,1.2,0,2.41,0,3.61Zm-10.4-1.45h9v-.92c0-1.2,0-2.41,0-3.62V60.09c0-.8,0-1.59,0-2.38-.06-4.58-5.13-7.35-9.82-8h0a28.64,28.64,0,0,0-4-.16h-3.2l-.19-.42a11.59,11.59,0,0,0-21,0l-.2.42h-.46c-3.83,0-7.6,0-11.37,0H20.62v9H37.24l.2.42a11.6,11.6,0,0,0,21,0l.19-.42h8.1Z" style="fill: #010101"/>
    </g>
  </g>
  <g>
    <polygon points="68.16 67.61 75.04 67.61 83.98 91.26 59.09 91.26 68.16 67.61" style="fill: #fff"/>
    <path d="M85,92H58l9.63-25.11h7.88ZM60.14,90.54H82.93L74.54,68.33H68.66Z" style="fill: #010101"/>
  </g>
  <g>
    <path d="M34.17,26.56v-16h8.64v2.7h-6.1v3.78H42v2.7H36.71v6.79Z" style="fill: #fff"/>
    <path d="M45,26.56V10.72h2.54V23.86h6.33v2.7Z" style="fill: #fff"/>
    <path d="M55.15,18.67a12.75,12.75,0,0,1,.57-4.1,8.21,8.21,0,0,1,1.17-2.19A5.14,5.14,0,0,1,58.52,11a5.69,5.69,0,0,1,2.72-.64A5.33,5.33,0,0,1,65.7,12.5a9.86,9.86,0,0,1,1.67,6.09,9.82,9.82,0,0,1-1.66,6.05,5.63,5.63,0,0,1-8.91,0A9.66,9.66,0,0,1,55.15,18.67Zm2.62-.11a7.17,7.17,0,0,0,1,4.11,3,3,0,0,0,2.51,1.4,2.93,2.93,0,0,0,2.5-1.39,7.24,7.24,0,0,0,1-4.16,7.2,7.2,0,0,0-.95-4.1,3,3,0,0,0-5.06,0A7.18,7.18,0,0,0,57.77,18.56Z" style="fill: #fff"/>
    <path d="M68.84,18.67a12.75,12.75,0,0,1,.57-4.1,8,8,0,0,1,1.18-2.19A4.94,4.94,0,0,1,72.22,11a5.65,5.65,0,0,1,2.71-.64,5.33,5.33,0,0,1,4.46,2.19,9.86,9.86,0,0,1,1.67,6.09,9.75,9.75,0,0,1-1.66,6.05,5.62,5.62,0,0,1-8.9,0A9.59,9.59,0,0,1,68.84,18.67Zm2.62-.11a7.08,7.08,0,0,0,1,4.11A3,3,0,0,0,75,24.07a2.93,2.93,0,0,0,2.49-1.39,7.16,7.16,0,0,0,1-4.16,7.2,7.2,0,0,0-1-4.1A2.93,2.93,0,0,0,75,13.07a3,3,0,0,0-2.54,1.37A7.18,7.18,0,0,0,71.46,18.56Z" style="fill: #fff"/>
    <path d="M83,10.59h4.65a7.38,7.38,0,0,1,2.4.3A4.31,4.31,0,0,1,92,12.36,7.85,7.85,0,0,1,93.19,15a15,15,0,0,1,.41,3.77,13.45,13.45,0,0,1-.38,3.4,7.72,7.72,0,0,1-1.35,2.82,4.36,4.36,0,0,1-1.79,1.28,6.26,6.26,0,0,1-2.25.34H83Zm2.54,2.7V23.86h1.9A5.64,5.64,0,0,0,89,23.71a2.29,2.29,0,0,0,1-.66,3.72,3.72,0,0,0,.66-1.54A12.64,12.64,0,0,0,91,18.58a11.52,11.52,0,0,0-.26-2.84A3.92,3.92,0,0,0,90,14.19a2.27,2.27,0,0,0-1.18-.75,9.26,9.26,0,0,0-2.09-.15Z" style="fill: #fff"/>
  </g>
  <g>
    <path d="M7,93.29v-16h4.49l2.7,10.89L16.8,77.32h4.5v16H18.52V80.72L15.57,93.29H12.68L9.74,80.72V93.29Z" style="fill: #fff"/>
    <path d="M26.1,84.67a3.34,3.34,0,0,1-1.61-1.37,3.78,3.78,0,0,1-.5-1.93,4,4,0,0,1,1.16-3,4.43,4.43,0,0,1,3.3-1.16,4.46,4.46,0,0,1,3.29,1.16,4,4,0,0,1,1.17,3,3.68,3.68,0,0,1-.54,2,3.41,3.41,0,0,1-1.51,1.32,4.11,4.11,0,0,1,1.88,1.56,4.33,4.33,0,0,1,.64,2.36,5,5,0,0,1-1.31,3.6,4.6,4.6,0,0,1-3.49,1.38,5.06,5.06,0,0,1-3.38-1.14,4.61,4.61,0,0,1-1.59-3.7,4.81,4.81,0,0,1,.6-2.38A4,4,0,0,1,26.1,84.67Zm.32,3.76a3,3,0,0,0,.6,2,1.91,1.91,0,0,0,1.51.71A1.85,1.85,0,0,0,30,90.43a3,3,0,0,0,.57-2,2.69,2.69,0,0,0-.58-1.8A1.89,1.89,0,0,0,28.49,86a1.75,1.75,0,0,0-1.56.77A3,3,0,0,0,26.42,88.43Zm.26-6.84A2,2,0,0,0,27.17,83a1.86,1.86,0,0,0,2.57,0,2.28,2.28,0,0,0,0-2.81,1.85,1.85,0,0,0-2.58,0A2,2,0,0,0,26.68,81.59Z" style="fill: #fff"/>
  </g>
</svg>
