<?xml version="1.0" encoding="utf-8"?>
<!-- Generator: Adobe Illustrator 27.0.0, SVG Export Plug-In . SVG Version: 6.00 Build 0)  -->
<svg version="1.1" id="New_VCP" xmlns="http://www.w3.org/2000/svg" xmlns:xlink="http://www.w3.org/1999/xlink" x="0px" y="0px"
	 viewBox="0 0 100 100" style="enable-background:new 0 0 100 100;" xml:space="preserve">
<style type="text/css">
	.st0{display:none;fill:#FFFFFF;}
	.st1{fill:#FFFFFF;stroke:#000000;stroke-miterlimit:10;}
	.st2{display:none;fill:#82151E;}
	.st3{fill:#F90315;}
</style>
<polygon class="st0" points="80.2,68.4 18.7,68 15.1,51.6 85.1,51.6 "/>
<path class="st1" d="M100,94c0,3.3-2.7,6-6,6H6c-3.3,0-6-2.7-6-6V6c0-3.3,2.7-6,6-6h88c3.3,0,6,2.7,6,6V94z"/>
<path class="st2" d="M34.3,2.2h-0.7H6.8c-2.5,0-4.6,2-4.6,4.4v25.9v1.8L34.3,2.2z"/>
<rect x="26.8" y="76" width="62.5" height="3"/>
<g>
	<path d="M85.3,77.8l-1.9-0.6C85,72.3,85,67,83.3,62.2l1.9-0.6C87,66.8,87,72.5,85.3,77.8z"/>
	<g>
		<path d="M81.3,56c2.4,2.3,5.9,4.9,8.8,6.2l-5.5,0.6l-3.9,4C81.5,63.6,81.6,59.3,81.3,56z"/>
	</g>
</g>
<g>
	<polygon class="st3" points="29.6,78 33.3,87.2 29.6,88.7 25.9,79.5 16.3,83.4 14.8,79.7 24.4,75.8 8,35.2 11.7,33.7 28.1,74.3 
		90.8,49 92.2,52.7 	"/>
</g>
</svg>
