<?xml version="1.0" encoding="UTF-8" standalone="no"?>
<!DOCTYPE svg PUBLIC "-//W3C//DTD SVG 1.1//EN" "http://www.w3.org/Graphics/SVG/1.1/DTD/svg11.dtd">
<svg width="100%" height="100%" viewBox="0 0 300 300" version="1.1" xmlns="http://www.w3.org/2000/svg" xmlns:xlink="http://www.w3.org/1999/xlink" xml:space="preserve" xmlns:serif="http://www.serif.com/" style="fill-rule:evenodd;clip-rule:evenodd;stroke-linecap:round;stroke-linejoin:round;stroke-miterlimit:1.5;">
    <g transform="matrix(1,0,0,1,-2158.32,-2289.99)">
        <g id="Layer-1" serif:id="Layer 1">
        </g>
        <g transform="matrix(0.301848,0,0,0.582975,1915.51,1233.3)">
            <rect x="804.411" y="1812.59" width="993.877" height="514.602" style="fill:none;"/>
            <g transform="matrix(-2.65427,1.61375e-16,-3.65205e-16,-1.48748,-1410.81,5987.23)">
                <path d="M-1023.5,2477L-855,2797L-1192,2797L-1023.5,2477Z" style="fill:#43c500;stroke:#000;stroke-width:9.98px;"/>
            </g>
            <g transform="matrix(3.31292,1.7485e-17,7.63467e-18,1.71534,3407.8,-3258.67)">
                <g transform="matrix(150,0,0,150,-659.45,3182.11)">
                    <rect x="0.022" y="-0.338" width="0.289" height="0.154" style="fill-rule:nonzero;"/>
                </g>
            </g>
            <g transform="matrix(3.31292,0,0,1.71534,3384.74,-3446.2)">
                <g transform="matrix(150,0,0,150,-685.852,3209.56)">
                    <path d="M0.001,-0.716L0.247,-0.716L0.391,-0.474L0.536,-0.716L0.78,-0.716L0.501,-0.3L0.501,-0L0.28,-0L0.28,-0.3L0.001,-0.716Z" style="fill-rule:nonzero;"/>
                </g>
            </g>
        </g>
    </g>
</svg>
