<?xml version="1.0" encoding="utf-8"?>
<!-- Generator: Adobe Illustrator 25.3.1, SVG Export Plug-In . SVG Version: 6.00 Build 0)  -->
<svg version="1.1" id="New_VCP" xmlns="http://www.w3.org/2000/svg" xmlns:xlink="http://www.w3.org/1999/xlink" x="0px" y="0px"
	 viewBox="0 0 100 100" style="enable-background:new 0 0 100 100;" xml:space="preserve">
<style type="text/css">
	.st0{fill:#FFFFFF;}
	.st1{fill:#010101;}
	.st2{fill:#231F20;}
</style>
<g>
	<path class="st0" d="M99.5,93.56c0,3.28-2.66,5.94-5.94,5.94H6.44c-3.28,0-5.94-2.66-5.94-5.94V6.44c0-3.28,2.66-5.94,5.94-5.94
		h87.13c3.28,0,5.94,2.66,5.94,5.94V93.56z"/>
	<path class="st1" d="M93.56,100H6.44C2.89,100,0,97.11,0,93.56V6.44C0,2.89,2.89,0,6.44,0h87.13C97.11,0,100,2.89,100,6.44v87.13
		C100,97.11,97.11,100,93.56,100z M6.44,0.99c-3,0-5.45,2.44-5.45,5.45v87.13c0,3,2.44,5.45,5.45,5.45h87.13
		c3,0,5.45-2.44,5.45-5.45V6.44c0-3-2.44-5.45-5.45-5.45H6.44z"/>
</g>
<g>
	<path class="st2" d="M27.58,41.49h-5.44l-0.76,2.94H16.5l5.82-17.79h5.22l5.82,17.79h-5.01L27.58,41.49z M26.59,37.64l-1.71-6.4
		l-1.69,6.4H26.59z"/>
	<path class="st2" d="M44.24,26.63h4.78v10.6c0,1.05-0.14,2.04-0.43,2.98s-0.73,1.75-1.34,2.45s-1.25,1.19-1.92,1.47
		c-0.93,0.4-2.05,0.59-3.35,0.59c-0.75,0-1.58-0.06-2.47-0.18c-0.89-0.12-1.64-0.36-2.24-0.72c-0.6-0.36-1.15-0.87-1.64-1.53
		c-0.5-0.66-0.84-1.35-1.02-2.05c-0.3-1.13-0.44-2.13-0.44-3.01v-10.6h4.78v10.85c0,0.97,0.23,1.73,0.7,2.27
		c0.47,0.55,1.12,0.82,1.95,0.82c0.82,0,1.47-0.27,1.94-0.81s0.7-1.3,0.7-2.29V26.63z"/>
	<path class="st2" d="M51.1,26.63h14.55v4.39h-4.88v13.4h-4.79v-13.4H51.1V26.63z"/>
	<path class="st2" d="M66.48,35.54c0-2.9,0.7-5.17,2.11-6.78c1.41-1.62,3.37-2.43,5.89-2.43c2.58,0,4.57,0.79,5.96,2.38
		c1.39,1.59,2.09,3.82,2.09,6.68c0,2.08-0.31,3.78-0.92,5.11c-0.61,1.33-1.49,2.37-2.64,3.11c-1.15,0.74-2.59,1.11-4.31,1.11
		c-1.75,0-3.19-0.32-4.34-0.96c-1.15-0.64-2.07-1.65-2.79-3.03S66.48,37.62,66.48,35.54z M71.27,35.57c0,1.8,0.29,3.09,0.87,3.87
		c0.58,0.78,1.37,1.18,2.37,1.18c1.03,0,1.82-0.38,2.39-1.15c0.56-0.77,0.85-2.15,0.85-4.14c0-1.67-0.29-2.9-0.88-3.67
		c-0.59-0.77-1.39-1.16-2.39-1.16c-0.96,0-1.74,0.39-2.33,1.18S71.27,33.75,71.27,35.57z"/>
	<path class="st2" d="M43.38,51.49h13.55v3.56l-8.7,10.41h9.02v3.82h-14.7v-3.69l8.61-10.3h-7.77V51.49z"/>
</g>
</svg>
