<?xml version="1.0" encoding="utf-8"?>
<!-- Generator: Adobe Illustrator 24.0.1, SVG Export Plug-In . SVG Version: 6.00 Build 0)  -->
<svg version="1.1" id="New_VCP" xmlns="http://www.w3.org/2000/svg" xmlns:xlink="http://www.w3.org/1999/xlink" x="0px" y="0px"
	 viewBox="0 0 100 100" style="enable-background:new 0 0 100 100;" xml:space="preserve">
<style type="text/css">
	.st0{fill:#252D6B;}
	.st1{display:none;fill:#82151E;}
	.st2{fill:#FFFFFF;stroke:#000000;stroke-miterlimit:10;}
	.st3{fill:#FFFFFF;}
</style>
<path class="st0" d="M100,94c0,3.31-2.69,6-6,6H6c-3.31,0-6-2.69-6-6V6c0-3.31,2.69-6,6-6h88c3.31,0,6,2.69,6,6V94z"/>
<path class="st1" d="M35.09,3h-0.69H7.59C5.06,3,3,4.99,3,7.45v25.87v1.77L35.09,3z"/>
<circle class="st2" cx="59.04" cy="44.38" r="33.38"/>
<g>
	<path d="M42.22,43.13l-5.88-16.46h3.6l4.17,12.19l4.03-12.19h3.53l-5.9,16.46H42.22z"/>
	<path d="M66.5,43.13h-3.62l-1.44-3.74h-6.58l-1.36,3.74h-3.53l6.41-16.46h3.51L66.5,43.13z M60.38,36.61l-2.27-6.11l-2.22,6.11
		H60.38z"/>
	<path d="M78.79,37.07l3.22,1.02c-0.49,1.8-1.32,3.13-2.46,4c-1.15,0.87-2.61,1.31-4.37,1.31c-2.19,0-3.98-0.75-5.39-2.24
		c-1.41-1.49-2.11-3.54-2.11-6.13c0-2.74,0.71-4.87,2.12-6.38c1.42-1.52,3.28-2.27,5.58-2.27c2.01,0,3.65,0.6,4.91,1.79
		c0.75,0.7,1.31,1.71,1.68,3.03l-3.29,0.79c-0.2-0.85-0.6-1.53-1.22-2.02c-0.62-0.49-1.37-0.74-2.25-0.74
		c-1.22,0-2.21,0.44-2.97,1.31s-1.14,2.29-1.14,4.26c0,2.08,0.37,3.56,1.12,4.45s1.72,1.33,2.92,1.33c0.88,0,1.64-0.28,2.28-0.84
		C78.06,39.16,78.52,38.28,78.79,37.07z"/>
</g>
<g>
	<path class="st3" d="M4.5,95.32V79.44h4.57l2.75,10.83l2.71-10.83h4.58v15.88h-2.84v-12.5l-3,12.5h-2.94l-2.99-12.5v12.5H4.5z"/>
	<path class="st3" d="M31.05,92.49v2.83H20.88c0.11-1.07,0.44-2.08,0.99-3.04c0.55-0.96,1.64-2.23,3.26-3.81
		c1.31-1.28,2.11-2.14,2.4-2.6c0.4-0.63,0.6-1.25,0.6-1.86c0-0.68-0.17-1.2-0.52-1.56c-0.35-0.36-0.83-0.55-1.44-0.55
		c-0.61,0-1.09,0.19-1.45,0.57c-0.36,0.38-0.56,1.02-0.62,1.91l-2.89-0.3c0.17-1.67,0.71-2.88,1.62-3.61
		c0.91-0.73,2.04-1.09,3.41-1.09c1.49,0,2.67,0.42,3.52,1.27c0.85,0.84,1.28,1.89,1.28,3.15c0,0.71-0.12,1.39-0.37,2.04
		s-0.63,1.32-1.16,2.03c-0.35,0.47-0.98,1.14-1.9,2.03s-1.5,1.46-1.74,1.75s-0.44,0.57-0.59,0.84H31.05z"/>
	<path class="st3" d="M32.76,82.49v-2.83h9.92v2.21c-0.82,0.84-1.65,2.06-2.5,3.64s-1.49,3.26-1.94,5.04
		c-0.44,1.78-0.66,3.37-0.66,4.77h-2.8c0.05-2.19,0.48-4.43,1.29-6.71s1.9-4.32,3.27-6.12H32.76z"/>
</g>
<g>
	<path d="M42.02,56.47c0-1.68,0.25-3.08,0.75-4.22c0.37-0.84,0.89-1.59,1.53-2.26c0.65-0.67,1.36-1.16,2.13-1.48
		c1.03-0.43,2.21-0.65,3.55-0.65c2.43,0,4.37,0.75,5.82,2.26c1.46,1.5,2.18,3.6,2.18,6.28c0,2.66-0.72,4.74-2.17,6.24
		c-1.44,1.5-3.38,2.25-5.79,2.25c-2.45,0-4.4-0.75-5.84-2.24C42.74,61.15,42.02,59.09,42.02,56.47z M45.44,56.36
		c0,1.86,0.43,3.28,1.29,4.24c0.86,0.96,1.95,1.44,3.28,1.44c1.33,0,2.41-0.48,3.26-1.43c0.85-0.96,1.28-2.39,1.28-4.3
		c0-1.89-0.41-3.29-1.24-4.22c-0.83-0.93-1.93-1.39-3.3-1.39c-1.37,0-2.47,0.47-3.31,1.41C45.86,53.04,45.44,54.46,45.44,56.36z"/>
	<path d="M60.61,64.6V48.14h3.23l6.74,10.99V48.14h3.09V64.6h-3.33L63.7,53.86V64.6H60.61z"/>
</g>
</svg>
