<?xml version="1.0" encoding="utf-8"?>
<!-- Generator: Adobe Illustrator 25.3.1, SVG Export Plug-In . SVG Version: 6.00 Build 0)  -->
<svg version="1.1" id="New_VCP" xmlns="http://www.w3.org/2000/svg" xmlns:xlink="http://www.w3.org/1999/xlink" x="0px" y="0px"
	 viewBox="0 0 100 100" style="enable-background:new 0 0 100 100;" xml:space="preserve">
<style type="text/css">
	.st0{fill:#FFC70E;}
	.st1{fill:#231F20;}
</style>
<path class="st0" d="M100,94c0,3.31-2.69,6-6,6H6c-3.31,0-6-2.69-6-6V6c0-3.31,2.69-6,6-6h88c3.31,0,6,2.69,6,6V94z"/>
<g>
	<path class="st1" d="M8.38,26.63h14.56v4.39h-4.88v13.4h-4.79v-13.4H8.38V26.63z"/>
	<path class="st1" d="M23.75,35.54c0-2.9,0.7-5.17,2.11-6.78c1.41-1.62,3.37-2.43,5.89-2.43c2.58,0,4.57,0.79,5.96,2.38
		c1.4,1.59,2.09,3.82,2.09,6.68c0,2.08-0.3,3.78-0.91,5.11c-0.61,1.33-1.49,2.37-2.64,3.11c-1.15,0.74-2.59,1.11-4.31,1.11
		c-1.75,0-3.19-0.32-4.34-0.96c-1.15-0.64-2.07-1.65-2.79-3.03C24.11,39.35,23.75,37.62,23.75,35.54z M28.54,35.57
		c0,1.8,0.29,3.09,0.87,3.87c0.58,0.78,1.37,1.18,2.37,1.18c1.03,0,1.83-0.38,2.39-1.15c0.56-0.77,0.85-2.15,0.85-4.14
		c0-1.67-0.29-2.9-0.88-3.67c-0.59-0.77-1.39-1.16-2.39-1.16c-0.97,0-1.74,0.39-2.33,1.18S28.54,33.75,28.54,35.57z"/>
	<path class="st1" d="M42.45,44.42V26.63h7.98c1.48,0,2.61,0.15,3.39,0.44c0.78,0.29,1.41,0.83,1.89,1.62
		c0.48,0.79,0.72,1.75,0.72,2.88c0,0.99-0.18,1.84-0.55,2.55c-0.37,0.72-0.87,1.3-1.51,1.74c-0.41,0.28-0.97,0.52-1.68,0.7
		c0.57,0.22,0.99,0.44,1.25,0.66c0.18,0.15,0.43,0.46,0.77,0.94c0.33,0.48,0.56,0.85,0.67,1.11l2.32,5.15h-5.41l-2.56-5.44
		c-0.32-0.7-0.61-1.16-0.87-1.37c-0.35-0.27-0.74-0.41-1.17-0.41h-0.42v7.22H42.45z M47.26,33.84h2.02c0.22,0,0.64-0.08,1.27-0.24
		c0.32-0.07,0.58-0.26,0.78-0.56c0.2-0.3,0.3-0.64,0.3-1.03c0-0.57-0.16-1.02-0.48-1.32c-0.32-0.31-0.91-0.46-1.79-0.46h-2.1V33.84z
		"/>
	<path class="st1" d="M69.15,37.14l4.2,1.46c-0.28,1.35-0.73,2.48-1.33,3.39c-0.61,0.91-1.36,1.59-2.26,2.05
		c-0.9,0.46-2.04,0.69-3.43,0.69c-1.68,0-3.06-0.28-4.13-0.84c-1.07-0.56-1.99-1.55-2.76-2.96c-0.77-1.42-1.16-3.23-1.16-5.43
		c0-2.94,0.68-5.2,2.04-6.78c1.36-1.58,3.29-2.37,5.79-2.37c1.95,0,3.49,0.45,4.6,1.36c1.12,0.91,1.95,2.3,2.49,4.17l-4.23,1.08
		c-0.15-0.54-0.3-0.94-0.46-1.19c-0.27-0.42-0.6-0.74-0.98-0.97c-0.39-0.23-0.82-0.34-1.3-0.34c-1.08,0-1.92,0.5-2.49,1.5
		c-0.44,0.74-0.66,1.91-0.66,3.5c0,1.97,0.26,3.32,0.78,4.05c0.52,0.73,1.25,1.1,2.2,1.1c0.92,0,1.61-0.29,2.08-0.89
		C68.6,39.12,68.94,38.27,69.15,37.14z"/>
	<path class="st1" d="M75.7,26.63h4.79v6.23h5.23v-6.23h4.81v17.79h-4.81v-7.2h-5.23v7.2H75.7V26.63z"/>
	<path class="st1" d="M15.54,51.49h4.79v6.23h5.23v-6.23h4.81v17.79h-4.81v-7.2h-5.23v7.2h-4.79V51.49z"/>
	<path class="st1" d="M32.95,60.39c0-2.9,0.7-5.17,2.11-6.78c1.41-1.62,3.37-2.43,5.89-2.43c2.58,0,4.57,0.79,5.96,2.38
		c1.4,1.59,2.09,3.82,2.09,6.68c0,2.08-0.31,3.78-0.92,5.12c-0.61,1.33-1.49,2.37-2.64,3.11c-1.15,0.74-2.59,1.11-4.31,1.11
		c-1.75,0-3.19-0.32-4.34-0.96c-1.15-0.64-2.07-1.65-2.79-3.03C33.31,64.2,32.95,62.47,32.95,60.39z M37.74,60.42
		c0,1.8,0.29,3.09,0.87,3.87c0.58,0.78,1.37,1.18,2.37,1.18c1.03,0,1.83-0.38,2.39-1.15c0.56-0.77,0.85-2.15,0.85-4.14
		c0-1.67-0.29-2.9-0.88-3.67c-0.59-0.77-1.39-1.16-2.39-1.16c-0.97,0-1.74,0.39-2.33,1.18C38.03,57.31,37.74,58.61,37.74,60.42z"/>
	<path class="st1" d="M51.53,51.49h6.3l2.43,10.82l2.41-10.82h6.29v17.79h-3.92V55.71l-3.02,13.57h-3.55l-3.02-13.57v13.57h-3.92
		V51.49z"/>
	<path class="st1" d="M72.01,51.49h12.83v3.8h-8.03v2.83h7.45v3.63h-7.45v3.51h8.27v4.03H72.01V51.49z"/>
</g>
</svg>
