<?xml version="1.0" encoding="utf-8"?>
<!-- Generator: Adobe Illustrator 26.0.3, SVG Export Plug-In . SVG Version: 6.00 Build 0)  -->
<svg version="1.1" id="New_VCP" xmlns="http://www.w3.org/2000/svg" xmlns:xlink="http://www.w3.org/1999/xlink" x="0px" y="0px"
	 viewBox="0 0 100 100" style="enable-background:new 0 0 100 100;" xml:space="preserve">
<style type="text/css">
	.st0{fill:#FFC70E;}
</style>
<path class="st0" d="M100,94c0,3.3-2.7,6-6,6H6c-3.3,0-6-2.7-6-6V6c0-3.3,2.7-6,6-6h88c3.3,0,6,2.7,6,6V94z"/>
<g>
	<path d="M25.3,24l4.9-0.4c0.1,0.9,0.3,1.6,0.7,2.1c0.5,0.8,1.3,1.2,2.3,1.2c0.7,0,1.3-0.2,1.7-0.6c0.4-0.4,0.6-0.9,0.6-1.4
		c0-0.5-0.2-0.9-0.6-1.3s-1.3-0.8-2.7-1.1c-2.3-0.6-3.9-1.4-4.9-2.3c-1-1-1.5-2.2-1.5-3.7c0-1,0.3-1.9,0.8-2.8
		c0.5-0.9,1.3-1.6,2.3-2.1c1-0.5,2.4-0.8,4.1-0.8c2.2,0,3.8,0.5,4.9,1.4c1.1,0.9,1.8,2.4,2,4.4l-4.9,0.3C35,16,34.8,15.4,34.3,15
		c-0.4-0.4-1-0.6-1.7-0.6c-0.6,0-1.1,0.1-1.4,0.4c-0.3,0.3-0.5,0.7-0.5,1.1c0,0.3,0.1,0.6,0.4,0.8c0.2,0.3,0.8,0.5,1.7,0.7
		c2.3,0.6,3.9,1.1,4.9,1.7c1,0.6,1.7,1.3,2.1,2.1s0.7,1.8,0.7,2.9c0,1.2-0.3,2.4-0.9,3.4c-0.6,1-1.4,1.8-2.5,2.4
		c-1.1,0.5-2.4,0.8-4.1,0.8c-2.9,0-4.8-0.6-5.9-1.9S25.5,26,25.3,24z"/>
	<path d="M43.2,11.1h13.9v4.1h-8.7v3.1h8.1v3.9h-8.1v3.8h9v4.4H43.2V11.1z"/>
	<path d="M59,11.1h15.8v4.8h-5.3v14.6h-5.2V15.9H59V11.1z"/>
	<path d="M23.8,38.1h5.7l3,5.9l2.9-5.9h5.7l-5.2,9.4l5.7,10h-5.8l-3.3-6.2l-3.3,6.2h-5.8l5.8-10.1L23.8,38.1z"/>
	<path d="M41.5,38.1h5.8l3.4,6.5l3.4-6.5h5.7l-6.5,11.2v8.1h-5.2v-8.1L41.5,38.1z"/>
	<path d="M61.1,38.1h14.7V42l-9.5,11.3h9.8v4.2h-16v-4l9.4-11.2h-8.4V38.1z"/>
	<path d="M15.6,65.1h14.7V69l-9.4,11.3h9.8v4.2h-16v-4L24,69.2h-8.4V65.1z"/>
	<path d="M33,65.1h13.9v4.1h-8.7v3.1h8.1v3.9h-8.1v3.8h9v4.4H33V65.1z"/>
	<path d="M50,84.4V65.1h8.7c1.6,0,2.8,0.2,3.7,0.5s1.5,0.9,2.1,1.8c0.5,0.9,0.8,1.9,0.8,3.1c0,1.1-0.2,2-0.6,2.8
		c-0.4,0.8-0.9,1.4-1.6,1.9c-0.4,0.3-1.1,0.6-1.8,0.8c0.6,0.2,1.1,0.5,1.4,0.7c0.2,0.2,0.5,0.5,0.8,1c0.4,0.5,0.6,0.9,0.7,1.2
		l2.5,5.6h-5.9l-2.8-5.9c-0.4-0.8-0.7-1.3-0.9-1.5c-0.4-0.3-0.8-0.4-1.3-0.4h-0.5v7.8H50z M55.3,72.9h2.2c0.2,0,0.7-0.1,1.4-0.3
		c0.3-0.1,0.6-0.3,0.8-0.6S60,71.4,60,71c0-0.6-0.2-1.1-0.5-1.4s-1-0.5-1.9-0.5h-2.3V72.9z"/>
	<path d="M67.2,74.8c0-3.2,0.8-5.6,2.3-7.4s3.7-2.6,6.4-2.6c2.8,0,5,0.9,6.5,2.6c1.5,1.7,2.3,4.1,2.3,7.3c0,2.3-0.3,4.1-1,5.6
		c-0.7,1.4-1.6,2.6-2.9,3.4c-1.3,0.8-2.8,1.2-4.7,1.2c-1.9,0-3.5-0.3-4.7-1s-2.3-1.8-3-3.3S67.2,77.1,67.2,74.8z M72.4,74.8
		c0,2,0.3,3.4,0.9,4.2c0.6,0.9,1.5,1.3,2.6,1.3c1.1,0,2-0.4,2.6-1.3c0.6-0.8,0.9-2.3,0.9-4.5c0-1.8-0.3-3.1-1-4
		c-0.6-0.8-1.5-1.3-2.6-1.3c-1,0-1.9,0.4-2.5,1.3C72.7,71.4,72.4,72.8,72.4,74.8z"/>
</g>
</svg>
