<?xml version="1.0" encoding="UTF-8" standalone="no"?>
<!DOCTYPE svg PUBLIC "-//W3C//DTD SVG 1.1//EN" "http://www.w3.org/Graphics/SVG/1.1/DTD/svg11.dtd">
<svg width="100%" height="100%" viewBox="0 0 300 300" version="1.1" xmlns="http://www.w3.org/2000/svg" xmlns:xlink="http://www.w3.org/1999/xlink" xml:space="preserve" xmlns:serif="http://www.serif.com/" style="fill-rule:evenodd;clip-rule:evenodd;stroke-linecap:round;stroke-linejoin:round;stroke-miterlimit:1.5;">
    <g transform="matrix(1,0,0,1,-2749.99,-2650.99)">
        <g transform="matrix(0.301848,0,0,0.582975,2507.18,1594.3)">
            <rect x="804.411" y="1812.59" width="993.877" height="514.602" style="fill:none;"/>
            <g transform="matrix(3.31292,0,0,1.71534,753.061,-2684.17)">
                <rect x="27" y="2634" width="277" height="277" style="fill:#06f;stroke:#000;stroke-width:8.33px;"/>
            </g>
            <g transform="matrix(3.31292,0,0,1.71534,5230.48,-3707.37)">
                <g transform="matrix(62.5,0,0,62.5,-1313.7,3363.62)">
                    <path d="M0.035,-0.237L0.245,-0.25C0.25,-0.216 0.259,-0.19 0.273,-0.172C0.296,-0.143 0.328,-0.128 0.371,-0.128C0.402,-0.128 0.427,-0.136 0.444,-0.151C0.461,-0.165 0.469,-0.183 0.469,-0.202C0.469,-0.221 0.461,-0.237 0.445,-0.252C0.429,-0.267 0.391,-0.28 0.332,-0.293C0.235,-0.315 0.165,-0.344 0.124,-0.38C0.082,-0.417 0.062,-0.463 0.062,-0.519C0.062,-0.555 0.072,-0.59 0.094,-0.623C0.115,-0.656 0.147,-0.681 0.19,-0.7C0.233,-0.719 0.291,-0.728 0.366,-0.728C0.457,-0.728 0.527,-0.711 0.575,-0.677C0.623,-0.643 0.652,-0.589 0.661,-0.515L0.452,-0.502C0.447,-0.535 0.435,-0.558 0.417,-0.573C0.399,-0.587 0.375,-0.595 0.344,-0.595C0.318,-0.595 0.299,-0.589 0.286,-0.578C0.273,-0.567 0.266,-0.554 0.266,-0.539C0.266,-0.527 0.271,-0.517 0.282,-0.508C0.293,-0.498 0.317,-0.49 0.356,-0.481C0.453,-0.461 0.522,-0.44 0.564,-0.418C0.606,-0.397 0.636,-0.37 0.656,-0.339C0.675,-0.307 0.684,-0.272 0.684,-0.233C0.684,-0.187 0.671,-0.145 0.646,-0.106C0.621,-0.067 0.585,-0.038 0.54,-0.018C0.494,0.002 0.437,0.012 0.367,0.012C0.245,0.012 0.161,-0.011 0.114,-0.058C0.067,-0.105 0.041,-0.165 0.035,-0.237Z" style="fill-rule:nonzero;"/>
                </g>
                <g transform="matrix(62.5,0,0,62.5,-1268.57,3363.62)">
                    <rect x="0.082" y="-0.716" width="0.222" height="0.716" style="fill-rule:nonzero;"/>
                </g>
                <g transform="matrix(62.5,0,0,62.5,-1244.25,3363.62)">
                    <path d="M0.075,-0.716L0.281,-0.716L0.551,-0.32L0.551,-0.716L0.759,-0.716L0.759,-0L0.551,-0L0.283,-0.393L0.283,-0L0.075,-0L0.075,-0.716Z" style="fill-rule:nonzero;"/>
                </g>
                <g transform="matrix(62.5,0,0,62.5,-1192.18,3363.62)">
                    <path d="M0.433,-0.259L0.433,-0.408L0.775,-0.408L0.775,-0.103C0.709,-0.058 0.652,-0.028 0.601,-0.012C0.551,0.004 0.491,0.012 0.422,0.012C0.337,0.012 0.268,-0.002 0.215,-0.031C0.161,-0.06 0.12,-0.103 0.09,-0.161C0.061,-0.218 0.046,-0.284 0.046,-0.358C0.046,-0.436 0.062,-0.504 0.094,-0.562C0.126,-0.62 0.174,-0.663 0.236,-0.693C0.284,-0.716 0.35,-0.728 0.432,-0.728C0.511,-0.728 0.57,-0.721 0.609,-0.707C0.648,-0.692 0.681,-0.67 0.707,-0.64C0.733,-0.61 0.752,-0.572 0.765,-0.525L0.552,-0.487C0.543,-0.514 0.528,-0.535 0.507,-0.549C0.486,-0.564 0.459,-0.571 0.427,-0.571C0.378,-0.571 0.34,-0.554 0.311,-0.52C0.282,-0.487 0.268,-0.433 0.268,-0.36C0.268,-0.283 0.282,-0.228 0.311,-0.194C0.34,-0.161 0.381,-0.145 0.433,-0.145C0.458,-0.145 0.481,-0.148 0.504,-0.155C0.526,-0.162 0.552,-0.175 0.581,-0.192L0.581,-0.259L0.433,-0.259Z" style="fill-rule:nonzero;"/>
                </g>
                <g transform="matrix(62.5,0,0,62.5,-1140.12,3363.62)">
                    <path d="M0.073,-0.716L0.294,-0.716L0.294,-0.176L0.64,-0.176L0.64,-0L0.073,-0L0.073,-0.716Z" style="fill-rule:nonzero;"/>
                </g>
                <g transform="matrix(62.5,0,0,62.5,-1098.43,3363.62)">
                    <path d="M0.073,-0.716L0.666,-0.716L0.666,-0.563L0.294,-0.563L0.294,-0.449L0.639,-0.449L0.639,-0.303L0.294,-0.303L0.294,-0.162L0.676,-0.162L0.676,-0L0.073,-0L0.073,-0.716Z" style="fill-rule:nonzero;"/>
                </g>
                <g transform="matrix(62.5,0,0,62.5,-1304.49,3426.12)">
                    <path d="M0.074,-0.716L0.488,-0.716C0.557,-0.716 0.61,-0.699 0.647,-0.665C0.684,-0.63 0.702,-0.588 0.702,-0.538C0.702,-0.495 0.689,-0.459 0.663,-0.429C0.645,-0.409 0.619,-0.393 0.585,-0.381C0.637,-0.368 0.675,-0.347 0.699,-0.317C0.723,-0.287 0.735,-0.249 0.735,-0.204C0.735,-0.167 0.727,-0.133 0.709,-0.104C0.692,-0.074 0.669,-0.05 0.639,-0.033C0.62,-0.022 0.592,-0.015 0.555,-0.01C0.505,-0.003 0.472,-0 0.456,-0L0.074,-0L0.074,-0.716ZM0.297,-0.435L0.393,-0.435C0.428,-0.435 0.452,-0.441 0.465,-0.453C0.479,-0.465 0.485,-0.482 0.485,-0.504C0.485,-0.525 0.479,-0.542 0.465,-0.553C0.452,-0.565 0.428,-0.571 0.395,-0.571L0.297,-0.571L0.297,-0.435ZM0.297,-0.154L0.41,-0.154C0.448,-0.154 0.475,-0.161 0.49,-0.174C0.506,-0.188 0.514,-0.206 0.514,-0.229C0.514,-0.25 0.506,-0.267 0.49,-0.28C0.475,-0.292 0.448,-0.299 0.409,-0.299L0.297,-0.299L0.297,-0.154Z" style="fill-rule:nonzero;"/>
                </g>
                <g transform="matrix(62.5,0,0,62.5,-1255.87,3426.12)">
                    <path d="M0.073,-0.716L0.294,-0.716L0.294,-0.176L0.64,-0.176L0.64,-0L0.073,-0L0.073,-0.716Z" style="fill-rule:nonzero;"/>
                </g>
                <g transform="matrix(62.5,0,0,62.5,-1215.25,3426.12)">
                    <path d="M0.045,-0.357C0.045,-0.474 0.078,-0.565 0.143,-0.63C0.208,-0.695 0.299,-0.728 0.415,-0.728C0.534,-0.728 0.626,-0.696 0.69,-0.632C0.755,-0.568 0.787,-0.479 0.787,-0.363C0.787,-0.28 0.773,-0.211 0.745,-0.157C0.717,-0.104 0.676,-0.062 0.623,-0.032C0.57,-0.003 0.503,0.012 0.424,0.012C0.343,0.012 0.276,-0.001 0.223,-0.026C0.17,-0.052 0.128,-0.093 0.095,-0.148C0.062,-0.204 0.045,-0.274 0.045,-0.357ZM0.267,-0.356C0.267,-0.284 0.28,-0.232 0.307,-0.201C0.334,-0.169 0.37,-0.153 0.417,-0.153C0.464,-0.153 0.501,-0.169 0.527,-0.2C0.553,-0.231 0.566,-0.286 0.566,-0.366C0.566,-0.434 0.552,-0.483 0.525,-0.514C0.498,-0.545 0.461,-0.561 0.415,-0.561C0.37,-0.561 0.334,-0.545 0.307,-0.513C0.28,-0.482 0.267,-0.429 0.267,-0.356Z" style="fill-rule:nonzero;"/>
                </g>
                <g transform="matrix(62.5,0,0,62.5,-1163.19,3426.12)">
                    <path d="M0.55,-0.292L0.744,-0.234C0.731,-0.18 0.71,-0.134 0.682,-0.098C0.654,-0.061 0.619,-0.034 0.578,-0.015C0.536,0.003 0.484,0.013 0.419,0.013C0.342,0.013 0.278,0.001 0.229,-0.021C0.179,-0.044 0.137,-0.084 0.101,-0.141C0.065,-0.198 0.047,-0.271 0.047,-0.359C0.047,-0.478 0.079,-0.569 0.142,-0.633C0.205,-0.696 0.294,-0.728 0.409,-0.728C0.499,-0.728 0.57,-0.71 0.622,-0.673C0.673,-0.637 0.712,-0.581 0.737,-0.505L0.542,-0.462C0.535,-0.484 0.528,-0.5 0.52,-0.51C0.508,-0.527 0.493,-0.54 0.475,-0.549C0.457,-0.558 0.437,-0.563 0.415,-0.563C0.364,-0.563 0.326,-0.542 0.299,-0.502C0.279,-0.472 0.269,-0.425 0.269,-0.361C0.269,-0.281 0.281,-0.227 0.305,-0.198C0.329,-0.168 0.363,-0.153 0.407,-0.153C0.449,-0.153 0.481,-0.165 0.503,-0.189C0.524,-0.213 0.54,-0.247 0.55,-0.292Z" style="fill-rule:nonzero;"/>
                </g>
                <g transform="matrix(62.5,0,0,62.5,-1114.58,3426.12)">
                    <path d="M0.074,-0.716L0.295,-0.716L0.295,-0.445L0.527,-0.716L0.821,-0.716L0.561,-0.446L0.833,-0L0.561,-0L0.41,-0.294L0.295,-0.175L0.295,-0L0.074,-0L0.074,-0.716Z" style="fill-rule:nonzero;"/>
                </g>
            </g>
        </g>
        <g id="Layer-1" serif:id="Layer 1">
        </g>
    </g>
</svg>
