<?xml version="1.0" encoding="UTF-8" standalone="no"?>
<!DOCTYPE svg PUBLIC "-//W3C//DTD SVG 1.1//EN" "http://www.w3.org/Graphics/SVG/1.1/DTD/svg11.dtd">
<svg width="100%" height="100%" viewBox="0 0 300 300" version="1.1" xmlns="http://www.w3.org/2000/svg" xmlns:xlink="http://www.w3.org/1999/xlink" xml:space="preserve" xmlns:serif="http://www.serif.com/" style="fill-rule:evenodd;clip-rule:evenodd;stroke-linecap:round;stroke-miterlimit:1.5;">
    <g transform="matrix(1,0,0,1,-3128.32,-1542.99)">
        <g id="Layer-1" serif:id="Layer 1">
        </g>
        <g transform="matrix(0.301848,0,0,0.582975,2885.51,486.296)">
            <rect x="804.411" y="1812.59" width="993.877" height="514.602" style="fill:none;"/>
            <g transform="matrix(2.02858e-16,1.71534,-3.31292,1.05034e-16,7087.43,-3711.38)">
                <circle cx="3358" cy="1762" r="125" style="fill:#bc00ff;stroke:#000;stroke-width:8.33px;"/>
            </g>
            <g transform="matrix(3.31292,0,0,1.71534,-535.605,1824.03)">
                <g transform="matrix(62.5,0,0,62.5,505.66,153.369)">
                    <path d="M0.041,-0.361C0.041,-0.497 0.066,-0.592 0.115,-0.646C0.163,-0.701 0.238,-0.728 0.338,-0.728C0.387,-0.728 0.426,-0.722 0.457,-0.71C0.488,-0.698 0.513,-0.683 0.533,-0.664C0.552,-0.645 0.568,-0.625 0.579,-0.604C0.59,-0.583 0.599,-0.558 0.606,-0.53C0.619,-0.477 0.626,-0.421 0.626,-0.363C0.626,-0.233 0.604,-0.138 0.56,-0.078C0.516,-0.018 0.44,0.012 0.333,0.012C0.273,0.012 0.224,0.003 0.187,-0.017C0.15,-0.036 0.119,-0.064 0.096,-0.101C0.078,-0.127 0.065,-0.163 0.055,-0.209C0.046,-0.255 0.041,-0.306 0.041,-0.361ZM0.238,-0.36C0.238,-0.269 0.246,-0.207 0.262,-0.174C0.279,-0.14 0.302,-0.124 0.333,-0.124C0.353,-0.124 0.37,-0.131 0.385,-0.145C0.4,-0.159 0.411,-0.181 0.418,-0.212C0.425,-0.243 0.428,-0.29 0.428,-0.355C0.428,-0.45 0.42,-0.514 0.404,-0.547C0.388,-0.579 0.364,-0.596 0.332,-0.596C0.299,-0.596 0.275,-0.579 0.26,-0.546C0.246,-0.512 0.238,-0.451 0.238,-0.36Z" style="fill:#0b0a08;fill-rule:nonzero;"/>
                </g>
                <g transform="matrix(62.5,0,0,62.5,547.347,153.369)">
                    <path d="M0.338,-0.589C0.338,-0.55 0.324,-0.518 0.297,-0.49C0.27,-0.463 0.236,-0.449 0.198,-0.449C0.159,-0.449 0.126,-0.463 0.099,-0.49C0.072,-0.518 0.058,-0.55 0.058,-0.589C0.058,-0.628 0.072,-0.661 0.099,-0.688C0.126,-0.715 0.159,-0.729 0.198,-0.729C0.236,-0.729 0.27,-0.715 0.297,-0.688C0.324,-0.661 0.338,-0.628 0.338,-0.589ZM0.247,-0.589C0.247,-0.603 0.242,-0.615 0.233,-0.625C0.223,-0.634 0.211,-0.639 0.198,-0.639C0.184,-0.639 0.172,-0.634 0.163,-0.625C0.153,-0.615 0.148,-0.603 0.148,-0.589C0.148,-0.576 0.153,-0.564 0.163,-0.554C0.172,-0.545 0.184,-0.54 0.198,-0.54C0.211,-0.54 0.223,-0.545 0.233,-0.554C0.242,-0.564 0.247,-0.576 0.247,-0.589Z" style="fill:#0b0a08;fill-rule:nonzero;"/>
                </g>
            </g>
        </g>
    </g>
</svg>
