<?xml version="1.0" encoding="utf-8"?>
<!-- Generator: Adobe Illustrator 25.3.1, SVG Export Plug-In . SVG Version: 6.00 Build 0)  -->
<svg version="1.1" id="New_VCP" xmlns="http://www.w3.org/2000/svg" xmlns:xlink="http://www.w3.org/1999/xlink" x="0px" y="0px"
	 viewBox="0 0 100 100" style="enable-background:new 0 0 100 100;" xml:space="preserve">
<style type="text/css">
	.st0{fill:#FFC70E;}
	.st1{fill:#FFFFFF;}
	.st2{fill:#231F20;}
</style>
<g>
	<path class="st0" d="M99.5,93.56c0,3.28-2.66,5.94-5.94,5.94H6.43c-3.28,0-5.94-2.66-5.94-5.94V6.44c0-3.28,2.66-5.94,5.94-5.94
		h87.13c3.28,0,5.94,2.66,5.94,5.94V93.56z"/>
	<path class="st1" d="M93.56,100H6.43C2.89,100,0,97.11,0,93.56V6.44C0,2.89,2.89,0,6.43,0h87.13C97.11,0,100,2.89,100,6.44v87.13
		C100,97.11,97.11,100,93.56,100z M6.43,0.99c-3,0-5.44,2.44-5.44,5.45v87.13c0,3,2.44,5.45,5.44,5.45h87.13
		c3,0,5.45-2.44,5.45-5.45V6.44c0-3-2.44-5.45-5.45-5.45H6.43z"/>
</g>
<g>
	<path class="st2" d="M24.15,25.89h11.37v3.52h-6.75v2.86h5.77v3.31h-5.77v6.69h-4.62V25.89z"/>
	<path class="st2" d="M37.99,25.89h12.32v3.5H42.6v2.6h7.16v3.34H42.6v3.23h7.94v3.71H37.99V25.89z"/>
	<path class="st2" d="M53.01,25.89h12.32v3.5h-7.72v2.6h7.16v3.34h-7.16v3.23h7.94v3.71H53.01V25.89z"/>
	<path class="st2" d="M68.09,25.89h6.83c1.35,0,2.43,0.2,3.26,0.6c0.83,0.4,1.51,0.98,2.06,1.73c0.54,0.75,0.93,1.63,1.18,2.62
		c0.24,1,0.37,2.05,0.37,3.17c0,1.75-0.18,3.11-0.54,4.07c-0.36,0.96-0.86,1.77-1.51,2.42c-0.64,0.65-1.33,1.09-2.07,1.3
		c-1.01,0.3-1.92,0.45-2.74,0.45h-6.83V25.89z M72.69,29.59v8.95h1.13c0.96,0,1.64-0.12,2.05-0.35s0.73-0.64,0.96-1.23
		c0.23-0.58,0.34-1.53,0.34-2.84c0-1.73-0.26-2.92-0.77-3.56c-0.51-0.64-1.37-0.96-2.56-0.96H72.69z"/>
	<path class="st2" d="M21.85,50.02h4.6v5.73h5.03v-5.73h4.62v16.37h-4.62v-6.62h-5.03v6.62h-4.6V50.02z"/>
	<path class="st2" d="M38.57,58.22c0-2.67,0.68-4.75,2.03-6.24c1.35-1.49,3.24-2.23,5.66-2.23c2.48,0,4.39,0.73,5.73,2.19
		c1.34,1.46,2.01,3.51,2.01,6.15c0,1.91-0.29,3.48-0.88,4.71c-0.59,1.23-1.43,2.18-2.54,2.86c-1.11,0.68-2.49,1.02-4.14,1.02
		c-1.68,0-3.07-0.29-4.17-0.88c-1.1-0.59-1.99-1.52-2.68-2.79C38.91,61.72,38.57,60.13,38.57,58.22z M43.17,58.24
		c0,1.65,0.28,2.84,0.84,3.56c0.56,0.72,1.32,1.08,2.28,1.08c0.99,0,1.75-0.35,2.29-1.06c0.54-0.71,0.81-1.98,0.81-3.81
		c0-1.54-0.28-2.67-0.85-3.38c-0.57-0.71-1.33-1.07-2.3-1.07c-0.93,0-1.67,0.36-2.23,1.08C43.45,55.38,43.17,56.57,43.17,58.24z"/>
	<path class="st2" d="M56.47,50.02h4.6v12.34h7.18v4.03H56.47V50.02z"/>
	<path class="st2" d="M70.4,50.02h6.83c1.35,0,2.44,0.2,3.26,0.6c0.83,0.4,1.51,0.98,2.06,1.73c0.54,0.75,0.93,1.63,1.18,2.62
		c0.24,1,0.37,2.05,0.37,3.17c0,1.75-0.18,3.11-0.54,4.07c-0.36,0.96-0.87,1.77-1.51,2.42c-0.64,0.65-1.33,1.09-2.07,1.3
		c-1.01,0.3-1.92,0.45-2.74,0.45H70.4V50.02z M74.99,53.73v8.95h1.13c0.96,0,1.65-0.12,2.05-0.35c0.41-0.23,0.72-0.64,0.95-1.23
		c0.23-0.58,0.35-1.53,0.35-2.84c0-1.73-0.26-2.92-0.77-3.56c-0.51-0.64-1.37-0.96-2.56-0.96H74.99z"/>
</g>
</svg>
