<?xml version="1.0" encoding="utf-8"?>
<!-- Generator: Adobe Illustrator 24.0.2, SVG Export Plug-In . SVG Version: 6.00 Build 0)  -->
<svg version="1.1" id="New_VCP" xmlns="http://www.w3.org/2000/svg" xmlns:xlink="http://www.w3.org/1999/xlink" x="0px" y="0px"
	 width="100px" height="100px" viewBox="0 0 100 100" style="enable-background:new 0 0 100 100;" xml:space="preserve">
<style type="text/css">
	.st0{fill:#FFC70E;}
	.st1{display:none;fill:#82151E;}
	.st2{display:none;}
	.st3{display:inline;fill:#010101;}
</style>
<path class="st0" d="M100,94c0,3.31-2.69,6-6,6H6c-3.31,0-6-2.69-6-6V6c0-3.31,2.69-6,6-6h88c3.31,0,6,2.69,6,6V94z"/>
<path class="st1" d="M34.32,2.23h-0.69H6.82c-2.54,0-4.59,1.99-4.59,4.45v25.87v1.77L34.32,2.23z"/>
<g>
	<g class="st2">
		<path class="st3" d="M13.99,44.59V25.9h7.86c1.46,0,2.57,0.15,3.34,0.46c0.77,0.31,1.39,0.87,1.86,1.7
			c0.47,0.83,0.71,1.84,0.71,3.03c0,1.04-0.18,1.93-0.54,2.68s-0.86,1.36-1.49,1.83c-0.4,0.3-0.96,0.54-1.66,0.74
			c0.56,0.23,0.97,0.46,1.23,0.69c0.17,0.15,0.42,0.48,0.75,0.98c0.33,0.5,0.55,0.89,0.66,1.16l2.28,5.42h-5.33l-2.52-5.71
			c-0.32-0.74-0.6-1.22-0.85-1.44c-0.34-0.29-0.73-0.43-1.16-0.43h-0.42v7.59H13.99z M18.73,33.47h1.99c0.22,0,0.63-0.08,1.25-0.25
			c0.31-0.08,0.57-0.27,0.77-0.59s0.3-0.68,0.3-1.08c0-0.6-0.16-1.07-0.47-1.39s-0.9-0.48-1.76-0.48h-2.07V33.47z"/>
		<path class="st3" d="M30.51,25.9h12.65v3.99h-7.92v2.97h7.34v3.81h-7.34v3.68h8.15v4.23H30.51V25.9z"/>
		<path class="st3" d="M45.1,38.41l4.49-0.34c0.1,0.89,0.3,1.57,0.59,2.04c0.49,0.76,1.18,1.13,2.08,1.13
			c0.67,0,1.19-0.19,1.56-0.58s0.55-0.83,0.55-1.34c0-0.48-0.17-0.92-0.52-1.3c-0.35-0.38-1.15-0.74-2.42-1.08
			c-2.07-0.57-3.54-1.33-4.43-2.27c-0.89-0.94-1.33-2.15-1.33-3.61c0-0.96,0.23-1.87,0.68-2.72c0.45-0.85,1.14-1.53,2.05-2.01
			c0.91-0.49,2.16-0.73,3.75-0.73c1.95,0,3.44,0.44,4.46,1.33c1.02,0.89,1.63,2.3,1.83,4.24l-4.45,0.32
			c-0.12-0.84-0.37-1.45-0.75-1.84c-0.38-0.38-0.9-0.57-1.57-0.57c-0.55,0-0.96,0.14-1.24,0.43c-0.28,0.29-0.42,0.63-0.42,1.04
			c0,0.3,0.11,0.57,0.34,0.8c0.22,0.25,0.75,0.48,1.58,0.69c2.06,0.54,3.54,1.09,4.43,1.65c0.89,0.56,1.54,1.25,1.95,2.07
			c0.41,0.83,0.61,1.75,0.61,2.77c0,1.2-0.27,2.3-0.81,3.32c-0.54,1.01-1.3,1.78-2.27,2.3c-0.97,0.52-2.2,0.78-3.68,0.78
			c-2.6,0-4.4-0.61-5.4-1.84C45.8,41.85,45.24,40.3,45.1,38.41z"/>
		<path class="st3" d="M61.32,25.9h12.65v3.99h-7.92v2.97h7.34v3.81h-7.34v3.68h8.15v4.23H61.32V25.9z"/>
		<path class="st3" d="M75.67,25.9h14.34v4.62H85.2v14.08h-4.72V30.52h-4.81V25.9z"/>
	</g>
	<g class="st2">
		<path class="st3" d="M17.53,53.24h4.73v6.6h5.17v-6.6h4.75V72.1h-4.75v-7.63h-5.17v7.63h-4.73V53.24z"/>
		<path class="st3" d="M34.72,62.68c0-3.08,0.7-5.47,2.09-7.19s3.33-2.57,5.81-2.57c2.55,0,4.51,0.84,5.89,2.53
			c1.38,1.68,2.07,4.04,2.07,7.08c0,2.2-0.3,4.01-0.9,5.42s-1.47,2.51-2.61,3.29c-1.14,0.79-2.55,1.18-4.25,1.18
			c-1.73,0-3.15-0.34-4.28-1.02s-2.05-1.75-2.75-3.22C35.07,66.72,34.72,64.89,34.72,62.68z M39.44,62.71c0,1.9,0.29,3.27,0.86,4.1
			c0.57,0.83,1.36,1.25,2.34,1.25c1.02,0,1.8-0.41,2.36-1.22c0.56-0.82,0.83-2.28,0.83-4.39c0-1.78-0.29-3.07-0.87-3.89
			c-0.58-0.82-1.37-1.23-2.36-1.23c-0.95,0-1.72,0.42-2.3,1.25C39.73,59.41,39.44,60.79,39.44,62.71z"/>
		<path class="st3" d="M53.06,53.24h6.22l2.4,11.47l2.38-11.47h6.21V72.1H66.4V57.72L63.42,72.1h-3.5l-2.98-14.38V72.1h-3.87V53.24z
			"/>
		<path class="st3" d="M73.28,53.24h12.67v4.03h-7.93v3h7.36v3.85h-7.36v3.72h8.16v4.27h-12.9V53.24z"/>
	</g>
</g>
<g>
	<path d="M27.93,15.32h15.36v4.29h-5.15v13.09h-5.05V19.61h-5.15V15.32z"/>
	<path d="M48.25,24.18l-4.34-0.49c0.16-0.81,0.4-1.44,0.71-1.9s0.75-0.86,1.33-1.2c0.42-0.25,0.99-0.43,1.72-0.57
		c0.73-0.13,1.52-0.2,2.36-0.2c1.36,0,2.45,0.08,3.28,0.24c0.83,0.16,1.51,0.5,2.06,1.01c0.39,0.36,0.69,0.86,0.91,1.51
		c0.22,0.65,0.33,1.27,0.33,1.87v5.56c0,0.59,0.04,1.06,0.11,1.39c0.07,0.34,0.23,0.76,0.46,1.29h-4.26
		c-0.17-0.32-0.28-0.57-0.33-0.74c-0.05-0.17-0.1-0.44-0.16-0.8c-0.59,0.61-1.19,1.04-1.77,1.3c-0.8,0.35-1.74,0.52-2.8,0.52
		c-1.41,0-2.49-0.35-3.22-1.04c-0.73-0.7-1.1-1.55-1.1-2.57c0-0.96,0.26-1.74,0.79-2.36c0.53-0.62,1.5-1.07,2.92-1.38
		c1.7-0.36,2.81-0.62,3.31-0.76c0.5-0.15,1.04-0.34,1.61-0.58c0-0.59-0.12-1.01-0.35-1.24c-0.23-0.24-0.64-0.36-1.22-0.36
		c-0.74,0-1.3,0.13-1.67,0.38C48.67,23.27,48.43,23.64,48.25,24.18z M52.19,26.72c-0.62,0.24-1.28,0.45-1.95,0.63
		c-0.92,0.26-1.5,0.52-1.75,0.77c-0.25,0.26-0.38,0.56-0.38,0.89c0,0.38,0.13,0.69,0.37,0.93s0.62,0.36,1.1,0.36
		c0.5,0,0.98-0.13,1.41-0.39c0.44-0.26,0.74-0.58,0.93-0.95c0.18-0.38,0.27-0.86,0.27-1.46V26.72z"/>
	<path d="M59.52,15.32h4.54v3.28h-4.54V15.32z M59.52,20.1h4.54v12.59h-4.54V20.1z"/>
	<path d="M67.11,15.32h4.55v17.38h-4.55V15.32z"/>
	<path d="M15.12,47.65l4.81-0.32c0.1,0.83,0.32,1.46,0.64,1.9c0.52,0.7,1.26,1.05,2.23,1.05c0.72,0,1.28-0.18,1.67-0.54
		c0.39-0.36,0.58-0.78,0.58-1.25c0-0.45-0.19-0.85-0.56-1.21s-1.23-0.69-2.59-1.01c-2.22-0.53-3.8-1.23-4.74-2.11
		c-0.95-0.88-1.43-2-1.43-3.35c0-0.89,0.24-1.74,0.73-2.53c0.49-0.79,1.22-1.42,2.2-1.87c0.98-0.46,2.32-0.68,4.02-0.68
		c2.09,0,3.68,0.41,4.78,1.24c1.1,0.83,1.75,2.14,1.96,3.94l-4.76,0.3c-0.13-0.78-0.39-1.35-0.8-1.71s-0.96-0.53-1.68-0.53
		c-0.59,0-1.03,0.13-1.33,0.4c-0.3,0.27-0.45,0.59-0.45,0.97c0,0.28,0.12,0.53,0.37,0.75c0.24,0.23,0.8,0.44,1.7,0.64
		c2.21,0.51,3.79,1.02,4.75,1.54c0.96,0.52,1.65,1.16,2.09,1.93c0.44,0.77,0.65,1.62,0.65,2.57c0,1.11-0.29,2.14-0.87,3.08
		c-0.58,0.94-1.39,1.65-2.43,2.14s-2.35,0.73-3.94,0.73c-2.78,0-4.71-0.57-5.78-1.71C15.86,50.85,15.26,49.4,15.12,47.65z"/>
	<path d="M37.67,36.02v4.79h2.5v3.53h-2.5v4.46c0,0.54,0.05,0.89,0.14,1.06c0.15,0.27,0.41,0.4,0.78,0.4c0.33,0,0.8-0.1,1.41-0.31
		l0.33,3.33c-1.12,0.26-2.17,0.39-3.14,0.39c-1.13,0-1.96-0.15-2.5-0.46c-0.54-0.31-0.93-0.78-1.19-1.4
		c-0.26-0.63-0.38-1.64-0.38-3.05v-4.43h-1.67v-3.53h1.67V38.5L37.67,36.02z"/>
	<path d="M41.77,47.14c0-1.92,0.61-3.5,1.83-4.75c1.22-1.24,2.87-1.87,4.94-1.87c2.37,0,4.16,0.73,5.38,2.19
		c0.97,1.18,1.46,2.63,1.46,4.35c0,1.94-0.6,3.52-1.81,4.76c-1.21,1.24-2.88,1.86-5.01,1.86c-1.9,0-3.44-0.51-4.62-1.54
		C42.49,50.87,41.77,49.2,41.77,47.14z M46.32,47.13c0,1.12,0.21,1.95,0.64,2.49c0.43,0.54,0.96,0.81,1.61,0.81
		c0.65,0,1.19-0.26,1.61-0.79c0.42-0.53,0.63-1.38,0.63-2.55c0-1.09-0.21-1.9-0.64-2.44c-0.42-0.53-0.95-0.8-1.57-0.8
		c-0.66,0-1.21,0.27-1.64,0.81C46.54,45.2,46.32,46.02,46.32,47.13z"/>
	<path d="M66.4,48.47l4.32,0.52c-0.24,0.96-0.63,1.78-1.17,2.48c-0.54,0.7-1.24,1.24-2.08,1.63c-0.84,0.39-1.92,0.58-3.22,0.58
		c-1.26,0-2.3-0.12-3.14-0.37c-0.84-0.25-1.56-0.65-2.16-1.21s-1.07-1.21-1.42-1.96c-0.34-0.75-0.51-1.75-0.51-2.99
		c0-1.29,0.21-2.37,0.63-3.23c0.3-0.63,0.72-1.2,1.25-1.7c0.53-0.5,1.07-0.88,1.63-1.12c0.88-0.39,2.02-0.58,3.4-0.58
		c1.93,0,3.41,0.37,4.42,1.1c1.01,0.74,1.73,1.81,2.14,3.22l-4.27,0.6c-0.13-0.54-0.38-0.94-0.73-1.21
		c-0.35-0.27-0.83-0.41-1.42-0.41c-0.75,0-1.36,0.29-1.82,0.86c-0.46,0.57-0.7,1.44-0.7,2.6c0,1.03,0.23,1.82,0.69,2.35
		c0.46,0.54,1.05,0.8,1.76,0.8c0.59,0,1.09-0.16,1.5-0.49C65.9,49.64,66.2,49.14,66.4,48.47z"/>
	<path d="M72.41,36.02h4.64v8.97l3.39-4.18h5.59l-4.25,4.41l4.5,8.18h-5.12l-2.4-5.05l-1.71,1.77v3.27h-4.64V36.02z"/>
	<path d="M10.17,63.31h5.06v17.38h-5.06V63.31z"/>
	<path d="M17.93,63.31h4.72l6.16,9.62v-9.62h4.76v17.38H28.8l-6.12-9.54v9.54h-4.75V63.31z"/>
	<path d="M38.38,63.02h2.32l-4.11,17.97H34.3L38.38,63.02z"/>
	<path d="M40.71,72.01c0-2.84,0.74-5.05,2.23-6.63s3.56-2.37,6.21-2.37c2.72,0,4.82,0.78,6.29,2.33c1.47,1.55,2.21,3.73,2.21,6.53
		c0,2.03-0.32,3.7-0.96,5c-0.64,1.3-1.57,2.31-2.79,3.04c-1.22,0.72-2.73,1.08-4.54,1.08c-1.84,0-3.37-0.31-4.58-0.94
		c-1.21-0.62-2.19-1.61-2.94-2.96C41.09,75.74,40.71,74.04,40.71,72.01z M45.76,72.04c0,1.75,0.31,3.02,0.92,3.78
		s1.45,1.15,2.5,1.15c1.08,0,1.93-0.38,2.52-1.13s0.89-2.1,0.89-4.04c0-1.64-0.31-2.83-0.93-3.59c-0.62-0.75-1.46-1.13-2.53-1.13
		c-1.02,0-1.84,0.38-2.45,1.15S45.76,70.27,45.76,72.04z"/>
	<path d="M70.06,63.31h5.04v10.35c0,1.03-0.15,2-0.45,2.91c-0.3,0.91-0.77,1.71-1.42,2.39c-0.64,0.68-1.32,1.16-2.02,1.44
		c-0.98,0.39-2.16,0.58-3.54,0.58c-0.79,0-1.66-0.06-2.6-0.18c-0.94-0.12-1.73-0.35-2.36-0.71s-1.21-0.85-1.73-1.5
		c-0.52-0.65-0.88-1.31-1.08-2c-0.31-1.11-0.47-2.08-0.47-2.94V63.31h5.04v10.6c0,0.95,0.25,1.69,0.74,2.22s1.18,0.8,2.06,0.8
		c0.87,0,1.55-0.26,2.05-0.79c0.49-0.52,0.74-1.27,0.74-2.23V63.31z"/>
	<path d="M76.34,63.31h15.36v4.29h-5.15v13.09h-5.05V67.6h-5.15V63.31z"/>
</g>
</svg>
