<?xml version="1.0" encoding="utf-8"?>
<!-- Generator: Adobe Illustrator 24.0.2, SVG Export Plug-In . SVG Version: 6.00 Build 0)  -->
<svg version="1.1" id="New_VCP" xmlns="http://www.w3.org/2000/svg" xmlns:xlink="http://www.w3.org/1999/xlink" x="0px" y="0px"
	 width="100px" height="100px" viewBox="0 0 100 100" style="enable-background:new 0 0 100 100;" xml:space="preserve">
<style type="text/css">
	.st0{display:none;fill:#82151E;}
	.st1{fill:#FFFFFF;}
	.st2{fill:#010101;}
	.st3{display:none;}
	.st4{display:inline;}
	.st5{font-family:'Arial-Black';}
	.st6{font-size:24.4884px;}
	.st7{display:inline;fill:#231F20;}
	.st8{font-size:24.8525px;}
</style>
<path class="st0" d="M35.1,3h-0.7H7.6C5.1,3,3,5,3,7.4v25.9v1.8L35.1,3z"/>
<g>
	<path class="st1" d="M99.5,93.6c0,3.3-2.7,5.9-5.9,5.9H6.4c-3.3,0-5.9-2.7-5.9-5.9V6.4c0-3.3,2.7-5.9,5.9-5.9h87.1
		c3.3,0,5.9,2.7,5.9,5.9V93.6z"/>
	<path class="st2" d="M93.6,100H6.4C2.9,100,0,97.1,0,93.6V6.4C0,2.9,2.9,0,6.4,0h87.1c3.5,0,6.4,2.9,6.4,6.4v87.1
		C100,97.1,97.1,100,93.6,100z M6.4,1C3.4,1,1,3.4,1,6.4v87.1c0,3,2.4,5.4,5.4,5.4h87.1c3,0,5.4-2.4,5.4-5.4V6.4
		c0-3-2.4-5.4-5.4-5.4H6.4z"/>
</g>
<g class="st3">
	<text transform="matrix(0.9 0 0 1 20.616 39.9043)" class="st4"><tspan x="0" y="0" class="st2 st5 st6">SPIN </tspan><tspan x="-10.2" y="27.4" class="st2 st5 st6">WARM</tspan></text>
</g>
<text transform="matrix(0.871 0 0 1 26.5507 31.9989)" class="st3"><tspan x="0" y="0" class="st7 st5 st8">SET </tspan><tspan x="-3.9" y="24.9" class="st7 st5 st8">W</tspan><tspan x="20.5" y="24.9" class="st7 st5 st8">CS </tspan><tspan x="9.7" y="49.7" class="st7 st5 st8">Z0</tspan></text>
<g>
	<g>
		<path class="st2" d="M30.9,33.7h-3.5l-1.4-4h-6.3l-1.3,4h-3.4l6.2-17.5h3.4L30.9,33.7z M25.1,26.7l-2.2-6.5l-2.1,6.5H25.1z"/>
		<path class="st2" d="M40.1,33.7v-1.9c-0.4,0.7-1,1.2-1.6,1.6S37.1,34,36.3,34c-0.8,0-1.5-0.2-2.1-0.6c-0.6-0.4-1.1-0.9-1.3-1.6
			c-0.3-0.7-0.4-1.6-0.4-2.8v-8h3v5.8c0,1.8,0.1,2.9,0.2,3.3c0.1,0.4,0.3,0.7,0.6,1c0.3,0.2,0.7,0.4,1.1,0.4c0.5,0,1-0.2,1.4-0.5
			c0.4-0.3,0.7-0.7,0.8-1.2c0.2-0.5,0.2-1.6,0.2-3.4V21h3v12.7H40.1z"/>
		<path class="st2" d="M51.3,21v2.7h-2.1v5.1c0,1,0,1.6,0.1,1.8c0,0.2,0.1,0.3,0.3,0.4c0.1,0.1,0.3,0.2,0.5,0.2
			c0.3,0,0.7-0.1,1.2-0.3l0.3,2.6c-0.7,0.3-1.5,0.5-2.4,0.5c-0.5,0-1-0.1-1.5-0.3c-0.4-0.2-0.8-0.5-1-0.8c-0.2-0.3-0.3-0.8-0.4-1.3
			c-0.1-0.4-0.1-1.2-0.1-2.4v-5.5h-1.4V21h1.4v-2.5l3-2V21H51.3z"/>
		<path class="st2" d="M52.7,27.1c0-1.1,0.2-2.2,0.7-3.2c0.5-1,1.2-1.8,2.1-2.4c0.9-0.6,1.9-0.8,3-0.8c1.7,0,3.1,0.6,4.3,1.9
			c1.1,1.2,1.7,2.8,1.7,4.7c0,1.9-0.6,3.5-1.7,4.8c-1.1,1.3-2.5,1.9-4.2,1.9c-1,0-2-0.3-3-0.8c-1-0.5-1.7-1.3-2.2-2.3
			C53,29.8,52.7,28.6,52.7,27.1z M55.8,27.3c0,1.3,0.3,2.2,0.8,2.9c0.5,0.7,1.2,1,2,1c0.8,0,1.5-0.3,2-1s0.8-1.6,0.8-2.9
			c0-1.2-0.3-2.2-0.8-2.9s-1.2-1-2-1c-0.8,0-1.5,0.3-2,1C56.1,25.1,55.8,26.1,55.8,27.3z"/>
		<path class="st2" d="M71.7,33.7v-3.2L80,19.1h-7.4v-3h11.6v2.8l-8.7,11.8h9v3H71.7z"/>
		<path class="st2" d="M46.4,44v2.7h-2.1v5.1c0,1,0,1.6,0.1,1.8c0,0.2,0.1,0.3,0.3,0.4c0.1,0.1,0.3,0.2,0.5,0.2
			c0.3,0,0.7-0.1,1.2-0.3l0.3,2.6C46,56.9,45.2,57,44.3,57c-0.5,0-1-0.1-1.5-0.3c-0.4-0.2-0.8-0.5-1-0.8c-0.2-0.3-0.3-0.8-0.4-1.3
			c-0.1-0.4-0.1-1.2-0.1-2.4v-5.5h-1.4V44h1.4v-2.5l3-2V44H46.4z"/>
		<path class="st2" d="M47.8,50.2c0-1.1,0.2-2.2,0.7-3.2c0.5-1,1.2-1.8,2.1-2.4c0.9-0.6,1.9-0.8,3-0.8c1.7,0,3.2,0.6,4.3,1.9
			c1.1,1.2,1.7,2.8,1.7,4.7c0,1.9-0.6,3.5-1.7,4.8c-1.1,1.3-2.5,1.9-4.2,1.9c-1,0-2-0.3-3-0.8c-1-0.5-1.7-1.3-2.2-2.3
			S47.8,51.7,47.8,50.2z M50.9,50.4c0,1.3,0.3,2.2,0.8,2.9c0.5,0.7,1.2,1,2,1c0.8,0,1.5-0.3,2-1c0.5-0.7,0.8-1.6,0.8-2.9
			c0-1.2-0.3-2.2-0.8-2.9s-1.2-1-2-1c-0.8,0-1.5,0.3-2,1S50.9,49.1,50.9,50.4z"/>
		<path class="st2" d="M12.5,62.3h8.1c1.8,0,3.1,0.5,4,1.4s1.3,2.3,1.3,4c0,1.8-0.5,3.2-1.4,4.2c-1,1-2.4,1.5-4.4,1.5h-2.7v6.5h-4.9
			V62.3z M17.4,69.8h1.2c0.9,0,1.6-0.2,2-0.5c0.4-0.4,0.6-0.8,0.6-1.4c0-0.6-0.2-1-0.5-1.4c-0.3-0.4-1-0.6-1.9-0.6h-1.4V69.8z"/>
		<path class="st2" d="M28.5,62.3h4.9v13.2H41v4.3H28.5V62.3z"/>
		<path class="st2" d="M52.9,76.9h-5.5l-0.8,2.9h-5l5.9-17.5h5.3l5.9,17.5h-5.1L52.9,76.9z M51.9,73.1l-1.7-6.3l-1.7,6.3H51.9z"/>
		<path class="st2" d="M57.7,62.3h14.8v4.3h-5v13.2h-4.9V66.6h-5V62.3z"/>
		<path class="st2" d="M74.8,62.3h13.1V66h-8.2v2.8h7.6v3.6h-7.6v3.5h8.4v4H74.8V62.3z"/>
	</g>
</g>
</svg>
