<?xml version="1.0" encoding="utf-8"?>
<!-- Generator: Adobe Illustrator 26.0.1, SVG Export Plug-In . SVG Version: 6.00 Build 0)  -->
<svg version="1.1" id="New_VCP" xmlns="http://www.w3.org/2000/svg" xmlns:xlink="http://www.w3.org/1999/xlink" x="0px" y="0px"
	 viewBox="0 0 100 100" style="enable-background:new 0 0 100 100;" xml:space="preserve">
<style type="text/css">
	.st0{fill:#FFFFFF;}
	.st1{display:none;fill:#82151E;}
	.st2{fill:#010101;stroke:#000000;stroke-width:4;stroke-miterlimit:10;}
</style>
<path class="st0" d="M100,94c0,3.31-2.69,6-6,6H6c-3.31,0-6-2.69-6-6V6c0-3.31,2.69-6,6-6h88c3.31,0,6,2.69,6,6V94z"/>
<path class="st1" d="M34.32,2.23h-0.69H6.82c-2.54,0-4.59,1.99-4.59,4.45v25.87v1.77L34.32,2.23z"/>
<path class="st2" d="M86.83,53.46c0,17.61-14.34,31.95-31.97,31.95c-8.54,0-16.57-3.32-22.59-9.36l6.65-6.65
	c4.26,4.26,9.92,6.61,15.95,6.61c12.45,0,22.57-10.12,22.57-22.55c0-12.45-10.12-22.57-22.57-22.57c-5.01,0-9.89,1.68-13.83,4.75
	l5.05,5.05l-24.17,6.2l6.23-24.17l6.2,6.22c5.73-4.81,13.02-7.45,20.51-7.45C72.49,21.5,86.83,35.84,86.83,53.46z"/>
</svg>
