<?xml version="1.0" encoding="utf-8"?>
<!-- Generator: Adobe Illustrator 26.0.3, SVG Export Plug-In . SVG Version: 6.00 Build 0)  -->
<svg version="1.1" id="New_VCP" xmlns="http://www.w3.org/2000/svg" xmlns:xlink="http://www.w3.org/1999/xlink" x="0px" y="0px"
	 viewBox="0 0 100 100" style="enable-background:new 0 0 100 100;" xml:space="preserve">
<style type="text/css">
	.st0{display:none;fill:#82151E;}
	.st1{fill:#FFFFFF;}
	.st2{fill:#010101;}
	.st3{display:none;}
	.st4{display:inline;}
	.st5{font-family:'Arial-Black';}
	.st6{font-size:24.4884px;}
	.st7{fill:#231F20;}
</style>
<path class="st0" d="M35.1,3h-0.7H7.6C5.1,3,3,5,3,7.4v25.9v1.8L35.1,3z"/>
<g>
	<path class="st1" d="M99.5,93.6c0,3.3-2.7,5.9-5.9,5.9H6.4c-3.3,0-5.9-2.7-5.9-5.9V6.4c0-3.3,2.7-5.9,5.9-5.9h87.1
		c3.3,0,5.9,2.7,5.9,5.9V93.6z"/>
	<path class="st2" d="M93.6,100H6.4C2.9,100,0,97.1,0,93.6V6.4C0,2.9,2.9,0,6.4,0h87.1c3.5,0,6.4,2.9,6.4,6.4v87.1
		C100,97.1,97.1,100,93.6,100z M6.4,1C3.4,1,1,3.4,1,6.4v87.1c0,3,2.4,5.4,5.4,5.4h87.1c3,0,5.4-2.4,5.4-5.4V6.4
		c0-3-2.4-5.4-5.4-5.4H6.4z"/>
</g>
<g class="st3">
	<text transform="matrix(0.9 0 0 1 20.616 39.9043)" class="st4"><tspan x="0" y="0" class="st2 st5 st6">SPIN </tspan><tspan x="-10.2" y="27.4" class="st2 st5 st6">WARM</tspan></text>
</g>
<g>
	<path class="st7" d="M41.3,29.3h-8.5v-4.4l8.5-11.6h4.1v11.9h2.1v4.2h-2.1v3.6h-4.1V29.3z M41.3,25.1V19l-4.5,6.1H41.3z"/>
	<path class="st7" d="M55,13.6v5.3h2.6v3.9H55v5c0,0.6,0.1,1,0.2,1.2c0.2,0.3,0.4,0.4,0.8,0.4c0.3,0,0.8-0.1,1.4-0.3l0.3,3.7
		c-1.2,0.3-2.2,0.4-3.2,0.4c-1.2,0-2-0.2-2.6-0.5c-0.6-0.3-1-0.9-1.2-1.6s-0.4-1.8-0.4-3.4v-4.9h-1.7v-3.9h1.7v-2.6L55,13.6z"/>
	<path class="st7" d="M59.8,13.6h4.7v7.1c0.6-0.8,1.3-1.3,1.9-1.6c0.6-0.3,1.4-0.5,2.2-0.5c1.3,0,2.3,0.4,3,1.3
		c0.7,0.9,1.1,2.2,1.1,4.1v8.9H68v-7.7c0-0.9-0.1-1.5-0.4-1.9s-0.7-0.5-1.2-0.5c-0.6,0-1,0.2-1.4,0.7s-0.5,1.4-0.5,2.6v6.7h-4.7
		V13.6z"/>
	<path class="st7" d="M35.3,55.9h-5.5l-0.8,3h-4.9L30,41h5.3l5.9,17.9h-5L35.3,55.9z M34.3,52.1l-1.7-6.4l-1.7,6.4H34.3z"/>
	<path class="st7" d="M41.6,41h5.3l2.8,5.5l2.7-5.5h5.3l-4.9,8.7l5.3,9.2h-5.4l-3.1-5.8l-3.1,5.8h-5.4l5.4-9.3L41.6,41z"/>
	<path class="st7" d="M59.8,41h4.8v17.9h-4.8V41z"/>
	<path class="st7" d="M67.2,53l4.6-0.3c0.1,0.9,0.3,1.5,0.6,2c0.5,0.7,1.2,1.1,2.1,1.1c0.7,0,1.2-0.2,1.6-0.6s0.6-0.8,0.6-1.3
		c0-0.5-0.2-0.9-0.5-1.2s-1.2-0.7-2.5-1c-2.1-0.5-3.6-1.3-4.5-2.2c-0.9-0.9-1.4-2.1-1.4-3.5c0-0.9,0.2-1.8,0.7-2.6
		c0.5-0.8,1.2-1.5,2.1-1.9c0.9-0.5,2.2-0.7,3.8-0.7c2,0,3.5,0.4,4.6,1.3c1,0.9,1.7,2.2,1.9,4.1l-4.5,0.3c-0.1-0.8-0.4-1.4-0.8-1.8
		C75.2,44.2,74.6,44,74,44c-0.6,0-1,0.1-1.3,0.4c-0.3,0.3-0.4,0.6-0.4,1c0,0.3,0.1,0.5,0.4,0.8c0.2,0.2,0.8,0.5,1.6,0.7
		c2.1,0.5,3.6,1,4.5,1.6c0.9,0.5,1.6,1.2,2,2c0.4,0.8,0.6,1.7,0.6,2.6c0,1.1-0.3,2.2-0.8,3.2c-0.6,1-1.3,1.7-2.3,2.2
		c-1,0.5-2.2,0.8-3.8,0.8c-2.7,0-4.5-0.6-5.5-1.8S67.4,54.8,67.2,53z"/>
	<path class="st7" d="M22.8,77.6L27,79c-0.3,1.4-0.7,2.5-1.3,3.4c-0.6,0.9-1.4,1.6-2.3,2.1s-2.1,0.7-3.5,0.7c-1.7,0-3.1-0.3-4.2-0.8
		c-1.1-0.6-2-1.6-2.8-3c-0.8-1.4-1.2-3.2-1.2-5.5c0-3,0.7-5.2,2.1-6.8s3.3-2.4,5.8-2.4c2,0,3.5,0.5,4.6,1.4c1.1,0.9,2,2.3,2.5,4.2
		l-4.3,1.1c-0.1-0.5-0.3-0.9-0.5-1.2c-0.3-0.4-0.6-0.7-1-1c-0.4-0.2-0.8-0.3-1.3-0.3c-1.1,0-1.9,0.5-2.5,1.5
		c-0.4,0.7-0.7,1.9-0.7,3.5c0,2,0.3,3.3,0.8,4.1c0.5,0.7,1.3,1.1,2.2,1.1c0.9,0,1.6-0.3,2.1-0.9S22.6,78.7,22.8,77.6z"/>
	<path class="st7" d="M29.4,67h4.8v13.5h7.5v4.4H29.4V67z"/>
	<path class="st7" d="M53.5,81.9H48l-0.8,3h-4.9L48.2,67h5.3l5.9,17.9h-5L53.5,81.9z M52.5,78.1l-1.7-6.4L49,78.1H52.5z"/>
	<path class="st7" d="M60.8,67h6.3l2.4,10.9L72,67h6.3v17.9h-3.9V71.2l-3,13.6h-3.6l-3-13.6v13.6h-3.9V67z"/>
	<path class="st7" d="M81.4,67h8c1.7,0,3,0.5,3.9,1.4c0.9,1,1.3,2.3,1.3,4.1c0,1.8-0.5,3.2-1.4,4.2c-0.9,1-2.4,1.5-4.3,1.5h-2.6v6.6
		h-4.8V67z M86.2,74.6h1.2c0.9,0,1.6-0.2,2-0.6s0.6-0.8,0.6-1.4c0-0.6-0.2-1-0.5-1.4c-0.3-0.4-0.9-0.6-1.8-0.6h-1.4V74.6z"/>
</g>
</svg>
