<svg id="New_VCP" data-name="New VCP" xmlns="http://www.w3.org/2000/svg" width="100" height="100" viewBox="0 0 100 100">
  <title>tool_check</title>
  <rect width="100" height="100" rx="6" style="fill: #ffc70e"/>
  <g>
    <path d="M18.76,26.09H32.88v4.08H28.14V42.62H23.5V30.17H18.76Z" style="fill: #231f20"/>
    <path d="M33.68,34.37a9.09,9.09,0,0,1,2-6.31,7.34,7.34,0,0,1,5.71-2.25A7.45,7.45,0,0,1,47.23,28a8.88,8.88,0,0,1,2,6.21A11.11,11.11,0,0,1,48.37,39a6.76,6.76,0,0,1-2.56,2.88,7.83,7.83,0,0,1-4.18,1,8.78,8.78,0,0,1-4.21-.9,6.59,6.59,0,0,1-2.7-2.82A10.08,10.08,0,0,1,33.68,34.37Zm4.65,0a6,6,0,0,0,.84,3.6,3,3,0,0,0,4.62,0,6.58,6.58,0,0,0,.82-3.85,5.5,5.5,0,0,0-.85-3.41,2.82,2.82,0,0,0-2.33-1.08,2.72,2.72,0,0,0-2.25,1.1A6,6,0,0,0,38.33,34.39Z" style="fill: #231f20"/>
    <path d="M51.17,34.37a9.09,9.09,0,0,1,2-6.31,7.36,7.36,0,0,1,5.72-2.25A7.43,7.43,0,0,1,64.72,28a8.88,8.88,0,0,1,2,6.21A11,11,0,0,1,65.86,39a6.7,6.7,0,0,1-2.56,2.88,7.83,7.83,0,0,1-4.18,1,8.81,8.81,0,0,1-4.21-.9,6.59,6.59,0,0,1-2.7-2.82A10.08,10.08,0,0,1,51.17,34.37Zm4.65,0a5.92,5.92,0,0,0,.85,3.6A2.74,2.74,0,0,0,59,39.08,2.78,2.78,0,0,0,61.29,38a6.65,6.65,0,0,0,.82-3.85,5.49,5.49,0,0,0-.86-3.41,2.81,2.81,0,0,0-2.32-1.08,2.73,2.73,0,0,0-2.26,1.1A6,6,0,0,0,55.82,34.39Z" style="fill: #231f20"/>
    <path d="M69.25,26.09H73.9V38.55h7.25v4.07H69.25Z" style="fill: #231f20"/>
    <path d="M20.56,59.35l4.07,1.35a9,9,0,0,1-1.29,3.15,5.77,5.77,0,0,1-2.19,1.9,7.54,7.54,0,0,1-3.33.65,9,9,0,0,1-4-.79,6.7,6.7,0,0,1-2.68-2.75,10.12,10.12,0,0,1-1.12-5,9.13,9.13,0,0,1,2-6.31,7.15,7.15,0,0,1,5.61-2.2,7.11,7.11,0,0,1,4.47,1.26,7.41,7.41,0,0,1,2.41,3.88l-4.1,1a3.83,3.83,0,0,0-.45-1.1,2.8,2.8,0,0,0-.95-.9,2.46,2.46,0,0,0-1.26-.32,2.65,2.65,0,0,0-2.42,1.4,6.32,6.32,0,0,0-.64,3.25,6.66,6.66,0,0,0,.76,3.77,2.51,2.51,0,0,0,2.13,1,2.48,2.48,0,0,0,2-.82A5.47,5.47,0,0,0,20.56,59.35Z" style="fill: #231f20"/>
    <path d="M26.69,49.58h4.65v5.78h5.07V49.58h4.67V66.11H36.41V59.42H31.34v6.69H26.69Z" style="fill: #231f20"/>
    <path d="M44,49.58H56.39v3.53H48.6v2.63h7.23v3.37H48.6v3.26h8v3.74H44Z" style="fill: #231f20"/>
    <path d="M68.92,59.35,73,60.7a8.61,8.61,0,0,1-1.29,3.15,5.77,5.77,0,0,1-2.19,1.9,7.51,7.51,0,0,1-3.33.65,8.89,8.89,0,0,1-4-.79,6.59,6.59,0,0,1-2.68-2.75,10,10,0,0,1-1.13-5,9.13,9.13,0,0,1,2-6.31A7.18,7.18,0,0,1,66,49.3a7.1,7.1,0,0,1,4.46,1.26,7.42,7.42,0,0,1,2.42,3.88l-4.11,1a3.83,3.83,0,0,0-.45-1.1,2.72,2.72,0,0,0-1-.9,2.46,2.46,0,0,0-1.26-.32,2.66,2.66,0,0,0-2.42,1.4A6.32,6.32,0,0,0,63,57.77a6.74,6.74,0,0,0,.76,3.77,2.51,2.51,0,0,0,2.13,1,2.48,2.48,0,0,0,2-.82A5.47,5.47,0,0,0,68.92,59.35Z" style="fill: #231f20"/>
    <path d="M75.06,49.58H79.7v6.25l4.87-6.25h6.17l-5.48,6.24L91,66.11H85.27l-3.17-6.8-2.4,2.77v4H75.06Z" style="fill: #231f20"/>
  </g>
</svg>
