<?xml version="1.0" encoding="utf-8"?>
<!-- Generator: Adobe Illustrator 24.0.2, SVG Export Plug-In . SVG Version: 6.00 Build 0)  -->
<svg version="1.1" id="New_VCP" xmlns="http://www.w3.org/2000/svg" xmlns:xlink="http://www.w3.org/1999/xlink" x="0px" y="0px"
	 width="100px" height="100px" viewBox="0 0 100 100" style="enable-background:new 0 0 100 100;" xml:space="preserve">
<style type="text/css">
	.st0{fill:#FFC70E;}
</style>
<path class="st0" d="M48.08,0L0,35.7v58.21C0,97.27,2.69,100,6,100h88c3.31,0,6-2.73,6-6.09V34.88L48.08,0z"/>
<g>
	<path d="M56.01,46.92h5.84v-5.95h4.92v5.95h5.87v4.99h-5.87v5.92h-4.92v-5.92h-5.84V46.92z"/>
</g>
<g>
	<path d="M44.84,56.86h-7.81l-1.08,3.78h-7.02l8.37-22.91h7.5l8.36,22.91h-7.2L44.84,56.86z M43.41,51.9l-2.46-8.23l-2.43,8.23
		H43.41z"/>
</g>
</svg>
