<svg id="New_VCP" data-name="New VCP" xmlns="http://www.w3.org/2000/svg" width="100" height="100" viewBox="0 0 100 100">
  <title>x10</title>
  <rect width="100" height="100" rx="6" style="fill: #fff"/>
  <g>
    <path d="M23.44,42.07h6.84l2.38,4.61,2.79-4.61H41.8L36.67,50l5.5,8.66H35.45l-2.79-5.32L29.4,58.61H23.16L28.62,50Z" style="fill: #231f20"/>
    <path d="M56.59,35.39V58.61H50.75V43.4A17.77,17.77,0,0,1,48,45.31a19.5,19.5,0,0,1-3.32,1.4v-5.2A13.44,13.44,0,0,0,49.27,39a10.27,10.27,0,0,0,2.55-3.61Z" style="fill: #231f20"/>
    <path d="M62.86,47.1q0-6.51,2.13-9.11c1.42-1.73,3.59-2.6,6.49-2.6a8.85,8.85,0,0,1,3.44.57,6.31,6.31,0,0,1,2.2,1.48,7.71,7.71,0,0,1,1.34,1.91,10.44,10.44,0,0,1,.78,2.35A23.77,23.77,0,0,1,79.82,47c0,4.15-.63,7.18-1.91,9.1S74.44,59,71.33,59a8.46,8.46,0,0,1-4.24-.92,7.18,7.18,0,0,1-2.64-2.69,10.81,10.81,0,0,1-1.17-3.45A25.74,25.74,0,0,1,62.86,47.1Zm5.72,0a16.89,16.89,0,0,0,.7,6,2.23,2.23,0,0,0,2,1.59A2,2,0,0,0,72.84,54a4.49,4.49,0,0,0,1-2.15,24.86,24.86,0,0,0,.3-4.56q0-4.55-.7-6.11a2.25,2.25,0,0,0-2.1-1.57,2.15,2.15,0,0,0-2.07,1.6A18.09,18.09,0,0,0,68.58,47.12Z" style="fill: #231f20"/>
  </g>
</svg>
