<?xml version="1.0" encoding="UTF-8" standalone="no"?>
<!DOCTYPE svg PUBLIC "-//W3C//DTD SVG 1.1//EN" "http://www.w3.org/Graphics/SVG/1.1/DTD/svg11.dtd">
<svg width="100%" height="100%" viewBox="0 0 300 300" version="1.1" xmlns="http://www.w3.org/2000/svg" xmlns:xlink="http://www.w3.org/1999/xlink" xml:space="preserve" xmlns:serif="http://www.serif.com/" style="fill-rule:evenodd;clip-rule:evenodd;stroke-linecap:round;stroke-linejoin:round;stroke-miterlimit:1.5;">
    <g transform="matrix(1,0,0,1,-2449.32,-1160.99)">
        <g id="Layer-1" serif:id="Layer 1">
        </g>
        <g transform="matrix(0.301848,0,0,0.582975,2206.51,104.296)">
            <rect x="804.411" y="1812.59" width="993.877" height="514.602" style="fill:none;"/>
            <g transform="matrix(3.31292,0,0,1.71534,745.37,-2691.03)">
                <rect x="27" y="2634" width="277" height="277" style="fill:#888;stroke:#000;stroke-width:8.33px;"/>
            </g>
            <g transform="matrix(3.31292,0,0,1.71534,-492.007,1840.04)">
                <g transform="matrix(58.3333,0,0,58.3333,477.405,151.878)">
                    <path d="M0.492,-0.728L0.492,-0L0.291,-0L0.291,-0.477C0.258,-0.452 0.226,-0.432 0.196,-0.417C0.166,-0.402 0.127,-0.387 0.082,-0.373L0.082,-0.536C0.149,-0.558 0.202,-0.584 0.239,-0.615C0.277,-0.645 0.306,-0.683 0.327,-0.728L0.492,-0.728Z" style="fill:#0b0a08;fill-rule:nonzero;"/>
                </g>
                <g transform="matrix(58.3333,0,0,58.3333,516.313,151.878)">
                    <path d="M0.041,-0.361C0.041,-0.497 0.066,-0.592 0.115,-0.646C0.163,-0.701 0.238,-0.728 0.338,-0.728C0.387,-0.728 0.426,-0.722 0.457,-0.71C0.488,-0.698 0.513,-0.683 0.533,-0.664C0.552,-0.645 0.568,-0.625 0.579,-0.604C0.59,-0.583 0.599,-0.558 0.606,-0.53C0.619,-0.477 0.626,-0.421 0.626,-0.363C0.626,-0.233 0.604,-0.138 0.56,-0.078C0.516,-0.018 0.44,0.012 0.333,0.012C0.273,0.012 0.224,0.003 0.187,-0.017C0.15,-0.036 0.119,-0.064 0.096,-0.101C0.078,-0.127 0.065,-0.163 0.055,-0.209C0.046,-0.255 0.041,-0.306 0.041,-0.361ZM0.238,-0.36C0.238,-0.269 0.246,-0.207 0.262,-0.174C0.279,-0.14 0.302,-0.124 0.333,-0.124C0.353,-0.124 0.37,-0.131 0.385,-0.145C0.4,-0.159 0.411,-0.181 0.418,-0.212C0.425,-0.243 0.428,-0.29 0.428,-0.355C0.428,-0.45 0.42,-0.514 0.404,-0.547C0.388,-0.579 0.364,-0.596 0.332,-0.596C0.299,-0.596 0.275,-0.579 0.26,-0.546C0.246,-0.512 0.238,-0.451 0.238,-0.36Z" style="fill:#0b0a08;fill-rule:nonzero;"/>
                </g>
                <g transform="matrix(58.3333,0,0,58.3333,555.221,151.878)">
                    <path d="M0.024,-0.716L0.268,-0.716L0.395,-0.496L0.518,-0.716L0.759,-0.716L0.536,-0.369L0.78,-0L0.531,-0L0.39,-0.23L0.249,-0L0.001,-0L0.249,-0.373L0.024,-0.716Z" style="fill:#0b0a08;fill-rule:nonzero;"/>
                </g>
            </g>
        </g>
    </g>
</svg>
