<?xml version="1.0" encoding="utf-8"?>
<!-- Generator: Adobe Illustrator 25.3.1, SVG Export Plug-In . SVG Version: 6.00 Build 0)  -->
<svg version="1.1" id="New_VCP" xmlns="http://www.w3.org/2000/svg" xmlns:xlink="http://www.w3.org/1999/xlink" x="0px" y="0px"
	 viewBox="0 0 100 100" style="enable-background:new 0 0 100 100;" xml:space="preserve">
<style type="text/css">
	.st0{fill:#EB2227;}
	.st1{fill:#FFFFFF;}
</style>
<g>
	<path class="st0" d="M99.5,93.56c0,3.28-2.66,5.94-5.94,5.94H6.44c-3.28,0-5.94-2.66-5.94-5.94V6.44c0-3.28,2.66-5.94,5.94-5.94
		h87.13c3.28,0,5.94,2.66,5.94,5.94V93.56z"/>
	<path class="st1" d="M93.57,100H6.44C2.89,100,0,97.11,0,93.56V6.44C0,2.89,2.89,0,6.44,0h87.13C97.11,0,100,2.89,100,6.44v87.13
		C100,97.11,97.11,100,93.57,100z M6.44,0.99c-3,0-5.45,2.44-5.45,5.45v87.13c0,3,2.44,5.45,5.45,5.45h87.13
		c3,0,5.44-2.44,5.44-5.45V6.44c0-3-2.44-5.45-5.44-5.45H6.44z"/>
</g>
<path class="st1" d="M50.57,74.25c-13.05,0-23.68-10.62-23.68-23.68S37.52,26.9,50.57,26.9s23.68,10.62,23.68,23.68
	S63.63,74.25,50.57,74.25z M50.57,32.64c-9.89,0-17.94,8.05-17.94,17.94s8.05,17.94,17.94,17.94s17.94-8.05,17.94-17.94
	S60.46,32.64,50.57,32.64z"/>
<path class="st1" d="M89.15,45.05v-34.2H54.21L45.05,4.9v5.95h-34.2v34.84l-6.02,9.26h6.02v34.2h34.76l9.34,6.07v-6.07h34.2V54.33
	l6.03-9.28H89.15z M88.34,45.05h-6.03l6.03,9.28v34.01H54.95v-5.99l-9.22,5.99H11.66V54.95h6.04l-6.04-9.29v-34h33.39v6.11l9.4-6.11
	h33.89V45.05z"/>
</svg>
