<?xml version="1.0" encoding="UTF-8" standalone="no"?>
<!DOCTYPE svg PUBLIC "-//W3C//DTD SVG 1.1//EN" "http://www.w3.org/Graphics/SVG/1.1/DTD/svg11.dtd">
<svg width="100%" height="100%" viewBox="0 0 300 300" version="1.1" xmlns="http://www.w3.org/2000/svg" xmlns:xlink="http://www.w3.org/1999/xlink" xml:space="preserve" xmlns:serif="http://www.serif.com/" style="fill-rule:evenodd;clip-rule:evenodd;stroke-linecap:round;stroke-miterlimit:1.5;">
    <g transform="matrix(1,0,0,1,-4079.32,-3831.99)">
        <g transform="matrix(0.301848,0,0,0.582975,3836.51,2775.3)">
            <rect x="804.411" y="1812.59" width="993.877" height="514.602" style="fill:none;"/>
            <g transform="matrix(3.31292,0,0,1.71534,-898.431,-3330.85)">
                <path d="M787,3085.5C787,3051.56 759.443,3024 725.5,3024L602.5,3024C568.557,3024 541,3051.56 541,3085.5L541,3211.5C541,3245.44 568.557,3273 602.5,3273L725.5,3273C759.443,3273 787,3245.44 787,3211.5L787,3085.5Z" style="fill:#1cff39;stroke:#000;stroke-width:8.33px;"/>
            </g>
            <g transform="matrix(3.31292,0,0,1.71534,-484.316,1845.19)">
                <g transform="matrix(50,0,0,50,439.879,123.896)">
                    <path d="M0.023,-0.716L0.695,-0.716L0.695,-0.539L0.47,-0.539L0.47,-0L0.249,-0L0.249,-0.539L0.023,-0.539L0.023,-0.716Z" style="fill:#0b0a08;fill-rule:nonzero;"/>
                </g>
                <g transform="matrix(50,0,0,50,474.278,123.896)">
                    <path d="M0.045,-0.357C0.045,-0.474 0.078,-0.565 0.143,-0.63C0.208,-0.695 0.299,-0.728 0.415,-0.728C0.534,-0.728 0.626,-0.696 0.69,-0.632C0.755,-0.568 0.787,-0.479 0.787,-0.363C0.787,-0.28 0.773,-0.211 0.745,-0.157C0.717,-0.104 0.676,-0.062 0.623,-0.032C0.57,-0.003 0.503,0.012 0.424,0.012C0.343,0.012 0.276,-0.001 0.223,-0.026C0.17,-0.052 0.128,-0.093 0.095,-0.148C0.062,-0.204 0.045,-0.274 0.045,-0.357ZM0.267,-0.356C0.267,-0.284 0.28,-0.232 0.307,-0.201C0.334,-0.169 0.37,-0.153 0.417,-0.153C0.464,-0.153 0.501,-0.169 0.527,-0.2C0.553,-0.231 0.566,-0.286 0.566,-0.366C0.566,-0.434 0.552,-0.483 0.525,-0.514C0.498,-0.545 0.461,-0.561 0.415,-0.561C0.37,-0.561 0.334,-0.545 0.307,-0.513C0.28,-0.482 0.267,-0.429 0.267,-0.356Z" style="fill:#0b0a08;fill-rule:nonzero;"/>
                </g>
                <g transform="matrix(50,0,0,50,515.929,123.896)">
                    <path d="M0.539,-0.716L0.76,-0.716L0.76,-0.289C0.76,-0.247 0.753,-0.207 0.74,-0.169C0.727,-0.132 0.706,-0.099 0.678,-0.071C0.65,-0.042 0.62,-0.023 0.589,-0.011C0.546,0.005 0.495,0.013 0.435,0.013C0.4,0.013 0.362,0.01 0.321,0.005C0.279,0 0.245,-0.009 0.217,-0.024C0.19,-0.038 0.164,-0.059 0.141,-0.085C0.118,-0.112 0.103,-0.14 0.094,-0.168C0.081,-0.214 0.074,-0.254 0.074,-0.289L0.074,-0.716L0.294,-0.716L0.294,-0.279C0.294,-0.24 0.305,-0.209 0.327,-0.187C0.349,-0.165 0.379,-0.154 0.417,-0.154C0.455,-0.154 0.485,-0.165 0.507,-0.187C0.528,-0.208 0.539,-0.239 0.539,-0.279L0.539,-0.716Z" style="fill:#0b0a08;fill-rule:nonzero;"/>
                </g>
                <g transform="matrix(50,0,0,50,557.579,123.896)">
                    <path d="M0.55,-0.292L0.744,-0.234C0.731,-0.18 0.71,-0.134 0.682,-0.098C0.654,-0.061 0.619,-0.034 0.578,-0.015C0.536,0.003 0.484,0.013 0.419,0.013C0.342,0.013 0.278,0.001 0.229,-0.021C0.179,-0.044 0.137,-0.084 0.101,-0.141C0.065,-0.198 0.047,-0.271 0.047,-0.359C0.047,-0.478 0.079,-0.569 0.142,-0.633C0.205,-0.696 0.294,-0.728 0.409,-0.728C0.499,-0.728 0.57,-0.71 0.622,-0.673C0.673,-0.637 0.712,-0.581 0.737,-0.505L0.542,-0.462C0.535,-0.484 0.528,-0.5 0.52,-0.51C0.508,-0.527 0.493,-0.54 0.475,-0.549C0.457,-0.558 0.437,-0.563 0.415,-0.563C0.364,-0.563 0.326,-0.542 0.299,-0.502C0.279,-0.472 0.269,-0.425 0.269,-0.361C0.269,-0.281 0.281,-0.227 0.305,-0.198C0.329,-0.168 0.363,-0.153 0.407,-0.153C0.449,-0.153 0.481,-0.165 0.503,-0.189C0.524,-0.213 0.54,-0.247 0.55,-0.292Z" style="fill:#0b0a08;fill-rule:nonzero;"/>
                </g>
                <g transform="matrix(50,0,0,50,596.471,123.896)">
                    <path d="M0.074,-0.716L0.295,-0.716L0.295,-0.465L0.537,-0.465L0.537,-0.716L0.759,-0.716L0.759,-0L0.537,-0L0.537,-0.29L0.295,-0.29L0.295,-0L0.074,-0L0.074,-0.716Z" style="fill:#0b0a08;fill-rule:nonzero;"/>
                </g>
                <g transform="matrix(50,0,0,50,484.825,173.896)">
                    <path d="M0.045,-0.357C0.045,-0.474 0.078,-0.565 0.143,-0.63C0.208,-0.695 0.299,-0.728 0.415,-0.728C0.534,-0.728 0.626,-0.696 0.69,-0.632C0.755,-0.568 0.787,-0.479 0.787,-0.363C0.787,-0.28 0.773,-0.211 0.745,-0.157C0.717,-0.104 0.676,-0.062 0.623,-0.032C0.57,-0.003 0.503,0.012 0.424,0.012C0.343,0.012 0.276,-0.001 0.223,-0.026C0.17,-0.052 0.128,-0.093 0.095,-0.148C0.062,-0.204 0.045,-0.274 0.045,-0.357ZM0.267,-0.356C0.267,-0.284 0.28,-0.232 0.307,-0.201C0.334,-0.169 0.37,-0.153 0.417,-0.153C0.464,-0.153 0.501,-0.169 0.527,-0.2C0.553,-0.231 0.566,-0.286 0.566,-0.366C0.566,-0.434 0.552,-0.483 0.525,-0.514C0.498,-0.545 0.461,-0.561 0.415,-0.561C0.37,-0.561 0.334,-0.545 0.307,-0.513C0.28,-0.482 0.267,-0.429 0.267,-0.356Z" style="fill:#0b0a08;fill-rule:nonzero;"/>
                </g>
                <g transform="matrix(50,0,0,50,526.476,173.896)">
                    <path d="M0.074,-0.716L0.621,-0.716L0.621,-0.562L0.296,-0.562L0.296,-0.437L0.574,-0.437L0.574,-0.292L0.296,-0.292L0.296,-0L0.074,-0L0.074,-0.716Z" style="fill:#0b0a08;fill-rule:nonzero;"/>
                </g>
                <g transform="matrix(50,0,0,50,559.825,173.896)">
                    <path d="M0.074,-0.716L0.621,-0.716L0.621,-0.562L0.296,-0.562L0.296,-0.437L0.574,-0.437L0.574,-0.292L0.296,-0.292L0.296,-0L0.074,-0L0.074,-0.716Z" style="fill:#0b0a08;fill-rule:nonzero;"/>
                </g>
            </g>
        </g>
        <g id="Layer-1" serif:id="Layer 1">
        </g>
    </g>
</svg>
