<?xml version="1.0" encoding="utf-8"?>
<!-- Generator: Adobe Illustrator 26.0.3, SVG Export Plug-In . SVG Version: 6.00 Build 0)  -->
<svg version="1.1" id="New_VCP" xmlns="http://www.w3.org/2000/svg" xmlns:xlink="http://www.w3.org/1999/xlink" x="0px" y="0px"
	 viewBox="0 0 100 100" style="enable-background:new 0 0 100 100;" xml:space="preserve">
<g>
	<g>
		<polygon points="53,61.7 14.6,61.7 14.6,79 69.2,79 79.6,73.1 79.6,79 86.9,79 86.9,82 79.6,82 79.6,88 69.2,82 11.6,82 
			11.6,58.7 53,58.7 53,52.7 63.3,58.7 85.4,58.7 85.4,41.3 34.5,41.3 34.5,47.2 24.2,41.3 11.6,41.3 11.6,18 70.6,18 70.6,12 
			81,18 86.9,18 86.9,21 81,21 70.6,26.9 70.6,21 14.6,21 14.6,38.3 24,38.3 34.5,32.3 34.5,38.3 88.4,38.3 88.4,61.7 63.3,61.7 
			53,67.7 		"/>
	</g>
</g>
<g>
	<rect x="39.3" y="61.7" width="13.7" height="0"/>
</g>
<g>
	<rect x="34.5" y="38.3" width="13.7" height="0.1"/>
</g>
</svg>
