<?xml version="1.0" encoding="UTF-8" standalone="no"?>
<!DOCTYPE svg PUBLIC "-//W3C//DTD SVG 1.1//EN" "http://www.w3.org/Graphics/SVG/1.1/DTD/svg11.dtd">
<svg width="100%" height="100%" viewBox="0 0 300 300" version="1.1" xmlns="http://www.w3.org/2000/svg" xmlns:xlink="http://www.w3.org/1999/xlink" xml:space="preserve" xmlns:serif="http://www.serif.com/" style="fill-rule:evenodd;clip-rule:evenodd;stroke-linejoin:round;stroke-miterlimit:2;">
    <g transform="matrix(1,0,0,1,-3567.32,-1965.66)">
        <g id="Layer-1" serif:id="Layer 1">
        </g>
        <g transform="matrix(0.301848,0,0,0.582975,3324.51,908.961)">
            <rect x="804.411" y="1812.59" width="993.877" height="514.602" style="fill:none;"/>
            <g transform="matrix(3.31292,0,0,1.71534,-620.146,1804.02)">
                <g transform="matrix(83.3333,0,0,83.3333,458.045,143.159)">
                    <path d="M0.074,-0.716L0.621,-0.716L0.621,-0.562L0.296,-0.562L0.296,-0.437L0.574,-0.437L0.574,-0.292L0.296,-0.292L0.296,-0L0.074,-0L0.074,-0.716Z" style="fill:#c5c5c5;fill-rule:nonzero;"/>
                </g>
                <g transform="matrix(83.3333,0,0,83.3333,505.774,143.159)">
                    <path d="M0.514,-0.118L0.262,-0.118L0.227,-0L0.001,-0L0.27,-0.716L0.511,-0.716L0.78,-0L0.549,-0L0.514,-0.118ZM0.467,-0.273L0.388,-0.53L0.31,-0.273L0.467,-0.273Z" style="fill:#c5c5c5;fill-rule:nonzero;"/>
                </g>
                <g transform="matrix(83.3333,0,0,83.3333,570.594,143.159)">
                    <path d="M0.035,-0.237L0.245,-0.25C0.25,-0.216 0.259,-0.19 0.273,-0.172C0.296,-0.143 0.328,-0.128 0.371,-0.128C0.402,-0.128 0.427,-0.136 0.444,-0.151C0.461,-0.165 0.469,-0.183 0.469,-0.202C0.469,-0.221 0.461,-0.237 0.445,-0.252C0.429,-0.267 0.391,-0.28 0.332,-0.293C0.235,-0.315 0.165,-0.344 0.124,-0.38C0.082,-0.417 0.062,-0.463 0.062,-0.519C0.062,-0.555 0.072,-0.59 0.094,-0.623C0.115,-0.656 0.147,-0.681 0.19,-0.7C0.233,-0.719 0.291,-0.728 0.366,-0.728C0.457,-0.728 0.527,-0.711 0.575,-0.677C0.623,-0.643 0.652,-0.589 0.661,-0.515L0.452,-0.502C0.447,-0.535 0.435,-0.558 0.417,-0.573C0.399,-0.587 0.375,-0.595 0.344,-0.595C0.318,-0.595 0.299,-0.589 0.286,-0.578C0.273,-0.567 0.266,-0.554 0.266,-0.539C0.266,-0.527 0.271,-0.517 0.282,-0.508C0.293,-0.498 0.317,-0.49 0.356,-0.481C0.453,-0.461 0.522,-0.44 0.564,-0.418C0.606,-0.397 0.636,-0.37 0.656,-0.339C0.675,-0.307 0.684,-0.272 0.684,-0.233C0.684,-0.187 0.671,-0.145 0.646,-0.106C0.621,-0.067 0.585,-0.038 0.54,-0.018C0.494,0.002 0.437,0.012 0.367,0.012C0.245,0.012 0.161,-0.011 0.114,-0.058C0.067,-0.105 0.041,-0.165 0.035,-0.237Z" style="fill:#c5c5c5;fill-rule:nonzero;"/>
                </g>
                <g transform="matrix(83.3333,0,0,83.3333,630.774,143.159)">
                    <path d="M0.023,-0.716L0.695,-0.716L0.695,-0.539L0.47,-0.539L0.47,-0L0.249,-0L0.249,-0.539L0.023,-0.539L0.023,-0.716Z" style="fill:#c5c5c5;fill-rule:nonzero;"/>
                </g>
                <g transform="matrix(83.3333,0,0,83.3333,441.667,226.493)">
                    <path d="M0.035,-0.237L0.245,-0.25C0.25,-0.216 0.259,-0.19 0.273,-0.172C0.296,-0.143 0.328,-0.128 0.371,-0.128C0.402,-0.128 0.427,-0.136 0.444,-0.151C0.461,-0.165 0.469,-0.183 0.469,-0.202C0.469,-0.221 0.461,-0.237 0.445,-0.252C0.429,-0.267 0.391,-0.28 0.332,-0.293C0.235,-0.315 0.165,-0.344 0.124,-0.38C0.082,-0.417 0.062,-0.463 0.062,-0.519C0.062,-0.555 0.072,-0.59 0.094,-0.623C0.115,-0.656 0.147,-0.681 0.19,-0.7C0.233,-0.719 0.291,-0.728 0.366,-0.728C0.457,-0.728 0.527,-0.711 0.575,-0.677C0.623,-0.643 0.652,-0.589 0.661,-0.515L0.452,-0.502C0.447,-0.535 0.435,-0.558 0.417,-0.573C0.399,-0.587 0.375,-0.595 0.344,-0.595C0.318,-0.595 0.299,-0.589 0.286,-0.578C0.273,-0.567 0.266,-0.554 0.266,-0.539C0.266,-0.527 0.271,-0.517 0.282,-0.508C0.293,-0.498 0.317,-0.49 0.356,-0.481C0.453,-0.461 0.522,-0.44 0.564,-0.418C0.606,-0.397 0.636,-0.37 0.656,-0.339C0.675,-0.307 0.684,-0.272 0.684,-0.233C0.684,-0.187 0.671,-0.145 0.646,-0.106C0.621,-0.067 0.585,-0.038 0.54,-0.018C0.494,0.002 0.437,0.012 0.367,0.012C0.245,0.012 0.161,-0.011 0.114,-0.058C0.067,-0.105 0.041,-0.165 0.035,-0.237Z" style="fill-rule:nonzero;"/>
                </g>
                <g transform="matrix(83.3333,0,0,83.3333,501.848,226.493)">
                    <path d="M0.073,-0.716L0.294,-0.716L0.294,-0.176L0.64,-0.176L0.64,-0L0.073,-0L0.073,-0.716Z" style="fill-rule:nonzero;"/>
                </g>
                <g transform="matrix(83.3333,0,0,83.3333,556.006,226.493)">
                    <path d="M0.045,-0.357C0.045,-0.474 0.078,-0.565 0.143,-0.63C0.208,-0.695 0.299,-0.728 0.415,-0.728C0.534,-0.728 0.626,-0.696 0.69,-0.632C0.755,-0.568 0.787,-0.479 0.787,-0.363C0.787,-0.28 0.773,-0.211 0.745,-0.157C0.717,-0.104 0.676,-0.062 0.623,-0.032C0.57,-0.003 0.503,0.012 0.424,0.012C0.343,0.012 0.276,-0.001 0.223,-0.026C0.17,-0.052 0.128,-0.093 0.095,-0.148C0.062,-0.204 0.045,-0.274 0.045,-0.357ZM0.267,-0.356C0.267,-0.284 0.28,-0.232 0.307,-0.201C0.334,-0.169 0.37,-0.153 0.417,-0.153C0.464,-0.153 0.501,-0.169 0.527,-0.2C0.553,-0.231 0.566,-0.286 0.566,-0.366C0.566,-0.434 0.552,-0.483 0.525,-0.514C0.498,-0.545 0.461,-0.561 0.415,-0.561C0.37,-0.561 0.334,-0.545 0.307,-0.513C0.28,-0.482 0.267,-0.429 0.267,-0.356Z" style="fill-rule:nonzero;"/>
                </g>
                <g transform="matrix(83.3333,0,0,83.3333,624,226.493)">
                    <path d="M-0,-0.716L0.209,-0.716L0.285,-0.316L0.396,-0.716L0.605,-0.716L0.716,-0.316L0.792,-0.716L1,-0.716L0.843,-0L0.626,-0L0.5,-0.451L0.375,-0L0.159,-0L-0,-0.716Z" style="fill-rule:nonzero;"/>
                </g>
            </g>
        </g>
    </g>
</svg>
