<svg id="New_VCP" data-name="New VCP" xmlns="http://www.w3.org/2000/svg" width="100" height="100" viewBox="0 0 100 100">
  <title>tortoise_hare</title>
  <rect width="100" height="100" rx="6" style="fill: #ffc70e"/>
  <path d="M54.08,66.76s12.71,3,12.29,4.28S66,73,57.53,71,41,68.24,38.34,69.5c0,0-1.24-4.53-3.73-5.22s-4.83,0-5.52,1.38.28,4.83,2.35,5.93a57.86,57.86,0,0,0-4.84,5.8c-1.79,2.63-6.21,7-14.63,8.15s-7.46,7.73-.69,5.25,17.53-6.49,27.34-6.08,21.26,4.56,30.93.14c4.83,3.73,9.41,6.61,11.89,7s13.65,0,13.65,0,.82-2.12-3.73-2.6c-1.13-.12-9-1.25-9-1.25S74.52,83.88,74,82.36s.41-3.72.41-3.72,9.52,1.1,11.6,1a4.07,4.07,0,0,0,3.2-1.84l.1-.15c.67-1-2.92-8.11-6.48-9.37-3.35-1.19-4.8-2-6.76-1.38-1,.3-2.63,1.24-3.73,1.24S66.1,63.72,61.4,63.45,44.14,66.21,54.08,66.76Z" style="fill: #231f20"/>
  <path d="M90.89,29.61a3.73,3.73,0,0,0,1.88-2.31,3.38,3.38,0,0,0,1-1.72c-.11-1.56-1.81-2.81-3.61-3.11a6.75,6.75,0,0,0-4.33-.42A33.18,33.18,0,0,0,79,24.27c-.49.06-2.62,1.55-2.76.92S69.66,15.58,60.34,10.3s-21.26,0-21.26,0c-8.89,3.47-15.15,16.84-16.17,18.33s-5.79-3.44-5.79-3.44c.62,5.81,8.7,8.06,8.7,8.06l-.43,6.94h7.28a20.09,20.09,0,0,1,.43-4C33.54,34.41,36,34.9,36,34.9l.43,5.29h6.41l2-6.28c2,1.16,11.15-.66,11.15-.66l-.44,6.94h6.41s3.93-6.94,4.51-6.77S66,40.19,66,40.19h6.11s1.75-5.12,2-6.75,7-1.45,7.64-1.71a7,7,0,0,1,3.72-1.09,16,16,0,0,0,5.38-1" style="fill: #231f20"/>
  <rect x="2.67" y="46.56" width="94.67" height="7.67" style="fill: #231f20"/>
  <circle cx="79.41" cy="71.04" r="1.41" style="fill: #fff"/>
  <ellipse cx="86.4" cy="23.98" rx="1.01" ry="0.61" style="fill: #fff"/>
</svg>
