<?xml version="1.0" encoding="UTF-8" standalone="no"?>
<!DOCTYPE svg PUBLIC "-//W3C//DTD SVG 1.1//EN" "http://www.w3.org/Graphics/SVG/1.1/DTD/svg11.dtd">
<svg width="100%" height="100%" viewBox="0 0 300 300" version="1.1" xmlns="http://www.w3.org/2000/svg" xmlns:xlink="http://www.w3.org/1999/xlink" xml:space="preserve" xmlns:serif="http://www.serif.com/" style="fill-rule:evenodd;clip-rule:evenodd;stroke-linecap:round;stroke-miterlimit:1.5;">
    <g transform="matrix(1,0,0,1,-3118.32,-2291.99)">
        <g id="Layer-1" serif:id="Layer 1">
        </g>
        <g transform="matrix(0.301848,0,0,0.582975,2875.51,1235.3)">
            <rect x="804.411" y="1812.59" width="993.877" height="514.602" style="fill:none;"/>
            <g>
                <g transform="matrix(-2.02858e-16,1.71534,3.31292,1.05034e-16,-4554.18,-3682.22)">
                    <circle cx="3358" cy="1762" r="125" style="fill:#bc00ff;stroke:#000;stroke-width:8.33px;"/>
                </g>
                <g transform="matrix(3.48818,1.80608,3.48818,-1.80608,-15956,-832.209)">
                    <path d="M3193.5,1645L3230,1679L3157,1679L3193.5,1645Z" style="stroke:#000;stroke-width:5.6px;"/>
                </g>
            </g>
            <g transform="matrix(3.31292,0,0,1.71534,-502.476,1853.19)">
                <g transform="matrix(62.5,0,0,62.5,459.135,153.369)">
                    <path d="M0.55,-0.292L0.744,-0.234C0.731,-0.18 0.71,-0.134 0.682,-0.098C0.654,-0.061 0.619,-0.034 0.578,-0.015C0.536,0.003 0.484,0.013 0.419,0.013C0.342,0.013 0.278,0.001 0.229,-0.021C0.179,-0.044 0.137,-0.084 0.101,-0.141C0.065,-0.198 0.047,-0.271 0.047,-0.359C0.047,-0.478 0.079,-0.569 0.142,-0.633C0.205,-0.696 0.294,-0.728 0.409,-0.728C0.499,-0.728 0.57,-0.71 0.622,-0.673C0.673,-0.637 0.712,-0.581 0.737,-0.505L0.542,-0.462C0.535,-0.484 0.528,-0.5 0.52,-0.51C0.508,-0.527 0.493,-0.54 0.475,-0.549C0.457,-0.558 0.437,-0.563 0.415,-0.563C0.364,-0.563 0.326,-0.542 0.299,-0.502C0.279,-0.472 0.269,-0.425 0.269,-0.361C0.269,-0.281 0.281,-0.227 0.305,-0.198C0.329,-0.168 0.363,-0.153 0.407,-0.153C0.449,-0.153 0.481,-0.165 0.503,-0.189C0.524,-0.213 0.54,-0.247 0.55,-0.292Z" style="fill:#0b0a08;fill-rule:nonzero;"/>
                </g>
                <g transform="matrix(62.5,0,0,62.5,507.75,153.369)">
                    <path d="M0.55,-0.292L0.744,-0.234C0.731,-0.18 0.71,-0.134 0.682,-0.098C0.654,-0.061 0.619,-0.034 0.578,-0.015C0.536,0.003 0.484,0.013 0.419,0.013C0.342,0.013 0.278,0.001 0.229,-0.021C0.179,-0.044 0.137,-0.084 0.101,-0.141C0.065,-0.198 0.047,-0.271 0.047,-0.359C0.047,-0.478 0.079,-0.569 0.142,-0.633C0.205,-0.696 0.294,-0.728 0.409,-0.728C0.499,-0.728 0.57,-0.71 0.622,-0.673C0.673,-0.637 0.712,-0.581 0.737,-0.505L0.542,-0.462C0.535,-0.484 0.528,-0.5 0.52,-0.51C0.508,-0.527 0.493,-0.54 0.475,-0.549C0.457,-0.558 0.437,-0.563 0.415,-0.563C0.364,-0.563 0.326,-0.542 0.299,-0.502C0.279,-0.472 0.269,-0.425 0.269,-0.361C0.269,-0.281 0.281,-0.227 0.305,-0.198C0.329,-0.168 0.363,-0.153 0.407,-0.153C0.449,-0.153 0.481,-0.165 0.503,-0.189C0.524,-0.213 0.54,-0.247 0.55,-0.292Z" style="fill:#0b0a08;fill-rule:nonzero;"/>
                </g>
                <g transform="matrix(62.5,0,0,62.5,556.365,153.369)">
                    <path d="M-0,-0.716L0.209,-0.716L0.285,-0.316L0.396,-0.716L0.605,-0.716L0.716,-0.316L0.792,-0.716L1,-0.716L0.843,-0L0.626,-0L0.5,-0.451L0.375,-0L0.159,-0L-0,-0.716Z" style="fill:#0b0a08;fill-rule:nonzero;"/>
                </g>
            </g>
        </g>
    </g>
</svg>
