<?xml version="1.0" encoding="utf-8"?>
<!-- Generator: Adobe Illustrator 24.0.2, SVG Export Plug-In . SVG Version: 6.00 Build 0)  -->
<svg version="1.1" id="New_VCP" xmlns="http://www.w3.org/2000/svg" xmlns:xlink="http://www.w3.org/1999/xlink" x="0px" y="0px"
	 width="100px" height="100px" viewBox="0 0 100 100" style="enable-background:new 0 0 100 100;" xml:space="preserve">
<style type="text/css">
	.st0{display:none;fill:#82151E;}
	.st1{fill:#FFFFFF;}
	.st2{fill:#010101;}
	.st3{display:none;}
	.st4{display:inline;}
	.st5{font-family:'Arial-Black';}
	.st6{font-size:24.4884px;}
	.st7{fill:#231F20;}
</style>
<path class="st0" d="M35.1,3h-0.7H7.6C5.1,3,3,5,3,7.4v25.9v1.8L35.1,3z"/>
<g>
	<path class="st1" d="M99.5,93.6c0,3.3-2.7,5.9-5.9,5.9H6.4c-3.3,0-5.9-2.7-5.9-5.9V6.4c0-3.3,2.7-5.9,5.9-5.9h87.1
		c3.3,0,5.9,2.7,5.9,5.9V93.6z"/>
	<path class="st2" d="M93.6,100H6.4C2.9,100,0,97.1,0,93.6V6.4C0,2.9,2.9,0,6.4,0h87.1c3.5,0,6.4,2.9,6.4,6.4v87.1
		C100,97.1,97.1,100,93.6,100z M6.4,1C3.4,1,1,3.4,1,6.4v87.1c0,3,2.4,5.4,5.4,5.4h87.1c3,0,5.4-2.4,5.4-5.4V6.4
		c0-3-2.4-5.4-5.4-5.4H6.4z"/>
</g>
<g class="st3">
	<text transform="matrix(0.9 0 0 1 20.616 39.9043)" class="st4"><tspan x="0" y="0" class="st2 st5 st6">SPIN </tspan><tspan x="-10.2" y="27.4" class="st2 st5 st6">WARM</tspan></text>
</g>
<g>
	<path class="st7" d="M27.3,26.1l4.6-0.3c0.1,0.8,0.3,1.5,0.6,1.9c0.5,0.7,1.2,1.1,2.1,1.1c0.7,0,1.2-0.2,1.6-0.6
		c0.4-0.4,0.6-0.8,0.6-1.3c0-0.5-0.2-0.9-0.5-1.2c-0.4-0.4-1.2-0.7-2.5-1c-2.1-0.5-3.6-1.3-4.5-2.2c-0.9-0.9-1.4-2-1.4-3.4
		c0-0.9,0.2-1.8,0.7-2.6s1.2-1.5,2.1-1.9c0.9-0.5,2.2-0.7,3.8-0.7c2,0,3.5,0.4,4.5,1.3c1,0.8,1.7,2.2,1.9,4l-4.5,0.3
		c-0.1-0.8-0.4-1.4-0.8-1.7c-0.4-0.4-0.9-0.5-1.6-0.5c-0.6,0-1,0.1-1.3,0.4c-0.3,0.3-0.4,0.6-0.4,1c0,0.3,0.1,0.5,0.3,0.8
		c0.2,0.2,0.8,0.5,1.6,0.7c2.1,0.5,3.6,1,4.5,1.6c0.9,0.5,1.6,1.2,2,2c0.4,0.8,0.6,1.7,0.6,2.6c0,1.1-0.3,2.2-0.8,3.2
		c-0.5,1-1.3,1.7-2.3,2.2c-1,0.5-2.2,0.7-3.7,0.7c-2.6,0-4.5-0.6-5.5-1.7C28,29.4,27.4,27.9,27.3,26.1z"/>
	<path class="st7" d="M43.8,14.2h12.8V18h-8v2.8H56v3.6h-7.5V28h8.3v4H43.8V14.2z"/>
	<path class="st7" d="M58.3,14.2h14.6v4.4H68V32h-4.8V18.6h-4.9V14.2z"/>
	<path class="st7" d="M23.1,39.1h4.5l1.6,10l2.4-10h4.5l2.4,9.9l1.6-9.9h4.5l-3.4,17.8h-4.7L34,45.7l-2.7,11.2h-4.7L23.1,39.1z"/>
	<path class="st7" d="M56.3,49.6l4.2,1.5c-0.3,1.4-0.7,2.5-1.3,3.4c-0.6,0.9-1.4,1.6-2.3,2.1c-0.9,0.5-2,0.7-3.4,0.7
		c-1.7,0-3.1-0.3-4.1-0.8c-1.1-0.6-2-1.6-2.8-3c-0.8-1.4-1.2-3.2-1.2-5.4c0-2.9,0.7-5.2,2-6.8c1.4-1.6,3.3-2.4,5.8-2.4
		c2,0,3.5,0.5,4.6,1.4c1.1,0.9,1.9,2.3,2.5,4.2l-4.2,1.1c-0.1-0.5-0.3-0.9-0.5-1.2c-0.3-0.4-0.6-0.7-1-1c-0.4-0.2-0.8-0.3-1.3-0.3
		c-1.1,0-1.9,0.5-2.5,1.5c-0.4,0.7-0.7,1.9-0.7,3.5c0,2,0.3,3.3,0.8,4.1c0.5,0.7,1.3,1.1,2.2,1.1c0.9,0,1.6-0.3,2.1-0.9
		C55.8,51.6,56.1,50.7,56.3,49.6z"/>
	<path class="st7" d="M62,51l4.6-0.3c0.1,0.8,0.3,1.5,0.6,1.9c0.5,0.7,1.2,1.1,2.1,1.1c0.7,0,1.2-0.2,1.6-0.6s0.6-0.8,0.6-1.3
		c0-0.5-0.2-0.9-0.5-1.2s-1.2-0.7-2.5-1c-2.1-0.5-3.6-1.3-4.5-2.2c-0.9-0.9-1.4-2-1.4-3.4c0-0.9,0.2-1.8,0.7-2.6
		c0.5-0.8,1.2-1.5,2.1-1.9s2.2-0.7,3.8-0.7c2,0,3.5,0.4,4.5,1.3c1,0.8,1.7,2.2,1.9,4L71,44.4c-0.1-0.8-0.4-1.4-0.8-1.7
		c-0.4-0.4-0.9-0.5-1.6-0.5c-0.6,0-1,0.1-1.3,0.4c-0.3,0.3-0.4,0.6-0.4,1c0,0.3,0.1,0.5,0.3,0.8c0.2,0.2,0.8,0.5,1.6,0.7
		c2.1,0.5,3.6,1,4.5,1.6c0.9,0.5,1.6,1.2,2,2c0.4,0.8,0.6,1.7,0.6,2.6c0,1.1-0.3,2.2-0.8,3.2c-0.5,1-1.3,1.7-2.3,2.2
		c-1,0.5-2.2,0.7-3.7,0.7c-2.6,0-4.5-0.6-5.5-1.7S62.1,52.8,62,51z"/>
	<path class="st7" d="M36.2,63.9h13.6v3.6L41,77.9h9v3.8H35.3V78l8.6-10.3h-7.8V63.9z"/>
	<path class="st7" d="M51.5,72.7c0-3.4,0.5-5.7,1.6-7.1c1.1-1.4,2.7-2,4.8-2c1,0,1.9,0.1,2.6,0.4c0.7,0.3,1.2,0.7,1.6,1.2
		c0.4,0.5,0.8,1,1,1.5s0.4,1.1,0.6,1.8c0.3,1.3,0.4,2.7,0.4,4.2c0,3.2-0.5,5.6-1.4,7.1S60.1,82,57.8,82c-1.3,0-2.4-0.2-3.2-0.7
		c-0.8-0.5-1.5-1.2-2-2.1c-0.4-0.7-0.7-1.6-0.9-2.7C51.6,75.4,51.5,74.1,51.5,72.7z M55.8,72.7c0,2.3,0.2,3.8,0.5,4.6
		c0.3,0.8,0.9,1.2,1.5,1.2c0.4,0,0.8-0.2,1.1-0.5c0.3-0.4,0.6-0.9,0.7-1.7c0.2-0.8,0.2-1.9,0.2-3.6c0-2.4-0.2-4-0.5-4.8
		c-0.3-0.8-0.9-1.2-1.6-1.2c-0.7,0-1.2,0.4-1.5,1.2S55.8,70.5,55.8,72.7z"/>
</g>
</svg>
