<svg id="New_VCP" data-name="New VCP" xmlns="http://www.w3.org/2000/svg" width="100" height="100" viewBox="0 0 100 100">
  <title>m56</title>
  <rect width="100" height="100" rx="6" style="fill: #252d6b"/>
  <g>
    <path d="M24.08,58.83V35.69h7l4.2,15.78,4.15-15.78h7V58.83H42.09V40.62l-4.6,18.21H33L28.42,40.62V58.83Z" style="fill: #fff"/>
    <path d="M50.15,52.88l4.42-.46a3.84,3.84,0,0,0,1.12,2.38,3.06,3.06,0,0,0,2.15.87,3,3,0,0,0,2.35-1.13,5.13,5.13,0,0,0,1-3.4A4.68,4.68,0,0,0,60.2,48a3.2,3.2,0,0,0-2.49-1.07,4.53,4.53,0,0,0-3.42,1.69l-3.6-.52L53,36H64.69v4.15H56.32l-.69,3.93a6.77,6.77,0,0,1,3-.74,6.65,6.65,0,0,1,5,2.14,7.72,7.72,0,0,1,2,5.57,8.31,8.31,0,0,1-1.66,5.1,7.34,7.34,0,0,1-6.26,3.06,7.73,7.73,0,0,1-5.22-1.72A7,7,0,0,1,50.15,52.88Z" style="fill: #fff"/>
    <path d="M83.09,41.36l-4.3.47A3,3,0,0,0,78,39.88a2.39,2.39,0,0,0-1.72-.64,2.92,2.92,0,0,0-2.37,1.27q-1,1.26-1.22,5.25a5.17,5.17,0,0,1,4.11-1.95,6.27,6.27,0,0,1,4.76,2.11,7.67,7.67,0,0,1,2,5.46,7.83,7.83,0,0,1-2.08,5.7,7.6,7.6,0,0,1-11.11-.58c-1.5-1.81-2.26-4.79-2.26-8.92s.79-7.3,2.36-9.17a7.58,7.58,0,0,1,6.1-2.81,6.53,6.53,0,0,1,4.37,1.47A7,7,0,0,1,83.09,41.36ZM73,51a5,5,0,0,0,1,3.34,2.94,2.94,0,0,0,2.27,1.18,2.56,2.56,0,0,0,2-1,4.82,4.82,0,0,0,.82-3.15,5.08,5.08,0,0,0-.88-3.31,2.84,2.84,0,0,0-4.37,0A4.36,4.36,0,0,0,73,51Z" style="fill: #fff"/>
  </g>
</svg>
