<?xml version="1.0" encoding="UTF-8" standalone="no"?>
<!DOCTYPE svg PUBLIC "-//W3C//DTD SVG 1.1//EN" "http://www.w3.org/Graphics/SVG/1.1/DTD/svg11.dtd">
<svg width="100%" height="100%" viewBox="0 0 300 300" version="1.1" xmlns="http://www.w3.org/2000/svg" xmlns:xlink="http://www.w3.org/1999/xlink" xml:space="preserve" xmlns:serif="http://www.serif.com/" style="fill-rule:evenodd;clip-rule:evenodd;stroke-miterlimit:1.5;">
    <g transform="matrix(1,0,0,1,-2799.32,-1540.99)">
        <g id="Layer-1" serif:id="Layer 1">
        </g>
        <g transform="matrix(0.301848,0,0,0.582975,2556.51,484.296)">
            <rect x="804.411" y="1812.59" width="993.877" height="514.602" style="fill:none;"/>
            <clipPath id="_clip1">
                <rect x="804.411" y="1812.59" width="993.877" height="514.602"/>
            </clipPath>
            <g clip-path="url(#_clip1)">
                <g transform="matrix(3.31292,0,0,1.71534,3321.74,-272.09)">
                    <g transform="matrix(1.26079,0,0,1.30865,-1530.15,64.913)">
                        <g transform="matrix(1.39057,-0.0256326,0.0356556,0.999671,-210.006,18.5641)">
                            <path d="M719,1072L563,1068" style="fill:none;stroke:#000;stroke-width:24.06px;"/>
                        </g>
                        <g transform="matrix(-0.0256326,-1.39057,0.999671,-0.0356556,-398.718,1929.29)">
                            <path d="M719,1072L563,1068" style="fill:none;stroke:#005cff;stroke-width:23.74px;"/>
                        </g>
                    </g>
                    <g transform="matrix(6.12323e-17,1,-0.606454,3.71346e-17,195.778,1835.46)">
                        <g transform="matrix(6.12323e-17,-1,1,6.12323e-17,-1997.96,694.759)">
                            <path d="M-790.5,1417L-749,1467L-832,1467L-790.5,1417Z" style="stroke:#000;stroke-width:7.56px;"/>
                        </g>
                        <g transform="matrix(0.665581,0,0,1,-180.888,0)">
                            <rect x="-511" y="1443.76" width="48" height="83" style="fill:#090400;stroke:#000;stroke-width:9.82px;"/>
                        </g>
                        <g transform="matrix(0.429854,-5.29836e-33,0,1,-259.674,3.22538e-30)">
                            <rect x="-511" y="1443.76" width="48" height="83" style="fill:#090400;stroke:#000;stroke-width:11.89px;"/>
                        </g>
                        <g transform="matrix(0.263459,-6.49477e-33,0,1,-313.418,7.8003e-30)">
                            <rect x="-511" y="1443.76" width="48" height="83" style="fill:#090400;stroke:#000;stroke-width:13.37px;"/>
                        </g>
                    </g>
                </g>
                <g transform="matrix(3.31292,0,0,1.71534,-368.174,1811.68)">
                    <g transform="matrix(62.5,0,0,62.5,457.411,153.369)">
                        <path d="M0.055,-0.716L0.681,-0.716L0.681,-0.573L0.28,-0.154L0.696,-0.154L0.696,-0L0.017,-0L0.017,-0.148L0.414,-0.563L0.055,-0.563L0.055,-0.716Z" style="fill:#0b0a08;fill-rule:nonzero;"/>
                    </g>
                    <g transform="matrix(62.5,0,0,62.5,523.39,153.369)">
                        <path d="M0.539,-0.716L0.76,-0.716L0.76,-0.289C0.76,-0.247 0.753,-0.207 0.74,-0.169C0.727,-0.132 0.706,-0.099 0.678,-0.071C0.65,-0.042 0.62,-0.023 0.589,-0.011C0.546,0.005 0.495,0.013 0.435,0.013C0.4,0.013 0.362,0.01 0.321,0.005C0.279,0 0.245,-0.009 0.217,-0.024C0.19,-0.038 0.164,-0.059 0.141,-0.085C0.118,-0.112 0.103,-0.14 0.094,-0.168C0.081,-0.214 0.074,-0.254 0.074,-0.289L0.074,-0.716L0.294,-0.716L0.294,-0.279C0.294,-0.24 0.305,-0.209 0.327,-0.187C0.349,-0.165 0.379,-0.154 0.417,-0.154C0.455,-0.154 0.485,-0.165 0.507,-0.187C0.528,-0.208 0.539,-0.239 0.539,-0.279L0.539,-0.716Z" style="fill:#0b0a08;fill-rule:nonzero;"/>
                    </g>
                    <g transform="matrix(62.5,0,0,62.5,575.453,153.369)">
                        <path d="M0.072,-0.716L0.44,-0.716C0.52,-0.716 0.58,-0.697 0.62,-0.659C0.66,-0.621 0.68,-0.566 0.68,-0.496C0.68,-0.424 0.658,-0.367 0.615,-0.327C0.571,-0.286 0.505,-0.266 0.416,-0.266L0.294,-0.266L0.294,-0L0.072,-0L0.072,-0.716ZM0.294,-0.411L0.349,-0.411C0.391,-0.411 0.421,-0.418 0.438,-0.433C0.456,-0.448 0.464,-0.467 0.464,-0.49C0.464,-0.512 0.457,-0.531 0.442,-0.547C0.427,-0.563 0.399,-0.57 0.357,-0.57L0.294,-0.57L0.294,-0.411Z" style="fill:#0b0a08;fill-rule:nonzero;"/>
                    </g>
                </g>
            </g>
        </g>
    </g>
</svg>
