<?xml version="1.0" encoding="utf-8"?>
<!-- Generator: Adobe Illustrator 24.0.2, SVG Export Plug-In . SVG Version: 6.00 Build 0)  -->
<svg version="1.1" id="New_VCP" xmlns="http://www.w3.org/2000/svg" xmlns:xlink="http://www.w3.org/1999/xlink" x="0px" y="0px"
	 width="100px" height="100px" viewBox="0 0 100 100" style="enable-background:new 0 0 100 100;" xml:space="preserve">
<style type="text/css">
	.st0{display:none;fill:#FFFFFF;}
	.st1{fill:#FFFFFF;stroke:#000000;stroke-miterlimit:10;}
	.st2{display:none;fill:#82151E;}
	.st3{fill:none;stroke:#ED1C24;stroke-width:2;stroke-miterlimit:10;}
	.st4{fill:#FFFFFF;}
	.st5{fill:#010101;}
</style>
<polygon class="st0" points="80.2,68.4 18.7,68 15.1,51.6 85.1,51.6 "/>
<path class="st1" d="M100,94c0,3.3-2.7,6-6,6H6c-3.3,0-6-2.7-6-6V6c0-3.3,2.7-6,6-6h88c3.3,0,6,2.7,6,6V94z"/>
<path class="st2" d="M34.3,2.2h-0.7H6.8c-2.5,0-4.6,2-4.6,4.4v25.9v1.8L34.3,2.2z"/>
<g>
	<line class="st3" x1="93.6" y1="50" x2="6.4" y2="50"/>
	<circle class="st3" cx="50" cy="50" r="37.3"/>
	<line class="st3" x1="50" y1="6.4" x2="50" y2="93.6"/>
</g>
<polygon class="st4" points="92,41.5 10.1,41.5 11.1,18.7 87.3,23 "/>
<path class="st5" d="M12.2,20.3h5.5v15h8.6v4.9H12.2V20.3z"/>
<path class="st5" d="M33,30.4l-4.7-0.6c0.2-0.9,0.4-1.6,0.8-2.2c0.3-0.5,0.8-1,1.5-1.4c0.5-0.3,1.1-0.5,1.9-0.7
	c0.8-0.2,1.7-0.2,2.6-0.2c1.5,0,2.7,0.1,3.6,0.3c0.9,0.2,1.7,0.6,2.3,1.2c0.4,0.4,0.8,1,1,1.7s0.4,1.5,0.4,2.1V37
	c0,0.7,0,1.2,0.1,1.6c0.1,0.4,0.2,0.9,0.5,1.5h-4.7c-0.2-0.4-0.3-0.7-0.4-0.8c-0.1-0.2-0.1-0.5-0.2-0.9c-0.7,0.7-1.3,1.2-1.9,1.5
	c-0.9,0.4-1.9,0.6-3.1,0.6c-1.5,0-2.7-0.4-3.5-1.2S28,37.5,28,36.4s0.3-2,0.9-2.7s1.6-1.2,3.2-1.6c1.9-0.4,3.1-0.7,3.6-0.9
	c0.6-0.2,1.1-0.4,1.8-0.7c0-0.7-0.1-1.2-0.4-1.4c-0.3-0.3-0.7-0.4-1.3-0.4c-0.8,0-1.4,0.1-1.8,0.4C33.5,29.3,33.2,29.8,33,30.4z
	 M37.3,33.3c-0.7,0.3-1.4,0.5-2.1,0.7c-1,0.3-1.6,0.6-1.9,0.9c-0.3,0.3-0.4,0.6-0.4,1s0.1,0.8,0.4,1.1c0.3,0.3,0.7,0.4,1.2,0.4
	c0.6,0,1.1-0.1,1.5-0.4c0.5-0.3,0.8-0.7,1-1.1c0.2-0.4,0.3-1,0.3-1.7V33.3z"/>
<path class="st5" d="M44.3,36.1l4.9-0.5c0.2,0.7,0.5,1.1,0.9,1.4c0.4,0.3,0.9,0.4,1.5,0.4c0.7,0,1.2-0.2,1.5-0.5
	c0.3-0.2,0.4-0.5,0.4-0.9s-0.2-0.7-0.6-0.9c-0.3-0.2-1-0.3-2.1-0.6c-1.7-0.3-2.9-0.6-3.6-0.9c-0.7-0.3-1.2-0.8-1.7-1.4
	c-0.5-0.7-0.7-1.4-0.7-2.3s0.2-1.8,0.7-2.4c0.5-0.7,1.2-1.2,2-1.5c0.9-0.3,2-0.5,3.5-0.5s2.7,0.1,3.4,0.4s1.3,0.7,1.8,1.2
	s0.9,1.3,1.2,2.2l-4.7,0.5c-0.1-0.5-0.3-0.8-0.6-1c-0.4-0.3-0.9-0.4-1.4-0.4c-0.6,0-1,0.1-1.2,0.3c-0.3,0.2-0.4,0.5-0.4,0.8
	c0,0.4,0.2,0.6,0.5,0.8c0.3,0.2,1,0.3,2.1,0.5c1.7,0.2,2.9,0.5,3.7,0.9c0.8,0.4,1.4,0.9,1.8,1.6c0.4,0.7,0.6,1.4,0.6,2.3
	c0,0.8-0.2,1.6-0.7,2.4c-0.5,0.8-1.2,1.4-2.1,1.9c-1,0.5-2.3,0.7-4,0.7c-2.4,0-4.1-0.4-5.1-1.1C45.2,38.6,44.5,37.5,44.3,36.1z"/>
<path class="st5" d="M74.8,34.3h-9.9c0.1,0.9,0.3,1.5,0.6,2c0.5,0.6,1.1,0.9,1.9,0.9c0.5,0,0.9-0.1,1.4-0.4c0.3-0.2,0.6-0.5,0.9-0.9
	l4.9,0.5c-0.7,1.4-1.6,2.5-2.7,3.1s-2.6,0.9-4.5,0.9c-1.7,0-3.1-0.3-4-0.8c-1-0.5-1.8-1.4-2.4-2.6c-0.6-1.2-1-2.5-1-4.1
	c0-2.2,0.6-4.1,1.9-5.5c1.3-1.4,3.1-2.1,5.4-2.1c1.9,0,3.3,0.3,4.4,0.9s1.9,1.5,2.4,2.7c0.6,1.2,0.8,2.7,0.8,4.6v0.8H74.8z
	 M69.7,31.7c-0.1-1.1-0.4-1.8-0.8-2.3s-1-0.7-1.7-0.7c-0.8,0-1.4,0.3-1.9,1c-0.3,0.4-0.5,1.1-0.6,1.9h5V31.7z"/>
<path class="st5" d="M77.1,25.7h4.6v2.4c0.4-1,0.9-1.7,1.4-2.1s1.1-0.6,1.8-0.6c0.7,0,1.5,0.3,2.4,0.8l-1.5,3.9
	c-0.6-0.3-1-0.4-1.4-0.4c-0.7,0-1.2,0.3-1.5,0.9c-0.5,0.8-0.8,2.4-0.8,4.7v4.8h-5V25.7z"/>
<rect x="5.8" y="57.7" class="st4" width="40.8" height="20.5"/>
<rect x="51.8" y="54.5" class="st4" width="37.8" height="23.7"/>
<g>
	<path class="st5" d="M9,70l4.3-0.3c0.1,0.8,0.3,1.4,0.6,1.8c0.5,0.7,1.1,1,2,1c0.6,0,1.1-0.2,1.5-0.5c0.4-0.3,0.5-0.7,0.5-1.2
		c0-0.4-0.2-0.8-0.5-1.1c-0.3-0.3-1.1-0.6-2.3-0.9c-2-0.5-3.4-1.2-4.3-2s-1.3-1.9-1.3-3.2c0-0.8,0.2-1.6,0.7-2.4
		c0.4-0.7,1.1-1.3,2-1.8c0.9-0.4,2.1-0.6,3.6-0.6c1.9,0,3.3,0.4,4.3,1.2c1,0.8,1.6,2,1.8,3.7L17.6,64c-0.1-0.7-0.4-1.3-0.7-1.6
		c-0.4-0.3-0.9-0.5-1.5-0.5c-0.5,0-0.9,0.1-1.2,0.4c-0.3,0.2-0.4,0.6-0.4,0.9c0,0.3,0.1,0.5,0.3,0.7s0.7,0.4,1.5,0.6
		c2,0.5,3.4,1,4.3,1.4c0.9,0.5,1.5,1.1,1.9,1.8c0.4,0.7,0.6,1.5,0.6,2.4c0,1-0.3,2-0.8,2.9s-1.2,1.6-2.2,2c-0.9,0.5-2.1,0.7-3.5,0.7
		c-2.5,0-4.2-0.5-5.2-1.6C9.7,73,9.1,71.7,9,70z"/>
	<path class="st5" d="M36.1,70.6H28c0.1,0.7,0.3,1.3,0.5,1.6c0.4,0.5,0.9,0.8,1.5,0.8c0.4,0,0.8-0.1,1.1-0.3
		c0.2-0.1,0.5-0.4,0.7-0.7l4,0.4c-0.6,1.2-1.4,2-2.2,2.6c-0.9,0.5-2.1,0.8-3.7,0.8c-1.4,0-2.5-0.2-3.3-0.7c-0.8-0.4-1.5-1.1-2-2.1
		s-0.8-2.1-0.8-3.4c0-1.8,0.5-3.3,1.6-4.5c1.1-1.1,2.5-1.7,4.4-1.7c1.5,0,2.7,0.3,3.6,0.8c0.9,0.5,1.6,1.3,2,2.2
		c0.5,1,0.7,2.2,0.7,3.8C36.1,70.2,36.1,70.6,36.1,70.6z M32,68.5c-0.1-0.9-0.3-1.5-0.6-1.9C31,66.2,30.6,66,30,66s-1.2,0.3-1.6,0.9
		c-0.2,0.4-0.4,0.9-0.5,1.6H32z"/>
	<path class="st5" d="M42.9,59.1v4.5h2.2v3.3h-2.2v4.2c0,0.5,0,0.8,0.1,1c0.1,0.3,0.4,0.4,0.7,0.4s0.7-0.1,1.3-0.3l0.3,3.1
		c-1,0.2-2,0.4-2.8,0.4c-1,0-1.8-0.1-2.2-0.4c-0.5-0.3-0.8-0.7-1.1-1.3c-0.2-0.6-0.3-1.5-0.3-2.9v-4.2h-1.5v-3.3h1.5v-2.2L42.9,59.1
		z"/>
	<path class="st5" d="M54.4,56.6h5.7l3,5.8l2.9-5.8h5.7l-5.3,9.1l5.7,9.7h-5.9l-3.3-6l-3.3,6h-5.8l5.8-9.8L54.4,56.6z"/>
	<path class="st5" d="M72.1,56.6h5.8l3.4,6.3l3.4-6.3h5.8l-6.6,10.9v7.9h-5.2v-7.9L72.1,56.6z"/>
</g>
</svg>
