<?xml version="1.0" encoding="UTF-8" standalone="no"?>
<!DOCTYPE svg PUBLIC "-//W3C//DTD SVG 1.1//EN" "http://www.w3.org/Graphics/SVG/1.1/DTD/svg11.dtd">
<svg width="100%" height="100%" viewBox="0 0 300 300" version="1.1" xmlns="http://www.w3.org/2000/svg" xmlns:xlink="http://www.w3.org/1999/xlink" xml:space="preserve" xmlns:serif="http://www.serif.com/" style="fill-rule:evenodd;clip-rule:evenodd;stroke-linejoin:round;stroke-miterlimit:2;">
    <g transform="matrix(1,0,0,1,-1823.5,-437.992)">
        <g id="Layer-1" serif:id="Layer 1">
        </g>
        <g transform="matrix(0.301848,0,0,0.582975,1580.69,-618.704)">
            <rect x="804.411" y="1812.59" width="993.877" height="514.602" style="fill:none;"/>
            <g transform="matrix(1.33306,0,0,0.69022,1296.61,2062.99)">
                <g transform="matrix(1,0,0,1,-350,-350)">
                    <g transform="matrix(1,0,0,1,-6,77)">
                        <path d="M274.2,193.27L110.07,29.14C106.426,25.496 106.426,19.585 110.07,15.941L123.269,2.742C126.913,-0.902 132.824,-0.902 136.468,2.742L300.608,166.872C304.252,170.517 304.252,176.427 300.608,180.071L287.405,193.27C283.761,196.915 277.854,196.915 274.206,193.27L274.2,193.27ZM638.2,557.27L474.07,393.14C470.426,389.496 470.426,383.585 474.07,379.941L487.269,366.742C490.914,363.097 496.824,363.097 500.468,366.742L664.608,530.872C668.253,534.516 668.253,540.427 664.608,544.071L651.405,557.27C647.761,560.914 641.854,560.914 638.206,557.27L638.2,557.27ZM387.33,326.67C368.193,326.67 351.748,315.15 344.549,298.67L41.999,298.67C36.843,298.67 32.667,294.49 32.667,289.334L32.667,270.67C32.667,265.514 36.843,261.334 41.999,261.334L344.549,261.334C351.748,244.854 368.194,233.334 387.33,233.334C413.103,233.334 433.998,254.229 433.998,280.002C433.998,305.775 413.103,326.67 387.33,326.67L387.33,326.67ZM405.998,140C405.998,145.156 401.818,149.332 396.666,149.332L377.998,149.332C372.842,149.332 368.666,145.156 368.666,140L368.666,9.33C368.666,4.178 372.842,-0.002 377.998,-0.002L396.666,-0.002C401.818,-0.002 405.998,4.178 405.998,9.33L405.998,140ZM405.998,550.67C405.998,555.822 401.818,560.002 396.666,560.002L377.998,560.002C372.842,560.002 368.666,555.822 368.666,550.67L368.666,420C368.666,414.844 372.842,410.668 377.998,410.668L396.666,410.668C401.818,410.668 405.998,414.844 405.998,420L405.998,550.67ZM527.328,298.67C522.176,298.67 517.996,294.49 517.996,289.334L517.996,270.67C517.996,265.514 522.176,261.334 527.328,261.334L657.998,261.334C663.154,261.334 667.33,265.514 667.33,270.67L667.33,289.334C667.33,294.49 663.154,298.67 657.998,298.67L527.328,298.67ZM500.461,193.27C496.817,196.914 490.906,196.914 487.262,193.27L474.063,180.071C470.419,176.426 470.419,170.516 474.063,166.872L638.193,2.742C641.841,-0.903 647.748,-0.903 651.392,2.742L664.595,15.941C668.239,19.585 668.239,25.496 664.595,29.14L500.461,193.27ZM136.461,557.27C132.817,560.915 126.906,560.915 123.262,557.27L110.063,544.071C106.419,540.427 106.419,534.516 110.063,530.872L274.193,366.742C277.841,363.098 283.748,363.098 287.392,366.742L300.595,379.941C304.24,383.586 304.24,389.496 300.595,393.14L136.461,557.27Z" style="fill:#f00;"/>
                    </g>
                </g>
            </g>
            <g transform="matrix(3.31292,0,0,1.71534,-530.68,1875.2)">
                <g transform="matrix(62.5,0,0,62.5,451.906,81.8694)">
                    <path d="M0.073,-0.716L0.294,-0.716L0.294,-0.176L0.64,-0.176L0.64,-0L0.073,-0L0.073,-0.716Z" style="fill:#0b0a08;fill-rule:nonzero;"/>
                </g>
                <g transform="matrix(62.5,0,0,62.5,493.594,81.8694)">
                    <path d="M0.514,-0.118L0.262,-0.118L0.227,-0L0.001,-0L0.27,-0.716L0.511,-0.716L0.78,-0L0.549,-0L0.514,-0.118ZM0.467,-0.273L0.388,-0.53L0.31,-0.273L0.467,-0.273Z" style="fill:#0b0a08;fill-rule:nonzero;"/>
                </g>
                <g transform="matrix(62.5,0,0,62.5,542.208,81.8694)">
                    <path d="M0.035,-0.237L0.245,-0.25C0.25,-0.216 0.259,-0.19 0.273,-0.172C0.296,-0.143 0.328,-0.128 0.371,-0.128C0.402,-0.128 0.427,-0.136 0.444,-0.151C0.461,-0.165 0.469,-0.183 0.469,-0.202C0.469,-0.221 0.461,-0.237 0.445,-0.252C0.429,-0.267 0.391,-0.28 0.332,-0.293C0.235,-0.315 0.165,-0.344 0.124,-0.38C0.082,-0.417 0.062,-0.463 0.062,-0.519C0.062,-0.555 0.072,-0.59 0.094,-0.623C0.115,-0.656 0.147,-0.681 0.19,-0.7C0.233,-0.719 0.291,-0.728 0.366,-0.728C0.457,-0.728 0.527,-0.711 0.575,-0.677C0.623,-0.643 0.652,-0.589 0.661,-0.515L0.452,-0.502C0.447,-0.535 0.435,-0.558 0.417,-0.573C0.399,-0.587 0.375,-0.595 0.344,-0.595C0.318,-0.595 0.299,-0.589 0.286,-0.578C0.273,-0.567 0.266,-0.554 0.266,-0.539C0.266,-0.527 0.271,-0.517 0.282,-0.508C0.293,-0.498 0.317,-0.49 0.356,-0.481C0.453,-0.461 0.522,-0.44 0.564,-0.418C0.606,-0.397 0.636,-0.37 0.656,-0.339C0.675,-0.307 0.684,-0.272 0.684,-0.233C0.684,-0.187 0.671,-0.145 0.646,-0.106C0.621,-0.067 0.585,-0.038 0.54,-0.018C0.494,0.002 0.437,0.012 0.367,0.012C0.245,0.012 0.161,-0.011 0.114,-0.058C0.067,-0.105 0.041,-0.165 0.035,-0.237Z" style="fill:#0b0a08;fill-rule:nonzero;"/>
                </g>
                <g transform="matrix(62.5,0,0,62.5,587.344,81.8694)">
                    <path d="M0.073,-0.716L0.666,-0.716L0.666,-0.563L0.294,-0.563L0.294,-0.449L0.639,-0.449L0.639,-0.303L0.294,-0.303L0.294,-0.162L0.676,-0.162L0.676,-0L0.073,-0L0.073,-0.716Z" style="fill:#0b0a08;fill-rule:nonzero;"/>
                </g>
                <g transform="matrix(62.5,0,0,62.5,632.479,81.8694)">
                    <path d="M0.076,-0L0.076,-0.716L0.445,-0.716C0.513,-0.716 0.565,-0.71 0.602,-0.698C0.638,-0.687 0.667,-0.665 0.689,-0.633C0.711,-0.601 0.722,-0.563 0.722,-0.517C0.722,-0.477 0.714,-0.443 0.697,-0.414C0.68,-0.385 0.657,-0.362 0.627,-0.344C0.608,-0.333 0.582,-0.323 0.549,-0.316C0.576,-0.307 0.595,-0.298 0.607,-0.29C0.615,-0.284 0.627,-0.271 0.642,-0.252C0.658,-0.233 0.668,-0.218 0.673,-0.208L0.78,-0L0.53,-0L0.412,-0.219C0.397,-0.247 0.384,-0.265 0.372,-0.274C0.356,-0.285 0.338,-0.291 0.318,-0.291L0.298,-0.291L0.298,-0L0.076,-0ZM0.298,-0.426L0.392,-0.426C0.402,-0.426 0.421,-0.429 0.45,-0.436C0.465,-0.438 0.477,-0.446 0.486,-0.458C0.495,-0.47 0.5,-0.484 0.5,-0.5C0.5,-0.523 0.493,-0.54 0.478,-0.553C0.463,-0.565 0.436,-0.571 0.396,-0.571L0.298,-0.571L0.298,-0.426Z" style="fill:#0b0a08;fill-rule:nonzero;"/>
                </g>
            </g>
            <g transform="matrix(3.31292,0,0,1.71534,-540.619,2060.46)">
                <g transform="matrix(62.5,0,0,62.5,517.885,81.8694)">
                    <path d="M0.024,-0.716L0.268,-0.716L0.395,-0.496L0.518,-0.716L0.759,-0.716L0.536,-0.369L0.78,-0L0.531,-0L0.39,-0.23L0.249,-0L0.001,-0L0.249,-0.373L0.024,-0.716Z" style="fill:#0b0a08;fill-rule:nonzero;"/>
                </g>
                <g transform="matrix(62.5,0,0,62.5,566.5,81.8694)">
                    <path d="M0.001,-0.716L0.247,-0.716L0.391,-0.474L0.536,-0.716L0.78,-0.716L0.501,-0.3L0.501,-0L0.28,-0L0.28,-0.3L0.001,-0.716Z" style="fill:#0b0a08;fill-rule:nonzero;"/>
                </g>
            </g>
        </g>
    </g>
</svg>
