<?xml version="1.0" encoding="utf-8"?>
<!-- Generator: Adobe Illustrator 26.0.3, SVG Export Plug-In . SVG Version: 6.00 Build 0)  -->
<svg version="1.1" id="New_VCP" xmlns="http://www.w3.org/2000/svg" xmlns:xlink="http://www.w3.org/1999/xlink" x="0px" y="0px"
	 viewBox="0 0 100 100" style="enable-background:new 0 0 100 100;" xml:space="preserve">
<style type="text/css">
	.st0{fill:#FFFFFF;}
</style>
<g>
	<path d="M53.9,15.2c0,3.2,0,6.4,0,9.6c0,0.9-0.3,1.7-0.6,2.6c-0.1,0.4-0.1,0.7,0,1c0.3,0.9,0.6,1.8,0.6,2.7c0.1,2.2,0.1,4.5,0,6.7
		c0,0.9-0.4,1.8-0.6,2.7c-0.1,0.3-0.1,0.6,0,0.9c0.2,0.9,0.6,1.8,0.6,2.7c0.1,2.2,0,4.5,0,6.7c0,1-0.2,1.9-0.6,2.8
		c-0.1,0.2,0,0.6,0,0.8s0.2,0.4,0.2,0.5c0.7,1.6,0.6,1.9-0.7,2.9c-0.8,0.6-1.6,1.2-2.4,1.9c-0.3,0.2-0.5,0.3-0.8,0
		c-1.1-0.9-2.2-1.7-3.3-2.6C46.1,57,46,56.7,46,56.5c0.2-0.7,0.4-1.5,0.6-2.2c0.1-0.2,0.1-0.6,0-0.8c-0.4-0.9-0.7-1.8-0.6-2.8
		c0-2.2,0-4.5,0-6.7c0-1,0.2-1.9,0.6-2.8c0.1-0.2,0.1-0.5,0-0.8c-0.2-0.9-0.6-1.8-0.7-2.7c-0.1-2.5-0.1-4.9,0-7.4
		c0-0.8,0.4-1.5,0.6-2.3c0.1-0.2,0.1-0.5,0-0.7c-0.4-0.9-0.7-1.8-0.6-2.8c0-6.5,0-13,0-19.5c0-0.6,0.2-0.8,0.8-0.8
		c2.1,0,4.2,0,6.3,0c0.6,0,0.8,0.1,0.8,0.7C53.9,8.6,54,11.9,53.9,15.2C54,15.2,54,15.2,53.9,15.2z M47.5,27.1c0.1,0,0.2,0,0.2,0
		c0.3-0.4,0.7-0.8,1-1.1c1.3-1.5,2.6-2.9,3.8-4.4c0.2-0.2,0.3-0.6,0.3-1c0-4.8,0-9.6,0.1-14.4c0-0.2,0-0.4,0-0.6c-2,0-3.9,0-5.8,0
		c0,0.2,0,0.4,0,0.5c0,6.3,0,12.6,0,18.9C47.1,25.7,47.4,26.4,47.5,27.1z M47.6,40.4c0.7-0.8,1.3-1.4,1.8-2c1-1.2,2.1-2.4,3.1-3.6
		c0.2-0.3,0.4-0.6,0.4-0.9c0-1.1,0.1-2.3,0-3.4c0-0.6-0.3-1.2-0.5-1.8c-1.5,1.6-2.8,3.1-4.1,4.5c-0.9,0.9-1.4,2-1.2,3.3
		c0.1,0.5,0,1.1,0,1.6C47.2,38.8,47.4,39.5,47.6,40.4z M47.5,53.3c0.1,0,0.2,0,0.2,0c1.3-1.5,2.7-2.9,4-4.4c0.9-0.9,1.4-1.9,1.2-3.3
		c-0.1-0.5,0-1,0-1.4c0-0.9-0.1-1.7-0.7-2.4c-1.4,1.6-2.9,3.2-4.3,4.8c-0.7,0.8-1.1,1.6-1,2.7c0.1,0.6,0,1.1,0,1.7
		C47.2,51.7,47.4,52.5,47.5,53.3z M49.5,59c0.1,0,0.2,0.1,0.3,0.1c0.8-0.6,1.5-1.2,2.3-1.8c1-0.8,1-0.9,0.5-2.1
		c-0.1-0.1-0.1-0.2-0.2-0.4c-0.8,1-1.7,1.9-2.5,2.9C49.6,58,49.6,58.5,49.5,59z"/>
	<path class="st0" d="M47.5,27.1C47.3,26.4,47,25.7,47,25c0-6.3,0-12.6,0-18.9c0-0.2,0-0.3,0-0.5c1.9,0,3.8,0,5.8,0
		c0,0.2,0,0.4,0,0.6c0,4.8,0,9.6-0.1,14.4c0,0.3-0.1,0.7-0.3,1c-1.2,1.5-2.5,2.9-3.8,4.4c-0.3,0.4-0.7,0.8-1,1.1
		C47.7,27.1,47.6,27.1,47.5,27.1z"/>
	<path class="st0" d="M47.6,40.4c-0.2-0.9-0.4-1.6-0.5-2.3c-0.1-0.5,0.1-1.1,0-1.6c-0.2-1.3,0.3-2.4,1.2-3.3
		c1.3-1.5,2.7-2.9,4.1-4.5c0.2,0.7,0.5,1.3,0.5,1.8c0.1,1.1,0.1,2.3,0,3.4c0,0.3-0.2,0.7-0.4,0.9c-1,1.2-2.1,2.4-3.1,3.6
		C48.8,39,48.3,39.6,47.6,40.4z"/>
	<path class="st0" d="M47.5,53.3c-0.2-0.8-0.4-1.6-0.5-2.4c-0.1-0.6,0-1.1,0-1.7c-0.1-1.1,0.3-1.9,1-2.7c1.4-1.6,2.9-3.2,4.3-4.8
		c0.6,0.7,0.6,1.6,0.7,2.4c0,0.5-0.1,1,0,1.4c0.2,1.3-0.4,2.3-1.2,3.3c-1.3,1.5-2.7,2.9-4,4.4C47.7,53.3,47.6,53.3,47.5,53.3z"/>
	<path class="st0" d="M49.5,59c0.1-0.4,0.1-1,0.4-1.3c0.8-1,1.6-1.9,2.5-2.9c0.1,0.2,0.2,0.3,0.2,0.4c0.6,1.2,0.6,1.3-0.5,2.1
		c-0.8,0.6-1.5,1.2-2.3,1.8C49.7,59,49.6,59,49.5,59z"/>
</g>
<rect x="58.3" y="59.6" width="20" height="1"/>
<rect x="21.7" y="59.6" width="20" height="1"/>
<path d="M86.3,82.3c0,2.2-1.8,4-4,4c-2,0-3.7-1.5-4-3.5H53.7c-0.2,2-1.9,3.5-4,3.5s-3.7-1.5-4-3.5h-24c-0.2,2-1.9,3.5-4,3.5
	c-2.2,0-4-1.8-4-4c0-2,1.5-3.7,3.5-4V64c-2-0.2-3.5-1.9-3.5-4c0-2.2,1.8-4,4-4s4,1.8,4,4c0,2-1.5,3.7-3.5,4v14.3
	c1.8,0.2,3.2,1.7,3.5,3.5h24.1c0.2-2,1.9-3.5,4-3.5s3.7,1.5,4,3.5h24.7c0.2-1.8,1.7-3.2,3.5-3.5V64c-2-0.2-3.5-1.9-3.5-4
	c0-2.2,1.8-4,4-4s4,1.8,4,4c0,2-1.5,3.7-3.5,4v14.3C84.8,78.6,86.3,80.2,86.3,82.3z"/>
</svg>
