<?xml version="1.0" encoding="UTF-8" standalone="no"?>
<!DOCTYPE svg PUBLIC "-//W3C//DTD SVG 1.1//EN" "http://www.w3.org/Graphics/SVG/1.1/DTD/svg11.dtd">
<svg width="100%" height="100%" viewBox="0 0 300 300" version="1.1" xmlns="http://www.w3.org/2000/svg" xmlns:xlink="http://www.w3.org/1999/xlink" xml:space="preserve" xmlns:serif="http://www.serif.com/" style="fill-rule:evenodd;clip-rule:evenodd;stroke-miterlimit:1.5;">
    <g transform="matrix(1,0,0,1,-1825.5,-52.9923)">
        <g id="Layer-1" serif:id="Layer 1">
        </g>
        <g transform="matrix(0.301848,0,0,0.582975,1582.69,-1003.7)">
            <rect x="804.411" y="1812.59" width="993.877" height="514.602" style="fill:none;"/>
            <g transform="matrix(3.31292,0,0,1.71534,3338.8,-4448.4)">
                <rect x="-746" y="3694" width="75" height="171" style="fill:#ff2600;stroke:#000;stroke-width:6.25px;"/>
                <g transform="matrix(1,0,0,1,9.5,0)">
                    <rect x="-724" y="3869" width="12" height="21" style="fill:#ff2600;stroke:#000;stroke-width:6.25px;"/>
                </g>
                <g transform="matrix(1,0,0,1,5.5,-19)">
                    <rect x="-735" y="3906" width="42" height="19" style="fill:#ff2600;stroke:#000;stroke-width:6.25px;"/>
                </g>
                <g transform="matrix(1,0,0,1,11.5,-38)">
                    <rect x="-725" y="3944" width="10" height="24" style="fill:#ff2600;stroke:#000;stroke-width:6.25px;"/>
                </g>
                <g transform="matrix(1,0,0,1,82,14)">
                    <rect x="-801" y="3656" width="21" height="24" style="fill:#ff2600;stroke:#000;stroke-width:6.25px;"/>
                </g>
                <g transform="matrix(0.78,0,0,0.714286,-41.6,1068.14)">
                    <rect x="-880" y="3714" width="50" height="56" style="fill:#ff2600;stroke:#000;stroke-width:8.36px;"/>
                </g>
            </g>
            <g transform="matrix(3.31292,0,0,1.71534,-321.983,1929.9)">
                <path d="M471.752,51.947L483.151,51.232C483.398,53.084 483.901,54.494 484.659,55.464C485.893,57.033 487.656,57.818 489.948,57.818C491.659,57.818 492.977,57.417 493.903,56.615C494.828,55.812 495.291,54.882 495.291,53.824C495.291,52.819 494.85,51.92 493.969,51.127C493.087,50.333 491.042,49.584 487.833,48.879C482.578,47.697 478.831,46.128 476.592,44.171C474.335,42.213 473.207,39.718 473.207,36.686C473.207,34.693 473.784,32.811 474.939,31.039C476.094,29.267 477.831,27.874 480.149,26.86C482.468,25.846 485.646,25.339 489.684,25.339C494.639,25.339 498.416,26.261 501.017,28.103C503.618,29.946 505.165,32.877 505.659,36.897L494.365,37.559C494.066,35.813 493.435,34.543 492.474,33.75C491.513,32.956 490.187,32.56 488.494,32.56C487.101,32.56 486.052,32.855 485.346,33.446C484.641,34.036 484.288,34.755 484.288,35.601C484.288,36.218 484.579,36.774 485.161,37.268C485.726,37.779 487.066,38.255 489.181,38.696C494.418,39.824 498.17,40.966 500.435,42.121C502.701,43.276 504.35,44.708 505.381,46.419C506.413,48.129 506.928,50.042 506.928,52.158C506.928,54.644 506.241,56.937 504.865,59.035C503.49,61.133 501.568,62.724 499.1,63.809C496.631,64.893 493.519,65.435 489.763,65.435C483.169,65.435 478.602,64.166 476.063,61.627C473.524,59.088 472.087,55.861 471.752,51.947Z" style="fill-rule:nonzero;stroke:#000;stroke-width:1px;stroke-linejoin:round;stroke-miterlimit:2;"/>
                <path d="M512.906,26.001L532.822,26.001C537.159,26.001 540.408,27.032 542.568,29.095C544.728,31.158 545.808,34.094 545.808,37.902C545.808,41.817 544.631,44.876 542.277,47.08C539.923,49.284 536.33,50.386 531.499,50.386L524.94,50.386L524.94,64.774L512.906,64.774L512.906,26.001ZM524.94,42.531L527.876,42.531C530.186,42.531 531.808,42.13 532.742,41.327C533.677,40.525 534.144,39.498 534.144,38.246C534.144,37.03 533.738,35.998 532.927,35.152C532.116,34.305 530.591,33.882 528.352,33.882L524.94,33.882L524.94,42.531Z" style="fill-rule:nonzero;stroke:#000;stroke-width:1px;stroke-linejoin:round;stroke-miterlimit:2;"/>
                <rect x="552.552" y="26.001" width="12.008" height="38.774" style="fill-rule:nonzero;stroke:#000;stroke-width:1px;stroke-linejoin:round;stroke-miterlimit:2;"/>
                <path d="M573.235,26.001L584.423,26.001L599.022,47.45L599.022,26.001L610.316,26.001L610.316,64.774L599.022,64.774L584.502,43.483L584.502,64.774L573.235,64.774L573.235,26.001Z" style="fill-rule:nonzero;stroke:#000;stroke-width:1px;stroke-linejoin:round;stroke-miterlimit:2;"/>
                <path d="M447.287,80.167L458.66,80.167L462.759,101.829L468.737,80.167L480.083,80.167L486.087,101.829L490.187,80.167L501.506,80.167L492.964,118.941L481.22,118.941L474.423,94.529L467.652,118.941L455.909,118.941L447.287,80.167Z" style="fill-rule:nonzero;stroke:#000;stroke-width:1px;stroke-linejoin:round;stroke-miterlimit:2;"/>
                <path d="M529.304,112.54L515.656,112.54L513.779,118.941L501.533,118.941L516.106,80.167L529.172,80.167L543.745,118.941L531.208,118.941L529.304,112.54ZM526.791,104.156L522.507,90.218L518.248,104.156L526.791,104.156Z" style="fill-rule:nonzero;stroke:#000;stroke-width:1px;stroke-linejoin:round;stroke-miterlimit:2;"/>
                <path d="M547.739,118.941L547.739,80.167L567.707,80.167C571.41,80.167 574.24,80.485 576.197,81.119C578.154,81.754 579.733,82.931 580.932,84.65C582.131,86.369 582.73,88.463 582.73,90.932C582.73,93.083 582.272,94.939 581.355,96.499C580.438,98.06 579.177,99.325 577.573,100.295C576.55,100.912 575.148,101.423 573.367,101.829C574.795,102.305 575.836,102.781 576.488,103.257C576.929,103.574 577.568,104.253 578.406,105.293C579.243,106.334 579.803,107.136 580.085,107.7L585.877,118.941L572.336,118.941L565.935,107.092C565.124,105.558 564.401,104.562 563.766,104.103C562.902,103.504 561.924,103.204 560.831,103.204L559.773,103.204L559.773,118.941L547.739,118.941ZM559.773,95.878L564.824,95.878C565.371,95.878 566.429,95.701 567.998,95.349C568.792,95.19 569.44,94.784 569.942,94.132C570.445,93.48 570.696,92.73 570.696,91.884C570.696,90.632 570.299,89.671 569.506,89.001C568.712,88.331 567.222,87.996 565.036,87.996L559.773,87.996L559.773,95.878Z" style="fill-rule:nonzero;stroke:#000;stroke-width:1px;stroke-linejoin:round;stroke-miterlimit:2;"/>
                <path d="M589.58,80.167L605.344,80.167L611.427,103.759L617.483,80.167L633.194,80.167L633.194,118.941L623.408,118.941L623.408,89.371L615.817,118.941L606.957,118.941L599.393,89.371L599.393,118.941L589.58,118.941L589.58,80.167Z" style="fill-rule:nonzero;stroke:#000;stroke-width:1px;stroke-linejoin:round;stroke-miterlimit:2;"/>
            </g>
        </g>
    </g>
</svg>
