<?xml version="1.0" encoding="utf-8"?>
<!-- Generator: Adobe Illustrator 26.0.1, SVG Export Plug-In . SVG Version: 6.00 Build 0)  -->
<svg version="1.1" id="New_VCP" xmlns="http://www.w3.org/2000/svg" xmlns:xlink="http://www.w3.org/1999/xlink" x="0px" y="0px"
	 viewBox="0 0 100 100" style="enable-background:new 0 0 100 100;" xml:space="preserve">
<style type="text/css">
	.st0{fill:#FFFFFF;}
</style>
<path class="st0" d="M100,94c0,3.31-2.69,6-6,6H6c-3.31,0-6-2.69-6-6V6c0-3.31,2.69-6,6-6h88c3.31,0,6,2.69,6,6V94z"/>
<g>
	<path d="M55.38,51.8l-5.54,5.54c-0.19,0.2-0.41,0.36-0.64,0.5L27.83,79.19c-1.17,1.17-3.08,1.17-4.24,0l-5.54-5.54
		c-1.17-1.16-1.17-3.07,0-4.24l19.82-19.81L18.85,30.58c-1.17-1.17-1.17-3.08,0-4.24l5.54-5.54c1.17-1.17,3.07-1.17,4.24,0
		l26.75,26.75C56.55,48.73,56.55,50.63,55.38,51.8z"/>
	<path d="M87.95,51.8l-5.54,5.54c-0.19,0.2-0.41,0.36-0.64,0.5L60.4,79.19c-1.17,1.17-3.08,1.17-4.24,0l-5.54-5.54
		c-1.17-1.16-1.17-3.07,0-4.24l19.82-19.81L51.42,30.58c-1.17-1.17-1.17-3.08,0-4.24l5.54-5.54c1.17-1.17,3.07-1.17,4.24,0
		l26.75,26.75C89.12,48.73,89.12,50.63,87.95,51.8z"/>
</g>
</svg>
