<?xml version="1.0" encoding="utf-8"?>
<!-- Generator: Adobe Illustrator 24.0.2, SVG Export Plug-In . SVG Version: 6.00 Build 0)  -->
<svg version="1.1" id="New_VCP" xmlns="http://www.w3.org/2000/svg" xmlns:xlink="http://www.w3.org/1999/xlink" x="0px" y="0px"
	 width="100px" height="100px" viewBox="0 0 100 100" style="enable-background:new 0 0 100 100;" xml:space="preserve">
<style type="text/css">
	.st0{fill:#FFC70E;}
	.st1{display:none;fill:#82151E;}
	.st2{fill:#010101;}
</style>
<path class="st0" d="M100,94c0,3.3-2.7,6-6,6H6c-3.3,0-6-2.7-6-6V6c0-3.3,2.7-6,6-6h88c3.3,0,6,2.7,6,6V94z"/>
<path class="st1" d="M34.3,2.2h-0.7H6.8c-2.5,0-4.6,2-4.6,4.4v25.9v1.8L34.3,2.2z"/>
<g>
	<path class="st2" d="M23.5,26.4V23h7.8v8c-0.8,0.8-1.9,1.5-3.3,2.2c-1.4,0.6-2.9,0.9-4.4,0.9c-1.9,0-3.5-0.4-4.9-1.3
		c-1.4-0.9-2.5-2.1-3.2-3.8c-0.7-1.6-1.1-3.4-1.1-5.3c0-2.1,0.4-3.9,1.2-5.6c0.8-1.6,1.9-2.9,3.5-3.7c1.2-0.7,2.6-1,4.3-1
		c2.2,0,4,0.5,5.2,1.6c1.3,1,2.1,2.5,2.4,4.3L27.5,20c-0.3-1-0.7-1.8-1.4-2.3c-0.7-0.6-1.6-0.9-2.6-0.9c-1.6,0-2.9,0.6-3.8,1.7
		c-0.9,1.1-1.4,2.8-1.4,5c0,2.4,0.5,4.2,1.4,5.4c1,1.2,2.2,1.8,3.7,1.8c0.8,0,1.5-0.2,2.3-0.5c0.8-0.3,1.4-0.7,2-1.2v-2.5H23.5z"/>
	<path class="st2" d="M33.9,23.9c0-2,0.3-3.8,0.8-5.1c0.4-1,1-1.9,1.7-2.7c0.7-0.8,1.5-1.4,2.3-1.8c1.1-0.5,2.4-0.8,3.9-0.8
		c2.7,0,4.8,0.9,6.4,2.7s2.4,4.4,2.4,7.6c0,3.2-0.8,5.8-2.4,7.6s-3.7,2.7-6.3,2.7c-2.7,0-4.8-0.9-6.4-2.7S33.9,27.1,33.9,23.9z
		 M37.7,23.8c0,2.3,0.5,4,1.4,5.2s2.1,1.8,3.6,1.8c1.5,0,2.6-0.6,3.6-1.7c0.9-1.2,1.4-2.9,1.4-5.2c0-2.3-0.5-4-1.4-5.1
		c-0.9-1.1-2.1-1.7-3.6-1.7c-1.5,0-2.7,0.6-3.6,1.7C38.2,19.7,37.7,21.4,37.7,23.8z"/>
	<path class="st2" d="M58.3,33.8V17.1H53v-3.4h14.3v3.4H62v16.7H58.3z"/>
	<path class="st2" d="M68.5,23.9c0-2,0.3-3.8,0.8-5.1c0.4-1,1-1.9,1.7-2.7c0.7-0.8,1.5-1.4,2.3-1.8c1.1-0.5,2.4-0.8,3.9-0.8
		c2.7,0,4.8,0.9,6.4,2.7s2.4,4.4,2.4,7.6c0,3.2-0.8,5.8-2.4,7.6c-1.6,1.8-3.7,2.7-6.3,2.7c-2.7,0-4.8-0.9-6.4-2.7
		C69.3,29.6,68.5,27.1,68.5,23.9z M72.2,23.8c0,2.3,0.5,4,1.4,5.2s2.1,1.8,3.6,1.8s2.6-0.6,3.6-1.7s1.4-2.9,1.4-5.2
		c0-2.3-0.5-4-1.4-5.1s-2.1-1.7-3.6-1.7s-2.7,0.6-3.6,1.7C72.7,19.7,72.2,21.4,72.2,23.8z"/>
	<path class="st2" d="M10.9,54.8V38.3h4.5l2.7,11.2l2.7-11.2h4.5v16.5h-2.8v-13l-2.9,13h-2.9l-2.9-13v13H10.9z"/>
	<path class="st2" d="M30.1,46.5L27.5,46c0.3-1.2,0.8-2,1.5-2.6c0.7-0.6,1.8-0.8,3.2-0.8c1.3,0,2.2,0.2,2.8,0.5
		c0.6,0.3,1.1,0.8,1.3,1.3s0.4,1.5,0.4,2.8l0,3.7c0,1,0,1.8,0.1,2.3s0.3,1,0.5,1.6h-2.8c-0.1-0.2-0.2-0.5-0.3-0.9
		c0-0.2-0.1-0.3-0.1-0.4c-0.5,0.5-1,0.9-1.6,1.2c-0.6,0.3-1.1,0.4-1.8,0.4c-1.1,0-2-0.3-2.6-1c-0.6-0.7-1-1.5-1-2.5
		c0-0.7,0.1-1.3,0.4-1.8c0.3-0.5,0.7-0.9,1.2-1.2c0.5-0.3,1.3-0.5,2.3-0.7c1.3-0.3,2.2-0.5,2.8-0.8v-0.3c0-0.6-0.1-1-0.4-1.3
		c-0.3-0.3-0.8-0.4-1.5-0.4c-0.5,0-0.9,0.1-1.2,0.3S30.2,45.9,30.1,46.5z M33.9,49.1c-0.4,0.1-0.9,0.3-1.7,0.5
		c-0.8,0.2-1.3,0.4-1.5,0.5c-0.4,0.3-0.6,0.7-0.6,1.1c0,0.4,0.1,0.8,0.4,1.1c0.3,0.3,0.7,0.5,1.1,0.5c0.5,0,1-0.2,1.5-0.6
		c0.3-0.3,0.6-0.6,0.7-1c0.1-0.3,0.1-0.8,0.1-1.5V49.1z"/>
	<path class="st2" d="M48.6,46.4l-2.8,0.6c-0.1-0.6-0.3-1.1-0.6-1.4c-0.3-0.3-0.8-0.5-1.3-0.5c-0.7,0-1.3,0.3-1.7,0.8
		c-0.4,0.5-0.6,1.5-0.6,2.7c0,1.4,0.2,2.4,0.6,3s1,0.9,1.7,0.9c0.5,0,1-0.2,1.3-0.5s0.6-0.9,0.7-1.8l2.8,0.5
		c-0.3,1.4-0.8,2.5-1.7,3.2c-0.8,0.7-1.9,1.1-3.3,1.1c-1.6,0-2.8-0.6-3.8-1.7c-0.9-1.1-1.4-2.6-1.4-4.6c0-2,0.5-3.5,1.4-4.6
		s2.2-1.6,3.8-1.6c1.3,0,2.3,0.3,3.1,0.9S48.2,45.1,48.6,46.4z"/>
	<path class="st2" d="M53.3,38.3v6.1c0.9-1.2,2-1.8,3.3-1.8c0.7,0,1.2,0.1,1.8,0.4s0.9,0.6,1.2,1s0.4,0.9,0.5,1.4s0.1,1.3,0.1,2.4v7
		h-2.8v-6.3c0-1.3-0.1-2-0.2-2.4c-0.1-0.3-0.3-0.6-0.6-0.8S56,45,55.6,45c-0.5,0-0.9,0.1-1.3,0.4c-0.4,0.3-0.6,0.6-0.8,1.2
		s-0.3,1.3-0.3,2.3v6h-2.8V38.3H53.3z"/>
	<path class="st2" d="M62.9,41.2v-2.9h2.8v2.9H62.9z M62.9,54.8V42.9h2.8v11.9H62.9z"/>
	<path class="st2" d="M78.1,54.8h-2.8v-6.1c0-1.3-0.1-2.1-0.2-2.5s-0.3-0.7-0.6-0.9c-0.3-0.2-0.6-0.3-1-0.3c-0.5,0-0.9,0.1-1.3,0.4
		c-0.4,0.3-0.7,0.7-0.8,1.2s-0.2,1.4-0.2,2.7v5.4h-2.8V42.9H71v1.8c0.9-1.3,2.1-2,3.5-2c0.6,0,1.2,0.1,1.7,0.4
		c0.5,0.3,0.9,0.6,1.2,1c0.3,0.4,0.5,0.8,0.6,1.3c0.1,0.5,0.2,1.2,0.2,2.1V54.8z"/>
	<path class="st2" d="M87,51l2.8,0.5c-0.4,1.2-0.9,2-1.7,2.6s-1.8,0.9-2.9,0.9c-1.9,0-3.2-0.7-4.1-2c-0.7-1.1-1.1-2.5-1.1-4.1
		c0-2,0.5-3.5,1.4-4.6s2.1-1.7,3.5-1.7c1.6,0,2.9,0.6,3.8,1.8c0.9,1.2,1.4,3,1.3,5.4h-7.1c0,0.9,0.2,1.7,0.7,2.2
		c0.4,0.5,1,0.8,1.6,0.8c0.4,0,0.8-0.1,1.1-0.4S86.8,51.6,87,51z M87.1,47.8c0-0.9-0.2-1.6-0.6-2.1S85.6,45,85,45
		c-0.6,0-1.1,0.3-1.5,0.8s-0.6,1.2-0.6,2H87.1z"/>
	<path class="st2" d="M22.7,58.7h6.1l3.2,6.8l3.1-6.8h6.1l-5.6,10.7l6.1,11.4h-6.3L32,73.7l-3.6,7.1h-6.2l6.2-11.5L22.7,58.7z"/>
	<path class="st2" d="M41.7,58.7h6.2l3.6,7.4l3.6-7.4h6.2l-7,12.8v9.2h-5.6v-9.2L41.7,58.7z"/>
	<path class="st2" d="M62.4,69.7c0-4.2,0.6-7.1,1.9-8.8c1.2-1.7,3.1-2.5,5.6-2.5c1.2,0,2.2,0.2,3,0.5c0.8,0.4,1.4,0.8,1.9,1.4
		c0.5,0.6,0.9,1.2,1.2,1.8s0.5,1.4,0.7,2.3c0.3,1.6,0.5,3.4,0.5,5.1c0,4-0.6,6.9-1.7,8.8s-3,2.8-5.7,2.8c-1.5,0-2.7-0.3-3.7-0.9
		c-0.9-0.6-1.7-1.5-2.3-2.6c-0.4-0.8-0.8-1.9-1-3.3C62.5,72.9,62.4,71.4,62.4,69.7z M67.3,69.7c0,2.8,0.2,4.7,0.6,5.8
		c0.4,1,1,1.5,1.8,1.5c0.5,0,0.9-0.2,1.3-0.7c0.4-0.4,0.6-1.1,0.8-2.1c0.2-0.9,0.3-2.4,0.3-4.4c0-2.9-0.2-4.9-0.6-5.9
		c-0.4-1-1-1.5-1.8-1.5c-0.8,0-1.4,0.5-1.8,1.5C67.5,65,67.3,66.9,67.3,69.7z"/>
</g>
</svg>
