<?xml version="1.0" encoding="utf-8"?>
<!-- Generator: Adobe Illustrator 24.1.1, SVG Export Plug-In . SVG Version: 6.00 Build 0)  -->
<svg version="1.1" id="New_VCP" xmlns="http://www.w3.org/2000/svg" xmlns:xlink="http://www.w3.org/1999/xlink" x="0px" y="0px"
	 width="100px" height="100px" viewBox="0 0 100 100" style="enable-background:new 0 0 100 100;" xml:space="preserve">
<style type="text/css">
	.st0{fill:#252D6B;}
	.st1{display:none;fill:#82151E;}
	.st2{fill:#FFFFFF;}
</style>
<path class="st0" d="M100,94c0,3.3-2.7,6-6,6H6c-3.3,0-6-2.7-6-6V6c0-3.3,2.7-6,6-6h88c3.3,0,6,2.7,6,6V94z"/>
<path class="st1" d="M35.1,3h-0.7H7.6C5.1,3,3,5,3,7.4v25.9v1.8L35.1,3z"/>
<g>
	<path class="st2" d="M34,40.6h-6.1l-0.8,4h-5.4l6.5-24.3h5.8l6.5,24.3h-5.6L34,40.6z M32.9,35.3L31,26.6l-1.9,8.7H32.9z"/>
	<path class="st2" d="M52.5,20.3h5.3v14.5c0,1.4-0.2,2.8-0.5,4.1c-0.3,1.3-0.8,2.4-1.5,3.4c-0.7,1-1.4,1.6-2.1,2
		c-1,0.5-2.3,0.8-3.7,0.8c-0.8,0-1.8-0.1-2.7-0.2s-1.8-0.5-2.5-1s-1.3-1.2-1.8-2.1c-0.6-0.9-0.9-1.8-1.1-2.8
		c-0.3-1.5-0.5-2.9-0.5-4.1V20.3h5.3v14.8c0,1.3,0.3,2.4,0.8,3.1s1.2,1.1,2.2,1.1c0.9,0,1.6-0.4,2.2-1.1c0.5-0.7,0.8-1.8,0.8-3.1
		V20.3z"/>
	<path class="st2" d="M60.2,20.3h5.9l3.1,7.5l3-7.5h5.8L72.5,32l5.9,12.6h-6L69,36.8l-3.4,7.8h-6l6-12.7L60.2,20.3z"/>
	<path class="st2" d="M51.2,73h-8.7v-5.6l8.7-14.6h4.2v15h2.2V73h-2.2v4.5h-4.2V73z M51.2,67.8v-7.7l-4.6,7.7H51.2z"/>
</g>
</svg>
