<?xml version="1.0" encoding="UTF-8" standalone="no"?>
<!DOCTYPE svg PUBLIC "-//W3C//DTD SVG 1.1//EN" "http://www.w3.org/Graphics/SVG/1.1/DTD/svg11.dtd">
<svg width="100%" height="100%" viewBox="0 0 300 300" version="1.1" xmlns="http://www.w3.org/2000/svg" xmlns:xlink="http://www.w3.org/1999/xlink" xml:space="preserve" xmlns:serif="http://www.serif.com/" style="fill-rule:evenodd;clip-rule:evenodd;stroke-linejoin:round;stroke-miterlimit:2;">
    <g transform="matrix(1,0,0,1,-1502.99,-2289.99)">
        <g transform="matrix(0.301848,0,0,0.582975,1260.18,1233.3)">
            <rect x="804.411" y="1812.59" width="993.877" height="514.602" style="fill:none;"/>
            <g transform="matrix(1.04583,-0.541501,1.04583,0.541501,393.998,2095)">
                <path d="M127.56,516.22C138.076,526.743 151.869,532.001 165.654,532.001C179.443,532.001 193.228,526.743 203.752,516.22L426.952,293.02C439.858,296.95 453.245,298.922 466.628,298.922C501.292,298.922 535.944,285.719 562.394,259.27C602.945,218.719 612.308,158.9 590.714,109.32L535.835,164.199C529.429,170.606 521.034,173.809 512.64,173.809C504.246,173.809 495.851,170.606 489.445,164.199L465.8,140.558C452.988,127.746 452.988,106.98 465.8,94.167L520.679,39.288C503.417,31.769 484.898,27.999 466.394,27.999C431.765,27.999 397.16,41.175 370.734,67.608C334.078,104.264 322.855,156.686 336.984,203.048L113.784,426.248C92.745,447.287 92.745,481.404 113.784,502.443L127.56,516.22Z" style="fill-rule:nonzero;"/>
            </g>
            <g transform="matrix(1.42863,-0.198203,0.3828,0.739705,631.037,1943.36)">
                <path d="M127.56,516.22C138.076,526.743 151.869,532.001 165.654,532.001C179.443,532.001 193.228,526.743 203.752,516.22L426.952,293.02C439.858,296.95 453.245,298.922 466.628,298.922C501.292,298.922 535.944,285.719 562.394,259.27C602.945,218.719 612.308,158.9 590.714,109.32L535.835,164.199C529.429,170.606 521.034,173.809 512.64,173.809C504.246,173.809 495.851,170.606 489.445,164.199L465.8,140.558C452.988,127.746 452.988,106.98 465.8,94.167L520.679,39.288C503.417,31.769 484.898,27.999 466.394,27.999C431.765,27.999 397.16,41.175 370.734,67.608C334.078,104.264 322.855,156.686 336.984,203.048L113.784,426.248C92.745,447.287 92.745,481.404 113.784,502.443L127.56,516.22Z" style="fill:#b30000;fill-rule:nonzero;stroke:#000;stroke-width:18.67px;"/>
            </g>
            <g transform="matrix(3.31292,0,0,1.71534,-347.163,2062.1)">
                <g transform="matrix(62.5,0,0,62.5,484.997,119.814)">
                    <path d="M0.071,-0.716L0.362,-0.716L0.474,-0.28L0.586,-0.716L0.876,-0.716L0.876,-0L0.695,-0L0.695,-0.546L0.555,-0L0.392,-0L0.252,-0.546L0.252,-0L0.071,-0L0.071,-0.716Z" style="fill:#0b0a08;fill-rule:nonzero;"/>
                </g>
                <g transform="matrix(62.5,0,0,62.5,543.988,119.814)">
                    <path d="M0.023,-0.716L0.695,-0.716L0.695,-0.539L0.47,-0.539L0.47,-0L0.249,-0L0.249,-0.539L0.023,-0.539L0.023,-0.716Z" style="fill:#0b0a08;fill-rule:nonzero;"/>
                </g>
                <g transform="matrix(62.5,0,0,62.5,586.987,119.814)">
                    <path d="M0.55,-0.292L0.744,-0.234C0.731,-0.18 0.71,-0.134 0.682,-0.098C0.654,-0.061 0.619,-0.034 0.578,-0.015C0.536,0.003 0.484,0.013 0.419,0.013C0.342,0.013 0.278,0.001 0.229,-0.021C0.179,-0.044 0.137,-0.084 0.101,-0.141C0.065,-0.198 0.047,-0.271 0.047,-0.359C0.047,-0.478 0.079,-0.569 0.142,-0.633C0.205,-0.696 0.294,-0.728 0.409,-0.728C0.499,-0.728 0.57,-0.71 0.622,-0.673C0.673,-0.637 0.712,-0.581 0.737,-0.505L0.542,-0.462C0.535,-0.484 0.528,-0.5 0.52,-0.51C0.508,-0.527 0.493,-0.54 0.475,-0.549C0.457,-0.558 0.437,-0.563 0.415,-0.563C0.364,-0.563 0.326,-0.542 0.299,-0.502C0.279,-0.472 0.269,-0.425 0.269,-0.361C0.269,-0.281 0.281,-0.227 0.305,-0.198C0.329,-0.168 0.363,-0.153 0.407,-0.153C0.449,-0.153 0.481,-0.165 0.503,-0.189C0.524,-0.213 0.54,-0.247 0.55,-0.292Z" style="fill:#0b0a08;fill-rule:nonzero;"/>
                </g>
            </g>
        </g>
        <g id="Layer-1" serif:id="Layer 1">
        </g>
    </g>
</svg>
