<?xml version="1.0" encoding="utf-8"?>
<!-- Generator: Adobe Illustrator 26.0.2, SVG Export Plug-In . SVG Version: 6.00 Build 0)  -->
<svg version="1.1" id="New_VCP" xmlns="http://www.w3.org/2000/svg" xmlns:xlink="http://www.w3.org/1999/xlink" x="0px" y="0px"
	 viewBox="0 0 100 100" style="enable-background:new 0 0 100 100;" xml:space="preserve">
<style type="text/css">
	.st0{fill:#FFFFFF;}
	.st1{fill:#010101;}
	.st2{fill:#231F20;}
</style>
<g>
	<path class="st0" d="M99.5,93.6c0,3.3-2.7,5.9-5.9,5.9H6.4c-3.3,0-5.9-2.7-5.9-5.9V6.4c0-3.3,2.7-5.9,5.9-5.9h87.1
		c3.3,0,5.9,2.7,5.9,5.9V93.6z"/>
	<path class="st1" d="M93.6,100H6.4C2.9,100,0,97.1,0,93.6V6.4C0,2.9,2.9,0,6.4,0h87.1c3.5,0,6.4,2.9,6.4,6.4v87.1
		C100,97.1,97.1,100,93.6,100z M6.4,1C3.4,1,1,3.4,1,6.4v87.1c0,3,2.4,5.4,5.4,5.4h87.1c3,0,5.4-2.4,5.4-5.4V6.4
		c0-3-2.4-5.4-5.4-5.4H6.4z"/>
</g>
<g>
	<g>
		<path class="st2" d="M9.8,39.3l3.9-0.3c0.1,0.8,0.3,1.5,0.5,1.9c0.4,0.7,1,1.1,1.8,1.1c0.6,0,1-0.2,1.4-0.6
			c0.3-0.4,0.5-0.8,0.5-1.3c0-0.5-0.2-0.9-0.5-1.2s-1-0.7-2.1-1c-1.8-0.5-3.1-1.3-3.9-2.2c-0.8-0.9-1.2-2-1.2-3.4
			c0-0.9,0.2-1.8,0.6-2.6c0.4-0.8,1-1.5,1.8-1.9c0.8-0.5,1.9-0.7,3.3-0.7c1.7,0,3,0.4,3.9,1.3c0.9,0.8,1.4,2.2,1.6,4l-3.9,0.3
			c-0.1-0.8-0.3-1.4-0.7-1.7c-0.3-0.4-0.8-0.5-1.4-0.5c-0.5,0-0.8,0.1-1.1,0.4c-0.2,0.3-0.4,0.6-0.4,1c0,0.3,0.1,0.5,0.3,0.8
			c0.2,0.2,0.7,0.5,1.4,0.7c1.8,0.5,3.1,1,3.9,1.6c0.8,0.5,1.4,1.2,1.7,2c0.4,0.8,0.5,1.7,0.5,2.6c0,1.1-0.2,2.2-0.7,3.2
			c-0.5,1-1.1,1.7-2,2.2c-0.9,0.5-1.9,0.7-3.2,0.7c-2.3,0-3.8-0.6-4.7-1.7C10.4,42.6,9.9,41.1,9.8,39.3z"/>
		<path class="st2" d="M22.6,27.4h3.9l1.4,10l2.1-10H34l2.1,10l1.4-10h3.9l-2.9,17.8h-4.1L32,34l-2.3,11.2h-4.1L22.6,27.4z"/>
		<path class="st2" d="M42.9,27.4H47v17.8h-4.1V27.4z"/>
		<path class="st2" d="M49,27.4h12.6v4.4h-4.2v13.4h-4.1V31.8H49V27.4z"/>
		<path class="st2" d="M71.7,38l3.6,1.5c-0.2,1.4-0.6,2.5-1.1,3.4c-0.5,0.9-1.2,1.6-1.9,2.1c-0.8,0.5-1.8,0.7-3,0.7
			c-1.5,0-2.6-0.3-3.6-0.8c-0.9-0.6-1.7-1.6-2.4-3c-0.7-1.4-1-3.2-1-5.4c0-2.9,0.6-5.2,1.8-6.8c1.2-1.6,2.8-2.4,5-2.4
			c1.7,0,3,0.5,4,1.4c1,0.9,1.7,2.3,2.1,4.2l-3.6,1.1c-0.1-0.5-0.3-0.9-0.4-1.2c-0.2-0.4-0.5-0.7-0.8-1c-0.3-0.2-0.7-0.3-1.1-0.3
			c-0.9,0-1.7,0.5-2.2,1.5c-0.4,0.7-0.6,1.9-0.6,3.5c0,2,0.2,3.3,0.7,4.1c0.4,0.7,1.1,1.1,1.9,1.1c0.8,0,1.4-0.3,1.8-0.9
			C71.2,39.9,71.5,39.1,71.7,38z"/>
		<path class="st2" d="M77.4,27.4h4.1v6.2H86v-6.2h4.1v17.8H86V38h-4.5v7.2h-4.1V27.4z"/>
	</g>
	<g>
		<path class="st2" d="M11.4,54h6.1c1.2,0,2.2,0.2,2.9,0.7c0.7,0.4,1.4,1.1,1.8,1.9c0.5,0.8,0.8,1.8,1.1,2.9
			c0.2,1.1,0.3,2.2,0.3,3.5c0,1.9-0.2,3.4-0.5,4.4c-0.3,1-0.8,1.9-1.4,2.6c-0.6,0.7-1.2,1.2-1.9,1.4c-0.9,0.3-1.7,0.5-2.5,0.5h-6.1
			V54z M15.5,58.1v9.7h1c0.9,0,1.5-0.1,1.8-0.4c0.4-0.3,0.7-0.7,0.9-1.3c0.2-0.6,0.3-1.7,0.3-3.1c0-1.9-0.2-3.2-0.7-3.9
			c-0.5-0.7-1.2-1-2.3-1H15.5z"/>
		<path class="st2" d="M25.9,54H37v3.8H30v2.8h6.4v3.6H30v3.5h7.1v4H25.9V54z"/>
		<path class="st2" d="M39.4,54h10.2v3.8h-6.1V61h5.2v3.6h-5.2v7.3h-4.2V54z"/>
		<path class="st2" d="M51.8,54h11.1v3.8H56v2.8h6.4v3.6H56v3.5h7.1v4H51.8V54z"/>
		<path class="st2" d="M73.6,68.9h-4.7l-0.7,2.9H64L69,54h4.5l5,17.8h-4.3L73.6,68.9z M72.7,65l-1.5-6.4L69.8,65H72.7z"/>
		<path class="st2" d="M77.6,54h12.6v4.4H86v13.4h-4.1V58.4h-4.2V54z"/>
	</g>
</g>
<text transform="matrix(0.817 0 0 1 122.9355 -11.9236)" style="display:none;fill:#231F20; font-family:'Arial-Black'; font-size:22.1152px;">LIMIT</text>
<text transform="matrix(0.8114 0 0 1 113.8018 10.2703)" style="display:none;fill:#231F20; font-family:'Arial-Black'; font-size:20.8144px;">SWITCH</text>
<text transform="matrix(0.8114 0 0 1 114.5586 32.5154)" style="display:none;fill:#231F20; font-family:'Arial-Black'; font-size:20.8144px;">DEFEAT</text>
</svg>
