<?xml version="1.0" encoding="utf-8"?>
<!-- Generator: Adobe Illustrator 27.0.0, SVG Export Plug-In . SVG Version: 6.00 Build 0)  -->
<svg version="1.1" id="reset_button" xmlns="http://www.w3.org/2000/svg" xmlns:xlink="http://www.w3.org/1999/xlink" x="0px"
	 y="0px" viewBox="0 0 378 349.9" style="enable-background:new 0 0 378 349.9;" xml:space="preserve">
<style type="text/css">
	.st0{fill:#010101;}
	.st1{fill:#EB2227;stroke:#FFFFFF;stroke-width:1.5;stroke-miterlimit:10;}
	.st2{fill:none;stroke:#010101;stroke-miterlimit:10;}
</style>
<g>
	<path class="st0" d="M104.1,54.2V20h17.6c3.3,0,5.8,0.3,7.5,0.8s3.1,1.6,4.2,3.1c1.1,1.5,1.6,3.4,1.6,5.5c0,1.9-0.4,3.5-1.2,4.9
		c-0.8,1.4-1.9,2.5-3.3,3.3c-0.9,0.5-2.1,1-3.7,1.3c1.3,0.4,2.2,0.8,2.8,1.3c0.4,0.3,0.9,0.9,1.7,1.8c0.7,0.9,1.2,1.6,1.5,2.1
		l5.1,9.9h-11.9l-5.6-10.4c-0.7-1.3-1.3-2.2-1.9-2.6c-0.8-0.5-1.6-0.8-2.6-0.8h-0.9v13.8H104.1z M114.7,33.9h4.4
		c0.5,0,1.4-0.2,2.8-0.5c0.7-0.1,1.3-0.5,1.7-1.1s0.7-1.2,0.7-2c0-1.1-0.3-2-1.1-2.5c-0.7-0.6-2-0.9-3.9-0.9h-4.6L114.7,33.9
		L114.7,33.9z"/>
	<path class="st0" d="M141,20h28.3v7.3h-17.7v5.4H168v7h-16.4v6.7h18.2v7.7H141C141,54.2,141,20,141,20z"/>
	<path class="st0" d="M173.6,42.9l10-0.6c0.2,1.6,0.7,2.9,1.3,3.7c1.1,1.4,2.6,2.1,4.7,2.1c1.5,0,2.7-0.3,3.5-1.1
		c0.8-0.7,1.2-1.5,1.2-2.5c0-0.9-0.4-1.7-1.2-2.4c-0.8-0.7-2.6-1.4-5.4-2c-4.6-1-7.9-2.4-9.9-4.1c-2-1.7-3-3.9-3-6.6
		c0-1.8,0.5-3.4,1.5-5c1-1.6,2.5-2.8,4.6-3.7c2-0.9,4.8-1.3,8.4-1.3c4.4,0,7.7,0.8,10,2.4c2.3,1.6,3.6,4.2,4.1,7.7l-9.9,0.6
		c-0.3-1.5-0.8-2.6-1.7-3.4s-2-1-3.5-1c-1.2,0-2.1,0.3-2.8,0.8c-0.6,0.5-0.9,1.1-0.9,1.9c0,0.5,0.3,1,0.8,1.5
		c0.5,0.5,1.7,0.9,3.5,1.3c4.6,1,7.9,2,9.9,3c2,1,3.4,2.3,4.4,3.8c0.9,1.5,1.4,3.2,1.4,5c0,2.2-0.6,4.2-1.8,6
		c-1.2,1.8-2.9,3.2-5.1,4.2c-2.2,1-4.9,1.4-8.2,1.4c-5.8,0-9.8-1.1-12.1-3.3C175.1,49.2,173.9,46.3,173.6,42.9z"/>
	<path class="st0" d="M209.8,20h28.3v7.3h-17.7v5.4h16.4v7h-16.4v6.7h18.2v7.7h-28.8L209.8,20L209.8,20z"/>
	<path class="st0" d="M241.9,20h32.1v8.4h-10.8v25.7h-10.5V28.5h-10.8L241.9,20L241.9,20z"/>
	<path class="st0" d="M156.5,312.3c0-5.7,1.3-10.2,3.9-13.4c2.6-3.2,6.3-4.8,10.9-4.8c4.8,0,8.5,1.6,11.1,4.7
		c2.6,3.1,3.9,7.5,3.9,13.2c0,4.1-0.6,7.5-1.7,10.1c-1.1,2.6-2.8,4.7-4.9,6.1c-2.1,1.5-4.8,2.2-8,2.2c-3.2,0-5.9-0.6-8-1.9
		c-2.1-1.3-3.8-3.3-5.2-6S156.5,316.4,156.5,312.3z M165.4,312.4c0,3.5,0.5,6.1,1.6,7.6s2.5,2.3,4.4,2.3c1.9,0,3.4-0.8,4.4-2.3
		c1.1-1.5,1.6-4.2,1.6-8.2c0-3.3-0.6-5.7-1.6-7.2c-1.1-1.5-2.6-2.3-4.4-2.3c-1.8,0-3.2,0.8-4.3,2.3
		C165.9,306.2,165.4,308.8,165.4,312.4z"/>
	<path class="st0" d="M191.1,294.7h8.9V308l9.3-13.3H221L210.6,308l10.9,21.9h-10.9l-6.1-14.5l-4.6,5.9v8.6h-8.9L191.1,294.7
		L191.1,294.7z"/>
	<path class="st1" d="M281.7,279.5H96.3c-6.6,0-12-5.4-12-12V82.1c0-6.6,5.4-12,12-12h185.4c6.6,0,12,5.4,12,12v185.5
		C293.7,274.1,288.3,279.5,281.7,279.5z"/>
	<g>
		<path d="M146.5,132.8h8.8c1.9,0,3.3,0.6,4.3,1.8c0.9,1.2,1.4,2.9,1.4,5c0,2.2-0.5,4-1.5,5.3c-1,1.3-2.6,1.9-4.7,1.9h-2.9v8.2h-5.3
			L146.5,132.8L146.5,132.8z M151.8,142.3h1.3c1,0,1.7-0.2,2.1-0.7c0.4-0.5,0.6-1.1,0.6-1.8c0-0.7-0.2-1.3-0.5-1.8
			c-0.4-0.5-1-0.7-2-0.7h-1.5V142.3z"/>
		<path d="M163.8,155v-22.2h8.8c1.6,0,2.9,0.2,3.7,0.6c0.9,0.4,1.6,1,2.1,2c0.5,1,0.8,2.2,0.8,3.6c0,1.2-0.2,2.3-0.6,3.2
			c-0.4,0.9-1,1.6-1.7,2.2c-0.4,0.4-1.1,0.6-1.9,0.9c0.6,0.3,1.1,0.6,1.4,0.8c0.2,0.2,0.5,0.6,0.8,1.2c0.4,0.6,0.6,1.1,0.7,1.4
			l2.6,6.4h-6l-2.8-6.8c-0.4-0.9-0.7-1.4-0.9-1.7c-0.4-0.3-0.8-0.5-1.3-0.5h-0.5v9L163.8,155L163.8,155z M169.1,141.8h2.2
			c0.2,0,0.7-0.1,1.4-0.3c0.4-0.1,0.6-0.3,0.9-0.7c0.2-0.4,0.3-0.8,0.3-1.3c0-0.7-0.2-1.3-0.5-1.6c-0.4-0.4-1-0.6-2-0.6h-2.3
			L169.1,141.8L169.1,141.8z"/>
		<path d="M182.2,132.8h14.1v4.7h-8.8v3.5h8.2v4.5h-8.2v4.4h9.1v5h-14.4V132.8z"/>
		<path d="M198.5,147.7l5-0.4c0.1,1.1,0.3,1.9,0.7,2.4c0.5,0.9,1.3,1.4,2.3,1.4c0.8,0,1.3-0.2,1.7-0.7s0.6-1,0.6-1.6
			c0-0.6-0.2-1.1-0.6-1.5s-1.3-0.9-2.7-1.3c-2.3-0.7-4-1.6-4.9-2.7c-1-1.1-1.5-2.6-1.5-4.3c0-1.1,0.2-2.2,0.8-3.2s1.3-1.8,2.3-2.4
			c1-0.6,2.4-0.9,4.2-0.9c2.2,0,3.8,0.5,5,1.6c1.1,1.1,1.8,2.7,2,5l-5,0.4c-0.1-1-0.4-1.7-0.8-2.2c-0.4-0.5-1-0.7-1.8-0.7
			c-0.6,0-1.1,0.2-1.4,0.5s-0.5,0.8-0.5,1.2c0,0.4,0.1,0.7,0.4,0.9c0.2,0.3,0.8,0.6,1.8,0.8c2.3,0.6,3.9,1.3,4.9,2s1.7,1.5,2.2,2.5
			c0.4,1,0.7,2.1,0.7,3.3c0,1.4-0.3,2.7-0.9,3.9c-0.6,1.2-1.4,2.1-2.5,2.7s-2.4,0.9-4.1,0.9c-2.9,0-4.9-0.7-6-2.2
			C199.3,151.8,198.7,149.9,198.5,147.7z"/>
		<path d="M215.8,147.7l5-0.4c0.1,1.1,0.3,1.9,0.7,2.4c0.5,0.9,1.3,1.4,2.3,1.4c0.8,0,1.3-0.2,1.7-0.7s0.6-1,0.6-1.6
			c0-0.6-0.2-1.1-0.6-1.5s-1.3-0.9-2.7-1.3c-2.3-0.7-4-1.6-4.9-2.7c-1-1.1-1.5-2.6-1.5-4.3c0-1.1,0.2-2.2,0.8-3.2s1.3-1.8,2.3-2.4
			c1-0.6,2.4-0.9,4.2-0.9c2.2,0,3.8,0.5,5,1.6c1.1,1.1,1.8,2.7,2,5l-5,0.4c-0.1-1-0.4-1.7-0.8-2.2c-0.4-0.5-1-0.7-1.8-0.7
			c-0.6,0-1.1,0.2-1.4,0.5s-0.5,0.8-0.5,1.2c0,0.4,0.1,0.7,0.4,0.9c0.2,0.3,0.8,0.6,1.8,0.8c2.3,0.6,3.9,1.3,4.9,2s1.7,1.5,2.2,2.5
			c0.4,1,0.7,2.1,0.7,3.3c0,1.4-0.3,2.7-0.9,3.9c-0.6,1.2-1.4,2.1-2.5,2.7s-2.4,0.9-4.1,0.9c-2.9,0-4.9-0.7-6-2.2
			C216.5,151.8,215.9,149.9,215.8,147.7z"/>
		<path d="M170.9,163.9h16v5.5h-5.4v16.7h-5.3v-16.7h-5.4L170.9,163.9L170.9,163.9z"/>
		<path d="M187.8,175c0-3.6,0.8-6.4,2.3-8.5s3.7-3,6.5-3c2.8,0,5,1,6.6,3c1.5,2,2.3,4.8,2.3,8.3c0,2.6-0.3,4.7-1,6.4
			s-1.6,2.9-2.9,3.9c-1.3,0.9-2.9,1.4-4.7,1.4c-1.9,0-3.5-0.4-4.8-1.2s-2.3-2.1-3.1-3.8C188.2,179.7,187.8,177.6,187.8,175z
			 M193.1,175c0,2.2,0.3,3.9,1,4.8s1.5,1.5,2.6,1.5c1.1,0,2-0.5,2.6-1.4c0.6-1,0.9-2.7,0.9-5.2c0-2.1-0.3-3.6-1-4.6
			s-1.5-1.4-2.6-1.4c-1.1,0-1.9,0.5-2.6,1.5C193.4,171.1,193.1,172.7,193.1,175z"/>
		<path d="M146.6,217.1v-22.2h8.8c1.6,0,2.9,0.2,3.7,0.6c0.9,0.4,1.6,1,2.1,2c0.5,1,0.8,2.2,0.8,3.6c0,1.2-0.2,2.3-0.6,3.2
			c-0.4,0.9-1,1.6-1.7,2.2c-0.4,0.4-1.1,0.6-1.8,0.9c0.6,0.3,1.1,0.6,1.4,0.8c0.2,0.2,0.5,0.6,0.8,1.2c0.4,0.6,0.6,1.1,0.7,1.4
			l2.6,6.4h-6l-2.8-6.8c-0.4-0.9-0.7-1.4-0.9-1.7c-0.4-0.3-0.8-0.5-1.3-0.5h-0.5v9L146.6,217.1L146.6,217.1z M151.9,203.9h2.2
			c0.2,0,0.7-0.1,1.4-0.3c0.4-0.1,0.6-0.3,0.9-0.7c0.2-0.4,0.3-0.8,0.3-1.3c0-0.7-0.2-1.3-0.5-1.6c-0.4-0.4-1-0.6-2-0.6h-2.3
			L151.9,203.9L151.9,203.9z"/>
		<path d="M165,194.9h14.1v4.7h-8.8v3.5h8.2v4.5h-8.2v4.4h9.1v5H165V194.9z"/>
		<path d="M181.3,209.7l5-0.4c0.1,1.1,0.3,1.9,0.7,2.4c0.5,0.9,1.3,1.4,2.3,1.4c0.8,0,1.3-0.2,1.7-0.7s0.6-1,0.6-1.6
			c0-0.6-0.2-1.1-0.6-1.5s-1.3-0.9-2.7-1.3c-2.3-0.7-4-1.6-4.9-2.7c-1-1.1-1.5-2.6-1.5-4.3c0-1.1,0.2-2.2,0.8-3.2s1.3-1.8,2.3-2.4
			c1-0.6,2.4-0.9,4.2-0.9c2.2,0,3.8,0.5,5,1.6c1.1,1.1,1.8,2.7,2,5l-5,0.4c-0.1-1-0.4-1.7-0.8-2.2c-0.4-0.5-1-0.7-1.8-0.7
			c-0.6,0-1.1,0.2-1.4,0.5s-0.5,0.8-0.5,1.2c0,0.4,0.1,0.7,0.4,0.9c0.2,0.3,0.8,0.6,1.8,0.8c2.3,0.6,3.9,1.3,4.9,2s1.7,1.5,2.2,2.5
			c0.4,1,0.7,2.1,0.7,3.3c0,1.4-0.3,2.7-0.9,3.9c-0.6,1.2-1.4,2.1-2.5,2.7s-2.4,0.9-4.1,0.9c-2.9,0-4.9-0.7-6-2.2
			C182.1,213.8,181.5,212,181.3,209.7z"/>
		<path d="M199.5,194.9h14.1v4.7h-8.8v3.5h8.2v4.5h-8.2v4.4h9.1v5h-14.4V194.9z"/>
		<path d="M215.5,194.9h16v5.5h-5.4v16.7h-5.3v-16.7h-5.4L215.5,194.9L215.5,194.9z"/>
	</g>
</g>
<rect class="st2" width="377" height="350"/>
</svg>
