<?xml version="1.0" encoding="utf-8"?>
<!-- Generator: Adobe Illustrator 26.0.3, SVG Export Plug-In . SVG Version: 6.00 Build 0)  -->
<svg version="1.1" id="New_VCP" xmlns="http://www.w3.org/2000/svg" xmlns:xlink="http://www.w3.org/1999/xlink" x="0px" y="0px"
	 viewBox="0 0 100 100" style="enable-background:new 0 0 100 100;" xml:space="preserve">
<style type="text/css">
	.st0{fill:#FFFFFF;}
</style>
<g>
	<g>
		<rect x="11" y="11.5" class="st0" width="77" height="77"/>
		<path d="M88.5,89h-78V11h78V89z M11.5,88h76V12h-76V88z"/>
	</g>
	<g>
		<path d="M89.5,90h-80V10h80V90z M12.5,87h74.1V13H12.5V87z"/>
		<path d="M90,90.5H9v-81h81V90.5z M10,89.5h79v-79H10V89.5z M87,87.5H12V12.5H87V87.5z M13,86.5H86V13.5H13V86.5z"/>
	</g>
</g>
<g>
	<g>
		<rect x="21.3" y="21.3" class="st0" width="57.4" height="57.4"/>
		<path d="M79.2,79.2H20.8V20.8h58.4V79.2z M21.8,78.2h56.4V21.8H21.8V78.2z"/>
	</g>
	<g>
		<path d="M80,80H20V20h60V80z M22.6,77.4h54.7V22.6H22.6V77.4z"/>
		<path d="M80.5,80.5h-61v-61h61V80.5z M20.5,79.5h59v-59h-59V79.5z M77.9,77.9H22.1V22.1h55.7V77.9z M23.1,76.9h53.7V23.1H23.1
			V76.9z"/>
	</g>
</g>
<g>
	<g>
		<rect x="31.1" y="31.1" class="st0" width="37.7" height="37.7"/>
		<path d="M69.4,69.4H30.6V30.6h38.7V69.4z M31.6,68.4h36.7V31.6H31.6V68.4z"/>
	</g>
	<g>
		<path d="M70,70H30V30h40V70z M32.3,67.7h35.5V32.3H32.3V67.7z"/>
		<path d="M70.5,70.5h-41v-41h41V70.5z M30.5,69.5h39v-39h-39V69.5z M68.2,68.2H31.8V31.8h36.5V68.2z M32.8,67.2h34.5V32.8H32.8
			V67.2z"/>
	</g>
</g>
<g>
	<g>
		<rect x="40.6" y="40.6" class="st0" width="18.9" height="18.9"/>
		<path d="M60.4,60.4H39.6V39.6h20.9V60.4z M41.6,58.4h16.9V41.6H41.6V58.4z"/>
	</g>
	<g>
		<path d="M60,60H40V40h20V60z M41.1,58.9h17.7V41.1H41.1V58.9z"/>
		<path d="M61,61H39V39h22V61z M42.1,57.9h15.7V42.1H42.1V57.9z"/>
	</g>
</g>
</svg>
