<svg id="New_VCP" data-name="New VCP" xmlns="http://www.w3.org/2000/svg" width="100" height="100" viewBox="0 0 100 100">
  <title>m55</title>
  <rect width="100" height="100" rx="6" style="fill: #252d6b"/>
  <g>
    <path d="M24.08,58.83V35.69h7l4.2,15.78,4.15-15.78h7V58.83H42.09V40.62l-4.6,18.21H33L28.42,40.62V58.83Z" style="fill: #fff"/>
    <path d="M50.15,52.88l4.42-.46a3.84,3.84,0,0,0,1.12,2.38,3.06,3.06,0,0,0,2.15.87,3,3,0,0,0,2.35-1.13,5.13,5.13,0,0,0,1-3.4A4.68,4.68,0,0,0,60.2,48a3.2,3.2,0,0,0-2.49-1.07,4.53,4.53,0,0,0-3.42,1.69l-3.6-.52L53,36H64.69v4.15H56.32l-.69,3.93a6.77,6.77,0,0,1,3-.74,6.65,6.65,0,0,1,5,2.14,7.72,7.72,0,0,1,2,5.57,8.31,8.31,0,0,1-1.66,5.1,7.34,7.34,0,0,1-6.26,3.06,7.73,7.73,0,0,1-5.22-1.72A7,7,0,0,1,50.15,52.88Z" style="fill: #fff"/>
    <path d="M68.13,52.88l4.41-.46a3.8,3.8,0,0,0,1.13,2.38,3,3,0,0,0,2.14.87,3,3,0,0,0,2.35-1.13,5.13,5.13,0,0,0,1-3.4,4.63,4.63,0,0,0-1-3.19,3.17,3.17,0,0,0-2.48-1.07,4.54,4.54,0,0,0-3.43,1.69l-3.6-.52,2.28-12H82.66v4.15H74.3l-.7,3.93a6.77,6.77,0,0,1,3-.74,6.67,6.67,0,0,1,5,2.14,7.76,7.76,0,0,1,2,5.57A8.37,8.37,0,0,1,82,56.16a7.34,7.34,0,0,1-6.27,3.06,7.77,7.77,0,0,1-5.22-1.72A7,7,0,0,1,68.13,52.88Z" style="fill: #fff"/>
  </g>
</svg>
