<?xml version="1.0" encoding="utf-8"?>
<!-- Generator: Adobe Illustrator 24.0.2, SVG Export Plug-In . SVG Version: 6.00 Build 0)  -->
<svg version="1.1" id="New_VCP" xmlns="http://www.w3.org/2000/svg" xmlns:xlink="http://www.w3.org/1999/xlink" x="0px" y="0px"
	 width="100px" height="100px" viewBox="0 0 100 100" style="enable-background:new 0 0 100 100;" xml:space="preserve">
<style type="text/css">
	.st0{fill:#FFC70E;}
	.st1{display:none;fill:#82151E;}
	.st2{display:none;}
	.st3{display:inline;fill:#010101;}
</style>
<path class="st0" d="M100,94c0,3.31-2.69,6-6,6H6c-3.31,0-6-2.69-6-6V6c0-3.31,2.69-6,6-6h88c3.31,0,6,2.69,6,6V94z"/>
<path class="st1" d="M34.32,2.23h-0.69H6.82c-2.54,0-4.59,1.99-4.59,4.45v25.87v1.77L34.32,2.23z"/>
<g>
	<g class="st2">
		<path class="st3" d="M13.99,44.59V25.9h7.86c1.46,0,2.57,0.15,3.34,0.46c0.77,0.31,1.39,0.87,1.86,1.7
			c0.47,0.83,0.71,1.84,0.71,3.03c0,1.04-0.18,1.93-0.54,2.68s-0.86,1.36-1.49,1.83c-0.4,0.3-0.96,0.54-1.66,0.74
			c0.56,0.23,0.97,0.46,1.23,0.69c0.17,0.15,0.42,0.48,0.75,0.98c0.33,0.5,0.55,0.89,0.66,1.16l2.28,5.42h-5.33l-2.52-5.71
			c-0.32-0.74-0.6-1.22-0.85-1.44c-0.34-0.29-0.73-0.43-1.16-0.43h-0.42v7.59H13.99z M18.73,33.47h1.99c0.22,0,0.63-0.08,1.25-0.25
			c0.31-0.08,0.57-0.27,0.77-0.59s0.3-0.68,0.3-1.08c0-0.6-0.16-1.07-0.47-1.39s-0.9-0.48-1.76-0.48h-2.07V33.47z"/>
		<path class="st3" d="M30.51,25.9h12.65v3.99h-7.92v2.97h7.34v3.81h-7.34v3.68h8.15v4.23H30.51V25.9z"/>
		<path class="st3" d="M45.1,38.41l4.49-0.34c0.1,0.89,0.3,1.57,0.59,2.04c0.49,0.76,1.18,1.13,2.08,1.13
			c0.67,0,1.19-0.19,1.56-0.58s0.55-0.83,0.55-1.34c0-0.48-0.17-0.92-0.52-1.3c-0.35-0.38-1.15-0.74-2.42-1.08
			c-2.07-0.57-3.54-1.33-4.43-2.27c-0.89-0.94-1.33-2.15-1.33-3.61c0-0.96,0.23-1.87,0.68-2.72c0.45-0.85,1.14-1.53,2.05-2.01
			c0.91-0.49,2.16-0.73,3.75-0.73c1.95,0,3.44,0.44,4.46,1.33c1.02,0.89,1.63,2.3,1.83,4.24l-4.45,0.32
			c-0.12-0.84-0.37-1.45-0.75-1.84c-0.38-0.38-0.9-0.57-1.57-0.57c-0.55,0-0.96,0.14-1.24,0.43c-0.28,0.29-0.42,0.63-0.42,1.04
			c0,0.3,0.11,0.57,0.34,0.8c0.22,0.25,0.75,0.48,1.58,0.69c2.06,0.54,3.54,1.09,4.43,1.65c0.89,0.56,1.54,1.25,1.95,2.07
			c0.41,0.83,0.61,1.75,0.61,2.77c0,1.2-0.27,2.3-0.81,3.32c-0.54,1.01-1.3,1.78-2.27,2.3c-0.97,0.52-2.2,0.78-3.68,0.78
			c-2.6,0-4.4-0.61-5.4-1.84C45.8,41.85,45.24,40.3,45.1,38.41z"/>
		<path class="st3" d="M61.32,25.9h12.65v3.99h-7.92v2.97h7.34v3.81h-7.34v3.68h8.15v4.23H61.32V25.9z"/>
		<path class="st3" d="M75.67,25.9h14.34v4.62H85.2v14.08h-4.72V30.52h-4.81V25.9z"/>
	</g>
	<g class="st2">
		<path class="st3" d="M17.53,53.24h4.73v6.6h5.17v-6.6h4.75V72.1h-4.75v-7.63h-5.17v7.63h-4.73V53.24z"/>
		<path class="st3" d="M34.72,62.68c0-3.08,0.7-5.47,2.09-7.19s3.33-2.57,5.81-2.57c2.55,0,4.51,0.84,5.89,2.53
			c1.38,1.68,2.07,4.04,2.07,7.08c0,2.2-0.3,4.01-0.9,5.42s-1.47,2.51-2.61,3.29c-1.14,0.79-2.55,1.18-4.25,1.18
			c-1.73,0-3.15-0.34-4.28-1.02s-2.05-1.75-2.75-3.22C35.07,66.72,34.72,64.89,34.72,62.68z M39.44,62.71c0,1.9,0.29,3.27,0.86,4.1
			c0.57,0.83,1.36,1.25,2.34,1.25c1.02,0,1.8-0.41,2.36-1.22c0.56-0.82,0.83-2.28,0.83-4.39c0-1.78-0.29-3.07-0.87-3.89
			c-0.58-0.82-1.37-1.23-2.36-1.23c-0.95,0-1.72,0.42-2.3,1.25C39.73,59.41,39.44,60.79,39.44,62.71z"/>
		<path class="st3" d="M53.06,53.24h6.22l2.4,11.47l2.38-11.47h6.21V72.1H66.4V57.72L63.42,72.1h-3.5l-2.98-14.38V72.1h-3.87V53.24z
			"/>
		<path class="st3" d="M73.28,53.24h12.67v4.03h-7.93v3h7.36v3.85h-7.36v3.72h8.16v4.27h-12.9V53.24z"/>
	</g>
</g>
<g>
	<path d="M13.36,22.77h14.67v4.1h-4.92v12.5h-4.83v-12.5h-4.92V22.77z"/>
	<path d="M40.91,39.37h-4.05v-1.95c-0.6,0.8-1.21,1.37-1.83,1.71s-1.37,0.51-2.26,0.51c-1.19,0-2.13-0.38-2.81-1.14
		c-0.68-0.76-1.02-1.93-1.02-3.5v-7.65h4.36v6.61c0,0.75,0.13,1.29,0.39,1.61s0.63,0.48,1.11,0.48c0.52,0,0.94-0.21,1.27-0.63
		c0.33-0.42,0.5-1.18,0.5-2.28v-5.79h4.34V39.37z"/>
	<path d="M43.58,27.35h4.06v1.97c0.39-0.85,0.79-1.44,1.21-1.76s0.93-0.48,1.54-0.48c0.64,0,1.34,0.21,2.1,0.63l-1.34,3.28
		c-0.51-0.23-0.92-0.34-1.21-0.34c-0.57,0-1.01,0.25-1.32,0.75c-0.45,0.7-0.67,2.02-0.67,3.94v4.03h-4.36V27.35z"/>
	<path d="M54.18,27.35h4.06v1.97c0.39-0.85,0.79-1.44,1.21-1.76c0.42-0.32,0.93-0.48,1.54-0.48c0.64,0,1.34,0.21,2.1,0.63
		l-1.34,3.28c-0.51-0.23-0.92-0.34-1.21-0.34c-0.57,0-1.01,0.25-1.32,0.75c-0.45,0.7-0.67,2.02-0.67,3.94v4.03h-4.36V27.35z"/>
	<path d="M76.73,34.5h-8.69c0.08,0.74,0.27,1.29,0.56,1.65c0.42,0.52,0.97,0.78,1.64,0.78c0.43,0,0.83-0.11,1.21-0.34
		c0.23-0.14,0.49-0.4,0.76-0.76l4.27,0.42c-0.65,1.21-1.44,2.07-2.37,2.6c-0.92,0.52-2.25,0.79-3.97,0.79
		c-1.5,0-2.68-0.23-3.54-0.67c-0.86-0.45-1.57-1.16-2.13-2.14c-0.56-0.98-0.85-2.13-0.85-3.45c0-1.88,0.57-3.4,1.7-4.56
		c1.13-1.16,2.7-1.74,4.69-1.74c1.62,0,2.9,0.26,3.83,0.78s1.65,1.28,2.14,2.26s0.73,2.28,0.73,3.86V34.5z M72.32,32.3
		c-0.09-0.89-0.31-1.53-0.68-1.91C71.28,30,70.79,29.8,70.2,29.8c-0.69,0-1.24,0.29-1.65,0.87c-0.26,0.36-0.43,0.9-0.5,1.62H72.32z"
		/>
	<path d="M83.95,22.77v4.57h2.39v3.37h-2.39v4.26c0,0.51,0.05,0.85,0.14,1.02c0.14,0.26,0.39,0.38,0.75,0.38
		c0.32,0,0.77-0.1,1.34-0.29l0.32,3.18c-1.07,0.25-2.07,0.37-3,0.37c-1.08,0-1.88-0.15-2.39-0.44s-0.89-0.74-1.13-1.34
		c-0.24-0.6-0.37-1.57-0.37-2.91v-4.23h-1.6v-3.37h1.6v-2.21L83.95,22.77z"/>
	<path d="M13.59,47.04h4.84v16.6h-4.84V47.04z"/>
	<path d="M21.92,47.04h4.51l5.88,9.18v-9.18h4.55v16.6H32.3l-5.85-9.11v9.11h-4.54V47.04z"/>
	<path d="M40.12,47.04h7.17c1.41,0,2.55,0.2,3.42,0.61c0.87,0.41,1.59,0.99,2.16,1.75c0.57,0.76,0.98,1.65,1.24,2.66
		c0.25,1.01,0.38,2.08,0.38,3.22c0,1.77-0.19,3.15-0.57,4.13c-0.38,0.98-0.91,1.8-1.58,2.46c-0.67,0.66-1.4,1.1-2.17,1.32
		c-1.06,0.3-2.02,0.45-2.88,0.45h-7.17V47.04z M44.95,50.8v9.07h1.18c1.01,0,1.73-0.12,2.15-0.36c0.43-0.24,0.76-0.65,1-1.25
		c0.24-0.59,0.36-1.55,0.36-2.88c0-1.76-0.27-2.96-0.81-3.61c-0.54-0.65-1.43-0.97-2.68-0.97H44.95z"/>
	<path d="M57.02,47.04h12.93v3.54h-8.1v2.64h7.51v3.38h-7.51v3.27h8.33v3.76H57.02V47.04z"/>
	<path d="M71.72,47.04h5.31l2.77,5.11l2.69-5.11h5.26l-4.86,8.04l5.32,8.56h-5.42l-3.08-5.33l-3.08,5.33h-5.39l5.39-8.65
		L71.72,47.04z"/>
</g>
</svg>
