<?xml version="1.0" encoding="utf-8"?>
<!-- Generator: Adobe Illustrator 26.3.1, SVG Export Plug-In . SVG Version: 6.00 Build 0)  -->
<svg version="1.1" id="New_VCP" xmlns="http://www.w3.org/2000/svg" xmlns:xlink="http://www.w3.org/1999/xlink" x="0px" y="0px"
	 viewBox="0 0 100 100" style="enable-background:new 0 0 100 100;" xml:space="preserve">
<style type="text/css">
	.st0{fill:#FFFFFF;}
	.st1{fill-rule:evenodd;clip-rule:evenodd;}
</style>
<path class="st0" d="M100,94c0,3.3-2.7,6-6,6H6c-3.3,0-6-2.7-6-6V6c0-3.3,2.7-6,6-6h88c3.3,0,6,2.7,6,6V94z"/>
<g>
	<path class="st1" d="M75.2,25.8c-13.8-14.5-36.9-14.3-50.6,0.2c-7.1,7.5-9.8,16.5-9.7,24.6c0.1,7.8,2.5,17.7,11.6,25.5
		C39,86.7,52.2,87,65.1,81.3c-9.9-9.9-19.8-19.8-29.7-29.6c-2,2-5.4,5.5-8,8c-0.6-7.9-0.2-16.3-0.2-24.5c0-1-0.7-7.6,0-8.2
		c0.1-0.1,3,0,3.9,0c4.6,0,8.2,0.2,12.3,0.2c5.8,0,11.4-0.5,16.1,0.4c-2.5,2.6-5.9,5.9-7.9,7.9c9.9,9.9,19.8,19.8,29.7,29.6
		C87.4,51.9,86.3,37.3,75.2,25.8z"/>
	<path class="st1" d="M81.3,65c-9.9-9.9-19.8-19.8-29.7-29.6c1.9-2,5.4-5.3,7.9-7.9c-4.7-0.9-10.3-0.4-16.1-0.4
		c-4.1,0-7.8-0.2-12.3-0.2c-0.9,0-3.9-0.1-3.9,0c-0.7,0.6,0,7.2,0,8.2c0,8.2-0.4,16.6,0.2,24.5c2.6-2.6,6-6.1,8-8
		c9.9,9.9,19.8,19.8,29.7,29.6c-12.8,5.7-26,5.4-38.4-5.2C17.5,68.3,15.1,58.4,15,50.6c-0.1-8.1,2.6-17.2,9.7-24.6
		c13.7-14.5,36.7-14.6,50.6-0.2C86.3,37.3,87.4,51.9,81.3,65z"/>
</g>
</svg>
