<?xml version="1.0" encoding="UTF-8" standalone="no"?>
<svg
   width="100%"
   height="100%"
   viewBox="0 0 300 300"
   version="1.1"
   xml:space="preserve"
   style="fill-rule:evenodd;clip-rule:evenodd;stroke-linecap:round;stroke-linejoin:round;stroke-miterlimit:1.5;"
   id="svg236"
   sodipodi:docname="reset_home.svg"
   inkscape:version="1.2.2 (732a01da63, 2022-12-09)"
   xmlns:inkscape="http://www.inkscape.org/namespaces/inkscape"
   xmlns:sodipodi="http://sodipodi.sourceforge.net/DTD/sodipodi-0.dtd"
   xmlns="http://www.w3.org/2000/svg"
   xmlns:svg="http://www.w3.org/2000/svg"
   xmlns:serif="http://www.serif.com/"><defs
   id="defs240" /><sodipodi:namedview
   id="namedview238"
   pagecolor="#ffffff"
   bordercolor="#000000"
   borderopacity="0.25"
   inkscape:showpageshadow="2"
   inkscape:pageopacity="0.0"
   inkscape:pagecheckerboard="0"
   inkscape:deskcolor="#d1d1d1"
   showgrid="false"
   inkscape:zoom="0.48849294"
   inkscape:cx="149.43921"
   inkscape:cy="188.33435"
   inkscape:window-width="1920"
   inkscape:window-height="1009"
   inkscape:window-x="-8"
   inkscape:window-y="-8"
   inkscape:window-maximized="1"
   inkscape:current-layer="g232" />
    <g
   transform="matrix(1,0,0,1,-1512.99,-52.9923)"
   id="g234">
        <g
   id="Layer-1"
   serif:id="Layer 1">
        </g>
        <g
   transform="matrix(0.301848,0,0,0.582975,1270.18,-1003.7)"
   id="g232">
            <rect
   x="804.411"
   y="1812.59"
   width="993.877"
   height="514.602"
   style="fill:none;"
   id="rect198" />
            
            <g
   transform="matrix(3.31292,0,0,1.71534,-484.316,1665.07)"
   id="g230">
                <g
   transform="matrix(62.5,0,0,62.5,434.874,153.369)"
   id="g216">
                    <path
   d="M0.074,-0.716L0.295,-0.716L0.295,-0.465L0.537,-0.465L0.537,-0.716L0.759,-0.716L0.759,-0L0.537,-0L0.537,-0.29L0.295,-0.29L0.295,-0L0.074,-0L0.074,-0.716Z"
   style="fill:#0b0a08;fill-rule:nonzero;"
   id="path214" />
                </g>
                <g
   transform="matrix(62.5,0,0,62.5,486.937,153.369)"
   id="g220">
                    <path
   d="M0.045,-0.357C0.045,-0.474 0.078,-0.565 0.143,-0.63C0.208,-0.695 0.299,-0.728 0.415,-0.728C0.534,-0.728 0.626,-0.696 0.69,-0.632C0.755,-0.568 0.787,-0.479 0.787,-0.363C0.787,-0.28 0.773,-0.211 0.745,-0.157C0.717,-0.104 0.676,-0.062 0.623,-0.032C0.57,-0.003 0.503,0.012 0.424,0.012C0.343,0.012 0.276,-0.001 0.223,-0.026C0.17,-0.052 0.128,-0.093 0.095,-0.148C0.062,-0.204 0.045,-0.274 0.045,-0.357ZM0.267,-0.356C0.267,-0.284 0.28,-0.232 0.307,-0.201C0.334,-0.169 0.37,-0.153 0.417,-0.153C0.464,-0.153 0.501,-0.169 0.527,-0.2C0.553,-0.231 0.566,-0.286 0.566,-0.366C0.566,-0.434 0.552,-0.483 0.525,-0.514C0.498,-0.545 0.461,-0.561 0.415,-0.561C0.37,-0.561 0.334,-0.545 0.307,-0.513C0.28,-0.482 0.267,-0.429 0.267,-0.356Z"
   style="fill:#0b0a08;fill-rule:nonzero;"
   id="path218" />
                </g>
                <g
   transform="matrix(62.5,0,0,62.5,539,153.369)"
   id="g224">
                    <path
   d="M0.071,-0.716L0.362,-0.716L0.474,-0.28L0.586,-0.716L0.876,-0.716L0.876,-0L0.695,-0L0.695,-0.546L0.555,-0L0.392,-0L0.252,-0.546L0.252,-0L0.071,-0L0.071,-0.716Z"
   style="fill:#0b0a08;fill-rule:nonzero;"
   id="path222" />
                </g>
                <g
   transform="matrix(62.5,0,0,62.5,597.99,153.369)"
   id="g228">
                    <path
   d="M0.073,-0.716L0.666,-0.716L0.666,-0.563L0.294,-0.563L0.294,-0.449L0.639,-0.449L0.639,-0.303L0.294,-0.303L0.294,-0.162L0.676,-0.162L0.676,-0L0.073,-0L0.073,-0.716Z"
   style="fill:#0b0a08;fill-rule:nonzero;"
   id="path226" />
                </g>
            </g>
        <path
   d="m 1654.3338,2107.9354 -318.1211,-150.4862 c -17.4196,-8.2403 -46.2033,-8.2403 -64.3844,0 l -318.12109,150.4862 c -17.41957,8.2403 -17.41957,21.8563 0,30.4568 17.41956,8.2403 46.2033,8.2403 64.38439,0 l 6.0601,-2.8667 v 150.4862 c 0,5.0161 8.332,8.9575 18.9358,8.9575 h 522.6275 c 10.6038,0 18.9358,-3.9414 18.9358,-8.9575 v -150.4862 l 6.0601,2.8667 c 9.0876,4.2989 20.452,6.4482 31.8121,6.4482 11.3593,0 23.479,-2.1495 31.8121,-6.4482 18.1797,-8.5999 18.1797,-22.2165 0,-30.4568 z m -107.5553,169.1178 h -140.1247 v -82.7674 c 0,-16.4831 -28.7838,-30.0966 -63.6229,-30.0966 h -77.2593 c -34.8446,0 -63.6229,13.6161 -63.6229,30.0966 l -0.01,82.7674 h -140.1202 v -159.4437 l 242.378,-114.6561 242.378,114.6561 z"
   id="path70"
   style="stroke-width:0.930263" /></g>
    </g>
</svg>
