<?xml version="1.0" encoding="UTF-8" standalone="no"?>
<svg
   width="100%"
   height="100%"
   viewBox="0 0 300 300"
   version="1.1"
   xml:space="preserve"
   style="fill-rule:evenodd;clip-rule:evenodd;stroke-linecap:round;stroke-miterlimit:1.5;"
   id="svg516"
   sodipodi:docname="auto_z_plate_trig.svg"
   inkscape:version="1.2.2 (732a01da63, 2022-12-09)"
   xmlns:inkscape="http://www.inkscape.org/namespaces/inkscape"
   xmlns:sodipodi="http://sodipodi.sourceforge.net/DTD/sodipodi-0.dtd"
   xmlns="http://www.w3.org/2000/svg"
   xmlns:svg="http://www.w3.org/2000/svg"
   xmlns:serif="http://www.serif.com/"><defs
   id="defs520" /><sodipodi:namedview
   id="namedview518"
   pagecolor="#ffffff"
   bordercolor="#000000"
   borderopacity="0.25"
   inkscape:showpageshadow="2"
   inkscape:pageopacity="0.0"
   inkscape:pagecheckerboard="0"
   inkscape:deskcolor="#d1d1d1"
   showgrid="false"
   inkscape:zoom="2.7633333"
   inkscape:cx="149.81906"
   inkscape:cy="150.18094"
   inkscape:window-width="1920"
   inkscape:window-height="1009"
   inkscape:window-x="-8"
   inkscape:window-y="-8"
   inkscape:window-maximized="1"
   inkscape:current-layer="g474" />
    <g
   transform="matrix(1,0,0,1,-2776.32,-403.992)"
   id="g514">
        <g
   id="Layer-1"
   serif:id="Layer 1">
        </g>
        <g
   transform="matrix(0.301848,0,0,0.582975,2533.51,-652.704)"
   id="g512">
            <rect
   x="804.411"
   y="1812.59"
   width="993.877"
   height="514.602"
   style="fill:none;"
   id="rect463" />
            <clipPath
   id="_clip1">
                <rect
   x="804.411"
   y="1812.59"
   width="993.877"
   height="514.602"
   id="rect465" />
            </clipPath>
            <g
   clip-path="url(#_clip1)"
   id="g510">
                <g
   transform="matrix(4.40666,0,0,2.28165,-1873.07,444.786)"
   id="g474">
                    <rect
   x="613"
   y="607"
   width="209"
   height="209"
   style="fill:#939393;stroke:#000;stroke-width:6.26px;"
   id="rect468" />
                    <g
   transform="matrix(1.28745,0,0,1.28745,-213.253,-195.654)"
   id="g472"
   style="fill:#00ff00">
                        <path
   d="M789,671C789,652.235 773.765,637 755,637L687,637C668.235,637 653,652.235 653,671L653,739C653,757.765 668.235,773 687,773L755,773C773.765,773 789,757.765 789,739L789,671Z"
   style="fill:#00ff00;stroke:#000;stroke-width:1.95px"
   id="path470" />
                    </g>
                </g>
                <g
   transform="matrix(3.31292,0,0,1.71534,-574.813,1806.59)"
   id="g508">
                    <g
   transform="matrix(62.5,0,0,62.5,492.297,139.119)"
   id="g478">
                        <path
   d="M0.055,-0.716L0.681,-0.716L0.681,-0.573L0.28,-0.154L0.696,-0.154L0.696,-0L0.017,-0L0.017,-0.148L0.414,-0.563L0.055,-0.563L0.055,-0.716Z"
   style="fill:#0b0a08;fill-rule:nonzero;"
   id="path476" />
                    </g>
                    <g
   transform="matrix(62.5,0,0,62.5,558.276,139.119)"
   id="g482">
                        <path
   d="M0.3,-0.716L0.3,-0.519L0.409,-0.519L0.409,-0.374L0.3,-0.374L0.3,-0.189C0.3,-0.167 0.302,-0.153 0.306,-0.146C0.313,-0.134 0.324,-0.129 0.34,-0.129C0.355,-0.129 0.375,-0.133 0.402,-0.142L0.417,-0.004C0.367,0.006 0.321,0.012 0.279,0.012C0.229,0.012 0.193,0.005 0.169,-0.007C0.146,-0.02 0.129,-0.039 0.117,-0.065C0.106,-0.091 0.101,-0.133 0.101,-0.191L0.101,-0.374L0.027,-0.374L0.027,-0.519L0.101,-0.519L0.101,-0.614L0.3,-0.716Z"
   style="fill:#0b0a08;fill-rule:nonzero;"
   id="path480" />
                    </g>
                    <g
   transform="matrix(62.5,0,0,62.5,586.016,139.119)"
   id="g486">
                        <path
   d="M0.036,-0.258C0.036,-0.337 0.062,-0.402 0.116,-0.453C0.169,-0.505 0.241,-0.53 0.332,-0.53C0.436,-0.53 0.514,-0.5 0.567,-0.44C0.61,-0.391 0.631,-0.332 0.631,-0.261C0.631,-0.181 0.605,-0.116 0.552,-0.065C0.499,-0.014 0.426,0.012 0.333,0.012C0.249,0.012 0.182,-0.009 0.13,-0.052C0.067,-0.104 0.036,-0.173 0.036,-0.258ZM0.235,-0.258C0.235,-0.212 0.244,-0.178 0.263,-0.156C0.282,-0.134 0.305,-0.123 0.333,-0.123C0.362,-0.123 0.386,-0.133 0.404,-0.155C0.422,-0.177 0.432,-0.212 0.432,-0.26C0.432,-0.305 0.422,-0.339 0.404,-0.361C0.385,-0.383 0.362,-0.394 0.335,-0.394C0.306,-0.394 0.282,-0.382 0.263,-0.36C0.244,-0.338 0.235,-0.304 0.235,-0.258Z"
   style="fill:#0b0a08;fill-rule:nonzero;"
   id="path484" />
                    </g>
                    <g
   transform="matrix(62.5,0,0,62.5,473.727,201.619)"
   id="g490">
                        <path
   d="M0.061,0.197L0.061,-0.519L0.247,-0.519L0.247,-0.442C0.273,-0.474 0.296,-0.496 0.318,-0.507C0.347,-0.523 0.379,-0.53 0.414,-0.53C0.483,-0.53 0.537,-0.504 0.575,-0.451C0.613,-0.398 0.632,-0.332 0.632,-0.254C0.632,-0.168 0.611,-0.102 0.57,-0.056C0.528,-0.011 0.476,0.012 0.413,0.012C0.382,0.012 0.355,0.007 0.329,-0.004C0.304,-0.014 0.282,-0.03 0.262,-0.05L0.262,0.197L0.061,0.197ZM0.26,-0.258C0.26,-0.217 0.269,-0.186 0.286,-0.167C0.303,-0.147 0.325,-0.137 0.352,-0.137C0.375,-0.137 0.394,-0.146 0.41,-0.165C0.425,-0.184 0.433,-0.217 0.433,-0.262C0.433,-0.304 0.425,-0.335 0.409,-0.355C0.392,-0.374 0.373,-0.384 0.349,-0.384C0.324,-0.384 0.303,-0.374 0.286,-0.354C0.269,-0.335 0.26,-0.302 0.26,-0.258Z"
   style="fill:#0b0a08;fill-rule:nonzero;"
   id="path488" />
                    </g>
                    <g
   transform="matrix(62.5,0,0,62.5,515.414,201.619)"
   id="g494">
                        <rect
   x="0.067"
   y="-0.716"
   width="0.199"
   height="0.716"
   style="fill:#0b0a08;fill-rule:nonzero;"
   id="rect492" />
                    </g>
                    <g
   transform="matrix(62.5,0,0,62.5,536.227,201.619)"
   id="g498">
                        <path
   d="M0.241,-0.351L0.051,-0.371C0.058,-0.404 0.069,-0.43 0.082,-0.449C0.096,-0.468 0.115,-0.485 0.141,-0.499C0.159,-0.509 0.184,-0.516 0.216,-0.522C0.248,-0.528 0.282,-0.53 0.319,-0.53C0.379,-0.53 0.427,-0.527 0.463,-0.52C0.499,-0.514 0.529,-0.5 0.553,-0.479C0.57,-0.464 0.583,-0.443 0.593,-0.416C0.603,-0.389 0.608,-0.364 0.608,-0.339L0.608,-0.11C0.608,-0.086 0.609,-0.067 0.613,-0.053C0.616,-0.039 0.622,-0.021 0.633,-0L0.446,-0C0.439,-0.013 0.434,-0.024 0.432,-0.031C0.429,-0.038 0.427,-0.049 0.425,-0.063C0.399,-0.038 0.373,-0.021 0.347,-0.01C0.312,0.005 0.271,0.012 0.225,0.012C0.163,0.012 0.116,-0.003 0.084,-0.031C0.052,-0.06 0.036,-0.095 0.036,-0.137C0.036,-0.177 0.047,-0.209 0.07,-0.234C0.093,-0.26 0.136,-0.279 0.198,-0.291C0.273,-0.306 0.321,-0.316 0.343,-0.323C0.365,-0.329 0.389,-0.336 0.414,-0.346C0.414,-0.371 0.409,-0.388 0.398,-0.397C0.388,-0.407 0.371,-0.412 0.345,-0.412C0.313,-0.412 0.288,-0.407 0.272,-0.396C0.259,-0.388 0.249,-0.373 0.241,-0.351ZM0.414,-0.246C0.386,-0.236 0.358,-0.228 0.328,-0.22C0.288,-0.209 0.262,-0.199 0.251,-0.188C0.24,-0.178 0.235,-0.166 0.235,-0.152C0.235,-0.136 0.24,-0.123 0.251,-0.114C0.262,-0.104 0.278,-0.099 0.299,-0.099C0.321,-0.099 0.342,-0.104 0.361,-0.115C0.38,-0.125 0.394,-0.139 0.402,-0.154C0.41,-0.17 0.414,-0.19 0.414,-0.214L0.414,-0.246Z"
   style="fill:#0b0a08;fill-rule:nonzero;"
   id="path496" />
                    </g>
                    <g
   transform="matrix(62.5,0,0,62.5,576.846,201.619)"
   id="g502">
                        <path
   d="M0.3,-0.716L0.3,-0.519L0.409,-0.519L0.409,-0.374L0.3,-0.374L0.3,-0.189C0.3,-0.167 0.302,-0.153 0.306,-0.146C0.313,-0.134 0.324,-0.129 0.34,-0.129C0.355,-0.129 0.375,-0.133 0.402,-0.142L0.417,-0.004C0.367,0.006 0.321,0.012 0.279,0.012C0.229,0.012 0.193,0.005 0.169,-0.007C0.146,-0.02 0.129,-0.039 0.117,-0.065C0.106,-0.091 0.101,-0.133 0.101,-0.191L0.101,-0.374L0.027,-0.374L0.027,-0.519L0.101,-0.519L0.101,-0.614L0.3,-0.716Z"
   style="fill:#0b0a08;fill-rule:nonzero;"
   id="path500" />
                    </g>
                    <g
   transform="matrix(62.5,0,0,62.5,604.586,201.619)"
   id="g506">
                        <path
   d="M0.636,-0.21L0.237,-0.21C0.241,-0.178 0.25,-0.154 0.263,-0.139C0.282,-0.116 0.307,-0.105 0.338,-0.105C0.358,-0.105 0.376,-0.11 0.394,-0.12C0.405,-0.126 0.416,-0.137 0.429,-0.152L0.625,-0.134C0.595,-0.082 0.558,-0.045 0.516,-0.022C0.474,0 0.413,0.012 0.334,0.012C0.265,0.012 0.211,0.002 0.172,-0.017C0.132,-0.037 0.1,-0.067 0.074,-0.11C0.048,-0.152 0.035,-0.201 0.035,-0.258C0.035,-0.339 0.061,-0.405 0.113,-0.455C0.165,-0.505 0.237,-0.53 0.328,-0.53C0.402,-0.53 0.461,-0.519 0.504,-0.497C0.547,-0.474 0.58,-0.442 0.602,-0.399C0.625,-0.356 0.636,-0.301 0.636,-0.232L0.636,-0.21ZM0.434,-0.305C0.43,-0.344 0.419,-0.371 0.403,-0.388C0.386,-0.404 0.364,-0.413 0.336,-0.413C0.305,-0.413 0.28,-0.4 0.261,-0.375C0.249,-0.359 0.241,-0.336 0.238,-0.305L0.434,-0.305Z"
   style="fill:#0b0a08;fill-rule:nonzero;"
   id="path504" />
                    </g>
                </g>
            </g>
        </g>
    </g>
</svg>
