<svg id="New_VCP" data-name="New VCP" xmlns="http://www.w3.org/2000/svg" width="100" height="100" viewBox="0 0 100 100">
  <title>spin_low</title>
  <rect width="100" height="100" rx="6" style="fill: #252d6b"/>
  <g>
    <path d="M20.57,37.85l4.08-.4a5,5,0,0,0,1.49,3,4.54,4.54,0,0,0,3,1,4.66,4.66,0,0,0,3-.85,2.55,2.55,0,0,0,1-2,1.86,1.86,0,0,0-.43-1.25,3.36,3.36,0,0,0-1.51-.9c-.49-.17-1.61-.47-3.36-.91a11.39,11.39,0,0,1-4.73-2,5.42,5.42,0,0,1-1.91-4.18,5.33,5.33,0,0,1,.9-3,5.63,5.63,0,0,1,2.59-2.11,10.43,10.43,0,0,1,4.09-.72q3.9,0,5.88,1.71a6.08,6.08,0,0,1,2.08,4.58l-4.2.18a3.58,3.58,0,0,0-1.15-2.3,4.19,4.19,0,0,0-2.65-.7,4.77,4.77,0,0,0-2.86.75A1.5,1.5,0,0,0,25.33,29,1.61,1.61,0,0,0,26,30.26a11.13,11.13,0,0,0,3.85,1.39,20.63,20.63,0,0,1,4.53,1.49,5.84,5.84,0,0,1,2.29,2.11,6.2,6.2,0,0,1,.83,3.31,6.12,6.12,0,0,1-1,3.34,5.92,5.92,0,0,1-2.8,2.31,11.69,11.69,0,0,1-4.52.76,9,9,0,0,1-6.05-1.82A8,8,0,0,1,20.57,37.85Z" style="fill: #fff"/>
    <path d="M41,44.6V23.84H47.7a24.1,24.1,0,0,1,5,.32,5.42,5.42,0,0,1,3,2,6.39,6.39,0,0,1,1.21,4,6.7,6.7,0,0,1-.7,3.22,5.69,5.69,0,0,1-1.76,2,6.2,6.2,0,0,1-2.17,1,24.86,24.86,0,0,1-4.35.29H45.17V44.6Zm4.19-17.24v5.89h2.29a10.78,10.78,0,0,0,3.32-.33,2.71,2.71,0,0,0,1.78-2.63,2.65,2.65,0,0,0-.67-1.87,2.86,2.86,0,0,0-1.68-.92,19.51,19.51,0,0,0-3-.14Z" style="fill: #fff"/>
    <path d="M60.19,44.6V23.84h4.19V44.6Z" style="fill: #fff"/>
    <path d="M68.42,44.6V23.84H72.5L81,37.71V23.84h3.9V44.6H80.68L72.31,31.07V44.6Z" style="fill: #fff"/>
  </g>
  <g>
    <path d="M21.8,74.5V53.91H26V71H36.41v3.5Z" style="fill: #fff"/>
    <path d="M38.55,64.25a13.1,13.1,0,0,1,1-5.33,9.72,9.72,0,0,1,1.93-2.84,8,8,0,0,1,2.68-1.87,11.4,11.4,0,0,1,4.48-.82,9.77,9.77,0,0,1,7.34,2.84q2.74,2.85,2.75,7.92T56,72a9.65,9.65,0,0,1-7.31,2.84A9.78,9.78,0,0,1,41.28,72,10.73,10.73,0,0,1,38.55,64.25Zm4.32-.14a7.79,7.79,0,0,0,1.62,5.34,5.61,5.61,0,0,0,8.25,0,8,8,0,0,0,1.61-5.42,7.81,7.81,0,0,0-1.56-5.32,5.8,5.8,0,0,0-8.34,0A7.87,7.87,0,0,0,42.87,64.11Z" style="fill: #fff"/>
    <path d="M64.9,74.5l-5-20.76h4.29L67.36,68l3.8-14.26h5l3.64,14.5L83,53.74h4.22l-5,20.76H77.7L73.57,59,69.45,74.5Z" style="fill: #fff"/>
  </g>
</svg>
