<?xml version="1.0" encoding="utf-8"?>
<!-- Generator: Adobe Illustrator 24.0.2, SVG Export Plug-In . SVG Version: 6.00 Build 0)  -->
<svg version="1.1" id="Layer_1" xmlns="http://www.w3.org/2000/svg" xmlns:xlink="http://www.w3.org/1999/xlink" x="0px" y="0px"
	 viewBox="0 0 300 100" style="enable-background:new 0 0 300 100;" xml:space="preserve">
<style type="text/css">
	.st0{fill:#FDF9D2;}
	.st1{fill:#010101;}
	.st2{fill:#FFFEDD;}
	.st3{fill:#944B3F;}
	.st4{fill:#DEB48C;}
	.st5{fill:#F7CEA9;}
	.st6{fill:#6F3D34;}
	.st7{fill:#D78134;}
	.st8{fill:#B86C29;}
	.st9{fill:#C28E68;}
	.st10{fill:#F48884;}
	.st11{fill:#F7A09C;}
	.st12{fill:#E1F4FD;}
	.st13{fill:#FFFFFF;}
	.st14{fill:#303030;}
	.st15{fill:#7A7676;}
	.st16{fill:#E5B47A;}
	.st17{fill:#F2C189;}
	.st18{fill:#AD4C78;}
	.st19{fill:#90355E;}
	.st20{fill:#F493BB;}
	.st21{fill:#F27FAA;}
	.st22{fill:#D17628;}
	.st23{fill:none;stroke:#000000;stroke-miterlimit:10;}
</style>
<g>
	<polygon points="100.97,73.31 114.29,25.49 136.17,25.49 134.31,73.31 	"/>
	<path d="M130.27,31.16l-1.42,36.48h-8.26l0.65-6.56h-2.89l-1.57,6.56h-8.35l10.16-36.48H130.27z M122.11,54.62
		c0.27-4.13,0.71-9.24,1.31-15.32c-1.98,6.99-3.34,12.09-4.09,15.32H122.11z"/>
	<path d="M138.39,73.85c-3.46,0-6.31-0.84-8.45-2.5c-2.26-1.75-3.72-4.25-4.22-7.23c-0.38-2.23-0.27-5.05,0.32-8.62l1.41-8.5
		c0.52-3.13,1.21-5.54,2.13-7.36c1.11-2.22,2.92-4.13,5.37-5.7c2.51-1.6,5.36-2.41,8.48-2.41c3.33,0,6.17,0.92,8.46,2.74
		c2.4,1.91,3.89,4.48,4.31,7.44c0.3,2.07,0.19,4.67-0.34,7.95h0.04l-1.14,6.63c-0.45,2.61-0.85,4.55-1.24,5.94
		c-0.52,1.86-1.46,3.72-2.8,5.53c-1.46,1.97-3.25,3.49-5.31,4.53C143.35,73.33,140.99,73.85,138.39,73.85z"/>
	<path d="M150.22,49.03h-7.31l0.57-3.45c0.2-1.2,0.25-2.02,0.16-2.45c-0.1-0.43-0.37-0.64-0.81-0.64c-0.45,0-0.78,0.19-1,0.56
		c-0.22,0.38-0.43,1.22-0.65,2.52l-2.33,14.11c-0.18,1.07-0.19,1.87-0.05,2.4c0.14,0.53,0.44,0.8,0.89,0.8
		c0.52,0,0.93-0.28,1.2-0.83c0.28-0.56,0.54-1.61,0.8-3.15l0.59-3.56h6.91c-0.41,2.39-0.78,4.18-1.11,5.37
		c-0.33,1.19-0.96,2.42-1.89,3.67c-0.93,1.25-2.03,2.2-3.3,2.84c-1.27,0.64-2.76,0.96-4.48,0.96c-2.19,0-3.85-0.44-4.98-1.32
		c-1.13-0.88-1.83-2.11-2.1-3.7c-0.27-1.58-0.16-3.83,0.32-6.75l1.41-8.49c0.42-2.54,0.95-4.45,1.6-5.75
		c0.65-1.29,1.77-2.44,3.36-3.46c1.59-1.01,3.4-1.52,5.43-1.52c2.02,0,3.67,0.5,4.93,1.51c1.27,1.01,2.01,2.28,2.23,3.81
		C150.8,44.05,150.68,46.22,150.22,49.03z"/>
	<path d="M158.08,73.85c-2.46,0-4.53-0.35-6.34-1.06c-2.3-0.91-4.13-2.46-5.27-4.46c-0.95-1.66-1.49-3.59-1.61-5.74
		c-0.1-1.72,0.09-3.93,0.59-6.95l1.27-7.66c0.56-3.36,1.33-6.01,2.35-8.09c1.23-2.5,3.06-4.53,5.43-6.04
		c2.4-1.53,5.23-2.31,8.38-2.31c2.67,0,5.02,0.53,6.99,1.57c2.16,1.15,3.79,2.74,4.85,4.73c0.88,1.67,1.4,3.44,1.53,5.25
		c0.11,1.52-0.03,3.45-0.47,6.08l-1.21,7.32c-0.5,3.03-1.01,5.28-1.57,6.86c-0.67,1.92-1.72,3.72-3.11,5.34
		c-1.52,1.77-3.36,3.11-5.47,3.97C162.48,73.45,160.35,73.85,158.08,73.85z"/>
	<path d="M170.19,48.24l-1.21,7.32c-0.45,2.69-0.89,4.66-1.32,5.92c-0.44,1.25-1.12,2.43-2.06,3.51c-0.93,1.09-2.04,1.89-3.31,2.41
		c-1.27,0.52-2.67,0.78-4.21,0.78c-1.72,0-3.13-0.22-4.25-0.66c-1.12-0.44-1.93-1.11-2.44-2.01c-0.51-0.89-0.8-1.98-0.87-3.24
		c-0.07-1.27,0.1-3.17,0.52-5.71l1.27-7.66c0.46-2.78,1.08-4.95,1.85-6.51c0.77-1.56,1.9-2.82,3.39-3.76
		c1.49-0.95,3.27-1.42,5.34-1.42c1.74,0,3.18,0.3,4.33,0.91c1.15,0.61,1.98,1.4,2.49,2.38c0.52,0.98,0.81,1.98,0.89,3.02
		C170.68,44.55,170.54,46.12,170.19,48.24z M162.81,45.99c0.25-1.53,0.34-2.5,0.27-2.9c-0.07-0.4-0.34-0.6-0.8-0.6
		c-0.46,0-0.8,0.2-1.02,0.6c-0.22,0.4-0.46,1.36-0.71,2.9l-2.23,13.5c-0.23,1.41-0.31,2.33-0.23,2.76c0.08,0.43,0.35,0.64,0.8,0.64
		c0.46,0,0.8-0.2,1.01-0.59c0.21-0.39,0.42-1.23,0.64-2.52L162.81,45.99z"/>
	<path d="M162.84,73.31l6.83-41.24h14.21c0.93-0.31,1.81-0.46,2.6-0.52l7.21-0.55l-3.71,22.4h-4.53c-0.14,0.7-0.35,1.76-0.61,3.37
		l-2.74,16.55H162.84z"/>
	<path d="M182.23,37.74l-0.96,3.93c1.59-2.82,3.47-4.31,5.63-4.47l-1.74,10.52c-1.42,0-2.5,0.23-3.24,0.68
		c-0.74,0.45-1.25,1.08-1.54,1.88c-0.29,0.8-0.67,2.66-1.15,5.55l-1.95,11.81h-7.75l4.95-29.9H182.23z"/>
	<path d="M176.91,73.31l6.83-41.24h14.04c1.11-0.36,2.28-0.54,3.48-0.54c3.61,0,5.87,1.52,7.12,2.8c1.7,1.73,2.66,3.97,2.79,6.47
		c0.08,1.56-0.12,3.72-0.63,6.82l-4.25,25.7H176.91z"/>
	<path d="M196.43,37.74l-0.59,2.75c0.74-1.1,1.57-1.92,2.47-2.47c0.9-0.55,1.89-0.82,2.95-0.82c1.33,0,2.36,0.37,3.08,1.1
		c0.72,0.74,1.11,1.66,1.17,2.78c0.06,1.12-0.13,2.99-0.56,5.6l-3.47,20.96h-7.75l3.43-20.71c0.34-2.06,0.49-3.31,0.45-3.76
		c-0.04-0.45-0.32-0.68-0.85-0.68c-0.55,0-0.94,0.26-1.17,0.78c-0.23,0.52-0.53,1.9-0.9,4.16l-3.35,20.21h-7.75l4.95-29.9H196.43z"
		/>
	<path d="M220.6,74.08c-3.59,0-6.6-0.88-8.96-2.61c-2.65-1.95-4.25-4.75-4.63-8.11c-0.27-2.36-0.07-5.41,0.62-9.6l1.76-10.66
		c0.47-2.87,0.92-5.01,1.35-6.53c0.57-2.03,1.58-3.97,3.01-5.77c1.5-1.9,3.4-3.4,5.65-4.47c2.23-1.06,4.67-1.6,7.27-1.6
		c3.67,0,6.75,0.95,9.14,2.84c2.52,1.99,4.07,4.66,4.49,7.73c0.3,2.23,0.13,5.16-0.54,9.22l-0.47,2.84l-1.33,8.02
		c-0.72,4.36-1.5,7.37-2.44,9.45c-1.15,2.54-3.06,4.73-5.68,6.5C227.13,73.15,224.02,74.08,220.6,74.08z"/>
	<path d="M233.58,47.05h-8.08l1.05-6.34c0.3-1.84,0.41-2.99,0.31-3.45c-0.1-0.46-0.44-0.69-1.03-0.69c-0.67,0-1.13,0.28-1.4,0.83
		c-0.27,0.56-0.56,1.76-0.87,3.6l-2.81,16.95c-0.29,1.77-0.4,2.93-0.31,3.47c0.09,0.54,0.45,0.81,1.07,0.81
		c0.6,0,1.04-0.27,1.31-0.81c0.28-0.54,0.58-1.82,0.91-3.82l0.76-4.59h8.08l-0.24,1.42c-0.62,3.78-1.3,6.45-2.01,8.03
		c-0.72,1.58-1.95,2.96-3.7,4.15c-1.75,1.19-3.77,1.78-6.04,1.78c-2.37,0-4.23-0.5-5.6-1.51c-1.37-1.01-2.16-2.4-2.36-4.18
		c-0.2-1.78-0.01-4.46,0.58-8.03l1.76-10.66c0.44-2.63,0.84-4.6,1.21-5.92c0.37-1.31,1.04-2.58,2-3.8c0.96-1.22,2.18-2.17,3.64-2.87
		c1.47-0.7,3.07-1.05,4.83-1.05c2.38,0,4.25,0.54,5.62,1.62c1.37,1.08,2.16,2.43,2.38,4.04c0.22,1.61,0.05,4.12-0.52,7.53
		L233.58,47.05z"/>
	<polygon points="226.38,73.31 234.3,25.49 263.83,25.49 255.92,73.31 	"/>
	<path d="M257.14,31.16l-6.04,36.48h-7.08l-1.46-16.58l-2.75,16.58h-6.75l6.04-36.48h6.76l1.81,16.43l2.72-16.43H257.14z"/>
	<path d="M263.64,74.08c-3.59,0-6.6-0.88-8.96-2.61c-2.65-1.95-4.25-4.75-4.63-8.11c-0.27-2.36-0.07-5.41,0.62-9.6l1.76-10.66
		c0.47-2.87,0.92-5,1.35-6.53c0.57-2.03,1.59-3.97,3.01-5.77c1.5-1.9,3.4-3.4,5.65-4.47c2.23-1.06,4.67-1.6,7.27-1.6
		c3.67,0,6.75,0.95,9.14,2.84c2.52,1.99,4.07,4.66,4.49,7.73c0.3,2.23,0.13,5.16-0.54,9.22l-0.47,2.84l-1.33,8.02
		c-0.72,4.36-1.5,7.37-2.44,9.45c-1.15,2.54-3.06,4.73-5.68,6.5C270.17,73.15,267.07,74.08,263.64,74.08z"/>
	<path d="M276.62,47.05h-8.08l1.05-6.34c0.3-1.84,0.41-2.99,0.31-3.45c-0.1-0.46-0.44-0.69-1.03-0.69c-0.67,0-1.13,0.28-1.4,0.83
		c-0.27,0.56-0.56,1.76-0.87,3.6l-2.8,16.95c-0.29,1.77-0.4,2.93-0.31,3.47c0.09,0.54,0.45,0.81,1.07,0.81
		c0.6,0,1.04-0.27,1.31-0.81c0.28-0.54,0.58-1.82,0.91-3.82l0.76-4.59h8.08l-0.24,1.42c-0.62,3.78-1.3,6.45-2.01,8.03
		c-0.72,1.58-1.95,2.96-3.7,4.15c-1.75,1.19-3.77,1.78-6.04,1.78c-2.37,0-4.23-0.5-5.6-1.51c-1.37-1.01-2.16-2.4-2.36-4.18
		c-0.2-1.78-0.01-4.46,0.58-8.03l1.76-10.66c0.44-2.63,0.84-4.6,1.21-5.92c0.37-1.31,1.04-2.58,2-3.8c0.96-1.22,2.18-2.17,3.64-2.87
		c1.47-0.7,3.07-1.05,4.83-1.05c2.38,0,4.25,0.54,5.62,1.62c1.37,1.08,2.16,2.43,2.38,4.04c0.22,1.61,0.05,4.12-0.52,7.53
		L276.62,47.05z"/>
</g>
<g>
	<path class="st0" d="M129.22,30.56l-1.44,37.06h-8.39l0.66-6.66h-2.94l-1.6,6.66h-8.48l10.32-37.06H129.22z M120.92,54.39
		c0.28-4.2,0.72-9.38,1.33-15.56c-2.01,7.1-3.39,12.28-4.15,15.56H120.92z"/>
	<path class="st0" d="M149.47,48.71h-7.43l0.58-3.5c0.2-1.22,0.26-2.05,0.16-2.48c-0.1-0.43-0.37-0.65-0.83-0.65
		c-0.46,0-0.79,0.19-1.01,0.57c-0.22,0.38-0.44,1.24-0.66,2.56l-2.37,14.33c-0.18,1.08-0.2,1.9-0.05,2.44
		c0.14,0.54,0.44,0.81,0.9,0.81c0.53,0,0.94-0.28,1.22-0.85c0.28-0.56,0.55-1.63,0.81-3.2l0.6-3.62h7.02
		c-0.41,2.43-0.79,4.25-1.13,5.46c-0.34,1.21-0.98,2.46-1.92,3.73c-0.95,1.27-2.06,2.24-3.35,2.88c-1.29,0.65-2.81,0.97-4.55,0.97
		c-2.22,0-3.91-0.45-5.06-1.34c-1.15-0.89-1.86-2.14-2.14-3.75c-0.27-1.61-0.16-3.89,0.33-6.86l1.43-8.63
		c0.43-2.58,0.97-4.52,1.63-5.84c0.66-1.31,1.79-2.48,3.41-3.51s3.45-1.54,5.52-1.54c2.05,0,3.72,0.51,5.01,1.53
		c1.29,1.02,2.04,2.31,2.26,3.87C150.07,43.65,149.94,45.86,149.47,48.71z"/>
	<path class="st0" d="M169.76,47.91l-1.23,7.44c-0.45,2.73-0.9,4.73-1.34,6.01c-0.45,1.27-1.14,2.46-2.09,3.57
		c-0.95,1.11-2.07,1.92-3.36,2.45s-2.71,0.79-4.27,0.79c-1.74,0-3.18-0.23-4.31-0.67c-1.13-0.45-1.96-1.13-2.48-2.04
		c-0.52-0.91-0.82-2.01-0.89-3.3c-0.07-1.29,0.1-3.22,0.53-5.8l1.29-7.78c0.47-2.82,1.09-5.03,1.87-6.61
		c0.78-1.59,1.93-2.86,3.44-3.82s3.32-1.44,5.42-1.44c1.77,0,3.23,0.31,4.4,0.93c1.16,0.62,2.01,1.42,2.53,2.42s0.83,2.01,0.91,3.07
		C170.25,44.16,170.11,45.76,169.76,47.91z M162.26,45.62c0.26-1.56,0.35-2.54,0.27-2.94c-0.08-0.4-0.35-0.61-0.82-0.61
		s-0.81,0.2-1.04,0.61c-0.22,0.4-0.46,1.39-0.72,2.94l-2.27,13.71c-0.24,1.43-0.31,2.37-0.23,2.8s0.35,0.65,0.81,0.65
		c0.47,0,0.81-0.2,1.02-0.6c0.21-0.4,0.43-1.25,0.65-2.56L162.26,45.62z"/>
	<path class="st0" d="M181.99,37.24l-0.97,3.99c1.62-2.86,3.52-4.38,5.72-4.54l-1.77,10.69c-1.44,0-2.54,0.23-3.29,0.69
		c-0.75,0.46-1.27,1.1-1.56,1.91c-0.29,0.82-0.68,2.7-1.17,5.64l-1.99,11.99h-7.88l5.03-30.37H181.99z"/>
	<path class="st0" d="M196.41,37.24l-0.6,2.8c0.76-1.12,1.59-1.95,2.51-2.51c0.92-0.56,1.92-0.84,3-0.84c1.35,0,2.39,0.37,3.13,1.12
		c0.73,0.75,1.13,1.69,1.19,2.83c0.06,1.14-0.13,3.03-0.57,5.69l-3.52,21.29h-7.87l3.48-21.03c0.35-2.09,0.5-3.36,0.46-3.82
		c-0.04-0.46-0.33-0.69-0.86-0.69c-0.56,0-0.95,0.26-1.18,0.79c-0.23,0.53-0.53,1.93-0.91,4.22l-3.4,20.53h-7.88l5.03-30.37H196.41z
		"/>
	<path class="st0" d="M234.14,46.7h-8.21l1.07-6.44c0.31-1.87,0.42-3.04,0.32-3.51c-0.1-0.46-0.45-0.7-1.04-0.7
		c-0.68,0-1.15,0.28-1.43,0.85c-0.28,0.56-0.57,1.79-0.88,3.66l-2.85,17.21c-0.3,1.8-0.4,2.98-0.31,3.52
		c0.09,0.55,0.46,0.82,1.09,0.82c0.61,0,1.05-0.27,1.33-0.83c0.28-0.55,0.59-1.84,0.92-3.88l0.77-4.66h8.21l-0.24,1.44
		c-0.63,3.84-1.32,6.56-2.04,8.16c-0.73,1.6-1.98,3.01-3.76,4.22c-1.78,1.21-3.83,1.81-6.14,1.81c-2.4,0-4.3-0.51-5.69-1.53
		c-1.39-1.02-2.19-2.44-2.4-4.25c-0.21-1.81-0.01-4.53,0.59-8.16l1.79-10.83c0.44-2.67,0.85-4.67,1.23-6.01
		c0.38-1.33,1.05-2.62,2.03-3.86c0.98-1.24,2.21-2.21,3.7-2.92c1.49-0.71,3.12-1.06,4.9-1.06c2.42,0,4.32,0.55,5.71,1.65
		c1.39,1.1,2.2,2.46,2.42,4.1c0.22,1.64,0.05,4.19-0.52,7.65L234.14,46.7z"/>
	<path class="st0" d="M258.08,30.56l-6.13,37.06h-7.19l-1.48-16.85l-2.79,16.85h-6.86l6.13-37.06h6.86l1.84,16.69l2.76-16.69H258.08
		z"/>
	<path class="st0" d="M277.87,46.7h-8.21l1.07-6.44c0.31-1.87,0.42-3.04,0.32-3.51c-0.1-0.46-0.45-0.7-1.04-0.7
		c-0.68,0-1.15,0.28-1.43,0.85c-0.28,0.56-0.57,1.79-0.88,3.66l-2.85,17.21c-0.3,1.8-0.4,2.98-0.31,3.52
		c0.09,0.55,0.46,0.82,1.09,0.82c0.61,0,1.05-0.27,1.33-0.83c0.28-0.55,0.59-1.84,0.92-3.88l0.77-4.66h8.21l-0.24,1.44
		c-0.63,3.84-1.32,6.56-2.04,8.16c-0.73,1.6-1.98,3.01-3.76,4.22c-1.78,1.21-3.83,1.81-6.14,1.81c-2.4,0-4.3-0.51-5.69-1.53
		c-1.39-1.02-2.19-2.44-2.4-4.25c-0.21-1.81-0.01-4.53,0.59-8.16l1.79-10.83c0.44-2.67,0.85-4.67,1.23-6.01
		c0.38-1.33,1.05-2.62,2.03-3.86c0.98-1.24,2.21-2.21,3.7-2.92c1.49-0.71,3.12-1.06,4.9-1.06c2.42,0,4.32,0.55,5.71,1.65
		c1.39,1.1,2.2,2.46,2.42,4.1c0.22,1.64,0.05,4.19-0.52,7.65L277.87,46.7z"/>
</g>
<g>
	<path class="st1" d="M34.63,74.49c-2.14-0.59-7.34-2.05-12.26-5.71c-2.03-1.51-9.34-7.11-11.25-16.97
		c-0.5-2.59-1.62-8.34,1.51-13.94c2.29-4.08,5.7-6.05,7.73-7.22c1.34-0.77,8.07-4.65,15.79-3.02c7.32,1.55,12.2,7.34,12.43,7.06
		c0.19-0.23-0.46-1.17-3.99-5.81c-1.46-1.91-2.62-3.4-1.8-5.3c0.71-1.64,1.3-2.72,5.19-3.95c3.03-0.96,5.59-4.84,10.01-4.93
		c3.36-0.07,5.67-0.11,8.4,1.18c0.88,0.41,3.38,1.64,5.21,4.37c1.8,2.69,2.06,5.54,2.18,7.06c0.3,3.65-0.77,4.76,0.34,6.38
		c0.48,0.71,1.78,1.37,4.37,2.69c1.62,0.82,2.6,1.32,4.03,1.85c2.14,0.79,2.84,0.74,5.54,1.51c2.68,0.77,4.03,1.15,4.87,1.68
		c2.74,1.72,5.18,5.48,4.37,8.9c-0.38,1.61-1.37,2.65-2.35,3.7c-2.44,2.59-3.99,2.03-6.05,4.37c-0.58,0.66-2.45,2.78-2.18,5.38
		c0.2,1.96,1.53,3.34,2.86,4.7c2.28,2.35,3.65,2.25,4.54,4.2c0.18,0.39,0.96,2.26,0.17,3.86c-0.38,0.76-1.28,1.81-4.87,2.52
		c-3.01,0.59-4.94,0.35-10.25,0c-6.29-0.42-7.38-0.34-8.73,0c-3.04,0.76-2.79,1.67-5.88,2.52c-4.76,1.32-8.86,0.13-10.25-0.34
		c-2.34-0.79-2.83-1.54-5.21-2.86C43.74,75.42,40.64,76.14,34.63,74.49z"/>
	<g>
		<path class="st1" d="M59.26,17.99c0.88-0.08,1.78-0.05,2.64,0.18c0.1,0.03,0.2,0.05,0.28,0.13c-0.02,0.25-0.09,0.49-0.1,0.74
			c0.14,0.09,0.3,0.16,0.46,0.2c0.4,0.11,0.77,0.31,1.16,0.45c1.97,0.77,3.68,2.19,4.84,3.95c0.75,1.13,1.35,2.35,1.79,3.63
			c0.39,1.11,0.67,2.25,0.9,3.4c0.04,0.23-0.08,0.45-0.22,0.62c-0.38,0.47-0.7,0.97-1.09,1.42c-0.27,0.31-0.59,0.56-0.88,0.84
			c-0.7,0.63-1.42,1.24-2.21,1.76c-0.03,0.56-0.34,1.09-0.81,1.38c-0.85,0.59-1.94,0.54-2.92,0.45c-0.06,0.13-0.13,0.25-0.19,0.38
			c0.58,0.01,1.15,0.19,1.67,0.46c0.49,0.27,1.02,0.47,1.51,0.74c0.18,0.1,0.19,0.33,0.17,0.51c-0.09,0.55-0.43,1.02-0.7,1.5
			c0.65-0.13,1.32-0.17,1.97-0.28c0.68-0.11,1.37-0.1,2.06-0.16c0.8-0.09,1.61-0.01,2.41-0.02c0.8,0.06,1.61,0.09,2.41,0.18
			c1.07,0.12,2.15,0.23,3.19,0.54c1.11,0.22,2.2,0.59,3.23,1.07c0.64,0.3,1.31,0.58,1.92,0.94c0.69,0.35,1.31,0.82,1.94,1.27
			c1.02-0.57,2.22-0.82,3.38-0.74c0.47,0.05,0.94,0.05,1.4,0.17c0.97,0.23,1.87,0.77,2.52,1.53c0.7,0.85,0.98,2,0.83,3.08
			c-0.07,0.56-0.32,1.08-0.6,1.56c-0.26,0.48-0.66,0.89-1.14,1.16c-0.55,0.28-1.08,0.6-1.68,0.79c-0.69,0.21-1.4,0.3-2.12,0.3
			c-0.2-0.01-0.42-0.02-0.58,0.12c-0.02,0.41-0.13,0.81-0.17,1.22c-0.05,0.42-0.19,0.81-0.23,1.23c0.07,0.16,0.27,0.15,0.39,0.27
			c-0.01,0.04-0.04,0.12-0.06,0.15c-0.15-0.04-0.29-0.08-0.43-0.12c-0.12,0.35-0.29,0.68-0.39,1.04c0.21,0.07,0.42,0.15,0.61,0.27
			c-0.02,0.07-0.05,0.14-0.07,0.22c-0.22-0.05-0.43-0.13-0.64-0.18c-0.12,0.2-0.18,0.43-0.24,0.65c0.14,0.06,0.28,0.12,0.42,0.18
			c-0.03,0.06-0.06,0.11-0.1,0.17c-0.15-0.03-0.3-0.07-0.46-0.08c-0.34,0.52-0.65,1.07-1.01,1.58c-0.22,0.33-0.47,0.64-0.62,1.01
			c-0.24,0.59-0.43,1.19-0.68,1.77c-0.13,0.3-0.2,0.62-0.33,0.91c-0.16,0.36-0.2,0.75-0.32,1.13c-0.13,0.44-0.18,0.89-0.3,1.33
			c-0.2,0.75-0.25,1.53-0.33,2.3c-0.07,1.06-0.08,2.14,0.15,3.19c0.32-0.02,0.62-0.11,0.92-0.21c0.58-0.17,1.17-0.33,1.75-0.5
			c0.23-0.06,0.47-0.15,0.7-0.05c0.26,0.1,0.41,0.39,0.43,0.66c0.05,0.47-0.13,0.93-0.2,1.39c-0.07,0.38-0.16,0.75-0.21,1.13
			c0.49-0.31,0.94-0.69,1.48-0.92c0.26-0.11,0.54-0.21,0.81-0.3c0.64-0.1,1.32,0.07,1.87,0.41c0.83,0.5,1.65,1.08,2.13,1.94
			c-0.19,0.12-0.42,0.11-0.64,0.13c-1.42,0.08-2.83,0.23-4.25,0.24c-0.76,0.07-1.53,0.08-2.29,0.12c-0.32-0.01-0.64,0.06-0.95-0.02
			c0.15-0.67,0.37-1.33,0.53-2.01c0.1-0.43,0.3-0.84,0.33-1.28c-0.54,0.08-1.05,0.25-1.59,0.34c-1.29,0.28-2.54,0.72-3.84,0.98
			c-1.34,0.32-2.69,0.62-4.05,0.87c-1.26,0.21-2.51,0.44-3.77,0.68c-1.06,0.18-2.13,0.36-3.2,0.52c-1.27,0.2-2.56,0.34-3.8,0.68
			c-0.65,0.78-0.98,1.76-1.58,2.58c-0.24,0.3-0.77,0.4-1.05,0.1c-0.4-0.4-0.72-0.88-0.95-1.4c-0.1-0.23-0.2-0.47-0.36-0.67
			c-0.16,0.26-0.33,0.52-0.55,0.74c-0.14,0.14-0.31,0.25-0.46,0.38c-0.44,0.36-0.87,0.78-1.41,0.99c-0.26,0.11-0.55,0.12-0.82,0.17
			c-0.6,0.09-1.23,0.18-1.82,0c-0.28-0.07-0.51-0.27-0.76-0.4c-0.14-0.07-0.3-0.11-0.44-0.18c-0.14-0.08-0.11-0.3,0.03-0.38
			c0.69-0.51,1.48-0.86,2.2-1.33c0.53-0.33,1.07-0.67,1.59-1.01c-1.66-0.06-3.32-0.45-4.83-1.15c-0.99-0.49-1.86-1.2-2.76-1.84
			c-0.42-0.32-0.8-0.68-1.15-1.08c-0.59-0.66-1.18-1.34-1.67-2.09c-0.31-0.44-0.52-0.94-0.75-1.43c-0.86-1.77-1.22-3.73-1.44-5.67
			c-0.11-0.87-0.48-1.7-1.08-2.34c-0.69-0.76-1.64-1.25-2.63-1.49c-0.79-0.2-1.63-0.24-2.44-0.11c-0.77,0.1-1.46,0.52-2.06,1
			c-0.45,0.37-0.72,0.9-1.03,1.38c-0.7,1.07-1.2,2.29-1.3,3.57c-0.35-0.21-0.6-0.56-0.87-0.86c-0.34,1.17-0.28,2.44,0.06,3.6
			c0.27,0.91,0.66,1.79,1.25,2.55c0.37,0.47,0.8,0.89,1.26,1.26c-0.14,0.08-0.29,0.19-0.46,0.17c-0.83-0.1-1.64-0.33-2.4-0.68
			c-1.92-0.83-3.86-1.64-5.71-2.63c-1.84-0.98-3.58-2.15-5.13-3.55c-0.8-0.73-1.59-1.49-2.22-2.37c-0.52-0.73-0.97-1.5-1.4-2.29
			c-0.67-1.22-1.28-2.49-1.74-3.81c-0.55-1.56-0.89-3.23-0.74-4.89c-0.36,0.13-0.64,0.41-0.97,0.58c-0.02-0.51,0.32-0.94,0.38-1.44
			c-0.22,0.24-0.47,0.46-0.75,0.63c0.05-0.69-0.02-1.37,0.01-2.06c0.04-0.63,0.05-1.27,0.16-1.9c0.27-1.43,0.58-2.85,0.95-4.26
			c0.24-0.81,0.68-1.53,1.09-2.25c0.22-0.38,0.47-0.75,0.76-1.08c0.63-0.75,1.34-1.43,2.09-2.05c0.69-0.58,1.45-1.05,2.18-1.57
			c1.65-1.06,3.45-1.92,5.32-2.51c1.61-0.51,3.31-0.84,5.01-0.69c0.01-0.15,0.02-0.3,0.03-0.44c0.54,0.12,1.09,0.18,1.65,0.24
			c-0.4-0.3-0.87-0.56-1.08-1.04c0.21,0.02,0.41,0.06,0.62,0.11c2.69,0.64,5.3,1.67,7.66,3.12c1.62,1,3.13,2.18,4.5,3.5
			c0.32,0.32,0.64,0.64,1,0.91c1.59,1.32,2.97,2.89,4.18,4.56c0.6,0.84,1.16,1.71,1.65,2.62c0.53,1.12,1.22,2.18,1.53,3.39
			c0.68,1.78,0.98,3.68,1.13,5.57c0.16,2.05,0.16,4.12,0.49,6.16c0.12,1.09,0.2,2.2,0.54,3.25c0.24,0.7,0.54,1.39,0.99,1.98
			c0.48,0.66,1.24,1.09,2.04,1.19c-0.16-0.6-0.41-1.17-0.57-1.77c-0.17-0.54-0.3-1.09-0.48-1.63c-0.22-0.7-0.32-1.43-0.45-2.15
			c-0.26-1.3-0.53-2.61-0.6-3.94c-0.01-0.53-0.11-1.05-0.11-1.57c-0.07-0.78-0.13-1.57-0.18-2.35c-0.06-0.48-0.06-0.97-0.08-1.45
			c-0.03-0.58,0.04-1.15,0.08-1.73c0.06-0.48,0.08-0.96,0.16-1.44c0.09-0.52,0.11-1.06,0.08-1.59c-0.07-0.21-0.19-0.4-0.29-0.6
			c-0.74,0.51-1.61,0.77-2.46,1.02c-0.09,0.02-0.2,0.06-0.27-0.01c-0.7-0.55-1.12-1.39-1.27-2.26c-0.1-0.6-0.07-1.24,0.23-1.78
			c0.16-0.26,0.39-0.54,0.72-0.57c0.84-0.02,1.62,0.38,2.3,0.85c0.28,0.2,0.56,0.44,0.9,0.53c0.18,0,0.35-0.12,0.46-0.24
			c0.08-0.62,0.03-1.24,0.06-1.86c0.03-0.47-0.02-0.94,0-1.4c-0.09-0.27-0.07-0.56-0.06-0.83c-0.06-0.53-0.14-1.05-0.22-1.58
			c-0.04-0.27-0.29-0.55-0.58-0.5c-0.19,0.32-0.24,0.69-0.29,1.05c-0.44-0.03-0.87-0.09-1.29-0.23c-0.53-0.19-1.01-0.49-1.52-0.73
			c-0.26-0.12-0.52-0.25-0.72-0.46c-0.2-0.21-0.31-0.49-0.52-0.7c-0.74-0.67-1.18-1.6-1.5-2.53c-0.45-1.4-0.6-2.88-0.6-4.35
			c0.03-1.04,0.09-2.08,0.27-3.11c-1.71,0.48-3.5,0.16-5.23-0.08c-0.13-0.76,0.05-1.53,0.31-2.25c0.09-0.37,0.29-0.71,0.46-1.05
			c0.27,0.38,0.63,0.7,1.02,0.95c1.04,0.8,2.36,1.26,3.68,1.24c0.2-0.92,0.56-1.8,1.04-2.61c0.32-0.53,0.67-1.04,1.02-1.55
			c0.28-0.41,0.56-0.82,0.91-1.17c0.56-0.57,1.28-0.96,1.99-1.31C56.97,18.4,58.1,18.1,59.26,17.99z"/>
		<path class="st2" d="M55.79,78.74c-0.3,0-0.6-0.03-0.9-0.13c-0.25-0.07-0.44-0.19-0.62-0.3c-0.08-0.05-0.15-0.1-0.22-0.13
			c-0.05-0.02-0.1-0.04-0.17-0.07c-0.08-0.03-0.18-0.06-0.27-0.11l-0.02-0.01c-0.2-0.12-0.32-0.33-0.31-0.57
			c0-0.23,0.13-0.45,0.32-0.57c0.42-0.3,0.86-0.55,1.29-0.79c0.32-0.18,0.62-0.35,0.91-0.53l0.01-0.01c0.15-0.1,0.31-0.19,0.47-0.3
			c-1.27-0.18-2.52-0.54-3.66-1.08l-0.01,0c-0.8-0.39-1.51-0.91-2.19-1.42c-0.21-0.15-0.42-0.31-0.63-0.45l-0.01-0.01
			c-0.41-0.31-0.81-0.68-1.22-1.14c-0.58-0.65-1.19-1.35-1.71-2.13c-0.27-0.39-0.46-0.8-0.65-1.2c-0.05-0.1-0.09-0.19-0.14-0.28
			c-0.95-1.97-1.29-4.14-1.48-5.81c-0.09-0.78-0.44-1.52-0.96-2.08l0-0.01c-0.58-0.64-1.42-1.11-2.41-1.36
			c-0.74-0.18-1.52-0.22-2.26-0.1l-0.01,0c-0.58,0.08-1.18,0.37-1.84,0.9c-0.29,0.24-0.5,0.58-0.72,0.93
			c-0.07,0.11-0.14,0.23-0.21,0.34c-0.73,1.12-1.14,2.25-1.23,3.36l-0.06,0.72l-0.62-0.38c-0.14-0.08-0.26-0.18-0.38-0.29
			c-0.1,0.81-0.02,1.66,0.23,2.52c0.28,0.95,0.68,1.76,1.17,2.4c0.33,0.42,0.73,0.82,1.19,1.18l0.51,0.41l-0.56,0.33
			c-0.02,0.01-0.03,0.02-0.05,0.03c-0.15,0.09-0.39,0.23-0.68,0.21l-0.01,0c-0.87-0.1-1.73-0.34-2.53-0.72
			c-0.23-0.1-0.46-0.2-0.68-0.3c-1.68-0.72-3.41-1.47-5.05-2.35c-1.96-1.05-3.72-2.26-5.22-3.61c-0.75-0.68-1.61-1.49-2.29-2.44
			c-0.57-0.8-1.04-1.63-1.43-2.33c-0.77-1.41-1.35-2.68-1.77-3.87c-0.54-1.52-0.8-2.91-0.8-4.23c-0.09,0.06-0.18,0.12-0.28,0.17
			L15,51.47l-0.03-0.7c0-0.1,0-0.2,0.01-0.29l-0.45,0.25l0.07-0.83c0.03-0.36,0.02-0.72,0.01-1.1c-0.01-0.31-0.01-0.63,0-0.95
			l0-0.01c0.01-0.14,0.02-0.28,0.02-0.42c0.02-0.5,0.05-1.02,0.14-1.54c0.28-1.48,0.6-2.92,0.95-4.29l0-0.01
			c0.22-0.76,0.61-1.43,0.98-2.09c0.05-0.09,0.1-0.17,0.15-0.26c0.24-0.43,0.52-0.82,0.81-1.16c0.61-0.72,1.33-1.43,2.15-2.1
			c0.51-0.43,1.07-0.81,1.61-1.17c0.2-0.14,0.4-0.28,0.6-0.41l0.01-0.01c1.71-1.1,3.54-1.96,5.43-2.56c1.8-0.56,3.31-0.8,4.73-0.74
			c0,0,0-0.01,0-0.01l0.05-0.5l0.49,0.11c0.06,0.01,0.12,0.02,0.17,0.04c-0.04-0.07-0.08-0.14-0.11-0.21l-0.32-0.71l0.77,0.08
			c0.2,0.02,0.4,0.06,0.67,0.12c2.84,0.68,5.47,1.75,7.8,3.17c1.62,1,3.16,2.19,4.58,3.56l0.01,0.01c0.31,0.31,0.61,0.61,0.94,0.86
			l0.02,0.01c1.51,1.26,2.9,2.77,4.25,4.64c0.42,0.59,0.79,1.15,1.12,1.69c0.05-0.28,0.15-0.53,0.27-0.76l0.01-0.02
			c0.11-0.18,0.46-0.73,1.06-0.78l0.03,0c0.81-0.02,1.65,0.28,2.57,0.93c0.05,0.04,0.11,0.08,0.16,0.12
			c0.17,0.13,0.34,0.25,0.51,0.32c0,0,0,0,0,0c0.03-0.3,0.03-0.6,0.03-0.91c0-0.25,0-0.5,0.01-0.75c0.01-0.24,0.01-0.47,0-0.72
			c0-0.19-0.01-0.39-0.01-0.6c-0.08-0.27-0.07-0.53-0.06-0.77c0-0.04,0-0.07,0-0.11c-0.05-0.4-0.11-0.81-0.16-1.2
			c-0.01,0.07-0.02,0.14-0.03,0.21l-0.06,0.42l-0.42-0.03c-0.43-0.03-0.92-0.09-1.41-0.26c-0.37-0.13-0.7-0.31-1.03-0.47
			c-0.18-0.09-0.35-0.18-0.53-0.27l-0.03-0.01c-0.27-0.13-0.58-0.28-0.83-0.54l0,0c-0.12-0.13-0.21-0.27-0.29-0.39
			c-0.07-0.11-0.14-0.21-0.21-0.29c-0.69-0.63-1.2-1.49-1.62-2.71l0-0.01c-0.41-1.29-0.62-2.75-0.62-4.48l0-0.01
			c0.02-0.76,0.06-1.63,0.17-2.52c-1.44,0.25-2.89,0.04-4.3-0.16c-0.15-0.02-0.3-0.04-0.45-0.06l-0.32-0.04l-0.06-0.32
			c-0.12-0.72-0.02-1.5,0.32-2.45c0.09-0.33,0.23-0.62,0.38-0.9c0.04-0.07,0.07-0.14,0.11-0.21l0.33-0.69l0.44,0.62
			c0.22,0.31,0.52,0.59,0.9,0.84l0.03,0.02c0.89,0.69,1.97,1.08,3.05,1.14c0.22-0.83,0.56-1.63,1.01-2.39
			c0.29-0.49,0.61-0.96,0.92-1.41l0.11-0.16c0.29-0.43,0.59-0.85,0.96-1.23c0.61-0.62,1.38-1.04,2.12-1.4l0.01,0
			c1.1-0.51,2.28-0.83,3.49-0.94c1.06-0.1,1.98-0.03,2.8,0.2l0.03,0.01c0.02,0.01,0.03,0.01,0.05,0.02c0.1,0.03,0.27,0.08,0.41,0.23
			l0.13,0.14l-0.01,0.19c-0.01,0.15-0.03,0.29-0.06,0.42c0,0.01,0,0.02,0,0.02c0.03,0.01,0.06,0.02,0.08,0.02l0.01,0
			c0.27,0.07,0.52,0.18,0.76,0.28c0.15,0.06,0.29,0.12,0.43,0.17l0.01,0c2.04,0.8,3.83,2.26,5.05,4.13
			c0.76,1.15,1.38,2.41,1.84,3.73c0.36,1.04,0.66,2.17,0.92,3.46l0,0.01c0.05,0.32-0.05,0.64-0.31,0.98l0,0
			c-0.15,0.19-0.29,0.38-0.44,0.59c-0.21,0.28-0.42,0.57-0.66,0.85c-0.21,0.24-0.44,0.44-0.66,0.64c-0.09,0.08-0.17,0.15-0.26,0.23
			c-0.8,0.73-1.45,1.25-2.1,1.69c-0.1,0.61-0.46,1.17-0.99,1.5c-0.45,0.31-0.95,0.47-1.46,0.53c0.23,0.12,0.47,0.23,0.72,0.35
			c0.25,0.12,0.51,0.24,0.77,0.37c0.18,0.1,0.47,0.35,0.4,0.96l0,0.02c-0.05,0.31-0.16,0.58-0.29,0.84c0.05-0.01,0.1-0.01,0.15-0.02
			c0.31-0.04,0.6-0.07,0.89-0.12l0.01,0c0.46-0.08,0.93-0.1,1.38-0.12c0.24-0.01,0.48-0.02,0.72-0.04c0.55-0.06,1.09-0.05,1.62-0.03
			c0.27,0.01,0.56,0.02,0.83,0.01l0.02,0l0.02,0c0.29,0.02,0.59,0.04,0.89,0.06c0.5,0.03,1.02,0.07,1.54,0.12l0.25,0.03
			c0.99,0.11,2.01,0.23,2.99,0.52c1.14,0.23,2.25,0.6,3.31,1.1c0.14,0.07,0.29,0.13,0.44,0.2c0.5,0.23,1.02,0.46,1.51,0.76
			c0.63,0.32,1.2,0.74,1.76,1.14c1.01-0.5,2.2-0.74,3.37-0.66l0.02,0c0.12,0.01,0.25,0.02,0.38,0.03c0.35,0.03,0.71,0.05,1.08,0.15
			c1.07,0.26,2.04,0.85,2.75,1.67l0.01,0.01c0.75,0.92,1.1,2.2,0.93,3.43c-0.09,0.68-0.39,1.27-0.65,1.72
			c-0.3,0.55-0.76,1.02-1.3,1.33l-0.02,0.01c-0.13,0.06-0.26,0.13-0.38,0.2c-0.43,0.23-0.87,0.46-1.37,0.62
			c-0.7,0.21-1.44,0.32-2.23,0.32c-0.01,0-0.01,0-0.02,0l-0.02,0c-0.03,0-0.09,0-0.14,0c-0.02,0.15-0.04,0.29-0.07,0.43
			c-0.03,0.18-0.06,0.34-0.07,0.51l0,0.01c-0.03,0.23-0.08,0.46-0.13,0.67c-0.02,0.11-0.05,0.21-0.07,0.31
			c0.07,0.03,0.15,0.08,0.22,0.15l0.21,0.21l-0.1,0.27c-0.01,0.02-0.02,0.05-0.03,0.08c-0.01,0.03-0.02,0.06-0.03,0.08l-0.14,0.37
			l-0.38-0.09c-0.02,0-0.04-0.01-0.06-0.01c-0.01,0.01-0.01,0.03-0.02,0.04c-0.03,0.07-0.06,0.13-0.08,0.2
			c0.09,0.04,0.18,0.09,0.27,0.14l0.31,0.18l-0.11,0.34c-0.02,0.07-0.05,0.15-0.07,0.22l-0.13,0.38l-0.18-0.04l-0.19,0.37
			c-0.03,0.06-0.07,0.13-0.12,0.2l-0.17,0.26l-0.39-0.08c-0.02,0-0.04-0.01-0.06-0.01c-0.08,0.13-0.17,0.27-0.25,0.4
			c-0.19,0.31-0.39,0.63-0.61,0.94c-0.05,0.07-0.09,0.14-0.14,0.2c-0.17,0.24-0.33,0.47-0.43,0.72c-0.1,0.25-0.2,0.52-0.29,0.77
			c-0.12,0.33-0.24,0.67-0.39,1.01c-0.06,0.13-0.1,0.27-0.15,0.42c-0.05,0.16-0.11,0.33-0.18,0.5c-0.08,0.19-0.13,0.4-0.18,0.63
			c-0.03,0.15-0.07,0.3-0.12,0.45c-0.07,0.22-0.11,0.44-0.16,0.68c-0.04,0.21-0.08,0.42-0.14,0.64c-0.15,0.57-0.21,1.16-0.27,1.78
			c-0.01,0.15-0.03,0.29-0.05,0.44c-0.05,0.81-0.08,1.74,0.06,2.64c0.14-0.04,0.28-0.08,0.42-0.13l0.02-0.01l0.44-0.13
			c0.43-0.12,0.87-0.25,1.3-0.37l0.01,0c0.02-0.01,0.04-0.01,0.07-0.02c0.24-0.07,0.57-0.16,0.92-0.01c0.4,0.16,0.67,0.56,0.71,1.03
			c0.04,0.4-0.05,0.77-0.12,1.1c-0.03,0.14-0.06,0.27-0.08,0.4l0,0.01c-0.01,0.03-0.01,0.05-0.02,0.08
			c0.21-0.14,0.43-0.26,0.67-0.37c0.29-0.12,0.6-0.23,0.84-0.31l0.04-0.01l0.04-0.01c0.73-0.11,1.5,0.06,2.17,0.47
			c0.82,0.49,1.74,1.13,2.28,2.1l0.21,0.37l-0.36,0.23c-0.26,0.17-0.53,0.18-0.75,0.19c-0.03,0-0.06,0-0.1,0.01l-0.01,0
			c-0.49,0.03-0.99,0.06-1.47,0.1c-0.91,0.07-1.85,0.13-2.78,0.14c-0.55,0.05-1.11,0.07-1.65,0.09c-0.21,0.01-0.43,0.02-0.64,0.03
			l-0.02,0l-0.02,0c-0.09,0-0.19,0-0.3,0.01c-0.22,0.01-0.47,0.03-0.74-0.04l-0.42-0.11l0.1-0.43c0.08-0.36,0.18-0.72,0.28-1.06
			c0.09-0.31,0.18-0.63,0.25-0.95c0.04-0.17,0.09-0.34,0.15-0.5c0.01-0.04,0.02-0.07,0.03-0.11c-0.07,0.02-0.14,0.03-0.21,0.05
			c-0.23,0.06-0.46,0.11-0.7,0.16c-0.59,0.13-1.19,0.3-1.77,0.46c-0.67,0.19-1.36,0.38-2.06,0.52c-1.57,0.38-2.86,0.65-4.07,0.87
			c-1.33,0.22-2.56,0.45-3.76,0.68l-0.01,0c-0.31,0.05-0.62,0.1-0.92,0.15c-0.75,0.12-1.52,0.25-2.28,0.37
			c-0.31,0.05-0.63,0.1-0.94,0.14c-0.88,0.13-1.8,0.26-2.67,0.49c-0.28,0.36-0.5,0.78-0.74,1.21c-0.22,0.41-0.44,0.84-0.74,1.23
			l-0.01,0.01c-0.21,0.27-0.55,0.44-0.91,0.45c-0.32,0.01-0.61-0.1-0.81-0.31c-0.43-0.43-0.78-0.94-1.04-1.52
			c-0.05,0.07-0.11,0.13-0.18,0.19c-0.11,0.11-0.22,0.2-0.32,0.27c-0.06,0.04-0.11,0.09-0.16,0.13l-0.01,0.01
			c-0.08,0.06-0.16,0.13-0.24,0.2c-0.38,0.32-0.78,0.66-1.29,0.86c-0.24,0.1-0.49,0.13-0.7,0.16c-0.07,0.01-0.14,0.02-0.21,0.03
			l-0.01,0C56.57,78.68,56.19,78.74,55.79,78.74z M54.43,77.37c0.01,0.01,0.02,0.01,0.03,0.02c0.1,0.05,0.2,0.11,0.29,0.17
			c0.14,0.09,0.26,0.16,0.38,0.19l0.02,0.01c0.51,0.16,1.1,0.07,1.62-0.01c0.08-0.01,0.16-0.02,0.24-0.04
			c0.18-0.02,0.35-0.05,0.49-0.1l0.01,0c0.37-0.14,0.7-0.42,1.04-0.71c0.08-0.07,0.16-0.14,0.24-0.2c0.07-0.06,0.14-0.11,0.2-0.16
			c0.09-0.07,0.17-0.13,0.23-0.19l0.01-0.01c0.17-0.17,0.31-0.38,0.45-0.61l0.38-0.59l0.39,0.52c0.17,0.23,0.29,0.48,0.38,0.71
			l0.02,0.05c0.22,0.49,0.5,0.91,0.86,1.26l0.01,0.01c0.03,0.03,0.09,0.04,0.13,0.04c0.09,0,0.19-0.05,0.24-0.11
			c0.25-0.34,0.45-0.72,0.66-1.12c0.27-0.5,0.54-1.02,0.93-1.48l0.09-0.11l0.13-0.04c0.96-0.27,1.96-0.41,2.91-0.55
			c0.31-0.05,0.62-0.09,0.93-0.14c0.76-0.12,1.53-0.24,2.27-0.37c0.31-0.05,0.61-0.1,0.92-0.15c1.21-0.24,2.44-0.46,3.77-0.68
			c1.18-0.21,2.46-0.49,4.02-0.86l0.02,0c0.67-0.14,1.35-0.33,2.01-0.51c0.59-0.17,1.21-0.34,1.82-0.47l0.01,0
			c0.22-0.04,0.43-0.09,0.66-0.15c0.3-0.07,0.62-0.15,0.95-0.2l0.54-0.08l-0.03,0.55c-0.02,0.34-0.12,0.64-0.21,0.93
			c-0.05,0.15-0.09,0.29-0.13,0.43c-0.08,0.33-0.17,0.67-0.26,0.98c-0.05,0.16-0.09,0.33-0.14,0.5c0,0,0,0,0.01,0
			c0.12-0.01,0.24-0.02,0.37-0.01c0.21-0.01,0.42-0.02,0.63-0.03c0.54-0.02,1.09-0.04,1.63-0.09l0.04,0
			c0.91-0.01,1.84-0.07,2.74-0.14c0.45-0.03,0.92-0.07,1.39-0.09c-0.45-0.52-1.04-0.92-1.59-1.25l-0.01,0
			c-0.46-0.29-1.02-0.42-1.52-0.35c-0.28,0.09-0.51,0.17-0.74,0.27c-0.32,0.13-0.6,0.34-0.91,0.55c-0.16,0.11-0.33,0.23-0.51,0.34
			l-0.79,0.49l0.11-0.93c0.03-0.29,0.09-0.57,0.15-0.84c0.02-0.11,0.04-0.21,0.06-0.32c0.03-0.15,0.06-0.3,0.09-0.45
			c0.07-0.29,0.13-0.57,0.11-0.82l0-0.01c-0.01-0.13-0.07-0.24-0.15-0.27l-0.02-0.01c-0.06-0.03-0.21,0.02-0.33,0.05
			c-0.02,0.01-0.05,0.01-0.07,0.02c-0.43,0.13-0.87,0.25-1.3,0.37L82.9,70.7c-0.3,0.1-0.65,0.21-1.02,0.23l-0.38,0.02l-0.08-0.37
			c-0.25-1.14-0.22-2.31-0.15-3.31l0-0.02c0.02-0.15,0.03-0.3,0.05-0.44c0.06-0.63,0.13-1.28,0.3-1.92
			c0.05-0.19,0.09-0.38,0.12-0.58c0.05-0.25,0.1-0.51,0.18-0.78c0.04-0.12,0.07-0.26,0.1-0.39c0.06-0.26,0.12-0.52,0.24-0.78
			c0.05-0.13,0.1-0.27,0.15-0.41c0.05-0.16,0.11-0.33,0.18-0.5c0.13-0.31,0.25-0.64,0.37-0.96c0.1-0.26,0.19-0.54,0.3-0.8
			c0.14-0.34,0.34-0.62,0.53-0.9c0.05-0.06,0.09-0.13,0.13-0.19l0,0c0.2-0.29,0.4-0.6,0.58-0.91c0.14-0.22,0.28-0.44,0.42-0.67
			l0.07-0.1l0.01-0.04c0.06-0.22,0.14-0.5,0.29-0.75l0.01-0.02l0.05-0.17c0.07-0.24,0.16-0.46,0.25-0.68
			c0.06-0.13,0.11-0.26,0.15-0.39l0.08-0.23c0.03-0.22,0.08-0.43,0.12-0.63c0.05-0.2,0.09-0.38,0.11-0.57
			c0.02-0.2,0.05-0.38,0.08-0.57c0.04-0.22,0.07-0.43,0.08-0.63l0.01-0.2l0.15-0.12c0.29-0.24,0.64-0.23,0.88-0.22
			c0,0,0.01,0,0.01,0c0.7,0,1.36-0.09,1.97-0.28c0.41-0.13,0.8-0.33,1.21-0.55c0.13-0.07,0.26-0.14,0.39-0.2
			c0.4-0.23,0.74-0.58,0.96-0.98l0.01-0.01c0.22-0.37,0.47-0.87,0.54-1.39c0.14-0.99-0.14-2.01-0.73-2.74
			c-0.58-0.68-1.39-1.17-2.28-1.38l-0.01,0c-0.29-0.08-0.6-0.1-0.93-0.12c-0.13-0.01-0.26-0.02-0.4-0.03
			c-1.1-0.07-2.21,0.17-3.13,0.69l-0.25,0.14l-0.41-0.29c-0.54-0.4-1.11-0.81-1.7-1.11l-0.03-0.02c-0.45-0.27-0.93-0.49-1.43-0.72
			c-0.15-0.07-0.3-0.14-0.45-0.2c-1-0.47-2.05-0.82-3.13-1.04l-0.04-0.01c-0.92-0.27-1.9-0.38-2.86-0.49l-0.25-0.03
			c-0.49-0.06-1-0.09-1.5-0.12c-0.29-0.02-0.59-0.04-0.88-0.06c-0.29,0-0.57-0.01-0.85-0.01c-0.52-0.02-1.01-0.03-1.5,0.03l-0.01,0
			c-0.25,0.02-0.51,0.03-0.75,0.05c-0.44,0.02-0.86,0.04-1.27,0.11c-0.32,0.06-0.63,0.1-0.94,0.13c-0.35,0.04-0.69,0.08-1.02,0.15
			l-0.96,0.19l0.48-0.85c0.06-0.11,0.12-0.21,0.18-0.31c0.21-0.35,0.4-0.68,0.47-1.03c0-0.04,0-0.07,0-0.09
			c-0.21-0.11-0.43-0.21-0.66-0.32c-0.26-0.12-0.53-0.24-0.79-0.39c-0.5-0.26-0.99-0.4-1.46-0.41l-0.68-0.01l0.28-0.62
			c0.04-0.08,0.08-0.16,0.12-0.23c0.03-0.05,0.06-0.11,0.08-0.15l0.13-0.28l0.31,0.03c0.93,0.09,1.9,0.13,2.62-0.37l0.02-0.01
			c0.35-0.22,0.58-0.61,0.6-1.02l0.01-0.23l0.19-0.13c0.66-0.43,1.32-0.96,2.16-1.72c0.09-0.08,0.18-0.16,0.27-0.24
			c0.21-0.19,0.41-0.36,0.58-0.56c0.22-0.25,0.41-0.51,0.61-0.79c0.15-0.21,0.3-0.42,0.47-0.62c0.13-0.16,0.13-0.24,0.13-0.26
			c-0.24-1.24-0.53-2.33-0.88-3.33c-0.43-1.25-1.01-2.44-1.74-3.53c-1.12-1.71-2.76-3.05-4.63-3.78c-0.16-0.06-0.32-0.13-0.47-0.19
			c-0.22-0.09-0.43-0.18-0.64-0.24c-0.21-0.05-0.41-0.14-0.58-0.25l-0.22-0.14l0.02-0.26c0.01-0.15,0.03-0.29,0.06-0.42
			c0,0,0-0.01,0-0.01c-0.69-0.18-1.48-0.23-2.39-0.14l0,0c-1.11,0.1-2.18,0.38-3.19,0.85c-0.67,0.32-1.35,0.69-1.86,1.22
			c-0.32,0.33-0.59,0.71-0.86,1.11l-0.11,0.17c-0.3,0.44-0.62,0.9-0.89,1.36c-0.46,0.78-0.8,1.62-0.99,2.48l-0.08,0.34l-0.35,0.01
			c-1.4,0.03-2.8-0.44-3.94-1.32c-0.24-0.16-0.46-0.33-0.65-0.52c-0.05,0.12-0.1,0.24-0.13,0.36l-0.01,0.04
			c-0.24,0.66-0.35,1.21-0.32,1.7c0.04,0,0.07,0.01,0.11,0.01c1.53,0.22,3.12,0.44,4.6,0.03l0.68-0.19l-0.12,0.7
			c-0.18,1.06-0.23,2.14-0.26,3.04c0,1.63,0.19,3,0.58,4.2c0.36,1.07,0.8,1.82,1.37,2.34l0.01,0.01c0.15,0.14,0.25,0.3,0.35,0.45
			c0.06,0.1,0.13,0.19,0.19,0.26c0.14,0.14,0.35,0.24,0.57,0.35l0.02,0.01c0.19,0.09,0.38,0.19,0.56,0.28
			c0.31,0.16,0.61,0.32,0.92,0.43c0.24,0.09,0.51,0.14,0.76,0.17c0.05-0.26,0.13-0.54,0.29-0.8l0.11-0.17l0.2-0.04
			c0.23-0.04,0.47,0.02,0.67,0.16c0.23,0.17,0.39,0.44,0.43,0.72l0.03,0.24c0.06,0.44,0.13,0.9,0.18,1.35l0,0.03l0,0.03
			c0,0.05,0,0.1,0,0.15c0,0.2-0.01,0.39,0.04,0.54l0.03,0.08l0,0.08c-0.01,0.2,0,0.4,0,0.62c0.01,0.26,0.01,0.52,0,0.8
			c-0.01,0.23-0.01,0.46-0.01,0.71c0,0.38,0,0.78-0.05,1.18l-0.02,0.14l-0.09,0.1c-0.22,0.25-0.51,0.4-0.79,0.4c0,0,0,0-0.01,0
			l-0.06,0l-0.06-0.02c-0.35-0.1-0.64-0.31-0.88-0.49c-0.05-0.04-0.1-0.07-0.15-0.11c-0.75-0.53-1.4-0.78-2.01-0.77
			c-0.1,0.02-0.22,0.13-0.36,0.35c-0.26,0.49-0.24,1.08-0.17,1.49c0.13,0.77,0.5,1.46,1.01,1.9c0.76-0.22,1.61-0.47,2.29-0.94
			l0.43-0.3l0.23,0.48c0.03,0.06,0.06,0.12,0.09,0.18c0.07,0.14,0.16,0.3,0.21,0.47l0.02,0.06l0,0.06c0.03,0.58,0,1.15-0.09,1.69
			c-0.04,0.26-0.07,0.53-0.09,0.81c-0.02,0.2-0.04,0.4-0.06,0.6c-0.01,0.13-0.02,0.27-0.03,0.4c-0.04,0.44-0.07,0.85-0.05,1.26
			l0,0.01c0.01,0.14,0.01,0.28,0.02,0.42c0.01,0.35,0.02,0.67,0.06,1l0,0.02l0.02,0.28c0.05,0.68,0.1,1.37,0.16,2.06l0,0.02l0,0.02
			c0,0.26,0.03,0.53,0.05,0.81c0.02,0.24,0.05,0.49,0.05,0.74c0.07,1.29,0.33,2.6,0.58,3.86l0,0.02c0.03,0.18,0.07,0.37,0.1,0.54
			c0.09,0.54,0.18,1.05,0.34,1.55c0.1,0.31,0.19,0.62,0.27,0.93c0.07,0.23,0.13,0.47,0.2,0.71l0,0.01c0.08,0.27,0.17,0.54,0.27,0.82
			c0.11,0.31,0.22,0.63,0.31,0.96l0.17,0.64l-0.66-0.08c-0.95-0.12-1.8-0.62-2.35-1.37c-0.41-0.55-0.74-1.21-1.05-2.1l0-0.01
			c-0.3-0.93-0.4-1.89-0.5-2.82c-0.02-0.17-0.04-0.34-0.05-0.51c-0.22-1.39-0.29-2.81-0.37-4.18c-0.03-0.66-0.07-1.34-0.12-2
			c-0.17-2.19-0.52-3.92-1.1-5.44l-0.01-0.02l-0.01-0.02c-0.21-0.81-0.6-1.56-1.01-2.34c-0.16-0.31-0.33-0.63-0.49-0.96
			c-0.44-0.8-0.97-1.64-1.62-2.56c-1.3-1.8-2.64-3.26-4.09-4.46c-0.38-0.29-0.71-0.62-1.03-0.94l0,0c-1.37-1.32-2.86-2.48-4.42-3.44
			c-1.97-1.2-4.16-2.15-6.53-2.8l1.17,0.86l-1.65-0.18c-0.38-0.04-0.78-0.09-1.19-0.15l-0.03,0.4l-0.46-0.04
			c-1.42-0.13-2.96,0.09-4.83,0.67c-1.81,0.57-3.57,1.4-5.21,2.45c-0.2,0.14-0.41,0.28-0.61,0.42c-0.52,0.35-1.06,0.72-1.54,1.12
			c-0.78,0.64-1.46,1.31-2.04,1.99l0,0.01c-0.26,0.3-0.5,0.64-0.71,1.01c-0.05,0.09-0.1,0.17-0.15,0.26
			c-0.36,0.63-0.7,1.23-0.9,1.89c-0.35,1.35-0.66,2.77-0.94,4.22c-0.08,0.46-0.1,0.92-0.13,1.42c-0.01,0.14-0.01,0.28-0.02,0.42
			c-0.01,0.29-0.01,0.58,0,0.88c0,0.06,0,0.12,0,0.18l0.9-0.99l-0.17,1.39c-0.02,0.15-0.05,0.29-0.1,0.42
			c0.03-0.01,0.06-0.03,0.1-0.04l0.66-0.23l-0.06,0.69c-0.13,1.44,0.11,2.97,0.72,4.7c0.4,1.15,0.96,2.37,1.71,3.74
			c0.37,0.68,0.83,1.48,1.37,2.24c0.63,0.88,1.45,1.64,2.16,2.3c1.44,1.3,3.14,2.47,5.04,3.49c1.61,0.86,3.33,1.6,4.99,2.31
			c0.23,0.1,0.46,0.2,0.69,0.3l0.01,0c0.51,0.24,1.04,0.41,1.58,0.53c-0.19-0.19-0.36-0.39-0.52-0.6c-0.57-0.73-1.01-1.63-1.33-2.7
			c-0.39-1.32-0.41-2.66-0.06-3.86l0.22-0.77l0.54,0.6c0.07,0.08,0.13,0.15,0.2,0.23c0.01,0.01,0.01,0.01,0.02,0.02
			c0.2-0.97,0.62-1.94,1.24-2.9c0.07-0.1,0.13-0.21,0.2-0.32c0.25-0.41,0.51-0.83,0.92-1.16c0.79-0.64,1.53-0.99,2.28-1.1
			c0.85-0.13,1.76-0.09,2.61,0.12c1.17,0.29,2.15,0.85,2.85,1.62c0.65,0.7,1.08,1.62,1.2,2.59c0.18,1.61,0.51,3.68,1.4,5.53
			c0.05,0.1,0.09,0.19,0.14,0.29c0.18,0.38,0.35,0.75,0.58,1.07l0.01,0.01c0.48,0.73,1.07,1.41,1.63,2.03
			c0.36,0.41,0.72,0.75,1.08,1.02c0.21,0.15,0.43,0.31,0.63,0.46c0.69,0.5,1.33,0.98,2.06,1.34c1.43,0.67,3.04,1.06,4.65,1.11
			l1.44,0.05l-1.21,0.78c-0.6,0.39-1.11,0.71-1.6,1.01c-0.31,0.2-0.64,0.39-0.96,0.56C55.01,77.02,54.71,77.19,54.43,77.37z
			 M56.93,63.35c0.27,0.79,0.57,1.38,0.92,1.85c0.25,0.35,0.6,0.62,1.01,0.8c-0.02-0.04-0.03-0.09-0.05-0.13
			c-0.1-0.28-0.2-0.57-0.28-0.87c-0.07-0.24-0.14-0.49-0.21-0.72c-0.08-0.3-0.17-0.6-0.26-0.9c-0.18-0.56-0.28-1.12-0.37-1.67
			c-0.03-0.17-0.06-0.35-0.09-0.53l0-0.01c-0.26-1.3-0.53-2.64-0.6-3.99l0-0.01c-0.01-0.22-0.03-0.45-0.05-0.68
			c-0.03-0.29-0.06-0.58-0.06-0.88c-0.06-0.69-0.11-1.38-0.16-2.06l-0.02-0.27c-0.05-0.36-0.06-0.72-0.07-1.07
			c0-0.13-0.01-0.27-0.01-0.4c-0.03-0.47,0.01-0.93,0.05-1.38c0.01-0.13,0.02-0.27,0.03-0.4l0-0.03c0.02-0.19,0.04-0.38,0.06-0.58
			c0.03-0.28,0.05-0.58,0.1-0.87c0.07-0.45,0.1-0.93,0.08-1.43c-0.01-0.02-0.01-0.03-0.02-0.05c-0.7,0.39-1.47,0.61-2.16,0.81
			l-0.03,0.01c-0.01,0-0.02,0-0.03,0.01c-0.02,0-0.04,0.01-0.07,0.02c0.05,0.15,0.1,0.31,0.14,0.47c0.61,1.6,0.97,3.4,1.15,5.67
			c0.05,0.68,0.09,1.36,0.12,2.03c0.07,1.35,0.15,2.75,0.36,4.1l0,0.02c0.02,0.17,0.04,0.35,0.06,0.52
			C56.57,61.6,56.67,62.51,56.93,63.35z M61.89,18.65L61.89,18.65L61.89,18.65z"/>
	</g>
	<g>
		<path class="st1" d="M57.86,18.77c0.06,0.22,0.13,0.44,0.22,0.66c0.85-0.3,1.73-0.53,2.63-0.58c0.28-0.02,0.57,0.01,0.86-0.02
			c-0.27-0.17-0.59-0.23-0.9-0.27C59.72,18.45,58.77,18.55,57.86,18.77z"/>
		<path class="st1" d="M57.05,19.02c-0.95,0.31-1.82,0.82-2.61,1.42c-0.2,0.16-0.43,0.38-0.37,0.66c0,0.09,0.08,0.23,0.18,0.16
			c1.08-0.7,2.29-1.16,3.42-1.75c-0.08-0.2-0.13-0.43-0.28-0.58C57.27,18.93,57.16,19,57.05,19.02z"/>
		<path class="st1" d="M58.17,19.76c0.27,0.42,0.5,0.85,0.75,1.28c0.38,0.66,0.86,1.31,1.56,1.66c0.5-1.12,0.8-2.32,1.04-3.51
			C60.41,19.42,59.22,19.26,58.17,19.76z"/>
		<path class="st1" d="M61.89,19.77c-0.39,1.19-0.66,2.42-1.02,3.62c-0.09,0.3-0.11,0.61-0.17,0.91c-0.22,1.24-0.67,2.42-0.96,3.64
			c-0.13,0.52-0.28,1.04-0.35,1.57c0.08,0.44,0.08,0.89,0.12,1.34c0.04,0.83-0.38,1.6-0.41,2.43c0.85-0.91,1.19-2.19,2.16-2.99
			c0.58-0.42,1.45-0.24,1.89,0.29c0.53,0.66,0.46,1.68-0.07,2.32c-0.64,0.83-1.58,1.32-2.41,1.94c0.82-0.1,1.6-0.42,2.43-0.46
			c0.36-0.03,0.76,0.02,1.01,0.3c0.19,0.33,0.16,0.73,0.1,1.09c0.73-0.1,1.43-0.36,2.08-0.71c0.73-0.4,1.37-0.94,1.98-1.5
			c0.45-0.44,0.92-0.85,1.34-1.31c0.38-0.33,0.71-0.71,0.98-1.13c0.09-0.13,0.04-0.29,0.03-0.43c-0.04-0.4-0.15-0.79-0.24-1.18
			c-0.15-0.83-0.45-1.62-0.72-2.42c-0.51-1.63-1.35-3.18-2.53-4.42C65.73,21.21,63.86,20.24,61.89,19.77z"/>
		<path class="st1" d="M57.51,20.08c-1.14,0.32-2.18,0.91-3.12,1.62c0.21,0.89,0.9,1.54,1.37,2.3c1.28-0.52,2.6-1,3.96-1.27
			c-0.74-0.81-1.32-1.76-1.84-2.72C57.76,19.99,57.63,20.05,57.51,20.08z"/>
		<path class="st1" d="M52.97,22.36c0.25-0.21,0.55-0.36,0.76-0.61c0.14-0.18,0.05-0.43-0.05-0.61
			C53.31,21.44,53.12,21.91,52.97,22.36z"/>
		<path class="st1" d="M52,23.99c-0.33,0.6-0.24,1.34,0.05,1.93c1.1-0.55,2.16-1.18,3.28-1.71c-0.3-0.83-0.97-1.45-1.34-2.25
			C53.24,22.55,52.44,23.13,52,23.99z"/>
		<path class="st1" d="M56.13,24.28c0.62,0.72,1.16,1.52,1.9,2.13c0.42,0.36,0.94,0.59,1.48,0.71c0.54-1.28,0.74-2.68,0.95-4.05
			C58.95,23.2,57.51,23.71,56.13,24.28z"/>
		<path class="st1" d="M46.39,24.03c-0.2,0.21-0.3,0.5-0.37,0.78c-0.11,0.5-0.15,1.02-0.22,1.53l0.03,0.02
			c1.04,0.06,2.07,0.28,3.12,0.27c0.59,0.01,1.21-0.06,1.74-0.36c0.07-0.03,0.11-0.1,0.13-0.17c-0.13-0.06-0.27-0.07-0.41-0.08
			c-1.34-0.28-2.72-0.74-3.71-1.74C46.6,24.18,46.53,24.02,46.39,24.03z"/>
		<path class="st1" d="M52.38,26.21c0.4,0.9,1,1.7,1.59,2.49c1.47-0.56,2.95-1.11,4.49-1.45c-0.96-0.87-1.98-1.71-2.7-2.8
			C54.62,25,53.43,25.48,52.38,26.21z"/>
		<path class="st1" d="M51.36,25.64c-0.1,0.32-0.18,0.65-0.18,0.99c0.21-0.13,0.42-0.27,0.6-0.44c-0.1-0.28-0.18-0.56-0.25-0.84
			C51.44,25.43,51.39,25.54,51.36,25.64z"/>
		<path class="st1" d="M51.1,27.13c-0.04,0.27-0.08,0.53-0.1,0.8c-0.13,0.61-0.22,1.24-0.19,1.86c0.01,0.36,0.19,0.69,0.46,0.93
			c0.14-0.13,0.28-0.26,0.4-0.4c0.6-0.53,1.27-0.97,1.96-1.38c-0.57-0.78-1.01-1.67-1.66-2.4C51.68,26.73,51.41,26.96,51.1,27.13z"
			/>
		<path class="st1" d="M54.23,28.99c0.75,0.99,1.45,2.09,2.54,2.75c-0.09-0.44-0.24-0.88-0.29-1.33c-0.05-0.43-0.02-0.88,0.17-1.27
			c0.21-0.33,0.61-0.46,0.99-0.48c0.51-0.05,1.05,0.16,1.37,0.57c0.13-0.43,0.21-0.87,0.39-1.28c-0.14-0.15-0.3-0.33-0.52-0.32
			C57.25,27.81,55.74,28.43,54.23,28.99z"/>
		<path class="st1" d="M57.48,29.14c-0.19,0.06-0.39,0.17-0.46,0.37c-0.2,0.54-0.07,1.12-0.02,1.67c0.06,1.1,0.37,2.2,0.17,3.3
			c-0.07,0.49-0.42,0.93-0.88,1.09c-0.45-0.17-0.88-0.4-1.35-0.48c-0.66-0.09-1.35,0.18-1.76,0.71c-0.16,0.21-0.27,0.49-0.21,0.76
			c0.08,0.36,0.39,0.65,0.74,0.75c1.05-0.15,2.1-0.57,3.16-0.32c0.51,0.12,0.99,0.53,1.03,1.08c0.18,1.09,0.2,2.2,0.23,3.3
			c0,0.58-0.05,1.16-0.05,1.74c-0.01,0.72-0.11,1.44-0.12,2.16c-0.04,0.44-0.05,0.87-0.11,1.31c-0.07,0.62-0.08,1.24-0.17,1.85
			c-0.08,0.52-0.05,1.05-0.1,1.57c-0.09,0.99,0,1.98,0.04,2.96c0.05,0.53,0.11,1.06,0.15,1.59c0.1,1.35,0.28,2.7,0.42,4.05
			c0.23,1.38,0.44,2.76,0.8,4.11c0.15,0.58,0.25,1.17,0.46,1.73c0.42,1.16,0.74,2.35,1.2,3.5c0.4,1.15,0.87,2.27,1.29,3.42
			c0.49,1.05,0.94,2.12,1.49,3.15c-0.45,0.53-0.87,1.09-1.24,1.67c-0.1,0.14-0.3,0.12-0.43,0.06c-0.36-0.16-0.61-0.51-0.71-0.89
			c-0.14-0.56-0.3-1.11-0.52-1.64c-0.26,0.19-0.55,0.33-0.84,0.46c-0.45,0.2-0.85,0.5-1.29,0.73c-0.46,0.24-0.86,0.57-1.31,0.83
			c-0.54,0.34-1.06,0.7-1.62,1.01c-0.38,0.19-0.73,0.45-1.11,0.65c0.24,0.18,0.5,0.34,0.8,0.41c0.65,0.13,1.33,0.11,1.97-0.08
			c0.46-0.12,0.85-0.4,1.23-0.67c0.36-0.25,0.65-0.59,0.93-0.91c0.26-0.31,0.49-0.65,0.68-1.02c0.04-0.01,0.12-0.02,0.16-0.02
			c0.12,0.4,0.37,0.74,0.55,1.11c0.15,0.31,0.34,0.59,0.51,0.88c0.15,0.24,0.34,0.48,0.63,0.57c0.15-0.03,0.26-0.16,0.36-0.28
			c0.52-0.73,0.89-1.55,1.44-2.26c0.15-0.22,0.43-0.27,0.67-0.34c0.47-0.13,0.95-0.21,1.42-0.31c0.89-0.16,1.78-0.28,2.67-0.44
			c0.61-0.11,1.23-0.15,1.84-0.27c0.8-0.15,1.6-0.32,2.41-0.46c1.45-0.22,2.88-0.55,4.33-0.79c1.05-0.16,2.07-0.47,3.12-0.68
			c1.27-0.29,2.53-0.64,3.79-0.96c0.15-0.04,0.29-0.12,0.46-0.12c0.18,0.09,0.3,0.31,0.24,0.51c-0.08,0.32-0.14,0.64-0.19,0.96
			c-0.14,0.65-0.31,1.3-0.44,1.96c0.78-0.06,1.57-0.13,2.36-0.18c0.71-0.08,1.43-0.04,2.15-0.1c0.77-0.08,1.56-0.07,2.33-0.16
			c-0.3-0.53-0.86-0.83-1.38-1.11c-0.48-0.28-1.04-0.42-1.59-0.42c-0.49-0.03-0.93,0.23-1.36,0.42c-0.52,0.26-1.04,0.53-1.53,0.84
			c-0.03-0.04-0.08-0.11-0.1-0.15c0.12-0.49,0.16-1,0.27-1.49c0.09-0.43,0.13-0.86,0.13-1.3c-0.01-0.19-0.19-0.32-0.36-0.34
			c-0.48-0.06-0.94,0.11-1.39,0.23c-0.73,0.22-1.48,0.42-2.23,0.58c-0.1-0.26-0.17-0.53-0.18-0.81c-0.06-1.08-0.07-2.17,0.03-3.25
			c0.18-1.26,0.34-2.54,0.76-3.75c0.17-0.65,0.39-1.29,0.65-1.91c0.2-0.46,0.34-0.95,0.57-1.39c0.28-0.56,0.61-1.1,0.92-1.64
			c0.24-0.44,0.59-0.82,0.78-1.29c-0.08-0.06-0.17-0.13-0.22-0.22c0.1,0.01,0.21,0.03,0.31,0.04c0.1-0.23,0.2-0.46,0.31-0.68
			c-0.08-0.06-0.17-0.11-0.26-0.17c0.03-0.05,0.07-0.09,0.1-0.13c0.08,0.01,0.16,0.04,0.24,0.05c0.12-0.27,0.23-0.56,0.33-0.84
			c0.31-0.94,0.69-1.89,0.69-2.9c-0.2,0.07-0.39,0.15-0.58,0.23c-0.02,0.3-0.02,0.61-0.14,0.89c-0.13,0.32-0.18,0.67-0.4,0.94
			c-0.27,0.35-0.69,0.55-1.1,0.68c-0.42,0.14-0.93,0.06-1.26-0.24c-0.25-0.22-0.52-0.41-0.72-0.68c-0.09-0.12-0.16-0.25-0.29-0.33
			c-0.13-0.01-0.26,0.04-0.38,0.07c-0.65,0.18-1.29,0.4-1.95,0.57c-0.03,0.39-0.08,0.8-0.34,1.11c-0.52,0.75-1.57,1.06-2.41,0.69
			c-0.53-0.25-0.91-0.73-1.17-1.24c-0.49,0.09-0.98,0.09-1.48,0.15c-0.37,0.05-0.75,0-1.12,0.02c-0.33,0.01-0.66,0.04-1,0.05
			c-0.1,0.51-0.27,1.04-0.66,1.4c-0.3,0.26-0.71,0.27-1.08,0.38c-0.23,0.15-0.35,0.41-0.47,0.65c-0.14,0.32-0.34,0.62-0.44,0.96
			c-0.17,0.5-0.25,1.02-0.37,1.54c-0.08,0.35-0.09,0.7-0.12,1.06c-0.06,0.74-0.07,1.5,0.05,2.24c0.04,0.28,0.16,0.55,0.26,0.82
			c1.08,0.27,1.88,1.14,2.42,2.07c0.55-0.29,1.11-0.62,1.51-1.11c0.24-0.28,0.47-0.59,0.8-0.76c0.09-0.05,0.19,0.01,0.27,0.06
			c0.19,0.14,0.28,0.37,0.36,0.59c0.18,0.59,0.02,1.25-0.32,1.76c-0.08-0.2-0.06-0.42-0.02-0.62c0.08-0.47,0-0.95-0.15-1.4
			c-0.55,0.43-0.96,1.02-1.55,1.39c-0.24,0.17-0.52,0.3-0.74,0.5c0.17,0.4,0.22,0.83,0.3,1.24c0.1,0.5,0.05,1.01,0.04,1.52
			c-0.02,0.57-0.24,1.11-0.48,1.63c-0.34,0.73-0.95,1.29-1.6,1.76c-0.45,0.35-1.01,0.47-1.55,0.62c-1.25,0.25-2.58,0.2-3.79-0.24
			c-0.4-0.18-0.74-0.47-1.09-0.73c-0.3-0.24-0.5-0.57-0.67-0.91c-0.23-0.46-0.4-1-0.24-1.52c0.08-0.47,0.28-0.91,0.61-1.26
			c0.37-0.42,0.83-0.75,1.29-1.06c0.3-0.2,0.45-0.56,0.54-0.9c0.09-0.38-0.04-0.77-0.22-1.11c-0.1-0.32-0.47-0.34-0.67-0.56
			c-0.22-0.23-0.46-0.43-0.67-0.67c-0.46-0.62-0.94-1.25-1.2-1.99c-0.14-0.3-0.3-0.6-0.39-0.92c-0.17-0.47-0.39-0.91-0.49-1.4
			c-0.15-0.62-0.37-1.22-0.48-1.85c-0.2-1-0.22-2.02-0.38-3.02c-0.08-0.85-0.2-1.71-0.19-2.57c0.01-0.63-0.14-1.27-0.07-1.9
			c0.02-0.23,0.07-0.48-0.04-0.7c-0.13-0.28-0.24-0.57-0.32-0.87c-0.1-0.38-0.24-0.74-0.31-1.12c-0.03-0.16-0.09-0.31-0.15-0.46
			c-0.05,0.06-0.1,0.11-0.14,0.17c-0.08,0.52-0.03,1.05-0.09,1.58c-0.01,0.54,0,1.08-0.12,1.61c-0.08,0-0.17,0-0.25-0.01
			c-0.05-1.73,0.08-3.46,0.22-5.18c0.07-1.06,0.2-2.11,0.24-3.17c0.09-0.92,0.08-1.85,0.08-2.77c-0.01-0.54-0.08-1.07-0.13-1.61
			c0.48-0.27,0.83-0.74,0.97-1.27c0.73,0.09,1.48,0.14,2.19-0.08c0.38-0.11,0.74-0.31,1-0.62c0.23-0.25,0.42-0.56,0.45-0.9
			c0.03-0.26-0.19-0.52-0.45-0.54c-0.43-0.04-0.87,0.05-1.28,0.17c-0.53,0.11-1.06,0.27-1.58,0.4c-0.17-0.18-0.28-0.41-0.35-0.65
			c0.42-0.22,0.82-0.48,1.2-0.77c0.52-0.4,1.08-0.82,1.39-1.41c0.29-0.49,0.33-1.12,0.09-1.64c-0.1-0.21-0.31-0.35-0.53-0.4
			c-0.21-0.06-0.44-0.1-0.64,0.01c-0.48,0.29-0.83,0.76-1.12,1.23c-0.4,0.69-0.77,1.41-1.32,1.99c-0.18,0.05-0.36-0.01-0.53-0.03
			c0.09-0.43,0.13-0.87,0.18-1.31c0.15-0.81,0.32-1.68,0.02-2.48C58.73,29.32,58.06,28.95,57.48,29.14z"/>
		<path class="st1" d="M51.78,30.69c-0.12,0.08-0.25,0.15-0.35,0.25c0.29,0.48,0.61,0.98,1.05,1.34c0.26,0.33,0.59,0.61,0.88,0.92
			c0.92-0.5,1.89-0.89,2.88-1.24c-0.87-0.85-1.67-1.78-2.42-2.74C53.09,29.63,52.46,30.19,51.78,30.69z"/>
		<path class="st1" d="M34.74,31.08c0.19,0.32,0.44,0.6,0.68,0.89c-0.05-0.01-0.15-0.03-0.2-0.04c0.01,0.04,0.04,0.12,0.06,0.16
			c-0.57-0.28-1.19-0.45-1.83-0.44c0.15,0.26,0.35,0.48,0.55,0.69c-1.48-0.26-3.01-0.2-4.48,0.06c-1.9,0.35-3.75,1-5.47,1.89
			c-1.72,0.9-3.32,2.05-4.66,3.46c-0.79,0.81-1.54,1.69-2.06,2.7c-0.39,0.79-0.82,1.57-1.02,2.44c-0.16,0.7-0.35,1.4-0.49,2.11
			c-0.25,1.16-0.44,2.37-0.21,3.56c0.24-0.18,0.46-0.4,0.75-0.48c-0.04,0.37-0.1,0.76,0.04,1.11c0.17,0.04,0.35,0.05,0.53,0.09
			c0.01,0.75-0.03,1.51,0.04,2.26c0.08,1.23,0.26,2.47,0.67,3.64c0.41,1.2,1.08,2.28,1.62,3.42c0.37,0.8,0.92,1.5,1.4,2.24
			c0.34,0.51,0.75,0.96,1.17,1.4c0.55,0.55,1.1,1.12,1.73,1.58c0.84,0.63,1.78,1.12,2.65,1.71c0.41,0.27,0.83,0.51,1.24,0.78
			c1.18,0.74,2.42,1.39,3.7,1.95c0.4,0.17,0.8,0.36,1.23,0.47c0.56,0.23,1.13,0.46,1.73,0.58c-0.39-0.28-0.81-0.5-1.18-0.8
			c-1.78-1.33-3.15-3.13-4.24-5.05c-0.46-0.83-0.9-1.68-1.24-2.57c-0.31-1.01-0.48-2.06-0.57-3.11c-0.11-1.49,0.03-3.01,0.49-4.44
			c0.2-0.59,0.5-1.13,0.8-1.66c0.22-0.42,0.47-0.87,0.92-1.08c-0.07,0.28-0.33,0.54-0.23,0.85c0.13,0.58,0.45,1.09,0.82,1.54
			c0.22-0.38,0.45-0.76,0.69-1.13c0.48-0.7,0.95-1.44,1.66-1.92c0.9-0.57,1.91-0.98,2.95-1.18c1.02-0.2,2.07-0.15,3.1-0.04
			c0.68,0.09,1.36,0.2,2.01,0.45c1.09,0.41,2.06,1.08,2.97,1.79c0.8,0.6,1.48,1.33,2.24,1.97c-0.27-0.01-0.55-0.02-0.82,0.05
			c0.13,0.23,0.35,0.38,0.57,0.51c0.56,0.34,1.02,0.82,1.38,1.36c0.46,0.67,0.78,1.44,1.04,2.21c0.42,1.24,0.57,2.56,0.86,3.83
			c0.16,0.69,0.4,1.36,0.6,2.04c0.25,0.8,0.53,1.59,0.93,2.32c0.4,0.72,0.74,1.47,1.22,2.14c0.24,0.37,0.54,0.69,0.77,1.06
			c0.63,0.92,1.33,1.8,2.13,2.58c0.32,0.29,0.61,0.62,0.95,0.9c0.5,0.42,1.05,0.76,1.62,1.06c0.83,0.42,1.7,0.78,2.61,0.96
			c0.43-0.14,0.72-0.53,1.13-0.7c0.13-0.05,0.28-0.06,0.4,0.03c0.16,0.22,0.15,0.52,0.32,0.74c0.5-0.09,0.99-0.23,1.44-0.45
			c-0.37-0.67-0.67-1.37-1.01-2.05c-0.14-0.31-0.32-0.59-0.44-0.91c-0.27-0.66-0.56-1.31-0.82-1.98c-0.2-0.48-0.34-0.99-0.54-1.48
			c-0.55,0.01-1.12-0.09-1.61-0.36c-0.32-0.17-0.57-0.44-0.78-0.72c-0.54-0.75-0.98-1.57-1.26-2.45c-0.3-0.96-0.44-1.97-0.53-2.97
			c-0.06-0.79-0.17-1.58-0.26-2.36c-0.06-0.47-0.06-0.93-0.1-1.4c-0.04-0.66-0.04-1.32-0.11-1.98c-0.12-1.13-0.12-2.28-0.34-3.39
			c-0.14-0.71-0.35-1.41-0.5-2.13c-0.2-0.89-0.68-1.67-1.04-2.5c-0.34-0.99-0.91-1.88-1.48-2.75c-0.66-0.98-1.41-1.9-2.18-2.8
			c-1.04-1.3-2.17-2.54-3.46-3.61c-0.24-0.21-0.51-0.39-0.75-0.6c-0.38-0.33-0.74-0.68-1.1-1.02c-1.58-1.36-3.36-2.49-5.24-3.38
			C37.59,32.02,36.19,31.47,34.74,31.08z"/>
		<path class="st1" d="M50.98,31.31c-0.11,1.08,0.37,2.08,0.6,3.11c0.51-0.3,1-0.63,1.46-0.99C52.35,32.73,51.79,31.89,50.98,31.31z
			"/>
		<path class="st1" d="M53.72,33.43c0.46,0.87,1.43,1.21,2.23,1.68c0.13,0.09,0.29,0.03,0.42-0.04c0.25-0.15,0.4-0.42,0.45-0.7
			c0.13-0.72,0-1.45-0.03-2.18C55.74,32.54,54.65,32.83,53.72,33.43z"/>
		<path class="st1" d="M51.83,34.81c0.19,0.42,0.35,0.9,0.75,1.18c0.11-0.3,0.21-0.63,0.45-0.84c0.37-0.33,0.87-0.42,1.34-0.47
			c0-0.01,0.01-0.04,0.01-0.05c-0.37-0.29-0.77-0.57-1.04-0.96C52.85,34.06,52.15,34.23,51.83,34.81z"/>
		<path class="st1" d="M63.87,36.41c-0.09,0.14-0.2,0.26-0.3,0.39c0.45,0.02,0.89-0.04,1.34-0.09c0.33-0.04,0.61-0.22,0.88-0.39
			c0.27-0.16,0.44-0.43,0.55-0.72C65.56,36,64.73,36.29,63.87,36.41z"/>
		<path class="st1" d="M60.5,37.36c-0.02,0.09-0.1,0.17-0.08,0.26c0.18,0.97,0.24,1.96,0.26,2.94c0.02,0.51,0.01,1.03-0.01,1.54
			c0.42-0.23,0.83-0.47,1.24-0.71c0.04-0.4,0.01-0.8,0.02-1.19c0-0.19,0.02-0.38-0.03-0.56c-0.13-0.34-0.19-0.7-0.22-1.06
			c0-0.22-0.01-0.49,0.19-0.63c0.26-0.16,0.48-0.38,0.65-0.63C61.85,37.45,61.17,37.41,60.5,37.36z"/>
		<path class="st1" d="M54.87,37.57c0.41,0.35,0.91,0.66,1.47,0.68c0.13-0.25,0.18-0.54,0.27-0.81
			C56.04,37.22,55.43,37.43,54.87,37.57z"/>
		<path class="st1" d="M62.21,38.23c-0.27,0.36-0.18,0.85-0.05,1.24c0.24,0.55,0.63,1.02,1.11,1.39c0.12-0.03,0.24-0.07,0.35-0.11
			c-0.15-0.21-0.31-0.43-0.38-0.68c-0.22-0.69-0.16-1.44,0-2.14C62.88,37.88,62.44,37.91,62.21,38.23z"/>
		<path class="st1" d="M63.38,39.19c0.02,0.5,0.18,1.01,0.52,1.39c0.25,0.15,0.56,0.12,0.84,0.1c0.1,0,0.19-0.01,0.29-0.02
			c0.4-0.46,0.85-0.98,0.83-1.63c-0.36-0.25-0.73-0.52-1.15-0.65c-0.26-0.09-0.53-0.18-0.8-0.25c-0.1-0.05-0.19-0.11-0.3-0.16
			C63.42,38.35,63.42,38.79,63.38,39.19z"/>
		<path class="st1" d="M59.65,38.86c0.1,1.3,0.16,2.61,0,3.9c0.22-0.15,0.45-0.28,0.66-0.44c0.01-0.48,0.01-0.97,0.01-1.45
			c0-0.32-0.07-0.63-0.06-0.95c-0.03-0.61-0.15-1.22-0.23-1.83C59.86,38.32,59.63,38.55,59.65,38.86z"/>
		<path class="st1" d="M62.29,41.22c0.17-0.08,0.35-0.15,0.53-0.22c-0.18-0.18-0.36-0.37-0.52-0.58
			C62.3,40.69,62.31,40.95,62.29,41.22z"/>
		<path class="st1" d="M68.1,40.78c-0.82,0.08-1.65,0.13-2.48,0.22c-0.71,0.08-1.42,0.03-2.13,0.1c-0.36,0.05-0.7,0.2-1.04,0.35
			c-1.01,0.47-1.91,1.13-2.84,1.75c-0.15,1.29-0.26,2.59-0.34,3.89c0.2-0.16,0.4-0.33,0.66-0.39c0.4-0.09,0.81-0.02,1.2,0.07
			c-0.4,0.27-0.92,0.23-1.36,0.41c0.18,0.64,0.24,1.31,0.45,1.95c0.14,0.43,0.27,0.86,0.49,1.26c0.12,0.24,0.3,0.45,0.43,0.69
			c0.46,0.78,1.22,1.31,1.97,1.77c0.57,0.37,1.22,0.6,1.86,0.84c1.2,0.46,2.46,0.78,3.74,0.87c0.94,0.18,1.89,0.22,2.84,0.18
			c1.06-0.04,2.13-0.08,3.19-0.19c0.7-0.09,1.41-0.1,2.11-0.2c0.54-0.08,1.09-0.09,1.62-0.23c0.8-0.19,1.59-0.4,2.38-0.62
			c1.06-0.28,2.08-0.68,3.14-0.93c0.54-0.13,1.04-0.39,1.56-0.58c-0.68-0.11-1.33-0.35-1.98-0.58c-0.52-0.2-1.04-0.41-1.5-0.73
			c-0.45-0.32-0.73-0.83-0.88-1.35c-0.13-0.45-0.22-0.95-0.08-1.41c0.18-0.58,0.44-1.14,0.78-1.64c0.51-0.76,1.25-1.36,2.08-1.74
			c-0.28-0.16-0.54-0.35-0.8-0.54c-0.34-0.25-0.71-0.45-1.07-0.68c-0.52-0.32-1.02-0.66-1.59-0.87c-0.46-0.18-0.9-0.4-1.38-0.54
			c-1.2-0.38-2.4-0.82-3.66-0.95c-0.69-0.08-1.38-0.2-2.08-0.24c-0.84-0.05-1.68-0.06-2.52-0.08C69.96,40.62,69.03,40.7,68.1,40.78z
			"/>
		<path class="st1" d="M53.74,43.65c-0.09,0.15-0.12,0.35-0.02,0.5c0.87,0.17,1.74,0.4,2.53,0.8c0.35,0.19,0.72,0.39,0.95,0.72
			c0.17,0.22,0.1,0.54,0.29,0.76c0.12-0.64,0.11-1.31,0.17-1.96c-0.08,0.08-0.15,0.16-0.22,0.25c-0.76-0.29-1.33-0.91-2.04-1.27
			c-0.29-0.16-0.63-0.3-0.97-0.23C54.17,43.27,53.88,43.4,53.74,43.65z"/>
		<path class="st1" d="M86.94,43.93c-0.69,0.08-1.33,0.37-1.99,0.57c-0.46,0.14-0.93,0.3-1.31,0.61c-0.45,0.31-0.9,0.63-1.21,1.08
			c-0.24,0.33-0.43,0.68-0.66,1.02c-0.41,0.7-0.5,1.6-0.19,2.35c0.15,0.36,0.43,0.66,0.75,0.87c0.38,0.26,0.82,0.42,1.25,0.6
			c0.67,0.29,1.38,0.52,2.1,0.63c0.56,0.09,1.12,0.08,1.69,0.1c0.45,0.01,0.91-0.01,1.35-0.13c0.65-0.19,1.31-0.38,1.89-0.75
			c0.73-0.45,1.37-1.09,1.69-1.89c0.17-0.42,0.15-0.89,0.13-1.34c-0.03-0.62-0.16-1.24-0.48-1.78c-0.27-0.45-0.66-0.81-1.08-1.1
			c-0.33-0.23-0.68-0.47-1.08-0.55c-0.34-0.07-0.66-0.23-1.01-0.26C88.15,43.9,87.54,43.87,86.94,43.93z"/>
		<path class="st1" d="M53.5,44.94c-0.01,0.38,0.07,0.77,0.22,1.12c0.17,0.42,0.47,0.81,0.88,1c0.21,0,0.42-0.03,0.62-0.1
			c0.55-0.18,1.08-0.41,1.55-0.73c0.12-0.09,0.24-0.18,0.35-0.28c-0.23-0.24-0.48-0.45-0.75-0.64c-0.8-0.56-1.78-0.75-2.73-0.93
			C53.47,44.5,53.52,44.76,53.5,44.94z"/>
		<path class="st1" d="M34.12,49.29c-1.12,0.33-2.21,0.94-2.9,1.91c-0.61,0.81-0.9,1.8-1.46,2.64c-0.54-0.52-0.73-1.27-1.16-1.86
			c-0.62,0.96-0.99,2.06-1.21,3.17c-0.26,1.45-0.18,2.95,0.18,4.37c0.57,2.24,1.65,4.34,3.08,6.15c0.51,0.63,1.03,1.26,1.66,1.78
			c0.44,0.43,0.97,0.77,1.52,1.05c-0.21-0.88-0.5-1.73-0.71-2.61c-0.24-1.03-0.41-2.13-0.11-3.17c0.14-0.47,0.37-0.94,0.73-1.28
			c0.18,0.29,0.25,0.63,0.37,0.95c0.56-1.04,0.89-2.21,1.63-3.14c0.81-1.06,2.03-1.81,3.36-2.01c0.98-0.15,1.98,0.05,2.91,0.35
			c0.7,0.24,1.42,0.48,1.99,0.96c0.46,0.38,0.7,0.93,0.95,1.46c0.82,1.87,0.82,3.97,1.41,5.9c0.57,1.78,1.64,3.36,2.94,4.68
			c0.66,0.66,1.39,1.24,2.16,1.76c1.1,0.74,2.3,1.37,3.6,1.68c1.07,0.24,2.15,0.41,3.25,0.41c0.24,0,0.41-0.18,0.6-0.29
			c-0.74-0.23-1.51-0.39-2.23-0.7c-1.01-0.45-1.9-1.13-2.69-1.9c-1.54-1.52-2.79-3.32-3.9-5.17c-0.31-0.54-0.65-1.06-0.88-1.63
			c-0.39-0.95-0.59-1.96-0.88-2.95c-0.28-1.04-0.56-2.08-0.76-3.14c-0.11-0.54-0.19-1.09-0.42-1.6c-0.26-0.8-0.71-1.53-1.24-2.17
			c-0.57-0.66-1.27-1.24-2.07-1.6c-0.29-0.16-0.61-0.27-0.92-0.36c0.05-0.03,0.15-0.08,0.2-0.11c0.33-0.16,0.68-0.27,1.03-0.37
			c-0.98-0.97-2.1-1.81-3.34-2.43C38.77,48.98,36.34,48.67,34.12,49.29z"/>
		<path class="st1" d="M60.64,50.94c-0.01,0.13-0.01,0.27-0.01,0.4c0.06,1.24,0.14,2.48,0.23,3.73c0.08,0.74,0.19,1.47,0.26,2.2
			c0.07,0.81,0.33,1.59,0.52,2.37c0.18,0.74,0.52,1.43,0.76,2.15c0.23,0.5,0.44,1.02,0.77,1.48c0.27,0.41,0.54,0.81,0.88,1.16
			c0.5-0.21,0.97-0.53,1.53-0.57c0.45-0.02,0.89-0.13,1.34-0.1c0.34,0.03,0.65,0.17,0.96,0.29c0.1,0.06,0.21,0.12,0.32,0.16
			c0.17,0.05,0.34-0.03,0.51-0.07c-0.29-0.59-0.35-1.25-0.35-1.89c0.03-1.36,0.18-2.74,0.63-4.04c0.18-0.51,0.42-0.99,0.66-1.47
			c-0.32-0.05-0.67-0.07-0.94-0.27c-0.5-0.35-0.81-0.91-0.98-1.48c-0.03-0.1-0.07-0.24-0.2-0.25c-1.01-0.18-1.97-0.51-2.93-0.85
			c-0.19,0.35-0.46,0.68-0.84,0.84c-0.35,0.16-0.75,0.14-1.1,0.01c-0.66-0.23-1.29-0.69-1.55-1.36c-0.18-0.53-0.19-1.11-0.13-1.66
			C61.07,51.42,60.82,51.16,60.64,50.94z"/>
		<path class="st1" d="M61.36,52.03c-0.07,0.25-0.1,0.52-0.05,0.78c0.18,0.92,1.09,1.64,2.03,1.6c0.4-0.02,0.73-0.31,0.96-0.62
			c-0.29-0.11-0.57-0.23-0.84-0.39c-0.35-0.21-0.72-0.39-1.04-0.64C62.07,52.51,61.77,52.18,61.36,52.03z"/>
		<path class="st1" d="M84.27,52.88c-0.69,0.21-1.41,0.35-2.08,0.62c0.25,0.42,0.67,0.72,1.1,0.95c0.33,0.13,0.7,0.02,1-0.13
			c0.19-0.1,0.4-0.18,0.53-0.36c0.15-0.22,0.2-0.48,0.28-0.73c0.07-0.22,0.14-0.44,0.15-0.67C84.92,52.63,84.61,52.79,84.27,52.88z"
			/>
		<path class="st1" d="M75.91,54.79c0.21,0.44,0.61,0.82,1.09,0.95c0.46,0.11,0.96,0.05,1.37-0.19c0.4-0.25,0.68-0.7,0.69-1.18
			C78.03,54.64,76.96,54.69,75.91,54.79z"/>
		<path class="st1" d="M68.07,54.87c0.2,0.46,0.4,0.97,0.85,1.25c0.5,0.32,1.14,0.29,1.7,0.19c0.53-0.14,0.88-0.67,0.95-1.2
			c-0.43-0.04-0.85,0.01-1.28-0.02C69.54,55.1,68.81,54.88,68.07,54.87z"/>
		<path class="st1" d="M64.76,64.37c-0.16,0.06-0.31,0.16-0.45,0.26c-0.01,0.02-0.02,0.06-0.02,0.09c0.3,0.18,0.62,0.36,0.77,0.69
			c0.08,0.22,0.16,0.44,0.22,0.66c0.16,0.51-0.02,1.07-0.33,1.48c-0.32,0.32-0.7,0.57-1.05,0.86c-0.37,0.31-0.74,0.66-0.9,1.12
			c-0.12,0.37-0.21,0.76-0.12,1.14c0.11,0.57,0.45,1.07,0.9,1.44c0.34,0.29,0.72,0.56,1.16,0.69c0.22,0.08,0.46,0.13,0.69,0.17
			c1.28,0.21,2.65,0.15,3.85-0.39c0.93-0.5,1.64-1.36,2.03-2.33c0.19-0.5,0.22-1.03,0.21-1.56c-0.01-0.63-0.11-1.26-0.29-1.86
			c-0.2-0.63-0.59-1.19-1.07-1.63c-0.27-0.24-0.56-0.47-0.91-0.59c-0.31-0.06-0.63-0.09-0.94-0.09c0.13,0.27,0.35,0.5,0.44,0.8
			c0.07,0.26,0.01,0.54-0.07,0.79c-0.17-0.33-0.23-0.7-0.42-1.02c-0.17-0.28-0.39-0.55-0.7-0.71c-0.37-0.2-0.78-0.37-1.21-0.3
			C65.94,64.17,65.3,64.08,64.76,64.37z"/>
		<path class="st1" d="M61.19,74.41c0.07,0.32,0.14,0.63,0.23,0.95c0.08,0.26,0.25,0.52,0.52,0.62c0.35-0.3,0.56-0.7,0.84-1.06
			c0.1-0.13,0.18-0.27,0.26-0.42c-0.13-0.24-0.29-0.45-0.4-0.7C62.18,74.06,61.7,74.27,61.19,74.41z"/>
		<path class="st1" d="M69.54,37.95c0.29-0.18,0.58-0.38,0.92-0.45c0.1,0.19,0.02,0.4-0.03,0.59c-0.08,0.23-0.11,0.47-0.19,0.7
			c-0.24,0.17-0.53,0.24-0.76,0.41c-0.37,0.27-0.74,0.55-0.99,0.94c-0.07-0.02-0.14-0.04-0.2-0.06c0.03-0.34,0.06-0.69,0.23-0.99
			c0.12-0.23,0.21-0.48,0.39-0.67C69.1,38.25,69.31,38.09,69.54,37.95z"/>
		<path class="st1" d="M72.38,38.19c0.31-0.04,0.58,0.16,0.87,0.23c0.38,0.11,0.67,0.4,0.99,0.62c0.22,0.15,0.28,0.43,0.32,0.67
			c-0.27-0.08-0.48-0.28-0.75-0.36c-0.46-0.16-0.96-0.13-1.43-0.08C72.33,38.91,72.37,38.54,72.38,38.19z"/>
		<path class="st1" d="M73.56,41.03c1.03-0.24,2.17,0.19,2.79,1.04c0.38,0.55,0.59,1.22,0.52,1.89c-0.08,0.93-0.67,1.8-1.51,2.21
			c-0.61,0.31-1.32,0.35-1.98,0.19c-0.2,0.7-0.59,1.36-1.14,1.85c-0.73,0.65-1.71,1.01-2.68,0.97c-0.94-0.03-1.85-0.42-2.53-1.07
			c-0.37-0.35-0.66-0.79-0.87-1.26c-0.32-0.77-0.39-1.64-0.18-2.44c0.21-0.83,0.7-1.58,1.38-2.09c0.77-0.6,1.79-0.88,2.76-0.77
			c0.62,0.06,1.21,0.29,1.73,0.63C72.27,41.62,72.86,41.16,73.56,41.03z M72.13,42.39c0.09,0.09,0.18,0.17,0.27,0.25
			c0.36,0.39,0.66,0.85,0.86,1.35c0.11-0.07,0.24-0.15,0.38-0.12c0.27,0.03,0.45,0.37,0.31,0.61c-0.09,0.18-0.31,0.24-0.49,0.23
			c0.04,0.29,0.06,0.59,0.05,0.89c-0.01,0.12-0.03,0.24-0.04,0.35c0.78,0.23,1.67,0.05,2.28-0.49c0.8-0.66,1.05-1.88,0.6-2.81
			c-0.29-0.64-0.88-1.12-1.56-1.29c-0.08-0.01-0.16-0.06-0.23-0.02c-0.06-0.06-0.16-0.05-0.24-0.05
			C73.46,41.22,72.59,41.66,72.13,42.39z M67.04,43.11c-0.52,0.62-0.8,1.43-0.78,2.24c0,0.96,0.44,1.9,1.15,2.53
			c1.09,0.99,2.85,1.15,4.08,0.34c0.53-0.33,0.98-0.79,1.26-1.35c0.41-0.79,0.49-1.75,0.23-2.6c-0.22-0.7-0.67-1.33-1.27-1.76
			c-0.61-0.45-1.38-0.68-2.14-0.64C68.61,41.89,67.66,42.36,67.04,43.11z"/>
		<path class="st1" d="M72.26,44.87c0.34-0.15,0.77,0.17,0.73,0.54c-0.01,0.33-0.38,0.59-0.69,0.49c-0.19-0.06-0.36-0.23-0.38-0.44
			C71.88,45.22,72.02,44.96,72.26,44.87z"/>
		<path class="st1" d="M82.55,56.68c0.21-0.09,0.51,0.02,0.54,0.26c0.09,0.32-0.38,0.56-0.6,0.34
			C82.28,57.13,82.28,56.74,82.55,56.68z"/>
		<path class="st1" d="M82.01,57.81c0.14-0.02,0.19,0.24,0.03,0.26C81.87,58.11,81.82,57.81,82.01,57.81z"/>
		<path class="st1" d="M82.68,57.8c0.11-0.11,0.31-0.04,0.35,0.11c0.05,0.16-0.15,0.32-0.3,0.24C82.59,58.1,82.57,57.9,82.68,57.8z"
			/>
		<path class="st3" d="M57.86,18.77c0.91-0.23,1.87-0.32,2.8-0.22c0.31,0.04,0.63,0.1,0.9,0.27c-0.28,0.03-0.57,0.01-0.86,0.02
			c-0.9,0.05-1.78,0.28-2.63,0.58C57.98,19.21,57.91,18.99,57.86,18.77z"/>
		<path class="st3" d="M57.05,19.02c0.11-0.03,0.22-0.09,0.34-0.09c0.15,0.15,0.2,0.38,0.28,0.58c-1.14,0.59-2.35,1.05-3.42,1.75
			c-0.1,0.08-0.18-0.07-0.18-0.16c-0.06-0.28,0.17-0.5,0.37-0.66C55.23,19.84,56.11,19.34,57.05,19.02z"/>
		<path class="st3" d="M58.17,19.76c1.05-0.5,2.24-0.34,3.35-0.57c-0.25,1.2-0.55,2.39-1.04,3.51c-0.69-0.35-1.18-1-1.56-1.66
			C58.67,20.61,58.44,20.18,58.17,19.76z"/>
		<path class="st3" d="M57.51,20.08c0.12-0.03,0.24-0.08,0.37-0.08c0.52,0.97,1.1,1.91,1.84,2.72c-1.37,0.26-2.68,0.74-3.96,1.27
			c-0.47-0.76-1.15-1.41-1.37-2.3C55.33,20.99,56.37,20.4,57.51,20.08z"/>
		<path class="st3" d="M52.97,22.36c0.15-0.45,0.34-0.92,0.71-1.22c0.1,0.18,0.19,0.43,0.05,0.61C53.52,22,53.22,22.15,52.97,22.36z
			"/>
		<path class="st3" d="M52,23.99c0.44-0.86,1.25-1.43,1.99-2.02c0.37,0.79,1.04,1.42,1.34,2.25c-1.11,0.53-2.17,1.16-3.28,1.71
			C51.76,25.33,51.67,24.58,52,23.99z"/>
		<path class="st3" d="M56.13,24.28c1.38-0.57,2.82-1.08,4.33-1.2c-0.2,1.37-0.41,2.76-0.95,4.05c-0.54-0.12-1.06-0.36-1.48-0.71
			C57.29,25.81,56.75,25.01,56.13,24.28z"/>
		<path class="st3" d="M46.39,24.03c0.14-0.01,0.22,0.15,0.31,0.23c0.98,1,2.36,1.46,3.71,1.74c-0.05,0.08-0.15,0.11-0.23,0.14
			c-0.77,0.23-1.61,0.21-2.38-0.01c-0.58-0.17-1.1-0.51-1.55-0.92c-0.11-0.11-0.27-0.23-0.23-0.41
			C46.09,24.53,46.18,24.24,46.39,24.03z"/>
		<path class="st3" d="M52.38,26.21c1.05-0.73,2.24-1.21,3.39-1.76c0.72,1.09,1.74,1.93,2.7,2.8c-1.54,0.35-3.02,0.89-4.49,1.45
			C53.38,27.92,52.79,27.12,52.38,26.21z"/>
		<path class="st3" d="M51.36,25.64c0.03-0.11,0.08-0.21,0.17-0.29c0.07,0.28,0.15,0.56,0.25,0.84c-0.18,0.17-0.39,0.31-0.6,0.44
			C51.19,26.3,51.27,25.97,51.36,25.64z"/>
		<path class="st3" d="M51.1,27.13c0.31-0.17,0.58-0.4,0.87-0.59c0.65,0.73,1.08,1.62,1.66,2.4c-0.69,0.41-1.36,0.85-1.96,1.38
			c-0.37-0.75-0.46-1.59-0.67-2.39C51.02,27.66,51.06,27.39,51.1,27.13z"/>
		<path class="st3" d="M54.23,28.99c1.51-0.56,3.02-1.19,4.63-1.37c0.22-0.01,0.39,0.17,0.52,0.32c-0.17,0.41-0.26,0.86-0.39,1.28
			c-0.32-0.41-0.85-0.61-1.37-0.57c-0.37,0.02-0.77,0.16-0.99,0.48c-0.19,0.39-0.22,0.84-0.17,1.27c0.05,0.45,0.2,0.89,0.29,1.33
			C55.68,31.08,54.98,29.99,54.23,28.99z"/>
		<path class="st3" d="M51.78,30.69c0.68-0.5,1.31-1.06,2.04-1.48c0.75,0.96,1.55,1.89,2.42,2.74c-0.98,0.35-1.96,0.74-2.88,1.24
			c-0.29-0.31-0.62-0.58-0.88-0.92C52.31,31.73,51.96,31.24,51.78,30.69z"/>
		<path class="st3" d="M53.72,33.43c0.93-0.61,2.02-0.89,3.07-1.24c0.03,0.72,0.16,1.46,0.03,2.18c-0.05,0.28-0.2,0.55-0.45,0.7
			c-0.13,0.07-0.29,0.13-0.42,0.04C55.15,34.64,54.17,34.31,53.72,33.43z"/>
		<path class="st4" d="M61.89,19.77c1.97,0.47,3.84,1.44,5.25,2.91c1.18,1.24,2.03,2.78,2.53,4.42c0.27,0.8,0.56,1.59,0.72,2.42
			c0.08,0.39,0.19,0.78,0.24,1.18c0.01,0.14,0.06,0.3-0.03,0.43c-0.27,0.42-0.6,0.8-0.98,1.13c-0.3,0.12-0.54,0.33-0.8,0.51
			c-1.42,0.94-3.02,1.62-4.7,1.93c-0.26-0.28-0.66-0.34-1.01-0.3c-0.83,0.04-1.61,0.37-2.43,0.46c0.82-0.62,1.77-1.11,2.41-1.94
			c0.53-0.64,0.6-1.66,0.07-2.32c-0.44-0.54-1.32-0.71-1.89-0.29c-0.97,0.8-1.31,2.08-2.16,2.99c0.03-0.83,0.45-1.59,0.41-2.43
			c-0.04-0.45-0.04-0.9-0.12-1.34c0.07-0.53,0.22-1.05,0.35-1.57c0.28-1.22,0.73-2.41,0.96-3.64c0.06-0.3,0.08-0.61,0.17-0.91
			C61.23,22.19,61.51,20.96,61.89,19.77z M63.08,21.19c-0.09,0.05-0.15,0.15-0.15,0.25c-0.03,0.34,0.19,0.66,0.44,0.87
			c0.52,0.44,1.14,0.72,1.7,1.1c0.58,0.38,1.08,0.86,1.51,1.4c0.37,0.44,0.74,0.95,1.31,1.16c0.17,0.07,0.45,0.05,0.51-0.16
			c0.05-0.26-0.05-0.53-0.13-0.77c-0.36-0.94-0.97-1.8-1.78-2.42c-0.72-0.56-1.53-0.99-2.37-1.32
			C63.78,21.18,63.42,21.07,63.08,21.19z"/>
		<path class="st5" d="M63.08,21.19c0.33-0.12,0.7-0.01,1.02,0.1c0.85,0.33,1.65,0.77,2.37,1.32c0.8,0.62,1.41,1.47,1.78,2.42
			c0.09,0.25,0.18,0.51,0.13,0.77c-0.06,0.21-0.33,0.23-0.51,0.16c-0.57-0.2-0.93-0.71-1.31-1.16c-0.44-0.53-0.93-1.02-1.51-1.4
			c-0.56-0.38-1.18-0.66-1.7-1.1c-0.25-0.22-0.47-0.53-0.44-0.87C62.93,21.34,62.99,21.24,63.08,21.19z"/>
		<path class="st6" d="M45.8,26.33c0.08-0.51,0.11-1.03,0.22-1.53c-0.04,0.18,0.11,0.3,0.23,0.41c0.45,0.41,0.96,0.74,1.55,0.92
			c0.77,0.22,1.61,0.24,2.38,0.01c0.09-0.03,0.18-0.06,0.23-0.14c0.14,0.02,0.28,0.03,0.41,0.08c-0.02,0.07-0.06,0.14-0.13,0.17
			c-0.52,0.3-1.14,0.37-1.74,0.36c-1.05,0.01-2.08-0.21-3.12-0.27L45.8,26.33z"/>
		<path class="st6" d="M50.8,29.79c-0.03-0.63,0.06-1.25,0.19-1.86c0.22,0.8,0.31,1.64,0.67,2.39c-0.12,0.15-0.27,0.27-0.4,0.4
			C51,30.48,50.81,30.15,50.8,29.79z"/>
		<path class="st6" d="M51.43,30.94c0.1-0.1,0.23-0.17,0.35-0.25c0.18,0.55,0.53,1.04,0.71,1.59
			C52.05,31.92,51.73,31.43,51.43,30.94z"/>
		<path class="st6" d="M50.98,31.31c0.81,0.57,1.37,1.42,2.06,2.12c-0.46,0.37-0.96,0.69-1.46,0.99
			C51.35,33.4,50.86,32.39,50.98,31.31z"/>
		<path class="st6" d="M51.83,34.81c0.33-0.58,1.02-0.75,1.52-1.14c0.27,0.39,0.66,0.67,1.04,0.96c0,0.01-0.01,0.04-0.01,0.05
			c-0.47,0.05-0.98,0.15-1.34,0.47c-0.25,0.22-0.34,0.54-0.45,0.84C52.18,35.71,52.02,35.23,51.83,34.81z"/>
		<path class="st6" d="M54.87,37.57c0.56-0.15,1.17-0.35,1.73-0.13c-0.09,0.27-0.13,0.56-0.27,0.81
			C55.78,38.24,55.28,37.93,54.87,37.57z"/>
		<path class="st7" d="M57.48,29.14c0.57-0.2,1.24,0.18,1.43,0.74c0.29,0.8,0.13,1.67-0.02,2.48c-0.04,0.44-0.09,0.88-0.18,1.31
			c0.17,0.03,0.35,0.08,0.53,0.03c0.55-0.58,0.92-1.31,1.32-1.99c0.29-0.48,0.64-0.94,1.12-1.23c0.2-0.11,0.43-0.06,0.64-0.01
			c0.22,0.05,0.43,0.19,0.53,0.4c0.24,0.52,0.2,1.15-0.09,1.64c-0.32,0.6-0.87,1.01-1.39,1.41c-0.38,0.29-0.78,0.56-1.2,0.77
			c0.07,0.24,0.18,0.47,0.35,0.65c0.53-0.13,1.05-0.28,1.58-0.4c0.42-0.12,0.85-0.21,1.28-0.17c0.26,0.02,0.48,0.28,0.45,0.54
			c-0.03,0.34-0.22,0.65-0.45,0.9c-0.26,0.31-0.62,0.51-1,0.62c-0.71,0.22-1.46,0.17-2.19,0.08c-0.14,0.53-0.49,1-0.97,1.27
			c0.05,0.53,0.12,1.07,0.13,1.61c0,0.92,0.01,1.85-0.08,2.77c-0.04,1.06-0.17,2.11-0.24,3.17c-0.14,1.72-0.27,3.45-0.22,5.18
			c0.08,0.01,0.17,0.01,0.25,0.01c0.12-0.53,0.11-1.07,0.12-1.61c0.05-0.52,0.01-1.05,0.09-1.58c0.04-0.06,0.09-0.12,0.14-0.17
			c0.06,0.15,0.12,0.3,0.15,0.46c0.07,0.38,0.21,0.75,0.31,1.12c0.08,0.3,0.19,0.59,0.32,0.87c0.1,0.22,0.06,0.47,0.04,0.7
			c-0.06,0.64,0.08,1.27,0.07,1.9c-0.01,0.86,0.11,1.71,0.19,2.57c0.16,1,0.18,2.03,0.38,3.02c0.11,0.63,0.32,1.23,0.48,1.85
			c0.11,0.48,0.33,0.93,0.49,1.4c0.09,0.32,0.25,0.62,0.39,0.92c0.27,0.73,0.74,1.36,1.2,1.99c0.2,0.24,0.45,0.44,0.67,0.67
			c0.2,0.22,0.57,0.24,0.67,0.56c0.18,0.33,0.31,0.73,0.22,1.11c-0.09,0.34-0.23,0.7-0.54,0.9c-0.47,0.31-0.93,0.63-1.29,1.06
			c-0.33,0.35-0.53,0.79-0.61,1.26c-0.25-0.35-0.39-0.75-0.57-1.14c-0.5-1.14-0.92-2.31-1.25-3.51c-0.31-1.2-0.68-2.39-0.93-3.62
			c-0.17-0.75-0.24-1.52-0.41-2.27c-0.14-0.56-0.26-1.13-0.37-1.71c-0.21-1.04-0.43-2.07-0.56-3.12c-0.09-0.64-0.11-1.29-0.21-1.93
			c-0.35-2.14-0.47-4.33-0.26-6.5c0.02-0.29,0.12-0.6-0.05-0.86c0.01-0.72,0.11-1.44,0.12-2.16c0-0.58,0.04-1.16,0.05-1.74
			c-0.03-1.1-0.05-2.21-0.23-3.3c-0.04-0.54-0.52-0.96-1.03-1.08c-1.07-0.24-2.12,0.17-3.16,0.32c-0.35-0.11-0.66-0.39-0.74-0.75
			c-0.06-0.27,0.04-0.55,0.21-0.76c0.41-0.53,1.1-0.8,1.76-0.71c0.48,0.08,0.91,0.31,1.35,0.48c0.47-0.16,0.81-0.61,0.88-1.09
			c0.2-1.1-0.1-2.2-0.17-3.3c-0.05-0.55-0.18-1.13,0.02-1.67C57.09,29.31,57.29,29.2,57.48,29.14z"/>
		<path class="st7" d="M35.23,31.93c0.05,0.01,0.15,0.03,0.2,0.04c0.42,0.15,0.86,0.28,1.28,0.43c2.88,0.99,5.61,2.46,7.91,4.47
			c0.37,0.35,0.73,0.72,1.13,1.04c1.49,1.13,2.77,2.51,3.93,3.97c1.23,1.44,2.4,2.94,3.26,4.63c0.06,0.11,0.14,0.22,0.22,0.32
			c0.35,0.83,0.84,1.61,1.04,2.5c0.14,0.71,0.35,1.41,0.5,2.13c0.22,1.12,0.23,2.26,0.34,3.39c0.08,0.66,0.07,1.32,0.11,1.98
			c0.04,0.47,0.04,0.94,0.1,1.4c0.09,0.79,0.2,1.57,0.26,2.36c0.1,1,0.23,2.01,0.53,2.97c0.28,0.88,0.72,1.7,1.26,2.45
			c0.21,0.29,0.47,0.56,0.78,0.72c0.49,0.27,1.06,0.36,1.61,0.36c0.19,0.49,0.34,0.99,0.54,1.48c0.25,0.67,0.55,1.32,0.82,1.98
			c0.11,0.32,0.3,0.6,0.44,0.91c0.33,0.68,0.64,1.38,1.01,2.05c-0.46,0.22-0.95,0.36-1.44,0.45c-0.16-0.22-0.15-0.52-0.32-0.74
			c-0.11-0.09-0.27-0.08-0.4-0.03c-0.41,0.17-0.7,0.56-1.13,0.7c-0.91-0.18-1.78-0.54-2.61-0.96c-0.57-0.3-1.12-0.65-1.62-1.06
			c-0.34-0.27-0.63-0.6-0.95-0.9c-0.8-0.78-1.5-1.66-2.13-2.58c-0.24-0.37-0.53-0.7-0.77-1.06c-0.47-0.67-0.82-1.42-1.22-2.14
			c-0.41-0.73-0.68-1.52-0.93-2.32c-0.2-0.68-0.45-1.34-0.6-2.04c-0.3-1.28-0.44-2.59-0.86-3.83c-0.26-0.77-0.58-1.53-1.04-2.21
			c-0.37-0.54-0.83-1.02-1.38-1.36c-0.22-0.14-0.44-0.29-0.57-0.51c0.27-0.07,0.54-0.06,0.82-0.05c-0.76-0.64-1.45-1.37-2.24-1.97
			c-0.92-0.71-1.88-1.38-2.97-1.79c-0.64-0.25-1.33-0.36-2.01-0.45c-1.03-0.11-2.08-0.17-3.1,0.04c-1.05,0.2-2.05,0.62-2.95,1.18
			c-0.72,0.48-1.18,1.22-1.66,1.92c-0.25,0.37-0.48,0.74-0.69,1.13c-0.37-0.45-0.69-0.97-0.82-1.54c-0.09-0.31,0.16-0.56,0.23-0.85
			c-0.45,0.21-0.71,0.66-0.92,1.08c-0.3,0.54-0.6,1.08-0.8,1.66c-0.46,1.43-0.6,2.95-0.49,4.44c0.08,1.05,0.26,2.1,0.57,3.11
			c0.34,0.89,0.78,1.74,1.24,2.57c1.09,1.92,2.46,3.72,4.24,5.05c0.38,0.29,0.8,0.52,1.18,0.8c-0.6-0.12-1.17-0.35-1.73-0.58
			c-0.18-0.21-0.45-0.27-0.69-0.38c-0.4-0.17-0.78-0.37-1.17-0.56c-1.81-0.89-3.44-2.07-5.13-3.15c-0.78-0.51-1.55-1.05-2.18-1.75
			c-0.46-0.49-0.95-0.96-1.34-1.51c-0.41-0.56-0.75-1.15-1.13-1.72c-0.36-0.58-0.64-1.2-0.92-1.82c-0.27-0.55-0.54-1.11-0.79-1.67
			c-0.42-0.94-0.7-1.93-0.87-2.94c-0.18-1.17-0.27-2.35-0.23-3.53c-0.01-0.19,0.03-0.39-0.03-0.58c-0.16-0.06-0.33-0.08-0.48-0.14
			c-0.13-0.34-0.06-0.72-0.05-1.07c-0.26,0.11-0.47,0.3-0.71,0.44c-0.11-0.45-0.09-0.93-0.09-1.39c0-0.82,0.19-1.62,0.36-2.41
			c0.1-0.49,0.24-0.96,0.35-1.45c0.1-0.47,0.23-0.93,0.43-1.36c0.37-0.79,0.76-1.58,1.3-2.28c0.45-0.57,0.95-1.1,1.48-1.6
			c1.45-1.38,3.17-2.44,5-3.24c1.6-0.68,3.28-1.2,5-1.43c0.99-0.14,1.99-0.21,2.98-0.13c0.3,0.02,0.6,0.07,0.9,0.08
			c-0.12-0.2-0.27-0.38-0.38-0.58c0.67-0.06,1.31,0.21,1.93,0.42c-0.14-0.32-0.4-0.56-0.62-0.83
			C35.27,32.05,35.24,31.97,35.23,31.93z"/>
		<path class="st7" d="M63.87,36.41c0.86-0.12,1.69-0.4,2.46-0.8c-0.11,0.28-0.28,0.56-0.55,0.72c-0.27,0.17-0.55,0.35-0.88,0.39
			c-0.44,0.05-0.89,0.11-1.34,0.09C63.67,36.67,63.78,36.55,63.87,36.41z"/>
		<path class="st7" d="M60.5,37.36c0.67,0.05,1.36,0.08,2.02-0.05c-0.17,0.25-0.39,0.47-0.65,0.63c-0.2,0.14-0.19,0.41-0.19,0.63
			c0.03,0.36,0.09,0.73,0.22,1.06c-0.01,0.15,0.05,0.36-0.1,0.47c-0.33,0.24-0.72,0.37-1.12,0.46c-0.02-0.98-0.08-1.97-0.26-2.94
			C60.4,37.53,60.48,37.45,60.5,37.36z"/>
		<path class="st7" d="M62.21,38.23c0.23-0.32,0.67-0.35,1.03-0.3c-0.16,0.7-0.22,1.45,0,2.14c0.07,0.25,0.23,0.47,0.38,0.68
			c-0.12,0.04-0.24,0.07-0.35,0.11c-0.47-0.36-0.87-0.84-1.11-1.39C62.03,39.08,61.94,38.59,62.21,38.23z"/>
		<path class="st7" d="M68.1,40.78c0.93-0.09,1.86-0.17,2.8-0.16c0.84,0.02,1.68,0.03,2.52,0.08c0.7,0.04,1.38,0.16,2.08,0.24
			c1.26,0.13,2.45,0.58,3.66,0.95c0.47,0.14,0.92,0.36,1.38,0.54c0.57,0.22,1.08,0.56,1.59,0.87c0.35,0.23,0.73,0.43,1.07,0.68
			c0.26,0.19,0.52,0.38,0.8,0.54c-0.83,0.39-1.57,0.98-2.08,1.74c-0.34,0.5-0.6,1.06-0.78,1.64c-0.14,0.46-0.05,0.96,0.08,1.41
			c0.15,0.52,0.43,1.03,0.88,1.35c0.46,0.32,0.98,0.54,1.5,0.73c0.65,0.24,1.3,0.47,1.98,0.58c-0.52,0.19-1.02,0.45-1.56,0.58
			c-1.07,0.25-2.09,0.64-3.14,0.93c-0.79,0.22-1.58,0.43-2.38,0.62c-0.53,0.14-1.08,0.15-1.62,0.23c-0.7,0.1-1.41,0.11-2.11,0.2
			c-1.06,0.11-2.12,0.14-3.19,0.19c-0.95,0.04-1.91,0-2.84-0.18c-1.28-0.09-2.54-0.41-3.74-0.87c-0.64-0.24-1.28-0.47-1.86-0.84
			c-0.75-0.46-1.52-0.99-1.97-1.77c-0.13-0.24-0.31-0.45-0.43-0.69c-0.21-0.4-0.35-0.83-0.49-1.26c-0.21-0.64-0.27-1.31-0.45-1.95
			c0.44-0.18,0.95-0.13,1.36-0.41c-0.39-0.09-0.8-0.16-1.2-0.07c-0.25,0.07-0.46,0.24-0.66,0.39c0.09-1.3,0.2-2.6,0.34-3.89
			c0.92-0.62,1.82-1.28,2.84-1.75c0.33-0.15,0.68-0.29,1.04-0.35c0.71-0.07,1.42-0.02,2.13-0.1C66.45,40.91,67.28,40.87,68.1,40.78z
			 M73.56,41.03c-0.7,0.14-1.29,0.59-1.71,1.15c-0.52-0.34-1.11-0.57-1.73-0.63c-0.97-0.11-1.98,0.17-2.76,0.77
			c-0.68,0.52-1.17,1.27-1.38,2.09c-0.2,0.81-0.14,1.68,0.18,2.44c-0.01,0.03-0.02,0.1-0.03,0.13c0.07,0.4,0.26,0.76,0.48,1.1
			c0.47,0.68,1.14,1.23,1.93,1.49c0.84,0.29,1.78,0.28,2.62-0.03c0.96-0.35,1.75-1.11,2.16-2.04c0.08-0.18,0.13-0.38,0.21-0.56
			c0.32,0.02,0.63,0.07,0.95,0.05c1.3-0.06,2.47-1.12,2.68-2.4c0.16-0.84-0.07-1.74-0.62-2.39c-0.05-0.06-0.11-0.1-0.19-0.11
			C75.72,41.22,74.58,40.79,73.56,41.03z"/>
		<path class="st7" d="M53.74,43.65c0.15-0.25,0.43-0.38,0.7-0.44c0.34-0.08,0.67,0.06,0.97,0.23c0.72,0.37,1.29,0.98,2.04,1.27
			c0.07-0.08,0.14-0.17,0.22-0.25c-0.06,0.65-0.05,1.31-0.17,1.96c-0.19-0.21-0.12-0.53-0.29-0.76c-0.23-0.33-0.6-0.54-0.95-0.72
			c-0.8-0.4-1.66-0.62-2.53-0.8C53.62,44,53.65,43.79,53.74,43.65z"/>
		<path class="st7" d="M85.67,52.37c0.19-0.09,0.38-0.16,0.58-0.23c0,1.01-0.38,1.95-0.69,2.9c-0.1,0.28-0.2,0.57-0.33,0.84
			c-0.08-0.02-0.16-0.04-0.24-0.05c-0.04,0.04-0.07,0.09-0.1,0.13c0.08,0.06,0.18,0.1,0.26,0.17c-0.11,0.22-0.21,0.45-0.31,0.68
			c-0.1-0.01-0.21-0.03-0.31-0.04c0.05,0.09,0.14,0.15,0.22,0.22c-0.2,0.47-0.54,0.85-0.78,1.29c-0.31,0.55-0.65,1.08-0.92,1.64
			c-0.23,0.45-0.38,0.93-0.57,1.39c-0.26,0.62-0.48,1.26-0.65,1.91c-0.42,1.21-0.58,2.49-0.76,3.75c-0.1,1.08-0.09,2.17-0.03,3.25
			c0.01,0.28,0.08,0.55,0.18,0.81c0.75-0.16,1.49-0.36,2.23-0.58c0.45-0.13,0.91-0.3,1.39-0.23c0.17,0.02,0.35,0.16,0.36,0.34
			c0.01,0.44-0.04,0.87-0.13,1.3c-0.11,0.49-0.15,1-0.27,1.49c0.03,0.04,0.08,0.11,0.1,0.15c0.49-0.31,1.01-0.58,1.53-0.84
			c0.43-0.19,0.87-0.45,1.36-0.42c0.56,0,1.11,0.14,1.59,0.42c0.52,0.28,1.08,0.58,1.38,1.11c-0.77,0.09-1.56,0.08-2.33,0.16
			c-0.72,0.06-1.44,0.02-2.15,0.1c-0.79,0.04-1.57,0.11-2.36,0.18c0.13-0.66,0.3-1.3,0.44-1.96c0.06-0.32,0.11-0.65,0.19-0.96
			c0.06-0.2-0.05-0.42-0.24-0.51c-0.16,0-0.3,0.08-0.46,0.12c-1.26,0.33-2.52,0.68-3.79,0.96c-1.04,0.21-2.06,0.51-3.12,0.68
			c-1.45,0.24-2.88,0.57-4.33,0.79c-0.81,0.14-1.61,0.31-2.41,0.46c-0.61,0.13-1.23,0.16-1.84,0.27c-0.89,0.16-1.78,0.28-2.67,0.44
			c-0.29-0.27-0.53-0.58-0.8-0.88c-0.14-0.16-0.29-0.32-0.34-0.53c1.21,0.44,2.53,0.49,3.79,0.24c0.53-0.15,1.1-0.27,1.55-0.62
			c0.64-0.47,1.25-1.03,1.6-1.76c0.23-0.52,0.45-1.05,0.48-1.63c0.01-0.51,0.06-1.02-0.04-1.52c-0.08-0.42-0.13-0.85-0.3-1.24
			c0.22-0.19,0.5-0.32,0.74-0.5c0.59-0.37,1-0.96,1.55-1.39c0.15,0.45,0.23,0.93,0.15,1.4c-0.04,0.21-0.05,0.42,0.02,0.62
			c0.34-0.51,0.49-1.16,0.32-1.76c-0.07-0.22-0.16-0.45-0.36-0.59c-0.08-0.05-0.18-0.11-0.27-0.06c-0.33,0.18-0.56,0.48-0.8,0.76
			c-0.4,0.5-0.96,0.82-1.51,1.11c-0.54-0.93-1.34-1.81-2.42-2.07c-0.09-0.27-0.21-0.53-0.26-0.82c-0.12-0.74-0.1-1.49-0.05-2.24
			c0.03-0.35,0.04-0.71,0.12-1.06c0.12-0.51,0.2-1.04,0.37-1.54c0.11-0.34,0.3-0.64,0.44-0.96c0.12-0.24,0.24-0.49,0.47-0.65
			c0.36-0.1,0.78-0.11,1.08-0.38c0.39-0.36,0.56-0.89,0.66-1.4c0.33-0.01,0.66-0.04,1-0.05c0.37-0.02,0.75,0.02,1.12-0.02
			c0.49-0.06,0.99-0.05,1.48-0.15c0.26,0.51,0.64,0.99,1.17,1.24c0.84,0.37,1.89,0.06,2.41-0.69c0.26-0.31,0.32-0.72,0.34-1.11
			c0.66-0.16,1.3-0.38,1.95-0.57c0.12-0.03,0.25-0.08,0.38-0.07c0.13,0.08,0.2,0.22,0.29,0.33c0.2,0.27,0.47,0.47,0.72,0.68
			c0.34,0.3,0.84,0.38,1.26,0.24c0.41-0.13,0.83-0.33,1.1-0.68c0.22-0.27,0.27-0.63,0.4-0.94C85.65,52.98,85.65,52.67,85.67,52.37z
			 M82.55,56.68c-0.27,0.06-0.27,0.46-0.07,0.6c0.23,0.22,0.69-0.02,0.6-0.34C83.06,56.69,82.76,56.58,82.55,56.68z M82.01,57.81
			c-0.19,0-0.14,0.3,0.03,0.26C82.2,58.05,82.15,57.8,82.01,57.81z M82.68,57.8c-0.11,0.09-0.09,0.3,0.05,0.35
			c0.15,0.08,0.34-0.08,0.3-0.24C82.99,57.77,82.79,57.69,82.68,57.8z"/>
		<path class="st8" d="M34.74,31.08c1.45,0.4,2.85,0.95,4.21,1.59c1.88,0.89,3.66,2.02,5.24,3.38c0.37,0.34,0.72,0.7,1.1,1.02
			c0.24,0.21,0.5,0.39,0.75,0.6c1.29,1.07,2.41,2.31,3.46,3.61c0.77,0.9,1.52,1.82,2.18,2.8c0.57,0.87,1.14,1.76,1.48,2.75
			c-0.08-0.1-0.16-0.2-0.22-0.32c-0.86-1.69-2.03-3.2-3.26-4.63c-1.17-1.46-2.44-2.84-3.93-3.97c-0.4-0.32-0.76-0.69-1.13-1.04
			c-2.29-2.01-5.03-3.48-7.91-4.47c-0.43-0.14-0.86-0.27-1.28-0.43C35.19,31.68,34.94,31.4,34.74,31.08z"/>
		<path class="st8" d="M33.46,31.65c0.63-0.01,1.26,0.16,1.83,0.44c0.21,0.27,0.47,0.52,0.62,0.83c-0.62-0.21-1.26-0.49-1.93-0.42
			c0.11,0.2,0.27,0.38,0.38,0.58c-0.3-0.01-0.6-0.05-0.9-0.08c-1-0.08-2-0.01-2.98,0.13c-1.73,0.23-3.41,0.75-5,1.43
			c-1.82,0.8-3.55,1.86-5,3.24c-0.53,0.5-1.03,1.03-1.48,1.6c-0.53,0.7-0.92,1.49-1.3,2.28c-0.2,0.43-0.33,0.89-0.43,1.36
			c-0.1,0.49-0.24,0.96-0.35,1.45c-0.17,0.8-0.36,1.59-0.36,2.41c0,0.46-0.02,0.94,0.09,1.39c0.24-0.14,0.45-0.33,0.71-0.44
			c-0.01,0.36-0.09,0.73,0.05,1.07c0.16,0.06,0.32,0.08,0.48,0.14c0.05,0.19,0.02,0.39,0.03,0.58c-0.03,1.18,0.05,2.36,0.23,3.53
			c0.17,1.01,0.45,2.01,0.87,2.94c0.25,0.56,0.52,1.12,0.79,1.67c0.28,0.62,0.57,1.24,0.92,1.82c0.38,0.57,0.73,1.17,1.13,1.72
			c0.4,0.54,0.89,1.01,1.34,1.51c0.63,0.69,1.4,1.24,2.18,1.75c1.69,1.08,3.33,2.26,5.13,3.15c0.39,0.19,0.77,0.39,1.17,0.56
			c0.24,0.11,0.51,0.17,0.69,0.38c-0.42-0.11-0.82-0.3-1.23-0.47c-1.28-0.56-2.52-1.2-3.7-1.95c-0.41-0.27-0.83-0.51-1.24-0.78
			c-0.87-0.59-1.81-1.08-2.65-1.71c-0.63-0.46-1.18-1.02-1.73-1.58c-0.42-0.44-0.84-0.89-1.17-1.4c-0.48-0.74-1.03-1.44-1.4-2.24
			c-0.54-1.14-1.21-2.22-1.62-3.42c-0.42-1.17-0.59-2.4-0.67-3.64c-0.07-0.75-0.03-1.5-0.04-2.26c-0.17-0.03-0.35-0.05-0.53-0.09
			c-0.14-0.35-0.08-0.74-0.04-1.11c-0.3,0.08-0.51,0.31-0.75,0.48c-0.23-1.18-0.04-2.39,0.21-3.56c0.15-0.71,0.34-1.4,0.49-2.11
			c0.2-0.87,0.63-1.65,1.02-2.44c0.52-1.01,1.27-1.89,2.06-2.7c1.34-1.41,2.94-2.56,4.66-3.46c1.72-0.89,3.56-1.54,5.47-1.89
			c1.48-0.26,3-0.32,4.48-0.06C33.8,32.13,33.6,31.91,33.46,31.65z"/>
		<path class="st8" d="M61.9,39.64c0.05,0.18,0.04,0.37,0.03,0.56c-0.01,0.4,0.02,0.8-0.02,1.19c-0.41,0.24-0.83,0.48-1.24,0.71
			c0.02-0.51,0.03-1.03,0.01-1.54c0.39-0.08,0.79-0.22,1.12-0.46C61.94,40.01,61.89,39.8,61.9,39.64z"/>
		<path class="st8" d="M76.35,42.07c0.08,0.01,0.14,0.05,0.19,0.11c0.55,0.65,0.78,1.55,0.62,2.39c-0.21,1.28-1.37,2.34-2.68,2.4
			c-0.32,0.02-0.63-0.03-0.95-0.05c-0.09,0.18-0.13,0.38-0.21,0.56c-0.41,0.93-1.2,1.7-2.16,2.04c-0.83,0.31-1.77,0.32-2.62,0.03
			c-0.79-0.27-1.46-0.81-1.93-1.49c-0.22-0.33-0.41-0.7-0.48-1.1c0.01-0.03,0.02-0.1,0.03-0.13c0.21,0.47,0.5,0.9,0.87,1.26
			c0.67,0.65,1.59,1.04,2.53,1.07c0.97,0.04,1.96-0.32,2.68-0.97c0.55-0.49,0.94-1.14,1.14-1.85c0.65,0.16,1.37,0.12,1.98-0.19
			c0.84-0.41,1.44-1.28,1.51-2.21C76.94,43.29,76.73,42.61,76.35,42.07z"/>
		<path class="st8" d="M57.97,45.27c0.17,0.26,0.07,0.57,0.05,0.86c-0.21,2.17-0.09,4.36,0.26,6.5c0.1,0.64,0.12,1.29,0.21,1.93
			c0.13,1.05,0.36,2.08,0.56,3.12c0.11,0.57,0.23,1.14,0.37,1.71c0.17,0.75,0.24,1.52,0.41,2.27c0.24,1.22,0.61,2.41,0.93,3.62
			c0.33,1.2,0.75,2.37,1.25,3.51c0.18,0.38,0.33,0.79,0.57,1.14c-0.16,0.51,0.01,1.05,0.24,1.52c0.17,0.33,0.38,0.67,0.67,0.91
			c0.35,0.26,0.69,0.55,1.09,0.73c0.05,0.21,0.2,0.37,0.34,0.53c0.26,0.3,0.5,0.61,0.8,0.88c-0.48,0.1-0.96,0.18-1.42,0.31
			c-0.24,0.07-0.52,0.12-0.67,0.34c-0.54,0.71-0.91,1.54-1.44,2.26c-0.09,0.12-0.2,0.24-0.36,0.28c-0.28-0.09-0.48-0.33-0.63-0.57
			c-0.17-0.29-0.36-0.58-0.51-0.88c-0.18-0.38-0.43-0.71-0.55-1.11c-0.04,0-0.12,0.01-0.16,0.02c-0.18,0.37-0.41,0.71-0.68,1.02
			c-0.28,0.33-0.57,0.67-0.93,0.91c-0.39,0.26-0.77,0.55-1.23,0.67c-0.64,0.18-1.32,0.21-1.97,0.08c-0.3-0.06-0.56-0.23-0.8-0.41
			c0.38-0.2,0.73-0.45,1.11-0.65c0.56-0.31,1.08-0.67,1.62-1.01c0.45-0.25,0.85-0.59,1.31-0.83c0.44-0.23,0.84-0.52,1.29-0.73
			c0.29-0.13,0.58-0.27,0.84-0.46c0.22,0.53,0.38,1.09,0.52,1.64c0.1,0.37,0.35,0.73,0.71,0.89c0.13,0.06,0.34,0.08,0.43-0.06
			c0.38-0.58,0.79-1.14,1.24-1.67c-0.55-1.02-1-2.1-1.49-3.15c-0.42-1.14-0.89-2.27-1.29-3.42c-0.46-1.15-0.78-2.34-1.2-3.5
			c-0.21-0.56-0.31-1.15-0.46-1.73c-0.36-1.35-0.57-2.74-0.8-4.11c-0.14-1.35-0.33-2.7-0.42-4.05c-0.04-0.53-0.1-1.06-0.15-1.59
			c-0.03-0.99-0.12-1.98-0.04-2.96c0.05-0.52,0.03-1.05,0.1-1.57c0.09-0.61,0.1-1.24,0.17-1.85C57.92,46.15,57.93,45.71,57.97,45.27
			z"/>
		<path class="st9" d="M68.82,32.75c0.26-0.17,0.5-0.39,0.8-0.51c-0.42,0.47-0.9,0.87-1.34,1.31c-0.61,0.56-1.25,1.1-1.98,1.5
			c-0.65,0.35-1.35,0.6-2.08,0.71c0.06-0.36,0.09-0.76-0.1-1.09C65.8,34.37,67.41,33.69,68.82,32.75z"/>
		<path class="st10" d="M63.38,39.19c0.04-0.41,0.04-0.84,0.24-1.21c0.1,0.04,0.2,0.11,0.3,0.16c-0.26,0.58-0.16,1.29,0.16,1.83
			c0.17,0.29,0.46,0.46,0.67,0.72c-0.28,0.02-0.59,0.05-0.84-0.1C63.56,40.21,63.4,39.69,63.38,39.19z"/>
		<path class="st10" d="M53.5,44.94c0.02-0.19-0.02-0.45,0.16-0.56c0.94,0.18,1.92,0.37,2.73,0.93c0.27,0.19,0.52,0.4,0.75,0.64
			c-0.12,0.09-0.23,0.19-0.35,0.28c-0.43-0.57-1.1-0.91-1.77-1.11C54.52,44.97,54,44.95,53.5,44.94z"/>
		<path class="st11" d="M64.08,39.97c-0.32-0.54-0.42-1.25-0.16-1.83c0.27,0.07,0.53,0.16,0.8,0.25c0.43,0.13,0.79,0.4,1.15,0.65
			c0.02,0.65-0.43,1.17-0.83,1.63c-0.1,0.01-0.2,0.02-0.29,0.02C64.54,40.43,64.25,40.25,64.08,39.97z"/>
		<path class="st11" d="M53.5,44.94c0.51,0,1.02,0.02,1.5,0.17c0.67,0.21,1.34,0.54,1.77,1.11c-0.48,0.32-1.01,0.55-1.55,0.73
			c-0.2,0.06-0.41,0.1-0.62,0.1c-0.42-0.19-0.71-0.58-0.88-1C53.57,45.71,53.49,45.33,53.5,44.94z"/>
		<path class="st12" d="M72.13,42.39c0.45-0.73,1.33-1.17,2.19-1.11c0.08,0,0.17-0.01,0.24,0.05c-0.46,0.06-0.94,0.13-1.34,0.39
			c-0.36,0.21-0.59,0.57-0.81,0.91C72.31,42.56,72.22,42.48,72.13,42.39z"/>
		<path class="st12" d="M67.04,43.11c0.62-0.75,1.56-1.22,2.54-1.24c-0.35,0.14-0.73,0.19-1.06,0.38c-1.44,0.72-2.09,2.57-1.62,4.07
			c0.24,0.86,0.87,1.59,1.69,1.96c0.66,0.3,1.42,0.35,2.12,0.18c0.27-0.06,0.5-0.24,0.79-0.24c-1.23,0.81-2.99,0.64-4.08-0.34
			c-0.72-0.63-1.15-1.57-1.15-2.53C66.24,44.54,66.53,43.73,67.04,43.11z"/>
		<path class="st12" d="M74.65,45.74c0.38,0,0.72-0.21,1.1-0.27c-0.61,0.54-1.5,0.72-2.28,0.49c0.01-0.12,0.03-0.24,0.04-0.35
			C73.89,45.65,74.26,45.78,74.65,45.74z"/>
		<path class="st13" d="M74.55,41.34c0.08-0.03,0.16,0.01,0.23,0.02c0.68,0.17,1.27,0.66,1.56,1.29c0.44,0.93,0.2,2.15-0.6,2.81
			c-0.37,0.05-0.71,0.27-1.1,0.27c-0.39,0.04-0.76-0.09-1.14-0.13c0.01-0.3-0.01-0.6-0.05-0.89c0.19,0.01,0.4-0.05,0.49-0.23
			c0.15-0.24-0.04-0.58-0.31-0.61c-0.14-0.03-0.26,0.05-0.38,0.12c-0.19-0.5-0.5-0.95-0.86-1.35c0.22-0.35,0.44-0.71,0.81-0.91
			C73.61,41.47,74.09,41.4,74.55,41.34z"/>
		<path class="st13" d="M69.58,41.87c0.76-0.03,1.52,0.2,2.14,0.64c0.6,0.43,1.05,1.06,1.27,1.76c0.26,0.85,0.19,1.81-0.23,2.6
			c-0.28,0.56-0.73,1.02-1.26,1.35c-0.28,0-0.52,0.18-0.79,0.24c-0.7,0.17-1.46,0.12-2.12-0.18c-0.81-0.37-1.45-1.1-1.69-1.96
			c-0.47-1.5,0.19-3.35,1.62-4.07C68.85,42.07,69.23,42.01,69.58,41.87z M72.26,44.87c-0.24,0.08-0.38,0.35-0.34,0.6
			c0.02,0.21,0.19,0.38,0.38,0.44c0.31,0.09,0.69-0.16,0.69-0.49C73.03,45.04,72.6,44.72,72.26,44.87z"/>
		<path class="st13" d="M61.36,52.03c0.41,0.15,0.72,0.48,1.06,0.73c0.32,0.25,0.7,0.42,1.04,0.64c0.26,0.16,0.55,0.28,0.84,0.39
			c-0.23,0.31-0.55,0.6-0.96,0.62c-0.94,0.03-1.85-0.68-2.03-1.6C61.26,52.55,61.29,52.28,61.36,52.03z"/>
		<path class="st13" d="M84.27,52.88c0.33-0.09,0.65-0.25,0.99-0.32c-0.01,0.23-0.08,0.45-0.15,0.67c-0.08,0.25-0.13,0.51-0.28,0.73
			c-0.13,0.17-0.34,0.26-0.53,0.36c-0.31,0.15-0.67,0.26-1,0.13c-0.43-0.23-0.84-0.52-1.1-0.95C82.87,53.24,83.58,53.09,84.27,52.88
			z"/>
		<path class="st13" d="M75.91,54.79c1.05-0.11,2.12-0.15,3.14-0.42c-0.01,0.48-0.29,0.92-0.69,1.18c-0.41,0.24-0.91,0.29-1.37,0.19
			C76.52,55.61,76.13,55.24,75.91,54.79z"/>
		<path class="st13" d="M68.07,54.87c0.74,0.01,1.47,0.22,2.21,0.23c0.43,0.03,0.85-0.02,1.28,0.02c-0.06,0.53-0.41,1.06-0.95,1.2
			c-0.57,0.1-1.2,0.13-1.7-0.19C68.47,55.85,68.27,55.34,68.07,54.87z"/>
		<path class="st14" d="M86.94,43.93c0.61-0.06,1.22-0.03,1.82,0.02c0.35,0.03,0.67,0.19,1.01,0.26c0.4,0.08,0.75,0.31,1.08,0.55
			c0.42,0.3,0.82,0.66,1.08,1.1c0.32,0.53,0.45,1.16,0.48,1.78c0.02,0.45,0.05,0.92-0.13,1.34c-0.32,0.81-0.96,1.44-1.69,1.89
			c-0.57,0.37-1.24,0.56-1.89,0.75c-0.44,0.12-0.9,0.14-1.35,0.13c-0.56-0.02-1.13,0-1.69-0.1c-0.73-0.11-1.43-0.34-2.1-0.63
			c-0.42-0.19-0.86-0.34-1.25-0.6c-0.32-0.22-0.61-0.51-0.75-0.87c-0.31-0.76-0.22-1.65,0.19-2.35c0.22-0.34,0.42-0.69,0.66-1.02
			c0.31-0.45,0.77-0.77,1.21-1.08c0.38-0.31,0.85-0.47,1.31-0.61C85.6,44.3,86.25,44.01,86.94,43.93z M87.43,44.87
			c-0.66,0.24-1.27,0.6-1.84,1.01c-0.19,0.15-0.44,0.28-0.48,0.54c-0.04,0.21-0.09,0.44-0.02,0.65c0.13,0.25,0.43,0.37,0.7,0.37
			c0.68-0.03,1.35-0.24,1.92-0.62c0.36-0.23,0.69-0.5,1.01-0.78c0.35-0.28,0.23-0.95-0.21-1.07C88.17,44.84,87.79,44.78,87.43,44.87
			z"/>
		<path class="st15" d="M87.43,44.87c0.36-0.09,0.75-0.02,1.09,0.11c0.44,0.12,0.56,0.79,0.21,1.07c-0.32,0.27-0.66,0.54-1.01,0.78
			c-0.57,0.37-1.24,0.59-1.92,0.62c-0.27,0-0.57-0.12-0.7-0.37c-0.07-0.21-0.02-0.44,0.02-0.65c0.04-0.26,0.29-0.39,0.48-0.54
			C86.16,45.47,86.77,45.11,87.43,44.87z"/>
		<path class="st16" d="M34.12,49.29c2.22-0.61,4.65-0.31,6.69,0.74c1.24,0.62,2.35,1.46,3.34,2.43c-0.35,0.1-0.7,0.21-1.03,0.37
			c-0.18-0.22-0.42-0.38-0.65-0.54c-0.79-0.59-1.65-1.08-2.55-1.48c-1.08-0.46-2.28-0.72-3.46-0.55c-0.62,0.13-1.26,0.23-1.82,0.54
			c-0.29,0.17-0.58,0.35-0.85,0.55c-0.5,0.36-0.86,0.86-1.26,1.32c-0.34,0.38-0.51,0.86-0.81,1.27c-0.38,0.51-0.63,1.11-0.89,1.68
			c-0.27,0.63-0.49,1.3-0.51,2c-0.02,0.64-0.14,1.27-0.13,1.91c0.01,2.06,0.53,4.09,1.3,5.99c0.21,0.51,0.42,1.02,0.68,1.51
			c0.07,0.13,0.12,0.28,0.15,0.43c-0.62-0.52-1.14-1.16-1.66-1.78c-1.43-1.81-2.51-3.91-3.08-6.15c-0.36-1.42-0.45-2.92-0.18-4.37
			c0.21-1.12,0.59-2.21,1.21-3.17c0.44,0.59,0.62,1.35,1.16,1.86c0.56-0.84,0.85-1.83,1.46-2.64C31.91,50.23,33,49.62,34.12,49.29z"
			/>
		<path class="st16" d="M43.83,53.3c0.8,0.36,1.5,0.93,2.07,1.6c0.53,0.64,0.98,1.37,1.24,2.17c-0.26-0.21-0.43-0.51-0.63-0.77
			c-0.6-0.77-1.24-1.52-1.94-2.2C44.32,53.83,44.02,53.61,43.83,53.3z"/>
		<path class="st17" d="M36.46,50.26c1.18-0.17,2.37,0.09,3.46,0.55c0.9,0.4,1.76,0.89,2.55,1.48c0.23,0.17,0.47,0.32,0.65,0.54
			c-0.05,0.03-0.15,0.08-0.2,0.11c0.32,0.09,0.63,0.2,0.92,0.36c0.19,0.31,0.49,0.54,0.74,0.8c0.7,0.68,1.34,1.43,1.94,2.2
			c0.2,0.26,0.37,0.56,0.63,0.77c0.23,0.51,0.31,1.06,0.42,1.6c0.2,1.06,0.48,2.1,0.76,3.14c0.28,0.98,0.48,2,0.88,2.95
			c0.23,0.58,0.57,1.1,0.88,1.63c1.11,1.85,2.36,3.65,3.9,5.17c0.79,0.77,1.68,1.45,2.69,1.9c0.72,0.31,1.48,0.47,2.23,0.7
			c-0.19,0.11-0.37,0.29-0.6,0.29c-1.09-0.01-2.18-0.18-3.25-0.41c-1.3-0.31-2.5-0.93-3.6-1.68c-0.77-0.53-1.5-1.11-2.16-1.76
			c-1.3-1.32-2.38-2.9-2.94-4.68c-0.6-1.94-0.59-4.03-1.41-5.9c-0.25-0.52-0.5-1.08-0.95-1.46c-0.57-0.49-1.29-0.73-1.99-0.96
			c-0.93-0.3-1.93-0.5-2.91-0.35c-1.32,0.2-2.54,0.95-3.36,2.01c-0.74,0.94-1.08,2.1-1.63,3.14c-0.12-0.32-0.19-0.66-0.37-0.95
			c-0.36,0.34-0.59,0.81-0.73,1.28c-0.3,1.04-0.13,2.14,0.11,3.17c0.21,0.88,0.49,1.73,0.71,2.61c-0.55-0.28-1.08-0.61-1.52-1.05
			c-0.03-0.15-0.08-0.3-0.15-0.43c-0.26-0.49-0.47-1-0.68-1.51c-0.77-1.9-1.29-3.93-1.3-5.99c-0.01-0.64,0.11-1.27,0.13-1.91
			c0.02-0.69,0.24-1.36,0.51-2c0.26-0.58,0.51-1.17,0.89-1.68c0.3-0.4,0.47-0.89,0.81-1.27c0.4-0.46,0.76-0.96,1.26-1.32
			c0.27-0.2,0.56-0.38,0.85-0.55C35.2,50.49,35.84,50.39,36.46,50.26z"/>
		<path class="st18" d="M60.64,50.94c0.17,0.23,0.43,0.49,0.34,0.8c-0.05,0.55-0.05,1.13,0.13,1.66c0.26,0.67,0.89,1.12,1.55,1.36
			c0.35,0.12,0.75,0.14,1.1-0.01c0.38-0.16,0.65-0.49,0.84-0.84c0.96,0.34,1.93,0.68,2.93,0.85c0.13,0.01,0.16,0.15,0.2,0.25
			c0.17,0.57,0.48,1.14,0.98,1.48c0.27,0.2,0.62,0.22,0.94,0.27c-0.25,0.48-0.48,0.96-0.66,1.47c-0.45,1.3-0.6,2.67-0.63,4.04
			c0,0.64,0.06,1.3,0.35,1.89c-0.16,0.04-0.33,0.12-0.51,0.07c-0.11-0.04-0.22-0.1-0.32-0.16c0.23-1.91-0.52-3.9-1.93-5.2
			c-0.62-0.57-1.37-1.01-2.17-1.29c-0.85-0.3-1.77-0.38-2.66-0.3c-0.07-0.74-0.18-1.47-0.26-2.2c-0.09-1.24-0.16-2.48-0.23-3.73
			C60.63,51.2,60.63,51.07,60.64,50.94z"/>
		<path class="st19" d="M61.12,57.27c0.89-0.08,1.81,0,2.66,0.3c0.8,0.28,1.54,0.72,2.17,1.29c1.42,1.3,2.16,3.29,1.93,5.2
			c-0.31-0.13-0.62-0.27-0.96-0.29c-0.45-0.03-0.89,0.07-1.34,0.1c-0.55,0.04-1.03,0.36-1.53,0.57c-0.34-0.35-0.61-0.76-0.88-1.16
			c-0.32-0.46-0.53-0.98-0.77-1.48c-0.24-0.72-0.58-1.41-0.76-2.15C61.45,58.86,61.19,58.08,61.12,57.27z"/>
		<path class="st20" d="M64.76,64.37c0.55-0.29,1.19-0.2,1.78-0.27c0.43-0.06,0.84,0.1,1.21,0.3c0.3,0.15,0.52,0.43,0.7,0.71
			c0.19,0.32,0.25,0.69,0.42,1.02c0.08-0.25,0.15-0.53,0.07-0.79c-0.09-0.29-0.31-0.52-0.44-0.8c0.32,0,0.63,0.03,0.94,0.09
			c0.35,0.11,0.64,0.35,0.91,0.59c0.49,0.44,0.87,1,1.07,1.63c0.18,0.6,0.28,1.23,0.29,1.86c0,0.53-0.03,1.06-0.21,1.56
			c-0.39,0.97-1.1,1.83-2.03,2.33c-1.2,0.54-2.56,0.6-3.85,0.39c-0.23-0.04-0.47-0.09-0.69-0.17c-0.07-0.16-0.18-0.3-0.33-0.4
			c-0.4-0.29-0.69-0.7-0.97-1.1c-0.27-0.39-0.32-0.91-0.15-1.34c0.3-0.74,0.86-1.34,1.49-1.81c0.29-0.21,0.54-0.47,0.75-0.77
			c0.19-0.27,0.1-0.62,0.08-0.92c-0.02-0.49-0.23-0.93-0.44-1.36C65.23,64.81,64.98,64.6,64.76,64.37z"/>
		<path class="st21" d="M64.31,64.63c0.14-0.1,0.29-0.2,0.45-0.26c0.22,0.23,0.47,0.44,0.61,0.73c0.21,0.43,0.42,0.88,0.44,1.36
			c0.01,0.31,0.1,0.65-0.08,0.92c-0.2,0.3-0.46,0.55-0.75,0.77c-0.63,0.47-1.19,1.07-1.49,1.81c-0.17,0.44-0.12,0.96,0.15,1.34
			c0.28,0.4,0.57,0.81,0.97,1.1c0.14,0.1,0.26,0.24,0.33,0.4c-0.44-0.13-0.81-0.4-1.16-0.69c-0.44-0.37-0.78-0.88-0.9-1.44
			c-0.08-0.38,0-0.78,0.12-1.14c0.16-0.47,0.53-0.82,0.9-1.12c0.35-0.29,0.73-0.54,1.05-0.86c0.31-0.41,0.49-0.97,0.33-1.48
			c-0.06-0.22-0.15-0.44-0.22-0.66c-0.15-0.33-0.47-0.52-0.77-0.69C64.29,64.7,64.3,64.65,64.31,64.63z"/>
		<g>
			<path class="st22" d="M63.07,26.28l0.41,0.69c-0.18,0.13-0.37,0.21-0.55,0.24c-0.18,0.03-0.36,0.02-0.53-0.04
				c-0.17-0.06-0.35-0.17-0.54-0.34c-0.23-0.21-0.39-0.41-0.47-0.61c-0.09-0.2-0.1-0.43-0.06-0.69c0.05-0.26,0.19-0.53,0.43-0.79
				c0.32-0.35,0.66-0.53,1.01-0.55c0.36-0.02,0.7,0.13,1.04,0.43c0.27,0.24,0.43,0.49,0.48,0.73c0.05,0.25,0.02,0.51-0.11,0.8
				l-0.69-0.4c0.04-0.08,0.06-0.15,0.07-0.2c0.01-0.08,0-0.16-0.03-0.24c-0.03-0.08-0.08-0.14-0.14-0.2
				c-0.15-0.13-0.32-0.18-0.5-0.13c-0.14,0.03-0.3,0.15-0.47,0.33c-0.21,0.23-0.32,0.43-0.33,0.58c-0.01,0.15,0.05,0.29,0.18,0.4
				c0.13,0.11,0.25,0.16,0.38,0.15C62.78,26.44,62.92,26.38,63.07,26.28z"/>
			<path class="st22" d="M65.1,25.84l0.61,0.55l-0.26,1.89l1.06-1.17l0.61,0.56l-1.92,2.11l-0.61-0.56l0.26-1.88l-1.05,1.16
				l-0.61-0.56L65.1,25.84z"/>
			<path class="st22" d="M67.83,30.6l0.42,0.69c-0.18,0.13-0.37,0.21-0.55,0.24c-0.18,0.03-0.36,0.02-0.53-0.04
				c-0.17-0.06-0.35-0.17-0.54-0.34c-0.23-0.21-0.39-0.41-0.47-0.61c-0.09-0.2-0.1-0.43-0.06-0.69c0.05-0.26,0.19-0.53,0.43-0.79
				c0.32-0.35,0.65-0.53,1.01-0.55c0.36-0.02,0.7,0.13,1.04,0.43c0.27,0.24,0.43,0.49,0.48,0.73c0.06,0.25,0.02,0.51-0.11,0.8
				l-0.69-0.4c0.04-0.08,0.06-0.15,0.07-0.2c0.01-0.08,0-0.16-0.03-0.24c-0.03-0.08-0.08-0.14-0.14-0.2
				c-0.15-0.13-0.32-0.18-0.5-0.13c-0.14,0.03-0.3,0.15-0.47,0.33c-0.21,0.23-0.32,0.43-0.33,0.58c-0.01,0.15,0.05,0.29,0.18,0.4
				c0.12,0.11,0.25,0.16,0.38,0.15C67.54,30.76,67.68,30.7,67.83,30.6z"/>
		</g>
		<g>
			<path class="st1" d="M63.51,26.31L63.93,27c-0.18,0.13-0.37,0.2-0.55,0.24c-0.18,0.03-0.36,0.02-0.53-0.04
				c-0.17-0.06-0.35-0.17-0.54-0.34c-0.23-0.21-0.39-0.41-0.47-0.61c-0.09-0.2-0.1-0.43-0.06-0.69c0.05-0.26,0.19-0.53,0.43-0.79
				c0.32-0.35,0.66-0.53,1.01-0.55c0.36-0.02,0.7,0.12,1.04,0.43c0.27,0.24,0.43,0.49,0.48,0.73c0.05,0.25,0.02,0.51-0.11,0.8
				l-0.69-0.4c0.04-0.08,0.06-0.15,0.07-0.2c0.01-0.08,0-0.16-0.03-0.24c-0.03-0.08-0.08-0.14-0.14-0.2
				c-0.15-0.13-0.32-0.18-0.5-0.13c-0.14,0.03-0.3,0.15-0.47,0.34c-0.21,0.23-0.32,0.43-0.33,0.58c-0.01,0.15,0.05,0.29,0.18,0.4
				c0.12,0.11,0.25,0.16,0.38,0.15C63.22,26.48,63.36,26.42,63.51,26.31z"/>
			<path class="st1" d="M65.54,25.87l0.61,0.55l-0.27,1.89l1.06-1.17l0.61,0.56l-1.92,2.11l-0.61-0.56l0.26-1.88l-1.05,1.16
				l-0.61-0.56L65.54,25.87z"/>
			<path class="st1" d="M68.27,30.63l0.42,0.69c-0.18,0.13-0.37,0.2-0.55,0.24c-0.18,0.03-0.36,0.02-0.53-0.04
				c-0.17-0.06-0.35-0.17-0.54-0.34c-0.23-0.21-0.39-0.41-0.47-0.61c-0.08-0.2-0.1-0.43-0.06-0.69c0.05-0.26,0.19-0.53,0.43-0.79
				c0.32-0.35,0.66-0.53,1.01-0.55c0.36-0.02,0.7,0.12,1.04,0.43c0.27,0.24,0.43,0.49,0.48,0.73c0.05,0.25,0.02,0.51-0.11,0.8
				l-0.69-0.4c0.04-0.08,0.06-0.15,0.06-0.2c0.01-0.08,0-0.16-0.03-0.24c-0.03-0.08-0.08-0.14-0.14-0.2
				c-0.15-0.13-0.32-0.18-0.5-0.13c-0.14,0.03-0.29,0.15-0.47,0.34c-0.21,0.23-0.32,0.43-0.33,0.58c-0.01,0.15,0.05,0.28,0.18,0.4
				c0.12,0.11,0.25,0.16,0.38,0.15C67.98,30.8,68.12,30.74,68.27,30.63z"/>
		</g>
	</g>
</g>
<path class="st23" d="M288,91H12C5.4,91,0,85.6,0,79V21C0,14.4,5.4,9,12,9h276c6.6,0,12,5.4,12,12v58C300,85.6,294.6,91,288,91z"/>
</svg>
