<svg id="Layer_1" data-name="Layer 1" xmlns="http://www.w3.org/2000/svg" viewBox="0 0 458.65 42.1"><defs><style>.cls-1{fill:#ac2228;}</style></defs><title>avid-logo-2_forWhiteBackground</title><path class="cls-1" d="M334.88,58.84H288.66a8.54,8.54,0,0,1-6.29-2.6,8.76,8.76,0,0,1-2.6-6.35A8.88,8.88,0,0,1,288.66,41H335a5.93,5.93,0,0,0,5.83-5.83A5.45,5.45,0,0,0,339.08,31a5.69,5.69,0,0,0-4.1-1.67H288.66a20.71,20.71,0,0,0-20.55,20.55,20,20,0,0,0,2.08,8.95,20.5,20.5,0,0,0,18.47,11.66h46.22a5.91,5.91,0,0,0,5.83-5.83A5.45,5.45,0,0,0,339,60.51,5.67,5.67,0,0,0,334.88,58.84Z" transform="translate(-32.62 -28.55)"/><path class="cls-1" d="M485.34,58.84H439.12a8.54,8.54,0,0,1-6.29-2.6,8.76,8.76,0,0,1-2.6-6.35A8.88,8.88,0,0,1,439.12,41h46.32a5.93,5.93,0,0,0,5.83-5.83A5.45,5.45,0,0,0,489.54,31a5.67,5.67,0,0,0-4.1-1.67H439.12a20.71,20.71,0,0,0-20.55,20.55,20,20,0,0,0,2.08,8.95,20.5,20.5,0,0,0,18.47,11.66h46.22a5.91,5.91,0,0,0,5.83-5.83,5.41,5.41,0,0,0-1.73-4.16A5.67,5.67,0,0,0,485.34,58.84Z" transform="translate(-32.62 -28.55)"/><path d="M94.54,38.21l2.77,3.33h0l17.65,21,0,0a20.33,20.33,0,0,0,7,5.52,20.14,20.14,0,0,0,17.83,0,20.37,20.37,0,0,0,7.1-5.62s0,0-.06,0l17.46-20.82h0l2.78-3.33a5.68,5.68,0,0,0,1.34-4.22,5.45,5.45,0,0,0-2.08-4,5.9,5.9,0,0,0-8.21.74l-.58.7h0L136.7,56.42h0a8.73,8.73,0,0,1-5.76,2.06,8.52,8.52,0,0,1-6.06-2.39h-.09l-20.7-24.66h0l-.58-.7A5.93,5.93,0,0,0,95.28,30a5.42,5.42,0,0,0-2.08,4A5.67,5.67,0,0,0,94.54,38.21Z" transform="translate(-32.62 -28.55)"/><path d="M183.9,38.87V34.56a5.93,5.93,0,0,0-5.84-5.83,5.44,5.44,0,0,0-4.15,1.73,5.7,5.7,0,0,0-1.68,4.1v.81h0V56.85h0V60h0V64.3a5.91,5.91,0,0,0,5.83,5.83,5.42,5.42,0,0,0,4.15-1.73,5.71,5.71,0,0,0,1.68-4.1v-.81h0V42h0V38.87Z" transform="translate(-32.62 -28.55)"/><path class="cls-1" d="M416.28,50.34h0c0-.13,0-.25,0-.37a20.12,20.12,0,0,0-2.09-9,20.46,20.46,0,0,0-7.44-8.47,20.24,20.24,0,0,0-11-3.25H355.32v-.06H343.54V64.73a5.9,5.9,0,0,0,1.88,4.18,5.58,5.58,0,0,0,4.1,1.74,5.41,5.41,0,0,0,4.15-1.74,5.72,5.72,0,0,0,1.67-4.12V64l0-23h40.41A8.56,8.56,0,0,1,402,43.58a8.82,8.82,0,0,1,2.59,6.34h0V64.73a6,6,0,0,0,1.86,4.18,5.51,5.51,0,0,0,4.06,1.74,5.33,5.33,0,0,0,4.12-1.74,5.75,5.75,0,0,0,1.66-4.12V50.34Z" transform="translate(-32.62 -28.55)"/><path d="M106.58,60.47l-2.78-3.33h0l-17.64-21-.06,0a20.29,20.29,0,0,0-7-5.52,20.14,20.14,0,0,0-17.83,0,20.43,20.43,0,0,0-7.09,5.62l.06,0L36.77,57.1l0,0L34,60.41a5.67,5.67,0,0,0-1.34,4.21,5.38,5.38,0,0,0,2.08,4,5.91,5.91,0,0,0,8.21-.74l.57-.69,0,0L64.44,42.27h0a8.73,8.73,0,0,1,5.76-2.06,8.54,8.54,0,0,1,6.06,2.39h.08l6,7.19H71.68a5.89,5.89,0,0,0-5.82,5.83,5.44,5.44,0,0,0,1.72,4.16,5.69,5.69,0,0,0,4.1,1.67H92.17L97,67.25h0l.58.7a5.92,5.92,0,0,0,8.21.73,5.44,5.44,0,0,0,2.08-4A5.67,5.67,0,0,0,106.58,60.47Z" transform="translate(-32.62 -28.55)"/><path d="M261.94,40.52a20.51,20.51,0,0,0-7.44-8.46,20.18,20.18,0,0,0-11-3.25H197.33a5.58,5.58,0,0,0-4.09,1.74,5.67,5.67,0,0,0-1.73,4.12,5.47,5.47,0,0,0,1.73,4.17,5.67,5.67,0,0,0,4.09,1.68h46.16a8.52,8.52,0,0,1,6.28,2.61,8.82,8.82,0,0,1,2.6,6.37,8.61,8.61,0,0,1-2.6,6.32,8.52,8.52,0,0,1-6.28,2.61H203.05V53.61a5.91,5.91,0,0,0-5.82-5.85,5.4,5.4,0,0,0-4.15,1.74,5.71,5.71,0,0,0-1.67,4.11v.82h0V64.77h0a5.41,5.41,0,0,0,1.71,3.71,5.7,5.7,0,0,0,4.1,1.68h4.32v0h41.93a20.25,20.25,0,0,0,11-3.24,20.6,20.6,0,0,0,7.44-8.47,20.4,20.4,0,0,0,0-17.91Z" transform="translate(-32.62 -28.55)"/></svg>