<?xml version="1.0" encoding="UTF-8" standalone="no"?>
<!DOCTYPE svg PUBLIC "-//W3C//DTD SVG 1.1//EN" "http://www.w3.org/Graphics/SVG/1.1/DTD/svg11.dtd">
<svg width="100%" height="100%" viewBox="0 0 300 300" version="1.1" xmlns="http://www.w3.org/2000/svg" xmlns:xlink="http://www.w3.org/1999/xlink" xml:space="preserve" xmlns:serif="http://www.serif.com/" style="fill-rule:evenodd;clip-rule:evenodd;stroke-linejoin:round;stroke-miterlimit:2;">
    <g transform="matrix(1,0,0,1,-3084.99,-25)">
        <g id="Layer-1" serif:id="Layer 1">
        </g>
        <g transform="matrix(0.301848,0,0,0.582975,2842.18,-1031.7)">
            <rect x="804.411" y="1812.59" width="993.877" height="514.602" style="fill:none;"/>
            <clipPath id="_clip1">
                <rect x="804.411" y="1812.59" width="993.877" height="514.602"/>
            </clipPath>
            <g clip-path="url(#_clip1)">
                <g transform="matrix(4.72715,0,0,2.44759,421.799,1086.95)">
                    <g transform="matrix(1.0962,0,0,1.0962,284.611,341.298)">
                        <path d="M0,0.148C0,-2.376 -0.55,-4.765 -1.656,-7.011C-3.001,-9.815 -4.979,-12.062 -7.58,-13.755C-10.304,-15.479 -13.229,-16.344 -16.353,-16.344L-49.704,-16.344L-49.704,-16.35L-53.135,-16.35C-54.392,-16.35 -55.476,-15.887 -56.397,-14.962C-57.316,-14.039 -57.774,-12.944 -57.774,-11.683C-57.774,-10.327 -57.316,-9.218 -56.397,-8.357C-55.476,-7.462 -54.392,-7.016 -53.135,-7.016L-52.492,-7.016L-52.492,-7.011L-16.353,-7.011C-14.395,-7.011 -12.725,-6.319 -11.346,-4.932C-9.969,-3.517 -9.28,-1.824 -9.28,0.148C-9.28,2.122 -9.969,3.798 -11.346,5.184C-12.725,6.569 -14.395,7.263 -16.353,7.263L-48.575,7.263L-48.567,3.421C-48.567,2.159 -49.027,1.065 -49.946,0.141C-50.864,-0.783 -51.954,-1.245 -53.207,-1.245C-54.555,-1.245 -55.66,-0.783 -56.515,0.141C-57.405,1.065 -57.847,2.159 -57.847,3.421L-57.847,4.069L-57.853,4.069L-57.853,12.316L-57.836,12.316C-57.757,13.501 -57.307,14.488 -56.475,15.269C-55.553,16.161 -54.468,16.612 -53.211,16.612L-49.767,16.612L-49.767,16.594L-16.353,16.594C-13.229,16.594 -10.304,15.732 -7.58,14.007C-4.979,12.313 -3.001,10.064 -1.656,7.263C-0.55,4.984 0,2.611 0,0.148M-61.99,-11.746C-61.99,-12.999 -62.451,-14.086 -63.37,-15.006C-64.287,-15.924 -65.375,-16.383 -66.629,-16.383C-67.979,-16.383 -69.08,-15.924 -69.937,-15.006C-70.827,-14.086 -71.272,-12.999 -71.272,-11.746L-71.272,-11.099L-71.276,-11.099L-71.276,5.996L-71.272,5.996L-71.272,8.492L-71.276,8.492L-71.276,11.923C-71.276,13.177 -70.816,14.265 -69.897,15.183C-68.979,16.102 -67.891,16.561 -66.637,16.561C-65.287,16.561 -64.186,16.102 -63.327,15.183C-62.438,14.265 -61.998,13.177 -61.998,11.923L-61.998,11.278L-61.99,11.278L-61.99,-5.818L-61.998,-5.818L-61.998,-8.314L-61.99,-8.314L-61.99,-11.746ZM-73.873,-12.145C-73.939,-13.399 -74.491,-14.457 -75.528,-15.323C-76.491,-16.129 -77.619,-16.47 -78.913,-16.355C-80.21,-16.238 -81.259,-15.699 -82.062,-14.735L-82.522,-14.181L-82.536,-14.188L-99.187,5.653C-99.19,5.653 -99.191,5.653 -99.193,5.652C-100.5,6.744 -102.026,7.294 -103.773,7.294C-105.65,7.294 -107.259,6.652 -108.601,5.388C-108.624,5.389 -108.644,5.392 -108.668,5.393L-125.139,-14.237L-125.152,-14.227L-125.612,-14.782C-126.417,-15.745 -127.466,-16.285 -128.762,-16.4C-130.056,-16.517 -131.183,-16.174 -132.149,-15.369C-133.184,-14.503 -133.735,-13.446 -133.804,-12.193C-133.896,-10.916 -133.541,-9.797 -132.736,-8.833L-130.527,-6.188L-130.516,-6.198L-116.472,10.551L-116.427,10.528C-114.911,12.383 -113.055,13.852 -110.846,14.917C-108.579,16.022 -106.222,16.573 -103.773,16.573C-101.261,16.573 -98.887,16.022 -96.651,14.917C-94.41,13.836 -92.534,12.339 -91.003,10.443C-91.021,10.432 -91.035,10.426 -91.05,10.418L-77.159,-6.151L-77.148,-6.143L-74.938,-8.788C-74.136,-9.752 -73.776,-10.871 -73.873,-12.145M-121.529,12.343C-121.436,11.066 -121.792,9.946 -122.596,8.985L-124.804,6.338L-124.815,6.347L-138.86,-10.406L-138.905,-10.378C-140.422,-12.235 -142.278,-13.704 -144.487,-14.768C-146.753,-15.872 -149.11,-16.424 -151.559,-16.424C-154.072,-16.424 -156.443,-15.872 -158.678,-14.768C-160.921,-13.686 -162.798,-12.19 -164.327,-10.292C-164.311,-10.286 -164.297,-10.276 -164.282,-10.269L-178.174,6.301L-178.184,6.291L-180.395,8.938C-181.196,9.901 -181.554,11.02 -181.46,12.294C-181.392,13.548 -180.839,14.607 -179.805,15.472C-178.84,16.276 -177.712,16.62 -176.419,16.504C-175.123,16.386 -174.072,15.845 -173.269,14.881L-172.808,14.33L-172.798,14.342L-156.143,-5.503C-156.143,-5.503 -156.14,-5.503 -156.138,-5.501C-154.831,-6.592 -153.305,-7.144 -151.559,-7.144C-149.683,-7.144 -148.073,-6.505 -146.732,-5.241C-146.708,-5.241 -146.686,-5.244 -146.665,-5.245L-141.861,0.48L-150.377,0.48C-151.632,0.48 -152.719,0.94 -153.638,1.859C-154.558,2.777 -155.015,3.866 -155.015,5.118C-155.015,6.469 -154.558,7.57 -153.638,8.429C-152.719,9.318 -151.632,9.757 -150.377,9.757L-149.733,9.757L-149.733,9.765L-134.067,9.765L-130.189,14.384L-130.18,14.378L-129.718,14.932C-128.913,15.895 -127.865,16.434 -126.569,16.55C-125.276,16.665 -124.147,16.322 -123.183,15.517C-122.149,14.652 -121.596,13.592 -121.529,12.343" style="fill:#fff;fill-rule:nonzero;"/>
                    </g>
                    <g transform="matrix(1.0962,0,0,1.0962,101.134,389.88)">
                        <path d="M0,76.76C-2.623,76.76 -4.749,74.633 -4.749,72.01C-4.749,69.387 -2.623,67.26 0,67.26C2.623,67.26 4.75,69.387 4.75,72.01C4.75,74.633 2.623,76.76 0,76.76M0,0.178C2.623,0.178 4.75,2.304 4.75,4.928C4.75,7.551 2.623,9.677 0,9.677C-2.623,9.677 -4.749,7.551 -4.749,4.928C-4.749,2.304 -2.623,0.178 0,0.178M38.841,46.985C36.772,46.985 35.15,48.578 35.15,50.612L35.15,66.024C35.15,70.264 31.762,73.713 27.596,73.713C25.482,73.713 23.491,72.879 22.185,71.477L0.64,51.58C0.511,51.465 0.214,51.166 -0.338,50.448C-1.002,49.584 -2.384,47.789 -2.384,41.746L-2.384,34.417C-2.384,28.652 -1.235,27.204 -0.313,26.041C0.304,25.262 0.582,24.967 0.685,24.865L22.149,5.05C23.577,3.524 25.483,2.715 27.662,2.715C31.827,2.715 35.216,6.164 35.216,10.403L35.216,26.148C35.216,28.182 36.838,29.774 38.909,29.774C40.981,29.774 42.573,28.099 42.573,26.027L42.573,2.245C40.999,1.466 39.999,-0.067 39.999,-1.942C39.999,-3.671 40.927,-5.171 42.304,-6.008C42.244,-6.1 42.181,-6.183 42.123,-6.283C40.749,-10.269 36.96,-13 32.69,-13L-8.326,-13C-12.514,-13 -16.273,-10.34 -17.697,-6.451C-17.756,-6.298 -17.82,-6.175 -17.882,-6.038C-16.475,-5.208 -15.521,-3.693 -15.521,-1.942C-15.521,0.01 -16.697,1.682 -18.376,2.421C-18.376,2.431 -18.375,2.439 -18.375,2.449L-18.368,74.358C-18.37,74.367 -18.373,74.377 -18.375,74.387C-16.64,75.101 -15.416,76.805 -15.416,78.797C-15.416,80.589 -16.416,82.131 -17.877,82.947C-17.838,83.033 -17.799,83.117 -17.764,83.209C-16.339,87.1 -12.58,89.76 -8.391,89.76L32.624,89.76C36.892,89.76 40.683,87.028 42.057,83.041C42.114,82.965 42.173,82.906 42.231,82.833C40.893,81.989 39.999,80.507 39.999,78.808C39.999,77.022 40.992,75.484 42.445,74.665C42.49,74.618 42.533,74.571 42.6,74.526L42.6,50.742C42.6,48.67 40.914,46.985 38.841,46.985" style="fill:#ab2227;"/>
                    </g>
                    <g transform="matrix(1.0962,0,0,1.0962,244.269,389.869)">
                        <path d="M0,76.76C-2.623,76.76 -4.75,74.633 -4.75,72.01C-4.75,69.387 -2.623,67.26 0,67.26C2.624,67.26 4.75,69.387 4.75,72.01C4.75,74.633 2.624,76.76 0,76.76M0,0.178C2.624,0.178 4.75,2.304 4.75,4.928C4.75,7.551 2.624,9.677 0,9.677C-2.623,9.677 -4.75,7.551 -4.75,4.928C-4.75,2.304 -2.623,0.178 0,0.178M38.841,46.985C36.772,46.985 35.15,48.578 35.15,50.612L35.15,66.024C35.15,70.264 31.762,73.713 27.596,73.713C25.482,73.713 23.491,72.879 22.185,71.477L0.64,51.58C0.511,51.465 0.214,51.166 -0.338,50.448C-1.002,49.584 -2.384,47.789 -2.384,41.746L-2.384,34.417C-2.384,28.652 -1.235,27.204 -0.313,26.041C0.304,25.262 0.582,24.967 0.685,24.865L22.149,5.05C23.577,3.524 25.483,2.715 27.662,2.715C31.827,2.715 35.216,6.164 35.216,10.403L35.216,26.148C35.216,28.182 36.838,29.774 38.909,29.774C40.981,29.774 42.573,28.099 42.573,26.027L42.573,2.245C40.999,1.466 39.999,-0.067 39.999,-1.942C39.999,-3.671 40.927,-5.171 42.304,-6.008C42.244,-6.1 42.181,-6.183 42.124,-6.283C40.75,-10.269 36.959,-13 32.69,-13L-8.326,-13C-12.514,-13 -16.272,-10.34 -17.697,-6.451C-17.756,-6.298 -17.82,-6.175 -17.882,-6.038C-16.475,-5.208 -15.521,-3.693 -15.521,-1.942C-15.521,0.01 -16.697,1.682 -18.375,2.421L-18.375,2.448L-18.368,74.358C-18.374,74.391 -18.383,74.421 -18.391,74.452C-16.721,75.196 -15.553,76.863 -15.553,78.808C-15.553,80.553 -16.5,82.064 -17.899,82.896C-17.853,82.998 -17.806,83.099 -17.764,83.209C-16.339,87.1 -12.579,89.76 -8.391,89.76L32.624,89.76C36.892,89.76 40.683,87.028 42.057,83.041C42.114,82.965 42.173,82.906 42.231,82.833C40.894,81.989 39.999,80.507 39.999,78.808C39.999,77.022 40.992,75.484 42.445,74.665C42.49,74.618 42.533,74.571 42.6,74.526L42.6,50.742C42.6,48.67 40.914,46.985 38.841,46.985" style="fill:#ab2227;"/>
                    </g>
                    <g transform="matrix(1.0962,0,0,1.0962,172.256,463.972)">
                        <path d="M0,-58.017C-2.623,-58.017 -4.749,-60.144 -4.749,-62.767C-4.749,-65.39 -2.623,-67.517 0,-67.517C2.624,-67.517 4.75,-65.39 4.75,-62.767C4.75,-60.144 2.624,-58.017 0,-58.017M0,-0.434C2.624,-0.434 4.75,1.693 4.75,4.316C4.75,6.939 2.624,9.066 0,9.066C-2.623,9.066 -4.749,6.939 -4.749,4.316C-4.749,1.693 -2.623,-0.434 0,-0.434M42.848,7.171L42.848,-65.507C41.501,-66.351 40.598,-67.836 40.598,-69.542C40.598,-71.12 41.372,-72.506 42.552,-73.375C42.472,-73.581 42.392,-73.788 42.305,-73.975C40.931,-77.963 37.141,-80.694 32.873,-80.694L0.716,-80.694C-1.354,-80.663 -6.354,-80.663 -8.529,-80.686C-12.561,-80.529 -16.134,-77.913 -17.515,-74.145C-17.603,-73.968 -17.696,-73.827 -17.788,-73.675C-16.345,-72.854 -15.36,-71.321 -15.36,-69.542C-15.36,-67.63 -16.493,-65.992 -18.118,-65.232L-18.185,6.748C-17.944,6.889 -17.721,7.052 -17.508,7.227C-16.215,8.081 -15.36,9.543 -15.36,11.208C-15.36,12.088 -15.615,12.903 -16.032,13.611C-16.384,14.381 -16.909,15.066 -17.582,15.597C-16.157,19.488 -12.398,22.15 -8.208,22.15L8.198,22.15C12.465,22.15 16.255,19.418 17.629,15.429C17.834,14.712 18.052,14.15 18.052,12.806C18.052,8.15 18.109,2.556 18.109,-0.077L0.811,-16.04C0.652,-16.186 0.355,-16.499 -0.154,-17.161C-0.819,-18.024 -2.203,-19.817 -2.203,-25.866L-2.203,-33.277C-2.203,-39.041 -1.054,-40.49 -0.131,-41.653C0.388,-42.307 0.714,-42.68 0.867,-42.829L22.333,-62.644C23.761,-64.171 25.667,-64.978 27.845,-64.978C32.011,-64.978 34.771,-61.529 34.771,-57.291L34.771,19.054C34.771,21.085 36.702,22.677 38.771,22.677C40.843,22.677 42.848,20.992 42.848,18.921L42.83,15.233C41.492,14.388 40.598,12.907 40.598,11.208C40.598,9.501 41.501,8.015 42.848,7.171" style="fill:#ab2227;"/>
                    </g>
                    <g transform="matrix(1.0962,0,0,1.0962,284.901,340.977)">
                        <path d="M0,0.441C0,-2.083 -0.55,-4.472 -1.656,-6.718C-3.002,-9.522 -4.979,-11.769 -7.58,-13.462C-10.304,-15.186 -13.229,-16.051 -16.353,-16.051L-49.704,-16.051L-49.704,-16.057L-53.135,-16.057C-54.392,-16.057 -55.476,-15.594 -56.398,-14.669C-57.316,-13.746 -57.775,-12.651 -57.775,-11.39C-57.775,-10.034 -57.316,-8.925 -56.398,-8.064C-55.476,-7.169 -54.392,-6.723 -53.135,-6.723L-52.492,-6.723L-52.492,-6.718L-16.353,-6.718C-14.395,-6.718 -12.725,-6.026 -11.346,-4.639C-9.969,-3.224 -9.28,-1.531 -9.28,0.441C-9.28,2.415 -9.969,4.091 -11.346,5.477C-12.725,6.862 -14.395,7.556 -16.353,7.556L-48.575,7.556L-48.567,3.714C-48.567,2.452 -49.027,1.358 -49.946,0.434C-50.864,-0.49 -51.954,-0.952 -53.207,-0.952C-54.555,-0.952 -55.66,-0.49 -56.515,0.434C-57.405,1.358 -57.847,2.452 -57.847,3.714L-57.847,4.362L-57.853,4.362L-57.853,12.609L-57.837,12.609C-57.757,13.794 -57.307,14.781 -56.475,15.562C-55.553,16.454 -54.468,16.905 -53.211,16.905L-49.767,16.905L-49.767,16.887L-16.353,16.887C-13.229,16.887 -10.304,16.025 -7.58,14.3C-4.979,12.606 -3.002,10.357 -1.656,7.556C-0.55,5.277 0,2.904 0,0.441M-61.99,-11.453C-61.99,-12.706 -62.451,-13.793 -63.37,-14.713C-64.287,-15.631 -65.375,-16.09 -66.629,-16.09C-67.979,-16.09 -69.08,-15.631 -69.937,-14.713C-70.827,-13.793 -71.272,-12.706 -71.272,-11.453L-71.272,-10.806L-71.276,-10.806L-71.276,6.289L-71.272,6.289L-71.272,8.785L-71.276,8.785L-71.276,12.216C-71.276,13.47 -70.816,14.558 -69.897,15.476C-68.979,16.395 -67.891,16.854 -66.637,16.854C-65.287,16.854 -64.186,16.395 -63.327,15.476C-62.439,14.558 -61.998,13.47 -61.998,12.216L-61.998,11.571L-61.99,11.571L-61.99,-5.525L-61.998,-5.525L-61.998,-8.021L-61.99,-8.021L-61.99,-11.453ZM-73.873,-11.852C-73.939,-13.106 -74.491,-14.164 -75.528,-15.03C-76.491,-15.836 -77.619,-16.177 -78.913,-16.062C-80.21,-15.945 -81.259,-15.406 -82.063,-14.442L-82.522,-13.888L-82.536,-13.895L-99.187,5.946C-99.19,5.946 -99.191,5.946 -99.193,5.945C-100.5,7.037 -102.026,7.587 -103.773,7.587C-105.65,7.587 -107.259,6.945 -108.601,5.681C-108.624,5.682 -108.644,5.685 -108.668,5.686L-125.139,-13.944L-125.152,-13.934L-125.612,-14.489C-126.417,-15.452 -127.466,-15.992 -128.762,-16.107C-130.056,-16.224 -131.183,-15.881 -132.149,-15.076C-133.184,-14.21 -133.735,-13.153 -133.804,-11.9C-133.896,-10.623 -133.541,-9.504 -132.736,-8.54L-130.527,-5.895L-130.516,-5.905L-116.472,10.844L-116.427,10.821C-114.911,12.676 -113.055,14.145 -110.846,15.21C-108.579,16.315 -106.222,16.866 -103.773,16.866C-101.261,16.866 -98.887,16.315 -96.651,15.21C-94.41,14.129 -92.534,12.632 -91.003,10.736C-91.021,10.725 -91.035,10.719 -91.05,10.711L-77.159,-5.858L-77.148,-5.85L-74.939,-8.495C-74.136,-9.459 -73.776,-10.578 -73.873,-11.852M-121.529,12.636C-121.436,11.359 -121.792,10.239 -122.596,9.278L-124.804,6.631L-124.815,6.64L-138.86,-10.113L-138.905,-10.085C-140.422,-11.942 -142.278,-13.411 -144.487,-14.475C-146.753,-15.579 -149.11,-16.131 -151.559,-16.131C-154.072,-16.131 -156.443,-15.579 -158.678,-14.475C-160.921,-13.393 -162.798,-11.897 -164.327,-9.999C-164.311,-9.993 -164.297,-9.983 -164.282,-9.976L-178.174,6.594L-178.184,6.584L-180.395,9.231C-181.196,10.194 -181.554,11.313 -181.46,12.587C-181.392,13.841 -180.839,14.9 -179.805,15.765C-178.84,16.569 -177.712,16.913 -176.419,16.797C-175.123,16.679 -174.072,16.138 -173.269,15.174L-172.808,14.623L-172.798,14.635L-156.143,-5.21C-156.143,-5.21 -156.14,-5.21 -156.138,-5.208C-154.831,-6.299 -153.305,-6.851 -151.559,-6.851C-149.683,-6.851 -148.073,-6.212 -146.732,-4.948C-146.708,-4.948 -146.686,-4.951 -146.665,-4.952L-141.861,0.773L-150.378,0.773C-151.632,0.773 -152.719,1.233 -153.638,2.152C-154.558,3.07 -155.015,4.159 -155.015,5.411C-155.015,6.762 -154.558,7.863 -153.638,8.722C-152.719,9.611 -151.632,10.05 -150.378,10.05L-149.733,10.05L-149.733,10.058L-134.067,10.058L-130.189,14.677L-130.18,14.671L-129.718,15.225C-128.913,16.188 -127.865,16.727 -126.569,16.843C-125.276,16.958 -124.147,16.615 -123.183,15.81C-122.15,14.945 -121.596,13.885 -121.529,12.636M5.735,-10.753L5.735,11.267C5.735,17.77 1.121,23.194 -5.016,24.446C-5.323,23.689 -5.868,23.057 -6.553,22.627C-7.332,22.074 -8.278,21.741 -9.306,21.741C-11.305,21.741 -13.012,22.974 -13.722,24.718L-28.225,24.718C-28.934,22.974 -30.641,21.741 -32.64,21.741C-34.639,21.741 -36.345,22.974 -37.055,24.718L-86.521,24.698L-86.521,24.671L-95.369,24.67L-95.369,24.666L-143.292,24.645C-144.019,22.939 -145.71,21.741 -147.682,21.741C-149.653,21.741 -151.345,22.938 -152.072,24.645L-166.625,24.645C-167.352,22.938 -169.043,21.741 -171.015,21.741C-171.714,21.741 -172.374,21.901 -172.972,22.171C-174.034,22.535 -174.891,23.339 -175.315,24.371C-181.445,23.122 -186.062,17.696 -186.062,11.193L-186.062,-10.825C-186.062,-17.288 -181.502,-22.685 -175.426,-23.981C-175.409,-23.943 -175.385,-23.909 -175.367,-23.87C-174.896,-22.552 -173.738,-21.56 -172.319,-21.338C-171.921,-21.23 -171.51,-21.154 -171.077,-21.154C-169.024,-21.154 -167.29,-22.457 -166.617,-24.277L-152.206,-24.277C-151.532,-22.457 -149.797,-21.154 -147.744,-21.154C-145.691,-21.154 -143.957,-22.457 -143.284,-24.277L-91.827,-24.256L-91.827,-24.252L-67.951,-24.243L-67.951,-24.218L-37.141,-24.205C-36.45,-22.423 -34.729,-21.154 -32.702,-21.154C-30.676,-21.154 -28.956,-22.423 -28.264,-24.205L-13.808,-24.205C-13.116,-22.423 -11.395,-21.154 -9.369,-21.154C-9.141,-21.154 -8.923,-21.19 -8.704,-21.221C-8.673,-21.22 -8.643,-21.213 -8.612,-21.213C-6.883,-21.213 -5.418,-22.348 -4.911,-23.911C1.171,-22.62 5.735,-17.221 5.735,-10.753" style="fill:#030404;fill-rule:nonzero;"/>
                    </g>
                </g>
            </g>
        </g>
    </g>
</svg>
