<?xml version="1.0" encoding="UTF-8" standalone="no"?>
<svg
   xmlns:dc="http://purl.org/dc/elements/1.1/"
   xmlns:cc="http://creativecommons.org/ns#"
   xmlns:rdf="http://www.w3.org/1999/02/22-rdf-syntax-ns#"
   xmlns:svg="http://www.w3.org/2000/svg"
   xmlns="http://www.w3.org/2000/svg"
   xmlns:sodipodi="http://sodipodi.sourceforge.net/DTD/sodipodi-0.dtd"
   xmlns:inkscape="http://www.inkscape.org/namespaces/inkscape"
   id="New_VCP"
   data-name="New VCP"
   width="100"
   height="100"
   viewBox="0 0 100 100"
   version="1.1"
   sodipodi:docname="coolant.svg"
   inkscape:version="0.92.3 (2405546, 2018-03-11)">
  <metadata
     id="metadata1059">
    <rdf:RDF>
      <cc:Work
         rdf:about="">
        <dc:format>image/svg+xml</dc:format>
        <dc:type
           rdf:resource="http://purl.org/dc/dcmitype/StillImage" />
        <dc:title>Flood_coolant</dc:title>
      </cc:Work>
    </rdf:RDF>
  </metadata>
  <defs
     id="defs1057" />
  <sodipodi:namedview
     pagecolor="#ffffff"
     bordercolor="#666666"
     borderopacity="1"
     objecttolerance="10"
     gridtolerance="10"
     guidetolerance="10"
     inkscape:pageopacity="0"
     inkscape:pageshadow="2"
     inkscape:window-width="1920"
     inkscape:window-height="1017"
     id="namedview1055"
     showgrid="false"
     inkscape:zoom="8.2199943"
     inkscape:cx="50"
     inkscape:cy="50"
     inkscape:window-x="-8"
     inkscape:window-y="-8"
     inkscape:window-maximized="1"
     inkscape:current-layer="New_VCP" />
  <title
     id="title1002">Flood_coolant</title>
  <rect
     style="fill:#a6a5a0;fill-opacity:1;stroke:#000000;stroke-width:0.001;stroke-miterlimit:4;stroke-dasharray:none;stroke-opacity:1"
     id="rect1606"
     width="100"
     height="100"
     x="0"
     y="0"
     rx="5"
     ry="5" />
  <rect
     width="100"
     height="100"
     rx="6"
     ry="6"
     style="fill:none"
     id="rect1004" />
  <rect
     width="100"
     height="100"
     rx="6"
     ry="6"
     style="fill: none"
     id="rect1006" />
  <g
     id="g1028">
    <g
       id="g1020">
      <g
         id="g1012">
        <rect
           x="36.52"
           y="32.91"
           width="22.88"
           height="4.98"
           style="fill: #fff"
           id="rect1008" />
        <path
           d="M60.12,38.62H35.79V32.19H60.12ZM37.24,37.17H58.67V33.64H37.24Z"
           style="fill: #010101"
           id="path1010" />
      </g>
      <g
         id="g1018">
        <rect
           x="45.08"
           y="37.9"
           width="5.75"
           height="3.96"
           style="fill: #fff"
           id="rect1014" />
        <path
           d="M51.56,42.59h-7.2V37.17h7.2Zm-5.75-1.45h4.3V38.62h-4.3Z"
           style="fill: #010101"
           id="path1016" />
      </g>
    </g>
    <g
       id="g1026">
      <path
         d="M66,49A37.35,37.35,0,0,0,61,48.83H59.12a12.32,12.32,0,0,0-22.34,0h-.06c-3.77,0-7.54,0-11.31,0-1.81,0-3.62,0-5.51,0v10.4H36.78a12.32,12.32,0,0,0,22.35,0H66c0,2.4,0,4.83,0,7.22h10.4c0-1.75,0-3.51,0-5.26,0-1.17,0-2.34,0-3.51C76.39,52.4,70.55,49.62,66,49Z"
         style="fill: #fff"
         id="path1022" />
      <path
         d="M77.17,67.19H65.32V60H59.58a13,13,0,0,1-23.25,0H19.18V48.13h.72c1,0,2,0,3,0H25.4c3.64,0,7.28,0,10.92,0a13,13,0,0,1,23.25,0h2.27a29.92,29.92,0,0,1,4.26.18c5.28.73,11,4,11.07,9.41,0,.8,0,1.61,0,2.41v1.11c0,1.21,0,2.41,0,3.62Zm-10.4-1.45h9v-.92c0-1.21,0-2.42,0-3.62V60.09c0-.79,0-1.59,0-2.38-.06-4.57-5.13-7.35-9.82-8h0a28.54,28.54,0,0,0-4.05-.16h-3.2l-.2-.42a11.59,11.59,0,0,0-21,0l-.2.42h-.46c-3.83,0-7.6,0-11.36,0H20.62v9H37.24l.2.42a11.59,11.59,0,0,0,21,0l.2-.42h8.1Z"
         style="fill: #010101"
         id="path1024" />
    </g>
  </g>
</svg>
