<?xml version="1.0" encoding="UTF-8" standalone="no"?>
<!-- Created with Inkscape (http://www.inkscape.org/) -->

<svg
   width="300"
   height="100"
   viewBox="0 0 79.374998 26.458333"
   version="1.1"
   id="svg342"
   inkscape:version="1.2.2 (732a01da63, 2022-12-09)"
   sodipodi:docname="feedrate.svg"
   xmlns:inkscape="http://www.inkscape.org/namespaces/inkscape"
   xmlns:sodipodi="http://sodipodi.sourceforge.net/DTD/sodipodi-0.dtd"
   xmlns="http://www.w3.org/2000/svg"
   xmlns:svg="http://www.w3.org/2000/svg">
  <sodipodi:namedview
     id="namedview344"
     pagecolor="#ffffff"
     bordercolor="#000000"
     borderopacity="0.25"
     inkscape:showpageshadow="2"
     inkscape:pageopacity="0.0"
     inkscape:pagecheckerboard="0"
     inkscape:deskcolor="#d1d1d1"
     inkscape:document-units="mm"
     showgrid="false"
     inkscape:zoom="4.4436009"
     inkscape:cx="166.53161"
     inkscape:cy="37.582133"
     inkscape:window-width="1920"
     inkscape:window-height="1009"
     inkscape:window-x="-8"
     inkscape:window-y="-8"
     inkscape:window-maximized="1"
     inkscape:current-layer="layer1" />
  <defs
     id="defs339" />
  <g
     inkscape:label="Layer 1"
     inkscape:groupmode="layer"
     id="layer1">
    <g
       aria-label="FEEDRATE"
       transform="matrix(0.65821987,0,0,1.0067643,0.26622316,-6.9910089)"
       id="text348"
       style="font-size:17.2455px;font-family:'Eras Demi ITC';-inkscape-font-specification:'Eras Demi ITC';stroke-width:0.17964">
      <path
         d="m 4.0432718,25.886389 1.0174845,-4.052693 h 8.0708947 l 0.465628,-1.897005 H 5.5263848 l 0.5346106,-2.155687 h 8.9159236 l 0.482874,-1.897006 H 4.4744093 c -0.275928,0 -0.551856,0.06898 -0.827784,0.189701 -0.275928,0.120718 -0.5346105,0.275928 -0.7760476,0.448383 -0.241437,0.1897 -0.448383,0.396646 -0.620838,0.620838 -0.172455,0.224191 -0.2931735,0.431138 -0.3276645,0.638084 l -2.01772355,8.105385 z"
         style="font-family:'Grand National Expanded Italic';-inkscape-font-specification:'Grand National Expanded Italic, '"
         id="path322" />
      <path
         d="m 27.566137,25.886389 0.465628,-1.897005 h -8.915923 l 0.551856,-2.155688 h 8.070894 l 0.465628,-1.897005 h -8.070894 l 0.534611,-2.155687 h 8.915923 l 0.482874,-1.897006 H 19.081351 c -0.275928,0 -0.551856,0.06898 -0.827785,0.189701 -0.275928,0.120718 -0.53461,0.275928 -0.776047,0.448383 -0.241437,0.1897 -0.448383,0.396646 -0.620838,0.620838 -0.172455,0.224191 -0.293174,0.431138 -0.327665,0.638084 l -1.552095,6.20838 c -0.06898,0.206946 -0.06898,0.431137 0,0.655329 0.06898,0.224191 0.172455,0.431137 0.310419,0.603592 0.137964,0.189701 0.327665,0.34491 0.551856,0.465629 0.224192,0.120718 0.465629,0.172455 0.741557,0.172455 z"
         style="font-family:'Grand National Expanded Italic';-inkscape-font-specification:'Grand National Expanded Italic, '"
         id="path324" />
      <path
         d="m 42.173078,25.886389 0.465629,-1.897005 h -8.915924 l 0.551856,-2.155688 h 8.070894 l 0.465629,-1.897005 h -8.070895 l 0.534611,-2.155687 h 8.915924 l 0.482874,-1.897006 H 33.688292 c -0.275928,0 -0.551856,0.06898 -0.827784,0.189701 -0.275928,0.120718 -0.534611,0.275928 -0.776048,0.448383 -0.241437,0.1897 -0.448383,0.396646 -0.620838,0.620838 -0.172455,0.224191 -0.293173,0.431138 -0.327664,0.638084 l -1.552095,6.20838 c -0.06898,0.206946 -0.06898,0.431137 0,0.655329 0.06898,0.224191 0.172455,0.431137 0.310419,0.603592 0.137964,0.189701 0.327664,0.34491 0.551856,0.465629 0.224191,0.120718 0.465628,0.172455 0.741556,0.172455 z"
         style="font-family:'Grand National Expanded Italic';-inkscape-font-specification:'Grand National Expanded Italic, '"
         id="path326" />
      <path
         d="m 58.677024,23.989384 1.552095,-6.20838 c 0.03449,-0.206946 0.03449,-0.413893 -0.01724,-0.638084 -0.06898,-0.224192 -0.172455,-0.431138 -0.310419,-0.620838 -0.137964,-0.172455 -0.327665,-0.327665 -0.534611,-0.448383 -0.224191,-0.120719 -0.465628,-0.189701 -0.724311,-0.189701 H 46.225778 L 43.72518,25.886389 h 4.13892 l 2.017724,-8.105385 h 6.20838 l -1.552095,6.20838 h -5.070177 l -0.465629,1.897005 h 7.139638 c 0.275928,0 0.551856,-0.05174 0.827784,-0.172455 0.275928,-0.120719 0.517365,-0.275928 0.758802,-0.465629 0.241437,-0.172455 0.431137,-0.379401 0.603592,-0.603592 0.172455,-0.224192 0.275928,-0.448383 0.34491,-0.655329 z"
         style="font-family:'Grand National Expanded Italic';-inkscape-font-specification:'Grand National Expanded Italic, '"
         id="path328" />
      <path
         d="m 75.732831,19.936691 c -0.06898,0.206946 -0.172455,0.431138 -0.34491,0.655329 -0.172455,0.224192 -0.362155,0.431138 -0.603592,0.603593 -0.241437,0.1897 -0.482874,0.34491 -0.758802,0.465628 -0.275928,0.120719 -0.551856,0.172455 -0.827784,0.172455 h -2.207424 l 3.845746,4.052693 h -4.48383 l -4.242393,-4.311375 0.413892,-1.638323 h 5.070177 l 0.534611,-2.155687 h -6.208381 l -2.017723,8.105385 h -4.13892 l 2.500597,-10.002391 h 12.416761 c 0.258682,0 0.500119,0.06898 0.724311,0.189701 0.206946,0.120718 0.396646,0.275928 0.53461,0.448383 0.137964,0.1897 0.241437,0.396646 0.310419,0.620838 0.05174,0.224191 0.05174,0.431138 0.01725,0.638084 z"
         style="font-family:'Grand National Expanded Italic';-inkscape-font-specification:'Grand National Expanded Italic, '"
         id="path330" />
      <path
         d="M 89.236058,16.953219 C 89.132585,16.522082 88.873902,16.228908 88.494501,16.090944 88.097854,15.95298 87.545998,15.883998 86.856178,15.883998 h -2.121196 c -0.310419,0 -0.603593,0.01725 -0.879521,0.05174 -0.275928,0.03449 -0.517365,0.08623 -0.758802,0.172455 -0.241437,0.103473 -0.482874,0.224191 -0.68982,0.379401 -0.224191,0.172455 -0.448383,0.379401 -0.655329,0.638083 l -6.363589,8.760715 h 3.017962 l 5.622033,-7.725984 c 0.103473,-0.206946 0.275928,-0.310419 0.482874,-0.34491 l 0.189701,0.01725 0.793293,3.224909 h -2.75928 l -0.482874,1.897005 h 3.742273 l 0.741557,2.931735 h 4.587303 z"
         style="font-family:'Grand National Expanded Italic';-inkscape-font-specification:'Grand National Expanded Italic, '"
         id="path332" />
      <path
         d="m 92.20228,17.781004 h 4.552812 l -2.017723,8.105385 h 4.13892 l 2.017721,-8.105385 h 4.55281 l 0.48288,-1.897006 H 92.685154 Z"
         style="font-family:'Grand National Expanded Italic';-inkscape-font-specification:'Grand National Expanded Italic, '"
         id="path334" />
      <path
         d="m 118.03604,25.886389 0.46563,-1.897005 h -8.91593 l 0.55186,-2.155688 h 8.07089 l 0.46563,-1.897005 h -8.07089 l 0.53461,-2.155687 h 8.91592 l 0.48288,-1.897006 h -10.98539 c -0.27593,0 -0.55185,0.06898 -0.82778,0.189701 -0.27593,0.120718 -0.53461,0.275928 -0.77605,0.448383 -0.24144,0.1897 -0.44838,0.396646 -0.62084,0.620838 -0.17245,0.224191 -0.29317,0.431138 -0.32766,0.638084 l -1.5521,6.20838 c -0.069,0.206946 -0.069,0.431137 0,0.655329 0.069,0.224191 0.17246,0.431137 0.31042,0.603592 0.13797,0.189701 0.32767,0.34491 0.55186,0.465629 0.22419,0.120718 0.46563,0.172455 0.74155,0.172455 z"
         style="font-family:'Grand National Expanded Italic';-inkscape-font-specification:'Grand National Expanded Italic, '"
         id="path336" />
    </g>
  </g>
</svg>
