<?xml version="1.0" encoding="utf-8"?>
<!-- Generator: Adobe Illustrator 27.0.0, SVG Export Plug-In . SVG Version: 6.00 Build 0)  -->
<svg version="1.1"
	 id="svg5" xmlns:svg="http://www.w3.org/2000/svg" xmlns:inkscape="http://www.inkscape.org/namespaces/inkscape" xmlns:sodipodi="http://sodipodi.sourceforge.net/DTD/sodipodi-0.dtd" inkscape:export-filename="bitmap.svg" sodipodi:docname="feedrate_override.svg"
	 xmlns="http://www.w3.org/2000/svg" xmlns:xlink="http://www.w3.org/1999/xlink" x="0px" y="0px" viewBox="0 0 124 86"
	 style="enable-background:new 0 0 124 86;" xml:space="preserve">
<style type="text/css">
	.st0{enable-background:new    ;}
</style>
<sodipodi:namedview  bordercolor="#000000" borderopacity="0.25" id="namedview7" inkscape:current-layer="layer1" inkscape:cx="190.44746" inkscape:cy="172.79008" inkscape:deskcolor="#d1d1d1" inkscape:document-units="mm" inkscape:pagecheckerboard="0" inkscape:pageopacity="0.0" inkscape:showpageshadow="2" inkscape:window-height="1111" inkscape:window-maximized="1" inkscape:window-width="1920" inkscape:window-x="-9" inkscape:window-y="-9" inkscape:zoom="1.1893044" pagecolor="#ffffff" showgrid="false">
	</sodipodi:namedview>
<g class="st0">
	<path d="M10.8,15.8v-14h9.7v2.4h-6.8v3.3h5.9v2.4h-5.9v5.9H10.8z"/>
	<path d="M22.9,15.8v-14h10.5v2.4h-7.6v3.1h7.1v2.4h-7.1v3.8h7.9v2.4H22.9z"/>
	<path d="M36,15.8v-14h10.5v2.4h-7.6v3.1h7.1v2.4h-7.1v3.8h7.9v2.4H36z"/>
	<path d="M49.1,1.8h5.2c1.2,0,2.1,0.1,2.7,0.3c0.8,0.2,1.5,0.7,2.1,1.3c0.6,0.6,1,1.4,1.3,2.3C60.8,6.6,61,7.7,61,9
		c0,1.2-0.1,2.1-0.4,3c-0.4,1-0.9,1.8-1.5,2.5c-0.5,0.5-1.2,0.8-2,1.1c-0.6,0.2-1.5,0.3-2.5,0.3h-5.4V1.8z M52,4.2v9.3h2.1
		c0.8,0,1.4,0,1.7-0.1c0.5-0.1,0.8-0.3,1.1-0.6c0.3-0.3,0.6-0.7,0.7-1.3c0.2-0.6,0.3-1.5,0.3-2.6s-0.1-1.9-0.3-2.5
		c-0.2-0.6-0.5-1-0.8-1.4c-0.3-0.3-0.8-0.5-1.3-0.7c-0.4-0.1-1.2-0.1-2.3-0.1H52z"/>
	<path d="M63.4,15.8v-14h6c1.5,0,2.6,0.1,3.3,0.4c0.7,0.3,1.2,0.7,1.6,1.3c0.4,0.6,0.6,1.4,0.6,2.2c0,1-0.3,1.9-0.9,2.6
		c-0.6,0.7-1.6,1.1-2.8,1.3c0.6,0.4,1.1,0.7,1.5,1.2c0.4,0.4,0.9,1.2,1.6,2.3l1.7,2.7h-3.4l-2.1-3c-0.7-1.1-1.2-1.8-1.5-2.1
		c-0.3-0.3-0.6-0.5-0.9-0.6C68,10,67.5,10,66.8,10h-0.6v5.8H63.4z M66.2,7.8h2.1c1.4,0,2.2-0.1,2.6-0.2c0.3-0.1,0.6-0.3,0.8-0.6
		c0.2-0.3,0.3-0.6,0.3-1c0-0.5-0.1-0.8-0.4-1.1c-0.3-0.3-0.6-0.5-1.1-0.5c-0.2,0-0.9,0-2.1,0h-2.2V7.8z"/>
	<path d="M90.3,15.8h-3.1L86,12.6h-5.6l-1.2,3.2h-3l5.5-14h3L90.3,15.8z M85.1,10.3l-1.9-5.2l-1.9,5.2H85.1z"/>
	<path d="M93.6,15.8V4.2h-4.2V1.8h11.2v2.4h-4.2v11.6H93.6z"/>
	<path d="M102.4,15.8v-14h10.5v2.4h-7.6v3.1h7.1v2.4h-7.1v3.8h7.9v2.4H102.4z"/>
</g>
<g class="st0">
	<path d="M10.9,27.4c0-1.4,0.2-2.6,0.6-3.6c0.3-0.7,0.8-1.4,1.3-1.9s1.2-1,1.8-1.3c0.9-0.4,1.9-0.6,3-0.6c2.1,0,3.7,0.6,5,1.9
		c1.2,1.3,1.9,3.1,1.9,5.3c0,2.3-0.6,4-1.9,5.3c-1.2,1.3-2.9,1.9-5,1.9c-2.1,0-3.8-0.6-5-1.9C11.5,31.4,10.9,29.6,10.9,27.4z
		 M13.8,27.3c0,1.6,0.4,2.8,1.1,3.6c0.7,0.8,1.7,1.2,2.8,1.2s2.1-0.4,2.8-1.2c0.7-0.8,1.1-2,1.1-3.6c0-1.6-0.4-2.8-1.1-3.6
		c-0.7-0.8-1.7-1.2-2.8-1.2c-1.2,0-2.1,0.4-2.8,1.2C14.2,24.5,13.8,25.7,13.8,27.3z"/>
	<path d="M30.4,34.3l-5-14h3.1L32,30.7l3.5-10.3h3l-5.1,14H30.4z"/>
	<path d="M39.9,34.3v-14h10.5v2.4h-7.6v3.1h7.1v2.4h-7.1v3.8h7.9v2.4H39.9z"/>
	<path d="M53.1,34.3v-14h6c1.5,0,2.6,0.1,3.3,0.4c0.7,0.3,1.2,0.7,1.6,1.3c0.4,0.6,0.6,1.4,0.6,2.2c0,1-0.3,1.9-0.9,2.6
		c-0.6,0.7-1.6,1.1-2.8,1.3c0.6,0.4,1.1,0.7,1.5,1.2c0.4,0.4,0.9,1.2,1.6,2.3l1.7,2.7h-3.4l-2.1-3c-0.7-1.1-1.2-1.8-1.5-2.1
		c-0.3-0.3-0.6-0.5-0.9-0.6c-0.3-0.1-0.8-0.2-1.4-0.2h-0.6v5.8H53.1z M55.9,26.2H58c1.4,0,2.2-0.1,2.6-0.2c0.3-0.1,0.6-0.3,0.8-0.6
		c0.2-0.3,0.3-0.6,0.3-1c0-0.5-0.1-0.8-0.4-1.1c-0.3-0.3-0.6-0.5-1.1-0.5c-0.2,0-0.9,0-2.1,0h-2.2V26.2z"/>
	<path d="M67.3,34.3v-14h6c1.5,0,2.6,0.1,3.3,0.4c0.7,0.3,1.2,0.7,1.6,1.3c0.4,0.6,0.6,1.4,0.6,2.2c0,1-0.3,1.9-0.9,2.6
		c-0.6,0.7-1.6,1.1-2.8,1.3c0.6,0.4,1.1,0.7,1.5,1.2c0.4,0.4,0.9,1.2,1.6,2.3l1.7,2.7h-3.4l-2.1-3c-0.7-1.1-1.2-1.8-1.5-2.1
		c-0.3-0.3-0.6-0.5-0.9-0.6c-0.3-0.1-0.8-0.2-1.4-0.2h-0.6v5.8H67.3z M70.2,26.2h2.1c1.4,0,2.2-0.1,2.6-0.2c0.3-0.1,0.6-0.3,0.8-0.6
		c0.2-0.3,0.3-0.6,0.3-1c0-0.5-0.1-0.8-0.4-1.1c-0.3-0.3-0.6-0.5-1.1-0.5c-0.2,0-0.9,0-2.1,0h-2.2V26.2z"/>
	<path d="M81.4,34.3v-14h2.8v14H81.4z"/>
	<path d="M87,20.3h5.2c1.2,0,2.1,0.1,2.7,0.3c0.8,0.2,1.5,0.7,2.1,1.3c0.6,0.6,1,1.4,1.3,2.3c0.3,0.9,0.5,2,0.5,3.3
		c0,1.2-0.1,2.1-0.4,3c-0.4,1-0.9,1.8-1.5,2.5c-0.5,0.5-1.2,0.8-2,1.1c-0.6,0.2-1.5,0.3-2.5,0.3H87V20.3z M89.8,22.7v9.3H92
		c0.8,0,1.4,0,1.7-0.1c0.5-0.1,0.8-0.3,1.1-0.6c0.3-0.3,0.6-0.7,0.7-1.3s0.3-1.5,0.3-2.6c0-1.1-0.1-1.9-0.3-2.5
		c-0.2-0.6-0.5-1-0.8-1.4c-0.3-0.3-0.8-0.5-1.3-0.7c-0.4-0.1-1.2-0.1-2.3-0.1H89.8z"/>
	<path d="M101.2,34.3v-14h10.5v2.4h-7.6v3.1h7.1v2.4h-7.1v3.8h7.9v2.4H101.2z"/>
</g>
<g class="st0">
	<path d="M71.9,43c0-1.3,0.3-2.3,1-2.9c0.7-0.6,1.5-0.9,2.7-0.9c1.2,0,2.1,0.3,2.7,0.9c0.7,0.6,1,1.6,1,2.9c0,1.3-0.3,2.3-1,2.9
		s-1.5,0.9-2.7,0.9c-1.2,0-2.1-0.3-2.7-0.9C72.3,45.3,71.9,44.3,71.9,43z M74.4,43c0,0.9,0.1,1.6,0.4,1.9c0.2,0.2,0.5,0.4,0.8,0.4
		c0.3,0,0.6-0.1,0.8-0.4c0.2-0.3,0.4-1,0.4-1.9s-0.1-1.6-0.4-1.9c-0.2-0.2-0.5-0.4-0.8-0.4c-0.3,0-0.6,0.1-0.8,0.4
		C74.5,41.4,74.4,42,74.4,43z M78,54.5h-2.4l8.9-15.3h2.3L78,54.5z M83.2,50.6c0-1.3,0.3-2.3,1-2.9s1.6-0.9,2.7-0.9
		c1.1,0,2,0.3,2.7,0.9c0.7,0.6,1,1.6,1,2.9c0,1.3-0.3,2.3-1,2.9c-0.7,0.6-1.5,0.9-2.7,0.9c-1.2,0-2.1-0.3-2.7-0.9
		C83.5,52.9,83.2,52,83.2,50.6z M85.7,50.6c0,0.9,0.1,1.6,0.4,1.9c0.2,0.2,0.5,0.4,0.8,0.4c0.3,0,0.6-0.1,0.8-0.4
		c0.3-0.3,0.4-1,0.4-1.9c0-0.9-0.1-1.6-0.4-1.9c-0.2-0.2-0.5-0.4-0.8-0.4s-0.6,0.1-0.8,0.4C85.8,49.1,85.7,49.7,85.7,50.6z"/>
</g>
</svg>
