<?xml version="1.0" encoding="UTF-8" standalone="no"?>
<!-- Created with Inkscape (http://www.inkscape.org/) -->

<svg
   width="500"
   height="100"
   viewBox="0 0 132.29166 26.458333"
   version="1.1"
   id="svg342"
   inkscape:version="1.2.2 (732a01da63, 2022-12-09)"
   sodipodi:docname="jogcontrol.svg"
   xmlns:inkscape="http://www.inkscape.org/namespaces/inkscape"
   xmlns:sodipodi="http://sodipodi.sourceforge.net/DTD/sodipodi-0.dtd"
   xmlns="http://www.w3.org/2000/svg"
   xmlns:svg="http://www.w3.org/2000/svg">
  <sodipodi:namedview
     id="namedview344"
     pagecolor="#ffffff"
     bordercolor="#000000"
     borderopacity="0.25"
     inkscape:showpageshadow="2"
     inkscape:pageopacity="0.0"
     inkscape:pagecheckerboard="0"
     inkscape:deskcolor="#d1d1d1"
     inkscape:document-units="mm"
     showgrid="false"
     inkscape:zoom="3.1421003"
     inkscape:cx="253.33373"
     inkscape:cy="55.69523"
     inkscape:window-width="1920"
     inkscape:window-height="1009"
     inkscape:window-x="-8"
     inkscape:window-y="-8"
     inkscape:window-maximized="1"
     inkscape:current-layer="layer1" />
  <defs
     id="defs339" />
  <g
     inkscape:label="Layer 1"
     inkscape:groupmode="layer"
     id="layer1">
    <g
       aria-label="JOG CONTROL"
       transform="matrix(1.0076747,0,0,1.4450793,0,-18.058618)"
       id="text348"
       style="font-size:14.1111px;font-family:'Eras Demi ITC';-inkscape-font-specification:'Eras Demi ITC';stroke-width:0.211625">
      <path
         d="m 10.968548,24.574353 1.665109,-6.632218 H 9.2469934 L 7.5818835,24.574353 H 1.3306661 L 0.94966644,26.126574 H 8.8942158 c 0.2257776,0 0.4515553,-0.04233 0.6773329,-0.141111 0.2257776,-0.09878 0.423333,-0.225778 0.6208883,-0.381 0.197555,-0.141111 0.352778,-0.310444 0.493889,-0.493889 0.141111,-0.183444 0.225777,-0.366888 0.282222,-0.536221 z"
         style="font-family:'Grand National Expanded Italic';-inkscape-font-specification:'Grand National Expanded Italic, '"
         id="path280" />
      <path
         d="m 25.36188,19.494356 c 0.02822,-0.169333 0.02822,-0.338666 -0.01411,-0.52211 -0.05645,-0.183445 -0.141111,-0.352778 -0.254,-0.508 -0.112889,-0.141111 -0.268111,-0.268111 -0.437444,-0.366888 -0.183445,-0.09878 -0.381,-0.155223 -0.592667,-0.155223 h -8.46666 c -0.225777,0 -0.451555,0.05645 -0.677333,0.155223 -0.225777,0.09878 -0.437444,0.225777 -0.634999,0.366888 -0.197555,0.155222 -0.366889,0.324555 -0.508,0.508 -0.141111,0.183444 -0.239888,0.352777 -0.268111,0.52211 l -1.269999,5.079997 c -0.05644,0.169333 -0.05644,0.352777 0,0.536221 0.05644,0.183445 0.141111,0.352778 0.254,0.493889 0.112889,0.155222 0.268111,0.282222 0.451555,0.381 0.183445,0.09878 0.381,0.141111 0.606778,0.141111 h 8.46666 c 0.225778,0 0.451555,-0.04233 0.677333,-0.141111 0.225777,-0.09878 0.423333,-0.225778 0.620888,-0.381 0.197556,-0.141111 0.352778,-0.310444 0.493889,-0.493889 0.141111,-0.183444 0.225777,-0.366888 0.282222,-0.536221 z m -8.46666,0 h 5.079996 l -1.269999,5.079997 h -5.079996 z"
         style="font-family:'Grand National Expanded Italic';-inkscape-font-specification:'Grand National Expanded Italic, '"
         id="path282" />
      <path
         d="m 38.033652,21.342911 h -3.386664 l -0.818444,3.231442 h -5.079996 l 1.269999,-5.079997 h 8.46666 l 0.395111,-1.552221 H 28.720326 c -0.225778,0 -0.451556,0.05645 -0.677333,0.155223 -0.225778,0.09878 -0.437444,0.225777 -0.635,0.366888 -0.197555,0.155222 -0.366888,0.324555 -0.507999,0.508 -0.141111,0.183444 -0.239889,0.352777 -0.268111,0.52211 l -1.269999,5.079997 c -0.05645,0.169333 -0.05645,0.352777 0,0.536221 0.05644,0.183445 0.141111,0.352778 0.254,0.493889 0.112888,0.155222 0.26811,0.282222 0.451555,0.381 0.183444,0.09878 0.380999,0.141111 0.606777,0.141111 h 8.46666 c 0.225778,0 0.451555,-0.04233 0.677333,-0.141111 0.225778,-0.09878 0.423333,-0.225778 0.620888,-0.381 0.197556,-0.141111 0.352778,-0.310444 0.493889,-0.493889 0.141111,-0.183444 0.225777,-0.366888 0.282222,-0.536221 z"
         style="font-family:'Grand National Expanded Italic';-inkscape-font-specification:'Grand National Expanded Italic, '"
         id="path284" />
      <path
         d="m 54.55776,26.126574 0.381,-1.552221 h -7.295439 l 1.269999,-5.079997 h 7.295439 l 0.395111,-1.552221 h -8.988771 c -0.225778,0 -0.451555,0.05645 -0.677333,0.155223 -0.225777,0.09878 -0.437444,0.225777 -0.634999,0.366888 -0.197556,0.155222 -0.366889,0.324555 -0.508,0.508 -0.141111,0.183444 -0.239889,0.352777 -0.268111,0.52211 l -1.269999,5.079997 c -0.05644,0.169333 -0.05644,0.352777 0,0.536221 0.05645,0.183445 0.141111,0.352778 0.254,0.493889 0.112889,0.155222 0.268111,0.282222 0.451555,0.381 0.183445,0.09878 0.381,0.141111 0.606778,0.141111 z"
         style="font-family:'Grand National Expanded Italic';-inkscape-font-specification:'Grand National Expanded Italic, '"
         id="path286" />
      <path
         d="m 69.332083,19.494356 c 0.02822,-0.169333 0.02822,-0.338666 -0.01411,-0.52211 -0.05644,-0.183445 -0.141111,-0.352778 -0.254,-0.508 -0.112889,-0.141111 -0.268111,-0.268111 -0.437444,-0.366888 -0.183444,-0.09878 -0.381,-0.155223 -0.592666,-0.155223 h -8.46666 c -0.225778,0 -0.451555,0.05645 -0.677333,0.155223 -0.225778,0.09878 -0.437444,0.225777 -0.635,0.366888 -0.197555,0.155222 -0.366888,0.324555 -0.507999,0.508 -0.141111,0.183444 -0.239889,0.352777 -0.268111,0.52211 l -1.269999,5.079997 c -0.05644,0.169333 -0.05644,0.352777 0,0.536221 0.05644,0.183445 0.141111,0.352778 0.254,0.493889 0.112888,0.155222 0.268111,0.282222 0.451555,0.381 0.183444,0.09878 0.381,0.141111 0.606777,0.141111 h 8.46666 c 0.225778,0 0.451556,-0.04233 0.677333,-0.141111 0.225778,-0.09878 0.423333,-0.225778 0.620889,-0.381 0.197555,-0.141111 0.352777,-0.310444 0.493888,-0.493889 0.141111,-0.183444 0.225778,-0.366888 0.282222,-0.536221 z m -8.46666,0 h 5.079996 l -1.269999,5.079997 h -5.079996 z"
         style="font-family:'Grand National Expanded Italic';-inkscape-font-specification:'Grand National Expanded Italic, '"
         id="path288" />
      <path
         d="m 70.997195,17.942135 -2.046109,8.184439 h 2.31422 l 1.580443,-6.349996 3.499553,6.349996 h 4.628441 l 2.046109,-8.184439 H 80.536299 L 79.0123,24.009909 75.68208,17.942135 Z"
         style="font-family:'Grand National Expanded Italic';-inkscape-font-specification:'Grand National Expanded Italic, '"
         id="path290" />
      <path
         d="m 83.894733,19.494356 h 3.72533 l -1.650999,6.632218 h 3.386664 l 1.650999,-6.632218 h 3.72533 l 0.395111,-1.552221 H 84.289843 Z"
         style="font-family:'Grand National Expanded Italic';-inkscape-font-specification:'Grand National Expanded Italic, '"
         id="path292" />
      <path
         d="m 107.41794,21.258244 c -0.0564,0.169333 -0.14112,0.352777 -0.28223,0.536222 -0.14111,0.183444 -0.29633,0.352777 -0.49389,0.493888 -0.19755,0.155222 -0.39511,0.282222 -0.62088,0.381 -0.22578,0.09878 -0.45156,0.141111 -0.67734,0.141111 h -1.80622 l 3.14678,3.316109 h -3.66889 l -3.471329,-3.527775 0.338667,-1.340555 h 4.148662 l 0.43745,-1.763888 h -5.080001 l -1.650998,6.632218 h -3.386664 l 2.046109,-8.184439 h 10.159994 c 0.21166,0 0.40922,0.05645 0.59266,0.155223 0.16934,0.09878 0.32456,0.225777 0.43745,0.366888 0.11289,0.155222 0.19755,0.324555 0.254,0.508 0.0423,0.183444 0.0423,0.352777 0.0141,0.52211 z"
         style="font-family:'Grand National Expanded Italic';-inkscape-font-specification:'Grand National Expanded Italic, '"
         id="path294" />
      <path
         d="m 120.97871,19.494356 c 0.0282,-0.169333 0.0282,-0.338666 -0.0141,-0.52211 -0.0564,-0.183445 -0.14111,-0.352778 -0.254,-0.508 -0.11289,-0.141111 -0.26811,-0.268111 -0.43745,-0.366888 -0.18344,-0.09878 -0.381,-0.155223 -0.59266,-0.155223 h -8.46666 c -0.22578,0 -0.45156,0.05645 -0.67734,0.155223 -0.22577,0.09878 -0.43744,0.225777 -0.635,0.366888 -0.19755,0.155222 -0.36688,0.324555 -0.50799,0.508 -0.14112,0.183444 -0.23989,0.352777 -0.26812,0.52211 l -1.26999,5.079997 c -0.0564,0.169333 -0.0564,0.352777 0,0.536221 0.0564,0.183445 0.14111,0.352778 0.254,0.493889 0.11288,0.155222 0.26811,0.282222 0.45155,0.381 0.18344,0.09878 0.381,0.141111 0.60678,0.141111 h 8.46666 c 0.22578,0 0.45155,-0.04233 0.67733,-0.141111 0.22578,-0.09878 0.42333,-0.225778 0.62089,-0.381 0.19755,-0.141111 0.35278,-0.310444 0.49389,-0.493889 0.14111,-0.183444 0.22578,-0.366888 0.28222,-0.536221 z m -8.46666,0 h 5.07999 l -1.26999,5.079997 h -5.08 z"
         style="font-family:'Grand National Expanded Italic';-inkscape-font-specification:'Grand National Expanded Italic, '"
         id="path296" />
      <path
         d="m 120.9646,24.574353 1.66511,-6.632218 h 3.38667 l -1.66511,6.632218 h 6.25121 l -0.38099,1.552221 h -7.94455 c -0.22578,0 -0.42334,-0.04233 -0.60678,-0.141111 -0.18345,-0.09878 -0.33867,-0.225778 -0.45156,-0.381 -0.11289,-0.141111 -0.19755,-0.310444 -0.254,-0.493889 -0.0564,-0.183444 -0.0564,-0.366888 0,-0.536221 z"
         style="font-family:'Grand National Expanded Italic';-inkscape-font-specification:'Grand National Expanded Italic, '"
         id="path298" />
    </g>
  </g>
</svg>
