<?xml version="1.0" encoding="utf-8"?>
<!-- Generator: Adobe Illustrator 25.4.1, SVG Export Plug-In . SVG Version: 6.00 Build 0)  -->
<svg version="1.1" id="New_VCP" xmlns="http://www.w3.org/2000/svg" xmlns:xlink="http://www.w3.org/1999/xlink" x="0px" y="0px"
	 viewBox="0 0 480 100" style="enable-background:new 0 0 480 100;" xml:space="preserve">
<style type="text/css">
	.st0{fill:#223E80;}
	.st1{fill:#FFFFFF;}
	.st2{fill:url(#SVGID_1_);}
	.st3{fill:#55A4DB;}
	.st4{fill:url(#SVGID_00000115475322387933241680000011536762465222863755_);}
	.st5{fill:url(#SVGID_00000101104111093235961300000000818685664505112465_);}
	.st6{fill:none;}
</style>
<path class="st0" d="M480,83.9c0,5.94-5.03,10.76-11.24,10.76H105.85c-6.2,0-11.24-4.82-11.24-10.76V16.1
	c0-5.94,5.03-10.76,11.24-10.76h362.91c6.21,0,11.24,4.82,11.24,10.76V83.9z"/>
<g>
	<path class="st1" d="M113.47,47.9c0-3.36,0.32-6.72,0.97-10.09c0.65-3.37,1.72-6.46,3.22-9.27c1.5-2.81,3.51-5.07,6.02-6.78
		c2.51-1.7,5.57-2.55,9.16-2.55c0.75,0,1.31,0.02,1.67,0.07c2.77,0.22,5.39,1.25,7.85,3.07c2.46,1.83,4.43,4.26,5.92,7.29
		c1.49,3.04,2.23,6.38,2.23,10.03h-8.53c-0.23-1.93-0.69-3.71-1.38-5.37c-0.69-1.65-1.69-2.99-3-4.02
		c-1.31-1.02-2.92-1.54-4.83-1.54c-3.48,0.07-6.16,1.99-8.03,5.76c-1.88,3.76-2.81,8.27-2.81,13.53c0.05,3.23,0.49,6.31,1.35,9.24
		c0.85,2.92,2.08,5.28,3.68,7.05c1.6,1.78,3.5,2.67,5.68,2.67c2.57,0,4.7-0.96,6.38-2.89c1.68-1.92,2.72-4.33,3.1-7.22h8.87
		c-0.11,2.22-0.56,4.48-1.35,6.78c-0.78,2.3-1.93,4.42-3.43,6.39c-1.5,1.96-3.42,3.55-5.76,4.76c-2.34,1.21-5.09,1.81-8.25,1.81
		c-3.5,0-6.48-0.88-8.92-2.63c-2.44-1.75-4.38-4.07-5.82-6.94c-1.43-2.87-2.46-5.95-3.07-9.24
		C113.78,54.55,113.47,51.24,113.47,47.9z"/>
	<path class="st1" d="M157.06,75.42v-55.5h30.8v10h-21.46v11.44h19.78v10.22h-19.78V65.2h22.58v10.22H157.06z"/>
	<path class="st1" d="M193.87,75.42v-55.5h8.87l17.06,37.62V19.91h8.73v55.5h-8.73L202.74,37.2v38.21H193.87z"/>
	<path class="st1" d="M245.13,75.42v-45.5h-12.66v-10h33.53v10h-12.14v45.5H245.13z"/>
	<path class="st1" d="M270.99,75.42v-55.5h23.74c2.16,0,4.08,0.67,5.76,2c1.68,1.33,2.98,3.1,3.91,5.29
		c0.92,2.2,1.38,4.59,1.38,7.18c0,2.74-0.57,5.35-1.71,7.83c-1.14,2.48-2.82,4.57-5.03,6.28c1.01,0.32,1.99,1.13,2.97,2.42
		c0.97,1.3,1.46,2.9,1.46,4.8l0.48,12.4c0,1.14,0.2,2.14,0.6,3.02c0.4,0.88,0.76,1.31,1.07,1.31v2.96h-9.28
		c-1-3.23-1.58-7.07-1.74-11.51c0.09-1.11,0.14-2.65,0.14-4.63c0-1.58-0.13-2.78-0.39-3.59c-0.26-0.82-0.83-1.41-1.71-1.78
		c-0.88-0.37-2.22-0.55-4.04-0.55h-8.73v22.07H270.99z M279.86,43.13h11.3c1.77,0,3.16-0.72,4.17-2.17c1.01-1.44,1.52-3.1,1.52-4.98
		c0-1.83-0.51-3.38-1.53-4.67c-1.02-1.28-2.46-1.93-4.32-1.93h-11.13V43.13z"/>
	<path class="st1" d="M310.08,47.28c0.16-3.18,0.6-6.37,1.31-9.57c0.72-3.2,1.85-6.23,3.41-9.11s3.69-5.25,6.4-7.11
		c2.71-1.86,6.01-2.8,9.93-2.8c2.52,0,4.98,0.6,7.37,1.8c2.39,1.2,4.53,3.01,6.43,5.42c1.9,2.42,3.43,5.52,4.59,9.29
		c1.16,3.78,1.81,8.21,1.94,13.29c0,3.88-0.38,7.52-1.14,10.94c-0.76,3.42-1.96,6.45-3.58,9.11c-1.63,2.65-3.75,4.75-6.36,6.29
		c-2.62,1.54-5.7,2.31-9.24,2.31c-2.75,0-5.37-0.57-7.85-1.7c-2.48-1.13-4.72-2.91-6.72-5.33c-2-2.42-3.58-5.54-4.74-9.35
		C310.66,56.96,310.08,52.46,310.08,47.28z M329.92,29.39c-1.61,0.02-3.1,0.58-4.46,1.67c-1.36,1.09-2.53,2.59-3.51,4.52
		c-0.98,1.93-1.71,4.01-2.2,6.24c-0.49,2.23-0.75,4.59-0.8,7.05c0.07,5.04,1.15,9.32,3.24,12.85c2.09,3.53,5.06,5.3,8.92,5.3
		c2.5,0,4.62-0.82,6.35-2.46c1.74-1.64,3.01-3.8,3.83-6.48s1.23-5.6,1.23-8.76c0-3.36-0.48-6.57-1.45-9.63s-2.41-5.54-4.33-7.44
		C334.83,30.34,332.55,29.39,329.92,29.39z"/>
	<path class="st1" d="M356.4,75.42v-55.5h8.87v55.5H356.4z"/>
	<path class="st1" d="M373.59,75.42v-55.5h17.74c2.8,0,5.3,0.77,7.51,2.3c2.2,1.53,4.04,3.61,5.49,6.24
		c1.46,2.63,2.54,5.59,3.26,8.87c0.72,3.28,1.07,6.75,1.07,10.4c0,3.58-0.36,7-1.07,10.26c-0.72,3.26-1.8,6.22-3.26,8.87
		c-1.46,2.65-3.29,4.75-5.49,6.28c-2.21,1.53-4.71,2.3-7.51,2.3H373.59z M382.33,65.2h7.81c1.96,0,3.64-0.83,5.05-2.5
		c1.41-1.67,2.47-3.86,3.19-6.59c0.72-2.73,1.07-5.62,1.07-8.68c0-3.16-0.36-6.12-1.07-8.87c-0.72-2.75-1.78-4.97-3.19-6.65
		c-1.41-1.68-3.09-2.52-5.05-2.52h-7.81V65.2z"/>
</g>
<g>
	<linearGradient id="SVGID_1_" gradientUnits="userSpaceOnUse" x1="436.5728" y1="58.8836" x2="448.9375" y2="58.8836">
		<stop  offset="0" style="stop-color:#BE7C2A"/>
		<stop  offset="0.0428" style="stop-color:#C9904B"/>
		<stop  offset="0.1079" style="stop-color:#D9B181"/>
		<stop  offset="0.1665" style="stop-color:#E7CEB0"/>
		<stop  offset="0.2164" style="stop-color:#F2E5D6"/>
		<stop  offset="0.2556" style="stop-color:#FBF6F0"/>
		<stop  offset="0.2793" style="stop-color:#FFFFFF"/>
		<stop  offset="0.3145" style="stop-color:#F3E7DB"/>
		<stop  offset="0.3892" style="stop-color:#E5C5A8"/>
		<stop  offset="0.467" style="stop-color:#DAAA81"/>
		<stop  offset="0.5463" style="stop-color:#D09563"/>
		<stop  offset="0.6275" style="stop-color:#C9864B"/>
		<stop  offset="0.7112" style="stop-color:#C47A3A"/>
		<stop  offset="0.7984" style="stop-color:#C1722F"/>
		<stop  offset="0.8913" style="stop-color:#BF6E2A"/>
		<stop  offset="1" style="stop-color:#BE6C28"/>
	</linearGradient>
	<line class="st2" x1="448.94" y1="58.88" x2="436.57" y2="58.88"/>
	<g>
		<ellipse class="st3" cx="442.92" cy="65.13" rx="7.51" ry="18.72"/>
		
			<radialGradient id="SVGID_00000102508433838364025380000011976274830868080018_" cx="579.3097" cy="45.9537" r="11.3944" gradientTransform="matrix(1.162 0 0 1.0831 -230.2689 15.7886)" gradientUnits="userSpaceOnUse">
			<stop  offset="0" style="stop-color:#FFFFFF"/>
			<stop  offset="0.2133" style="stop-color:#FAFBFE"/>
			<stop  offset="0.3716" style="stop-color:#EFF4FB"/>
			<stop  offset="0.5121" style="stop-color:#DEE9F7"/>
			<stop  offset="0.6424" style="stop-color:#C7DBF2"/>
			<stop  offset="0.7655" style="stop-color:#A9CBEB"/>
			<stop  offset="0.8827" style="stop-color:#85B8E3"/>
			<stop  offset="0.9944" style="stop-color:#58A5DB"/>
			<stop  offset="1" style="stop-color:#55A4DB"/>
		</radialGradient>
		
			<ellipse style="fill:url(#SVGID_00000102508433838364025380000011976274830868080018_);" cx="442.92" cy="65.56" rx="5.94" ry="16.55"/>
	</g>
	
		<linearGradient id="SVGID_00000021828417737323202410000016394378096543987074_" gradientUnits="userSpaceOnUse" x1="426.1351" y1="36.455" x2="459.6964" y2="36.455">
		<stop  offset="0" style="stop-color:#BE7C2A"/>
		<stop  offset="0.0259" style="stop-color:#BF7E2D"/>
		<stop  offset="0.0609" style="stop-color:#C38537"/>
		<stop  offset="0.101" style="stop-color:#C9904B"/>
		<stop  offset="0.1451" style="stop-color:#D1A269"/>
		<stop  offset="0.1924" style="stop-color:#DDBA90"/>
		<stop  offset="0.2414" style="stop-color:#EDDBC5"/>
		<stop  offset="0.2793" style="stop-color:#FFFFFF"/>
		<stop  offset="0.3119" style="stop-color:#EFDCCB"/>
		<stop  offset="0.3506" style="stop-color:#E3C1A2"/>
		<stop  offset="0.3934" style="stop-color:#D9AA80"/>
		<stop  offset="0.4393" style="stop-color:#D19867"/>
		<stop  offset="0.4892" style="stop-color:#CB8951"/>
		<stop  offset="0.5444" style="stop-color:#C67E40"/>
		<stop  offset="0.6072" style="stop-color:#C27634"/>
		<stop  offset="0.6822" style="stop-color:#C0702C"/>
		<stop  offset="0.7813" style="stop-color:#BE6D29"/>
		<stop  offset="1" style="stop-color:#BE6C28"/>
	</linearGradient>
	<polygon style="fill:url(#SVGID_00000021828417737323202410000016394378096543987074_);" points="449.1,54.29 459.7,49.18 
		459.7,18.62 426.14,18.62 426.14,49.18 436.73,54.29 	"/>
</g>
<ellipse class="st1" cx="43.76" cy="49.57" rx="37.97" ry="39.37"/>
<g>
	<path class="st0" d="M65.7,41.91l0.06-0.06L65.6,26.2l-2.07,2.19c-5.24-5.29-12.39-8.55-20.28-8.55
		c-16.06,0-29.08,13.5-29.08,30.16c0,16.65,13.02,30.15,29.08,30.15c8.29,0,15.76-3.59,21.06-9.36L53.61,60.36
		c-2.62,2.82-6.3,4.57-10.37,4.57c-7.95,0-14.4-6.69-14.4-14.93c0-8.25,6.45-14.94,14.4-14.94c3.89,0,7.42,1.6,10.01,4.2l-2.7,2.85
		L65.7,41.91z"/>
	<path class="st0" d="M77.04,5.34c5.22,0,9.45,4.39,9.45,9.8v69.71c0,5.42-4.23,9.8-9.45,9.8H9.45c-5.22,0-9.45-4.39-9.45-9.8V15.14
		c0-5.41,4.23-9.8,9.45-9.8H77.04z M43.25,13.23C23.66,13.23,7.79,29.69,7.79,50c0,20.31,15.87,36.77,35.46,36.77
		S78.7,70.31,78.7,50C78.7,29.69,62.83,13.23,43.25,13.23z"/>
</g>
<rect class="st6" width="480" height="100"/>
</svg>
