<?xml version="1.0" encoding="UTF-8" standalone="no"?>
<!-- Created with Inkscape (http://www.inkscape.org/) -->

<svg
   width="300"
   height="100"
   viewBox="0 0 79.374998 26.458333"
   version="1.1"
   id="svg342"
   inkscape:version="1.2.2 (732a01da63, 2022-12-09)"
   sodipodi:docname="spindle.svg"
   xmlns:inkscape="http://www.inkscape.org/namespaces/inkscape"
   xmlns:sodipodi="http://sodipodi.sourceforge.net/DTD/sodipodi-0.dtd"
   xmlns="http://www.w3.org/2000/svg"
   xmlns:svg="http://www.w3.org/2000/svg">
  <sodipodi:namedview
     id="namedview344"
     pagecolor="#ffffff"
     bordercolor="#000000"
     borderopacity="0.25"
     inkscape:showpageshadow="2"
     inkscape:pageopacity="0.0"
     inkscape:pagecheckerboard="0"
     inkscape:deskcolor="#d1d1d1"
     inkscape:document-units="mm"
     showgrid="false"
     inkscape:zoom="4.4436009"
     inkscape:cx="180.03417"
     inkscape:cy="37.582133"
     inkscape:window-width="1920"
     inkscape:window-height="1009"
     inkscape:window-x="-8"
     inkscape:window-y="-8"
     inkscape:window-maximized="1"
     inkscape:current-layer="layer1" />
  <defs
     id="defs339" />
  <g
     inkscape:label="Layer 1"
     inkscape:groupmode="layer"
     id="layer1">
    <g
       aria-label="SPINDLE"
       transform="matrix(0.76356541,0,0,1.0127172,-2.9124608,-7.8596167)"
       id="text348"
       style="font-size:17.2455px;font-family:'Eras Demi ITC';-inkscape-font-specification:'Eras Demi ITC';stroke-width:0.17964">
      <path
         d="M 17.238813,21.657312 16.686957,23.813 H 6.339657 L 5.8740285,25.710005 H 18.290789 c 0.275928,0 0.551856,-0.05174 0.827784,-0.172455 0.275928,-0.120719 0.517365,-0.275928 0.758802,-0.465629 0.241437,-0.172455 0.431137,-0.379401 0.603592,-0.603592 0.172455,-0.224192 0.275928,-0.448383 0.34491,-0.655329 l 0.551857,-2.155688 c 0.03449,-0.206946 0.03449,-0.413892 -0.01725,-0.638083 -0.06898,-0.224192 -0.172455,-0.431138 -0.310419,-0.620838 -0.15521,-0.172455 -0.34491,-0.327665 -0.551856,-0.448383 -0.224192,-0.120719 -0.465629,-0.189701 -0.724311,-0.189701 h -8.27784 l 0.53461,-2.155687 h 10.347301 l 0.482874,-1.897006 H 10.444086 c -0.275928,0 -0.5518559,0.06898 -0.8277839,0.189701 -0.275928,0.120718 -0.5346105,0.275928 -0.7760475,0.448383 -0.241437,0.189701 -0.448383,0.396647 -0.620838,0.620838 -0.172455,0.224192 -0.2931735,0.431138 -0.3276645,0.638084 l -0.5346105,2.155687 c -0.068982,0.206946 -0.068982,0.431138 0,0.655329 0.068982,0.224192 0.172455,0.431138 0.310419,0.603593 0.137964,0.1897 0.3276645,0.34491 0.551856,0.465628 0.2241915,0.120719 0.4656285,0.172455 0.7415565,0.172455 z"
         style="font-family:'Grand National Expanded Italic';-inkscape-font-specification:'Grand National Expanded Italic, '"
         id="path345" />
      <path
         d="m 37.881683,19.760307 0.53461,-2.155687 c 0.03449,-0.206946 0.03449,-0.413892 -0.01725,-0.638084 -0.06898,-0.224191 -0.172455,-0.431137 -0.310419,-0.620838 -0.137964,-0.172455 -0.327665,-0.327665 -0.534611,-0.448383 -0.224191,-0.120719 -0.465628,-0.189701 -0.724311,-0.189701 h -12.41676 l -2.500598,10.002391 h 4.13892 l 2.017724,-8.105385 h 6.20838 l -0.534611,2.155687 H 28.67258 l -0.465628,1.897005 h 7.139637 c 0.275928,0 0.551856,-0.05174 0.827784,-0.172455 0.275928,-0.120718 0.517365,-0.275928 0.758802,-0.465628 0.241437,-0.172455 0.431138,-0.379401 0.603593,-0.603593 0.172455,-0.224191 0.275928,-0.448383 0.34491,-0.655329 z"
         style="font-family:'Grand National Expanded Italic';-inkscape-font-specification:'Grand National Expanded Italic, '"
         id="path347" />
      <path
         d="m 37.95067,25.710005 2.500597,-10.002391 h 4.13892 L 42.08959,25.710005 Z"
         style="font-family:'Grand National Expanded Italic';-inkscape-font-specification:'Grand National Expanded Italic, '"
         id="path349" />
      <path
         d="m 46.142281,15.707614 -2.500598,10.002391 h 2.828262 l 1.931496,-7.760475 4.276884,7.760475 h 5.656524 l 2.500598,-10.002391 h -3.035208 l -1.862514,7.415566 -4.069938,-7.415566 z"
         style="font-family:'Grand National Expanded Italic';-inkscape-font-specification:'Grand National Expanded Italic, '"
         id="path351" />
      <path
         d="m 74.838786,23.813 1.552095,-6.20838 c 0.03449,-0.206946 0.03449,-0.413892 -0.01724,-0.638084 -0.06898,-0.224191 -0.172455,-0.431137 -0.310419,-0.620838 C 75.925258,16.173243 75.735557,16.018033 75.528611,15.897315 75.30442,15.776596 75.062983,15.707614 74.8043,15.707614 H 62.38754 l -2.500598,10.002391 h 4.138921 l 2.017723,-8.105385 h 6.20838 l -1.5521,6.20838 h -5.070177 l -0.465628,1.897005 h 7.139637 c 0.275928,0 0.551856,-0.05174 0.827784,-0.172455 0.275928,-0.120719 0.517365,-0.275928 0.758802,-0.465629 0.241437,-0.172455 0.431137,-0.379401 0.603592,-0.603592 0.172455,-0.224192 0.275928,-0.448383 0.34491,-0.655329 z"
         style="font-family:'Grand National Expanded Italic';-inkscape-font-specification:'Grand National Expanded Italic, '"
         id="path353" />
      <path
         d="m 76.373643,23.813 2.034969,-8.105386 h 4.13892 L 80.512563,23.813 h 7.639757 l -0.465629,1.897005 h -9.709217 c -0.275928,0 -0.517365,-0.05174 -0.741556,-0.172455 -0.224192,-0.120719 -0.413892,-0.275928 -0.551856,-0.465629 -0.137964,-0.172455 -0.241437,-0.379401 -0.310419,-0.603592 -0.06898,-0.224192 -0.06898,-0.448383 0,-0.655329 z"
         style="font-family:'Grand National Expanded Italic';-inkscape-font-specification:'Grand National Expanded Italic, '"
         id="path355" />
      <path
         d="M 102.31088,25.710005 102.77651,23.813 h -8.915921 l 0.551856,-2.155688 h 8.070895 l 0.46563,-1.897005 h -8.070897 l 0.534611,-2.155687 h 8.915926 l 0.48287,-1.897006 H 93.826098 c -0.275928,0 -0.551856,0.06898 -0.827784,0.189701 -0.275928,0.120718 -0.534611,0.275928 -0.776048,0.448383 -0.241437,0.189701 -0.448383,0.396647 -0.620838,0.620838 -0.172455,0.224192 -0.293174,0.431138 -0.327665,0.638084 L 89.721668,23.813 c -0.06898,0.206946 -0.06898,0.431137 0,0.655329 0.06898,0.224191 0.172455,0.431137 0.310419,0.603592 0.137964,0.189701 0.327665,0.34491 0.551856,0.465629 0.224192,0.120718 0.465629,0.172455 0.741557,0.172455 z"
         style="font-family:'Grand National Expanded Italic';-inkscape-font-specification:'Grand National Expanded Italic, '"
         id="path357" />
    </g>
  </g>
</svg>
