<?xml version="1.0" encoding="UTF-8" standalone="no"?>
<!-- Created with Inkscape (http://www.inkscape.org/) -->

<svg
   xmlns:dc="http://purl.org/dc/elements/1.1/"
   xmlns:cc="http://creativecommons.org/ns#"
   xmlns:rdf="http://www.w3.org/1999/02/22-rdf-syntax-ns#"
   xmlns:svg="http://www.w3.org/2000/svg"
   xmlns="http://www.w3.org/2000/svg"
   xmlns:sodipodi="http://sodipodi.sourceforge.net/DTD/sodipodi-0.dtd"
   xmlns:inkscape="http://www.inkscape.org/namespaces/inkscape"
   width="210mm"
   height="297mm"
   viewBox="0 0 210 297"
   version="1.1"
   id="svg16"
   inkscape:version="0.92.4 (5da689c313, 2019-01-14)"
   sodipodi:docname="SpindleControl.svg">
  <title
     id="title139">SpindleControl</title>
  <defs
     id="defs10" />
  <sodipodi:namedview
     id="base"
     pagecolor="#ffffff"
     bordercolor="#666666"
     borderopacity="1.0"
     inkscape:pageopacity="0.0"
     inkscape:pageshadow="2"
     inkscape:zoom="0.7"
     inkscape:cx="149.60936"
     inkscape:cy="602.70272"
     inkscape:document-units="mm"
     inkscape:current-layer="layer4"
     showgrid="false"
     inkscape:window-width="1920"
     inkscape:window-height="1017"
     inkscape:window-x="1912"
     inkscape:window-y="-8"
     inkscape:window-maximized="1" />
  <metadata
     id="metadata13">
    <rdf:RDF>
      <cc:Work
         rdf:about="">
        <dc:format>image/svg+xml</dc:format>
        <dc:type
           rdf:resource="http://purl.org/dc/dcmitype/StillImage" />
        <dc:title>SpindleControl</dc:title>
      </cc:Work>
    </rdf:RDF>
  </metadata>
  <g
     inkscape:label="Text"
     inkscape:groupmode="layer"
     id="layer1"
     style="display:none">
    <flowRoot
       xml:space="preserve"
       id="flowRoot18"
       style="font-style:normal;font-variant:normal;font-weight:bold;font-stretch:normal;font-size:37.33333206px;line-height:1.25;font-family:Arial;-inkscape-font-specification:'Arial, Bold';font-variant-ligatures:normal;font-variant-caps:normal;font-variant-numeric:normal;font-feature-settings:normal;text-align:start;letter-spacing:0px;word-spacing:0px;writing-mode:lr-tb;text-anchor:start;fill:#000000;fill-opacity:1;stroke:none"
       transform="scale(0.26458333)"><flowRegion
         id="flowRegion20"><rect
           id="rect22"
           width="700"
           height="1004.2857"
           x="38.57143"
           y="11.091113" /></flowRegion><flowPara
         id="flowPara24" /></flowRoot>    <text
       xml:space="preserve"
       style="font-style:normal;font-variant:normal;font-weight:bold;font-stretch:normal;font-size:9.87777805px;line-height:1.25;font-family:Verdana;-inkscape-font-specification:'Verdana Bold';font-variant-ligatures:normal;font-variant-caps:normal;font-variant-numeric:normal;font-feature-settings:normal;text-align:center;letter-spacing:0px;word-spacing:0px;writing-mode:tb-rl;text-orientation:upright;text-anchor:middle;fill:#000000;fill-opacity:1;stroke:none;stroke-width:0.26458332"
       x="100.67765"
       y="101.96428"
       id="text28"><tspan
         sodipodi:role="line"
         id="tspan228"
         x="101.96428"
         y="100.67765"
         style="font-style:normal;font-variant:normal;font-weight:bold;font-stretch:normal;font-family:Rubik;-inkscape-font-specification:'Rubik Bold'">SPINDLE CONTROL</tspan></text>
  </g>
  <g
     inkscape:groupmode="layer"
     id="layer4"
     inkscape:label="SpindleControl"
     style="display:inline">
    <g
       aria-label="SPINDLE CONTROL"
       style="font-style:normal;font-variant:normal;font-weight:bold;font-stretch:normal;font-size:9.87777805px;line-height:1.25;font-family:Verdana;-inkscape-font-specification:'Verdana Bold';font-variant-ligatures:normal;font-variant-caps:normal;font-variant-numeric:normal;font-feature-settings:normal;text-align:center;letter-spacing:0px;word-spacing:0px;writing-mode:tb-rl;text-orientation:upright;text-anchor:middle;display:inline;fill:#ffffff;fill-opacity:1;stroke:none;stroke-width:0.26458332"
       id="text286">
      <path
         d="m 103.51342,30.411935 q 0,0.0889 -0.0691,0.158044 -0.0593,0.05927 -0.13829,0.05927 H 102.012 q -0.13829,0 -0.21731,-0.02963 -0.079,-0.03951 -0.1778,-0.128411 -0.0198,-0.01975 -0.12841,-0.128411 -0.10866,-0.118533 -0.34573,-0.207433 -0.22718,-0.0889 -0.5334,-0.0889 -0.42474,0 -0.701317,0.118533 -0.2667,0.108656 -0.2667,0.385233 0,0.197556 0.167922,0.316089 0.167922,0.108656 0.513645,0.197556 0.3556,0.0889 1.22484,0.2667 1.11619,0.227189 1.63971,0.7112 0.52353,0.484011 0.52353,1.382889 0,0.651933 -0.39511,1.145822 -0.38524,0.484011 -1.08656,0.750711 -0.69144,0.256822 -1.57057,0.256822 -0.849485,0 -1.54093,-0.296333 -0.691444,-0.296333 -1.086555,-0.770467 -0.395111,-0.474133 -0.414867,-0.9779 0,-0.0889 0.05927,-0.148166 0.06914,-0.06914 0.148166,-0.06914 h 1.293989 q 0.217311,0 0.375356,0.138289 0.02963,0.02963 0.158044,0.1778 0.128411,0.138289 0.385227,0.256822 0.2667,0.108656 0.6223,0.108656 1.22485,0 1.22485,-0.523522 0,-0.167922 -0.1778,-0.276578 -0.16792,-0.118533 -0.48401,-0.197556 -0.31609,-0.07902 -1.00754,-0.227188 l -0.444493,-0.0889 q -1.007534,-0.217312 -1.481667,-0.721078 -0.474133,-0.513645 -0.474133,-1.363134 0,-0.572911 0.345722,-1.056922 0.345722,-0.493889 0.9779,-0.780344 0.642055,-0.296334 1.471781,-0.296334 0.8001,0 1.46192,0.306211 0.66181,0.296334 1.03716,0.750712 0.38524,0.454377 0.40499,0.889 z"
         style="font-style:normal;font-variant:normal;font-weight:bold;font-stretch:normal;font-family:Rubik;-inkscape-font-specification:'Rubik Bold';fill:#ffffff"
         id="path290"
         inkscape:connector-curvature="0" />
      <path
         d="m 101.075,38.442568 q 1.28411,0 2.00519,0.592666 0.73095,0.582789 0.73095,1.718734 0,1.135944 -0.73095,1.728611 -0.72108,0.592667 -2.00519,0.592667 h -1.264356 v 2.015066 q 0,0.108656 -0.07902,0.187678 -0.07902,0.07902 -0.187678,0.07902 h -1.293989 q -0.108656,0 -0.187678,-0.07902 -0.07902,-0.07902 -0.07902,-0.187678 v -6.381044 q 0,-0.108656 0.07902,-0.187678 0.07902,-0.07902 0.187678,-0.07902 z m -0.0494,3.091744 q 0.43462,0 0.69145,-0.187678 0.2667,-0.197555 0.2667,-0.592666 0,-0.395111 -0.2667,-0.582789 -0.25683,-0.197556 -0.69145,-0.197556 h -1.214966 v 1.560689 z"
         style="font-style:normal;font-variant:normal;font-weight:bold;font-stretch:normal;font-family:Rubik;-inkscape-font-specification:'Rubik Bold';fill:#ffffff"
         id="path292"
         inkscape:connector-curvature="0" />
      <path
         d="m 100.03451,55.234791 q -0.108651,0 -0.187673,-0.07902 -0.07902,-0.07902 -0.07902,-0.187678 v -6.381044 q 0,-0.108656 0.07902,-0.187678 0.07902,-0.07902 0.187673,-0.07902 h 1.29399 q 0.10866,0 0.18768,0.07902 0.079,0.07902 0.079,0.187678 v 6.381044 q 0,0.108656 -0.079,0.187678 -0.079,0.07902 -0.18768,0.07902 z"
         style="font-style:normal;font-variant:normal;font-weight:bold;font-stretch:normal;font-family:Rubik;-inkscape-font-specification:'Rubik Bold';fill:#ffffff"
         id="path294"
         inkscape:connector-curvature="0" />
      <path
         d="m 102.27507,65.112568 q -0.14816,0 -0.25682,-0.06914 -0.10866,-0.07902 -0.14817,-0.158045 l -2.262008,-3.3782 v 3.338689 q 0,0.108656 -0.07902,0.187678 -0.07902,0.07902 -0.187678,0.07902 h -1.293989 q -0.108655,0 -0.187677,-0.07902 -0.07902,-0.07902 -0.07902,-0.187678 v -6.381044 q 0,-0.108656 0.07902,-0.187678 0.07902,-0.07902 0.187677,-0.07902 h 1.027289 q 0.148167,0 0.256823,0.07902 0.108655,0.06914 0.148166,0.148167 l 2.262007,3.3782 v -3.338689 q 0,-0.108656 0.079,-0.187678 0.079,-0.07902 0.18768,-0.07902 h 1.29399 q 0.10866,0 0.18768,0.07902 0.079,0.07902 0.079,0.187678 v 6.381044 q 0,0.108656 -0.079,0.187678 -0.079,0.07902 -0.18768,0.07902 z"
         style="font-style:normal;font-variant:normal;font-weight:bold;font-stretch:normal;font-family:Rubik;-inkscape-font-specification:'Rubik Bold';fill:#ffffff"
         id="path296"
         inkscape:connector-curvature="0" />
      <path
         d="m 103.80566,70.831801 q 0.0198,0.553155 0.0198,0.7112 0,0.158044 -0.0198,0.691444 -0.0296,0.809978 -0.42474,1.432278 -0.38523,0.6223 -1.0668,0.9779 -0.68157,0.345722 -1.58044,0.345722 h -2.667004 q -0.108656,0 -0.187678,-0.07902 -0.07902,-0.07902 -0.07902,-0.187678 v -6.381044 q 0,-0.108656 0.07902,-0.187678 0.07902,-0.07902 0.187678,-0.07902 h 2.617614 q 0.89887,0 1.59032,0.3556 0.70132,0.345722 1.09643,0.9779 0.40499,0.6223 0.43462,1.4224 z m -4.178295,-1.175456 v 3.753556 h 1.056925 q 1.2446,0 1.29399,-1.135944 0.0198,-0.572912 0.0198,-0.750712 0,-0.197555 -0.0198,-0.730955 -0.0296,-0.563034 -0.37536,-0.849489 -0.33584,-0.286456 -0.96802,-0.286456 z"
         style="font-style:normal;font-variant:normal;font-weight:bold;font-stretch:normal;font-family:Rubik;-inkscape-font-specification:'Rubik Bold';fill:#ffffff"
         id="path298"
         inkscape:connector-curvature="0" />
      <path
         d="m 103.22851,83.287678 q 0.10866,0 0.18768,0.07902 0.079,0.07902 0.079,0.187678 v 1.047045 q 0,0.108655 -0.079,0.187677 -0.079,0.07902 -0.18768,0.07902 h -4.573412 q -0.108655,0 -0.187678,-0.07902 -0.07902,-0.07902 -0.07902,-0.187677 v -6.381045 q 0,-0.108656 0.07902,-0.187678 0.07902,-0.07902 0.187678,-0.07902 h 1.293989 q 0.108653,0 0.187673,0.07902 0.079,0.07902 0.079,0.187678 v 5.0673 z"
         style="font-style:normal;font-variant:normal;font-weight:bold;font-stretch:normal;font-family:Rubik;-inkscape-font-specification:'Rubik Bold';fill:#ffffff"
         id="path300"
         inkscape:connector-curvature="0" />
      <path
         d="m 100.02286,92.059148 h 2.82505 q 0.10865,0 0.18767,-0.07902 0.079,-0.07902 0.079,-0.187678 v -1.047045 q 0,-0.108655 -0.079,-0.187677 -0.079,-0.07902 -0.18767,-0.07902 h -2.82505 v -1.0668 h 3.04236 q 0.10865,0 0.18768,-0.07902 0.079,-0.07902 0.079,-0.187678 v -1.047044 q 0,-0.108656 -0.079,-0.187678 -0.079,-0.07902 -0.18768,-0.07902 h -4.603047 q -0.108656,0 -0.187678,0.07902 -0.07902,0.07902 -0.07902,0.187678 v 6.381044 q 0,0.108656 0.07902,0.187678 0.07902,0.07902 0.187678,0.07902 h 4.682067 q 0.10866,0 0.18768,-0.07902 0.079,-0.07902 0.079,-0.187678 v -1.047044 q 0,-0.108656 -0.079,-0.187678 -0.079,-0.07902 -0.18768,-0.07902 h -3.12138 z"
         style="font-style:normal;font-variant:normal;font-weight:bold;font-stretch:normal;font-family:Rubik;-inkscape-font-specification:'Rubik Bold';fill:#ffffff"
         id="path302"
         inkscape:connector-curvature="0" />
      <path
         d="m 99.496407,111.87397 q 0.03951,0.51364 0.325967,0.82973 0.296336,0.31609 0.918636,0.31609 0.59266,0 0.85936,-0.22719 0.2667,-0.22719 0.37536,-0.55315 0.0593,-0.16793 0.11853,-0.22719 0.0593,-0.0593 0.21731,-0.0593 h 1.29399 q 0.0889,0 0.14817,0.0691 0.0691,0.0593 0.0691,0.14816 -0.01,0.66181 -0.42474,1.22485 -0.40499,0.55315 -1.10631,0.87912 -0.70132,0.32597 -1.55081,0.32597 -0.918636,0 -1.600203,-0.3556 -0.681567,-0.36548 -1.056922,-0.96803 -0.375356,-0.61242 -0.414867,-1.35325 -0.01975,-0.47414 -0.01975,-0.78035 0,-0.36547 0.01975,-0.9779 0.02963,-0.74083 0.404989,-1.34337 0.375356,-0.61243 1.056922,-0.96803 0.691445,-0.36547 1.610081,-0.36547 0.84949,0 1.55081,0.32596 0.70132,0.32597 1.10631,0.889 0.41487,0.55316 0.42474,1.21497 0,0.0889 -0.0691,0.15804 -0.0593,0.0593 -0.14817,0.0593 h -1.29399 q -0.15804,0 -0.21731,-0.0593 -0.0593,-0.0593 -0.11853,-0.22719 -0.10866,-0.32596 -0.37536,-0.55315 -0.2667,-0.22719 -0.85936,-0.22719 -0.6223,0 -0.918636,0.31609 -0.286456,0.31609 -0.325967,0.82973 -0.01976,0.33585 -0.01976,0.82974 0,0.47413 0.01976,0.82973 z"
         style="font-style:normal;font-variant:normal;font-weight:bold;font-stretch:normal;font-family:Rubik;-inkscape-font-specification:'Rubik Bold';fill:#ffffff"
         id="path304"
         inkscape:connector-curvature="0" />
      <path
         d="m 100.67395,117.36601 q 0.93839,0 1.61995,0.3556 0.68157,0.3556 1.04705,0.96802 0.37535,0.60255 0.41486,1.35326 0.0198,0.27658 0.0198,0.889 0,0.60254 -0.0198,0.86924 -0.0395,0.75072 -0.41486,1.36314 -0.36548,0.60254 -1.04705,0.95814 -0.68156,0.3556 -1.61995,0.3556 -0.938393,0 -1.619959,-0.3556 -0.681567,-0.3556 -1.056922,-0.95814 -0.365478,-0.61242 -0.404989,-1.36314 -0.01976,-0.5334 -0.01976,-0.86924 0,-0.33584 0.01976,-0.889 0.03951,-0.75071 0.404989,-1.35326 0.375355,-0.61242 1.056922,-0.96802 0.681566,-0.3556 1.619959,-0.3556 z m 1.25447,2.72627 q -0.0494,-0.52352 -0.36547,-0.82973 -0.30621,-0.31609 -0.889,-0.31609 -0.58279,0 -0.898881,0.31609 -0.306212,0.30621 -0.3556,0.82973 -0.02963,0.32597 -0.02963,0.81985 0,0.48402 0.02963,0.83962 0.04939,0.52352 0.3556,0.83961 0.316091,0.30621 0.898881,0.30621 0.58279,0 0.889,-0.30621 0.31609,-0.31609 0.36547,-0.83961 0.0296,-0.3556 0.0296,-0.83962 0,-0.49388 -0.0296,-0.81985 z"
         style="font-style:normal;font-variant:normal;font-weight:bold;font-stretch:normal;font-family:Rubik;-inkscape-font-specification:'Rubik Bold';fill:#ffffff"
         id="path306"
         inkscape:connector-curvature="0" />
      <path
         d="m 102.27507,134.25701 q -0.14816,0 -0.25682,-0.0691 -0.10866,-0.079 -0.14817,-0.15805 l -2.262008,-3.3782 v 3.33869 q 0,0.10866 -0.07902,0.18768 -0.07902,0.079 -0.187678,0.079 h -1.293989 q -0.108655,0 -0.187677,-0.079 -0.07902,-0.079 -0.07902,-0.18768 v -6.38104 q 0,-0.10866 0.07902,-0.18768 0.07902,-0.079 0.187677,-0.079 h 1.027289 q 0.148167,0 0.256823,0.079 0.108655,0.0691 0.148166,0.14817 l 2.262007,3.3782 v -3.33869 q 0,-0.10866 0.079,-0.18768 0.079,-0.079 0.18768,-0.079 h 1.29399 q 0.10866,0 0.18768,0.079 0.079,0.079 0.079,0.18768 v 6.38104 q 0,0.10866 -0.079,0.18768 -0.079,0.079 -0.18768,0.079 z"
         style="font-style:normal;font-variant:normal;font-weight:bold;font-stretch:normal;font-family:Rubik;-inkscape-font-specification:'Rubik Bold';fill:#ffffff"
         id="path308"
         inkscape:connector-curvature="0" />
      <path
         d="m 103.33053,137.22034 q 0.10865,0 0.18768,0.079 0.079,0.079 0.079,0.18767 v 1.04705 q 0,0.10865 -0.079,0.18768 -0.079,0.079 -0.18768,0.079 h -1.73849 v 5.0673 q 0,0.10865 -0.079,0.18768 -0.079,0.079 -0.18768,0.079 h -1.29399 q -0.108655,0 -0.187677,-0.079 -0.07902,-0.079 -0.07902,-0.18768 v -5.0673 h -1.738489 q -0.108656,0 -0.187678,-0.079 -0.07902,-0.079 -0.07902,-0.18768 v -1.04705 q 0,-0.10865 0.07902,-0.18767 0.07902,-0.079 0.187678,-0.079 z"
         style="font-style:normal;font-variant:normal;font-weight:bold;font-stretch:normal;font-family:Rubik;-inkscape-font-specification:'Rubik Bold';fill:#ffffff"
         id="path310"
         inkscape:connector-curvature="0" />
      <path
         d="m 100.8786,147.09813 q 1.32362,0 2.05458,0.57291 0.73095,0.56303 0.73095,1.6891 0,1.43228 -1.17545,1.97556 l 1.22484,2.35091 q 0.0296,0.0593 0.0296,0.10865 0,0.0889 -0.0692,0.15805 -0.0593,0.0593 -0.14816,0.0593 h -1.34338 q -0.1778,0 -0.2667,-0.0691 -0.0889,-0.079 -0.14817,-0.19756 l -1.09643,-2.11384 h -0.908757 v 2.11384 q 0,0.10866 -0.07902,0.18768 -0.07902,0.079 -0.187677,0.079 h -1.293989 q -0.108656,0 -0.187678,-0.079 -0.07902,-0.079 -0.07902,-0.18768 v -6.38104 q 0,-0.10866 0.07902,-0.18768 0.07902,-0.079 0.187678,-0.079 z m 0,2.99297 q 0.95815,0 0.95815,-0.73096 0,-0.73096 -0.95815,-0.73096 h -1.116187 v 1.46192 z"
         style="font-style:normal;font-variant:normal;font-weight:bold;font-stretch:normal;font-family:Rubik;-inkscape-font-specification:'Rubik Bold';fill:#ffffff"
         id="path312"
         inkscape:connector-curvature="0" />
      <path
         d="m 100.67395,156.87714 q 0.93839,0 1.61995,0.3556 0.68157,0.3556 1.04705,0.96802 0.37535,0.60254 0.41486,1.35325 0.0198,0.27658 0.0198,0.889 0,0.60255 -0.0198,0.86925 -0.0395,0.75071 -0.41486,1.36313 -0.36548,0.60255 -1.04705,0.95815 -0.68156,0.3556 -1.61995,0.3556 -0.938393,0 -1.619959,-0.3556 -0.681567,-0.3556 -1.056922,-0.95815 -0.365478,-0.61242 -0.404989,-1.36313 -0.01976,-0.5334 -0.01976,-0.86925 0,-0.33584 0.01976,-0.889 0.03951,-0.75071 0.404989,-1.35325 0.375355,-0.61242 1.056922,-0.96802 0.681566,-0.3556 1.619959,-0.3556 z m 1.25447,2.72626 q -0.0494,-0.52352 -0.36547,-0.82973 -0.30621,-0.31609 -0.889,-0.31609 -0.58279,0 -0.898881,0.31609 -0.306212,0.30621 -0.3556,0.82973 -0.02963,0.32597 -0.02963,0.81986 0,0.48401 0.02963,0.83961 0.04939,0.52352 0.3556,0.83961 0.316091,0.30621 0.898881,0.30621 0.58279,0 0.889,-0.30621 0.31609,-0.31609 0.36547,-0.83961 0.0296,-0.3556 0.0296,-0.83961 0,-0.49389 -0.0296,-0.81986 z"
         style="font-style:normal;font-variant:normal;font-weight:bold;font-stretch:normal;font-family:Rubik;-inkscape-font-specification:'Rubik Bold';fill:#ffffff"
         id="path314"
         inkscape:connector-curvature="0" />
      <path
         d="m 103.22851,172.18769 q 0.10866,0 0.18768,0.079 0.079,0.079 0.079,0.18768 v 1.04705 q 0,0.10865 -0.079,0.18767 -0.079,0.079 -0.18768,0.079 h -4.573412 q -0.108655,0 -0.187678,-0.079 -0.07902,-0.079 -0.07902,-0.18767 v -6.38105 q 0,-0.10865 0.07902,-0.18768 0.07902,-0.079 0.187678,-0.079 h 1.293989 q 0.108653,0 0.187673,0.079 0.079,0.079 0.079,0.18768 v 5.0673 z"
         style="font-style:normal;font-variant:normal;font-weight:bold;font-stretch:normal;font-family:Rubik;-inkscape-font-specification:'Rubik Bold';fill:#ffffff"
         id="path316"
         inkscape:connector-curvature="0" />
    </g>
  </g>
  <g
     inkscape:groupmode="layer"
     id="layer5"
     inkscape:label="Axis Motion Controls"
     style="display:none">
    <g
       aria-label="AXIS MOTION CONTROLS"
       style="font-style:normal;font-variant:normal;font-weight:bold;font-stretch:normal;font-size:9.87777805px;line-height:1.25;font-family:Verdana;-inkscape-font-specification:'Verdana Bold';font-variant-ligatures:normal;font-variant-caps:normal;font-variant-numeric:normal;font-feature-settings:normal;text-align:center;letter-spacing:0px;word-spacing:0px;writing-mode:tb-rl;text-orientation:upright;text-anchor:middle;display:inline;fill:#000000;fill-opacity:1;stroke:none;stroke-width:0.26458332"
       id="text280">
      <path
         d="m 104.0719,10.419312 q 0.0395,0.09878 0.0395,0.148166 0,0.0889 -0.0691,0.158045 -0.0593,0.05927 -0.14817,0.05927 h -1.2446 q -0.16792,0 -0.2667,-0.06914 -0.0889,-0.07902 -0.11853,-0.1778 l -0.27658,-0.8198555 h -2.627488 l -0.276578,0.8198555 q -0.02963,0.09878 -0.128411,0.1778 -0.0889,0.06914 -0.256822,0.06914 h -1.2446 q -0.0889,0 -0.158045,-0.05927 -0.05927,-0.06915 -0.05927,-0.158045 0,-0.04939 0.03951,-0.148166 l 2.153355,-6.2230004 q 0.04939,-0.1382889 0.158045,-0.2271889 0.108655,-0.098778 0.286455,-0.098778 h 1.600209 q 0.1778,0 0.28645,0.098778 0.10866,0.0889 0.15805,0.2271889 z m -2.59785,-2.2323781 -0.8001,-2.3706667 -0.800104,2.3706667 z"
         style="font-style:normal;font-variant:normal;font-weight:bold;font-stretch:normal;font-family:Rubik;-inkscape-font-specification:'Rubik Bold'"
         id="path319"
         inkscape:connector-curvature="0" />
      <path
         d="m 99.398787,20.435378 q -0.07902,0.118534 -0.158045,0.1778 -0.07902,0.04939 -0.246944,0.04939 h -1.501422 q -0.0889,0 -0.158045,-0.05927 -0.05927,-0.06914 -0.05927,-0.158044 0,-0.05927 0.02963,-0.108656 l 2.281767,-3.190522 -2.182989,-3.071989 q -0.02963,-0.05927 -0.02963,-0.108655 0,-0.0889 0.05927,-0.148167 0.06914,-0.06914 0.158044,-0.06914 h 1.491545 q 0.167922,0 0.246944,0.06914 0.0889,0.06914 0.167923,0.1778 l 1.195215,1.669344 1.1557,-1.669344 q 0.079,-0.108656 0.15804,-0.1778 0.0889,-0.06914 0.25682,-0.06914 h 1.5113 q 0.0889,0 0.14817,0.06914 0.0691,0.05927 0.0691,0.148167 0,0.04939 -0.0296,0.108655 l -2.19287,3.1115 2.26201,3.151011 q 0.0296,0.04939 0.0296,0.108656 0,0.0889 -0.0691,0.158044 -0.0593,0.05927 -0.14816,0.05927 h -1.50143 q -0.16792,0 -0.24694,-0.04939 -0.079,-0.05927 -0.15804,-0.1778 l -1.27424,-1.778 z"
         style="font-style:normal;font-variant:normal;font-weight:bold;font-stretch:normal;font-family:Rubik;-inkscape-font-specification:'Rubik Bold'"
         id="path321"
         inkscape:connector-curvature="0" />
      <path
         d="m 100.03451,30.540346 q -0.108651,0 -0.187673,-0.07902 -0.07902,-0.07902 -0.07902,-0.187678 v -6.381044 q 0,-0.108656 0.07902,-0.187678 0.07902,-0.07902 0.187673,-0.07902 h 1.29399 q 0.10866,0 0.18768,0.07902 0.079,0.07902 0.079,0.187678 v 6.381044 q 0,0.108656 -0.079,0.187678 -0.079,0.07902 -0.18768,0.07902 z"
         style="font-style:normal;font-variant:normal;font-weight:bold;font-stretch:normal;font-family:Rubik;-inkscape-font-specification:'Rubik Bold'"
         id="path323"
         inkscape:connector-curvature="0" />
      <path
         d="m 103.51342,35.350823 q 0,0.0889 -0.0691,0.158045 -0.0593,0.05927 -0.13829,0.05927 H 102.012 q -0.13829,0 -0.21731,-0.02963 -0.079,-0.03951 -0.1778,-0.128411 -0.0198,-0.01976 -0.12841,-0.128411 -0.10866,-0.118534 -0.34573,-0.207434 -0.22718,-0.0889 -0.5334,-0.0889 -0.42474,0 -0.701317,0.118534 -0.2667,0.108655 -0.2667,0.385233 0,0.197556 0.167922,0.316089 0.167922,0.108655 0.513645,0.197555 0.3556,0.0889 1.22484,0.2667 1.11619,0.227189 1.63971,0.7112 0.52353,0.484012 0.52353,1.382889 0,0.651934 -0.39511,1.145823 -0.38524,0.484011 -1.08656,0.750711 -0.69144,0.256822 -1.57057,0.256822 -0.849485,0 -1.54093,-0.296333 -0.691444,-0.296334 -1.086555,-0.770467 -0.395111,-0.474133 -0.414867,-0.9779 0,-0.0889 0.05927,-0.148167 0.06914,-0.06914 0.148166,-0.06914 h 1.293989 q 0.217311,0 0.375356,0.138289 0.02963,0.02963 0.158044,0.1778 0.128411,0.138289 0.385227,0.256822 0.2667,0.108656 0.6223,0.108656 1.22485,0 1.22485,-0.523523 0,-0.167922 -0.1778,-0.276577 -0.16792,-0.118534 -0.48401,-0.197556 -0.31609,-0.07902 -1.00754,-0.227189 l -0.444493,-0.0889 q -1.007534,-0.217311 -1.481667,-0.721078 -0.474133,-0.513644 -0.474133,-1.363133 0,-0.572911 0.345722,-1.056922 0.345722,-0.493889 0.9779,-0.780345 0.642055,-0.296333 1.471781,-0.296333 0.8001,0 1.46192,0.306211 0.66181,0.296333 1.03716,0.750711 0.38524,0.454378 0.40499,0.889 z"
         style="font-style:normal;font-variant:normal;font-weight:bold;font-stretch:normal;font-family:Rubik;-inkscape-font-specification:'Rubik Bold'"
         id="path325"
         inkscape:connector-curvature="0" />
      <path
         d="m 99.067881,56.637433 v 3.269544 q 0,0.108656 -0.07902,0.187678 -0.07902,0.07902 -0.187678,0.07902 h -1.293989 q -0.108655,0 -0.187677,-0.07902 -0.07902,-0.07902 -0.07902,-0.187678 v -6.381044 q 0,-0.108656 0.07902,-0.187678 0.07902,-0.07902 0.187677,-0.07902 h 1.145823 q 0.276577,0 0.424744,0.2667 l 1.600199,2.736144 1.6002,-2.736144 q 0.14817,-0.2667 0.42474,-0.2667 h 1.14583 q 0.10865,0 0.18767,0.07902 0.079,0.07902 0.079,0.187678 v 6.381044 q 0,0.108656 -0.079,0.187678 -0.079,0.07902 -0.18767,0.07902 h -1.29399 q -0.10866,0 -0.18768,-0.07902 -0.079,-0.07902 -0.079,-0.187678 v -3.269544 l -0.92851,1.629833 q -0.0692,0.108656 -0.15805,0.1778 -0.079,0.06915 -0.20743,0.06915 h -0.63218 q -0.12841,0 -0.21731,-0.06915 -0.079,-0.06914 -0.148166,-0.1778 z"
         style="font-style:normal;font-variant:normal;font-weight:bold;font-stretch:normal;font-family:Rubik;-inkscape-font-specification:'Rubik Bold'"
         id="path327"
         inkscape:connector-curvature="0" />
      <path
         d="m 100.67395,63.038236 q 0.93839,0 1.61995,0.3556 0.68157,0.3556 1.04705,0.968022 0.37535,0.602545 0.41486,1.353256 0.0198,0.276578 0.0198,0.889 0,0.602544 -0.0198,0.869244 -0.0395,0.750711 -0.41486,1.363134 -0.36548,0.602544 -1.04705,0.958144 -0.68156,0.3556 -1.61995,0.3556 -0.938393,0 -1.619959,-0.3556 -0.681567,-0.3556 -1.056922,-0.958144 -0.365478,-0.612423 -0.404989,-1.363134 -0.01976,-0.5334 -0.01976,-0.869244 0,-0.335845 0.01976,-0.889 0.03951,-0.750711 0.404989,-1.353256 0.375355,-0.612422 1.056922,-0.968022 0.681566,-0.3556 1.619959,-0.3556 z m 1.25447,2.726267 q -0.0494,-0.523523 -0.36547,-0.829734 -0.30621,-0.316089 -0.889,-0.316089 -0.58279,0 -0.898881,0.316089 -0.306212,0.306211 -0.3556,0.829734 -0.02963,0.325966 -0.02963,0.819855 0,0.484011 0.02963,0.839611 0.04939,0.523523 0.3556,0.839612 0.316091,0.306211 0.898881,0.306211 0.58279,0 0.889,-0.306211 0.31609,-0.316089 0.36547,-0.839612 0.0296,-0.3556 0.0296,-0.839611 0,-0.493889 -0.0296,-0.819855 z"
         style="font-style:normal;font-variant:normal;font-weight:bold;font-stretch:normal;font-family:Rubik;-inkscape-font-specification:'Rubik Bold'"
         id="path329"
         inkscape:connector-curvature="0" />
      <path
         d="m 103.33053,73.014791 q 0.10865,0 0.18768,0.07902 0.079,0.07902 0.079,0.187678 v 1.047044 q 0,0.108656 -0.079,0.187678 -0.079,0.07902 -0.18768,0.07902 h -1.73849 v 5.0673 q 0,0.108656 -0.079,0.187678 -0.079,0.07902 -0.18768,0.07902 h -1.29399 q -0.108655,0 -0.187677,-0.07902 -0.07902,-0.07902 -0.07902,-0.187678 v -5.0673 h -1.738489 q -0.108656,0 -0.187678,-0.07902 -0.07902,-0.07902 -0.07902,-0.187678 v -1.047044 q 0,-0.108656 0.07902,-0.187678 0.07902,-0.07902 0.187678,-0.07902 z"
         style="font-style:normal;font-variant:normal;font-weight:bold;font-stretch:normal;font-family:Rubik;-inkscape-font-specification:'Rubik Bold'"
         id="path331"
         inkscape:connector-curvature="0" />
      <path
         d="m 100.03451,89.807013 q -0.108651,0 -0.187673,-0.07902 -0.07902,-0.07902 -0.07902,-0.187677 v -6.381045 q 0,-0.108656 0.07902,-0.187678 0.07902,-0.07902 0.187673,-0.07902 h 1.29399 q 0.10866,0 0.18768,0.07902 0.079,0.07902 0.079,0.187678 v 6.381045 q 0,0.108655 -0.079,0.187677 -0.079,0.07902 -0.18768,0.07902 z"
         style="font-style:normal;font-variant:normal;font-weight:bold;font-stretch:normal;font-family:Rubik;-inkscape-font-specification:'Rubik Bold'"
         id="path333"
         inkscape:connector-curvature="0" />
      <path
         d="m 100.67395,92.671567 q 0.93839,0 1.61995,0.3556 0.68157,0.3556 1.04705,0.968022 0.37535,0.602545 0.41486,1.353256 0.0198,0.276578 0.0198,0.889 0,0.602545 -0.0198,0.869245 -0.0395,0.750711 -0.41486,1.363133 -0.36548,0.602544 -1.04705,0.958144 -0.68156,0.3556 -1.61995,0.3556 -0.938393,0 -1.619959,-0.3556 -0.681567,-0.3556 -1.056922,-0.958144 -0.365478,-0.612422 -0.404989,-1.363133 -0.01976,-0.5334 -0.01976,-0.869245 0,-0.335844 0.01976,-0.889 0.03951,-0.750711 0.404989,-1.353256 0.375355,-0.612422 1.056922,-0.968022 0.681566,-0.3556 1.619959,-0.3556 z m 1.25447,2.726267 q -0.0494,-0.523522 -0.36547,-0.829733 -0.30621,-0.316089 -0.889,-0.316089 -0.58279,0 -0.898881,0.316089 -0.306212,0.306211 -0.3556,0.829733 -0.02963,0.325967 -0.02963,0.819856 0,0.484011 0.02963,0.839611 0.04939,0.523522 0.3556,0.839611 0.316091,0.306211 0.898881,0.306211 0.58279,0 0.889,-0.306211 0.31609,-0.316089 0.36547,-0.839611 0.0296,-0.3556 0.0296,-0.839611 0,-0.493889 -0.0296,-0.819856 z"
         style="font-style:normal;font-variant:normal;font-weight:bold;font-stretch:normal;font-family:Rubik;-inkscape-font-specification:'Rubik Bold'"
         id="path335"
         inkscape:connector-curvature="0" />
      <path
         d="m 102.27507,109.56257 q -0.14816,0 -0.25682,-0.0691 -0.10866,-0.079 -0.14817,-0.15804 l -2.262008,-3.3782 v 3.33869 q 0,0.10865 -0.07902,0.18767 -0.07902,0.079 -0.187678,0.079 h -1.293989 q -0.108655,0 -0.187677,-0.079 -0.07902,-0.079 -0.07902,-0.18767 v -6.38105 q 0,-0.10865 0.07902,-0.18768 0.07902,-0.079 0.187677,-0.079 h 1.027289 q 0.148167,0 0.256823,0.079 0.108655,0.0691 0.148166,0.14817 l 2.262007,3.3782 v -3.33869 q 0,-0.10865 0.079,-0.18768 0.079,-0.079 0.18768,-0.079 h 1.29399 q 0.10866,0 0.18768,0.079 0.079,0.079 0.079,0.18768 v 6.38105 q 0,0.10865 -0.079,0.18767 -0.079,0.079 -0.18768,0.079 z"
         style="font-style:normal;font-variant:normal;font-weight:bold;font-stretch:normal;font-family:Rubik;-inkscape-font-specification:'Rubik Bold'"
         id="path337"
         inkscape:connector-curvature="0" />
      <path
         d="m 99.496407,126.69064 q 0.03951,0.51364 0.325967,0.82973 0.296336,0.31609 0.918636,0.31609 0.59266,0 0.85936,-0.22719 0.2667,-0.22719 0.37536,-0.55315 0.0593,-0.16792 0.11853,-0.22719 0.0593,-0.0593 0.21731,-0.0593 h 1.29399 q 0.0889,0 0.14817,0.0691 0.0691,0.0593 0.0691,0.14816 -0.01,0.66181 -0.42474,1.22485 -0.40499,0.55315 -1.10631,0.87912 -0.70132,0.32597 -1.55081,0.32597 -0.918636,0 -1.600203,-0.3556 -0.681567,-0.36548 -1.056922,-0.96803 -0.375356,-0.61242 -0.414867,-1.35325 -0.01975,-0.47413 -0.01975,-0.78035 0,-0.36547 0.01975,-0.9779 0.02963,-0.74083 0.404989,-1.34337 0.375356,-0.61243 1.056922,-0.96803 0.691445,-0.36547 1.610081,-0.36547 0.84949,0 1.55081,0.32596 0.70132,0.32597 1.10631,0.889 0.41487,0.55316 0.42474,1.21497 0,0.0889 -0.0691,0.15804 -0.0593,0.0593 -0.14817,0.0593 h -1.29399 q -0.15804,0 -0.21731,-0.0593 -0.0593,-0.0593 -0.11853,-0.22718 -0.10866,-0.32597 -0.37536,-0.55316 -0.2667,-0.22719 -0.85936,-0.22719 -0.6223,0 -0.918636,0.31609 -0.286456,0.31609 -0.325967,0.82973 -0.01976,0.33585 -0.01976,0.82974 0,0.47413 0.01976,0.82973 z"
         style="font-style:normal;font-variant:normal;font-weight:bold;font-stretch:normal;font-family:Rubik;-inkscape-font-specification:'Rubik Bold'"
         id="path339"
         inkscape:connector-curvature="0" />
      <path
         d="m 100.67395,132.18269 q 0.93839,0 1.61995,0.3556 0.68157,0.3556 1.04705,0.96802 0.37535,0.60255 0.41486,1.35326 0.0198,0.27658 0.0198,0.889 0,0.60254 -0.0198,0.86924 -0.0395,0.75071 -0.41486,1.36314 -0.36548,0.60254 -1.04705,0.95814 -0.68156,0.3556 -1.61995,0.3556 -0.938393,0 -1.619959,-0.3556 -0.681567,-0.3556 -1.056922,-0.95814 -0.365478,-0.61243 -0.404989,-1.36314 -0.01976,-0.5334 -0.01976,-0.86924 0,-0.33585 0.01976,-0.889 0.03951,-0.75071 0.404989,-1.35326 0.375355,-0.61242 1.056922,-0.96802 0.681566,-0.3556 1.619959,-0.3556 z m 1.25447,2.72627 q -0.0494,-0.52352 -0.36547,-0.82974 -0.30621,-0.31608 -0.889,-0.31608 -0.58279,0 -0.898881,0.31608 -0.306212,0.30622 -0.3556,0.82974 -0.02963,0.32596 -0.02963,0.81985 0,0.48401 0.02963,0.83961 0.04939,0.52353 0.3556,0.83962 0.316091,0.30621 0.898881,0.30621 0.58279,0 0.889,-0.30621 0.31609,-0.31609 0.36547,-0.83962 0.0296,-0.3556 0.0296,-0.83961 0,-0.49389 -0.0296,-0.81985 z"
         style="font-style:normal;font-variant:normal;font-weight:bold;font-stretch:normal;font-family:Rubik;-inkscape-font-specification:'Rubik Bold'"
         id="path341"
         inkscape:connector-curvature="0" />
      <path
         d="m 102.27507,149.07369 q -0.14816,0 -0.25682,-0.0691 -0.10866,-0.079 -0.14817,-0.15805 l -2.262008,-3.3782 v 3.33869 q 0,0.10866 -0.07902,0.18768 -0.07902,0.079 -0.187678,0.079 h -1.293989 q -0.108655,0 -0.187677,-0.079 -0.07902,-0.079 -0.07902,-0.18768 v -6.38104 q 0,-0.10866 0.07902,-0.18768 0.07902,-0.079 0.187677,-0.079 h 1.027289 q 0.148167,0 0.256823,0.079 0.108655,0.0691 0.148166,0.14816 l 2.262007,3.3782 v -3.33868 q 0,-0.10866 0.079,-0.18768 0.079,-0.079 0.18768,-0.079 h 1.29399 q 0.10866,0 0.18768,0.079 0.079,0.079 0.079,0.18768 v 6.38104 q 0,0.10866 -0.079,0.18768 -0.079,0.079 -0.18768,0.079 z"
         style="font-style:normal;font-variant:normal;font-weight:bold;font-stretch:normal;font-family:Rubik;-inkscape-font-specification:'Rubik Bold'"
         id="path343"
         inkscape:connector-curvature="0" />
      <path
         d="m 103.33053,152.03702 q 0.10865,0 0.18768,0.079 0.079,0.079 0.079,0.18767 v 1.04705 q 0,0.10865 -0.079,0.18768 -0.079,0.079 -0.18768,0.079 h -1.73849 v 5.0673 q 0,0.10865 -0.079,0.18768 -0.079,0.079 -0.18768,0.079 h -1.29399 q -0.108655,0 -0.187677,-0.079 -0.07902,-0.079 -0.07902,-0.18768 v -5.0673 h -1.738489 q -0.108656,0 -0.187678,-0.079 -0.07902,-0.079 -0.07902,-0.18768 v -1.04705 q 0,-0.10865 0.07902,-0.18767 0.07902,-0.079 0.187678,-0.079 z"
         style="font-style:normal;font-variant:normal;font-weight:bold;font-stretch:normal;font-family:Rubik;-inkscape-font-specification:'Rubik Bold'"
         id="path345"
         inkscape:connector-curvature="0" />
      <path
         d="m 100.8786,161.9148 q 1.32362,0 2.05458,0.57291 0.73095,0.56303 0.73095,1.6891 0,1.43228 -1.17545,1.97556 l 1.22484,2.35091 q 0.0296,0.0593 0.0296,0.10865 0,0.0889 -0.0692,0.15805 -0.0593,0.0593 -0.14816,0.0593 h -1.34338 q -0.1778,0 -0.2667,-0.0691 -0.0889,-0.079 -0.14817,-0.19756 l -1.09643,-2.11384 h -0.908757 v 2.11384 q 0,0.10866 -0.07902,0.18768 -0.07902,0.079 -0.187677,0.079 h -1.293989 q -0.108656,0 -0.187678,-0.079 -0.07902,-0.079 -0.07902,-0.18768 v -6.38104 q 0,-0.10866 0.07902,-0.18768 0.07902,-0.079 0.187678,-0.079 z m 0,2.99297 q 0.95815,0 0.95815,-0.73096 0,-0.73095 -0.95815,-0.73095 h -1.116187 v 1.46191 z"
         style="font-style:normal;font-variant:normal;font-weight:bold;font-stretch:normal;font-family:Rubik;-inkscape-font-specification:'Rubik Bold'"
         id="path347"
         inkscape:connector-curvature="0" />
      <path
         d="m 100.67395,171.6938 q 0.93839,0 1.61995,0.3556 0.68157,0.3556 1.04705,0.96802 0.37535,0.60255 0.41486,1.35326 0.0198,0.27657 0.0198,0.889 0,0.60254 -0.0198,0.86924 -0.0395,0.75071 -0.41486,1.36314 -0.36548,0.60254 -1.04705,0.95814 -0.68156,0.3556 -1.61995,0.3556 -0.938393,0 -1.619959,-0.3556 -0.681567,-0.3556 -1.056922,-0.95814 -0.365478,-0.61243 -0.404989,-1.36314 -0.01976,-0.5334 -0.01976,-0.86924 0,-0.33585 0.01976,-0.889 0.03951,-0.75071 0.404989,-1.35326 0.375355,-0.61242 1.056922,-0.96802 0.681566,-0.3556 1.619959,-0.3556 z m 1.25447,2.72627 q -0.0494,-0.52353 -0.36547,-0.82974 -0.30621,-0.31609 -0.889,-0.31609 -0.58279,0 -0.898881,0.31609 -0.306212,0.30621 -0.3556,0.82974 -0.02963,0.32596 -0.02963,0.81985 0,0.48401 0.02963,0.83961 0.04939,0.52352 0.3556,0.83961 0.316091,0.30622 0.898881,0.30622 0.58279,0 0.889,-0.30622 0.31609,-0.31609 0.36547,-0.83961 0.0296,-0.3556 0.0296,-0.83961 0,-0.49389 -0.0296,-0.81985 z"
         style="font-style:normal;font-variant:normal;font-weight:bold;font-stretch:normal;font-family:Rubik;-inkscape-font-specification:'Rubik Bold'"
         id="path349"
         inkscape:connector-curvature="0" />
      <path
         d="m 103.22851,187.00435 q 0.10866,0 0.18768,0.079 0.079,0.079 0.079,0.18767 v 1.04705 q 0,0.10865 -0.079,0.18768 -0.079,0.079 -0.18768,0.079 h -4.573412 q -0.108655,0 -0.187678,-0.079 -0.07902,-0.079 -0.07902,-0.18768 v -6.38105 q 0,-0.10865 0.07902,-0.18767 0.07902,-0.079 0.187678,-0.079 h 1.293989 q 0.108653,0 0.187673,0.079 0.079,0.079 0.079,0.18767 v 5.0673 z"
         style="font-style:normal;font-variant:normal;font-weight:bold;font-stretch:normal;font-family:Rubik;-inkscape-font-specification:'Rubik Bold'"
         id="path351"
         inkscape:connector-curvature="0" />
      <path
         d="m 103.51342,193.39528 q 0,0.0889 -0.0691,0.15804 -0.0593,0.0593 -0.13829,0.0593 H 102.012 q -0.13829,0 -0.21731,-0.0296 -0.079,-0.0395 -0.1778,-0.12841 -0.0198,-0.0198 -0.12841,-0.12841 -0.10866,-0.11853 -0.34573,-0.20743 -0.22718,-0.0889 -0.5334,-0.0889 -0.42474,0 -0.701317,0.11853 -0.2667,0.10866 -0.2667,0.38523 0,0.19756 0.167922,0.31609 0.167922,0.10866 0.513645,0.19756 0.3556,0.0889 1.22484,0.2667 1.11619,0.22719 1.63971,0.7112 0.52353,0.48401 0.52353,1.38289 0,0.65193 -0.39511,1.14582 -0.38524,0.48401 -1.08656,0.75071 -0.69144,0.25682 -1.57057,0.25682 -0.849485,0 -1.54093,-0.29633 -0.691444,-0.29633 -1.086555,-0.77047 -0.395111,-0.47413 -0.414867,-0.9779 0,-0.0889 0.05927,-0.14816 0.06914,-0.0692 0.148166,-0.0692 h 1.293989 q 0.217311,0 0.375356,0.13829 0.02963,0.0296 0.158044,0.1778 0.128411,0.13829 0.385227,0.25682 0.2667,0.10866 0.6223,0.10866 1.22485,0 1.22485,-0.52352 0,-0.16793 -0.1778,-0.27658 -0.16792,-0.11853 -0.48401,-0.19756 -0.31609,-0.079 -1.00754,-0.22719 l -0.444493,-0.0889 q -1.007534,-0.21731 -1.481667,-0.72107 -0.474133,-0.51365 -0.474133,-1.36314 0,-0.57291 0.345722,-1.05692 0.345722,-0.49389 0.9779,-0.78034 0.642055,-0.29634 1.471781,-0.29634 0.8001,0 1.46192,0.30621 0.66181,0.29634 1.03716,0.75072 0.38524,0.45437 0.40499,0.889 z"
         style="font-style:normal;font-variant:normal;font-weight:bold;font-stretch:normal;font-family:Rubik;-inkscape-font-specification:'Rubik Bold'"
         id="path353"
         inkscape:connector-curvature="0" />
    </g>
  </g>
</svg>
