<?xml version="1.0" encoding="UTF-8" standalone="no"?>
<!DOCTYPE svg PUBLIC "-//W3C//DTD SVG 1.1//EN" "http://www.w3.org/Graphics/SVG/1.1/DTD/svg11.dtd">
<svg width="100%" height="100%" viewBox="0 0 300 300" version="1.1" xmlns="http://www.w3.org/2000/svg" xmlns:xlink="http://www.w3.org/1999/xlink" xml:space="preserve" xmlns:serif="http://www.serif.com/" style="fill-rule:evenodd;clip-rule:evenodd;stroke-linecap:round;stroke-linejoin:round;stroke-miterlimit:1.5;">
    <g transform="matrix(1,0,0,1,-2476.67,-1912.99)">
        <g id="Layer-1" serif:id="Layer 1">
        </g>
        <g transform="matrix(0.301848,0,0,0.582975,2233.86,856.296)">
            <rect x="804.411" y="1812.59" width="993.877" height="514.602" style="fill:none;"/>
            <g transform="matrix(1.49144e-16,1.37431,-2.87284,9.80115e-17,8877.04,3476.5)">
                <path d="M-1023.5,2477L-855,2797L-1192,2797L-1023.5,2477Z" style="fill:#ff1818;stroke:#000;stroke-width:9.98px;"/>
            </g>
            <g transform="matrix(3.31292,1.7485e-17,7.63467e-18,1.71534,3474.6,-3296.41)">
                <g transform="matrix(150,0,0,150,-683.986,3182.11)">
                    <path d="M0.062,-0.437L0.249,-0.437L0.249,-0.625L0.407,-0.625L0.407,-0.437L0.595,-0.437L0.595,-0.278L0.407,-0.278L0.407,-0.091L0.249,-0.091L0.249,-0.278L0.062,-0.278L0.062,-0.437Z" style="fill-rule:nonzero;"/>
                </g>
            </g>
            <g transform="matrix(3.31292,0,0,1.71534,3148.46,-3408.99)">
                <g transform="matrix(150,0,0,150,-685.852,3244.69)">
                    <path d="M0.024,-0.716L0.268,-0.716L0.395,-0.496L0.518,-0.716L0.759,-0.716L0.536,-0.369L0.78,-0L0.531,-0L0.39,-0.23L0.249,-0L0.001,-0L0.249,-0.373L0.024,-0.716Z" style="fill-rule:nonzero;"/>
                </g>
            </g>
        </g>
    </g>
</svg>
