<svg id="New_VCP" data-name="New VCP" xmlns="http://www.w3.org/2000/svg" width="100" height="100" viewBox="0 0 100 100">
  <title>spindle_auto_man</title>
  <rect width="100" height="100" rx="6" style="fill: #fff"/>
  <g>
    <path d="M36.69,33.32H31.28l-.75,3H25.66l5.8-17.89h5.19l5.8,17.89h-5Zm-1-3.87L34,23l-1.69,6.43Z" style="fill: #231f20"/>
    <path d="M53.26,18.38H58V29a10.39,10.39,0,0,1-.43,3,6.78,6.78,0,0,1-1.33,2.47A5.53,5.53,0,0,1,54.35,36a8.41,8.41,0,0,1-3.34.6,18.35,18.35,0,0,1-2.45-.19,5.8,5.8,0,0,1-2.23-.72,6,6,0,0,1-1.64-1.55,5.89,5.89,0,0,1-1-2.06,12.42,12.42,0,0,1-.44-3V18.38H48V29.29a3.46,3.46,0,0,0,.7,2.29,2.7,2.7,0,0,0,3.87,0,3.4,3.4,0,0,0,.7-2.3Z" style="fill: #231f20"/>
    <path d="M60.09,18.38H74.58V22.8H69.71V36.27H65V22.8H60.09Z" style="fill: #231f20"/>
    <path d="M75.4,27.34a10.12,10.12,0,0,1,2.1-6.82,7.32,7.32,0,0,1,5.86-2.44,7.42,7.42,0,0,1,5.93,2.39,9.92,9.92,0,0,1,2.09,6.72,12.41,12.41,0,0,1-.92,5.14,7.11,7.11,0,0,1-2.63,3.13,7.72,7.72,0,0,1-4.28,1.12,8.74,8.74,0,0,1-4.32-1,7,7,0,0,1-2.77-3A11.42,11.42,0,0,1,75.4,27.34Zm4.76,0A6.67,6.67,0,0,0,81,31.25a3,3,0,0,0,4.74,0,7.45,7.45,0,0,0,.84-4.16,6.11,6.11,0,0,0-.88-3.69,2.81,2.81,0,0,0-2.38-1.17A2.78,2.78,0,0,0,81,23.44,6.78,6.78,0,0,0,80.16,27.36Z" style="fill: #231f20"/>
  </g>
  <g>
    <path d="M9.63,55.46l3.57-.25a3.29,3.29,0,0,0,.47,1.46,1.91,1.91,0,0,0,1.66.82,1.71,1.71,0,0,0,1.24-.42,1.26,1.26,0,0,0,0-1.9,4.59,4.59,0,0,0-1.92-.78,7.85,7.85,0,0,1-3.53-1.63,3.46,3.46,0,0,1-1.06-2.59,3.73,3.73,0,0,1,.55-2,3.68,3.68,0,0,1,1.63-1.45,7,7,0,0,1,3-.53,5.65,5.65,0,0,1,3.55,1,4.25,4.25,0,0,1,1.46,3.05l-3.54.23a2.2,2.2,0,0,0-.59-1.32,1.78,1.78,0,0,0-1.25-.41,1.43,1.43,0,0,0-1,.3,1,1,0,0,0-.33.75.79.79,0,0,0,.27.58,2.88,2.88,0,0,0,1.26.49,14.52,14.52,0,0,1,3.53,1.19,3.85,3.85,0,0,1,1.55,1.49,4,4,0,0,1,.49,2A4.58,4.58,0,0,1,20,57.91a4.16,4.16,0,0,1-1.81,1.66,6.77,6.77,0,0,1-2.93.56c-2.06,0-3.5-.44-4.29-1.32A5.42,5.42,0,0,1,9.63,55.46Z" style="fill: #231f20"/>
    <path d="M22.53,46.46h6.25a4,4,0,0,1,3.06,1.08,4.28,4.28,0,0,1,1,3.05,4.38,4.38,0,0,1-1.11,3.18,4.5,4.5,0,0,1-3.38,1.14H26.31v5H22.53Zm3.78,5.73h.92a2.23,2.23,0,0,0,1.52-.41,1.4,1.4,0,0,0,.44-1.07,1.54,1.54,0,0,0-.38-1.07,1.81,1.81,0,0,0-1.43-.44H26.31Z" style="fill: #231f20"/>
    <path d="M35,46.46h3.76V59.9H35Z" style="fill: #231f20"/>
    <path d="M41.46,46.46H45l4.58,7.44V46.46h3.55V59.9H49.54L45,52.52V59.9H41.46Z" style="fill: #231f20"/>
    <path d="M55.63,46.46h5.59a6.06,6.06,0,0,1,2.66.5,4.36,4.36,0,0,1,1.68,1.42,6,6,0,0,1,1,2.15,11.53,11.53,0,0,1,.29,2.61,9.83,9.83,0,0,1-.44,3.34,5.78,5.78,0,0,1-1.23,2,3.93,3.93,0,0,1-1.69,1.06,7.8,7.8,0,0,1-2.24.37H55.63Zm3.76,3v7.34h.92A3.58,3.58,0,0,0,62,56.56a1.93,1.93,0,0,0,.78-1,6.91,6.91,0,0,0,.28-2.33,4.94,4.94,0,0,0-.63-2.93,2.54,2.54,0,0,0-2.09-.78Z" style="fill: #231f20"/>
    <path d="M68.8,46.46h3.76V56.59h5.86V59.9H68.8Z" style="fill: #231f20"/>
    <path d="M80.12,46.46H90.19v2.87h-6.3v2.14h5.85v2.74H83.89v2.65h6.49v3H80.12Z" style="fill: #231f20"/>
  </g>
  <g>
    <path d="M26.62,68.74H33L35.44,80l2.44-11.26h6.36v18.5h-4V73.13L37.22,87.24H33.63L30.58,73.13V87.24h-4Z" style="fill: #231f20"/>
    <path d="M57,84.19h-5.5l-.76,3h-5l5.89-18.5h5.28l5.89,18.5H57.75Zm-1-4-1.73-6.65-1.71,6.65Z" style="fill: #231f20"/>
    <path d="M64.39,68.74h4.52L74.81,79V68.74h4.57v18.5H74.81L69,77.08V87.24H64.39Z" style="fill: #231f20"/>
  </g>
</svg>
