<?xml version="1.0" encoding="utf-8"?>
<!-- Generator: Adobe Illustrator 25.4.1, SVG Export Plug-In . SVG Version: 6.00 Build 0)  -->
<svg version="1.1" id="New_VCP" xmlns="http://www.w3.org/2000/svg" xmlns:xlink="http://www.w3.org/1999/xlink" x="0px" y="0px"
	 viewBox="0 0 100 100" style="enable-background:new 0 0 100 100;" xml:space="preserve">
<style type="text/css">
	.st0{fill:#FFC70E;}
	.st1{enable-background:new    ;}
</style>
<path class="st0" d="M100,94c0,3.31-2.69,6-6,6H6c-3.31,0-6-2.69-6-6V6c0-3.31,2.69-6,6-6h88c3.31,0,6,2.69,6,6V94z"/>
<g>
	<g class="st1">
		<path d="M24.57,24.02v-3.57h7.38v7.32c-1.41,1.07-2.66,1.8-3.75,2.19c-1.09,0.39-2.37,0.58-3.87,0.58c-1.83,0-3.33-0.35-4.49-1.04
			s-2.05-1.73-2.69-3.11s-0.95-2.95-0.95-4.73c0-1.88,0.35-3.51,1.04-4.89c0.7-1.39,1.72-2.44,3.06-3.16
			c1.05-0.55,2.46-0.83,4.23-0.83c1.71,0,2.99,0.17,3.83,0.52s1.55,0.88,2.11,1.6s0.98,1.64,1.26,2.75l-4.61,0.91
			c-0.19-0.65-0.51-1.14-0.96-1.49c-0.45-0.34-1.03-0.52-1.74-0.52c-1.05,0-1.88,0.4-2.5,1.21c-0.62,0.81-0.93,2.09-0.93,3.84
			c0,1.86,0.31,3.19,0.94,3.98s1.51,1.2,2.63,1.2c0.53,0,1.04-0.09,1.53-0.26c0.49-0.17,1.04-0.46,1.67-0.88v-1.62H24.57z"/>
		<path d="M34.19,21.67c0-2.8,0.7-4.99,2.11-6.55s3.36-2.34,5.87-2.34c2.57,0,4.56,0.77,5.95,2.3c1.39,1.54,2.09,3.69,2.09,6.45
			c0,2.01-0.3,3.65-0.91,4.94c-0.61,1.29-1.49,2.29-2.64,3c-1.15,0.71-2.58,1.07-4.3,1.07c-1.74,0-3.19-0.31-4.33-0.93
			s-2.07-1.59-2.78-2.93C34.54,25.35,34.19,23.68,34.19,21.67z M38.96,21.69c0,1.73,0.29,2.98,0.87,3.74s1.37,1.14,2.37,1.14
			c1.03,0,1.82-0.37,2.38-1.11s0.84-2.07,0.84-4c0-1.62-0.29-2.8-0.88-3.54c-0.59-0.75-1.38-1.12-2.39-1.12
			c-0.96,0-1.74,0.38-2.32,1.14S38.96,19.94,38.96,21.69z"/>
		<path d="M51.13,13.07h14.52v4.24h-4.87v12.94h-4.78V17.31h-4.87V13.07z"/>
		<path d="M66.48,21.67c0-2.8,0.7-4.99,2.11-6.55s3.36-2.34,5.87-2.34c2.57,0,4.56,0.77,5.95,2.3s2.09,3.69,2.09,6.45
			c0,2.01-0.3,3.65-0.91,4.94c-0.61,1.29-1.49,2.29-2.64,3c-1.15,0.71-2.58,1.07-4.3,1.07c-1.74,0-3.19-0.31-4.33-0.93
			s-2.07-1.59-2.78-2.93C66.83,25.35,66.48,23.68,66.48,21.67z M71.26,21.69c0,1.73,0.29,2.98,0.87,3.74s1.37,1.14,2.37,1.14
			c1.03,0,1.82-0.37,2.38-1.11s0.84-2.07,0.84-4c0-1.62-0.29-2.8-0.88-3.54c-0.59-0.75-1.38-1.12-2.39-1.12
			c-0.96,0-1.74,0.38-2.32,1.14C71.55,18.69,71.26,19.94,71.26,21.69z"/>
	</g>
	<g class="st1">
		<path d="M22.99,39.07h4.54l1.63,9.62l2.39-9.62h4.52l2.4,9.6l1.64-9.6h4.51l-3.41,17.18h-4.69l-2.71-10.82l-2.7,10.82h-4.69
			L22.99,39.07z"/>
		<path d="M56.11,49.22l4.19,1.41c-0.28,1.3-0.72,2.39-1.33,3.27c-0.6,0.88-1.35,1.54-2.25,1.98s-2.04,0.67-3.42,0.67
			c-1.68,0-3.05-0.27-4.12-0.81c-1.07-0.54-1.98-1.5-2.76-2.86c-0.77-1.37-1.16-3.12-1.16-5.25c0-2.84,0.68-5.03,2.04-6.55
			c1.36-1.53,3.29-2.29,5.77-2.29c1.95,0,3.48,0.44,4.59,1.31s1.94,2.22,2.48,4.03l-4.22,1.04c-0.15-0.52-0.3-0.91-0.46-1.15
			c-0.27-0.41-0.59-0.72-0.98-0.94s-0.82-0.33-1.3-0.33c-1.08,0-1.91,0.48-2.49,1.45c-0.44,0.72-0.65,1.85-0.65,3.38
			c0,1.9,0.26,3.21,0.78,3.92c0.52,0.71,1.25,1.06,2.19,1.06c0.91,0,1.6-0.29,2.07-0.86C55.56,51.13,55.9,50.3,56.11,49.22z"/>
		<path d="M61.78,50.56l4.55-0.32c0.1,0.82,0.3,1.45,0.6,1.88c0.49,0.7,1.2,1.04,2.11,1.04c0.68,0,1.21-0.18,1.58-0.53
			s0.55-0.77,0.55-1.24c0-0.45-0.18-0.84-0.53-1.2s-1.17-0.68-2.45-1c-2.09-0.52-3.59-1.22-4.48-2.09c-0.9-0.87-1.35-1.97-1.35-3.32
			c0-0.88,0.23-1.72,0.69-2.5c0.46-0.79,1.15-1.4,2.08-1.85c0.92-0.45,2.19-0.67,3.8-0.67c1.98,0,3.48,0.41,4.52,1.22
			s1.65,2.12,1.85,3.9l-4.5,0.29c-0.12-0.77-0.37-1.34-0.75-1.69s-0.91-0.53-1.59-0.53c-0.55,0-0.97,0.13-1.25,0.39
			s-0.42,0.58-0.42,0.96c0,0.27,0.12,0.52,0.35,0.74c0.22,0.23,0.76,0.44,1.6,0.63c2.09,0.5,3.58,1.01,4.49,1.52s1.56,1.15,1.97,1.9
			c0.41,0.76,0.62,1.61,0.62,2.54c0,1.1-0.27,2.12-0.82,3.05s-1.31,1.63-2.3,2.12s-2.23,0.72-3.72,0.72c-2.63,0-4.45-0.56-5.46-1.69
			C62.49,53.73,61.92,52.3,61.78,50.56z"/>
	</g>
	<g class="st1">
		<path d="M26.52,63.35h5.26l2.74,5.81l2.66-5.81h5.21l-4.81,9.15l5.27,9.75h-5.37l-3.05-6.07l-3.05,6.07h-5.34l5.33-9.85
			L26.52,63.35z"/>
		<path d="M42.82,63.35h5.31l3.12,6.38l3.12-6.38h5.28l-6.01,10.98v7.92h-4.79v-7.92L42.82,63.35z"/>
		<path d="M60.48,72.72c0-3.59,0.53-6.11,1.59-7.54c1.06-1.44,2.67-2.15,4.84-2.15c1.04,0,1.89,0.16,2.56,0.47
			c0.67,0.31,1.21,0.72,1.63,1.22c0.42,0.5,0.75,1.03,1,1.58c0.24,0.55,0.44,1.2,0.58,1.94c0.29,1.41,0.43,2.88,0.43,4.41
			c0,3.43-0.47,5.94-1.42,7.53s-2.58,2.38-4.9,2.38c-1.3,0-2.35-0.25-3.15-0.76c-0.8-0.51-1.46-1.25-1.97-2.23
			c-0.37-0.7-0.66-1.65-0.87-2.85S60.48,74.18,60.48,72.72z M64.74,72.73c0,2.41,0.17,4.05,0.52,4.93s0.85,1.32,1.51,1.32
			c0.44,0,0.81-0.19,1.13-0.56s0.55-0.96,0.71-1.77c0.15-0.81,0.23-2.07,0.23-3.78c0-2.51-0.17-4.2-0.52-5.06
			c-0.35-0.86-0.87-1.3-1.57-1.3c-0.71,0-1.22,0.44-1.54,1.32S64.74,70.35,64.74,72.73z"/>
	</g>
</g>
</svg>
