<?xml version="1.0" encoding="utf-8"?>
<!-- Generator: Adobe Illustrator 24.0.2, SVG Export Plug-In . SVG Version: 6.00 Build 0)  -->
<svg version="1.1" id="New_VCP" xmlns="http://www.w3.org/2000/svg" xmlns:xlink="http://www.w3.org/1999/xlink" x="0px" y="0px"
	 viewBox="0 0 100 100" style="enable-background:new 0 0 100 100;" xml:space="preserve">
<style type="text/css">
	.st0{fill:#252D6B;}
	.st1{display:none;fill:#82151E;}
	.st2{display:none;}
	.st3{fill:#FFFFFF;}
</style>
<path class="st0" d="M100,94c0,3.31-2.69,6-6,6H6c-3.31,0-6-2.69-6-6V6c0-3.31,2.69-6,6-6h88c3.31,0,6,2.69,6,6V94z"/>
<path class="st1" d="M35.09,3h-0.69H7.59C5.06,3,3,4.99,3,7.45v25.87v1.77L35.09,3z"/>
<g class="st2">
	<text transform="matrix(1 0 0 1.1 153.7188 23.5264)" style="display:inline;"><tspan x="0" y="0" class="st3" style="font-family:'Arial-BoldMT'; font-size:18.5719px;">PUSH </tspan><tspan x="-5.16" y="19.3" class="st3" style="font-family:'Arial-BoldMT'; font-size:18.5719px;">to Free </tspan><tspan x="6.87" y="38.59" class="st3" style="font-family:'Arial-BoldMT'; font-size:18.5719px;">VC</tspan><tspan x="32.67" y="38.59" class="st3" style="font-family:'Arial-BoldMT'; font-size:18.5719px;">P</tspan></text>
</g>
<g>
	<path class="st3" d="M21.26,34.96v-17.9h5.8c2.2,0,3.63,0.09,4.3,0.27c1.03,0.27,1.88,0.85,2.58,1.75c0.69,0.9,1.04,2.06,1.04,3.48
		c0,1.1-0.2,2.02-0.6,2.77c-0.4,0.75-0.91,1.34-1.52,1.76c-0.61,0.43-1.24,0.71-1.87,0.85c-0.86,0.17-2.11,0.26-3.75,0.26h-2.36
		v6.75H21.26z M24.87,20.09v5.08h1.98c1.42,0,2.38-0.09,2.86-0.28c0.48-0.19,0.86-0.48,1.13-0.88c0.27-0.4,0.41-0.86,0.41-1.39
		c0-0.65-0.19-1.19-0.57-1.61c-0.38-0.42-0.87-0.69-1.45-0.79c-0.43-0.08-1.3-0.12-2.6-0.12H24.87z"/>
	<path class="st3" d="M46.44,34.96v-1.94c-0.47,0.69-1.09,1.24-1.86,1.64c-0.77,0.4-1.58,0.6-2.44,0.6c-0.87,0-1.65-0.19-2.34-0.57
		c-0.69-0.38-1.19-0.92-1.5-1.61c-0.31-0.69-0.46-1.65-0.46-2.87V22h3.43v5.96c0,1.82,0.06,2.94,0.19,3.35
		c0.13,0.41,0.36,0.74,0.69,0.98c0.33,0.24,0.76,0.36,1.27,0.36c0.59,0,1.11-0.16,1.58-0.48c0.46-0.32,0.78-0.72,0.95-1.2
		c0.17-0.48,0.26-1.64,0.26-3.5V22h3.43v12.96H46.44z"/>
	<path class="st3" d="M51.97,31.26l3.44-0.53c0.15,0.67,0.44,1.17,0.89,1.52c0.45,0.35,1.07,0.52,1.88,0.52c0.89,0,1.55-0.16,2-0.49
		c0.3-0.23,0.45-0.53,0.45-0.92c0-0.26-0.08-0.48-0.24-0.65c-0.17-0.16-0.55-0.31-1.15-0.45c-2.77-0.61-4.52-1.17-5.26-1.67
		c-1.03-0.7-1.54-1.67-1.54-2.92c0-1.12,0.44-2.07,1.33-2.83c0.89-0.76,2.26-1.15,4.13-1.15c1.77,0,3.09,0.29,3.96,0.87
		c0.86,0.58,1.46,1.43,1.78,2.56l-3.23,0.6c-0.14-0.5-0.4-0.89-0.79-1.16s-0.94-0.4-1.65-0.4c-0.9,0-1.55,0.13-1.94,0.38
		c-0.26,0.18-0.39,0.41-0.39,0.7c0,0.24,0.11,0.45,0.34,0.62c0.31,0.23,1.38,0.55,3.2,0.96s3.1,0.92,3.83,1.53
		c0.72,0.61,1.07,1.46,1.07,2.55c0,1.19-0.5,2.21-1.49,3.06c-0.99,0.85-2.46,1.28-4.41,1.28c-1.77,0-3.16-0.36-4.19-1.07
		C52.96,33.46,52.29,32.49,51.97,31.26z"/>
	<path class="st3" d="M70.5,17.07v6.58c1.11-1.29,2.43-1.94,3.97-1.94c0.79,0,1.5,0.15,2.14,0.44s1.11,0.67,1.43,1.12
		c0.32,0.46,0.54,0.96,0.66,1.51c0.12,0.55,0.18,1.41,0.18,2.58v7.6h-3.43v-6.85c0-1.36-0.07-2.22-0.2-2.59s-0.36-0.66-0.69-0.87
		c-0.33-0.22-0.74-0.32-1.24-0.32c-0.57,0-1.08,0.14-1.53,0.42c-0.45,0.28-0.77,0.69-0.98,1.25c-0.21,0.56-0.31,1.38-0.31,2.47v6.49
		h-3.43v-17.9H70.5z"/>
	<path class="st3" d="M45.94,45v2.73H43.6v5.22c0,1.06,0.02,1.67,0.07,1.85c0.04,0.17,0.15,0.32,0.3,0.43
		c0.16,0.11,0.35,0.17,0.58,0.17c0.32,0,0.78-0.11,1.38-0.33l0.29,2.66c-0.8,0.34-1.7,0.51-2.71,0.51c-0.62,0-1.18-0.1-1.67-0.31
		c-0.5-0.21-0.86-0.48-1.09-0.81c-0.23-0.33-0.39-0.78-0.48-1.34c-0.07-0.4-0.11-1.21-0.11-2.42v-5.65h-1.57V45h1.57v-2.58l3.44-2
		V45H45.94z"/>
	<path class="st3" d="M47.53,51.3c0-1.14,0.28-2.24,0.84-3.31c0.56-1.07,1.36-1.88,2.39-2.44c1.03-0.56,2.18-0.84,3.45-0.84
		c1.96,0,3.57,0.64,4.82,1.91c1.25,1.27,1.88,2.88,1.88,4.83c0,1.96-0.63,3.59-1.9,4.88s-2.86,1.93-4.78,1.93
		c-1.19,0-2.32-0.27-3.4-0.81c-1.08-0.54-1.9-1.32-2.46-2.36C47.81,54.05,47.53,52.79,47.53,51.3z M51.04,51.48
		c0,1.29,0.31,2.27,0.92,2.96c0.61,0.68,1.36,1.03,2.26,1.03s1.65-0.34,2.25-1.03s0.91-1.68,0.91-2.98c0-1.27-0.3-2.25-0.91-2.93
		s-1.36-1.03-2.25-1.03s-1.65,0.34-2.26,1.03C51.35,49.21,51.04,50.19,51.04,51.48z"/>
	<path class="st3" d="M18.51,80.96v-17.9h12.27v3.03h-8.65v4.24h7.47v3.03h-7.47v7.61H18.51z"/>
	<path class="st3" d="M33.77,80.96v-17.9h7.6c1.91,0,3.3,0.16,4.17,0.48c0.87,0.32,1.56,0.89,2.08,1.71
		c0.52,0.82,0.78,1.76,0.78,2.82c0,1.34-0.39,2.45-1.18,3.33s-1.97,1.43-3.54,1.65c0.78,0.46,1.43,0.96,1.93,1.5
		s1.19,1.51,2.06,2.91l2.19,3.49h-4.32l-2.61-3.89c-0.93-1.39-1.56-2.27-1.9-2.63s-0.7-0.61-1.09-0.75c-0.38-0.13-0.99-0.2-1.82-0.2
		h-0.73v7.47H33.77z M37.38,70.63h2.67c1.73,0,2.82-0.07,3.25-0.22c0.43-0.15,0.77-0.4,1.01-0.76s0.37-0.81,0.37-1.34
		c0-0.6-0.16-1.09-0.48-1.46c-0.32-0.37-0.78-0.6-1.36-0.7c-0.29-0.04-1.17-0.06-2.64-0.06h-2.82V70.63z"/>
	<path class="st3" d="M51.81,80.96v-17.9h13.27v3.03h-9.66v3.97h8.98v3.01h-8.98v4.87h10v3.02H51.81z"/>
	<path class="st3" d="M68.48,80.96v-17.9h13.27v3.03H72.1v3.97h8.98v3.01H72.1v4.87h10v3.02H68.48z"/>
</g>
</svg>
