<?xml version="1.0" encoding="UTF-8" standalone="no"?>
<svg
   width="100%"
   height="100%"
   viewBox="0 0 300 300"
   version="1.1"
   xml:space="preserve"
   style="fill-rule:evenodd;clip-rule:evenodd;stroke-linecap:round;stroke-linejoin:round;stroke-miterlimit:1.5;"
   id="svg41"
   sodipodi:docname="park.svg"
   inkscape:version="1.2.2 (732a01da63, 2022-12-09)"
   xmlns:inkscape="http://www.inkscape.org/namespaces/inkscape"
   xmlns:sodipodi="http://sodipodi.sourceforge.net/DTD/sodipodi-0.dtd"
   xmlns="http://www.w3.org/2000/svg"
   xmlns:svg="http://www.w3.org/2000/svg"
   xmlns:serif="http://www.serif.com/"><defs
   id="defs45">
        
        
    </defs><sodipodi:namedview
   id="namedview43"
   pagecolor="#ffffff"
   bordercolor="#000000"
   borderopacity="0.25"
   inkscape:showpageshadow="2"
   inkscape:pageopacity="0.0"
   inkscape:pagecheckerboard="0"
   inkscape:deskcolor="#d1d1d1"
   showgrid="false"
   inkscape:zoom="0.69083333"
   inkscape:cx="150.54282"
   inkscape:cy="149.0953"
   inkscape:window-width="1920"
   inkscape:window-height="1009"
   inkscape:window-x="-8"
   inkscape:window-y="-8"
   inkscape:window-maximized="1"
   inkscape:current-layer="g37" />
    <g
   id="Layer-1"
   serif:id="Layer 1"
   transform="translate(-1512.99,-1530.99)">
        </g><g
   transform="matrix(0.301848,0,0,0.582975,-242.81,-1056.694)"
   id="g37">
            <rect
   x="804.41101"
   y="1812.59"
   width="993.87701"
   height="514.60199"
   style="fill:none"
   id="rect3" />
            
            <g
   transform="matrix(3.31292,0,0,1.71534,-484.316,1665.07)"
   id="g35">
                <g
   transform="matrix(62.5,0,0,62.5,444.441,153.369)"
   id="g21">
                    <path
   d="M 0.072,-0.716 H 0.44 c 0.08,0 0.14,0.019 0.18,0.057 0.04,0.038 0.06,0.093 0.06,0.163 0,0.072 -0.022,0.129 -0.065,0.169 -0.044,0.041 -0.11,0.061 -0.199,0.061 H 0.294 V 0 H 0.072 Z m 0.222,0.305 h 0.055 c 0.042,0 0.072,-0.007 0.089,-0.022 0.018,-0.015 0.026,-0.034 0.026,-0.057 0,-0.022 -0.007,-0.041 -0.022,-0.057 C 0.427,-0.563 0.399,-0.57 0.357,-0.57 H 0.294 Z"
   style="fill:#0b0a08;fill-rule:nonzero"
   id="path19" />
                </g>
                <g
   transform="matrix(62.5,0,0,62.5,484.267,153.369)"
   id="g25">
                    <path
   d="M 0.514,-0.118 H 0.262 L 0.227,0 H 0.001 L 0.27,-0.716 H 0.511 L 0.78,0 H 0.549 Z M 0.467,-0.273 0.388,-0.53 0.31,-0.273 Z"
   style="fill:#0b0a08;fill-rule:nonzero"
   id="path23" />
                </g>
                <g
   transform="matrix(62.5,0,0,62.5,532.881,153.369)"
   id="g29">
                    <path
   d="m 0.076,0 v -0.716 h 0.369 c 0.068,0 0.12,0.006 0.157,0.018 0.036,0.011 0.065,0.033 0.087,0.065 0.022,0.032 0.033,0.07 0.033,0.116 0,0.04 -0.008,0.074 -0.025,0.103 -0.017,0.029 -0.04,0.052 -0.07,0.07 -0.019,0.011 -0.045,0.021 -0.078,0.028 0.027,0.009 0.046,0.018 0.058,0.026 0.008,0.006 0.02,0.019 0.035,0.038 0.016,0.019 0.026,0.034 0.031,0.044 L 0.78,0 H 0.53 L 0.412,-0.219 C 0.397,-0.247 0.384,-0.265 0.372,-0.274 0.356,-0.285 0.338,-0.291 0.318,-0.291 H 0.298 V 0 Z m 0.222,-0.426 h 0.094 c 0.01,0 0.029,-0.003 0.058,-0.01 0.015,-0.002 0.027,-0.01 0.036,-0.022 C 0.495,-0.47 0.5,-0.484 0.5,-0.5 0.5,-0.523 0.493,-0.54 0.478,-0.553 0.463,-0.565 0.436,-0.571 0.396,-0.571 H 0.298 Z"
   style="fill:#0b0a08;fill-rule:nonzero"
   id="path27" />
                </g>
                <g
   transform="matrix(62.5,0,0,62.5,581.496,153.369)"
   id="g33">
                    <path
   d="m 0.074,-0.716 h 0.221 v 0.271 L 0.527,-0.716 H 0.821 L 0.561,-0.446 0.833,0 H 0.561 L 0.41,-0.294 0.295,-0.175 V 0 H 0.074 Z"
   style="fill:#0b0a08;fill-rule:nonzero"
   id="path31" />
                </g>
            </g>
        <path
   d="m 1451.6961,2182.7906 h -21.6676 l -14.1991,-23.414 c -7.4746,-11.9065 -28.3968,-20.2391 -52.3061,-20.2391 h -125.5407 c -23.9147,0 -44.8377,7.9364 -52.3062,20.2391 l -14.1991,23.414 h -21.6675 c -9.7159,0 -17.1855,3.9697 -17.1855,9.127 v 5.16 c 0,5.1601 7.4747,9.1271 17.1855,9.1271 h 5.9786 c -3.7373,8.3355 -5.2333,17.0636 -5.2333,25.7945 v 44.4475 c 0,5.16 7.4747,9.1271 17.1855,9.1271 h 29.1427 c 9.7159,0 17.1854,-3.9698 17.1854,-9.1271 v -14.2869 h 174.1092 v 14.2869 c 0,5.16 7.4747,9.1271 17.1855,9.1271 h 29.1427 c 9.7159,0 17.1854,-3.9698 17.1854,-9.1271 l 0.01,-44.4447 c 0,-8.7309 -2.2414,-17.4625 -5.2333,-25.7945 h 5.9787 c 9.7158,0 17.1853,-3.9697 17.1853,-9.127 v -5.16 c -0.7453,-5.1601 -8.22,-9.1299 -17.9313,-9.1299 z m -233.142,-18.2542 c 2.9867,-4.3656 10.4612,-7.541 19.4271,-7.541 h 125.5354 c 8.9654,0 16.4395,3.1752 19.4271,7.541 l 16.4395,27.3841 c 0.7454,1.1903 -0.7453,2.3807 -3.7373,2.3807 h -189.7881 c -2.2414,0 -4.4827,-1.1904 -3.7373,-2.3807 z m 20.1771,72.6253 h -35.1208 c -5.9786,0 -10.4612,-2.3807 -10.4612,-5.5558 v -8.731 c 0,-3.5711 5.9787,-5.9517 11.9572,-5.5559 l 32.8803,2.7794 c 4.4827,0.3959 7.4747,1.9849 8.9654,4.3656 l 2.2414,5.9518 c 0.7506,3.1724 -3.7373,6.7462 -10.4613,6.7462 z m 169.6257,-5.9545 c 0,3.1752 -4.4827,5.5559 -10.4612,5.5559 h -35.1208 c -6.724,0 -11.9572,-3.1752 -10.4612,-6.7462 l 2.2414,-5.9518 c 0.7453,-2.3807 4.4826,-3.9697 8.9653,-4.3656 l 32.8804,-2.7794 c 6.724,-0.3958 11.9572,1.9849 11.9572,5.5559 z"
   id="path216"
   style="stroke-width:0.972441" /><path
   d="M 1637.014,1964.9162 H 964.4891 c -10.46123,0 -18.68125,4.3655 -18.68125,9.9214 v 301.2164 c 0,5.5559 8.22002,9.9214 18.68125,9.9214 h 91.9104 c 10.4612,0 18.6813,-4.3655 18.6813,-9.9214 v -160.3312 h 452.0862 v 160.3312 c 0,5.5559 8.22,9.9214 18.6812,9.9214 h 91.1645 c 10.4613,0 18.6813,-4.3655 18.6813,-9.9214 v -301.2164 c 0,-5.5559 -8.22,-9.9215 -18.6813,-9.9215 z m -110.5916,90.087 h -451.339 v -21.4289 h 452.0862 v 21.4289 z m -451.339,40.8766 v -21.429 h 452.0862 v 21.429 z m 543.998,170.2527 h -55.2978 l 0.01,-242.4812 c 0,-5.5558 -8.22,-9.9214 -18.6813,-9.9214 h -488.7061 c -10.4613,0 -18.6813,4.3656 -18.6813,9.9214 v 242.4812 h -55.29379 v -281.7702 h 635.90969 v 281.7702 z"
   id="path218"
   style="stroke-width:0.972441" /></g>
</svg>
