<?xml version="1.0" encoding="UTF-8" standalone="no"?>
<!-- Generator: Adobe Illustrator 24.0.2, SVG Export Plug-In . SVG Version: 6.00 Build 0)  -->

<svg
   xmlns:dc="http://purl.org/dc/elements/1.1/"
   xmlns:cc="http://creativecommons.org/ns#"
   xmlns:rdf="http://www.w3.org/1999/02/22-rdf-syntax-ns#"
   xmlns:svg="http://www.w3.org/2000/svg"
   xmlns="http://www.w3.org/2000/svg"
   xmlns:sodipodi="http://sodipodi.sourceforge.net/DTD/sodipodi-0.dtd"
   xmlns:inkscape="http://www.inkscape.org/namespaces/inkscape"
   version="1.1"
   id="New_VCP"
   x="0px"
   y="0px"
   width="101.00157"
   height="101.00157"
   viewBox="0 0 101.00157 101.00157"
   xml:space="preserve"
   sodipodi:docname="spin_warm.svg"
   inkscape:version="0.92.4 (5da689c313, 2019-01-14)"><metadata
   id="metadata935"><rdf:RDF><cc:Work
       rdf:about=""><dc:format>image/svg+xml</dc:format><dc:type
         rdf:resource="http://purl.org/dc/dcmitype/StillImage" /><dc:title></dc:title></cc:Work></rdf:RDF></metadata><defs
   id="defs933">
	
	
	

		
		
	
			
			
		
				
				
				
			
		
	</defs><sodipodi:namedview
   pagecolor="#ffffff"
   bordercolor="#666666"
   borderopacity="1"
   objecttolerance="10"
   gridtolerance="10"
   guidetolerance="10"
   inkscape:pageopacity="0"
   inkscape:pageshadow="2"
   inkscape:window-width="1920"
   inkscape:window-height="1017"
   id="namedview931"
   showgrid="false"
   inkscape:zoom="3.2"
   inkscape:cx="-43.25425"
   inkscape:cy="49.387629"
   inkscape:window-x="-8"
   inkscape:window-y="-8"
   inkscape:window-maximized="1"
   inkscape:current-layer="New_VCP" />
<style
   type="text/css"
   id="style876">
	.st0{fill:#FFC70E;}
	.st1{display:none;fill:#82151E;}
	.st2{display:none;}
	.st3{display:inline;}
	.st4{fill:#010101;}
</style>
<path
   class="st0"
   d="m 100.50079,94.500787 c 0,3.3 -2.700003,6.000003 -6.000003,6.000003 H 6.5007874 c -3.3,0 -6.00000002,-2.700003 -6.00000002,-6.000003 V 6.5007874 c 0,-3.3 2.70000002,-6.00000002 6.00000002,-6.00000002 H 94.500787 c 3.3,0 6.000003,2.70000002 6.000003,6.00000002 z"
   id="path878"
   style="fill:#ffffff;stroke:#000000;stroke-width:1;stroke-miterlimit:4;stroke-dasharray:none;stroke-opacity:1"
   inkscape:connector-curvature="0" />
<path
   class="st1"
   d="m 34.800787,2.7007874 h -0.7 -26.7999996 c -2.5,0 -4.6,2 -4.6,4.4 v 25.8999996 1.8 z"
   id="path880"
   inkscape:connector-curvature="0"
   style="display:none;fill:#82151e" />
<g
   class="st2"
   id="g904"
   style="display:none"
   transform="translate(0.50078738,0.50078738)">
	<g
   class="st3"
   id="g892"
   style="display:inline">
		<path
   class="st4"
   d="M 14,44.6 V 25.9 h 7.9 c 1.5,0 2.6,0.2 3.3,0.5 0.8,0.3 1.4,0.9 1.9,1.7 0.5,0.8 0.7,1.8 0.7,3 0,1 -0.2,1.9 -0.5,2.7 -0.3,0.8 -0.9,1.4 -1.5,1.8 -0.4,0.3 -1,0.5 -1.7,0.7 0.6,0.2 1,0.5 1.2,0.7 0.2,0.2 0.4,0.5 0.8,1 0.3,0.5 0.5,0.9 0.7,1.2 l 2.3,5.4 H 23.8 L 21.3,38.9 C 21,38.2 20.7,37.7 20.4,37.5 20,37.2 19.6,37 19.1,37 h -0.4 v 7.6 z m 4.7,-11.1 h 2 c 0.2,0 0.6,-0.1 1.3,-0.3 0.3,-0.1 0.6,-0.3 0.8,-0.6 C 23,32.3 23,32 23,31.5 23,30.9 22.8,30.4 22.5,30.1 22.2,29.8 21.6,29.6 20.7,29.6 h -2.1 v 3.9 z"
   id="path882"
   inkscape:connector-curvature="0"
   style="fill:#010101" />
		<path
   class="st4"
   d="m 30.5,25.9 h 12.6 v 4 h -7.9 v 3 h 7.3 v 3.8 h -7.3 v 3.7 h 8.1 v 4.2 H 30.5 Z"
   id="path884"
   inkscape:connector-curvature="0"
   style="fill:#010101" />
		<path
   class="st4"
   d="m 45.1,38.4 4.5,-0.3 c 0.1,0.9 0.3,1.6 0.6,2 0.5,0.8 1.2,1.1 2.1,1.1 0.7,0 1.2,-0.2 1.6,-0.6 0.4,-0.4 0.5,-0.8 0.5,-1.3 0,-0.5 -0.2,-0.9 -0.5,-1.3 -0.3,-0.4 -1.2,-0.7 -2.4,-1.1 -2.1,-0.6 -3.5,-1.3 -4.4,-2.3 -0.9,-0.9 -1.3,-2.1 -1.3,-3.6 0,-1 0.2,-1.9 0.7,-2.7 0.5,-0.9 1.1,-1.5 2.1,-2 0.9,-0.5 2.2,-0.7 3.8,-0.7 2,0 3.4,0.4 4.5,1.3 1,0.9 1.6,2.3 1.8,4.2 L 54,31.5 c -0.1,-0.8 -0.4,-1.5 -0.7,-1.8 -0.4,-0.4 -0.9,-0.6 -1.6,-0.6 -0.5,0 -1,0.1 -1.2,0.4 -0.3,0.3 -0.4,0.6 -0.4,1 0,0.3 0.1,0.6 0.3,0.8 0.2,0.2 0.8,0.5 1.6,0.7 2.1,0.5 3.5,1.1 4.4,1.7 0.9,0.6 1.5,1.2 1.9,2.1 0.4,0.8 0.6,1.7 0.6,2.8 0,1.2 -0.3,2.3 -0.8,3.3 -0.5,1 -1.3,1.8 -2.3,2.3 -1,0.5 -2.2,0.8 -3.7,0.8 -2.6,0 -4.4,-0.6 -5.4,-1.8 -0.9,-1.3 -1.5,-2.9 -1.6,-4.8 z"
   id="path886"
   inkscape:connector-curvature="0"
   style="fill:#010101" />
		<path
   class="st4"
   d="M 61.3,25.9 H 74 v 4 h -7.9 v 3 h 7.3 v 3.8 h -7.3 v 3.7 h 8.1 v 4.2 H 61.3 Z"
   id="path888"
   inkscape:connector-curvature="0"
   style="fill:#010101" />
		<path
   class="st4"
   d="M 75.7,25.9 H 90 v 4.6 H 85.2 V 44.6 H 80.5 V 30.5 h -4.8 z"
   id="path890"
   inkscape:connector-curvature="0"
   style="fill:#010101" />
	</g>
	<g
   class="st3"
   id="g902"
   style="display:inline">
		<path
   class="st4"
   d="m 17.5,53.2 h 4.7 v 6.6 h 5.2 v -6.6 h 4.7 v 18.9 h -4.7 v -7.6 h -5.2 v 7.6 h -4.7 z"
   id="path894"
   inkscape:connector-curvature="0"
   style="fill:#010101" />
		<path
   class="st4"
   d="m 34.7,62.7 c 0,-3.1 0.7,-5.5 2.1,-7.2 1.4,-1.7 3.3,-2.6 5.8,-2.6 2.5,0 4.5,0.8 5.9,2.5 1.4,1.7 2.1,4 2.1,7.1 0,2.2 -0.3,4 -0.9,5.4 -0.6,1.4 -1.5,2.5 -2.6,3.3 -1.1,0.8 -2.6,1.2 -4.3,1.2 -1.7,0 -3.2,-0.3 -4.3,-1 -1.1,-0.7 -2,-1.7 -2.8,-3.2 -0.6,-1.5 -1,-3.3 -1,-5.5 z m 4.7,0 c 0,1.9 0.3,3.3 0.9,4.1 0.6,0.8 1.4,1.2 2.3,1.2 1,0 1.8,-0.4 2.4,-1.2 0.6,-0.8 0.8,-2.3 0.8,-4.4 0,-1.8 -0.3,-3.1 -0.9,-3.9 -0.6,-0.8 -1.4,-1.2 -2.4,-1.2 -1,0 -1.7,0.4 -2.3,1.2 -0.5,0.9 -0.8,2.3 -0.8,4.2 z"
   id="path896"
   inkscape:connector-curvature="0"
   style="fill:#010101" />
		<path
   class="st4"
   d="m 53.1,53.2 h 6.2 l 2.4,11.5 2.4,-11.5 h 6.2 V 72.1 H 66.4 V 57.7 l -3,14.4 h -3.5 l -3,-14.4 V 72.1 H 53 V 53.2 Z"
   id="path898"
   inkscape:connector-curvature="0"
   style="fill:#010101" />
		<path
   class="st4"
   d="M 73.3,53.2 H 86 v 4 h -8 v 3 h 7.4 V 64 H 78 v 3.7 h 8.2 V 72 H 73.3 Z"
   id="path900"
   inkscape:connector-curvature="0"
   style="fill:#010101" />
	</g>
</g>

<path
   style="opacity:1;fill:#000000;fill-opacity:1;stroke:#000000;stroke-width:1.09267235;stroke-linejoin:bevel;stroke-miterlimit:4;stroke-dasharray:none"
   d="m 33.724103,7.4446801 c 5.691151,-3.8499733 26.463968,-3.8741844 33.520477,0 0.07365,2.9780379 0,11.5320239 0,11.5320239 H 33.724103 c 0,0 0.07636,-9.2077031 0,-11.5320239 z"
   id="rect4916"
   inkscape:connector-curvature="0"
   sodipodi:nodetypes="ccccc" /><path
   style="opacity:1;fill:#cccccc;fill-opacity:1;stroke:#000000;stroke-width:1.25903213;stroke-miterlimit:4;stroke-dasharray:none"
   d="M 33.756992,18.976704 H 67.24458 V 72.912377 H 33.756992 Z"
   id="rect4918"
   inkscape:connector-curvature="0" /><path
   style="opacity:1;fill:#000000;fill-opacity:1;stroke:#000000;stroke-width:1.43808889;stroke-linejoin:bevel;stroke-miterlimit:4;stroke-dasharray:none"
   d="M 39.887193,72.914284 H 61.114378 V 84.285972 H 39.887193 Z"
   id="rect4920"
   inkscape:connector-curvature="0" /><path
   style="opacity:1;fill:#cccccc;fill-opacity:1;stroke:#000000;stroke-width:1.25903213;stroke-linejoin:miter;stroke-miterlimit:4;stroke-dasharray:none"
   d="m 46.470086,84.219828 h 8.061402 v 5.715804 h -8.061402 z"
   id="rect4927"
   inkscape:connector-curvature="0" /><path
   style="opacity:1;fill:#000000;fill-opacity:1;stroke:#000000;stroke-width:1.19677162;stroke-linejoin:bevel;stroke-miterlimit:4;stroke-dasharray:none"
   d="m 45.473834,89.978746 h 10.053907 v 6.096843 H 45.473834 Z"
   id="rect4929"
   inkscape:connector-curvature="0" /><path
   inkscape:connector-curvature="0"
   d="m 50.500786,68.516536 c -1.30374,0 -2.568877,-0.255571 -3.760586,-0.759618 -1.150435,-0.486541 -2.183495,-1.183048 -3.070344,-2.06999 -0.886849,-0.886849 -1.583264,-1.919817 -2.06999,-3.070344 -0.503954,-1.191525 -0.759525,-2.456754 -0.759525,-3.760402 0,-1.544661 0.373866,-3.081307 1.080968,-4.443735 0.608707,-1.17273 1.464877,-2.221268 2.492502,-3.057169 V 27.976035 c 9.1e-5,-2.538382 2.065199,-4.603489 4.603673,-4.603489 h 2.966697 c 2.538382,0 4.603581,2.065107 4.603581,4.603489 v 23.379243 c 1.027625,0.835809 1.883794,1.884347 2.492502,3.057169 0.707194,1.362428 1.080968,2.899166 1.080968,4.443735 0,1.303648 -0.255478,2.56897 -0.759617,3.760402 -0.486634,1.150527 -1.182957,2.183495 -2.069898,3.070344 -0.886849,0.886942 -1.919909,1.583357 -3.070436,2.06999 -1.191433,0.504047 -2.456662,0.759618 -3.760495,0.759618 z M 49.017484,25.268409 c -1.492976,0 -2.707626,1.21465 -2.707626,2.707626 V 51.82063 c 0,0.30228 -0.144185,0.586503 -0.388146,0.765052 -1.994535,1.459349 -3.185323,3.803427 -3.185323,6.270408 0,4.281308 3.483089,7.764398 7.76449,7.764398 4.2814,0 7.76449,-3.483181 7.76449,-7.764398 0,-2.466981 -1.190788,-4.811152 -3.185416,-6.270408 C 54.835991,52.407133 54.691807,52.12291 54.691807,51.82063 V 27.976035 c 0,-1.492976 -1.21465,-2.707626 -2.707626,-2.707626 z"
   id="path4826"
   style="fill:#000000;stroke-width:0.09213059" /><path
   id="path4830"
   d="M 52.513563,53.317291 V 34.620154 c 0,-0.821621 -0.666011,-1.487633 -1.48754,-1.487633 H 49.97555 c -0.821529,0 -1.48754,0.666012 -1.48754,1.487633 v 18.697137 c -2.26282,0.82245 -3.879159,2.991941 -3.879159,5.538983 0,3.254053 2.637883,5.892028 5.891935,5.892028 3.254053,0 5.892028,-2.637975 5.892028,-5.892028 -9.2e-5,-2.547042 -1.616339,-4.716533 -3.879251,-5.538983 z m -3.317806,3.705032 c -0.440661,0.39091 -0.725805,0.905367 -0.824477,1.487725 -0.05187,0.306794 -0.04846,0.615524 0.01041,0.917344 0.07545,0.387317 -0.177351,0.762473 -0.56476,0.83802 -0.04616,0.0091 -0.09213,0.01345 -0.137459,0.01345 -0.335079,0 -0.634135,-0.236776 -0.700653,-0.578027 -0.09185,-0.471432 -0.09738,-0.952354 -0.01658,-1.429314 0.15137,-0.894311 0.607877,-1.717591 1.285221,-2.318374 0.295279,-0.261835 0.746903,-0.234841 1.00883,0.06044 0.261743,0.295279 0.234749,0.746811 -0.06053,1.008738 z"
   inkscape:connector-curvature="0"
   style="fill:#ff0000;stroke-width:0.09213059"
   sodipodi:nodetypes="csssscssccccccscccccc" /><g
   id="g4850"
   transform="matrix(0.17259809,0,0,0.17259809,27.886541,8.2142558)">
</g><g
   id="g4852"
   transform="matrix(0.17259809,0,0,0.17259809,27.886541,8.2142558)">
</g><g
   id="g4854"
   transform="matrix(0.17259809,0,0,0.17259809,27.886541,8.2142558)">
</g><g
   id="g4856"
   transform="matrix(0.17259809,0,0,0.17259809,27.886541,8.2142558)">
</g><g
   id="g4858"
   transform="matrix(0.17259809,0,0,0.17259809,27.886541,8.2142558)">
</g><g
   id="g4860"
   transform="matrix(0.17259809,0,0,0.17259809,27.886541,8.2142558)">
</g><g
   id="g4862"
   transform="matrix(0.17259809,0,0,0.17259809,27.886541,8.2142558)">
</g><g
   id="g4864"
   transform="matrix(0.17259809,0,0,0.17259809,27.886541,8.2142558)">
</g><g
   id="g4866"
   transform="matrix(0.17259809,0,0,0.17259809,27.886541,8.2142558)">
</g><g
   id="g4868"
   transform="matrix(0.17259809,0,0,0.17259809,27.886541,8.2142558)">
</g><g
   id="g4870"
   transform="matrix(0.17259809,0,0,0.17259809,27.886541,8.2142558)">
</g><g
   id="g4872"
   transform="matrix(0.17259809,0,0,0.17259809,27.886541,8.2142558)">
</g><g
   id="g4874"
   transform="matrix(0.17259809,0,0,0.17259809,27.886541,8.2142558)">
</g><g
   id="g4876"
   transform="matrix(0.17259809,0,0,0.17259809,27.886541,8.2142558)">
</g><g
   id="g4878"
   transform="matrix(0.17259809,0,0,0.17259809,27.886541,8.2142558)">
</g><path
   inkscape:connector-curvature="0"
   d="m 81.54895,28.958502 c -0.551147,0.349624 -1.10291,0.818305 -1.65204,1.275014 -0.752749,0.608918 -1.500971,1.27867 -2.235919,2.059514 -0.614911,0.684783 -1.210824,1.445464 -1.780755,2.278057 -0.531748,0.748524 -0.954552,1.604597 -1.259755,2.57478 -0.326913,1.3662 -0.206548,2.440119 -0.0532,3.502186 0.336694,1.953676 1.038745,3.441647 1.745869,4.897912 0.672215,1.274938 1.304535,2.609283 1.803588,4.137278 0.323831,1.026889 0.504114,2.213322 0.520843,3.548365 0.0017,1.076001 -0.244591,2.171658 -0.676454,3.31255 -0.556934,1.409604 -1.346118,2.474282 -2.13977,3.485945 -1.342099,1.643266 -2.757478,2.795256 -4.15387,4.038407 -1.520839,1.342189 -3.04389,2.654278 -4.566179,3.976692 -0.800649,0.691224 -0.408743,0.350132 -1.175761,1.022648 0,0 -3.756117,0.329004 -3.756117,0.329004 v 0 c 0.912101,-0.688072 0.448969,-0.341155 1.389404,-1.040292 1.571056,-1.200575 3.143589,-2.427528 4.695132,-3.944926 1.154354,-1.105647 2.320616,-2.273741 3.393345,-3.76812 0.622093,-0.915673 1.234696,-1.870471 1.683279,-3.019896 0.348935,-0.949035 0.621343,-1.908161 0.703778,-2.851526 0.08008,-1.244765 0.03452,-2.39597 -0.137888,-3.442261 C 73.629905,49.750595 73.24245,48.30935 72.72253,47.042258 72.035433,45.3766 71.29979,43.78565 70.529815,42.244605 70.097824,41.225216 69.61807,40.124296 69.980327,38.376302 c 0.267879,-1.157419 0.724785,-2.156638 1.328957,-3.091895 0.633846,-0.923436 1.298945,-1.726347 1.982906,-2.477848 0.692217,-0.752486 1.39262,-1.443457 2.093823,-2.133531 0.352443,-0.341812 0.771736,-0.662589 1.071712,-1.194499 0,0 5.091227,-0.520027 5.091227,-0.520027 z"
   id="path2450"
   style="opacity:1;fill:#ff0000;fill-opacity:1;stroke:#ffffff;stroke-width:1.11510515;stroke-linejoin:bevel;stroke-miterlimit:4;stroke-dasharray:none" /><path
   style="opacity:1;fill:#ff0000;fill-opacity:1;stroke:#ffffff;stroke-width:0.99199271;stroke-linejoin:bevel;stroke-miterlimit:4;stroke-dasharray:none"
   id="path2452"
   d="m 91.93341,32.082642 c -0.54062,0.2586 -1.079038,0.611884 -1.615115,0.955739 -0.735264,0.457723 -1.464579,0.963998 -2.178047,1.559112 -0.596195,0.522954 -1.171675,1.106952 -1.719578,1.749078 -0.511865,0.576603 -0.912688,1.242615 -1.193692,2.003563 -0.293259,1.075201 -0.147985,1.933742 0.02985,2.784021 0.381526,1.566025 1.115898,2.774534 1.854571,3.957999 0.699618,1.037989 1.360911,2.121821 1.894063,3.354977 0.346795,0.828333 0.554402,1.778497 0.602642,2.841083 0.02719,0.855996 -0.192223,1.71884 -0.595331,2.611099 -0.52131,1.101583 -1.282079,1.920563 -2.048551,2.697209 -1.297733,1.259651 -2.680065,2.125907 -4.041335,3.065353 -1.482862,1.013822 -2.96864,2.00362 -4.453413,3.001659 -0.781021,0.5215 -0.398788,0.264049 -1.146757,0.771855 0,0 -3.732952,0.128698 -3.732952,0.128698 v 0 c 0.892091,-0.515044 0.439061,-0.255482 1.359107,-0.778323 1.536224,-0.899393 3.073294,-1.819716 4.582591,-2.971823 1.123474,-0.838638 2.25733,-1.726527 3.290318,-2.87728 0.597886,-0.706366 1.185396,-1.444191 1.604954,-2.342646 0.325058,-0.742577 0.573663,-1.49589 0.633446,-2.243396 0.05031,-0.987345 -0.02229,-1.904714 -0.218745,-2.74312 -0.302837,-1.265686 -0.722797,-2.425883 -1.270559,-3.452235 -0.723681,-1.349324 -1.493943,-2.640939 -2.297215,-3.89407 -0.454335,-0.826198 -0.958162,-1.718944 -0.638737,-3.096601 0.239406,-0.911213 0.670804,-1.689886 1.25038,-2.412467 0.609408,-0.712123 1.252791,-1.327268 1.916175,-1.900848 0.671583,-0.574071 1.352773,-1.098917 2.034781,-1.623023 0.342915,-0.259422 0.752904,-0.499743 1.039069,-0.912242 0,0 5.058075,-0.233371 5.058075,-0.233371 z"
   inkscape:connector-curvature="0" /><path
   style="opacity:1;fill:#ff0000;fill-opacity:1;stroke:#ffffff;stroke-width:1.11510515;stroke-linejoin:bevel;stroke-miterlimit:4;stroke-dasharray:none"
   id="path2492"
   d="m 19.452621,28.958502 c 0.551148,0.349625 1.102911,0.818305 1.65204,1.275015 0.752749,0.608918 1.500971,1.27867 2.23592,2.059513 0.614911,0.684784 1.210823,1.445464 1.780755,2.278058 0.531747,0.748524 0.954552,1.604597 1.259754,2.574779 0.326914,1.366201 0.206548,2.44012 0.0532,3.502187 -0.336695,1.953676 -1.038746,3.441647 -1.745869,4.897912 -0.672215,1.274938 -1.304536,2.609283 -1.803589,4.137278 -0.323831,1.026889 -0.504114,2.213321 -0.520843,3.548365 -0.0017,1.076001 0.244592,2.171658 0.676454,3.31255 0.556934,1.409603 1.346119,2.474282 2.13977,3.485945 1.3421,1.643266 2.757478,2.795256 4.153871,4.038407 1.520838,1.342189 3.043889,2.654277 4.566178,3.976691 0.800649,0.691224 0.408743,0.350133 1.175761,1.022649 0,0 3.756117,0.329004 3.756117,0.329004 v 0 C 37.920039,68.708782 38.383171,69.055699 37.442737,68.356563 35.871681,67.155988 34.299148,65.929035 32.747605,64.411637 31.59325,63.30599 30.426988,62.137896 29.354259,60.643517 28.732166,59.727844 28.119563,58.773046 27.67098,57.62362 c -0.348935,-0.949034 -0.621342,-1.90816 -0.703777,-2.851525 -0.08008,-1.244765 -0.03453,-2.39597 0.137887,-3.442262 0.266575,-1.579237 0.654031,-3.020482 1.173951,-4.287574 0.687097,-1.665658 1.422739,-3.256608 2.192714,-4.797654 0.431992,-1.019388 0.911745,-2.120308 0.549488,-3.868302 C 30.753364,37.218884 30.296459,36.219665 29.692286,35.284408 29.05844,34.360972 28.393341,33.558061 27.70938,32.80656 27.017164,32.054074 26.316761,31.363103 25.615558,30.673029 25.263115,30.331216 24.843821,30.01044 24.543845,29.47853 c 0,0 -5.091227,-0.520028 -5.091227,-0.520028 z"
   inkscape:connector-curvature="0" /><path
   inkscape:connector-curvature="0"
   d="m 9.068161,32.082643 c 0.54062,0.258599 1.079038,0.611884 1.615116,0.955739 0.735263,0.457723 1.464578,0.963998 2.178047,1.559112 0.596195,0.522954 1.171674,1.106952 1.719577,1.749078 0.511865,0.576603 0.912689,1.242614 1.193693,2.003563 0.293259,1.075201 0.147984,1.933742 -0.02986,2.78402 -0.381527,1.566026 -1.115899,2.774535 -1.854572,3.957999 -0.699618,1.03799 -1.360911,2.121822 -1.894062,3.354978 -0.346795,0.828333 -0.554403,1.778497 -0.602642,2.841083 -0.02719,0.855996 0.192222,1.71884 0.59533,2.611098 0.521311,1.101584 1.28208,1.920563 2.048551,2.69721 1.297734,1.259651 2.680066,2.125907 4.041335,3.065353 1.482863,1.013822 2.96864,2.00362 4.453413,3.001659 0.781021,0.521499 0.398789,0.264049 1.146757,0.771855 0,0 3.732952,0.128698 3.732952,0.128698 v 0 c -0.89209,-0.515044 -0.439061,-0.255482 -1.359107,-0.778323 -1.536223,-0.899393 -3.073294,-1.819717 -4.582591,-2.971824 -1.123473,-0.838637 -2.25733,-1.726526 -3.290317,-2.87728 -0.597887,-0.706365 -1.185397,-1.44419 -1.604954,-2.342645 -0.325059,-0.742577 -0.573663,-1.495891 -0.633446,-2.243397 -0.05031,-0.987344 0.02229,-1.904714 0.218744,-2.743119 0.302838,-1.265686 0.722797,-2.425883 1.270559,-3.452235 0.723682,-1.349324 1.493943,-2.640939 2.297216,-3.89407 0.454334,-0.826198 0.958162,-1.718944 0.638736,-3.096602 -0.239406,-0.911212 -0.670804,-1.689885 -1.250379,-2.412467 -0.609409,-0.712122 -1.252792,-1.327267 -1.916176,-1.900847 -0.671582,-0.574071 -1.352772,-1.098917 -2.034781,-1.623023 -0.342914,-0.259422 -0.752903,-0.499744 -1.039069,-0.912242 0,0 -5.058075,-0.233371 -5.058075,-0.233371 z"
   id="path2494"
   style="opacity:1;fill:#ff0000;fill-opacity:1;stroke:#ffffff;stroke-width:0.99199271;stroke-linejoin:bevel;stroke-miterlimit:4;stroke-dasharray:none" /></svg>