<?xml version="1.0" encoding="utf-8"?>
<!-- Generator: Adobe Illustrator 26.0.1, SVG Export Plug-In . SVG Version: 6.00 Build 0)  -->
<svg version="1.1" id="New_VCP" xmlns="http://www.w3.org/2000/svg" xmlns:xlink="http://www.w3.org/1999/xlink" x="0px" y="0px"
	 viewBox="0 0 100 100" style="enable-background:new 0 0 100 100;" xml:space="preserve">
<style type="text/css">
	.st0{fill:#252D6B;}
	.st1{fill:#FFFFFF;}
</style>
<path class="st0" d="M100,94c0,3.31-2.69,6-6,6H6c-3.31,0-6-2.69-6-6V6c0-3.31,2.69-6,6-6h88c3.31,0,6,2.69,6,6V94z"/>
<g>
	<path class="st1" d="M18.82,32.24h14.12v3.87H28.2v11.81h-4.65V36.11h-4.74V32.24z"/>
	<path class="st1" d="M32.82,42.28c0-1.73,0.56-3.16,1.68-4.29s2.64-1.69,4.54-1.69c2.18,0,3.83,0.66,4.94,1.98
		c0.9,1.06,1.34,2.37,1.34,3.93c0,1.75-0.56,3.18-1.67,4.3c-1.11,1.12-2.65,1.67-4.61,1.67c-1.75,0-3.17-0.46-4.25-1.39
		C33.49,45.64,32.82,44.14,32.82,42.28z M37.01,42.27c0,1.01,0.2,1.76,0.59,2.25c0.39,0.49,0.89,0.73,1.48,0.73
		c0.6,0,1.1-0.24,1.48-0.72c0.39-0.48,0.58-1.24,0.58-2.3c0-0.98-0.19-1.72-0.58-2.2c-0.39-0.48-0.87-0.72-1.45-0.72
		c-0.61,0-1.11,0.24-1.51,0.73C37.21,40.52,37.01,41.27,37.01,42.27z"/>
	<path class="st1" d="M47.38,36.56h3.91v1.86c0.38-0.81,0.76-1.36,1.16-1.66c0.4-0.3,0.89-0.46,1.48-0.46c0.62,0,1.29,0.2,2.02,0.6
		l-1.29,3.1c-0.49-0.21-0.88-0.32-1.17-0.32c-0.55,0-0.97,0.24-1.27,0.71c-0.43,0.66-0.64,1.9-0.64,3.72v3.81h-4.19V36.56z"/>
	<path class="st1" d="M65.14,43.47l3.97,0.47c-0.22,0.86-0.58,1.61-1.08,2.24s-1.14,1.12-1.91,1.47c-0.78,0.35-1.76,0.52-2.96,0.52
		c-1.16,0-2.12-0.11-2.89-0.34c-0.77-0.22-1.43-0.59-1.98-1.09s-0.99-1.09-1.3-1.77s-0.47-1.58-0.47-2.69
		c0-1.17,0.19-2.14,0.57-2.92c0.28-0.57,0.66-1.08,1.15-1.53s0.98-0.79,1.5-1.01c0.81-0.35,1.86-0.52,3.13-0.52
		c1.78,0,3.13,0.33,4.07,1c0.93,0.66,1.59,1.63,1.96,2.91l-3.93,0.55c-0.12-0.49-0.35-0.85-0.67-1.1c-0.32-0.25-0.76-0.37-1.31-0.37
		c-0.69,0-1.25,0.26-1.68,0.77c-0.43,0.52-0.64,1.3-0.64,2.34c0,0.93,0.21,1.64,0.64,2.13s0.96,0.73,1.62,0.73
		c0.55,0,1.01-0.15,1.38-0.44C64.68,44.53,64.96,44.08,65.14,43.47z"/>
	<path class="st1" d="M70.67,32.24h4.17v5.78c0.57-0.61,1.13-1.05,1.69-1.32c0.56-0.26,1.22-0.4,1.99-0.4
		c1.13,0,2.03,0.36,2.68,1.08c0.65,0.72,0.98,1.83,0.98,3.32v7.22h-4.19v-6.25c0-0.71-0.13-1.22-0.38-1.51
		c-0.25-0.3-0.61-0.44-1.07-0.44c-0.51,0-0.92,0.2-1.23,0.6c-0.31,0.4-0.47,1.12-0.47,2.15v5.46h-4.17V32.24z"/>
	<path class="st1" d="M9.64,70.93V55.24h7.74c1.44,0,2.53,0.13,3.29,0.39c0.76,0.26,1.37,0.73,1.84,1.43s0.7,1.54,0.7,2.54
		c0,0.87-0.18,1.62-0.53,2.25c-0.36,0.63-0.84,1.14-1.47,1.54c-0.4,0.25-0.94,0.46-1.63,0.62c0.55,0.19,0.96,0.39,1.21,0.58
		c0.17,0.13,0.42,0.4,0.74,0.83c0.32,0.42,0.54,0.75,0.65,0.97l2.25,4.54h-5.25l-2.48-4.79c-0.31-0.62-0.59-1.02-0.84-1.21
		c-0.33-0.24-0.71-0.36-1.14-0.36h-0.41v6.37H9.64z M14.31,61.6h1.96c0.21,0,0.62-0.07,1.23-0.21c0.31-0.06,0.56-0.23,0.75-0.49
		c0.19-0.26,0.29-0.57,0.29-0.91c0-0.51-0.15-0.9-0.46-1.17c-0.31-0.27-0.89-0.41-1.73-0.41h-2.04V61.6z"/>
	<path class="st1" d="M37.21,66.32h-8.37c0.08,0.7,0.26,1.22,0.54,1.56c0.4,0.49,0.93,0.74,1.58,0.74c0.41,0,0.8-0.11,1.17-0.32
		c0.23-0.14,0.47-0.38,0.73-0.72l4.11,0.4c-0.63,1.14-1.39,1.96-2.28,2.46c-0.89,0.5-2.16,0.74-3.82,0.74
		c-1.44,0-2.58-0.21-3.4-0.64c-0.83-0.42-1.51-1.1-2.06-2.02s-0.81-2.01-0.81-3.26c0-1.78,0.54-3.21,1.64-4.31s2.6-1.65,4.52-1.65
		c1.56,0,2.79,0.25,3.69,0.74s1.59,1.21,2.06,2.14s0.71,2.15,0.71,3.65V66.32z M32.96,64.24c-0.08-0.84-0.3-1.44-0.65-1.81
		c-0.35-0.36-0.81-0.55-1.39-0.55c-0.66,0-1.19,0.28-1.59,0.82c-0.25,0.34-0.41,0.85-0.48,1.53H32.96z"/>
	<path class="st1" d="M38.39,67.77l4.14-0.41c0.17,0.51,0.41,0.88,0.72,1.1s0.72,0.33,1.23,0.33c0.56,0,0.99-0.12,1.3-0.37
		c0.24-0.19,0.36-0.42,0.36-0.69c0-0.31-0.16-0.56-0.47-0.73c-0.23-0.12-0.82-0.27-1.79-0.45c-1.45-0.26-2.46-0.51-3.02-0.73
		c-0.56-0.22-1.04-0.6-1.43-1.14c-0.39-0.54-0.58-1.14-0.58-1.83c0-0.75,0.21-1.39,0.63-1.93c0.42-0.54,0.99-0.95,1.72-1.21
		c0.73-0.27,1.71-0.4,2.94-0.4c1.3,0,2.26,0.1,2.88,0.31c0.62,0.21,1.13,0.53,1.55,0.96c0.41,0.43,0.76,1.02,1.03,1.76l-3.96,0.41
		c-0.1-0.36-0.27-0.63-0.51-0.8c-0.33-0.23-0.72-0.34-1.19-0.34c-0.47,0-0.82,0.09-1.03,0.26c-0.22,0.17-0.32,0.39-0.32,0.63
		c0,0.28,0.14,0.49,0.41,0.63s0.87,0.27,1.78,0.38c1.39,0.16,2.42,0.39,3.1,0.68c0.68,0.29,1.19,0.71,1.55,1.25s0.54,1.14,0.54,1.79
		c0,0.66-0.19,1.29-0.57,1.91c-0.38,0.62-0.98,1.11-1.79,1.48c-0.82,0.37-1.93,0.55-3.34,0.55c-1.99,0-3.41-0.3-4.25-0.89
		C39.17,69.7,38.62,68.86,38.39,67.77z"/>
	<path class="st1" d="M56.99,55.24v4.32h2.3v3.19h-2.3v4.03c0,0.48,0.04,0.8,0.13,0.96c0.14,0.24,0.38,0.36,0.72,0.36
		c0.31,0,0.74-0.09,1.29-0.28l0.31,3.01c-1.03,0.24-2,0.35-2.89,0.35c-1.04,0-1.8-0.14-2.3-0.42c-0.49-0.28-0.86-0.7-1.09-1.27
		c-0.24-0.57-0.35-1.48-0.35-2.75v-4h-1.54v-3.19h1.54v-2.09L56.99,55.24z"/>
	<path class="st1" d="M65.08,63.24l-3.99-0.44c0.15-0.73,0.37-1.3,0.65-1.72c0.28-0.42,0.69-0.78,1.23-1.09
		c0.38-0.22,0.91-0.39,1.58-0.51s1.39-0.18,2.17-0.18c1.25,0,2.26,0.07,3.01,0.22c0.76,0.15,1.39,0.45,1.9,0.92
		c0.36,0.32,0.64,0.78,0.84,1.36c0.21,0.59,0.31,1.15,0.31,1.69v5.02c0,0.54,0.03,0.95,0.1,1.26c0.07,0.3,0.21,0.69,0.43,1.16h-3.92
		c-0.16-0.29-0.26-0.52-0.31-0.67s-0.1-0.39-0.14-0.72c-0.55,0.55-1.09,0.94-1.63,1.18c-0.74,0.31-1.6,0.47-2.57,0.47
		c-1.3,0-2.29-0.31-2.96-0.94c-0.67-0.63-1.01-1.4-1.01-2.32c0-0.86,0.24-1.57,0.73-2.13c0.49-0.56,1.38-0.97,2.69-1.24
		c1.57-0.33,2.58-0.56,3.04-0.69s0.96-0.3,1.48-0.52c0-0.53-0.11-0.91-0.32-1.12s-0.58-0.32-1.12-0.32c-0.68,0-1.2,0.11-1.54,0.34
		C65.46,62.42,65.24,62.75,65.08,63.24z M68.7,65.53c-0.57,0.21-1.17,0.4-1.79,0.57c-0.85,0.24-1.38,0.47-1.61,0.7
		c-0.23,0.24-0.35,0.5-0.35,0.8c0,0.34,0.12,0.62,0.34,0.84c0.23,0.22,0.57,0.33,1.01,0.33c0.46,0,0.9-0.12,1.3-0.35
		c0.4-0.24,0.68-0.52,0.85-0.86c0.17-0.34,0.25-0.78,0.25-1.32V65.53z"/>
	<path class="st1" d="M75.32,59.56h3.91v1.86c0.38-0.81,0.76-1.36,1.16-1.66c0.4-0.3,0.89-0.45,1.48-0.45c0.62,0,1.29,0.2,2.02,0.6
		l-1.29,3.1c-0.49-0.21-0.88-0.32-1.17-0.32c-0.55,0-0.97,0.24-1.27,0.71c-0.43,0.66-0.65,1.91-0.65,3.72v3.81h-4.19V59.56z"/>
	<path class="st1" d="M90.68,55.24v4.32h2.3v3.19h-2.3v4.03c0,0.48,0.04,0.8,0.13,0.96c0.14,0.24,0.38,0.36,0.72,0.36
		c0.31,0,0.74-0.09,1.29-0.28l0.31,3.01c-1.03,0.24-2,0.35-2.89,0.35c-1.04,0-1.8-0.14-2.3-0.42c-0.49-0.28-0.86-0.7-1.09-1.27
		c-0.24-0.57-0.35-1.48-0.35-2.75v-4h-1.54v-3.19h1.54v-2.09L90.68,55.24z"/>
</g>
</svg>
