<?xml version="1.0" encoding="utf-8"?>
<!-- Generator: Adobe Illustrator 25.4.1, SVG Export Plug-In . SVG Version: 6.00 Build 0)  -->
<svg version="1.1" id="New_VCP" xmlns="http://www.w3.org/2000/svg" xmlns:xlink="http://www.w3.org/1999/xlink" x="0px" y="0px"
	 viewBox="0 0 100 100" style="enable-background:new 0 0 100 100;" xml:space="preserve">
<style type="text/css">
	.st0{fill:#FFFFFF;}
</style>
<g>
	<path class="st0" d="M99.5,93.56c0,3.28-2.66,5.94-5.94,5.94H6.43c-3.28,0-5.94-2.66-5.94-5.94V6.44c0-3.28,2.66-5.94,5.94-5.94
		h87.13c3.28,0,5.94,2.66,5.94,5.94V93.56z"/>
	<path d="M93.56,100H6.43C2.89,100,0,97.11,0,93.56V6.44C0,2.89,2.89,0,6.43,0h87.13C97.11,0,100,2.89,100,6.44v87.13
		C100,97.11,97.11,100,93.56,100z M6.43,0.99c-3,0-5.44,2.44-5.44,5.45v87.13c0,3,2.44,5.45,5.44,5.45h87.13
		c3,0,5.45-2.44,5.45-5.45V6.44c0-3-2.44-5.45-5.45-5.45H6.43z"/>
</g>
<g>
	<path d="M28.08,24.93l4.4-0.32c0.1,0.82,0.29,1.45,0.58,1.88c0.48,0.7,1.16,1.04,2.04,1.04c0.66,0,1.17-0.18,1.53-0.53
		s0.54-0.77,0.54-1.24c0-0.45-0.17-0.84-0.51-1.2s-1.13-0.68-2.37-1c-2.03-0.52-3.47-1.22-4.34-2.09c-0.87-0.87-1.31-1.97-1.31-3.32
		c0-0.88,0.22-1.72,0.67-2.5s1.12-1.4,2.01-1.85c0.9-0.45,2.12-0.67,3.68-0.67c1.91,0,3.37,0.41,4.37,1.22s1.6,2.12,1.79,3.9
		l-4.36,0.29c-0.12-0.77-0.36-1.34-0.73-1.69s-0.88-0.53-1.54-0.53c-0.54,0-0.94,0.13-1.21,0.39c-0.27,0.26-0.41,0.58-0.41,0.96
		c0,0.27,0.11,0.52,0.34,0.74c0.22,0.23,0.73,0.44,1.55,0.63c2.02,0.5,3.47,1.01,4.34,1.52s1.51,1.15,1.91,1.9
		c0.4,0.76,0.6,1.61,0.6,2.54c0,1.1-0.27,2.12-0.8,3.05s-1.27,1.63-2.23,2.12c-0.95,0.48-2.15,0.72-3.6,0.72
		c-2.54,0-4.31-0.56-5.29-1.69S28.21,26.67,28.08,24.93z"/>
	<path d="M43.97,13.44h12.39v3.67h-7.76v2.73h7.2v3.5h-7.2v3.39h7.98v3.89H43.97V13.44z"/>
	<path d="M58.03,13.44h14.06v4.24h-4.72v12.94h-4.62V17.68h-4.72V13.44z"/>
	<path d="M9.8,39.44h14.06v4.24h-4.72v12.94h-4.62V43.68H9.8V39.44z"/>
	<path d="M24.66,48.04c0-2.8,0.68-4.99,2.04-6.55s3.26-2.34,5.69-2.34c2.49,0,4.41,0.77,5.76,2.3c1.35,1.54,2.02,3.69,2.02,6.45
		c0,2.01-0.29,3.65-0.88,4.94s-1.44,2.29-2.55,3s-2.5,1.07-4.16,1.07c-1.69,0-3.08-0.31-4.19-0.93c-1.11-0.62-2-1.59-2.69-2.93
		C25,51.72,24.66,50.05,24.66,48.04z M29.28,48.06c0,1.73,0.28,2.98,0.84,3.74c0.56,0.76,1.33,1.14,2.29,1.14
		c0.99,0,1.76-0.37,2.31-1.11s0.82-2.07,0.82-4c0-1.62-0.28-2.8-0.85-3.54s-1.34-1.12-2.31-1.12c-0.93,0-1.68,0.38-2.25,1.14
		S29.28,46.31,29.28,48.06z"/>
	<path d="M42.71,56.62V39.44h7.71c1.43,0,2.52,0.14,3.28,0.42c0.76,0.28,1.37,0.8,1.83,1.56s0.69,1.69,0.69,2.78
		c0,0.95-0.18,1.78-0.53,2.47c-0.35,0.69-0.84,1.25-1.46,1.68c-0.4,0.27-0.94,0.5-1.62,0.68c0.55,0.21,0.95,0.42,1.2,0.63
		c0.17,0.14,0.42,0.44,0.74,0.9c0.32,0.46,0.54,0.82,0.65,1.07l2.24,4.98h-5.22l-2.47-5.25c-0.31-0.68-0.59-1.12-0.84-1.32
		c-0.33-0.27-0.71-0.4-1.13-0.4h-0.41v6.97H42.71z M47.36,46.4h1.95c0.21,0,0.62-0.08,1.22-0.23c0.31-0.07,0.56-0.25,0.75-0.54
		c0.2-0.29,0.29-0.62,0.29-1c0-0.55-0.15-0.98-0.46-1.28s-0.88-0.45-1.72-0.45h-2.03V46.4z"/>
	<path d="M68.5,49.58l4.05,1.41c-0.27,1.3-0.7,2.39-1.29,3.27s-1.31,1.54-2.18,1.98c-0.87,0.45-1.97,0.67-3.31,0.67
		c-1.63,0-2.96-0.27-3.99-0.81c-1.03-0.54-1.92-1.5-2.67-2.86c-0.75-1.37-1.12-3.11-1.12-5.25c0-2.84,0.66-5.03,1.97-6.55
		c1.32-1.53,3.18-2.29,5.59-2.29c1.88,0,3.37,0.44,4.45,1.31s1.88,2.22,2.4,4.03l-4.08,1.04c-0.14-0.52-0.29-0.91-0.45-1.15
		c-0.26-0.41-0.58-0.72-0.95-0.94c-0.38-0.22-0.79-0.33-1.26-0.33c-1.05,0-1.85,0.48-2.41,1.45c-0.42,0.72-0.63,1.85-0.63,3.38
		c0,1.9,0.25,3.21,0.76,3.91c0.5,0.71,1.21,1.06,2.12,1.06c0.88,0,1.55-0.29,2.01-0.86C67.96,51.5,68.29,50.67,68.5,49.58z"/>
	<path d="M74.81,39.44h4.62v6.01h5.05v-6.01h4.64v17.18h-4.64v-6.95h-5.05v6.95h-4.62V39.44z"/>
	<path d="M16.72,65.44h4.62v6.01h5.05v-6.01h4.64v17.18H26.4v-6.95h-5.05v6.95h-4.62V65.44z"/>
	<path d="M33.54,74.04c0-2.8,0.68-4.99,2.04-6.55s3.26-2.34,5.69-2.34c2.49,0,4.41,0.77,5.76,2.3c1.35,1.54,2.02,3.69,2.02,6.45
		c0,2.01-0.29,3.65-0.88,4.94c-0.59,1.29-1.44,2.29-2.55,3c-1.11,0.71-2.5,1.07-4.16,1.07c-1.69,0-3.08-0.31-4.19-0.93
		c-1.11-0.62-2-1.59-2.69-2.93C33.88,77.72,33.54,76.04,33.54,74.04z M38.16,74.06c0,1.73,0.28,2.98,0.84,3.74
		c0.56,0.76,1.33,1.14,2.29,1.14c0.99,0,1.76-0.37,2.31-1.11s0.82-2.07,0.82-4c0-1.62-0.28-2.8-0.85-3.54s-1.34-1.12-2.31-1.12
		c-0.93,0-1.68,0.38-2.25,1.14S38.16,72.31,38.16,74.06z"/>
	<path d="M51.48,65.44h6.08l2.34,10.45l2.33-10.45h6.08v17.18h-3.79v-13.1l-2.92,13.1h-3.43l-2.91-13.1v13.1h-3.79V65.44z"/>
	<path d="M71.25,65.44h12.39v3.67h-7.76v2.73h7.2v3.5h-7.2v3.39h7.98v3.89H71.25V65.44z"/>
</g>
</svg>
