<?xml version="1.0" encoding="utf-8"?>
<!-- Generator: Adobe Illustrator 26.0.3, SVG Export Plug-In . SVG Version: 6.00 Build 0)  -->
<svg version="1.1" id="New_VCP" xmlns="http://www.w3.org/2000/svg" xmlns:xlink="http://www.w3.org/1999/xlink" x="0px" y="0px"
	 viewBox="0 0 100 100" style="enable-background:new 0 0 100 100;" xml:space="preserve">
<style type="text/css">
	.st0{fill:#FFFFFF;}
</style>
<g>
	<circle class="st0" cx="49.5" cy="50" r="40"/>
	<path d="M49.5,91.5C26.6,91.5,8,72.9,8,50C8,27.1,26.6,8.5,49.5,8.5C72.4,8.5,91,27.1,91,50C91,72.9,72.4,91.5,49.5,91.5z
		 M49.5,11.5C28.3,11.5,11,28.8,11,50c0,21.2,17.3,38.5,38.5,38.5C70.7,88.5,88,71.2,88,50C88,28.8,70.7,11.5,49.5,11.5z"/>
</g>
<g>
	<circle class="st0" cx="50" cy="50" r="30"/>
	<path d="M50,81.5c-17.4,0-31.5-14.1-31.5-31.5S32.6,18.5,50,18.5S81.5,32.6,81.5,50S67.4,81.5,50,81.5z M50,21.5
		c-15.7,0-28.5,12.8-28.5,28.5S34.3,78.5,50,78.5S78.5,65.7,78.5,50S65.7,21.5,50,21.5z"/>
</g>
<g>
	<circle class="st0" cx="50" cy="50" r="20"/>
	<path d="M50,71.5c-11.9,0-21.5-9.6-21.5-21.5c0-11.9,9.6-21.5,21.5-21.5c11.9,0,21.5,9.6,21.5,21.5C71.5,61.9,61.9,71.5,50,71.5z
		 M50,31.5c-10.2,0-18.5,8.3-18.5,18.5S39.8,68.5,50,68.5S68.5,60.2,68.5,50S60.2,31.5,50,31.5z"/>
</g>
<g>
	<circle class="st0" cx="50" cy="50" r="10"/>
	<path d="M50,61.5c-6.3,0-11.5-5.2-11.5-11.5c0-6.3,5.2-11.5,11.5-11.5c6.3,0,11.5,5.2,11.5,11.5C61.5,56.3,56.3,61.5,50,61.5z
		 M50,41.5c-4.7,0-8.5,3.8-8.5,8.5c0,4.7,3.8,8.5,8.5,8.5c4.7,0,8.5-3.8,8.5-8.5C58.5,45.3,54.7,41.5,50,41.5z"/>
</g>
</svg>
