<?xml version="1.0" encoding="utf-8"?>
<!-- Generator: Adobe Illustrator 24.0.2, SVG Export Plug-In . SVG Version: 6.00 Build 0)  -->
<svg version="1.1" id="New_VCP" xmlns="http://www.w3.org/2000/svg" xmlns:xlink="http://www.w3.org/1999/xlink" x="0px" y="0px"
	 width="100px" height="100px" viewBox="0 0 100 100" style="enable-background:new 0 0 100 100;" xml:space="preserve">
<style type="text/css">
	.st0{fill:#FFFFFF;}
	.st1{fill:#231F20;}
	.st2{display:none;fill:#82151E;}
</style>
<g>
	<g>
		<path class="st0" d="M48.1,0.61L0.5,35.91v57.57c0,3.32,2.66,6.02,5.94,6.02h87.13c3.28,0,5.94-2.69,5.94-6.02V35.1L48.1,0.61z"/>
		<path d="M100,34.84v58.65c0,3.59-2.89,6.51-6.44,6.51H6.43C2.89,100,0,97.08,0,93.49V35.66l0.2-0.15L48.09,0l0.29,0.2L100,34.84z
			 M0.99,93.49c0,3.05,2.44,5.52,5.44,5.52h87.13c3,0,5.45-2.48,5.45-5.52V35.37L48.12,1.21L0.99,36.16V93.49z"/>
	</g>
</g>
<g>
	<path class="st1" d="M34.57,45.46H45.4V34.57h9.14v10.89h10.89v9.14H54.54v10.84H45.4V54.6H34.57V45.46z"/>
</g>
<path class="st2" d="M34.32,2.23h-0.68H6.82c-2.54,0-4.59,1.99-4.59,4.45v25.87v1.77L34.32,2.23z"/>
</svg>
