<?xml version="1.0" encoding="utf-8"?>
<!-- Generator: Adobe Illustrator 25.3.1, SVG Export Plug-In . SVG Version: 6.00 Build 0)  -->
<svg version="1.1" id="New_VCP" xmlns="http://www.w3.org/2000/svg" xmlns:xlink="http://www.w3.org/1999/xlink" x="0px" y="0px"
	 viewBox="0 0 100 100" style="enable-background:new 0 0 100 100;" xml:space="preserve">
<style type="text/css">
	.st0{fill:#FFC70E;}
	.st1{fill:#231F20;}
</style>
<path class="st0" d="M100,94c0,3.31-2.69,6-6,6H6c-3.31,0-6-2.69-6-6V6c0-3.31,2.69-6,6-6h88c3.31,0,6,2.69,6,6V94z"/>
<g>
	<path class="st1" d="M41.34,25.55v-3.7h7.4v7.58c-1.42,1.11-2.67,1.86-3.76,2.26c-1.09,0.4-2.38,0.6-3.87,0.6
		c-1.84,0-3.34-0.36-4.5-1.08c-1.16-0.72-2.06-1.79-2.7-3.22s-0.96-3.06-0.96-4.9c0-1.94,0.35-3.63,1.05-5.07s1.72-2.53,3.07-3.27
		c1.05-0.57,2.46-0.86,4.24-0.86c1.71,0,2.99,0.18,3.84,0.53c0.85,0.36,1.55,0.91,2.11,1.66c0.56,0.75,0.98,1.7,1.26,2.85
		l-4.62,0.95c-0.19-0.67-0.51-1.19-0.97-1.54c-0.45-0.36-1.03-0.53-1.74-0.53c-1.05,0-1.89,0.42-2.51,1.26
		c-0.62,0.84-0.94,2.16-0.94,3.97c0,1.93,0.31,3.3,0.95,4.13s1.51,1.24,2.64,1.24c0.54,0,1.05-0.09,1.53-0.27
		c0.49-0.18,1.04-0.48,1.67-0.91v-1.67H41.34z"/>
	<path class="st1" d="M50.98,23.11c0-2.9,0.7-5.17,2.11-6.78c1.41-1.62,3.37-2.43,5.89-2.43c2.58,0,4.57,0.79,5.96,2.38
		c1.39,1.59,2.09,3.82,2.09,6.68c0,2.08-0.31,3.78-0.92,5.11c-0.61,1.33-1.49,2.37-2.64,3.11c-1.15,0.74-2.59,1.11-4.31,1.11
		c-1.75,0-3.19-0.32-4.34-0.96c-1.15-0.64-2.07-1.65-2.79-3.03S50.98,25.19,50.98,23.11z M55.77,23.14c0,1.8,0.29,3.09,0.87,3.87
		c0.58,0.78,1.37,1.18,2.37,1.18c1.03,0,1.82-0.38,2.39-1.15c0.56-0.77,0.85-2.15,0.85-4.14c0-1.67-0.29-2.9-0.88-3.67
		c-0.59-0.77-1.39-1.16-2.39-1.16c-0.96,0-1.74,0.39-2.33,1.18S55.77,21.33,55.77,23.14z"/>
	<path class="st1" d="M15.54,39.06h4.79v6.23h5.23v-6.23h4.81v17.79h-4.81v-7.2h-5.23v7.2h-4.79V39.06z"/>
	<path class="st1" d="M32.95,47.97c0-2.9,0.7-5.17,2.11-6.78c1.41-1.62,3.37-2.43,5.89-2.43c2.58,0,4.57,0.79,5.96,2.38
		c1.4,1.59,2.09,3.82,2.09,6.68c0,2.08-0.31,3.78-0.92,5.12c-0.61,1.33-1.49,2.37-2.64,3.11c-1.15,0.74-2.59,1.11-4.31,1.11
		c-1.75,0-3.19-0.32-4.34-0.96c-1.15-0.64-2.07-1.65-2.79-3.03C33.31,51.78,32.95,50.05,32.95,47.97z M37.74,47.99
		c0,1.8,0.29,3.09,0.87,3.87c0.58,0.78,1.37,1.18,2.37,1.18c1.03,0,1.83-0.38,2.39-1.15c0.56-0.77,0.85-2.15,0.85-4.14
		c0-1.67-0.29-2.9-0.88-3.67c-0.59-0.77-1.39-1.16-2.39-1.16c-0.97,0-1.74,0.39-2.33,1.18S37.74,46.18,37.74,47.99z"/>
	<path class="st1" d="M51.53,39.06h6.3l2.43,10.82l2.41-10.82h6.29v17.79h-3.92V43.28l-3.02,13.57h-3.55l-3.02-13.57v13.57h-3.92
		V39.06z"/>
	<path class="st1" d="M72.01,39.06h12.83v3.8h-8.03v2.83h7.45v3.63h-7.45v3.51h8.27v4.03H72.01V39.06z"/>
	<path class="st1" d="M25.87,63.91h5.27l2.74,5.47l2.67-5.47h5.22l-4.82,8.62l5.28,9.17h-5.38l-3.06-5.72l-3.06,5.72h-5.35
		l5.34-9.27L25.87,63.91z"/>
	<path class="st1" d="M42.2,63.91h5.32l3.12,6l3.13-6h5.29l-6.02,10.34v7.45h-4.8v-7.45L42.2,63.91z"/>
	<path class="st1" d="M60.22,63.91h13.55v3.56l-8.7,10.41h9.02v3.82h-14.7v-3.69l8.61-10.3h-7.77V63.91z"/>
</g>
</svg>
