<?xml version="1.0" encoding="utf-8"?>
<!-- Generator: Adobe Illustrator 25.4.1, SVG Export Plug-In . SVG Version: 6.00 Build 0)  -->
<svg version="1.1" id="New_VCP" xmlns="http://www.w3.org/2000/svg" xmlns:xlink="http://www.w3.org/1999/xlink" x="0px" y="0px"
	 viewBox="0 0 240 100" style="enable-background:new 0 0 240 100;" xml:space="preserve">
<style type="text/css">
	.st0{fill:#FFFFFF;}
	.st1{fill:#231F20;}
</style>
<g>
	<path class="st0" d="M227.49,99.5H12.51c-6.6,0-12-5.4-12-12v-75c0-6.6,5.4-12,12-12h214.98c6.6,0,12,5.4,12,12v75
		C239.49,94.1,234.09,99.5,227.49,99.5z"/>
	<path d="M227.27,100H12.73C5.71,100,0,94.38,0,87.48V12.52C0,5.62,5.71,0,12.73,0h214.54C234.29,0,240,5.62,240,12.52v74.96
		C240,94.38,234.29,100,227.27,100z M12.73,1C6.27,1,1.02,6.17,1.02,12.52v74.96C1.02,93.83,6.27,99,12.73,99h214.54
		c6.46,0,11.71-5.17,11.71-11.52V12.52c0-6.35-5.25-11.52-11.71-11.52H12.73z"/>
</g>
<g>
	<path class="st1" d="M100.46,22.33h10.25c2.23,0,3.9,0.61,5.01,1.83s1.67,2.95,1.67,5.2c0,2.31-0.61,4.12-1.82,5.42
		c-1.21,1.3-3.06,1.95-5.55,1.95h-3.38v8.5h-6.19V22.33z M106.65,32.1h1.51c1.19,0,2.02-0.24,2.5-0.71
		c0.48-0.47,0.72-1.08,0.72-1.82c0-0.72-0.21-1.33-0.63-1.83c-0.42-0.5-1.2-0.75-2.35-0.75h-1.76V32.1z"/>
	<path class="st1" d="M120.3,28.64h5.19v2.72c0.5-1.18,1.01-1.99,1.54-2.43c0.53-0.44,1.19-0.66,1.97-0.66
		c0.82,0,1.71,0.29,2.68,0.88l-1.71,4.53c-0.65-0.31-1.17-0.47-1.55-0.47c-0.73,0-1.29,0.34-1.69,1.03
		c-0.57,0.97-0.86,2.78-0.86,5.44v5.56h-5.57V28.64z"/>
	<path class="st1" d="M132.39,36.99c0-2.53,0.74-4.62,2.23-6.26s3.5-2.46,6.03-2.46c2.89,0,5.08,0.96,6.56,2.89
		c1.19,1.55,1.78,3.46,1.78,5.73c0,2.55-0.74,4.64-2.21,6.27c-1.47,1.63-3.51,2.45-6.12,2.45c-2.32,0-4.2-0.68-5.63-2.03
		C133.27,41.9,132.39,39.71,132.39,36.99z M137.94,36.97c0,1.48,0.26,2.57,0.78,3.28c0.52,0.71,1.18,1.06,1.97,1.06
		c0.8,0,1.45-0.35,1.97-1.05c0.51-0.7,0.77-1.82,0.77-3.36c0-1.44-0.26-2.51-0.78-3.21c-0.52-0.7-1.16-1.05-1.92-1.05
		c-0.81,0-1.47,0.36-2,1.07C138.21,34.43,137.94,35.51,137.94,36.97z"/>
	<path class="st1" d="M157.83,28.64h2.64v4.66h-2.64v11.94h-5.55V33.3h-2.07v-4.66h2.07v-0.75c0-0.68,0.06-1.42,0.19-2.23
		s0.37-1.48,0.71-1.99s0.84-0.93,1.47-1.25c0.63-0.32,1.55-0.48,2.77-0.48c0.97,0,2.38,0.13,4.23,0.39l-0.61,3.84
		c-0.66-0.12-1.2-0.19-1.61-0.19c-0.5,0-0.86,0.1-1.08,0.29c-0.22,0.19-0.37,0.5-0.46,0.91C157.85,27.42,157.83,27.9,157.83,28.64z"
		/>
	<path class="st1" d="M162.71,22.33h5.54v4.33h-5.54V22.33z M162.71,28.64h5.54v16.59h-5.54V28.64z"/>
	<path class="st1" d="M171.98,22.33h5.55v22.91h-5.55V22.33z"/>
	<path class="st1" d="M197.12,38.52h-11.11c0.1,1.02,0.34,1.78,0.72,2.28c0.54,0.72,1.23,1.08,2.1,1.08c0.54,0,1.06-0.16,1.55-0.47
		c0.3-0.2,0.62-0.55,0.97-1.05l5.46,0.58c-0.83,1.67-1.84,2.86-3.02,3.59s-2.87,1.09-5.08,1.09c-1.92,0-3.42-0.31-4.52-0.93
		c-1.1-0.62-2.01-1.6-2.73-2.95c-0.72-1.35-1.08-2.93-1.08-4.76c0-2.59,0.72-4.69,2.17-6.3c1.45-1.6,3.45-2.41,6-2.41
		c2.07,0,3.7,0.36,4.9,1.08c1.2,0.72,2.11,1.76,2.74,3.12c0.63,1.37,0.94,3.14,0.94,5.33V38.52z M191.48,35.47
		c-0.11-1.23-0.4-2.11-0.86-2.64c-0.47-0.53-1.08-0.8-1.84-0.8c-0.88,0-1.58,0.4-2.11,1.2c-0.34,0.5-0.55,1.25-0.64,2.23H191.48z"/>
	<path class="st1" d="M100.42,48.74h8.11l3.13,13.94l3.1-13.94h8.1v22.91h-5.05V54.18l-3.89,17.47h-4.57l-3.88-17.47v17.47h-5.05
		V48.74z"/>
	<path class="st1" d="M131.48,60.43l-5.29-0.64c0.2-1.06,0.49-1.9,0.86-2.51c0.38-0.61,0.92-1.14,1.63-1.59
		c0.51-0.32,1.21-0.57,2.1-0.75c0.89-0.18,1.85-0.27,2.88-0.27c1.66,0,2.99,0.11,4,0.32c1.01,0.21,1.85,0.66,2.52,1.34
		c0.47,0.47,0.84,1.13,1.12,1.99s0.41,1.68,0.41,2.46v7.33c0,0.78,0.04,1.39,0.13,1.84c0.09,0.44,0.27,1.01,0.57,1.7h-5.2
		c-0.21-0.43-0.34-0.75-0.41-0.98c-0.06-0.22-0.13-0.58-0.19-1.05c-0.73,0.8-1.45,1.38-2.16,1.72c-0.98,0.46-2.12,0.69-3.42,0.69
		c-1.72,0-3.03-0.46-3.93-1.38c-0.89-0.92-1.34-2.05-1.34-3.39c0-1.26,0.32-2.3,0.97-3.11c0.64-0.81,1.83-1.42,3.57-1.81
		c2.08-0.48,3.42-0.81,4.04-1.01c0.62-0.19,1.27-0.45,1.96-0.76c0-0.78-0.14-1.33-0.42-1.64s-0.78-0.47-1.48-0.47
		c-0.91,0-1.59,0.17-2.04,0.5C131.98,59.22,131.7,59.71,131.48,60.43z M136.28,63.77c-0.76,0.31-1.56,0.59-2.38,0.83
		c-1.12,0.34-1.84,0.68-2.14,1.02c-0.31,0.34-0.46,0.73-0.46,1.17c0,0.5,0.15,0.91,0.46,1.23c0.3,0.32,0.75,0.48,1.34,0.48
		c0.62,0,1.19-0.17,1.72-0.52c0.53-0.34,0.91-0.76,1.13-1.26c0.22-0.49,0.33-1.14,0.33-1.93V63.77z"/>
	<path class="st1" d="M145.02,55.05h5.16v2.7c0.77-1.1,1.55-1.89,2.34-2.37c0.79-0.47,1.75-0.71,2.89-0.71
		c1.53,0,2.73,0.52,3.6,1.57s1.3,2.66,1.3,4.85v10.55h-5.57v-9.12c0-1.04-0.17-1.78-0.5-2.21c-0.34-0.43-0.81-0.65-1.42-0.65
		c-0.67,0-1.22,0.29-1.63,0.88c-0.42,0.58-0.63,1.63-0.63,3.14v7.97h-5.54V55.05z"/>
	<path class="st1" d="M168.66,60.43l-5.29-0.64c0.2-1.06,0.49-1.9,0.86-2.51c0.38-0.61,0.92-1.14,1.63-1.59
		c0.51-0.32,1.21-0.57,2.1-0.75c0.89-0.18,1.85-0.27,2.88-0.27c1.66,0,2.99,0.11,4,0.32c1.01,0.21,1.85,0.66,2.52,1.34
		c0.47,0.47,0.84,1.13,1.12,1.99s0.41,1.68,0.41,2.46v7.33c0,0.78,0.04,1.39,0.13,1.84c0.09,0.44,0.27,1.01,0.57,1.7h-5.2
		c-0.21-0.43-0.34-0.75-0.41-0.98c-0.06-0.22-0.13-0.58-0.19-1.05c-0.73,0.8-1.45,1.38-2.16,1.72c-0.98,0.46-2.12,0.69-3.42,0.69
		c-1.72,0-3.03-0.46-3.93-1.38c-0.89-0.92-1.34-2.05-1.34-3.39c0-1.26,0.32-2.3,0.97-3.11c0.64-0.81,1.83-1.42,3.57-1.81
		c2.08-0.48,3.42-0.81,4.04-1.01c0.62-0.19,1.27-0.45,1.96-0.76c0-0.78-0.14-1.33-0.42-1.64s-0.78-0.47-1.48-0.47
		c-0.91,0-1.59,0.17-2.04,0.5C169.16,59.22,168.88,59.71,168.66,60.43z M173.46,63.77c-0.76,0.31-1.56,0.59-2.38,0.83
		c-1.12,0.34-1.84,0.68-2.14,1.02c-0.31,0.34-0.46,0.73-0.46,1.17c0,0.5,0.15,0.91,0.46,1.23c0.3,0.32,0.75,0.48,1.34,0.48
		c0.62,0,1.19-0.17,1.72-0.52c0.53-0.34,0.91-0.76,1.13-1.26c0.22-0.49,0.33-1.14,0.33-1.93V63.77z"/>
	<path class="st1" d="M192.71,55.05h5.19v15.67l0.01,0.73c0,1.04-0.19,2.03-0.58,2.98c-0.39,0.94-0.9,1.71-1.54,2.29
		c-0.64,0.58-1.45,1-2.44,1.27c-0.98,0.26-2.11,0.39-3.38,0.39c-2.9,0-4.9-0.5-5.98-1.5s-1.63-2.34-1.63-4.02
		c0-0.21,0.01-0.49,0.03-0.84l5.38,0.7c0.14,0.57,0.34,0.97,0.63,1.19c0.41,0.32,0.92,0.48,1.54,0.48c0.8,0,1.4-0.25,1.79-0.73
		c0.39-0.49,0.59-1.34,0.59-2.56v-2.52c-0.54,0.74-1.09,1.28-1.63,1.61c-0.85,0.52-1.77,0.78-2.76,0.78c-1.93,0-3.49-0.97-4.68-2.91
		c-0.84-1.38-1.27-3.19-1.27-5.45c0-2.58,0.54-4.55,1.63-5.91c1.09-1.35,2.51-2.03,4.27-2.03c1.12,0,2.05,0.22,2.78,0.66
		s1.41,1.16,2.05,2.17V55.05z M187.5,63.1c0,1.2,0.22,2.09,0.67,2.66c0.45,0.58,1.03,0.87,1.76,0.87c0.69,0,1.27-0.3,1.74-0.9
		c0.47-0.6,0.7-1.5,0.7-2.71c0-1.21-0.25-2.13-0.74-2.77c-0.49-0.64-1.09-0.96-1.8-0.96c-0.71,0-1.27,0.29-1.69,0.88
		C187.71,60.76,187.5,61.74,187.5,63.1z"/>
	<path class="st1" d="M217.29,64.93h-11.11c0.1,1.02,0.34,1.78,0.72,2.28c0.54,0.72,1.23,1.08,2.1,1.08c0.54,0,1.06-0.16,1.55-0.47
		c0.3-0.2,0.62-0.55,0.97-1.05l5.46,0.58c-0.83,1.67-1.84,2.86-3.02,3.59s-2.87,1.09-5.08,1.09c-1.92,0-3.42-0.31-4.52-0.93
		c-1.1-0.62-2.01-1.6-2.73-2.95c-0.72-1.35-1.08-2.93-1.08-4.76c0-2.59,0.72-4.69,2.17-6.3c1.45-1.6,3.45-2.41,6-2.41
		c2.07,0,3.7,0.36,4.9,1.08c1.2,0.72,2.11,1.76,2.74,3.12c0.63,1.37,0.94,3.14,0.94,5.33V64.93z M211.65,61.88
		c-0.11-1.23-0.4-2.11-0.86-2.64c-0.47-0.53-1.08-0.8-1.84-0.8c-0.88,0-1.58,0.4-2.11,1.2c-0.34,0.5-0.55,1.25-0.64,2.23H211.65z"/>
	<path class="st1" d="M219.89,55.05h5.19v2.72c0.5-1.18,1.01-1.99,1.54-2.43c0.53-0.44,1.19-0.66,1.97-0.66
		c0.82,0,1.71,0.29,2.68,0.88l-1.71,4.53c-0.65-0.31-1.17-0.47-1.55-0.47c-0.73,0-1.29,0.34-1.69,1.03
		c-0.57,0.97-0.86,2.78-0.86,5.44v5.56h-5.57V55.05z"/>
</g>
<g>
	<rect x="9.88" y="9.51" class="st1" width="75.84" height="80.99"/>
	<rect x="9.88" y="70.63" class="st0" width="75.84" height="10.95"/>
	<rect x="9.88" y="54.55" class="st0" width="75.84" height="8.81"/>
	<rect x="9.88" y="42.18" class="st0" width="75.84" height="6.1"/>
	<rect x="9.88" y="31.59" class="st0" width="75.84" height="4.66"/>
	<rect x="9.88" y="23.26" class="st0" width="75.84" height="3.28"/>
	<rect x="9.88" y="17.93" class="st0" width="75.84" height="2"/>
</g>
</svg>
