<?xml version="1.0" encoding="utf-8"?>
<!-- Generator: Adobe Illustrator 26.0.1, SVG Export Plug-In . SVG Version: 6.00 Build 0)  -->
<svg version="1.1" id="New_VCP" xmlns="http://www.w3.org/2000/svg" xmlns:xlink="http://www.w3.org/1999/xlink" x="0px" y="0px"
	 viewBox="0 0 100 100" style="enable-background:new 0 0 100 100;" xml:space="preserve">
<style type="text/css">
	.st0{fill:#FFFFFF;}
	.st1{fill:#231F20;}
</style>
<g>
	<g>
		<path class="st0" d="M51.9,99.4l47.6-35.3V6.5c0-3.3-2.7-6-5.9-6H6.4c-3.3,0-5.9,2.7-5.9,6v58.4L51.9,99.4z"/>
		<path d="M0,65.2V6.5C0,2.9,2.9,0,6.4,0h87.1c3.5,0,6.4,2.9,6.4,6.5v57.8l-0.2,0.2L51.9,100l-0.3-0.2L0,65.2z M99,6.5
			c0-3-2.4-5.5-5.4-5.5H6.4C3.4,1,1,3.5,1,6.5v58.1l50.9,34.2l47.1-35V6.5z"/>
	</g>
</g>
<rect x="30.9" y="54.4" class="st1" width="38.3" height="11.3"/>
<g>
	<path class="st1" d="M30.4,14.4h18.2v5.5h-6.1v16.7h-6V19.8h-6.1V14.4z"/>
	<path class="st1" d="M49.3,14.4h6.2l4.4,16l4.3-16h6.1l-7.2,22.2h-6.5L49.3,14.4z"/>
</g>
</svg>
