<svg id="New_VCP" data-name="New VCP" xmlns="http://www.w3.org/2000/svg" width="100" height="100" viewBox="0 0 100 100">
  <title>x100</title>
  <rect width="100" height="100" rx="6" style="fill: #fff"/>
  <g>
    <path d="M13.77,42.07h6.84L23,46.68l2.79-4.61h6.35L27,50l5.5,8.66H25.78L23,53.29l-3.26,5.32H13.48L19,50Z" style="fill: #231f20"/>
    <path d="M46.92,35.39V58.61H41.08V43.4a17.77,17.77,0,0,1-2.74,1.91A19.5,19.5,0,0,1,35,46.71v-5.2A13.44,13.44,0,0,0,39.6,39a10.12,10.12,0,0,0,2.54-3.61Z" style="fill: #231f20"/>
    <path d="M53.19,47.1q0-6.51,2.13-9.11c1.42-1.73,3.59-2.6,6.49-2.6a8.85,8.85,0,0,1,3.44.57,6.31,6.31,0,0,1,2.2,1.48,7.71,7.71,0,0,1,1.34,1.91,10.44,10.44,0,0,1,.78,2.35A23.77,23.77,0,0,1,70.15,47c0,4.15-.63,7.18-1.91,9.1S64.77,59,61.66,59a8.46,8.46,0,0,1-4.24-.92,7.11,7.11,0,0,1-2.64-2.69,10.81,10.81,0,0,1-1.17-3.45A25.74,25.74,0,0,1,53.19,47.1Zm5.72,0a16.89,16.89,0,0,0,.7,6,2.23,2.23,0,0,0,2,1.59A2,2,0,0,0,63.17,54a4.49,4.49,0,0,0,.94-2.15,23.79,23.79,0,0,0,.31-4.56c0-3-.24-5.07-.7-6.11a2.25,2.25,0,0,0-2.1-1.57,2.15,2.15,0,0,0-2.07,1.6A18.09,18.09,0,0,0,58.91,47.12Z" style="fill: #231f20"/>
    <path d="M72.53,47.1q0-6.51,2.13-9.11t6.5-2.6A8.92,8.92,0,0,1,84.6,36a6.26,6.26,0,0,1,2.19,1.48,7.71,7.71,0,0,1,1.34,1.91,10.43,10.43,0,0,1,.79,2.35A24.36,24.36,0,0,1,89.5,47q0,6.23-1.92,9.1T81,59a8.4,8.4,0,0,1-4.23-.92,7.13,7.13,0,0,1-2.65-2.69A10.81,10.81,0,0,1,73,51.94,25.74,25.74,0,0,1,72.53,47.1Zm5.72,0a17.14,17.14,0,0,0,.7,6,2.23,2.23,0,0,0,2,1.59A2,2,0,0,0,82.51,54a4.49,4.49,0,0,0,.95-2.15,24.86,24.86,0,0,0,.3-4.56q0-4.55-.7-6.11A2.25,2.25,0,0,0,81,39.61a2.16,2.16,0,0,0-2.07,1.6A18.38,18.38,0,0,0,78.25,47.12Z" style="fill: #231f20"/>
  </g>
</svg>
