<?xml version="1.0" encoding="utf-8"?>
<!-- Generator: Adobe Illustrator 24.0.2, SVG Export Plug-In . SVG Version: 6.00 Build 0)  -->
<svg version="1.1" id="New_VCP" xmlns="http://www.w3.org/2000/svg" xmlns:xlink="http://www.w3.org/1999/xlink" x="0px" y="0px"
	 width="100px" height="100px" viewBox="0 0 100 100" style="enable-background:new 0 0 100 100;" xml:space="preserve">
<style type="text/css">
	.st0{fill:#262C6B;}
	.st1{display:none;fill:#82151E;}
	.st2{display:none;}
	.st3{display:inline;fill:#FFFFFF;}
	.st4{fill:#FFFFFF;}
</style>
<path class="st0" d="M100,94c0,3.3-2.7,6-6,6H6c-3.3,0-6-2.7-6-6V6c0-3.3,2.7-6,6-6h88c3.3,0,6,2.7,6,6V94z"/>
<path class="st1" d="M35.1,3h-0.7H7.6C5.1,3,3,5,3,7.4v25.9v1.8L35.1,3z"/>
<g class="st2">
	<path class="st3" d="M24.1,58.8V35.7h7l4.2,15.8l4.2-15.8h7v23.1h-4.3V40.6l-4.6,18.2H33l-4.6-18.2v18.2H24.1z"/>
	<path class="st3" d="M50.2,52.9l4.4-0.5c0.1,1,0.5,1.8,1.1,2.4c0.6,0.6,1.3,0.9,2.1,0.9c0.9,0,1.7-0.4,2.3-1.1c0.6-0.8,1-1.9,1-3.4
		c0-1.4-0.3-2.5-1-3.2c-0.6-0.7-1.5-1.1-2.5-1.1c-1.3,0-2.4,0.6-3.4,1.7l-3.6-0.5L53,36h11.7v4.2h-8.4l-0.7,3.9c1-0.5,2-0.7,3-0.7
		c2,0,3.6,0.7,5,2.1s2.1,3.3,2.1,5.6c0,1.9-0.6,3.6-1.7,5.1c-1.5,2-3.6,3.1-6.3,3.1c-2.1,0-3.9-0.6-5.2-1.7
		C51.2,56.4,50.4,54.8,50.2,52.9z"/>
	<path class="st3" d="M68.1,52.9l4.4-0.5c0.1,1,0.5,1.8,1.1,2.4c0.6,0.6,1.3,0.9,2.1,0.9c0.9,0,1.7-0.4,2.4-1.1c0.6-0.8,1-1.9,1-3.4
		c0-1.4-0.3-2.5-1-3.2c-0.6-0.7-1.5-1.1-2.5-1.1c-1.3,0-2.4,0.6-3.4,1.7l-3.6-0.5l2.3-12h11.7v4.2h-8.4l-0.7,3.9c1-0.5,2-0.7,3-0.7
		c2,0,3.6,0.7,5,2.1c1.4,1.4,2.1,3.3,2.1,5.6c0,1.9-0.6,3.6-1.7,5.1c-1.5,2-3.6,3.1-6.3,3.1c-2.1,0-3.9-0.6-5.2-1.7
		C69.2,56.4,68.4,54.8,68.1,52.9z"/>
</g>
<text transform="matrix(1 0 0 1 142.8542 49.9997)" style="display:none;fill:#FFFFFF; font-family:'Arial-BoldMT'; font-size:32.32px;">M55</text>
<g>
	<g>
		<path class="st4" d="M16.6,24.7h7.7c1.7,0,2.9,0.5,3.8,1.5c0.8,1,1.3,2.4,1.3,4.2c0,1.9-0.5,3.3-1.4,4.4c-0.9,1-2.3,1.6-4.2,1.6
			h-2.5v6.8h-4.7V24.7z M21.2,32.6h1.1c0.9,0,1.5-0.2,1.9-0.6c0.4-0.4,0.5-0.9,0.5-1.5c0-0.6-0.2-1.1-0.5-1.5
			c-0.3-0.4-0.9-0.6-1.8-0.6h-1.3V32.6z"/>
		<path class="st4" d="M30.4,36.5c0-2,0.6-3.7,1.7-5s2.6-2,4.6-2c2.2,0,3.8,0.8,5,2.3c0.9,1.2,1.3,2.8,1.3,4.6c0,2.1-0.6,3.7-1.7,5
			c-1.1,1.3-2.7,2-4.6,2c-1.8,0-3.2-0.5-4.3-1.6C31.1,40.4,30.4,38.7,30.4,36.5z M34.6,36.5c0,1.2,0.2,2.1,0.6,2.6
			c0.4,0.6,0.9,0.9,1.5,0.9c0.6,0,1.1-0.3,1.5-0.8c0.4-0.6,0.6-1.5,0.6-2.7c0-1.2-0.2-2-0.6-2.6c-0.4-0.6-0.9-0.8-1.4-0.8
			c-0.6,0-1.1,0.3-1.5,0.9C34.8,34.4,34.6,35.3,34.6,36.5z"/>
		<path class="st4" d="M45,48.2V29.8h3.9v2c0.5-0.8,1-1.4,1.5-1.7c0.6-0.4,1.3-0.6,2-0.6c1.5,0,2.6,0.7,3.4,2
			c0.8,1.4,1.2,3.1,1.2,5.1c0,2.2-0.4,3.9-1.3,5.1c-0.9,1.2-2,1.8-3.3,1.8c-0.6,0-1.2-0.1-1.8-0.4c-0.5-0.3-1-0.7-1.4-1.2v6.4H45z
			 M49.2,36.5c0,1.1,0.2,1.8,0.5,2.3c0.4,0.5,0.8,0.8,1.4,0.8c0.5,0,0.9-0.2,1.2-0.7c0.3-0.5,0.5-1.3,0.5-2.5c0-1.1-0.2-1.9-0.5-2.4
			c-0.3-0.5-0.8-0.8-1.3-0.8c-0.5,0-1,0.3-1.3,0.8C49.4,34.5,49.2,35.3,49.2,36.5z"/>
		<path class="st4" d="M69.1,24.7h4.6v11c0,1.1-0.1,2.1-0.4,3.1s-0.7,1.8-1.3,2.5c-0.6,0.7-1.2,1.2-1.9,1.5c-0.9,0.4-2,0.6-3.3,0.6
			c-0.7,0-1.5-0.1-2.4-0.2c-0.9-0.1-1.6-0.4-2.2-0.7c-0.6-0.4-1.1-0.9-1.6-1.6c-0.5-0.7-0.8-1.4-1-2.1c-0.3-1.2-0.4-2.2-0.4-3.1v-11
			H64v11.2c0,1,0.2,1.8,0.7,2.4c0.5,0.6,1.1,0.8,1.9,0.8c0.8,0,1.4-0.3,1.9-0.8c0.5-0.6,0.7-1.3,0.7-2.4V24.7z"/>
		<path class="st4" d="M76.6,48.2V29.8h3.9v2c0.5-0.8,1-1.4,1.5-1.7c0.6-0.4,1.3-0.6,2-0.6c1.5,0,2.6,0.7,3.4,2
			c0.8,1.4,1.2,3.1,1.2,5.1c0,2.2-0.4,3.9-1.3,5.1s-2,1.8-3.3,1.8c-0.6,0-1.2-0.1-1.8-0.4c-0.5-0.3-1-0.7-1.4-1.2v6.4H76.6z
			 M80.8,36.5c0,1.1,0.2,1.8,0.5,2.3c0.4,0.5,0.8,0.8,1.4,0.8c0.5,0,0.9-0.2,1.2-0.7s0.5-1.3,0.5-2.5c0-1.1-0.2-1.9-0.5-2.4
			c-0.3-0.5-0.8-0.8-1.3-0.8c-0.5,0-1,0.3-1.3,0.8C81,34.5,80.8,35.3,80.8,36.5z"/>
		<path class="st4" d="M22.1,51.9h8.8c1.9,0,3.3,0.6,4.3,1.7c1,1.1,1.4,2.7,1.4,4.7c0,2.1-0.5,3.8-1.6,4.9c-1,1.2-2.6,1.8-4.7,1.8
			h-2.9v7.7h-5.3V51.9z M27.4,60.8h1.3c1,0,1.7-0.2,2.1-0.6c0.4-0.4,0.6-1,0.6-1.7c0-0.7-0.2-1.2-0.5-1.7c-0.4-0.5-1-0.7-2-0.7h-1.5
			V60.8z"/>
		<path class="st4" d="M39.6,51.9h5.3v20.9h-5.3V51.9z"/>
		<path class="st4" d="M48.7,51.9h4.9L60,63.4V51.9h5v20.9h-5l-6.4-11.5v11.5h-5V51.9z"/>
		<path class="st4" d="M67.6,65.8l5-0.4c0.1,1,0.3,1.8,0.7,2.3c0.5,0.8,1.3,1.3,2.3,1.3c0.8,0,1.3-0.2,1.7-0.6
			c0.4-0.4,0.6-0.9,0.6-1.5c0-0.5-0.2-1-0.6-1.5c-0.4-0.4-1.3-0.8-2.7-1.2c-2.3-0.6-4-1.5-4.9-2.5c-1-1.1-1.5-2.4-1.5-4
			c0-1.1,0.3-2.1,0.8-3c0.5-1,1.3-1.7,2.3-2.2c1-0.5,2.4-0.8,4.2-0.8c2.2,0,3.8,0.5,5,1.5c1.1,1,1.8,2.6,2,4.7l-5,0.4
			c-0.1-0.9-0.4-1.6-0.8-2c-0.4-0.4-1-0.6-1.8-0.6c-0.6,0-1.1,0.2-1.4,0.5c-0.3,0.3-0.5,0.7-0.5,1.2c0,0.3,0.1,0.6,0.4,0.9
			c0.2,0.3,0.8,0.5,1.8,0.8c2.3,0.6,4,1.2,5,1.8c1,0.6,1.7,1.4,2.2,2.3c0.5,0.9,0.7,2,0.7,3.1c0,1.3-0.3,2.6-0.9,3.7
			c-0.6,1.1-1.5,2-2.5,2.6s-2.5,0.9-4.1,0.9c-2.9,0-4.9-0.7-6-2C68.4,69.7,67.7,67.9,67.6,65.8z"/>
	</g>
</g>
</svg>
