<?xml version="1.0" encoding="utf-8"?>
<!-- Generator: Adobe Illustrator 27.0.0, SVG Export Plug-In . SVG Version: 6.00 Build 0)  -->
<svg version="1.1" id="Layer_1" xmlns="http://www.w3.org/2000/svg" xmlns:xlink="http://www.w3.org/1999/xlink" x="0px" y="0px"
	 viewBox="0 0 378 349.9" style="enable-background:new 0 0 378 349.9;" xml:space="preserve">
<style type="text/css">
	.st0{fill:#FFFFFF;stroke:#010101;stroke-miterlimit:10;}
	.st1{fill:#EB2227;}
	.st2{fill:#EB2227;stroke:#ED1C24;stroke-width:1.5;stroke-miterlimit:10;}
	.st3{fill:#FFFFFF;}
	.st4{fill:#ED2224;}
</style>
<rect class="st0" width="378" height="350"/>
<g>
	<path class="st1" d="M104.1,54V19.8h17.6c3.3,0,5.8,0.3,7.5,0.8s3.1,1.6,4.2,3.1c1.1,1.5,1.6,3.4,1.6,5.5c0,1.9-0.4,3.5-1.2,4.9
		c-0.8,1.4-1.9,2.5-3.3,3.3c-0.9,0.5-2.1,1-3.7,1.3c1.3,0.4,2.2,0.8,2.8,1.3c0.4,0.3,0.9,0.9,1.7,1.8c0.7,0.9,1.2,1.6,1.5,2.1
		l5.1,9.9h-11.9l-5.6-10.4c-0.7-1.3-1.3-2.2-1.9-2.6c-0.8-0.5-1.6-0.8-2.6-0.8h-0.9V54H104.1z M114.7,33.7h4.4
		c0.5,0,1.4-0.2,2.8-0.5c0.7-0.1,1.3-0.5,1.7-1.1s0.7-1.2,0.7-2c0-1.1-0.3-2-1.1-2.5c-0.7-0.6-2-0.9-3.9-0.9h-4.6L114.7,33.7
		L114.7,33.7z"/>
	<path class="st1" d="M141,19.8h28.3v7.3h-17.7v5.4H168v7h-16.4v6.7h18.2V54H141C141,54,141,19.8,141,19.8z"/>
	<path class="st1" d="M173.6,42.7l10-0.6c0.2,1.6,0.7,2.9,1.3,3.7c1.1,1.4,2.6,2.1,4.7,2.1c1.5,0,2.7-0.3,3.5-1.1
		c0.8-0.7,1.2-1.5,1.2-2.5c0-0.9-0.4-1.7-1.2-2.4c-0.8-0.7-2.6-1.4-5.4-2c-4.6-1-7.9-2.4-9.9-4.1c-2-1.7-3-3.9-3-6.6
		c0-1.8,0.5-3.4,1.5-5c1-1.6,2.5-2.8,4.6-3.7c2-0.9,4.8-1.3,8.4-1.3c4.4,0,7.7,0.8,10,2.4c2.3,1.6,3.6,4.2,4.1,7.7l-9.9,0.6
		c-0.3-1.5-0.8-2.6-1.7-3.4s-2-1-3.5-1c-1.2,0-2.1,0.3-2.8,0.8c-0.6,0.5-0.9,1.1-0.9,1.9c0,0.5,0.3,1,0.8,1.5
		c0.5,0.5,1.7,0.9,3.5,1.3c4.6,1,7.9,2,9.9,3c2,1,3.4,2.3,4.4,3.8c0.9,1.5,1.4,3.2,1.4,5c0,2.2-0.6,4.2-1.8,6
		c-1.2,1.8-2.9,3.2-5.1,4.2c-2.2,1-4.9,1.4-8.2,1.4c-5.8,0-9.8-1.1-12.1-3.3C175.1,49,173.9,46.1,173.6,42.7z"/>
	<path class="st1" d="M209.8,19.8h28.3v7.3h-17.7v5.4h16.4v7h-16.4v6.7h18.2V54h-28.8L209.8,19.8L209.8,19.8z"/>
	<path class="st1" d="M241.9,19.8h32.1v8.4h-10.8V54h-10.5V28.3h-10.8L241.9,19.8L241.9,19.8z"/>
	<path class="st2" d="M281.7,279.3H96.3c-6.6,0-12-5.4-12-12V81.9c0-6.6,5.4-12,12-12h185.4c6.6,0,12,5.4,12,12v185.5
		C293.7,273.9,288.3,279.3,281.7,279.3z"/>
	<g id="RESET_Cleared">
		<g>
			<path class="st3" d="M147.7,132.6h8.5c1.8,0,3.2,0.6,4.2,1.8c0.9,1.2,1.4,2.9,1.4,5c0,2.2-0.5,4-1.5,5.3c-1,1.3-2.5,1.9-4.6,1.9
				h-2.8v8.2h-5.1L147.7,132.6L147.7,132.6z M152.9,142.1h1.2c1,0,1.7-0.2,2.1-0.7s0.6-1.1,0.6-1.8c0-0.7-0.2-1.3-0.5-1.8
				c-0.4-0.5-1-0.7-1.9-0.7h-1.5C152.9,137.1,152.9,142.1,152.9,142.1z"/>
			<path class="st3" d="M164.5,154.8v-22.2h8.5c1.6,0,2.8,0.2,3.6,0.5c0.8,0.4,1.5,1,2,2c0.5,1,0.8,2.2,0.8,3.6
				c0,1.2-0.2,2.3-0.6,3.2s-0.9,1.6-1.6,2.2c-0.4,0.4-1,0.6-1.8,0.9c0.6,0.3,1.1,0.6,1.3,0.8c0.2,0.2,0.5,0.6,0.8,1.2
				c0.4,0.6,0.6,1.1,0.7,1.4l2.5,6.4H175l-2.7-6.8c-0.4-0.9-0.6-1.4-0.9-1.7c-0.4-0.3-0.8-0.5-1.2-0.5h-0.4v9L164.5,154.8
				L164.5,154.8z M169.6,141.6h2.2c0.2,0,0.7-0.1,1.4-0.3c0.3-0.1,0.6-0.3,0.8-0.7c0.2-0.4,0.3-0.8,0.3-1.3c0-0.7-0.2-1.3-0.5-1.6
				c-0.3-0.4-1-0.6-1.9-0.6h-2.2L169.6,141.6L169.6,141.6z"/>
			<path class="st3" d="M182.4,132.6h13.7v4.7h-8.6v3.5h8v4.5h-8v4.4h8.8v5h-13.9V132.6z"/>
			<path class="st3" d="M198.2,147.5l4.9-0.4c0.1,1.1,0.3,1.9,0.6,2.4c0.5,0.9,1.3,1.4,2.3,1.4c0.7,0,1.3-0.2,1.7-0.7
				c0.4-0.5,0.6-1,0.6-1.6c0-0.6-0.2-1.1-0.6-1.5c-0.4-0.4-1.2-0.9-2.6-1.3c-2.2-0.7-3.8-1.6-4.8-2.7s-1.4-2.6-1.4-4.3
				c0-1.1,0.2-2.2,0.7-3.2s1.2-1.8,2.2-2.4s2.4-0.9,4.1-0.9c2.1,0,3.7,0.5,4.8,1.6c1.1,1.1,1.8,2.7,2,5l-4.8,0.4
				c-0.1-1-0.4-1.7-0.8-2.2s-1-0.7-1.7-0.7c-0.6,0-1,0.2-1.3,0.5s-0.4,0.8-0.4,1.2c0,0.4,0.1,0.7,0.4,0.9c0.2,0.3,0.8,0.6,1.7,0.8
				c2.2,0.6,3.8,1.3,4.8,2s1.7,1.5,2.1,2.5c0.4,1,0.7,2.1,0.7,3.3c0,1.4-0.3,2.7-0.9,3.9c-0.6,1.2-1.4,2.1-2.5,2.7s-2.4,0.9-4,0.9
				c-2.8,0-4.8-0.7-5.9-2.2C199,151.6,198.4,149.7,198.2,147.5z"/>
			<path class="st3" d="M214.9,147.5l4.9-0.4c0.1,1.1,0.3,1.9,0.6,2.4c0.5,0.9,1.3,1.4,2.3,1.4c0.7,0,1.3-0.2,1.7-0.7
				c0.4-0.5,0.6-1,0.6-1.6c0-0.6-0.2-1.1-0.6-1.5c-0.4-0.4-1.2-0.9-2.6-1.3c-2.2-0.7-3.8-1.6-4.8-2.7s-1.4-2.6-1.4-4.3
				c0-1.1,0.2-2.2,0.7-3.2s1.2-1.8,2.2-2.4s2.4-0.9,4.1-0.9c2.1,0,3.7,0.5,4.8,1.6c1.1,1.1,1.8,2.7,2,5l-4.8,0.4
				c-0.1-1-0.4-1.7-0.8-2.2s-1-0.7-1.7-0.7c-0.6,0-1,0.2-1.3,0.5s-0.4,0.8-0.4,1.2c0,0.4,0.1,0.7,0.4,0.9c0.2,0.3,0.8,0.6,1.7,0.8
				c2.2,0.6,3.8,1.3,4.8,2s1.7,1.5,2.1,2.5c0.4,1,0.7,2.1,0.7,3.3c0,1.4-0.3,2.7-0.9,3.9c-0.6,1.2-1.4,2.1-2.5,2.7s-2.4,0.9-4,0.9
				c-2.8,0-4.8-0.7-5.9-2.2C215.7,151.6,215,149.7,214.9,147.5z"/>
			<path class="st3" d="M171.4,163.7h15.5v5.5h-5.2v16.7h-5.1v-16.7h-5.2L171.4,163.7L171.4,163.7z"/>
			<path class="st3" d="M187.8,174.8c0-3.6,0.8-6.4,2.3-8.5c1.5-2,3.6-3,6.3-3c2.8,0,4.9,1,6.4,3c1.5,2,2.2,4.8,2.2,8.3
				c0,2.6-0.3,4.7-1,6.4s-1.6,2.9-2.8,3.9c-1.2,0.9-2.8,1.4-4.6,1.4c-1.9,0-3.4-0.4-4.6-1.2s-2.2-2.1-3-3.8
				C188.2,179.5,187.8,177.4,187.8,174.8z M192.9,174.8c0,2.2,0.3,3.9,0.9,4.8s1.5,1.5,2.5,1.5c1.1,0,1.9-0.5,2.6-1.4
				s0.9-2.7,0.9-5.2c0-2.1-0.3-3.6-0.9-4.6s-1.5-1.4-2.6-1.4c-1,0-1.9,0.5-2.5,1.5C193.2,170.9,192.9,172.5,192.9,174.8z"/>
			<path class="st3" d="M158.1,207.8l4.5,1.8c-0.3,1.7-0.8,3.1-1.4,4.2c-0.6,1.1-1.4,2-2.4,2.6c-1,0.6-2.2,0.9-3.7,0.9
				c-1.8,0-3.3-0.4-4.4-1.1c-1.1-0.7-2.1-1.9-2.9-3.7s-1.2-4-1.2-6.8c0-3.7,0.7-6.5,2.2-8.5c1.5-2,3.5-3,6.2-3
				c2.1,0,3.7,0.6,4.9,1.7c1.2,1.1,2.1,2.9,2.7,5.2l-4.5,1.4c-0.2-0.7-0.3-1.2-0.5-1.5c-0.3-0.5-0.6-0.9-1.1-1.2
				c-0.4-0.3-0.9-0.4-1.4-0.4c-1.2,0-2.1,0.6-2.7,1.9c-0.5,0.9-0.7,2.4-0.7,4.4c0,2.5,0.3,4.1,0.8,5.1s1.3,1.4,2.4,1.4
				c1,0,1.7-0.4,2.2-1.1C157.5,210.3,157.9,209.2,158.1,207.8z"/>
			<path class="st3" d="M165.1,194.7h5.1v16.7h8v5.5h-13.1V194.7z"/>
			<path class="st3" d="M180.5,194.7h13.7v4.7h-8.6v3.5h8v4.5h-8v4.4h8.8v5h-13.9L180.5,194.7L180.5,194.7z"/>
			<path class="st3" d="M207.3,213.2h-5.8l-0.8,3.7h-5.2l6.2-22.2h5.6l6.2,22.2h-5.4L207.3,213.2z M206.3,208.4l-1.8-8l-1.8,8H206.3
				z"/>
			<path class="st3" d="M215.2,216.9v-22.2h8.5c1.6,0,2.8,0.2,3.6,0.5c0.8,0.4,1.5,1,2,2c0.5,1,0.8,2.2,0.8,3.6
				c0,1.2-0.2,2.3-0.6,3.2s-0.9,1.6-1.6,2.2c-0.4,0.4-1,0.6-1.8,0.9c0.6,0.3,1.1,0.6,1.3,0.8c0.2,0.2,0.5,0.6,0.8,1.2
				c0.4,0.6,0.6,1.1,0.7,1.4l2.5,6.4h-5.8l-2.7-6.8c-0.4-0.9-0.6-1.4-0.9-1.7c-0.4-0.3-0.8-0.5-1.2-0.5h-0.4v9L215.2,216.9
				L215.2,216.9z M220.4,203.7h2.2c0.2,0,0.7-0.1,1.4-0.3c0.3-0.1,0.6-0.3,0.8-0.7c0.2-0.4,0.3-0.8,0.3-1.3c0-0.7-0.2-1.3-0.5-1.6
				c-0.3-0.4-1-0.6-1.9-0.6h-2.2L220.4,203.7L220.4,203.7z"/>
		</g>
		<path class="st4" d="M91.1,294.7h27.6v8.9h-9.3v27.1h-9.1v-27.1H91L91.1,294.7L91.1,294.7z"/>
		<path class="st4" d="M122.9,330.7v-36h15.1c2.8,0,5,0.3,6.4,0.9c1.5,0.6,2.7,1.7,3.6,3.3c0.9,1.6,1.4,3.5,1.4,5.8
			c0,2-0.3,3.7-1,5.2c-0.7,1.5-1.7,2.6-2.9,3.5c-0.8,0.6-1.8,1-3.2,1.4c1.1,0.4,1.9,0.9,2.4,1.3c0.3,0.3,0.8,0.9,1.4,1.9
			c0.6,1,1.1,1.7,1.3,2.2l4.4,10.4h-10.3l-4.9-11c-0.6-1.4-1.2-2.4-1.6-2.8c-0.7-0.6-1.4-0.8-2.2-0.8H132v14.6H122.9z M132,309.2
			h3.8c0.4,0,1.2-0.2,2.4-0.5c0.6-0.1,1.1-0.5,1.5-1.1c0.4-0.6,0.6-1.3,0.6-2.1c0-1.2-0.3-2-0.9-2.7c-0.6-0.6-1.7-0.9-3.4-0.9h-4
			C132,301.9,132,309.2,132,309.2z"/>
		<path class="st4" d="M155.1,294.7h9.1v36h-9.1V294.7z"/>
		<path class="st4" d="M170.7,294.7h15.1c3.3,0,5.8,1,7.4,2.9c1.6,1.9,2.5,4.6,2.5,8.2c0,3.6-0.9,6.5-2.7,8.5s-4.5,3.1-8.2,3.1h-5
			v13.4h-9.1L170.7,294.7L170.7,294.7z M179.8,310h2.2c1.8,0,3-0.4,3.7-1.1s1.1-1.7,1.1-2.9c0-1.1-0.3-2.1-0.9-2.9
			c-0.6-0.8-1.8-1.2-3.5-1.2h-2.6V310z"/>
		<path class="st4" d="M200.4,294.7h15.1c3.3,0,5.8,1,7.4,2.9c1.6,1.9,2.5,4.6,2.5,8.2c0,3.6-0.9,6.5-2.7,8.5s-4.5,3.1-8.2,3.1h-5
			v13.4h-9.1L200.4,294.7L200.4,294.7z M209.5,310h2.2c1.8,0,3-0.4,3.7-1.1s1.1-1.7,1.1-2.9c0-1.1-0.3-2.1-0.9-2.9
			c-0.6-0.8-1.8-1.2-3.5-1.2h-2.6V310z"/>
		<path class="st4" d="M230.1,294.7h24.4v7.7h-15.2v5.7h14.1v7.3h-14.1v7.1h15.7v8.1h-24.8V294.7z"/>
		<path class="st4" d="M259.9,294.7h13.5c2.7,0,4.8,0.4,6.5,1.3c1.6,0.9,3,2.1,4.1,3.8c1.1,1.6,1.9,3.6,2.3,5.8
			c0.5,2.2,0.7,4.5,0.7,7c0,3.9-0.4,6.8-1.1,9c-0.7,2.1-1.7,3.9-3,5.3c-1.3,1.4-2.6,2.4-4.1,2.9c-2,0.6-3.8,1-5.4,1h-13.5V294.7z
			 M269,302.8v19.7h2.2c1.9,0,3.2-0.3,4-0.8c0.8-0.5,1.4-1.4,1.9-2.7c0.5-1.3,0.7-3.4,0.7-6.2c0-3.8-0.5-6.4-1.5-7.8
			c-1-1.4-2.7-2.1-5.1-2.1L269,302.8L269,302.8z"/>
	</g>
</g>
</svg>
