<svg id="New_VCP" data-name="New VCP" xmlns="http://www.w3.org/2000/svg" width="100" height="100" viewBox="0 0 100 100">
  <title>atc_tool_positive</title>
  <rect width="100" height="100" rx="6" style="fill: #ffc70e"/>
  <g>
    <path d="M43.19,30.25H39.26L37.7,26.19H30.55l-1.48,4.06H25.24l7-17.9H36Zm-6.65-7.08-2.46-6.64-2.42,6.64Z" style="fill: #231f20"/>
    <path d="M47.28,30.25V15.38H42v-3H56.2v3H50.9V30.25Z" style="fill: #231f20"/>
    <path d="M70,23.67l3.5,1.11a7.85,7.85,0,0,1-2.68,4.35,7.62,7.62,0,0,1-4.75,1.43,7.71,7.71,0,0,1-5.86-2.44,9.31,9.31,0,0,1-2.3-6.66,9.78,9.78,0,0,1,2.31-6.94,7.91,7.91,0,0,1,6.07-2.47A7.45,7.45,0,0,1,71.6,14a7.12,7.12,0,0,1,1.83,3.3l-3.58.85a3.8,3.8,0,0,0-1.32-2.2,3.84,3.84,0,0,0-2.45-.8,4.07,4.07,0,0,0-3.23,1.43Q61.62,18,61.62,21.19c0,2.27.4,3.88,1.22,4.84A4,4,0,0,0,66,27.47a3.63,3.63,0,0,0,2.48-.92A5.32,5.32,0,0,0,70,23.67Z" style="fill: #231f20"/>
  </g>
  <g>
    <path d="M13.51,55.89V38h3.61V55.89Z" style="fill: #231f20"/>
    <path d="M20.6,55.89V38h3.51l7.33,12V38H34.8V55.89H31.17L24,44.22V55.89Z" style="fill: #231f20"/>
    <path d="M38.6,38h6.61a12.76,12.76,0,0,1,3.4.34A6,6,0,0,1,51.31,40,7.75,7.75,0,0,1,53,42.89a13.19,13.19,0,0,1,.59,4.23,11.86,11.86,0,0,1-.55,3.8,7.93,7.93,0,0,1-1.92,3.17,6.33,6.33,0,0,1-2.54,1.42,10.67,10.67,0,0,1-3.2.38H38.6Zm3.62,3V52.88h2.7a10.13,10.13,0,0,0,2.18-.17A3.38,3.38,0,0,0,48.56,52a3.69,3.69,0,0,0,.94-1.73A11.39,11.39,0,0,0,49.87,47a10.48,10.48,0,0,0-.37-3.19,4,4,0,0,0-1-1.73,3.36,3.36,0,0,0-1.67-.84,15.68,15.68,0,0,0-3-.18Z" style="fill: #231f20"/>
    <path d="M56.67,55.89V38H69.94v3H60.28v4h9v3h-9v4.87h10v3Z" style="fill: #231f20"/>
    <path d="M71.53,55.89l6.11-9.34L72.1,38h4.22l3.59,5.75L83.43,38h4.19l-5.57,8.69,6.12,9.2H83.81l-4-6.19-4,6.19Z" style="fill: #231f20"/>
  </g>
  <path d="M37,73.11h9.16V63.89h7.73v9.22h9.21v7.73H53.84V90H46.11V80.84H37Z" style="fill: #231f20"/>
</svg>
